<?xml version="1.0" encoding="UTF-8"?>
<!DOCTYPE svg PUBLIC "-//W3C//DTD SVG 1.1//EN" "http://www.w3.org/Graphics/SVG/1.1/DTD/svg11.dtd"><svg version="1.1" viewBox="0 0 21000 29700" preserveAspectRatio="xMidYMid" fill-rule="evenodd" xmlns="http://www.w3.org/2000/svg" xmlns:xlink="http://www.w3.org/1999/xlink"><g visibility="visible" id="Default"><desc>Master slide</desc><g style="stroke:none;fill:none"><rect x="0" y="0" width="21000" height="29700"/></g></g><g visibility="visible" id="page1"><desc>Slide</desc><g><desc>Graphic</desc><g><g style="stroke:none;fill:rgb(0,0,0)"><path d="M 15189,10002 L 15185,9995 15185,9995 C 15155,9833 15125,9699 15102,9591 15098,9581 15098,9571 15095,9561 15050,9402 15007,9254 14963,9116 14963,9113 14963,9110 14960,9106 14895,8924 14832,8759 14761,8608 14677,8416 14575,8228 14458,8036 L 14455,8032 14455,8032 C 14283,7763 14083,7511 13854,7278 L 13851,7278 13851,7278 C 13574,6992 13264,6747 12921,6541 12911,6531 12897,6521 12887,6514 12534,6296 12170,6131 11799,6020 L 11803,6023 11803,6023 C 11489,5925 11183,5868 10883,5848 10822,5841 10751,5838 10674,5838 L 10586,5824 10586,5824 C 10576,5821 10566,5821 10559,5821 10344,5811 10124,5821 9899,5851 L 9895,5851 9895,5851 C 9275,5929 8679,6144 8109,6501 7958,6585 7813,6679 7669,6790 L 7669,6794 7669,6794 C 7274,7087 6937,7437 6650,7837 L 6647,7841 6647,7841 C 6418,8164 6226,8531 6071,8941 6021,9069 5966,9221 5916,9399 5913,9406 5913,9413 5913,9416 L 5913,9416 5876,9554 5876,9551 5876,9551 C 5818,9783 5774,10015 5748,10247 L 5748,10244 5748,10244 C 5744,10261 5744,10281 5741,10298 L 6081,10298 6081,10298 C 6081,10294 6081,10291 6081,10288 6108,10069 6148,9850 6203,9631 L 6240,9493 6240,9493 C 6290,9328 6338,9184 6385,9059 6530,8679 6711,8335 6923,8032 7190,7659 7507,7336 7870,7060 8009,6955 8146,6864 8288,6787 8818,6457 9366,6255 9939,6184 10145,6158 10347,6147 10542,6158 L 10654,6174 10654,6174 C 10731,6174 10802,6178 10859,6184 11136,6201 11415,6255 11701,6343 12045,6447 12382,6598 12709,6800 L 12702,6800 12702,6800 C 13039,6999 13342,7238 13612,7514 13824,7729 14009,7962 14168,8211 14279,8389 14373,8568 14455,8746 14518,8891 14582,9046 14643,9217 14687,9349 14727,9493 14768,9645 14768,9648 14768,9648 14768,9651 14795,9759 14825,9894 14855,10059 14868,10136 14882,10217 14892,10298 L 15232,10298 15232,10298 C 15219,10197 15205,10099 15189,10002 Z"/><path d="M 14892,10298 L 14892,10298 C 14899,10348 14905,10399 14909,10449 L 14926,10816 14926,10816 C 14930,10941 14926,11055 14920,11166 L 14885,11503 14885,11503 C 14868,11631 14848,11738 14825,11823 L 14825,11823 14755,12136 14656,12432 14542,12721 14417,13001 14330,13169 14330,13176 14279,13270 14131,13539 13986,13805 13875,14011 14009,14011 14279,14011 14552,14011 14825,14011 14825,14011 C 14933,14011 15024,14014 15095,14024 15165,14027 15257,14034 15367,14051 15418,14058 15509,14071 15637,14095 15687,14105 15779,14125 15910,14159 L 16179,14243 16179,14243 C 16257,14266 16344,14303 16449,14351 16546,14388 16638,14431 16721,14482 16813,14526 16904,14579 16995,14640 17073,14690 17143,14734 17200,14778 L 17200,14778 17747,14778 17477,14563 17477,14563 C 17473,14559 17470,14559 17467,14556 17389,14499 17295,14431 17180,14357 L 17180,14361 17180,14361 C 17083,14293 16985,14236 16887,14189 16789,14132 16685,14081 16571,14037 16459,13987 16364,13950 16284,13923 16281,13923 16281,13923 16277,13920 L 16007,13836 16007,13836 C 16004,13836 15997,13836 15994,13832 15852,13795 15755,13775 15697,13765 L 15694,13765 15694,13765 C 15562,13741 15469,13724 15415,13718 15290,13701 15189,13691 15112,13687 15034,13677 14936,13674 14825,13674 L 14825,13674 14441,13674 14626,13337 14626,13337 C 14636,13314 14646,13294 14653,13270 L 14963,12570 14963,12570 C 14970,12553 14977,12540 14983,12523 L 14983,12523 15152,11913 15152,11910 15152,11910 C 15175,11813 15199,11695 15219,11550 15219,11547 15219,11540 15222,11536 L 15257,11200 15257,11200 C 15257,11197 15257,11190 15257,11186 15263,11069 15267,10941 15263,10809 15263,10806 15263,10806 15263,10806 L 15247,10439 15247,10439 C 15247,10429 15247,10422 15247,10416 15242,10375 15236,10335 15232,10298 L 14892,10298 Z"/><path d="M 5741,10298 L 5741,10298 C 5727,10409 5717,10523 5714,10644 5711,10806 5707,10927 5711,11011 5714,11156 5724,11277 5738,11372 5748,11496 5764,11614 5784,11722 5791,11759 5811,11863 5849,12038 5849,12041 5849,12045 5852,12048 5869,12115 5899,12220 5943,12361 5943,12365 5943,12368 5946,12371 L 6048,12661 6048,12661 C 6048,12664 6048,12667 6051,12671 6095,12785 6135,12886 6179,12970 L 6266,13149 6266,13149 C 6273,13179 6286,13213 6303,13243 6341,13324 6378,13395 6421,13452 L 6421,13452 6546,13681 5869,13687 5869,13687 C 5866,13687 5866,13687 5862,13687 5784,13691 5684,13701 5556,13718 L 5559,13718 5559,13718 C 5504,13724 5411,13741 5276,13765 5219,13775 5117,13795 4976,13832 4972,13832 4972,13832 4969,13836 4868,13862 4774,13893 4687,13926 4588,13960 4484,14000 4380,14048 4377,14051 4373,14051 4370,14054 L 4100,14186 4100,14186 C 4097,14186 4090,14189 4086,14192 3968,14256 3868,14317 3790,14367 3682,14435 3584,14502 3500,14566 L 3503,14566 3503,14566 C 3416,14630 3328,14701 3238,14778 L 3783,14778 3783,14778 C 3840,14734 3905,14690 3975,14647 4046,14600 4137,14546 4248,14485 L 4517,14354 4517,14354 C 4612,14310 4703,14276 4790,14246 4875,14216 4962,14186 5060,14159 5192,14125 5282,14105 5333,14095 5461,14071 5552,14058 5603,14051 5714,14034 5805,14027 5872,14024 L 5872,14024 6145,14011 6415,14011 6688,14011 6960,14011 7109,14011 7032,13876 6890,13617 6748,13354 6701,13267 6701,13267 C 6668,13220 6637,13162 6607,13095 6597,13078 6590,13058 6586,13041 L 6482,12822 6482,12822 C 6445,12745 6405,12654 6364,12550 L 6263,12260 6263,12260 C 6223,12129 6196,12031 6179,11967 6141,11796 6121,11695 6115,11658 6098,11560 6081,11456 6071,11338 6061,11254 6051,11139 6048,11001 6044,10924 6048,10806 6051,10655 6054,10530 6064,10412 6081,10298 L 5741,10298 Z"/><path d="M 3703,14835 L 3703,14835 C 3726,14818 3753,14798 3783,14778 L 3238,14778 3238,14778 C 3227,14785 3221,14791 3211,14802 3207,14805 3201,14812 3196,14818 L 2863,15145 2863,15145 C 2846,15162 2829,15179 2819,15195 2756,15263 2691,15330 2634,15397 2631,15401 2631,15401 2631,15404 2539,15515 2445,15643 2347,15781 L 2347,15778 2347,15778 C 2237,15936 2135,16094 2052,16256 L 2052,16259 2052,16259 C 1940,16471 1842,16690 1762,16919 1566,17461 1468,18050 1468,18679 L 1468,18683 1468,18683 C 1472,18881 1482,19073 1498,19258 L 1839,19258 1839,19258 C 1819,19070 1809,18878 1805,18679 1805,18090 1897,17538 2078,17030 2155,16818 2244,16613 2347,16414 2425,16266 2516,16118 2621,15973 2712,15842 2802,15724 2891,15616 2958,15539 3028,15458 3106,15381 L 3106,15381 3099,15381 3163,15313 3433,15054 3433,15054 C 3523,14973 3615,14899 3703,14835 Z"/><path d="M 1839,19258 L 1498,19258 1498,19258 C 1542,19676 1630,20069 1762,20443 L 1762,20446 1762,20446 C 1842,20672 1937,20894 2048,21106 L 2048,21106 2052,21110 2095,21190 2095,21190 C 2115,21234 2139,21271 2166,21305 2244,21439 2317,21561 2395,21672 2762,22210 3248,22668 3843,23042 3847,23045 3853,23048 3861,23052 L 4248,23267 4248,23267 C 4252,23271 4258,23271 4262,23274 L 4298,23291 4298,23291 C 4754,23513 5229,23654 5721,23712 5946,23738 6173,23745 6391,23732 L 6395,23732 6395,23732 C 6573,23722 6748,23701 6917,23674 L 6920,23674 6920,23674 C 7028,23654 7180,23621 7375,23574 7379,23574 7382,23574 7385,23574 L 7435,23560 7435,23560 C 7445,23557 7459,23553 7472,23550 7591,23513 7699,23476 7792,23446 7796,23442 7796,23442 7799,23442 7941,23388 8062,23338 8167,23291 L 8164,23294 8164,23294 C 8234,23264 8349,23203 8507,23116 8511,23112 8514,23112 8517,23112 8646,23035 8743,22974 8814,22924 8931,22846 9033,22772 9113,22705 9198,22634 9278,22560 9363,22480 9366,22476 9366,22476 9370,22476 9475,22379 9552,22301 9602,22251 9605,22247 9609,22241 9612,22237 L 9612,22237 9812,21998 9815,21998 9815,21998 C 9882,21914 9949,21827 10017,21729 10020,21726 10024,21722 10027,21719 L 10347,21204 10347,21204 C 10350,21197 10354,21190 10357,21184 L 10357,21184 10495,20931 10869,21598 10869,21598 C 10872,21604 10876,21611 10879,21614 10946,21719 11011,21813 11074,21890 L 11068,21877 11068,21877 C 11118,21948 11179,22025 11256,22116 11328,22207 11408,22294 11493,22375 L 11486,22368 11486,22368 C 11573,22459 11658,22540 11735,22604 L 11725,22594 11725,22594 C 11786,22651 11873,22722 11988,22813 L 11991,22813 11991,22813 C 12068,22870 12163,22937 12278,23011 L 12281,23011 12281,23011 C 12399,23085 12510,23146 12612,23197 12712,23250 12824,23304 12945,23355 13049,23398 13181,23446 13332,23496 L 13332,23496 13336,23499 13507,23550 13507,23550 C 13511,23550 13511,23550 13514,23550 13740,23614 13979,23664 14225,23695 L 14218,23695 14218,23695 C 14393,23718 14578,23732 14771,23732 15017,23732 15257,23712 15492,23674 L 15495,23674 15495,23674 C 16038,23577 16563,23375 17073,23075 17090,23065 17110,23055 17130,23045 17642,22725 18077,22335 18434,21870 L 18434,21867 18434,21867 C 18531,21736 18636,21577 18754,21389 L 18818,21301 18818,21301 C 18828,21288 18834,21274 18844,21261 L 18916,21123 18916,21123 C 18916,21120 18916,21120 18919,21120 19030,20908 19128,20685 19212,20446 19343,20069 19428,19672 19471,19258 L 19131,19258 19131,19258 C 19091,19635 19009,19995 18892,20335 18814,20558 18724,20766 18619,20961 L 18619,20961 18544,21103 18471,21207 18471,21207 C 18359,21389 18255,21540 18164,21665 17830,22099 17426,22463 16951,22759 L 16941,22759 16941,22759 C 16456,23052 15954,23247 15435,23341 15219,23378 14997,23395 14771,23395 14593,23395 14424,23385 14266,23361 14036,23331 13818,23287 13606,23227 L 13434,23176 13434,23176 C 13295,23133 13174,23089 13076,23045 12959,22995 12854,22944 12756,22890 12665,22846 12567,22793 12460,22725 12355,22658 12264,22597 12193,22543 12089,22463 12008,22395 11951,22345 11880,22288 11806,22217 11725,22133 11654,22062 11586,21988 11523,21907 11448,21823 11388,21746 11338,21678 11280,21608 11223,21527 11163,21433 L 11163,21433 11011,21180 10866,20921 10724,20662 10492,20234 10357,20490 10205,20753 10060,21022 9909,21285 9740,21537 9740,21537 C 9680,21625 9619,21705 9555,21779 L 9356,22018 9356,22018 C 9310,22069 9235,22140 9133,22234 9056,22311 8976,22382 8895,22446 8824,22506 8733,22570 8628,22641 8564,22688 8470,22749 8346,22820 8197,22900 8089,22954 8026,22984 7927,23028 7813,23075 7682,23126 7591,23156 7489,23190 7372,23227 L 7372,23227 7365,23227 7294,23247 7294,23247 C 7109,23291 6967,23324 6863,23341 6705,23365 6543,23385 6371,23395 6173,23405 5966,23398 5758,23375 5302,23324 4868,23193 4447,22988 L 4447,22988 4410,22971 4022,22756 4022,22756 C 3466,22409 3014,21981 2671,21480 2594,21369 2519,21248 2442,21110 2425,21093 2412,21073 2402,21049 L 2347,20951 2347,20951 C 2244,20753 2155,20544 2078,20332 1960,19992 1879,19635 1839,19258 Z"/><path d="M 18127,15148 L 18127,15148 18134,15155 18057,15074 18057,15074 C 18053,15071 18049,15071 18049,15067 17965,14980 17867,14889 17763,14795 17757,14791 17753,14785 17750,14781 L 17750,14781 17747,14778 17200,14778 17200,14778 C 17223,14795 17245,14808 17265,14825 L 17537,15044 17537,15044 C 17638,15135 17730,15219 17807,15300 L 17884,15381 17884,15381 C 17945,15444 18009,15515 18080,15599 18164,15697 18252,15815 18349,15953 18454,16111 18544,16259 18619,16397 18727,16599 18818,16804 18892,17010 19023,17377 19111,17770 19148,18188 L 19151,18221 19151,18221 C 19158,18346 19161,18501 19161,18679 19161,18878 19151,19070 19131,19258 L 19471,19258 19471,19258 C 19488,19070 19498,18878 19498,18679 19498,18494 19495,18336 19488,18205 L 19488,18205 19488,18221 19485,18188 19485,18188 C 19485,18178 19485,18168 19485,18158 19441,17710 19350,17289 19209,16895 19131,16673 19033,16454 18916,16239 L 18919,16239 18919,16239 C 18838,16091 18741,15933 18629,15768 18626,15764 18626,15764 18626,15761 18521,15613 18427,15488 18339,15384 18262,15293 18191,15216 18127,15148 Z"/></g><g style="stroke:none;fill:rgb(0,201,3)"><path d="M 10654,6174 L 10542,6158 10542,6158 C 10347,6147 10145,6158 9939,6184 9366,6255 8818,6457 8288,6787 8146,6864 8009,6955 7870,7060 7507,7336 7190,7659 6923,8032 6711,8335 6530,8679 6385,9059 6338,9184 6290,9328 6240,9493 L 6203,9631 6203,9631 C 6148,9850 6108,10069 6081,10288 L 7870,9190 7870,9190 C 8072,8827 8342,8517 8683,8261 8763,8197 8848,8140 8935,8090 L 8965,8073 8965,8073 C 9407,7790 9872,7645 10360,7635 10377,7632 10397,7632 10417,7632 L 11166,7174 11166,7174 C 11142,7235 11105,7295 11061,7359 11058,7363 11054,7369 11051,7373 L 14768,9651 14768,9651 C 14768,9648 14768,9648 14768,9645 14727,9493 14687,9349 14643,9217 14582,9046 14518,8891 14455,8746 14373,8568 14279,8389 14168,8211 14009,7962 13824,7729 13612,7514 13342,7238 13039,6999 12702,6800 L 12709,6800 12709,6800 C 12382,6598 12045,6447 11701,6343 11415,6255 11136,6201 10859,6184 10802,6178 10731,6174 10654,6174 Z M 11260,6787 L 11260,6787 11203,6753 11199,6750 11203,6750 11260,6787 Z"/></g><g style="stroke:none;fill:rgb(3,201,0)"><path d="M 11203,6753 L 11203,6753 11203,6750 11199,6750 11203,6753 Z"/></g><g style="stroke:none;fill:rgb(8,195,0)"><path d="M 11051,7373 L 11051,7373 C 11054,7369 11058,7363 11061,7359 11105,7295 11142,7235 11166,7174 L 10417,7632 10417,7632 C 10444,7632 10472,7632 10499,7635 10552,7635 10603,7632 10654,7622 10724,7605 10792,7581 10856,7544 10906,7514 10953,7477 10997,7433 11018,7413 11034,7393 11051,7373 Z"/></g><g style="stroke:none;fill:rgb(0,196,10)"><path d="M 10997,7433 L 10997,7433 C 10953,7477 10906,7514 10856,7544 10836,7554 10816,7565 10799,7575 L 10984,7686 10984,7686 C 11344,7743 11685,7874 12011,8080 L 12022,8080 12022,8080 C 12362,8285 12648,8541 12881,8847 L 14855,10059 14855,10059 C 14825,9894 14795,9759 14768,9651 L 11051,7373 11051,7373 C 11034,7393 11018,7413 10997,7433 Z"/></g><g style="stroke:none;fill:rgb(0,181,28)"><path d="M 10799,7575 L 10799,7575 C 10754,7598 10704,7612 10654,7622 10603,7632 10552,7635 10499,7635 10472,7632 10444,7632 10417,7632 10397,7632 10377,7632 10360,7635 10401,7645 10448,7649 10502,7649 10650,7645 10812,7655 10984,7686 L 10799,7575 Z"/></g><g style="stroke:none;fill:rgb(0,0,0)"><path d="M 10654,7622 L 10654,7622 C 10704,7612 10754,7598 10799,7575 10816,7565 10836,7554 10856,7544 10792,7581 10724,7605 10654,7622 Z"/><path d="M 10984,7686 L 10984,7686 C 10812,7655 10650,7645 10502,7649 10448,7649 10401,7645 10360,7635 9872,7645 9407,7790 8965,8073 L 8935,8090 8935,8090 C 8848,8140 8763,8197 8683,8261 8342,8517 8072,8827 7870,9190 7779,9352 7709,9513 7651,9675 7614,9769 7580,9880 7547,10012 L 7530,10096 7530,10096 C 7497,10234 7472,10362 7462,10483 7445,10607 7439,10729 7439,10843 7439,10934 7445,11048 7456,11183 7466,11287 7482,11395 7507,11499 7527,11594 7554,11695 7587,11802 7621,11907 7654,12001 7689,12085 7705,12132 7749,12223 7813,12354 L 7813,12354 7954,12614 8096,12876 8241,13139 8528,13660 8669,13920 8716,14011 8858,14011 9127,14011 9400,14011 9673,14011 9942,14011 10212,14011 10485,14011 10754,14011 11028,14011 11297,14011 11570,14011 11843,14011 12113,14011 12267,14011 12345,13866 12490,13600 12638,13334 12783,13065 12927,12802 13076,12533 13127,12439 13127,12445 13214,12264 13214,12264 C 13231,12230 13269,12136 13332,11981 13369,11887 13399,11786 13426,11678 13457,11563 13477,11459 13494,11365 13507,11277 13518,11166 13528,11028 13534,10910 13534,10789 13528,10671 13518,10520 13501,10392 13481,10288 13457,10160 13437,10072 13423,10025 L 13383,9870 13383,9870 C 13339,9722 13285,9571 13214,9413 13124,9207 13012,9019 12881,8847 12648,8541 12362,8285 12022,8080 L 12011,8080 12011,8080 C 11685,7874 11344,7743 10984,7686 Z M 10502,7985 L 10502,7985 C 10505,7985 10509,7985 10512,7985 10640,7982 10778,7992 10929,8019 11246,8069 11546,8187 11833,8366 11850,8376 11870,8382 11887,8393 12173,8571 12412,8790 12612,9049 L 12615,9052 12615,9052 C 12729,9204 12827,9372 12907,9551 12972,9692 13022,9830 13059,9965 L 13059,9965 13056,9954 13096,10109 13096,10109 C 13099,10113 13099,10116 13099,10119 13110,10160 13127,10237 13150,10352 13167,10446 13184,10560 13194,10698 L 13191,10692 13191,10692 C 13197,10796 13197,10904 13191,11008 L 13191,11011 13191,11011 C 13181,11136 13171,11237 13161,11314 L 13164,11311 13164,11311 C 13147,11395 13127,11493 13099,11597 13076,11691 13049,11779 13019,11863 L 13022,11856 13022,11856 C 12965,11994 12927,12082 12911,12119 L 12847,12253 12847,12253 C 12840,12264 12834,12270 12830,12280 L 12830,12280 12068,13674 8918,13674 8109,12193 8116,12206 8116,12206 C 8059,12089 8022,12008 8005,11967 8002,11964 8002,11964 8002,11961 7971,11883 7941,11799 7911,11701 7881,11604 7854,11513 7837,11429 7816,11335 7802,11240 7792,11149 L 7792,11156 7792,11156 C 7782,11032 7776,10927 7776,10843 7776,10742 7782,10638 7796,10527 7796,10520 7796,10517 7799,10513 7809,10409 7827,10298 7857,10180 L 7857,10180 7857,10177 7874,10096 7874,10096 C 7904,9978 7934,9880 7968,9796 7968,9793 7968,9790 7971,9786 8022,9641 8086,9500 8167,9355 8346,9032 8584,8756 8888,8531 L 8891,8527 8891,8527 C 8958,8473 9030,8423 9107,8379 L 9107,8379 9060,8403 9090,8386 9090,8386 C 9110,8376 9130,8366 9148,8356 9525,8117 9922,7989 10337,7975 10387,7982 10441,7985 10502,7985 Z"/></g><g style="stroke:none;fill:rgb(0,159,55)"><path d="M 13481,10288 L 13481,10288 C 13501,10392 13518,10520 13528,10671 L 13528,10671 14885,11503 14920,11166 13481,10288 Z"/></g><g style="stroke:none;fill:rgb(0,142,76)"><path d="M 13528,11028 L 13528,11028 C 13518,11166 13507,11277 13494,11365 L 13494,11365 14755,12136 14825,11823 13528,11028 Z"/></g><g style="stroke:none;fill:rgb(0,151,65)"><path d="M 13528,10671 L 13528,10671 C 13534,10789 13534,10910 13528,11028 L 14825,11823 14825,11823 C 14848,11738 14868,11631 14885,11503 L 13528,10671 Z"/></g><g style="stroke:none;fill:rgb(0,166,47)"><path d="M 13423,10025 L 13423,10025 C 13437,10072 13457,10160 13481,10288 L 14920,11166 14920,11166 C 14926,11055 14930,10941 14926,10816 L 14926,10816 13383,9870 13423,10025 Z"/></g><g style="stroke:none;fill:rgb(0,185,23)"><path d="M 14909,10449 L 14909,10449 C 14895,10315 14879,10183 14855,10059 L 12881,8847 12881,8847 C 13012,9019 13124,9207 13214,9413 L 14909,10449 Z"/></g><g style="stroke:none;fill:rgb(0,174,36)"><path d="M 14926,10816 L 14926,10816 14909,10449 13214,9413 13214,9413 C 13285,9571 13339,9722 13383,9870 L 14926,10816 Z"/></g><g style="stroke:none;fill:rgb(0,98,132)"><path d="M 13076,12533 L 13076,12533 12927,12802 14131,13539 14279,13270 13076,12533 Z"/></g><g style="stroke:none;fill:rgb(0,108,119)"><path d="M 13127,12439 L 13127,12439 13076,12533 14279,13270 14330,13176 14330,13169 14417,13001 13214,12264 13127,12445 13127,12439 Z"/></g><g style="stroke:none;fill:rgb(0,89,143)"><path d="M 12927,12802 L 12927,12802 12783,13065 13986,13805 14131,13539 12927,12802 Z"/></g><g style="stroke:none;fill:rgb(253,253,6)"><path d="M 11297,14011 L 11297,14011 11028,14011 11028,15485 11297,15485 11297,14011 Z"/></g><g style="stroke:none;fill:rgb(255,252,0)"><path d="M 11570,14011 L 11570,14011 11297,14011 11297,15485 11469,15485 11496,15485 11570,15485 11570,14011 Z"/></g><g style="stroke:none;fill:rgb(255,243,0)"><path d="M 11843,14011 L 11843,14011 11570,14011 11570,15485 11843,15485 11843,14011 Z"/></g><g style="stroke:none;fill:rgb(249,249,23)"><path d="M 10754,14011 L 10754,14011 10485,14011 10485,15485 10754,15485 10754,14011 Z"/></g><g style="stroke:none;fill:rgb(251,251,15)"><path d="M 11028,14011 L 11028,14011 10754,14011 10754,15485 11028,15485 11028,14011 Z"/></g><g style="stroke:none;fill:rgb(0,61,177)"><path d="M 12490,13600 L 12490,13600 12345,13866 12584,14011 12655,14011 12924,14011 13161,14011 12490,13600 Z"/></g><g style="stroke:none;fill:rgb(255,227,0)"><path d="M 12267,14011 L 12267,14011 12113,14011 12113,15485 12382,15485 12382,14011 12267,14011 Z"/></g><g style="stroke:none;fill:rgb(0,57,183)"><path d="M 12267,14011 L 12267,14011 12382,14011 12584,14011 12345,13866 12267,14011 Z"/></g><g style="stroke:none;fill:rgb(255,216,0)"><path d="M 12655,14011 L 12655,14011 12584,14011 12382,14011 12382,15485 12655,15485 12655,14011 Z"/></g><g style="stroke:none;fill:rgb(255,207,0)"><path d="M 12924,14011 L 12924,14011 12655,14011 12655,15485 12658,15485 12924,15485 12924,14011 Z"/></g><g style="stroke:none;fill:rgb(255,198,0)"><path d="M 13161,14011 L 13161,14011 12924,14011 12924,15485 13072,15485 13197,15485 13197,14011 13161,14011 Z"/></g><g style="stroke:none;fill:rgb(0,70,167)"><path d="M 13161,14011 L 13161,14011 13197,14011 13467,14011 13740,14011 13743,14011 12638,13334 12490,13600 13161,14011 Z"/></g><g style="stroke:none;fill:rgb(255,234,0)"><path d="M 12113,14011 L 12113,14011 11843,14011 11843,15485 12082,15485 12113,15485 12113,14011 Z"/></g><g style="stroke:none;fill:rgb(0,83,151)"><path d="M 12783,13065 L 12783,13065 12638,13334 13743,14011 13875,14011 13986,13805 12783,13065 Z"/></g><g style="stroke:none;fill:rgb(0,134,87)"><path d="M 14656,12432 L 14656,12432 14755,12136 13494,11365 13494,11365 C 13477,11459 13457,11563 13426,11678 L 14656,12432 Z"/></g><g style="stroke:none;fill:rgb(0,112,113)"><path d="M 14417,13001 L 14417,13001 14542,12721 13332,11981 13332,11981 C 13269,12136 13231,12230 13214,12264 L 14417,13001 Z"/></g><g style="stroke:none;fill:rgb(0,125,97)"><path d="M 13332,11981 L 13332,11981 14542,12721 14656,12432 13426,11678 13426,11678 C 13399,11786 13369,11887 13332,11981 Z"/></g><g style="stroke:none;fill:rgb(255,179,0)"><path d="M 13740,14011 L 13740,14011 13467,14011 13467,15485 13740,15485 13740,14011 Z"/></g><g style="stroke:none;fill:rgb(255,173,0)"><path d="M 13743,14011 L 13743,14011 13740,14011 13740,15485 14009,15485 14009,14011 13875,14011 13743,14011 Z"/></g><g style="stroke:none;fill:rgb(255,161,0)"><path d="M 14279,14011 L 14279,14011 14009,14011 14009,15485 14279,15485 14279,14011 Z"/></g><g style="stroke:none;fill:rgb(255,152,0)"><path d="M 14552,14011 L 14552,14011 14279,14011 14279,15485 14552,15485 14552,14011 Z"/></g><g style="stroke:none;fill:rgb(255,134,0)"><path d="M 15095,14024 L 15095,14024 C 15024,14014 14933,14011 14825,14011 L 14825,15485 14825,15485 C 14950,15488 15037,15495 15095,15502 L 15095,14024 Z"/></g><g style="stroke:none;fill:rgb(255,107,0)"><path d="M 15910,14159 L 15910,14159 C 15779,14125 15687,14105 15637,14095 L 15637,15613 15637,15613 C 15721,15643 15812,15677 15910,15714 L 15910,14159 Z"/></g><g style="stroke:none;fill:rgb(255,116,0)"><path d="M 15637,14095 L 15637,14095 C 15509,14071 15418,14058 15367,14051 L 15367,15545 15367,15545 C 15452,15562 15542,15586 15637,15613 L 15637,14095 Z"/></g><g style="stroke:none;fill:rgb(255,125,0)"><path d="M 15367,14051 L 15367,14051 C 15257,14034 15165,14027 15095,14024 L 15095,15502 15095,15502 C 15199,15512 15290,15529 15367,15545 L 15367,14051 Z"/></g><g style="stroke:none;fill:rgb(255,141,0)"><path d="M 14825,14011 L 14825,14011 14552,14011 14552,15485 14825,15485 14825,14011 Z"/></g><g style="stroke:none;fill:rgb(255,188,0)"><path d="M 13467,14011 L 13467,14011 13197,14011 13197,15485 13467,15485 13467,14011 Z"/></g><g style="stroke:none;fill:rgb(255,88,0)"><path d="M 16449,14351 L 16449,14351 C 16344,14303 16257,14266 16179,14243 L 16179,15848 16179,15848 C 16257,15892 16348,15953 16449,16027 L 16449,14351 Z"/></g><g style="stroke:none;fill:rgb(255,70,0)"><path d="M 16995,14640 L 16995,14640 C 16904,14579 16813,14526 16721,14482 L 16721,16246 16721,16246 C 16803,16323 16863,16380 16901,16424 L 16901,16424 16995,16525 16995,14640 Z"/></g><g style="stroke:none;fill:rgb(255,79,0)"><path d="M 16721,14482 L 16721,14482 C 16638,14431 16546,14388 16449,14351 L 16449,16027 16449,16027 C 16546,16097 16638,16168 16721,16246 L 16721,14482 Z"/></g><g style="stroke:none;fill:rgb(255,97,0)"><path d="M 16179,14243 L 16179,14243 15910,14159 15910,15714 15910,15714 C 15997,15751 16089,15798 16179,15848 L 16179,14243 Z"/></g><g style="stroke:none;fill:rgb(190,190,190)"><path d="M 4248,14485 L 4248,14485 C 4137,14546 4046,14600 3975,14647 L 3975,14647 3975,16532 4076,16424 4080,16424 4080,16424 C 4147,16353 4205,16299 4248,16259 L 4248,14485 Z"/></g><g style="stroke:none;fill:rgb(198,198,198)"><path d="M 4790,14246 L 4790,14246 C 4703,14276 4612,14310 4517,14354 L 4517,16034 4517,16034 C 4602,15973 4693,15912 4790,15855 L 4790,14246 Z"/></g><g style="stroke:none;fill:rgb(194,194,194)"><path d="M 4517,14354 L 4517,14354 4248,14485 4248,16259 4248,16259 C 4319,16192 4410,16118 4517,16034 L 4517,14354 Z"/></g><g style="stroke:none;fill:rgb(8,195,0)"><path d="M 6081,10288 L 6081,10288 C 6064,10405 6054,10527 6051,10655 L 7651,9675 7651,9675 C 7709,9513 7779,9352 7870,9190 L 6081,10288 Z"/></g><g style="stroke:none;fill:rgb(15,188,0)"><path d="M 6051,10655 L 6051,10655 C 6048,10806 6044,10924 6048,11001 L 6048,11001 7530,10096 7547,10012 7547,10012 C 7580,9880 7614,9769 7651,9675 L 6051,10655 Z"/></g><g style="stroke:none;fill:rgb(22,181,0)"><path d="M 6048,11001 L 6048,11001 C 6051,11139 6061,11254 6071,11338 L 7462,10483 7462,10483 C 7472,10362 7497,10234 7530,10096 L 6048,11001 Z"/></g><g style="stroke:none;fill:rgb(29,174,0)"><path d="M 7439,10843 L 7439,10843 C 7439,10729 7445,10607 7462,10483 L 6071,11338 6071,11338 C 6081,11456 6098,11560 6115,11658 L 7439,10843 Z"/></g><g style="stroke:none;fill:rgb(36,167,0)"><path d="M 7456,11183 L 7456,11183 C 7445,11048 7439,10934 7439,10843 L 6115,11658 6115,11658 C 6121,11695 6141,11796 6179,11967 L 7456,11183 Z"/></g><g style="stroke:none;fill:rgb(68,135,0)"><path d="M 7689,12085 L 7689,12085 6482,12822 6586,13041 6586,13041 C 6590,13058 6597,13078 6607,13095 L 7813,12354 7813,12354 C 7749,12223 7705,12132 7689,12085 Z"/></g><g style="stroke:none;fill:rgb(54,149,0)"><path d="M 6482,12822 L 7689,12085 7689,12085 C 7654,12001 7621,11907 7587,11802 L 6364,12550 6364,12550 C 6405,12654 6445,12745 6482,12822 Z"/></g><g style="stroke:none;fill:rgb(50,153,0)"><path d="M 7587,11802 L 7587,11802 C 7554,11695 7527,11594 7507,11499 L 7507,11499 6263,12260 6364,12550 7587,11802 Z"/></g><g style="stroke:none;fill:rgb(43,160,0)"><path d="M 6179,11967 L 6179,11967 C 6196,12031 6223,12129 6263,12260 L 7507,11499 7507,11499 C 7482,11395 7466,11287 7456,11183 L 6179,11967 Z"/></g><g style="stroke:none;fill:rgb(205,205,197)"><path d="M 5333,14095 L 5333,14095 C 5282,14105 5192,14125 5060,14159 L 5060,14159 5060,15717 5333,15616 5333,14095 Z"/></g><g style="stroke:none;fill:rgb(207,207,188)"><path d="M 5603,14051 L 5603,14051 C 5552,14058 5461,14071 5333,14095 L 5333,15616 5333,15616 C 5417,15586 5504,15562 5603,15545 L 5603,14051 Z"/></g><g style="stroke:none;fill:rgb(212,212,171)"><path d="M 6145,14011 L 6145,14011 5872,14024 5872,15502 6145,15485 6145,14011 Z"/></g><g style="stroke:none;fill:rgb(209,209,180)"><path d="M 5872,14024 L 5872,14024 C 5805,14027 5714,14034 5603,14051 L 5603,15545 5603,15545 C 5681,15529 5768,15512 5872,15502 L 5872,14024 Z"/></g><g style="stroke:none;fill:rgb(75,128,0)"><path d="M 6701,13267 L 6701,13267 6748,13354 7954,12614 7813,12354 6607,13095 6607,13095 C 6637,13162 6668,13220 6701,13267 Z"/></g><g style="stroke:none;fill:rgb(78,125,0)"><path d="M 6748,13354 L 6748,13354 6890,13617 8096,12876 7954,12614 6748,13354 Z"/></g><g style="stroke:none;fill:rgb(85,118,0)"><path d="M 6890,13617 L 6890,13617 7032,13876 8241,13139 8096,12876 6890,13617 Z"/></g><g style="stroke:none;fill:rgb(218,218,145)"><path d="M 6960,14011 L 6960,14011 6688,14011 6688,15485 6960,15485 6960,14011 Z"/></g><g style="stroke:none;fill:rgb(216,216,154)"><path d="M 6688,14011 L 6688,14011 6415,14011 6415,15485 6688,15485 6688,14011 Z"/></g><g style="stroke:none;fill:rgb(96,107,0)"><path d="M 7109,14011 L 7109,14011 7230,14011 7503,14011 7772,14011 7951,14011 8528,13660 8241,13139 7032,13876 7109,14011 Z"/></g><g style="stroke:none;fill:rgb(221,221,132)"><path d="M 7230,14011 L 7230,14011 7109,14011 6960,14011 6960,15485 7230,15485 7230,14011 Z"/></g><g style="stroke:none;fill:rgb(222,222,128)"><path d="M 7503,14011 L 7503,14011 7230,14011 7230,15485 7503,15485 7503,14011 Z"/></g><g style="stroke:none;fill:rgb(213,213,164)"><path d="M 6415,14011 L 6415,14011 6145,14011 6145,15485 6415,15485 6415,14011 Z"/></g><g style="stroke:none;fill:rgb(103,100,0)"><path d="M 8669,13920 L 8669,13920 8528,13660 7951,14011 8042,14011 8316,14011 8514,14011 8669,13920 Z"/></g><g style="stroke:none;fill:rgb(227,227,110)"><path d="M 7951,14011 L 7951,14011 7772,14011 7772,15485 7904,15485 8042,15485 8042,14011 7951,14011 Z"/></g><g style="stroke:none;fill:rgb(229,229,102)"><path d="M 8316,14011 L 8316,14011 8042,14011 8042,15485 8316,15485 8316,14011 Z"/></g><g style="stroke:none;fill:rgb(110,93,0)"><path d="M 8514,14011 L 8514,14011 8584,14011 8716,14011 8669,13920 8514,14011 Z"/></g><g style="stroke:none;fill:rgb(231,231,93)"><path d="M 8584,14011 L 8584,14011 8514,14011 8316,14011 8316,15485 8584,15485 8584,14011 Z"/></g><g style="stroke:none;fill:rgb(234,234,82)"><path d="M 8716,14011 L 8716,14011 8584,14011 8584,15485 8858,15485 8858,14011 8716,14011 Z"/></g><g style="stroke:none;fill:rgb(242,242,49)"><path d="M 9942,14011 L 9942,14011 9673,14011 9673,15485 9942,15485 9942,14011 Z"/></g><g style="stroke:none;fill:rgb(244,244,41)"><path d="M 10212,14011 L 10212,14011 9942,14011 9942,15485 10212,15485 10212,14011 Z"/></g><g style="stroke:none;fill:rgb(238,238,67)"><path d="M 9400,14011 L 9400,14011 9127,14011 9127,15485 9400,15485 9400,14011 Z"/></g><g style="stroke:none;fill:rgb(240,240,58)"><path d="M 9673,14011 L 9673,14011 9400,14011 9400,15485 9515,15485 9673,15485 9673,14011 Z"/></g><g style="stroke:none;fill:rgb(236,236,75)"><path d="M 9127,14011 L 9127,14011 8858,14011 8858,15485 8952,15485 9127,15485 9127,14011 Z"/></g><g style="stroke:none;fill:rgb(225,225,119)"><path d="M 7772,14011 L 7772,14011 7503,14011 7503,15485 7772,15485 7772,14011 Z"/></g><g style="stroke:none;fill:rgb(202,202,202)"><path d="M 5060,14159 L 5060,14159 C 4962,14186 4875,14216 4790,14246 L 4790,15855 4790,15855 C 4895,15798 4982,15751 5060,15717 L 5060,14159 Z"/></g><g style="stroke:none;fill:rgb(0,0,0)"><path d="M 10212,15485 L 10212,15485 9942,15485 9673,15485 9515,15485 9515,15488 9660,15747 9801,16010 9942,16269 10080,16528 10225,16791 10367,17053 10492,17282 10603,17080 10751,16811 10893,16542 11041,16276 11186,16010 11331,15741 11469,15485 11297,15485 11028,15485 10754,15485 10485,15485 10212,15485 Z M 10903,15821 L 10903,15821 10492,16579 10080,15821 10903,15821 Z"/></g><g style="stroke:none;fill:rgb(153,51,0)"><path d="M 9515,15488 L 9515,15488 9515,15485 9400,15485 9127,15485 8952,15485 8167,15970 8308,16225 9515,15488 Z"/></g><g style="stroke:none;fill:rgb(161,46,0)"><path d="M 9942,16269 L 9942,16269 9801,16010 8595,16747 8736,17010 9942,16269 Z"/></g><g style="stroke:none;fill:rgb(159,47,0)"><path d="M 9801,16010 L 9801,16010 9660,15747 8450,16488 8595,16747 9801,16010 Z"/></g><g style="stroke:none;fill:rgb(155,49,0)"><path d="M 9660,15747 L 9660,15747 9515,15488 8308,16225 8450,16488 9660,15747 Z"/></g><g style="stroke:none;fill:rgb(140,63,0)"><path d="M 8858,15485 L 8858,15485 8584,15485 8316,15485 8042,15485 7904,15485 8167,15970 8952,15485 8858,15485 Z"/></g><g style="stroke:none;fill:rgb(0,0,0)"><path d="M 7904,15485 L 7904,15485 7772,15485 7503,15485 7230,15485 6960,15485 6688,15485 6415,15485 6145,15485 5872,15502 5872,15502 C 5768,15512 5681,15529 5603,15545 5504,15562 5417,15586 5333,15616 L 5060,15717 5060,15717 C 4982,15751 4895,15798 4790,15855 4693,15912 4602,15973 4517,16034 4410,16118 4319,16192 4248,16259 4205,16299 4147,16353 4080,16424 L 4080,16424 4076,16424 3975,16532 3975,16532 C 3874,16650 3783,16771 3703,16889 3595,17060 3503,17232 3433,17404 3271,17797 3193,18221 3196,18679 3193,19134 3271,19561 3433,19955 3446,19989 3480,20063 3538,20181 L 3538,20181 3578,20255 3588,20261 3601,20282 3601,20282 C 3706,20490 3837,20685 3988,20864 4187,21089 4427,21291 4703,21470 L 5024,21648 5024,21648 C 5222,21742 5417,21810 5606,21850 5831,21904 6061,21928 6286,21917 6435,21914 6597,21894 6775,21860 L 6775,21860 7011,21803 7005,21803 7173,21749 7173,21749 C 7311,21699 7429,21648 7520,21604 7617,21557 7719,21500 7824,21433 7914,21375 8002,21312 8089,21237 8167,21174 8244,21099 8322,21022 8393,20951 8463,20874 8528,20793 L 8706,20547 8706,20547 C 8770,20446 8818,20366 8848,20308 L 8848,20308 8844,20312 8861,20282 9003,20019 9148,19750 9295,19484 9440,19214 9585,18949 9690,18767 9585,18578 9443,18312 9302,18053 9158,17794 9020,17531 8878,17269 8736,17010 8595,16747 8450,16488 8308,16225 8167,15970 7904,15485 Z M 5178,16034 L 5178,16034 5185,16030 5195,16027 5451,15933 5451,15933 C 5515,15909 5589,15892 5666,15879 5670,15875 5677,15875 5681,15875 5741,15859 5811,15848 5896,15838 L 5896,15838 7705,15825 9306,18767 8548,20154 8548,20154 C 8544,20160 8538,20167 8534,20177 8507,20228 8470,20288 8426,20362 L 8251,20601 8251,20601 C 8197,20665 8143,20726 8086,20786 L 8082,20790 8082,20790 C 8012,20857 7944,20921 7874,20978 L 7874,20982 7874,20982 C 7796,21046 7722,21099 7644,21147 L 7641,21150 7641,21150 C 7547,21207 7456,21258 7372,21301 7287,21342 7183,21386 7055,21433 L 7055,21433 7072,21429 6691,21534 6715,21530 6715,21530 C 6556,21561 6408,21577 6276,21581 L 6273,21581 6273,21581 C 6078,21588 5883,21567 5684,21524 5681,21520 5681,21520 5677,21520 5519,21487 5354,21433 5189,21355 L 4868,21177 4868,21177 C 4629,21019 4420,20844 4245,20645 4245,20642 4245,20642 4242,20642 4170,20558 4103,20467 4046,20376 4008,20325 3978,20271 3948,20218 3931,20187 3918,20160 3905,20130 3895,20120 3888,20106 3881,20096 L 3868,20076 3868,20076 C 3864,20069 3857,20063 3853,20059 L 3853,20059 3833,20019 3840,20036 3840,20036 C 3790,19928 3756,19861 3746,19830 L 3746,19827 3746,19827 C 3601,19474 3531,19090 3534,18683 3534,18679 3534,18679 3534,18676 3531,18269 3598,17888 3743,17535 3743,17531 3743,17531 3746,17531 3800,17400 3868,17266 3948,17134 3962,17111 3975,17090 3988,17067 L 3982,17077 3982,17077 C 4056,16966 4140,16858 4231,16751 L 4231,16751 4221,16764 4298,16683 4298,16683 C 4305,16673 4312,16666 4322,16660 4383,16596 4433,16549 4474,16512 4477,16508 4477,16508 4480,16505 4545,16444 4625,16377 4723,16299 L 4717,16306 4717,16306 C 4790,16252 4872,16198 4962,16145 5044,16101 5114,16064 5178,16034 Z"/></g><g style="stroke:none;fill:rgb(165,44,0)"><path d="M 8736,17010 L 8736,17010 8878,17269 10080,16528 9942,16269 8736,17010 Z"/></g><g style="stroke:none;fill:rgb(168,43,0)"><path d="M 8878,17269 L 8878,17269 9020,17531 10225,16791 10080,16528 8878,17269 Z"/></g><g style="stroke:none;fill:rgb(170,42,0)"><path d="M 9158,17794 L 9158,17794 10367,17053 10225,16791 9020,17531 9158,17794 Z"/></g><g style="stroke:none;fill:rgb(176,39,0)"><path d="M 10367,17053 L 10367,17053 9158,17794 9302,18053 10512,17316 10492,17282 10367,17053 Z"/></g><g style="stroke:none;fill:rgb(186,34,0)"><path d="M 9585,18578 L 9585,18578 9690,18767 9690,18763 9730,18837 10933,18097 10849,17942 10795,17838 9585,18578 Z"/></g><g style="stroke:none;fill:rgb(182,36,0)"><path d="M 9443,18312 L 9443,18312 9585,18578 10795,17838 10691,17643 10654,17579 10650,17572 9443,18312 Z"/></g><g style="stroke:none;fill:rgb(81,81,200)"><path d="M 9730,18837 L 9730,18837 9690,18763 9690,18767 9585,18949 9895,19137 9875,19097 9730,18837 Z"/></g><g style="stroke:none;fill:rgb(95,95,191)"><path d="M 9295,19484 L 9295,19484 9148,19750 10357,20490 10492,20234 10479,20207 9295,19484 Z"/></g><g style="stroke:none;fill:rgb(92,92,192)"><path d="M 9440,19214 L 9440,19214 9295,19484 10479,20207 10458,20170 10454,20160 10441,20137 10320,19915 10276,19834 10185,19669 10182,19669 9440,19214 Z"/></g><g style="stroke:none;fill:rgb(87,87,196)"><path d="M 9585,18949 L 9585,18949 9440,19214 10182,19669 10185,19669 10158,19618 10017,19356 9895,19137 9585,18949 Z"/></g><g style="stroke:none;fill:rgb(195,29,0)"><path d="M 10017,19356 L 10017,19356 10158,19618 11358,18881 11297,18763 11216,18615 10017,19356 Z"/></g><g style="stroke:none;fill:rgb(192,31,0)"><path d="M 9895,19137 L 9895,19137 10017,19356 11216,18615 11078,18359 9875,19097 9895,19137 Z"/></g><g style="stroke:none;fill:rgb(199,28,0)"><path d="M 10158,19618 L 10158,19618 10185,19669 10276,19834 10300,19878 11503,19137 11358,18881 10158,19618 Z"/></g><g style="stroke:none;fill:rgb(189,32,0)"><path d="M 9730,18837 L 9730,18837 9875,19097 11078,18359 10933,18097 9730,18837 Z"/></g><g style="stroke:none;fill:rgb(105,105,183)"><path d="M 9003,20019 L 9003,20019 8861,20282 10060,21022 10205,20753 9003,20019 Z"/></g><g style="stroke:none;fill:rgb(108,108,182)"><path d="M 8848,20308 L 8848,20308 C 8818,20366 8770,20446 8706,20547 L 8706,20547 9909,21285 10060,21022 8861,20282 8844,20312 8848,20308 Z"/></g><g style="stroke:none;fill:rgb(127,127,169)"><path d="M 8322,21022 L 8322,21022 C 8244,21099 8167,21174 8089,21237 L 8089,21237 9356,22018 9555,21779 8322,21022 Z"/></g><g style="stroke:none;fill:rgb(132,132,166)"><path d="M 8089,21237 L 8089,21237 C 8002,21312 7914,21375 7824,21433 L 9133,22234 9133,22234 C 9235,22140 9310,22069 9356,22018 L 8089,21237 Z"/></g><g style="stroke:none;fill:rgb(122,122,173)"><path d="M 8528,20793 L 8528,20793 C 8463,20874 8393,20951 8322,21022 L 9555,21779 9555,21779 C 9619,21705 9680,21625 9740,21537 L 8528,20793 Z"/></g><g style="stroke:none;fill:rgb(115,115,177)"><path d="M 8706,20547 L 8706,20547 8528,20793 9740,21537 9909,21285 8706,20547 Z"/></g><g style="stroke:none;fill:rgb(203,25,0)"><path d="M 10320,19915 L 10320,19915 10441,20137 11644,19400 11503,19137 10300,19878 10320,19915 Z"/></g><g style="stroke:none;fill:rgb(207,24,0)"><path d="M 10458,20170 L 10458,20170 10479,20207 10492,20234 11786,19662 11644,19400 10441,20137 10454,20160 10458,20170 Z"/></g><g style="stroke:none;fill:rgb(99,99,188)"><path d="M 10205,20753 L 10205,20753 10357,20490 9148,19750 9003,20019 10205,20753 Z"/></g><g style="stroke:none;fill:rgb(179,37,0)"><path d="M 9302,18053 L 9302,18053 9443,18312 10650,17572 10542,17370 10512,17316 9302,18053 Z"/></g><g style="stroke:none;fill:rgb(175,175,175)"><path d="M 3099,15381 L 3106,15381 3106,15381 C 3028,15458 2958,15539 2891,15616 L 2891,21399 2891,21399 C 2927,21406 2968,21409 3008,21409 L 3119,21399 3119,21399 C 3126,21399 3133,21399 3136,21396 3146,21392 3153,21392 3163,21389 L 3163,21389 3163,15313 3099,15381 Z"/></g><g style="stroke:none;fill:rgb(177,177,177)"><path d="M 3433,15054 L 3433,15054 3163,15313 3163,21389 3163,21389 C 3190,21382 3221,21372 3251,21359 3281,21342 3315,21325 3351,21305 3383,21288 3409,21268 3433,21244 L 3433,19955 3433,19955 C 3271,19561 3193,19134 3196,18679 3193,18221 3271,17797 3433,17404 L 3433,15054 Z"/></g><g style="stroke:none;fill:rgb(165,165,165)"><path d="M 2621,15973 L 2621,15973 C 2516,16118 2425,16266 2347,16414 L 2347,16414 2347,20951 2402,21049 2402,21049 C 2412,21073 2425,21093 2442,21110 2479,21160 2519,21207 2564,21244 L 2577,21258 2577,21258 C 2591,21268 2604,21281 2621,21291 L 2621,15973 Z"/></g><g style="stroke:none;fill:rgb(169,169,169)"><path d="M 2891,15616 L 2891,15616 C 2802,15724 2712,15842 2621,15973 L 2621,21291 2621,21291 C 2634,21298 2647,21305 2661,21315 2712,21342 2766,21365 2829,21386 L 2869,21396 2869,21396 C 2877,21396 2884,21396 2891,21399 L 2891,15616 Z"/></g><g style="stroke:none;fill:rgb(186,186,186)"><path d="M 3703,16889 L 3703,16889 C 3783,16771 3874,16650 3975,16532 L 3975,14647 3975,14647 C 3874,14711 3783,14775 3703,14835 L 3703,16889 Z"/></g><g style="stroke:none;fill:rgb(180,180,180)"><path d="M 3703,16889 L 3703,14835 3703,14835 C 3615,14899 3523,14973 3433,15054 L 3433,17404 3433,17404 C 3503,17232 3595,17060 3703,16889 Z"/></g><g style="stroke:none;fill:rgb(156,156,156)"><path d="M 1805,18679 L 1805,18679 C 1809,19275 1900,19824 2078,20332 L 2078,17030 2078,17030 C 1897,17538 1805,18090 1805,18679 Z"/></g><g style="stroke:none;fill:rgb(162,162,162)"><path d="M 3588,20261 L 3588,20261 3578,20255 3574,20251 3598,20292 3598,20292 C 3631,20356 3658,20420 3675,20487 L 3692,20581 3692,20581 C 3696,20611 3696,20645 3696,20679 L 3988,20864 3988,20864 C 3837,20685 3706,20490 3601,20282 L 3588,20261 Z"/></g><g style="stroke:none;fill:rgb(181,181,181)"><path d="M 3574,20251 L 3574,20251 3578,20255 3538,20181 3538,20181 C 3480,20063 3446,19989 3433,19955 L 3433,21244 3433,21244 C 3436,21241 3436,21241 3439,21237 3486,21194 3527,21150 3564,21099 L 3581,21073 3581,21073 C 3598,21042 3615,21009 3631,20978 3631,20972 3631,20968 3635,20965 3651,20928 3662,20887 3672,20850 3682,20800 3688,20753 3692,20709 3696,20665 3696,20625 3692,20581 L 3675,20487 3675,20487 C 3658,20420 3631,20356 3598,20292 L 3574,20251 Z"/><path d="M 2564,21244 L 2564,21244 C 2519,21207 2479,21160 2442,21110 2519,21248 2594,21369 2671,21480 L 5758,23375 5758,23375 C 5966,23398 6173,23405 6371,23395 L 6371,23395 3119,21399 3008,21409 3008,21409 C 2968,21409 2927,21406 2891,21399 2884,21396 2877,21396 2869,21396 L 2829,21386 2829,21386 C 2766,21365 2712,21342 2661,21315 2647,21305 2634,21298 2621,21291 2604,21281 2591,21268 2577,21258 L 2564,21244 Z"/></g><g style="stroke:none;fill:rgb(168,168,168)"><path d="M 3631,20978 L 3631,20978 3625,20992 7294,23247 7365,23227 7372,23227 7372,23227 C 7489,23190 7591,23156 7682,23126 L 5606,21850 5606,21850 C 5417,21810 5222,21742 5024,21648 L 4703,21470 4703,21470 C 4427,21291 4187,21089 3988,20864 L 3696,20679 3696,20679 C 3696,20689 3696,20699 3692,20709 3688,20753 3682,20800 3672,20850 3662,20887 3651,20928 3635,20965 3631,20968 3631,20972 3631,20978 Z"/></g><g style="stroke:none;fill:rgb(173,173,173)"><path d="M 3163,21389 L 3163,21389 C 3153,21392 3146,21392 3136,21396 3133,21399 3126,21399 3119,21399 L 6371,23395 6371,23395 C 6543,23385 6705,23365 6863,23341 L 3439,21237 3439,21237 C 3436,21241 3436,21241 3433,21244 3409,21268 3383,21288 3351,21305 3315,21325 3281,21342 3251,21359 3221,21372 3190,21382 3163,21389 Z"/></g><g style="stroke:none;fill:rgb(170,170,170)"><path d="M 3581,21073 L 3564,21099 3564,21099 C 3527,21150 3486,21194 3439,21237 L 6863,23341 6863,23341 C 6967,23324 7109,23291 7294,23247 L 3625,20992 3625,20992 C 3611,21019 3598,21046 3581,21073 Z"/></g><g style="stroke:none;fill:rgb(0,0,0)"><path d="M 3692,20709 L 3692,20709 C 3696,20699 3696,20689 3696,20679 3696,20645 3696,20611 3692,20581 3696,20625 3696,20665 3692,20709 Z"/></g><g style="stroke:none;fill:rgb(159,159,159)"><path d="M 2078,20332 L 2078,20332 C 2155,20544 2244,20753 2347,20951 L 2347,16414 2347,16414 C 2244,16613 2155,16818 2078,17030 L 2078,20332 Z"/></g><g style="stroke:none;fill:rgb(188,188,188)"><path d="M 4410,22971 L 4447,22988 4447,22988 C 4868,23193 5302,23324 5758,23375 L 2671,21480 2671,21480 C 3014,21981 3466,22409 4022,22756 L 4410,22971 Z"/></g><g style="stroke:none;fill:rgb(148,148,155)"><path d="M 8346,22820 L 8346,22820 C 8470,22749 8564,22688 8628,22641 L 8628,22641 7173,21749 7005,21803 7011,21803 6775,21860 8346,22820 Z"/></g><g style="stroke:none;fill:rgb(143,143,159)"><path d="M 8628,22641 L 8628,22641 C 8733,22570 8824,22506 8895,22446 L 7520,21604 7520,21604 C 7429,21648 7311,21699 7173,21749 L 8628,22641 Z"/></g><g style="stroke:none;fill:rgb(154,154,154)"><path d="M 8026,22984 L 8026,22984 C 8089,22954 8197,22900 8346,22820 L 6775,21860 6775,21860 C 6597,21894 6435,21914 6286,21917 L 8026,22984 Z"/></g><g style="stroke:none;fill:rgb(138,138,162)"><path d="M 8895,22446 L 8895,22446 C 8976,22382 9056,22311 9133,22234 L 7824,21433 7824,21433 C 7719,21500 7617,21557 7520,21604 L 8895,22446 Z"/></g><g style="stroke:none;fill:rgb(159,159,159)"><path d="M 6286,21917 L 6286,21917 C 6061,21928 5831,21904 5606,21850 L 7682,23126 7682,23126 C 7813,23075 7927,23028 8026,22984 L 6286,21917 Z"/></g><g style="stroke:none;fill:rgb(255,43,0)"><path d="M 17807,15300 L 17807,15300 C 17730,15219 17638,15135 17537,15044 L 17537,17390 17537,17390 C 17658,17676 17737,17982 17767,18309 17770,18319 17770,18326 17770,18336 L 17770,18336 17763,18309 17777,18679 17777,18679 C 17777,19137 17695,19565 17537,19962 L 17537,19962 17537,21308 17575,21335 17578,21338 17592,21349 17592,21349 C 17635,21379 17682,21402 17730,21419 17753,21429 17780,21436 17807,21443 L 17807,15300 Z"/></g><g style="stroke:none;fill:rgb(255,34,0)"><path d="M 17884,15381 L 17884,15381 17807,15300 17807,21443 17807,21443 C 17837,21450 17867,21456 17898,21460 17908,21460 17918,21460 17928,21460 17955,21460 17982,21460 18009,21456 18032,21453 18057,21450 18080,21446 L 18080,15599 18080,15599 C 18009,15515 17945,15444 17884,15381 Z"/></g><g style="stroke:none;fill:rgb(255,15,0)"><path d="M 18619,16397 L 18619,16397 C 18544,16259 18454,16111 18349,15953 L 18349,21322 18349,21322 C 18390,21291 18430,21254 18471,21207 L 18471,21207 18544,21103 18619,20961 18619,16397 Z"/></g><g style="stroke:none;fill:rgb(255,25,0)"><path d="M 18349,15953 L 18349,15953 C 18252,15815 18164,15697 18080,15599 L 18080,21446 18080,21446 C 18090,21443 18104,21439 18114,21436 L 18174,21419 18174,21419 C 18235,21396 18292,21365 18349,21322 L 18349,15953 Z"/></g><g style="stroke:none;fill:rgb(0,0,0)"><path d="M 16721,16246 L 16721,16246 C 16638,16168 16546,16097 16449,16027 16348,15953 16257,15892 16179,15848 16089,15798 15997,15751 15910,15714 15812,15677 15721,15643 15637,15613 15542,15586 15452,15562 15367,15545 15290,15529 15199,15512 15095,15502 15037,15495 14950,15488 14825,15485 L 14825,15485 14552,15485 14279,15485 14009,15485 13740,15485 13467,15485 13197,15485 13072,15485 12969,15677 12824,15939 12679,16212 12530,16478 12389,16747 12244,17013 12099,17282 11955,17552 11806,17814 11661,18083 11520,18353 11297,18763 11358,18881 11503,19137 11644,19400 11786,19662 11927,19921 12068,20181 12213,20446 12213,20446 C 12270,20541 12325,20621 12375,20692 12412,20743 12477,20820 12560,20924 12622,20995 12692,21069 12773,21143 12850,21214 12931,21281 13019,21345 13093,21402 13184,21460 13292,21520 13389,21577 13494,21631 13606,21678 13713,21722 13831,21763 13963,21803 L 13966,21803 13966,21803 C 14124,21840 14266,21870 14393,21890 14582,21914 14758,21924 14923,21914 15250,21890 15566,21813 15872,21678 15987,21628 16112,21561 16247,21483 16247,21480 16247,21480 16251,21480 L 16244,21480 16244,21480 C 16358,21409 16466,21332 16567,21251 16833,21039 17063,20783 17251,20480 L 17352,20308 17352,20308 C 17372,20271 17396,20238 17420,20207 L 17537,19962 17537,19962 C 17695,19565 17777,19137 17777,18679 L 17777,18679 17763,18309 17770,18336 17770,18336 C 17770,18326 17770,18319 17767,18309 17737,17982 17658,17676 17537,17390 17467,17225 17375,17057 17265,16882 17183,16761 17093,16643 16995,16525 L 16901,16424 16901,16424 C 16863,16380 16803,16323 16721,16246 Z M 16251,16299 L 16251,16299 C 16254,16299 16254,16299 16257,16303 16341,16360 16419,16424 16493,16491 16493,16491 16493,16491 16496,16495 16567,16559 16618,16613 16651,16650 16651,16650 16651,16650 16654,16653 L 16654,16653 16749,16754 16739,16744 16739,16744 C 16826,16848 16908,16952 16981,17064 16981,17067 16981,17067 16985,17070 17083,17225 17163,17377 17228,17521 17328,17764 17396,18020 17426,18292 17426,18302 17426,18312 17426,18322 L 17440,18693 17440,18693 C 17440,19093 17368,19470 17231,19824 L 17231,19824 17228,19830 17133,20026 17133,20026 C 17103,20063 17079,20106 17055,20150 L 17055,20150 17063,20140 16961,20312 16965,20302 16965,20302 C 16796,20571 16594,20800 16358,20988 16267,21062 16169,21133 16064,21197 16054,21200 16044,21207 16038,21217 15927,21278 15826,21328 15734,21372 L 15738,21372 15738,21372 C 15469,21490 15192,21557 14905,21577 14902,21577 14902,21577 14899,21577 14755,21584 14603,21577 14438,21557 L 14448,21557 14448,21557 C 14326,21540 14191,21513 14046,21476 13936,21439 13831,21406 13740,21369 13736,21365 13733,21365 13729,21365 13636,21325 13548,21281 13464,21231 13461,21231 13461,21231 13457,21227 13366,21177 13289,21126 13224,21079 L 13221,21076 13221,21076 C 13144,21019 13069,20958 13002,20894 L 13002,20897 13002,20897 C 12931,20834 12870,20770 12820,20709 L 12824,20712 12824,20712 C 12739,20608 12679,20534 12642,20487 L 12648,20494 12648,20494 C 12601,20430 12554,20359 12503,20275 L 12503,20275 12510,20285 11681,18763 11681,18763 C 12210,17784 12742,16801 13275,15821 L 14815,15821 14815,15821 C 14818,15821 14822,15821 14825,15821 14930,15825 15003,15832 15054,15838 L 15057,15838 15057,15838 C 15145,15848 15222,15859 15293,15875 L 15300,15875 15300,15875 C 15370,15892 15449,15909 15529,15933 15607,15959 15694,15990 15785,16027 L 15775,16023 15775,16023 C 15852,16057 15934,16097 16014,16141 16082,16182 16159,16236 16251,16299 Z"/></g><g style="stroke:none;fill:rgb(255,61,0)"><path d="M 16995,16525 L 16995,16525 C 17093,16643 17183,16761 17265,16882 L 17265,14825 17265,14825 C 17193,14771 17103,14711 16995,14640 L 16995,16525 Z"/></g><g style="stroke:none;fill:rgb(255,56,0)"><path d="M 17265,16882 L 17265,16882 C 17375,17057 17467,17225 17537,17390 L 17537,17390 17537,15044 17265,14825 17265,16882 Z"/></g><g style="stroke:none;fill:rgb(247,4,0)"><path d="M 17251,20480 L 17298,20453 17298,20453 C 17315,20413 17332,20376 17352,20339 L 17433,20187 17433,20187 C 17430,20194 17423,20201 17420,20207 17396,20238 17372,20271 17352,20308 L 17251,20480 Z"/></g><g style="stroke:none;fill:rgb(251,2,0)"><path d="M 17298,20453 L 17251,20480 17251,20480 C 17063,20783 16833,21039 16567,21251 L 16567,21251 17261,20834 17261,20830 17261,20830 C 17248,20743 17248,20659 17265,20574 17268,20558 17275,20537 17278,20517 L 17295,20470 17295,20470 C 17295,20463 17295,20457 17298,20453 Z"/></g><g style="stroke:none;fill:rgb(255,56,0)"><path d="M 17298,20453 L 17298,20453 C 17295,20457 17295,20463 17295,20470 L 17278,20517 17278,20517 C 17275,20537 17268,20558 17265,20574 L 17265,20574 17265,20854 17271,20894 17271,20894 C 17281,20928 17291,20961 17301,20995 17348,21120 17426,21224 17537,21308 L 17537,21308 17537,19962 17420,20207 17420,20207 C 17423,20201 17430,20194 17433,20187 L 17352,20339 17352,20339 C 17332,20376 17315,20413 17298,20453 Z"/></g><g style="stroke:none;fill:rgb(252,1,0)"><path d="M 17261,20830 L 17261,20830 17261,20834 16567,21251 16567,21251 C 16466,21332 16358,21409 16244,21480 L 16251,21480 16251,21480 C 16247,21480 16247,21480 16247,21483 16112,21561 15987,21628 15872,21678 15566,21813 15250,21890 14923,21914 L 13076,23045 13076,23045 C 13174,23089 13295,23133 13434,23176 L 13606,23227 13606,23227 C 13818,23287 14036,23331 14266,23361 L 14266,23361 17575,21335 17537,21308 17537,21308 C 17426,21224 17348,21120 17301,20995 17291,20961 17281,20928 17271,20894 L 17271,20894 17265,20854 17261,20830 Z"/></g><g style="stroke:none;fill:rgb(255,66,0)"><path d="M 17261,20830 L 17261,20830 17265,20854 17265,20574 17265,20574 C 17248,20659 17248,20743 17261,20830 Z"/></g><g style="stroke:none;fill:rgb(253,1,0)"><path d="M 17730,21419 L 17730,21419 C 17682,21402 17635,21379 17592,21349 L 17592,21349 17578,21338 17575,21335 14266,23361 14266,23361 C 14424,23385 14593,23395 14771,23395 L 17928,21460 17928,21460 C 17918,21460 17908,21460 17898,21460 17867,21456 17837,21450 17807,21443 17780,21436 17753,21429 17730,21419 Z"/></g><g style="stroke:none;fill:rgb(254,0,0)"><path d="M 18471,21207 L 18471,21207 C 18387,21308 18289,21379 18174,21419 L 18114,21436 18114,21436 C 18104,21439 18090,21443 18080,21446 18057,21450 18032,21453 18009,21456 17982,21460 17955,21460 17928,21460 L 14771,23395 14771,23395 C 14997,23395 15219,23378 15435,23341 15954,23247 16456,23052 16941,22759 L 16951,22759 16951,22759 C 17426,22463 17830,22099 18164,21665 18255,21540 18359,21389 18471,21207 Z"/></g><g style="stroke:none;fill:rgb(0,0,0)"><path d="M 18174,21419 L 18174,21419 C 18289,21379 18387,21308 18471,21207 18430,21254 18390,21291 18349,21322 18292,21365 18235,21396 18174,21419 Z"/></g><g style="stroke:none;fill:rgb(255,0,0)"><path d="M 19151,18221 L 19148,18188 19148,18188 C 19111,17770 19023,17377 18892,17010 L 18892,20335 18892,20335 C 19071,19820 19161,19268 19161,18679 19161,18501 19158,18346 19151,18221 Z"/></g><g style="stroke:none;fill:rgb(255,11,0)"><path d="M 18619,20961 L 18619,20961 C 18724,20766 18814,20558 18892,20335 L 18892,17010 18892,17010 C 18818,16804 18727,16599 18619,16397 L 18619,20961 Z"/></g><g style="stroke:none;fill:rgb(0,29,217)"><path d="M 12924,15485 L 12924,15485 12658,15485 12969,15677 13072,15485 12924,15485 Z"/></g><g style="stroke:none;fill:rgb(0,23,225)"><path d="M 12658,15485 L 12658,15485 12655,15485 12382,15485 12113,15485 12082,15485 12824,15939 12969,15677 12658,15485 Z"/></g><g style="stroke:none;fill:rgb(0,14,236)"><path d="M 12679,16212 L 12679,16212 12824,15939 12082,15485 11843,15485 11570,15485 11496,15485 12679,16212 Z"/></g><g style="stroke:none;fill:rgb(0,8,244)"><path d="M 11496,15485 L 11496,15485 11469,15485 11331,15741 12530,16478 12679,16212 11496,15485 Z"/></g><g style="stroke:none;fill:rgb(3,3,252)"><path d="M 11331,15741 L 11331,15741 11186,16010 12389,16747 12530,16478 11331,15741 Z"/></g><g style="stroke:none;fill:rgb(10,10,248)"><path d="M 11186,16010 L 11186,16010 11041,16276 12244,17013 12389,16747 11186,16010 Z"/></g><g style="stroke:none;fill:rgb(22,22,239)"><path d="M 10893,16542 L 10893,16542 10751,16811 11955,17552 12099,17282 10893,16542 Z"/></g><g style="stroke:none;fill:rgb(29,29,235)"><path d="M 10751,16811 L 10751,16811 10603,17080 11806,17814 11955,17552 10751,16811 Z"/></g><g style="stroke:none;fill:rgb(38,38,229)"><path d="M 10492,17282 L 10492,17282 10512,17316 10542,17370 10566,17410 11661,18083 11806,17814 10603,17080 10492,17282 Z"/></g><g style="stroke:none;fill:rgb(0,0,0)"><path d="M 10566,17410 L 10566,17410 10542,17370 10650,17572 10654,17579 10657,17579 10566,17410 Z"/></g><g style="stroke:none;fill:rgb(43,43,225)"><path d="M 10657,17579 L 10657,17579 10691,17643 10795,17838 10849,17942 11520,18353 11661,18083 10566,17410 10657,17579 Z"/></g><g style="stroke:none;fill:rgb(51,51,220)"><path d="M 10849,17942 L 10849,17942 10933,18097 11078,18359 11216,18615 11297,18763 11520,18353 10849,17942 Z"/></g><g style="stroke:none;fill:rgb(15,15,244)"><path d="M 12099,17282 L 12099,17282 12244,17013 11041,16276 10893,16542 12099,17282 Z"/></g><g style="stroke:none;fill:rgb(210,22,0)"><path d="M 10492,20234 L 10492,20234 10724,20662 11927,19921 11786,19662 10492,20234 Z"/></g><g style="stroke:none;fill:rgb(221,17,0)"><path d="M 11011,21180 L 11011,21180 11163,21433 12375,20692 12375,20692 C 12325,20621 12270,20541 12213,20446 L 11011,21180 Z"/></g><g style="stroke:none;fill:rgb(216,19,0)"><path d="M 10866,20921 L 10866,20921 11011,21180 12213,20446 12068,20181 10866,20921 Z"/></g><g style="stroke:none;fill:rgb(214,20,0)"><path d="M 10724,20662 L 10724,20662 10866,20921 12068,20181 11927,19921 10724,20662 Z"/></g><g style="stroke:none;fill:rgb(228,13,0)"><path d="M 12773,21143 L 12773,21143 C 12692,21069 12622,20995 12560,20924 L 11338,21678 11338,21678 C 11388,21746 11448,21823 11523,21907 L 12773,21143 Z"/></g><g style="stroke:none;fill:rgb(231,11,0)"><path d="M 13019,21345 L 13019,21345 C 12931,21281 12850,21214 12773,21143 L 11523,21907 11523,21907 C 11586,21988 11654,22062 11725,22133 L 13019,21345 Z"/></g><g style="stroke:none;fill:rgb(223,15,0)"><path d="M 12560,20924 L 12560,20924 C 12477,20820 12412,20743 12375,20692 L 11163,21433 11163,21433 C 11223,21527 11280,21608 11338,21678 L 12560,20924 Z"/></g><g style="stroke:none;fill:rgb(238,8,0)"><path d="M 13606,21678 L 13606,21678 C 13494,21631 13389,21577 13292,21520 L 11951,22345 11951,22345 C 12008,22395 12089,22463 12193,22543 L 13606,21678 Z"/></g><g style="stroke:none;fill:rgb(245,5,0)"><path d="M 14393,21890 L 14393,21890 C 14266,21870 14124,21840 13966,21803 L 12460,22725 12460,22725 C 12567,22793 12665,22846 12756,22890 L 14393,21890 Z"/></g><g style="stroke:none;fill:rgb(241,7,0)"><path d="M 13963,21803 L 13963,21803 C 13831,21763 13713,21722 13606,21678 L 12193,22543 12193,22543 C 12264,22597 12355,22658 12460,22725 L 12460,22725 13966,21803 13963,21803 Z"/></g><g style="stroke:none;fill:rgb(249,3,0)"><path d="M 14923,21914 L 14923,21914 C 14758,21924 14582,21914 14393,21890 L 12756,22890 12756,22890 C 12854,22944 12959,22995 13076,23045 L 14923,21914 Z"/></g><g style="stroke:none;fill:rgb(235,10,0)"><path d="M 11725,22133 L 11725,22133 C 11806,22217 11880,22288 11951,22345 L 13292,21520 13292,21520 C 13184,21460 13093,21402 13019,21345 L 11725,22133 Z"/></g><g style="stroke:none;fill:rgb(245,245,36)"><path d="M 10212,15485 L 10212,15485 10485,15485 10485,14011 10212,14011 10212,15485 Z"/></g><g style="stroke:none;fill:rgb(0,0,0)"><path d="M 15968,17504 L 15968,17504 C 15681,17218 15337,17077 14933,17077 14528,17077 14182,17218 13895,17504 13609,17790 13468,18137 13468,18541 13468,18945 13609,19288 13895,19574 14182,19860 14528,20005 14933,20005 15337,20005 15681,19864 15968,19578 L 15971,19574 15971,19574 C 16258,19288 16398,18945 16398,18541 16398,18137 16254,17790 15968,17504 Z M 14974,17420 L 14974,17420 C 15092,17420 15199,17437 15304,17470 15442,17511 15566,17578 15684,17672 15738,17716 15792,17773 15843,17844 15914,17955 15961,18076 15984,18214 L 16011,18457 16011,18457 C 16028,18625 16024,18787 16001,18938 L 15971,19042 15971,19042 C 15937,19093 15896,19150 15846,19214 15796,19278 15738,19325 15674,19355 15611,19382 15516,19436 15391,19517 L 15391,19517 15274,19594 15280,19594 15280,19594 C 15277,19594 15277,19594 15274,19598 14762,19682 14393,19611 14171,19386 13949,19153 13838,18877 13838,18551 13838,18235 13949,17969 14171,17750 14397,17531 14663,17420 14974,17420 Z"/></g><g style="stroke:none;fill:rgb(119,119,119)"><path d="M 15304,17470 L 15304,17470 C 15199,17437 15092,17420 14974,17420 14377,17619 14333,17935 14835,18362 14970,18194 15044,18113 15054,18117 15067,18120 15112,18285 15189,18612 15199,18649 15212,18689 15232,18733 15455,18702 15556,18780 15536,18965 15661,18992 15816,18982 16001,18938 16024,18787 16028,18625 16011,18457 L 15984,18214 15984,18214 C 15961,18076 15914,17955 15843,17844 15792,17773 15738,17716 15684,17672 15566,17578 15442,17511 15304,17470 Z"/></g><g style="stroke:none;fill:rgb(255,255,255)"><path d="M 14151,18154 L 14151,18154 C 14026,18036 14252,18107 14835,18362 14333,17935 14377,17619 14974,17420 14663,17420 14397,17531 14171,17750 13949,17969 13838,18235 13838,18551 13970,18585 14091,18605 14208,18608 L 14300,18608 14300,18608 C 14363,18605 14380,18537 14353,18399 14343,18352 14276,18272 14151,18154 Z"/></g><g style="stroke:none;fill:rgb(187,187,187)"><path d="M 14835,18362 L 14835,18362 C 14252,18107 14026,18036 14151,18154 14276,18272 14343,18352 14353,18399 L 14428,18413 14428,18413 C 14680,18463 14825,18507 14859,18544 14889,18581 14896,18554 14875,18470 14865,18423 14852,18386 14835,18362 Z"/></g><g style="stroke:none;fill:rgb(102,102,102)"><path d="M 14428,18413 L 14353,18399 14353,18399 C 14380,18537 14363,18605 14300,18608 L 14208,18608 14208,18608 C 14118,18931 14380,18992 14997,18790 15088,18760 15169,18743 15232,18733 15212,18689 15199,18649 15189,18612 15112,18285 15067,18120 15054,18117 15044,18113 14970,18194 14835,18362 14852,18386 14865,18423 14875,18470 14896,18554 14889,18581 14859,18544 14825,18507 14680,18463 14428,18413 Z"/></g><g style="stroke:none;fill:rgb(187,187,187)"><path d="M 14208,18608 L 14208,18608 C 14091,18605 13970,18585 13838,18551 13838,18877 13949,19153 14171,19386 14393,19611 14762,19682 15274,19598 15277,19594 15277,19594 15280,19594 L 15274,19594 15274,19594 C 15439,19315 15526,19103 15536,18965 15556,18780 15455,18702 15232,18733 15169,18743 15088,18760 14997,18790 14380,18992 14118,18931 14208,18608 Z"/></g><g style="stroke:none;fill:rgb(102,102,102)"><path d="M 15971,19042 L 16001,18938 16001,18938 C 15816,18982 15661,18992 15536,18965 15526,19103 15439,19315 15274,19594 L 15391,19517 15391,19517 C 15516,19436 15611,19382 15674,19355 15738,19325 15796,19278 15846,19214 15896,19150 15937,19093 15971,19042 Z"/></g><g style="stroke:none;fill:rgb(0,0,0)"><path d="M 7321,17471 L 7321,17471 C 7035,17185 6691,17044 6286,17044 5882,17044 5536,17185 5249,17471 4962,17757 4821,18104 4821,18508 4821,18912 4962,19255 5249,19541 5536,19827 5882,19972 6286,19972 6691,19972 7035,19831 7321,19545 L 7324,19541 7324,19541 C 7611,19255 7752,18912 7752,18508 7752,18104 7607,17757 7321,17471 Z M 6327,17387 L 6327,17387 C 6445,17387 6553,17404 6657,17437 6795,17478 6920,17545 7038,17639 7092,17683 7145,17740 7197,17811 7267,17922 7314,18043 7338,18181 L 7365,18424 7365,18424 C 7382,18592 7378,18754 7355,18905 L 7324,19009 7324,19009 C 7290,19060 7250,19117 7200,19181 7149,19245 7092,19292 7028,19322 6964,19349 6870,19403 6745,19484 L 6745,19484 6627,19561 6633,19561 6633,19561 C 6630,19561 6630,19561 6627,19565 6115,19649 5747,19578 5525,19353 5302,19120 5192,18844 5192,18518 5192,18202 5302,17936 5525,17717 5751,17498 6017,17387 6327,17387 Z"/></g><g style="stroke:none;fill:rgb(119,119,119)"><path d="M 6657,17437 L 6657,17437 C 6553,17404 6445,17387 6327,17387 5731,17586 5687,17902 6189,18329 6323,18161 6398,18080 6408,18084 6421,18087 6465,18252 6543,18579 6553,18616 6566,18656 6586,18700 6808,18669 6910,18747 6890,18932 7015,18959 7170,18949 7355,18905 7378,18754 7382,18592 7365,18424 L 7338,18181 7338,18181 C 7314,18043 7267,17922 7197,17811 7145,17740 7092,17683 7038,17639 6920,17545 6795,17478 6657,17437 Z"/></g><g style="stroke:none;fill:rgb(255,255,255)"><path d="M 5504,18121 L 5504,18121 C 5380,18003 5606,18074 6189,18329 5687,17902 5731,17586 6327,17387 6017,17387 5751,17498 5525,17717 5302,17936 5192,18202 5192,18518 5323,18552 5444,18572 5562,18575 L 5653,18575 5653,18575 C 5717,18572 5734,18504 5707,18366 5697,18319 5629,18239 5504,18121 Z"/></g><g style="stroke:none;fill:rgb(187,187,187)"><path d="M 6189,18329 L 6189,18329 C 5606,18074 5380,18003 5504,18121 5629,18239 5697,18319 5707,18366 L 5781,18380 5781,18380 C 6034,18430 6179,18474 6213,18511 6243,18548 6250,18521 6229,18437 6219,18390 6206,18353 6189,18329 Z"/></g><g style="stroke:none;fill:rgb(102,102,102)"><path d="M 5781,18380 L 5707,18366 5707,18366 C 5734,18504 5717,18572 5653,18575 L 5562,18575 5562,18575 C 5471,18898 5734,18959 6351,18757 6441,18727 6523,18710 6586,18700 6566,18656 6553,18616 6543,18579 6465,18252 6421,18087 6408,18084 6398,18080 6323,18161 6189,18329 6206,18353 6219,18390 6229,18437 6250,18521 6243,18548 6213,18511 6179,18474 6034,18430 5781,18380 Z"/></g><g style="stroke:none;fill:rgb(187,187,187)"><path d="M 5562,18575 L 5562,18575 C 5444,18572 5323,18552 5192,18518 5192,18844 5302,19120 5525,19353 5747,19578 6115,19649 6627,19565 6630,19561 6630,19561 6633,19561 L 6627,19561 6627,19561 C 6792,19282 6880,19070 6890,18932 6910,18747 6808,18669 6586,18700 6523,18710 6441,18727 6351,18757 5734,18959 5471,18898 5562,18575 Z"/></g><g style="stroke:none;fill:rgb(102,102,102)"><path d="M 7324,19009 L 7355,18905 7355,18905 C 7170,18949 7015,18959 6890,18932 6880,19070 6792,19282 6627,19561 L 6745,19484 6745,19484 C 6870,19403 6964,19349 7028,19322 7092,19292 7149,19245 7200,19181 7250,19117 7290,19060 7324,19009 Z"/></g><g style="stroke:none;fill:rgb(0,0,0)"><path d="M 11487,9635 L 11487,9635 C 11200,9349 10856,9208 10451,9208 10047,9208 9701,9349 9414,9635 9127,9921 8987,10268 8987,10672 8987,11076 9127,11419 9414,11705 9701,11991 10047,12136 10451,12136 10856,12136 11200,11995 11487,11709 L 11490,11705 11490,11705 C 11776,11419 11917,11076 11917,10672 11917,10268 11772,9921 11487,9635 Z M 10493,9551 L 10493,9551 C 10610,9551 10718,9568 10823,9601 10961,9642 11085,9709 11203,9803 11257,9847 11311,9904 11362,9975 11432,10086 11480,10207 11503,10345 L 11530,10588 11530,10588 C 11547,10756 11543,10918 11520,11069 L 11490,11173 11490,11173 C 11456,11224 11415,11281 11365,11345 11315,11409 11257,11456 11193,11486 11130,11513 11035,11567 10910,11648 L 10910,11648 10793,11725 10799,11725 10799,11725 C 10796,11725 10796,11725 10793,11729 10280,11813 9912,11742 9690,11517 9467,11284 9357,11008 9357,10682 9357,10366 9467,10100 9690,9881 9916,9662 10182,9551 10493,9551 Z"/></g><g style="stroke:none;fill:rgb(119,119,119)"><path d="M 10823,9601 L 10823,9601 C 10718,9568 10610,9551 10493,9551 9896,9750 9852,10066 10354,10493 10489,10325 10563,10244 10573,10248 10586,10251 10631,10416 10708,10743 10718,10780 10731,10820 10751,10864 10974,10833 11075,10911 11055,11096 11180,11123 11335,11113 11520,11069 11543,10918 11547,10756 11530,10588 L 11503,10345 11503,10345 C 11480,10207 11432,10086 11362,9975 11311,9904 11257,9847 11203,9803 11085,9709 10961,9642 10823,9601 Z"/></g><g style="stroke:none;fill:rgb(255,255,255)"><path d="M 9670,10285 L 9670,10285 C 9545,10167 9771,10238 10354,10493 9852,10066 9896,9750 10493,9551 10182,9551 9916,9662 9690,9881 9467,10100 9357,10366 9357,10682 9489,10716 9609,10736 9727,10739 L 9819,10739 9819,10739 C 9882,10736 9899,10668 9872,10530 9862,10483 9794,10403 9670,10285 Z"/></g><g style="stroke:none;fill:rgb(187,187,187)"><path d="M 10354,10493 L 10354,10493 C 9771,10238 9545,10167 9670,10285 9794,10403 9862,10483 9872,10530 L 9946,10544 9946,10544 C 10199,10594 10344,10638 10378,10675 10408,10712 10415,10685 10394,10601 10384,10554 10371,10517 10354,10493 Z"/></g><g style="stroke:none;fill:rgb(102,102,102)"><path d="M 9946,10544 L 9872,10530 9872,10530 C 9899,10668 9882,10736 9819,10739 L 9727,10739 9727,10739 C 9637,11062 9899,11123 10516,10921 10606,10891 10688,10874 10751,10864 10731,10820 10718,10780 10708,10743 10631,10416 10586,10251 10573,10248 10563,10244 10489,10325 10354,10493 10371,10517 10384,10554 10394,10601 10415,10685 10408,10712 10378,10675 10344,10638 10199,10594 9946,10544 Z"/></g><g style="stroke:none;fill:rgb(187,187,187)"><path d="M 9727,10739 L 9727,10739 C 9609,10736 9489,10716 9357,10682 9357,11008 9467,11284 9690,11517 9912,11742 10280,11813 10793,11729 10796,11725 10796,11725 10799,11725 L 10793,11725 10793,11725 C 10958,11446 11045,11234 11055,11096 11075,10911 10974,10833 10751,10864 10688,10874 10606,10891 10516,10921 9899,11123 9637,11062 9727,10739 Z"/></g><g style="stroke:none;fill:rgb(102,102,102)"><path d="M 11490,11173 L 11520,11069 11520,11069 C 11335,11113 11180,11123 11055,11096 11045,11234 10958,11446 10793,11725 L 10910,11648 10910,11648 C 11035,11567 11130,11513 11193,11486 11257,11456 11315,11409 11365,11345 11415,11281 11456,11224 11490,11173 Z"/></g></g></g></g></svg>