<?xml version="1.0" encoding="UTF-8"?>
<!DOCTYPE svg PUBLIC "-//W3C//DTD SVG 1.1//EN" "http://www.w3.org/Graphics/SVG/1.1/DTD/svg11.dtd"><svg version="1.1" viewBox="0 0 21000 29700" preserveAspectRatio="xMidYMid" fill-rule="evenodd" xmlns="http://www.w3.org/2000/svg" xmlns:xlink="http://www.w3.org/1999/xlink"><g visibility="visible" id="Default"><desc>Master slide</desc><g style="stroke:none;fill:none"><rect x="0" y="0" width="21000" height="29700"/></g></g><g visibility="visible" id="page1"><desc>Slide</desc><g><desc>Graphic</desc><g><g style="stroke:none;fill:rgb(0,0,0)"><path d="M 18595,7102 L 17566,6079 17566,6079 C 17510,6023 17443,5994 17365,5994 L 1931,5994 1931,5994 C 1851,5994 1784,6023 1729,6079 1674,6134 1645,6199 1645,6278 L 1645,22644 1645,22644 C 1645,22723 1674,22790 1729,22845 1784,22899 1851,22928 1931,22928 L 18393,22928 18393,22928 C 18472,22928 18539,22899 18595,22845 18650,22790 18678,22723 18678,22644 L 18678,7301 18678,7301 C 18678,7222 18650,7157 18595,7102 Z M 17365,6278 L 17365,6278 18393,7301 18393,22644 15307,22644 6047,22644 1931,22644 1931,6278 5018,6278 15307,6278 17365,6278 Z"/></g><g style="stroke:none;fill:rgb(85,85,221)"><path d="M 18393,7301 L 18393,7301 17365,6278 15307,6278 15307,7301 15307,8324 15307,9348 15307,12415 5018,12415 5018,9348 5018,8324 5018,7301 5018,6278 1931,6278 1931,22644 6047,22644 6047,21621 2959,21621 2959,7301 3988,7301 3988,13438 16336,13438 16336,8324 17365,8324 17365,21621 15307,21621 15307,22644 18393,22644 18393,7301 Z"/></g><g style="stroke:none;fill:rgb(0,0,0)"><path d="M 17365,8324 L 17365,8324 16336,8324 16336,13438 3988,13438 3988,7301 2959,7301 2959,21621 6047,21621 6047,16507 15307,16507 15307,21621 17365,21621 17365,8324 Z M 16622,8608 L 16622,8608 17078,8608 17078,21337 15593,21337 15593,16507 15593,16507 C 15591,16428 15562,16361 15507,16306 15452,16251 15384,16223 15307,16223 L 6047,16223 6047,16223 C 5966,16223 5899,16251 5845,16306 5787,16361 5759,16428 5761,16507 L 5761,16507 5761,21337 3246,21337 3246,7585 3703,7585 3703,13438 3703,13438 C 3703,13517 3731,13584 3787,13639 3842,13694 3908,13722 3988,13722 L 16336,13722 16336,13722 C 16414,13722 16481,13694 16536,13639 16592,13584 16620,13517 16622,13438 L 16622,8608 Z"/></g><g style="stroke:none;fill:rgb(255,0,0)"><path d="M 15307,7301 L 15307,7301 15307,6278 5018,6278 5018,7301 15307,7301 Z"/></g><g style="stroke:none;fill:rgb(0,0,0)"><path d="M 15307,8324 L 15307,8324 15307,7301 5018,7301 5018,8324 15307,8324 Z M 15021,7585 L 15021,7585 15021,8040 5303,8040 5303,7585 15021,7585 Z"/><path d="M 15307,12415 L 15307,12415 15307,9348 5018,9348 5018,12415 15307,12415 Z M 15021,9631 L 15021,9631 15021,12131 5303,12131 5303,9631 15021,9631 Z"/></g><g style="stroke:none;fill:rgb(255,0,0)"><path d="M 15307,9348 L 15307,9348 15307,8324 5018,8324 5018,9348 15307,9348 Z"/></g><g style="stroke:none;fill:rgb(153,153,153)"><path d="M 6047,21621 L 6047,21621 6047,22644 15307,22644 15307,21621 15307,16507 6047,16507 6047,21621 Z M 7074,17530 L 7074,17530 11191,17530 11191,21621 7074,21621 7074,17530 Z M 12220,17530 L 12220,17530 14278,17530 14278,21621 12220,21621 12220,17530 Z"/></g><g style="stroke:none;fill:rgb(0,0,0)"><path d="M 11191,17530 L 11191,17530 7074,17530 7074,21621 11191,21621 11191,17530 Z M 7360,17814 L 7360,17814 10905,17814 10905,21337 7360,21337 7360,17814 Z"/><path d="M 14278,17530 L 14278,17530 12220,17530 12220,21621 14278,21621 14278,17530 Z M 13992,21337 L 13992,21337 12506,21337 12506,17814 13992,17814 13992,21337 Z"/></g></g></g></g></svg>