<?xml version="1.0" encoding="UTF-8"?>
<!DOCTYPE svg PUBLIC "-//W3C//DTD SVG 1.1//EN" "http://www.w3.org/Graphics/SVG/1.1/DTD/svg11.dtd"><svg version="1.1" viewBox="0 0 21000 29700" preserveAspectRatio="xMidYMid" fill-rule="evenodd" xmlns="http://www.w3.org/2000/svg" xmlns:xlink="http://www.w3.org/1999/xlink"><g visibility="visible" id="Default"><desc>Master slide</desc><g style="stroke:none;fill:none"><rect x="0" y="0" width="21000" height="29700"/></g></g><g visibility="visible" id="page1"><desc>Slide</desc><g><desc>Graphic</desc><g><g style="stroke:none;fill:rgb(0,0,0)"><path d="M 11333,6359 L 11333,6359 10557,6985 10333,7373 10235,7903 10235,7903 C 10259,8138 10304,8370 10370,8597 10417,8751 10493,8886 10596,9003 10605,9012 10614,9023 10620,9034 10659,9075 10707,9111 10769,9139 10799,9316 10891,9466 11045,9587 11226,9730 11419,9863 11626,9984 11703,10030 11734,10101 11719,10196 11717,10198 11717,10202 11717,10204 11333,10156 10936,10132 10528,10132 8400,10134 6586,10784 5082,12085 3567,13397 2808,14978 2810,16832 2808,18686 3567,20269 5082,21581 6586,22880 8400,23530 10528,23533 12655,23530 14470,22880 15974,21581 17489,20269 18248,18686 18245,16832 18248,14978 17489,13397 15974,12085 15368,11560 14711,11141 14004,10828 L 14004,10828 13842,10718 14724,10566 14724,10566 C 15317,10617 15867,10454 16375,10072 16604,9902 16777,9686 16894,9428 17031,9126 17070,8802 17009,8456 16894,7799 16541,7272 15954,6875 15431,6524 14867,6273 14266,6121 14210,6103 14159,6079 14111,6050 13159,5865 12233,5969 11333,6359 Z M 11608,7446 L 11458,7706 11458,7706 C 11453,7757 11446,7810 11439,7863 11393,8202 11469,8489 11668,8721 L 11668,8721 11868,9338 12014,9543 11876,9770 11876,9770 C 11804,9728 11730,9686 11662,9640 10616,8987 10357,8130 10887,7069 11443,6714 12054,6487 12713,6392 14079,6196 15280,6571 16313,7512 L 16313,7512 16499,7790 16681,8136 16710,8807 16710,8807 C 16708,8829 16705,8851 16703,8873 16657,9197 16532,9435 16331,9587 L 16331,9587 16213,9702 16180,9845 16180,9845 C 15439,10398 14729,10517 14052,10200 L 14052,10200 14625,9957 14911,9706 15468,9441 15748,9153 15748,9153 C 15818,8950 15849,8740 15840,8524 15816,8028 15567,7636 15096,7342 14077,6714 13032,6644 11961,7131 L 11608,7446 Z M 11572,8048 L 11572,8048 11797,7658 12152,7342 12566,7166 12566,7166 C 12721,7153 12879,7142 13039,7135 13660,7113 14236,7252 14772,7550 15534,7975 15746,8571 15403,9333 L 15403,9333 14913,9642 14869,9236 14869,9236 C 14310,8604 13605,8302 12755,8326 12478,8335 12209,8383 11952,8469 L 11952,8469 11739,8657 11555,8379 11572,8048 Z M 14277,9344 L 14277,9344 C 14443,9669 14330,9816 13935,9790 13798,9995 13700,10207 13645,10427 13620,10524 13564,10588 13476,10619 13465,10621 13454,10625 13443,10628 L 13443,10628 12054,10213 12409,9362 12409,9362 C 12229,9274 12136,9124 12134,8912 12134,8879 12134,8848 12134,8815 L 12134,8815 12482,8632 12819,8586 12819,8586 C 13487,8502 13973,8756 14277,9344 Z M 10528,10573 L 10528,10573 C 12542,10570 14262,11186 15683,12418 17094,13637 17799,15108 17802,16832 17799,18556 17094,20029 15683,21248 14262,22479 12542,23094 10528,23092 8514,23094 6794,22479 5373,21248 3962,20029 3256,18556 3254,16832 3256,15108 3962,13637 5373,12418 6794,11186 8514,10570 10528,10573 Z"/></g><g style="stroke:none;fill:rgb(224,156,10)"><path d="M 11458,7706 L 11458,7706 11608,7446 11961,7131 11961,7131 C 13032,6644 14077,6714 15096,7342 15567,7636 15816,8028 15840,8524 15849,8740 15818,8950 15748,9153 L 15748,9153 15468,9441 14911,9706 14625,9957 14052,10200 14052,10200 C 14729,10517 15439,10398 16180,9845 L 16180,9845 16213,9702 16331,9587 16197,9512 16353,9186 16710,8807 16681,8136 16499,7790 16313,7512 16313,7512 C 15280,6571 14079,6196 12713,6392 12054,6487 11443,6714 10887,7069 10357,8130 10616,8987 11662,9640 11730,9686 11804,9728 11876,9770 L 11876,9770 12014,9543 11868,9338 11668,8721 11668,8721 C 11469,8489 11393,8202 11439,7863 11446,7810 11453,7757 11458,7706 Z"/></g><g style="stroke:none;fill:rgb(214,150,17)"><path d="M 16703,8873 L 16703,8873 C 16705,8851 16708,8829 16710,8807 L 16710,8807 16353,9186 16197,9512 16331,9587 16331,9587 C 16532,9435 16657,9197 16703,8873 Z"/></g><g style="stroke:none;fill:rgb(226,147,9)"><path d="M 13935,9790 L 13935,9790 C 14330,9816 14443,9669 14277,9344 13973,8756 13487,8502 12819,8586 L 12819,8586 12828,8771 13281,8745 13456,8888 13456,8888 C 13227,9139 12962,9214 12658,9111 L 12658,9111 12482,8632 12134,8815 12134,8815 C 12134,8848 12134,8879 12134,8912 12136,9124 12229,9274 12409,9362 L 12409,9362 12054,10213 13443,10628 13443,10628 C 13454,10625 13465,10621 13476,10619 13564,10588 13620,10524 13645,10427 13700,10207 13798,9995 13935,9790 Z"/></g><g style="stroke:none;fill:rgb(252,189,4)"><path d="M 13281,8745 L 13281,8745 12828,8771 12819,8586 12482,8632 12658,9111 12658,9111 C 12962,9214 13227,9139 13456,8888 L 13281,8745 Z"/></g><g style="stroke:none;fill:rgb(247,80,79)"><path d="M 15683,12418 L 15683,12418 C 14262,11186 12542,10570 10528,10573 8514,10570 6794,11186 5373,12418 3962,13637 3256,15108 3254,16832 3256,18556 3962,20029 5373,21248 6794,22479 8514,23094 10528,23092 12542,23094 14262,22479 15683,21248 17094,20029 17799,18556 17802,16832 17799,15108 17094,13637 15683,12418 Z M 14783,12048 L 14783,12048 C 14976,12112 15182,12222 15403,12383 15623,12544 15794,12705 15912,12868 16029,13033 16060,13150 16005,13223 15980,13254 15941,13271 15889,13278 16865,14354 17329,15591 17283,16989 17227,18596 16510,19945 15131,21037 13750,22128 12114,22640 10219,22576 8323,22512 6726,21888 5426,20706 4124,19524 3500,18129 3556,16521 3611,14914 4327,13565 5708,12473 7087,11382 8724,10870 10620,10934 12058,10983 13325,11353 14421,12045 14481,11988 14601,11988 14783,12048 Z"/></g><g style="stroke:none;fill:rgb(253,0,7)"><path d="M 14409,12061 L 14409,12061 C 14412,12054 14416,12050 14421,12045 13325,11353 12058,10983 10620,10934 8724,10870 7087,11382 5708,12473 4327,13565 3611,14914 3556,16521 3500,18129 4124,19524 5426,20706 6726,21888 8323,22512 10219,22576 12114,22640 13750,22128 15131,21037 16510,19945 17227,18596 17283,16989 17329,15591 16865,14354 15889,13278 15825,13282 15738,13267 15634,13234 15442,13170 15232,13060 15013,12899 14792,12738 14623,12575 14505,12411 14387,12248 14354,12131 14409,12061 Z M 14858,13013 L 14858,13013 C 16044,14039 16637,15278 16635,16728 16637,18177 16044,19416 14858,20446 13684,21460 12266,21967 10605,21969 8944,21967 7527,21460 6353,20446 5166,19416 4574,18177 4576,16728 4574,15278 5166,14039 6353,13013 7527,11997 8944,11490 10605,11488 12266,11490 13684,11997 14858,13013 Z"/></g><g style="stroke:none;fill:rgb(0,0,0)"><path d="M 16635,16728 L 16635,16728 C 16637,15278 16044,14039 14858,13013 13684,11997 12266,11490 10605,11488 8944,11490 7527,11997 6353,13013 5166,14039 4574,15278 4576,16728 4574,18177 5166,19416 6353,20446 7527,21460 8944,21967 10605,21969 12266,21967 13684,21460 14858,20446 16044,19416 16637,18177 16635,16728 Z M 14567,13346 L 14567,13346 C 15648,14279 16189,15408 16191,16728 16189,18049 15648,19176 14567,20113 13474,21059 12154,21531 10605,21528 9057,21531 7737,21059 6643,20113 5563,19176 5022,18049 5020,16728 5022,15408 5563,14279 6643,13346 7737,12400 9057,11926 10605,11929 12154,11926 13474,12400 14567,13346 Z"/></g><g style="stroke:none;fill:rgb(252,127,128)"><path d="M 14421,12045 L 14421,12045 C 14416,12050 14412,12054 14409,12061 14354,12131 14387,12248 14505,12411 14623,12575 14792,12738 15013,12899 15232,13060 15442,13170 15634,13234 15738,13267 15825,13282 15889,13278 15941,13271 15980,13254 16005,13223 16060,13150 16029,13033 15912,12868 15794,12705 15623,12544 15403,12383 15182,12222 14976,12112 14783,12048 14601,11988 14481,11988 14421,12045 Z"/></g><g style="stroke:none;fill:rgb(0,0,0)"><path d="M 12870,11718 L 12870,11718 C 12870,11715 12870,11711 12870,11708 12873,11605 12856,11508 12811,11419 12759,11319 12690,11244 12599,11188 12534,11151 12469,11127 12395,11116 12094,10982 11797,11316 11510,12117 11506,12131 11503,12145 11500,12155 11036,13603 10426,14903 9676,16049 L 9673,16049 9673,16049 C 9627,16117 9582,16186 9537,16255 L 9541,16248 9541,16248 C 9524,16272 9510,16296 9500,16320 9260,16530 9022,16733 8776,16936 L 8779,16932 8779,16932 C 8731,16970 8686,17008 8641,17046 8637,17049 8634,17049 8630,17053 7679,17813 6647,18491 5537,19092 L 5541,19092 5541,19092 C 5443,19144 5371,19216 5319,19313 L 5326,19299 5326,19299 C 5274,19388 5246,19485 5246,19584 L 5246,19622 5246,19622 C 5240,19753 5277,19873 5364,19980 5437,20080 5537,20145 5661,20179 5665,20183 5668,20183 5671,20183 5789,20214 5907,20203 6022,20159 6025,20155 6029,20155 6032,20155 7039,19722 8029,19268 9008,18790 L 9012,18790 9012,18790 C 9053,18766 9094,18745 9135,18728 9139,18724 9147,18724 9150,18724 9475,18563 9801,18398 10122,18236 L 10125,18236 10125,18236 C 10229,18181 10333,18126 10437,18074 10887,18119 11358,17975 11846,17641 11849,17638 11849,17638 11852,17634 11957,17558 12025,17459 12063,17331 12063,17328 12063,17328 12067,17328 12174,16946 12185,16647 12091,16430 L 12098,16447 12098,16447 C 12053,16300 11981,16172 11880,16073 11974,15639 12123,15061 12327,14343 12344,14301 12351,14267 12351,14239 L 12586,13187 12586,13187 C 12589,13177 12589,13163 12592,13152 12762,12365 12856,11887 12870,11718 Z M 12419,11484 L 12419,11484 C 12455,11505 12482,11532 12500,11570 12517,11608 12527,11646 12524,11687 12510,11852 12416,12327 12247,13108 L 12247,13108 12247,13111 12001,14215 12001,14215 C 12001,14219 12001,14222 11998,14226 11755,15092 11589,15756 11496,16214 11631,16286 11721,16396 11765,16547 11828,16716 11818,16943 11731,17235 11717,17287 11690,17325 11648,17356 11216,17655 10801,17775 10406,17724 10392,17720 10378,17720 10368,17720 8911,18477 7419,19182 5894,19839 5849,19856 5800,19859 5755,19849 5707,19835 5668,19808 5637,19770 5606,19732 5589,19687 5592,19639 L 5592,19584 5592,19584 C 5592,19546 5603,19509 5623,19474 5641,19440 5668,19412 5703,19395 7212,18580 8575,17620 9793,16516 9796,16492 9808,16468 9825,16444 10659,15220 11330,13820 11835,12241 11835,12238 11835,12238 11835,12234 12039,11673 12195,11412 12306,11453 12347,11453 12385,11464 12419,11484 Z"/></g><g style="stroke:none;fill:rgb(255,255,255)"><path d="M 12500,11570 L 12500,11570 C 12482,11532 12455,11505 12419,11484 12385,11464 12347,11453 12306,11453 12195,11412 12039,11673 11835,12234 11835,12238 11835,12238 11835,12241 11330,13820 10659,15220 9825,16444 9808,16468 9796,16492 9793,16516 8575,17620 7212,18580 5703,19395 5668,19412 5641,19440 5623,19474 5603,19509 5592,19546 5592,19584 L 5592,19639 5592,19639 C 5589,19687 5606,19732 5637,19770 5668,19808 5707,19835 5755,19849 5800,19859 5849,19856 5894,19839 7419,19182 8911,18477 10368,17720 10378,17720 10392,17720 10406,17724 10801,17775 11216,17655 11648,17356 11690,17325 11717,17287 11731,17235 11818,16943 11828,16716 11765,16547 11721,16396 11631,16286 11496,16214 11589,15756 11755,15092 11998,14226 12001,14222 12001,14219 12001,14215 L 12001,14215 12247,13111 12247,13108 12247,13108 C 12416,12327 12510,11852 12524,11687 12527,11646 12517,11608 12500,11570 Z M 11167,15663 L 11167,15663 C 11015,15956 10918,16207 10876,16417 11157,16437 11323,16513 11371,16640 11451,16774 11440,16908 11337,17043 11164,17163 10977,17235 10772,17266 10623,17297 10479,17331 10337,17366 10063,17438 9801,17531 9541,17648 9468,17686 9399,17724 9330,17765 9063,17923 8796,18078 8530,18229 7717,18728 6839,19178 5894,19581 7250,18807 8474,18043 9568,17283 L 9568,17283 9835,17053 10122,16798 10122,16798 C 10395,16303 10659,15794 10904,15271 11426,14167 11890,13005 12289,11777 11693,14074 11320,15371 11167,15663 Z"/></g><g style="stroke:none;fill:rgb(18,19,19)"><path d="M 11340,16654 L 11340,16654 10856,16444 12022,12671 12022,12671 C 11707,13569 11333,14435 10904,15271 10659,15794 10395,16303 10122,16798 L 9835,17053 9835,17053 C 9755,17135 9669,17214 9572,17287 8969,17730 8351,18150 7710,18549 7298,18807 6883,19055 6468,19292 7167,18962 7856,18607 8530,18229 8796,18078 9063,17923 9330,17765 9399,17724 9468,17686 9541,17648 9863,17483 10198,17366 10551,17300 10769,17252 10981,17184 11185,17091 11358,17015 11416,16888 11364,16709 11358,16688 11351,16671 11340,16654 Z"/></g></g></g></g></svg>