<?xml version="1.0" encoding="UTF-8"?>
<!DOCTYPE svg PUBLIC "-//W3C//DTD SVG 1.1//EN" "http://www.w3.org/Graphics/SVG/1.1/DTD/svg11.dtd"><svg version="1.1" viewBox="0 0 21000 29700" preserveAspectRatio="xMidYMid" fill-rule="evenodd" xmlns="http://www.w3.org/2000/svg" xmlns:xlink="http://www.w3.org/1999/xlink"><g visibility="visible" id="Default"><desc>Master slide</desc><g style="stroke:none;fill:none"><rect x="0" y="0" width="21000" height="29700"/></g></g><g visibility="visible" id="page1"><desc>Slide</desc><g><desc>Graphic</desc><g><g style="stroke:none;fill:rgb(0,0,0)"><path d="M 5253,7845 L 5253,7845 C 5269,7391 5025,7166 4521,7166 4174,7160 3889,7312 3663,7619 3661,7621 3658,7624 3656,7626 L 3656,7626 2016,10009 1747,10330 1747,10330 C 1745,10332 1742,10335 1740,10339 1546,10577 1457,10776 1473,10939 1433,11260 1635,11455 2079,11526 L 2072,11524 2072,11524 C 2197,11547 2426,11559 2760,11561 2762,11561 2765,11561 2769,11561 L 2769,11561 3896,11588 3896,12002 3896,12002 C 3894,12025 3892,12071 3891,12138 L 3894,12124 3894,12124 C 3885,12209 3882,12274 3882,12320 3882,12909 4119,13187 4597,13157 5035,13159 5253,12939 5253,12496 L 5253,11616 5253,11616 C 5364,11611 5443,11602 5492,11586 L 5484,11586 5484,11586 C 5837,11499 6013,11282 6008,10939 6052,10536 5801,10314 5253,10270 L 5253,7845 Z M 4516,7518 L 4516,7518 C 4769,7518 4895,7628 4897,7845 L 4897,10612 4897,10612 C 4934,10610 4980,10610 5034,10610 5445,10610 5650,10720 5650,10939 5649,11099 5564,11200 5395,11244 5319,11263 5154,11268 4897,11260 L 4897,12494 4897,12494 C 4895,12699 4793,12801 4591,12803 4353,12801 4235,12641 4235,12320 4235,12279 4237,12223 4242,12150 4245,12076 4247,12027 4249,12000 L 4249,12000 4245,11244 2767,11207 2767,11207 C 2460,11205 2249,11196 2130,11177 1926,11143 1825,11064 1826,10939 1825,10838 1887,10713 2009,10559 L 2009,10559 2298,10221 3947,7827 3947,7827 C 4098,7621 4288,7518 4516,7518 Z"/></g><g style="stroke:none;fill:rgb(255,255,255)"><path d="M 4897,7845 L 4897,7845 C 4895,7628 4769,7518 4516,7518 4288,7518 4098,7621 3947,7827 L 3947,7827 2298,10221 2009,10559 2009,10559 C 1887,10713 1825,10838 1826,10939 1825,11064 1926,11143 2130,11177 2249,11196 2460,11205 2767,11207 L 2767,11207 4245,11244 4249,12000 4249,12000 C 4247,12027 4245,12076 4242,12150 4237,12223 4235,12279 4235,12320 4235,12641 4353,12801 4591,12803 4793,12801 4895,12699 4897,12494 L 4897,11260 4897,11260 C 5154,11268 5319,11263 5395,11244 5564,11200 5649,11099 5650,10939 5650,10720 5445,10610 5034,10610 4980,10610 4934,10610 4897,10612 L 4897,7845 Z M 4245,10600 L 2848,10566 2848,10566 C 3182,10095 3647,9386 4245,8439 L 4245,10600 Z"/></g><g style="stroke:none;fill:rgb(0,0,0)"><path d="M 2848,10566 L 2848,10566 4245,10600 4245,8439 4245,8439 C 3647,9386 3182,10095 2848,10566 Z M 3512,10229 L 3512,10229 C 3629,10055 3757,9861 3896,9647 L 3896,9647 3896,10238 3512,10229 Z"/><path d="M 7464,9032 L 7464,9032 C 7574,8921 7629,8778 7629,8605 7629,7989 7418,7693 6996,7714 6827,7716 6684,7769 6568,7876 6449,7986 6389,8125 6387,8296 6387,8340 6395,8404 6409,8485 6417,8540 6421,8578 6423,8605 6423,8780 6479,8922 6595,9034 6707,9146 6853,9203 7032,9205 7207,9203 7351,9146 7462,9034 7462,9032 7462,9032 7464,9032 Z M 6742,8296 L 6742,8296 C 6740,8231 6763,8176 6809,8134 6860,8086 6921,8065 6996,8067 7183,8085 7274,8264 7274,8605 7274,8677 7253,8737 7213,8785 7211,8785 7211,8785 7209,8787 7161,8829 7102,8850 7032,8852 6955,8852 6893,8829 6846,8785 6800,8737 6777,8677 6777,8605 6779,8564 6772,8504 6758,8425 6749,8370 6744,8326 6742,8296 Z"/></g><g style="stroke:none;fill:rgb(255,255,255)"><path d="M 6809,8134 L 6809,8134 C 6763,8176 6740,8231 6742,8296 6744,8326 6749,8370 6758,8425 6772,8504 6779,8564 6777,8605 6777,8677 6800,8737 6846,8785 6893,8829 6955,8852 7032,8852 7102,8850 7161,8829 7209,8787 7211,8785 7211,8785 7213,8785 7253,8737 7274,8677 7274,8605 7274,8264 7183,8085 6996,8067 6921,8065 6860,8086 6809,8134 Z"/></g><g style="stroke:none;fill:rgb(0,0,0)"><path d="M 7532,12052 L 7532,12052 C 7643,11937 7701,11792 7701,11621 7701,10907 7485,10561 7058,10584 6893,10584 6751,10637 6632,10744 6503,10859 6439,10998 6440,11166 6440,11222 6451,11309 6470,11425 L 6470,11427 6470,11427 C 6486,11510 6493,11575 6493,11621 6493,11792 6551,11937 6664,12052 6772,12166 6916,12224 7097,12224 7273,12224 7416,12168 7529,12053 7530,12052 7530,12052 7532,12052 Z M 7346,11621 L 7346,11621 C 7346,11693 7322,11755 7278,11805 7276,11805 7276,11805 7276,11806 7229,11850 7170,11872 7097,11872 7025,11872 6964,11850 6920,11806 6872,11757 6849,11695 6849,11621 6849,11559 6838,11475 6818,11364 L 6820,11365 6820,11365 C 6804,11275 6797,11210 6795,11166 6797,11104 6822,11051 6870,11007 6921,10960 6985,10937 7058,10937 7250,10958 7346,11185 7346,11621 Z"/></g><g style="stroke:none;fill:rgb(255,255,255)"><path d="M 7278,11805 L 7278,11805 C 7322,11755 7346,11693 7346,11621 7346,11185 7250,10958 7058,10937 6985,10937 6921,10960 6870,11007 6822,11051 6797,11104 6795,11166 6797,11210 6804,11275 6820,11365 L 6818,11364 6818,11364 C 6838,11475 6849,11559 6849,11621 6849,11695 6872,11757 6920,11806 6964,11850 7025,11872 7097,11872 7170,11872 7229,11850 7276,11806 7276,11805 7276,11805 7278,11805 Z"/></g><g style="stroke:none;fill:rgb(0,0,0)"><path d="M 2176,16668 L 2176,16668 C 1796,16966 1570,17384 1494,17925 1477,18056 1468,18193 1468,18340 1468,18987 1702,19484 2170,19834 L 2172,19835 2172,19835 C 2544,20112 2980,20254 3482,20255 3541,20255 3605,20250 3677,20241 3622,20306 3568,20366 3512,20418 3340,20571 3110,20707 2818,20829 L 2260,21019 2260,21019 C 2249,21023 2239,21026 2230,21031 1917,21167 1770,21374 1787,21649 1787,21832 1849,21989 1974,22121 1975,22123 1975,22125 1977,22127 2100,22266 2260,22337 2456,22338 2644,22349 2975,22241 3445,22016 L 3441,22019 3441,22019 C 3831,21837 4114,21680 4290,21548 4734,21224 5083,20740 5338,20098 5564,19527 5678,18936 5678,18327 L 5678,18326 5678,18326 C 5676,18186 5665,18054 5642,17925 5566,17498 5371,17123 5055,16798 L 5055,16796 5055,16796 C 4655,16389 4201,16186 3696,16191 3065,16191 2560,16350 2176,16668 Z M 1853,17925 L 1853,17925 C 1923,17507 2103,17177 2398,16939 2727,16675 3157,16542 3693,16542 4103,16542 4472,16710 4797,17043 5046,17299 5206,17592 5276,17925 5303,18052 5317,18186 5319,18326 5320,18890 5215,19437 5003,19968 4776,20541 4467,20973 4075,21264 3912,21384 3649,21529 3289,21698 2890,21889 2613,21984 2455,21984 2362,21984 2288,21950 2231,21883 2169,21816 2139,21739 2141,21649 2139,21518 2216,21419 2367,21354 L 2927,21164 2927,21164 C 3273,21023 3548,20860 3749,20679 3949,20497 4133,20238 4298,19903 L 4442,19615 4442,19615 C 4318,19686 4158,19751 3961,19813 3764,19873 3603,19903 3480,19903 3058,19903 2692,19786 2384,19551 2009,19268 1821,18864 1821,18338 1819,18192 1830,18054 1853,17925 Z"/></g><g style="stroke:none;fill:rgb(255,255,255)"><path d="M 2398,16939 L 2398,16939 C 2103,17177 1923,17507 1853,17925 1830,18054 1819,18192 1821,18338 1821,18864 2009,19268 2384,19551 2692,19786 3058,19903 3480,19903 3603,19903 3764,19873 3961,19813 4158,19751 4318,19686 4442,19615 L 4298,19903 4298,19903 C 4133,20238 3949,20497 3749,20679 3548,20860 3273,21023 2927,21164 L 2367,21354 2367,21354 C 2216,21419 2139,21518 2141,21649 2139,21739 2169,21816 2231,21883 2288,21950 2362,21984 2455,21984 2613,21984 2890,21889 3289,21698 3649,21529 3912,21384 4075,21264 4467,20973 4776,20541 5003,19968 5215,19437 5320,18890 5319,18326 5317,18186 5303,18052 5276,17925 5206,17592 5046,17299 4797,17043 4472,16710 4103,16542 3693,16542 3157,16542 2727,16675 2398,16939 Z M 3598,17114 L 3598,17114 C 3840,17114 4079,17246 4311,17511 4432,17647 4523,17786 4581,17925 4636,18057 4662,18190 4664,18326 4664,18438 4650,18592 4620,18784 4388,18955 4228,19066 4139,19116 3944,19223 3757,19276 3578,19276 3271,19276 3013,19197 2809,19038 2579,18858 2464,18604 2464,18278 2465,18149 2476,18033 2497,17925 2539,17706 2625,17532 2753,17403 2939,17211 3222,17114 3598,17114 Z"/></g><g style="stroke:none;fill:rgb(0,0,0)"><path d="M 4311,17511 L 4311,17511 C 4079,17246 3840,17114 3598,17114 3222,17114 2939,17211 2753,17403 2625,17532 2539,17706 2497,17925 2476,18033 2465,18149 2464,18278 2464,18604 2579,18858 2809,19038 3013,19197 3271,19276 3578,19276 3757,19276 3944,19223 4139,19116 4228,19066 4388,18955 4620,18784 4650,18592 4664,18438 4664,18326 4662,18190 4636,18057 4581,17925 4523,17786 4432,17647 4311,17511 Z M 3012,17648 L 3012,17648 C 3143,17527 3340,17467 3601,17467 3749,17481 3900,17574 4050,17745 4102,17803 4146,17863 4183,17925 4263,18057 4305,18192 4311,18327 4311,18396 4304,18484 4291,18592 4144,18696 4038,18768 3972,18807 3970,18809 3970,18809 3968,18811 3831,18883 3703,18920 3580,18922 3361,18922 3178,18867 3031,18760 2892,18645 2822,18484 2820,18282 L 2820,18278 2820,18278 C 2822,18146 2836,18028 2866,17925 2897,17816 2945,17724 3010,17650 L 3012,17648 Z"/></g></g></g></g></svg>