<?xml version="1.0" encoding="UTF-8"?>
<!DOCTYPE svg PUBLIC "-//W3C//DTD SVG 1.1//EN" "http://www.w3.org/Graphics/SVG/1.1/DTD/svg11.dtd"><svg version="1.1" viewBox="0 0 21000 29700" preserveAspectRatio="xMidYMid" fill-rule="evenodd" xmlns="http://www.w3.org/2000/svg" xmlns:xlink="http://www.w3.org/1999/xlink"><g visibility="visible" id="Default"><desc>Master slide</desc><g style="stroke:none;fill:none"><rect x="0" y="0" width="21000" height="29700"/></g></g><g visibility="visible" id="page1"><desc>Slide</desc><g><desc>Graphic</desc><g><g style="stroke:none;fill:rgb(0,0,0)"><path d="M 18892,10288 L 18893,10289 18893,10289 C 18824,10184 18743,10088 18646,10005 18918,9753 19055,9390 19055,8915 19055,8370 18855,7954 18460,7663 L 18464,7663 18464,7663 C 18130,7404 17675,7273 17103,7275 16868,7268 16572,7351 16215,7525 L 16218,7524 16218,7524 C 15698,7769 15459,8044 15502,8351 15496,8522 15560,8679 15691,8822 15693,8824 15695,8825 15697,8827 15830,8965 15990,9034 16179,9034 16279,9046 16404,9004 16552,8908 L 16552,8908 16555,8908 16924,8679 16932,8675 16932,8675 C 17012,8638 17096,8621 17182,8619 17379,8619 17535,8656 17651,8730 17712,8778 17743,8843 17742,8922 L 17742,8924 17742,8924 C 17740,8972 17728,9014 17702,9049 17658,9094 17596,9132 17517,9162 L 16744,9349 16744,9349 C 16732,9351 16720,9355 16708,9358 16318,9497 16142,9709 16179,9993 L 16179,10000 16179,10000 C 16146,10379 16376,10595 16870,10642 L 16875,10642 16875,10642 C 17154,10672 17381,10753 17553,10882 L 17554,10886 17554,10886 C 17716,11016 17796,11191 17795,11411 17793,11535 17738,11639 17633,11725 L 17630,11727 17630,11727 C 17510,11826 17374,11875 17217,11875 17082,11873 16964,11856 16866,11822 16792,11790 16732,11746 16685,11688 L 16548,11478 16548,11478 C 16543,11469 16536,11462 16531,11454 16389,11275 16217,11189 16016,11196 15835,11196 15679,11256 15546,11376 15395,11505 15323,11665 15324,11857 15323,11937 15338,12018 15370,12097 L 15367,12089 15367,12089 C 15496,12468 15754,12761 16141,12967 L 16142,12969 16142,12969 C 16460,13136 16818,13219 17217,13221 17763,13219 18226,13032 18606,12660 18985,12284 19175,11829 19175,11293 19173,10889 19080,10554 18892,10288 Z M 17179,8264 L 17179,8264 C 17026,8264 16878,8302 16736,8376 L 16357,8610 16357,8610 C 16285,8658 16224,8681 16178,8681 16090,8681 16014,8647 15953,8582 15886,8513 15855,8436 15855,8349 15853,8175 16023,8005 16366,7841 16662,7697 16908,7624 17101,7624 17582,7624 17961,7730 18244,7943 18547,8169 18697,8492 18697,8914 18697,9434 18485,9778 18059,9945 18021,9961 17979,9975 17928,9991 18224,10099 18448,10263 18597,10483 18744,10697 18818,10967 18818,11293 18818,11730 18662,12103 18351,12410 18041,12715 17661,12868 17214,12868 16877,12868 16576,12798 16307,12657 16004,12494 15802,12267 15697,11972 15683,11932 15676,11893 15677,11856 15676,11766 15711,11693 15781,11637 15846,11575 15924,11545 16014,11547 16105,11545 16181,11588 16248,11671 L 16399,11900 16399,11900 C 16481,12007 16590,12090 16726,12147 16863,12200 17024,12226 17214,12226 17457,12224 17672,12149 17855,11999 18051,11840 18148,11644 18148,11411 18148,11076 18023,10808 17775,10609 17557,10434 17266,10328 16904,10291 16655,10268 16531,10168 16531,9991 16531,9861 16629,9760 16824,9691 L 17624,9496 17624,9496 C 17779,9439 17894,9365 17972,9273 18051,9176 18091,9062 18093,8926 18096,8730 18020,8573 17865,8451 17700,8326 17472,8264 17179,8264 Z"/></g><g style="stroke:none;fill:rgb(255,255,255)"><path d="M 16736,8376 L 16736,8376 C 16878,8302 17026,8264 17179,8264 17472,8264 17700,8326 17865,8451 18020,8573 18096,8730 18093,8926 18091,9062 18051,9176 17972,9273 17894,9365 17779,9439 17624,9496 L 16824,9691 16824,9691 C 16629,9760 16531,9861 16531,9991 16531,10168 16655,10268 16904,10291 17266,10328 17557,10434 17775,10609 18023,10808 18148,11076 18148,11411 18148,11644 18051,11840 17855,11999 17672,12149 17457,12224 17214,12226 17024,12226 16863,12200 16726,12147 16590,12090 16481,12007 16399,11900 L 16248,11671 16248,11671 C 16181,11588 16105,11545 16014,11547 15924,11545 15846,11575 15781,11637 15711,11693 15676,11766 15677,11856 15676,11893 15683,11932 15697,11972 15802,12267 16004,12494 16307,12657 16576,12798 16877,12868 17214,12868 17661,12868 18041,12715 18351,12410 18662,12103 18818,11730 18818,11293 18818,10967 18744,10697 18597,10483 18448,10263 18224,10099 17928,9991 17979,9975 18021,9961 18059,9945 18485,9778 18697,9434 18697,8914 18697,8492 18547,8169 18244,7943 17961,7730 17582,7624 17101,7624 16908,7624 16662,7697 16366,7841 16023,8005 15853,8175 15855,8349 15855,8436 15886,8513 15953,8582 16014,8647 16090,8681 16178,8681 16224,8681 16285,8658 16357,8610 L 16736,8376 Z"/></g><g style="stroke:none;fill:rgb(0,0,0)"><path d="M 13266,8760 L 13266,8760 C 13266,8959 13200,9132 13068,9282 L 13068,9279 13068,9279 C 12968,9385 12775,9536 12489,9732 L 12487,9732 12487,9732 C 11881,10147 11513,10432 11377,10589 L 11376,10591 11376,10591 C 11030,10963 10858,11457 10861,12073 L 10861,12076 10861,12076 C 10859,12316 10879,12487 10918,12588 L 10916,12577 10916,12577 C 11010,12889 11225,13046 11557,13048 11564,13050 11574,13052 11587,13053 11667,13073 11729,13082 11769,13080 11869,13080 12016,13066 12210,13039 12357,13020 12469,13009 12547,13009 12666,13009 12843,13004 13079,12992 L 13083,12992 13083,12992 C 13301,12976 13465,12969 13576,12969 13603,12972 13642,12983 13695,13002 L 13693,13002 13693,13002 C 13844,13053 13962,13078 14046,13075 14241,13075 14405,13000 14536,12852 14657,12716 14717,12561 14715,12387 14745,12099 14568,11882 14187,11736 13992,11660 13788,11623 13576,11623 13369,11623 13023,11637 12540,11663 12536,11663 12533,11663 12529,11665 L 12292,11688 12292,11688 C 12336,11582 12399,11485 12485,11399 L 12487,11397 12487,11397 C 12613,11275 12866,11094 13248,10852 13249,10850 13249,10850 13251,10850 13690,10580 14002,10334 14187,10106 L 14183,10111 14183,10111 C 14346,9919 14467,9707 14547,9473 L 14547,9469 14547,9469 C 14620,9245 14657,9000 14659,8734 14664,8272 14455,7892 14032,7598 13688,7360 13298,7240 12861,7240 12515,7238 12178,7330 11853,7515 11641,7633 11390,7827 11100,8099 10939,8242 10859,8418 10861,8624 10836,9042 11070,9250 11562,9250 11683,9268 11834,9205 12015,9058 L 12015,9058 12016,9056 12469,8704 12469,8704 C 12475,8700 12478,8697 12483,8693 L 12485,8693 12485,8693 C 12603,8621 12728,8586 12861,8584 12956,8587 13053,8619 13154,8681 L 13158,8684 13158,8684 C 13209,8714 13246,8741 13266,8760 Z M 13827,7885 L 13827,7885 C 14144,8106 14302,8388 14302,8732 14301,8959 14269,9168 14206,9358 14141,9550 14043,9725 13911,9882 13743,10083 13459,10307 13060,10552 12640,10815 12362,11014 12229,11150 11983,11406 11860,11715 11866,12080 L 12556,12016 12556,12016 C 13030,11990 13367,11976 13571,11976 13741,11976 13902,12004 14055,12062 14256,12140 14357,12247 14357,12387 14357,12473 14327,12552 14267,12621 14204,12687 14130,12720 14041,12720 13986,12720 13908,12702 13807,12669 13702,12634 13625,12616 13571,12616 13458,12616 13287,12623 13060,12635 12831,12648 12659,12655 12542,12657 12455,12655 12325,12665 12157,12688 11985,12711 11855,12724 11768,12724 11743,12724 11708,12718 11660,12709 11613,12701 11578,12695 11553,12695 11399,12695 11300,12621 11251,12473 11225,12394 11211,12261 11211,12073 11211,11554 11353,11138 11637,10824 11766,10679 12118,10413 12687,10023 13005,9804 13219,9635 13328,9513 13519,9300 13616,9048 13616,8760 13616,8619 13523,8492 13337,8381 13173,8280 13014,8231 12858,8231 12652,8231 12457,8289 12271,8407 L 11791,8783 11791,8783 C 11693,8857 11618,8894 11560,8896 11330,8896 11214,8804 11214,8623 11214,8518 11257,8429 11342,8353 11602,8108 11830,7929 12024,7822 12294,7668 12572,7591 12858,7592 13219,7592 13542,7689 13827,7885 Z"/></g><g style="stroke:none;fill:rgb(255,255,255)"><path d="M 14302,8732 L 14302,8732 C 14302,8388 14144,8106 13827,7885 13542,7689 13219,7592 12858,7592 12572,7591 12294,7668 12024,7822 11830,7929 11602,8108 11342,8353 11257,8429 11214,8518 11214,8623 11214,8804 11330,8896 11560,8896 11618,8894 11693,8857 11791,8783 L 12271,8407 12271,8407 C 12457,8289 12652,8231 12858,8231 13014,8231 13173,8280 13337,8381 13523,8492 13616,8619 13616,8760 13616,9048 13519,9300 13328,9513 13219,9635 13005,9804 12687,10023 12118,10413 11766,10679 11637,10824 11353,11138 11211,11554 11211,12073 11211,12261 11225,12394 11251,12473 11300,12621 11399,12695 11553,12695 11578,12695 11613,12701 11660,12709 11708,12718 11743,12724 11768,12724 11855,12724 11985,12711 12157,12688 12325,12665 12455,12655 12542,12657 12659,12655 12831,12648 13060,12635 13287,12623 13458,12616 13571,12616 13625,12616 13702,12634 13807,12669 13908,12702 13986,12720 14041,12720 14130,12720 14204,12687 14267,12621 14327,12552 14357,12473 14357,12387 14357,12247 14256,12140 14055,12062 13902,12004 13741,11976 13571,11976 13367,11976 13030,11990 12556,12016 L 11866,12080 11866,12080 C 11860,11715 11983,11406 12229,11150 12362,11014 12640,10815 13060,10552 13459,10307 13743,10083 13911,9882 14043,9725 14141,9550 14206,9358 14269,9168 14301,8959 14302,8732 Z"/></g><g style="stroke:none;fill:rgb(0,0,0)"><path d="M 8575,7164 L 8575,7164 C 8322,7150 8057,7277 7782,7543 7573,7721 7411,7848 7297,7928 7292,7931 7285,7935 7278,7940 6962,8185 6820,8406 6854,8598 6853,8780 6921,8942 7062,9081 7197,9215 7357,9282 7543,9282 7589,9291 7654,9279 7740,9243 7729,9422 7715,9619 7695,9840 L 7695,9843 7695,9843 C 7640,10432 7613,10871 7613,11161 7612,11274 7624,11443 7647,11667 7649,11693 7650,11718 7652,11745 7074,11762 6804,11992 6846,12431 6851,12732 6988,12928 7260,13018 7344,13050 7492,13066 7702,13066 L 9033,13071 9033,13071 C 9227,13071 9386,13009 9513,12886 9516,12881 9520,12877 9525,12872 9649,12746 9711,12588 9711,12395 9711,12203 9648,12044 9520,11921 9390,11790 9228,11725 9033,11725 L 9016,11725 9016,11725 C 9012,11685 9009,11644 9005,11600 8989,11427 8980,11281 8980,11161 8980,10919 9007,10554 9058,10069 9113,9549 9139,9159 9139,8898 9139,8822 9136,8705 9130,8548 9130,8547 9130,8545 9130,8543 9122,8402 9116,8298 9116,8231 9118,8187 9123,8125 9132,8044 L 9130,8053 9130,8053 C 9149,7928 9158,7834 9158,7772 9158,7353 8964,7150 8575,7164 Z M 7497,8219 L 7497,8219 C 7617,8134 7789,7998 8011,7813 8208,7614 8394,7515 8574,7515 8723,7515 8797,7600 8797,7771 8797,7822 8790,7899 8777,8002 8765,8102 8758,8178 8758,8229 8758,8302 8762,8413 8770,8563 8776,8711 8779,8822 8779,8896 8779,9148 8753,9526 8700,10028 8647,10531 8619,10909 8619,11159 8619,11288 8628,11445 8647,11630 8664,11813 8675,11963 8677,12082 L 9028,12076 9028,12076 C 9122,12074 9202,12106 9264,12170 9325,12228 9355,12304 9355,12395 9355,12489 9325,12567 9264,12627 9202,12687 9122,12716 9028,12718 L 7697,12713 7697,12713 C 7541,12713 7431,12702 7369,12683 7255,12642 7199,12558 7199,12429 7199,12205 7374,12092 7724,12094 L 8024,12103 8024,12103 C 8024,11997 8015,11840 7997,11630 7977,11420 7966,11263 7966,11159 7965,10875 7992,10446 8043,9873 8091,9305 8114,8875 8112,8582 7814,8813 7624,8928 7541,8928 7452,8928 7376,8894 7310,8829 7241,8760 7207,8684 7207,8598 7207,8494 7303,8367 7497,8219 Z"/></g><g style="stroke:none;fill:rgb(255,255,255)"><path d="M 8011,7813 L 8011,7813 C 7789,7998 7617,8134 7497,8219 7303,8367 7207,8494 7207,8598 7207,8684 7241,8760 7310,8829 7376,8894 7452,8928 7541,8928 7624,8928 7814,8813 8112,8582 8114,8875 8091,9305 8043,9873 7992,10446 7965,10875 7966,11159 7966,11263 7977,11420 7997,11630 8015,11840 8024,11997 8024,12103 L 7724,12094 7724,12094 C 7374,12092 7199,12205 7199,12429 7199,12558 7255,12642 7369,12683 7431,12702 7541,12713 7697,12713 L 9028,12718 9028,12718 C 9122,12716 9202,12687 9264,12627 9325,12567 9355,12489 9355,12395 9355,12304 9325,12228 9264,12170 9202,12106 9122,12074 9028,12076 L 8677,12082 8677,12082 C 8675,11963 8664,11813 8647,11630 8628,11445 8619,11288 8619,11159 8619,10909 8647,10531 8700,10028 8753,9526 8779,9148 8779,8896 8779,8822 8776,8711 8770,8563 8762,8413 8758,8302 8758,8229 8758,8178 8765,8102 8777,8002 8790,7899 8797,7822 8797,7771 8797,7600 8723,7515 8574,7515 8394,7515 8208,7614 8011,7813 Z"/></g><g style="stroke:none;fill:rgb(0,0,0)"><path d="M 5443,8088 L 5443,8086 5443,8086 C 5044,7481 4486,7180 3772,7181 3017,7178 2423,7513 1990,8187 L 1990,8185 1990,8185 C 1642,8720 1468,9344 1468,10062 1468,10891 1600,11563 1862,12080 L 1862,12082 1862,12082 C 2242,12831 2843,13205 3668,13203 4437,13198 5013,12893 5397,12288 5750,11746 5926,10937 5928,9859 5928,9162 5766,8573 5443,8088 Z M 2288,8376 L 2288,8376 C 2652,7813 3145,7532 3772,7532 4359,7532 4818,7781 5147,8279 5431,8711 5573,9236 5573,9857 5573,10852 5413,11600 5095,12099 4778,12598 4302,12847 3668,12847 2989,12847 2492,12538 2178,11921 1942,11445 1823,10826 1823,10062 1823,9418 1977,8855 2288,8376 Z"/></g><g style="stroke:none;fill:rgb(255,255,255)"><path d="M 3772,7532 L 3772,7532 C 3145,7532 2652,7813 2288,8376 1977,8855 1823,9418 1823,10062 1823,10826 1942,11445 2178,11921 2492,12538 2989,12847 3668,12847 4302,12847 4778,12598 5095,12099 5413,11600 5573,10852 5573,9857 5573,9236 5431,8711 5147,8279 4818,7781 4359,7532 3772,7532 Z M 2780,8804 L 2780,8804 C 3022,8383 3352,8173 3770,8175 4146,8175 4430,8324 4621,8626 4808,8926 4902,9377 4902,9981 4902,10554 4831,11027 4688,11401 4481,11939 4142,12209 3668,12209 3269,12209 2971,12025 2772,11656 2572,11291 2472,10741 2474,10009 2474,9557 2576,9155 2780,8804 Z"/></g><g style="stroke:none;fill:rgb(0,0,0)"><path d="M 3770,8175 L 3770,8175 C 3352,8173 3022,8383 2780,8804 2576,9155 2474,9557 2474,10009 2472,10741 2572,11291 2772,11656 2971,12025 3269,12209 3668,12209 4142,12209 4481,11939 4688,11401 4831,11027 4902,10554 4902,9981 4902,9377 4808,8926 4621,8626 4430,8324 4146,8175 3770,8175 Z M 3090,8981 L 3090,8981 C 3259,8686 3486,8536 3772,8527 4014,8524 4200,8621 4323,8817 L 4321,8813 4321,8813 C 4472,9072 4547,9462 4547,9982 4547,10505 4483,10937 4358,11277 L 4359,11277 4359,11277 C 4215,11649 3984,11843 3668,11857 3410,11854 3216,11732 3087,11491 2915,11161 2829,10667 2831,10011 L 2831,10007 2831,10007 C 2825,9624 2913,9282 3088,8984 L 3090,8981 Z"/><path d="M 15775,16789 L 15775,16789 C 15774,16791 15772,16791 15770,16793 15384,17137 15193,17572 15195,18096 L 15195,18100 15195,18100 C 15191,18497 15312,18828 15558,19098 15331,19312 15177,19587 15098,19925 15077,20003 15063,20084 15052,20169 15037,20303 15029,20446 15031,20596 L 15031,20597 15031,20597 C 15033,20694 15040,20786 15052,20876 15063,20948 15077,21017 15098,21084 15191,21423 15388,21695 15688,21899 16027,22144 16478,22268 17036,22268 17617,22268 18093,22127 18460,21845 L 18465,21843 18465,21843 C 18892,21515 19106,21065 19108,20493 19108,20010 19008,19631 18811,19357 L 18810,19357 18810,19357 C 18728,19236 18616,19121 18474,19010 18529,18957 18576,18906 18609,18855 18762,18663 18838,18387 18838,18028 18836,17445 18683,17013 18381,16729 18091,16429 17656,16283 17073,16288 16561,16297 16128,16463 15775,16789 Z M 16007,17049 L 16007,17049 C 16300,16782 16655,16646 17073,16641 18011,16632 18479,17094 18481,18028 18479,18294 18427,18498 18318,18645 18233,18763 18065,18887 17812,19015 18144,19181 18378,19361 18513,19557 18671,19783 18750,20095 18750,20492 18750,20945 18581,21301 18244,21561 17930,21797 17526,21915 17031,21915 16559,21915 16179,21813 15890,21608 15558,21375 15388,21035 15381,20589 15372,19871 15628,19380 16144,19121 15745,18881 15546,18541 15546,18098 15546,17676 15700,17327 16007,17049 Z"/></g><g style="stroke:none;fill:rgb(255,255,255)"><path d="M 17073,16641 L 17073,16641 C 16655,16646 16300,16782 16007,17049 15700,17327 15546,17676 15546,18098 15546,18541 15745,18881 16144,19121 15628,19380 15372,19871 15381,20589 15388,21035 15558,21375 15890,21608 16179,21813 16559,21915 17031,21915 17526,21915 17930,21797 18244,21561 18581,21301 18750,20945 18750,20492 18750,20095 18671,19783 18513,19557 18378,19361 18144,19181 17812,19015 18065,18887 18233,18763 18318,18645 18427,18498 18479,18294 18481,18028 18479,17094 18011,16632 17073,16641 Z M 17623,17389 L 17623,17389 C 17759,17511 17826,17724 17826,18028 17826,18236 17735,18403 17549,18528 17433,18606 17241,18684 16973,18761 16460,18629 16202,18407 16201,18098 16199,17839 16265,17634 16402,17484 16554,17320 16774,17239 17064,17239 17319,17237 17505,17288 17623,17389 Z M 16292,19779 L 16292,19779 C 16411,19659 16646,19516 17001,19352 17317,19449 17551,19560 17702,19682 17931,19860 18044,20095 18046,20386 18044,20684 17983,20908 17856,21054 17700,21238 17426,21329 17031,21331 16801,21329 16595,21280 16416,21183 16167,21045 16037,20837 16029,20560 16018,20224 16105,19962 16292,19779 Z"/></g><g style="stroke:none;fill:rgb(0,0,0)"><path d="M 17826,18028 L 17826,18028 C 17826,17724 17759,17511 17623,17389 17505,17288 17319,17237 17064,17239 16774,17239 16554,17320 16402,17484 16265,17634 16199,17839 16201,18098 16202,18407 16460,18629 16973,18761 17241,18684 17433,18606 17549,18528 17735,18403 17826,18236 17826,18028 Z M 17396,17661 L 17396,17661 C 17449,17736 17475,17858 17475,18028 17472,18114 17431,18183 17354,18237 17352,18237 17352,18237 17351,18239 17268,18289 17142,18341 16973,18396 16726,18320 16588,18218 16557,18093 16555,17939 16592,17816 16666,17724 L 16668,17722 16668,17722 C 16762,17638 16894,17595 17067,17595 17214,17595 17322,17617 17396,17661 Z"/><path d="M 17001,19352 L 17001,19352 C 16646,19516 16411,19659 16292,19779 16105,19962 16018,20224 16029,20560 16037,20837 16167,21045 16416,21183 16595,21280 16801,21329 17031,21331 17426,21329 17700,21238 17856,21054 17983,20908 18044,20684 18046,20386 18044,20095 17931,19860 17702,19682 17551,19560 17317,19449 17001,19352 Z M 17487,19957 L 17487,19957 C 17624,20067 17693,20209 17693,20388 17691,20582 17658,20728 17589,20827 L 17591,20827 17591,20827 C 17480,20927 17296,20978 17036,20980 16870,20982 16722,20947 16593,20874 L 16588,20873 16588,20873 C 16458,20804 16392,20696 16389,20553 L 16389,20548 16389,20548 C 16380,20328 16434,20153 16547,20028 16548,20026 16550,20024 16552,20022 16638,19940 16797,19843 17029,19731 17227,19802 17379,19878 17484,19957 L 17487,19957 Z"/><path d="M 14875,16967 L 14875,16967 C 14882,16906 14882,16849 14875,16798 14836,16535 14601,16403 14165,16403 L 13553,16403 13553,16403 C 13275,16403 12856,16394 12297,16377 11723,16359 11296,16350 11016,16350 10822,16350 10663,16412 10536,16535 10535,16537 10533,16541 10531,16542 10400,16668 10334,16828 10333,17020 L 10333,17026 10333,17026 C 10313,17430 10529,17652 10979,17694 10987,17694 10996,17694 11005,17696 L 12731,17733 12731,17733 C 12496,18082 12263,18506 12036,19003 12034,19006 12034,19010 12032,19014 L 11278,20855 11278,20855 C 11104,21273 11023,21534 11033,21636 11031,21829 11107,21993 11262,22127 L 11251,22118 11251,22118 C 11385,22243 11544,22307 11730,22308 11978,22310 12167,22201 12301,21980 L 12301,21984 12301,21984 C 12412,21804 12529,21536 12655,21181 12799,20774 12889,20522 12930,20428 L 12930,20428 12928,20437 13530,19119 13530,19119 C 13761,18666 14013,18280 14286,17960 L 14592,17608 14592,17608 C 14594,17602 14597,17599 14601,17595 14769,17378 14861,17195 14875,17045 14877,17019 14877,16992 14875,16967 Z M 13549,16756 L 14164,16756 14164,16756 C 14399,16756 14519,16826 14519,16966 14519,17070 14451,17206 14316,17375 L 14013,17729 14013,17729 C 13722,18066 13454,18476 13211,18957 L 12600,20289 12600,20289 C 12559,20388 12466,20645 12318,21061 12203,21389 12096,21635 11995,21799 11931,21903 11841,21954 11725,21954 11635,21954 11557,21922 11491,21860 11422,21799 11386,21723 11386,21636 11386,21553 11458,21337 11601,20987 L 12355,19148 12355,19148 C 12687,18421 13030,17860 13383,17467 L 13383,17467 13445,17396 11007,17343 11007,17343 C 10792,17322 10684,17214 10684,17022 10684,16929 10714,16851 10775,16791 10838,16733 10918,16703 11012,16703 11293,16703 11716,16712 12283,16729 12845,16747 13268,16756 13549,16756 Z"/></g><g style="stroke:none;fill:rgb(255,255,255)"><path d="M 14164,16756 L 13549,16756 13549,16756 C 13268,16756 12845,16747 12283,16729 11716,16712 11293,16703 11012,16703 10918,16703 10838,16733 10775,16791 10714,16851 10684,16929 10684,17022 10684,17214 10792,17322 11007,17343 L 11007,17343 13445,17396 13383,17467 13383,17467 C 13030,17860 12687,18421 12355,19148 L 11601,20987 11601,20987 C 11458,21337 11386,21553 11386,21636 11386,21723 11422,21799 11491,21860 11557,21922 11635,21954 11725,21954 11841,21954 11931,21903 11995,21799 12096,21635 12203,21389 12318,21061 12466,20645 12559,20388 12600,20289 L 13211,18957 13211,18957 C 13454,18476 13722,18066 14013,17729 L 14316,17375 14316,17375 C 14451,17206 14519,17070 14519,16966 14519,16826 14399,16756 14164,16756 Z"/></g><g style="stroke:none;fill:rgb(0,0,0)"><path d="M 4500,16265 L 4500,16265 C 4453,16274 4418,16278 4393,16280 4335,16278 4251,16276 4135,16274 4132,16274 4128,16274 4126,16274 4000,16269 3907,16265 3842,16265 3710,16265 3510,16271 3250,16280 L 3248,16280 3248,16280 C 2994,16288 2802,16292 2674,16292 2636,16292 2577,16288 2501,16283 L 2509,16287 2509,16287 C 2402,16274 2323,16269 2272,16271 1749,16271 1512,16456 1562,16826 1554,16902 1584,17017 1651,17170 1651,17172 1651,17174 1652,17176 1668,17216 1679,17251 1681,17285 1681,17500 1644,17948 1570,18629 L 1570,18631 1570,18631 C 1530,19005 1510,19215 1512,19262 1510,19444 1575,19603 1704,19735 1705,19737 1709,19740 1711,19742 1840,19871 2000,19936 2192,19938 2379,19950 2563,19865 2744,19684 2748,19680 2751,19677 2755,19673 L 3118,19276 3118,19276 C 3202,19195 3283,19137 3361,19102 L 3358,19102 3358,19102 C 3477,19056 3628,19033 3810,19033 3958,19035 4066,19100 4137,19232 L 4137,19230 4137,19230 C 4215,19387 4254,19596 4254,19855 4256,20158 4163,20418 3977,20633 L 3977,20636 3977,20636 C 3794,20848 3562,20954 3283,20954 3118,20954 2987,20926 2892,20867 2888,20866 2885,20862 2883,20860 2843,20830 2781,20763 2697,20659 2696,20657 2694,20656 2692,20654 2527,20460 2350,20370 2160,20384 1977,20382 1817,20446 1679,20578 L 1693,20569 1693,20569 C 1539,20703 1463,20867 1464,21060 1459,21178 1498,21303 1582,21434 1942,22010 2508,22300 3283,22300 3991,22298 4563,22056 4996,21575 L 4997,21573 4997,21573 C 5413,21123 5620,20552 5620,19855 5620,19271 5491,18791 5234,18417 L 5230,18416 5230,18416 C 4902,17932 4428,17689 3810,17687 3517,17687 3255,17721 3020,17789 3026,17733 3033,17682 3039,17636 L 3851,17617 3851,17617 C 3878,17618 3931,17620 4012,17625 4016,17625 4019,17625 4023,17625 4133,17629 4224,17631 4295,17631 5115,17629 5498,17387 5443,16902 5447,16726 5380,16569 5243,16431 5241,16429 5239,16428 5237,16426 5097,16294 4937,16228 4756,16230 4702,16228 4616,16239 4500,16265 Z M 3842,16620 L 3842,16620 C 3903,16618 3995,16620 4117,16625 4240,16631 4330,16632 4393,16632 4433,16632 4495,16623 4577,16608 4657,16590 4716,16581 4756,16581 4843,16581 4920,16613 4989,16678 5055,16743 5088,16817 5088,16902 5088,17151 4823,17276 4295,17276 4226,17276 4137,17274 4033,17269 3928,17264 3864,17262 3842,17264 L 2709,17290 2709,17290 C 2709,17391 2667,17759 2584,18400 2892,18158 3299,18038 3809,18038 4300,18038 4674,18229 4936,18611 5154,18934 5264,19349 5264,19851 5264,20451 5087,20947 4734,21337 4366,21740 3884,21943 3282,21943 2646,21943 2179,21710 1882,21245 1840,21180 1819,21118 1819,21058 1819,20971 1855,20896 1924,20834 1993,20769 2072,20737 2158,20737 2251,20737 2337,20786 2421,20883 2538,21026 2627,21116 2689,21157 2832,21254 3031,21303 3282,21305 3668,21305 3989,21158 4244,20864 4486,20583 4609,20246 4609,19851 4609,19527 4556,19264 4448,19063 4311,18807 4098,18678 3809,18678 3569,18677 3373,18710 3222,18775 3101,18825 2978,18913 2855,19038 L 2492,19435 2492,19435 C 2393,19536 2291,19585 2190,19585 2100,19585 2023,19555 1961,19493 1900,19428 1867,19350 1867,19260 1867,19216 1886,19017 1921,18666 1997,17966 2034,17505 2034,17285 2034,17207 2014,17123 1977,17031 1937,16937 1917,16870 1917,16826 1917,16690 2034,16622 2270,16622 2314,16620 2382,16625 2474,16634 2565,16641 2630,16645 2674,16646 2804,16646 2999,16641 3259,16632 3517,16623 3713,16618 3842,16620 Z"/></g><g style="stroke:none;fill:rgb(255,255,255)"><path d="M 4117,16625 L 4117,16625 C 3995,16620 3903,16618 3842,16620 3713,16618 3517,16623 3259,16632 2999,16641 2804,16646 2674,16646 2630,16645 2565,16641 2474,16634 2382,16625 2314,16620 2270,16622 2034,16622 1917,16690 1917,16826 1917,16870 1937,16937 1977,17031 2014,17123 2034,17207 2034,17285 2034,17505 1997,17966 1921,18666 1886,19017 1867,19216 1867,19260 1867,19350 1900,19428 1961,19493 2023,19555 2100,19585 2190,19585 2291,19585 2393,19536 2492,19435 L 2855,19038 2855,19038 C 2978,18913 3101,18825 3222,18775 3373,18710 3569,18677 3809,18678 4098,18678 4311,18807 4448,19063 4556,19264 4609,19527 4609,19851 4609,20246 4486,20583 4244,20864 3989,21158 3668,21305 3282,21305 3031,21303 2832,21254 2689,21157 2627,21116 2538,21026 2421,20883 2337,20786 2251,20737 2158,20737 2072,20737 1993,20769 1924,20834 1855,20896 1819,20971 1819,21058 1819,21118 1840,21180 1882,21245 2179,21710 2646,21943 3282,21943 3884,21943 4366,21740 4734,21337 5087,20947 5264,20451 5264,19851 5264,19349 5154,18934 4936,18611 4674,18229 4300,18038 3809,18038 3299,18038 2892,18158 2584,18400 2667,17759 2709,17391 2709,17290 L 3842,17264 3842,17264 C 3864,17262 3928,17264 4033,17269 4137,17274 4226,17276 4295,17276 4823,17276 5088,17151 5088,16902 5088,16817 5055,16743 4989,16678 4920,16613 4843,16581 4756,16581 4716,16581 4657,16590 4577,16608 4495,16623 4433,16632 4393,16632 4330,16632 4240,16631 4117,16625 Z"/></g><g style="stroke:none;fill:rgb(0,0,0)"><path d="M 9046,16849 L 9046,16849 C 9042,16668 8967,16511 8824,16382 8691,16255 8533,16191 8350,16191 8206,16163 8010,16269 7757,16511 7755,16512 7755,16514 7754,16516 L 7452,16819 7452,16819 C 6470,17699 5981,18738 5984,19938 5984,20606 6119,21137 6391,21531 L 6387,21527 6387,21527 C 6719,22061 7248,22330 7972,22330 8609,22330 9120,22116 9502,21688 9862,21292 10043,20779 10045,20149 10045,19534 9869,19059 9520,18722 9184,18377 8700,18204 8066,18204 8029,18202 7988,18206 7945,18211 L 8598,17578 8598,17578 C 8941,17241 9090,16997 9046,16849 Z M 8349,16542 L 8349,16542 C 8438,16541 8517,16574 8582,16639 8649,16701 8684,16775 8687,16862 8691,16943 8577,17098 8345,17325 L 7660,17990 7660,17990 C 7480,18172 7324,18447 7195,18816 7390,18728 7560,18663 7704,18620 7850,18576 7970,18553 8064,18555 8586,18553 8988,18692 9265,18971 9544,19248 9685,19641 9685,20149 9685,20680 9534,21114 9232,21449 8918,21800 8496,21975 7968,21975 7385,21975 6957,21762 6682,21337 6453,20989 6340,20522 6340,19938 6340,18839 6788,17886 7685,17080 L 7999,16763 7999,16763 C 8153,16615 8268,16541 8349,16542 Z"/></g><g style="stroke:none;fill:rgb(255,255,255)"><path d="M 8582,16639 L 8582,16639 C 8517,16574 8438,16541 8349,16542 8268,16541 8153,16615 7999,16763 L 7685,17080 7685,17080 C 6788,17886 6340,18839 6340,19938 6340,20522 6453,20989 6682,21337 6957,21762 7385,21975 7968,21975 8496,21975 8918,21800 9232,21449 9534,21114 9685,20680 9685,20149 9685,19641 9544,19248 9265,18971 8988,18692 8586,18553 8064,18555 7970,18553 7850,18576 7704,18620 7560,18663 7390,18728 7195,18816 7324,18447 7480,18172 7660,17990 L 8345,17325 8345,17325 C 8577,17098 8691,16943 8687,16862 8684,16775 8649,16701 8582,16639 Z M 7454,19336 L 7454,19336 C 7604,19268 7775,19234 7968,19234 8326,19234 8591,19312 8767,19467 8942,19617 9030,19844 9032,20149 9032,20516 8946,20811 8774,21033 8588,21275 8327,21395 7988,21395 7627,21395 7364,21234 7195,20913 7062,20661 6994,20336 6994,19938 6994,19825 7002,19710 7014,19592 7248,19447 7395,19363 7454,19336 Z"/></g><g style="stroke:none;fill:rgb(0,0,0)"><path d="M 7968,19234 L 7968,19234 C 7775,19234 7604,19268 7454,19336 7395,19363 7248,19447 7014,19592 7002,19710 6994,19825 6994,19938 6994,20336 7062,20661 7195,20913 7364,21234 7627,21395 7988,21395 8327,21395 8588,21275 8774,21033 8946,20811 9032,20516 9032,20149 9030,19844 8942,19617 8767,19467 8591,19312 8326,19234 7968,19234 Z M 7972,19590 L 7972,19590 C 8219,19590 8407,19638 8536,19731 L 8538,19733 8538,19733 C 8632,19828 8679,19968 8679,20149 8677,20426 8616,20649 8494,20816 L 8492,20821 8492,20821 C 8373,20968 8205,21042 7990,21042 7771,21040 7612,20943 7511,20751 L 7509,20747 7509,20747 C 7404,20539 7351,20269 7351,19938 7351,19894 7353,19848 7357,19802 7482,19726 7564,19678 7604,19661 7713,19613 7836,19590 7972,19590 Z"/></g></g></g></g></svg>