<?xml version="1.0" encoding="UTF-8"?>
<!DOCTYPE svg PUBLIC "-//W3C//DTD SVG 1.1//EN" "http://www.w3.org/Graphics/SVG/1.1/DTD/svg11.dtd"><svg version="1.1" viewBox="0 0 21000 29700" preserveAspectRatio="xMidYMid" fill-rule="evenodd" xmlns="http://www.w3.org/2000/svg" xmlns:xlink="http://www.w3.org/1999/xlink"><g visibility="visible" id="Default"><desc>Master slide</desc><g style="stroke:none;fill:none"><rect x="0" y="0" width="21000" height="29700"/></g></g><g visibility="visible" id="page1"><desc>Slide</desc><g><desc>Graphic</desc><g><g style="stroke:none;fill:rgb(238,17,17)"><path d="M 12718,10850 L 12718,10850 C 12758,11106 12946,11233 13274,11233 13095,11088 12909,10961 12718,10850 Z"/></g><g style="stroke:none;fill:rgb(187,0,0)"><path d="M 13274,11233 L 13274,11233 C 12946,11233 12758,11106 12718,10850 12646,10808 12572,10767 12500,10730 12475,10730 12451,10730 12425,10730 12425,10823 12425,10919 12425,11012 12425,11060 12425,11106 12425,11153 12425,11201 12425,11247 12425,11294 12473,11294 12519,11294 12567,11294 13102,11328 13455,11555 13625,11979 13631,11993 13655,12000 13703,12000 13845,12093 13975,12199 14094,12317 14117,12340 14129,12376 14129,12423 14177,12423 14223,12423 14271,12423 14294,12423 14319,12423 14344,12423 14157,12127 13932,11846 13668,11584 13602,11520 13536,11458 13471,11398 13405,11340 13339,11286 13274,11233 Z"/></g><g style="stroke:none;fill:rgb(238,17,17)"><path d="M 12298,11182 L 12298,11182 C 12335,11162 12377,11153 12425,11153 12425,11106 12425,11060 12425,11012 12425,10919 12425,10823 12425,10730 12451,10730 12475,10730 12500,10730 12435,10696 12368,10666 12303,10637 11738,10386 11123,10261 10456,10263 9731,10261 9068,10407 8466,10702 8446,10711 8429,10721 8409,10730 8423,10730 8438,10730 8450,10730 8450,10778 8452,10823 8457,10871 8506,11204 8408,11393 8167,11436 8167,11483 8168,11529 8174,11577 8221,11958 7934,12240 7314,12423 7266,12423 7221,12423 7173,12423 7173,12471 7161,12508 7137,12536 6952,12771 6727,12968 6462,13129 6462,13081 6462,13035 6462,12988 6462,12894 6462,12799 6462,12705 6441,12705 6420,12707 6401,12713 6394,12725 6387,12737 6381,12750 L 6134,13342 6134,13342 C 6132,13346 6132,13349 6131,13355 6129,13358 6127,13362 6127,13365 6125,13370 6123,13374 6122,13379 6120,13385 6118,13390 6116,13395 6115,13399 6115,13402 6113,13406 6109,13416 6106,13427 6104,13437 5974,13857 5911,14304 5913,14778 5913,15616 6113,16371 6513,17043 10309,19602 13132,18981 14983,15177 14984,15140 14988,15104 14990,15067 14995,14972 14998,14875 14998,14778 14998,14660 14995,14545 14986,14431 14963,14083 14902,13753 14807,13437 14698,13079 14544,12743 14344,12423 14319,12423 14294,12423 14271,12423 14223,12423 14177,12423 14129,12423 14129,12376 14117,12340 14094,12317 13975,12199 13845,12093 13703,12000 13703,12048 13696,12092 13682,12134 13568,12436 13385,12437 13135,12141 13087,12141 13041,12143 12993,12148 12331,12185 11952,11949 11857,11436 L 11857,11436 C 12000,11342 12147,11257 12298,11182 Z"/></g><g style="stroke:none;fill:rgb(244,71,36)"><path d="M 12425,11153 L 12425,11153 C 12377,11153 12335,11162 12298,11182 12147,11257 12000,11342 11857,11436 11952,11949 12331,12185 12993,12148 13041,12143 13087,12141 13135,12141 13135,12093 13123,12058 13100,12035 12981,11917 12851,11811 12709,11718 12661,11718 12623,11730 12588,11753 12314,11931 12165,11825 12142,11436 12235,11436 12321,11416 12397,11379 12416,11370 12425,11342 12425,11294 12425,11247 12425,11201 12425,11153 Z"/></g><g style="stroke:none;fill:rgb(236,106,47)"><path d="M 12688,11584 L 12688,11584 C 12702,11626 12709,11670 12709,11718 12851,11811 12981,11917 13100,12035 13123,12058 13135,12093 13135,12141 13385,12437 13568,12436 13682,12134 13696,12092 13703,12048 13703,12000 13655,12000 13631,11993 13625,11979 13455,11555 13102,11328 12567,11294 12616,11388 12654,11485 12688,11584 Z"/></g><g style="stroke:none;fill:rgb(245,121,55)"><path d="M 12709,11718 L 12709,11718 C 12709,11670 12702,11626 12688,11584 12654,11485 12616,11388 12567,11294 12519,11294 12473,11294 12425,11294 12425,11342 12416,11370 12397,11379 12321,11416 12235,11436 12142,11436 12165,11825 12314,11931 12588,11753 12623,11730 12661,11718 12709,11718 Z"/></g><g style="stroke:none;fill:rgb(159,16,9)"><path d="M 8025,10950 L 8025,10950 C 8009,11007 7964,11037 7895,11039 7844,11074 7791,11111 7740,11150 7740,11152 7740,11152 7740,11153 7732,11309 7826,11379 8025,11365 L 8025,11436 8025,11436 C 8072,11436 8118,11436 8167,11436 8408,11393 8506,11204 8457,10871 8452,10823 8450,10778 8450,10730 8438,10730 8423,10730 8409,10730 8278,10797 8151,10871 8025,10950 Z"/></g><g style="stroke:none;fill:rgb(238,17,17)"><path d="M 7895,11039 L 7895,11039 C 7964,11037 8009,11007 8025,10950 L 7927,11016 7927,11016 C 7914,11023 7904,11030 7893,11039 L 7895,11039 Z"/><path d="M 7735,11153 L 7735,11153 C 7737,11153 7739,11153 7740,11153 7740,11152 7740,11152 7740,11150 7739,11152 7737,11152 7735,11153 Z"/></g><g style="stroke:none;fill:rgb(187,0,0)"><path d="M 7740,11153 L 7740,11153 C 7739,11153 7737,11153 7735,11153 7565,11282 7400,11427 7242,11584 7169,11656 7098,11732 7031,11808 6819,12044 6638,12293 6487,12556 6711,12460 6883,12316 7003,12120 7022,12086 7031,12048 7031,12000 7124,11952 7222,11914 7322,11880 7364,11866 7408,11859 7456,11859 7456,11811 7456,11765 7456,11718 7456,11670 7456,11624 7456,11577 7641,11571 7790,11536 7904,11471 7937,11448 7977,11436 8025,11436 L 8025,11365 8025,11365 C 7826,11379 7732,11309 7740,11153 Z"/></g><g style="stroke:none;fill:rgb(213,103,48)"><path d="M 7421,11965 L 7421,11965 C 7444,11942 7456,11906 7456,11859 7408,11859 7364,11866 7322,11880 7222,11914 7124,11952 7031,12000 7031,12048 7022,12086 7003,12120 6883,12316 6711,12460 6487,12556 6478,12568 6471,12582 6462,12598 6462,12633 6462,12668 6462,12705 6462,12799 6462,12894 6462,12988 6462,13035 6462,13081 6462,13129 6727,12968 6952,12771 7137,12536 7161,12508 7173,12471 7173,12423 7173,12376 7173,12330 7173,12282 7173,12235 7173,12189 7173,12141 7266,12093 7350,12035 7421,11965 Z"/></g><g style="stroke:none;fill:rgb(243,105,49)"><path d="M 7456,11859 L 7456,11859 C 7456,11906 7444,11942 7421,11965 7350,12035 7266,12093 7173,12141 7173,12189 7173,12235 7173,12282 7173,12330 7173,12376 7173,12423 7221,12423 7266,12423 7314,12423 7314,12376 7314,12330 7314,12282 7598,12093 7826,11854 7996,11563 8016,11525 8025,11483 8025,11436 7977,11436 7937,11448 7904,11471 7790,11536 7641,11571 7456,11577 7456,11624 7456,11670 7456,11718 7456,11765 7456,11811 7456,11859 Z"/></g><g style="stroke:none;fill:rgb(79,57,24)"><path d="M 6462,12705 L 6462,12705 C 6462,12668 6462,12633 6462,12598 6441,12635 6420,12674 6401,12713 6420,12707 6441,12705 6462,12705 Z"/></g><g style="stroke:none;fill:rgb(246,60,33)"><path d="M 7314,12282 L 7314,12282 C 7314,12330 7314,12376 7314,12423 7934,12240 8221,11958 8174,11577 8168,11529 8167,11483 8167,11436 8118,11436 8072,11436 8025,11436 8025,11483 8016,11525 7996,11563 7826,11854 7598,12093 7314,12282 Z"/></g><g style="stroke:none;fill:rgb(187,0,0)"><path d="M 6513,17043 L 6513,17043 C 6706,17366 6943,17671 7229,17956 7233,17962 7236,17965 7242,17971 7494,18221 7761,18436 8044,18616 8191,18710 8344,18792 8498,18868 8536,18886 8573,18904 8610,18919 9173,19168 9788,19293 10456,19293 11348,19293 12147,19071 12853,18625 13022,18517 13187,18397 13345,18265 13455,18172 13562,18075 13668,17971 13841,17796 13999,17616 14140,17429 14261,17267 14368,17099 14465,16926 14695,16508 14851,16062 14933,15584 14942,15529 14949,15473 14958,15417 14961,15381 14965,15346 14970,15311 14975,15267 14979,15221 14983,15177 13132,18981 10309,19602 6513,17043 Z"/></g><g style="stroke:none;fill:rgb(234,44,46)"><path d="M 12767,12808 L 12767,12808 C 12718,12808 12672,12808 12625,12808 12530,12808 12435,12808 12341,12808 12321,13068 12357,13262 12447,13394 12470,13427 12483,13466 12483,13514 12530,13514 12576,13514 12625,13514 12625,13466 12625,13420 12625,13373 12625,13279 12625,13184 12625,13090 12672,13090 12708,13078 12731,13055 12754,13032 12767,12997 12767,12949 12767,12902 12767,12856 12767,12808 Z"/></g><g style="stroke:none;fill:rgb(0,0,0)"><path d="M 12625,13514 L 12625,13514 C 12576,13514 12530,13514 12483,13514 12469,13956 12704,14147 13192,14085 13240,14080 13287,14078 13334,14078 13334,14031 13334,13985 13334,13937 13334,13889 13334,13844 13334,13796 L 13334,13725 13334,13725 C 13017,13711 12781,13641 12625,13514 Z"/></g><g style="stroke:none;fill:rgb(255,255,255)"><path d="M 12625,13373 L 12625,13373 C 12625,13420 12625,13466 12625,13514 12781,13641 13017,13711 13334,13725 L 13334,13796 13334,13796 C 13712,13754 13819,13648 13654,13478 13631,13456 13619,13420 13619,13373 13619,13325 13610,13297 13590,13288 13514,13251 13429,13232 13334,13232 13287,13232 13254,13219 13235,13196 13136,13060 12980,12978 12767,12949 12767,12997 12754,13032 12731,13055 12708,13078 12672,13090 12625,13090 12625,13184 12625,13279 12625,13373 Z"/></g><g style="stroke:none;fill:rgb(227,81,82)"><path d="M 13619,13373 L 13619,13373 C 13619,13420 13631,13456 13654,13478 13819,13648 13712,13754 13334,13796 13334,13844 13334,13889 13334,13937 13334,13985 13334,14031 13334,14078 13542,14038 13686,13978 13768,13898 13875,13794 13875,13657 13768,13482 13754,13457 13737,13433 13717,13408 13698,13385 13666,13373 13619,13373 Z"/></g><g style="stroke:none;fill:rgb(198,21,7)"><path d="M 11773,16054 L 11773,16054 C 11914,16054 12056,16054 12199,16054 12246,16054 12293,16054 12341,16054 12341,16006 12328,15976 12305,15962 11907,15689 11398,15532 10778,15489 10778,15537 10792,15572 10815,15595 10838,15618 10873,15630 10921,15630 10969,15678 11020,15715 11077,15743 11115,15763 11157,15771 11205,15771 11531,15687 11696,15780 11702,16054 L 11773,16054 Z"/></g><g style="stroke:none;fill:rgb(193,35,8)"><path d="M 12199,16054 L 12199,16054 C 12056,16054 11914,16054 11773,16054 12079,16223 12353,16422 12589,16653 12612,16676 12625,16712 12625,16759 12672,16759 12718,16759 12767,16759 12767,16712 12769,16666 12774,16618 12830,16223 12687,16034 12341,16054 12293,16054 12246,16054 12199,16054 Z"/></g><g style="stroke:none;fill:rgb(139,60,0)"><path d="M 11773,16054 L 11702,16054 11702,16054 C 11696,15780 11531,15687 11205,15771 11205,15819 11198,15844 11184,15849 10757,16018 10764,16181 11205,16336 11157,16336 11111,16338 11063,16343 10381,16436 9862,16341 9501,16054 9549,16054 9584,16041 9607,16018 9631,15995 9644,15960 9644,15913 9595,15913 9549,15914 9501,15920 9175,15967 8891,16059 8650,16195 8650,16242 8650,16288 8650,16336 8697,16336 8733,16348 8756,16371 8892,16518 9047,16646 9217,16759 L 9288,16759 9288,16759 C 8820,17230 8513,17135 8366,16477 8318,16477 8271,16477 8224,16477 8176,16477 8129,16477 8081,16477 8058,16583 8048,16676 8050,16757 8053,16907 8099,17017 8188,17084 8211,17103 8224,17135 8224,17183 8318,17183 8403,17202 8480,17239 8499,17248 8508,17276 8508,17324 8683,17324 8861,17324 9036,17324 9191,17324 9347,17324 9501,17324 9549,17324 9595,17324 9644,17324 9644,17276 9644,17230 9644,17183 10069,17276 10495,17366 10921,17451 10969,17459 11015,17465 11063,17465 11063,17417 11063,17371 11063,17324 11327,17304 11567,17265 11780,17204 11823,17190 11867,17183 11914,17183 12099,17036 12328,16921 12604,16837 12618,16832 12625,16807 12625,16759 12625,16712 12612,16676 12589,16653 12353,16422 12079,16223 11773,16054 Z M 11347,16689 L 11347,16618 11347,16618 C 12355,16689 12355,16712 11347,16689 Z"/></g><g style="stroke:none;fill:rgb(128,74,0)"><path d="M 11347,16618 L 11347,16689 11347,16689 C 12355,16712 12355,16689 11347,16618 Z"/></g><g style="stroke:none;fill:rgb(160,22,0)"><path d="M 11914,17183 L 11914,17183 C 11867,17183 11823,17190 11780,17204 11567,17265 11327,17304 11063,17324 11063,17371 11063,17417 11063,17465 11205,17465 11340,17486 11468,17528 11482,17534 11489,17558 11489,17606 11702,17583 11837,17486 11893,17317 11907,17274 11914,17230 11914,17183 Z"/></g><g style="stroke:none;fill:rgb(195,2,2)"><path d="M 12767,16759 L 12767,16759 C 12718,16759 12672,16759 12625,16759 12625,16807 12618,16832 12604,16837 12328,16921 12099,17036 11914,17183 11914,17230 11907,17274 11893,17317 11837,17486 11702,17583 11489,17606 11441,17606 11395,17611 11347,17620 10855,17724 10288,17671 9644,17465 9595,17465 9556,17477 9523,17500 9493,17518 9461,17534 9426,17548 9265,17613 9052,17632 8791,17606 8791,17653 8793,17676 8798,17676 9164,17731 9535,17780 9911,17826 10585,17907 11278,17975 11986,18029 11970,18057 11959,18084 11951,18109 11949,18114 11945,18121 11944,18126 12114,18098 12257,18049 12376,17976 L 12695,17941 12695,17941 C 12750,17886 12816,17849 12894,17832 13125,17625 13095,17308 12802,16879 12779,16846 12767,16807 12767,16759 Z M 12071,17542 L 12071,17542 C 12062,17537 12056,17512 12056,17465 12718,17685 12724,17712 12071,17542 Z"/></g><g style="stroke:none;fill:rgb(224,11,12)"><path d="M 12056,17465 L 12056,17465 C 12056,17512 12062,17537 12071,17542 12724,17712 12718,17685 12056,17465 Z"/></g><g style="stroke:none;fill:rgb(167,30,2)"><path d="M 8224,16195 L 8224,16195 C 8224,16242 8215,16272 8195,16287 8048,16376 7939,16498 7871,16655 7837,16729 7814,16810 7797,16900 7797,16948 7797,16994 7797,17041 7797,17089 7811,17124 7833,17147 7856,17170 7892,17183 7939,17183 7988,17183 8034,17183 8081,17183 8129,17183 8176,17183 8224,17183 8224,17135 8211,17103 8188,17084 8099,17017 8053,16907 8050,16757 8048,16676 8058,16583 8081,16477 8129,16477 8176,16477 8224,16477 8271,16477 8318,16477 8366,16477 8366,16429 8366,16384 8366,16336 8413,16336 8459,16336 8508,16336 8555,16336 8601,16336 8650,16336 8650,16288 8650,16242 8650,16195 8601,16195 8555,16195 8508,16195 8413,16195 8318,16195 8224,16195 Z"/></g><g style="stroke:none;fill:rgb(202,4,4)"><path d="M 8195,16287 L 8195,16287 C 8215,16272 8224,16242 8224,16195 8176,16195 8129,16195 8081,16195 7795,16198 7581,16269 7437,16406 7414,16428 7391,16451 7372,16477 7321,16810 7414,16994 7656,17027 7704,17036 7750,17041 7797,17041 7797,16994 7797,16948 7797,16900 7814,16810 7837,16729 7871,16655 7939,16498 8048,16376 8195,16287 Z"/></g><g style="stroke:none;fill:rgb(184,35,6)"><path d="M 8224,16054 L 8224,16054 C 8224,16101 8224,16147 8224,16195 8318,16195 8413,16195 8508,16195 8555,16195 8601,16195 8650,16195 8891,16059 9175,15967 9501,15920 9549,15914 9595,15913 9644,15913 9737,15865 9835,15826 9934,15793 9977,15779 10021,15771 10069,15771 10330,15794 10508,15741 10601,15609 10625,15576 10637,15537 10637,15489 10589,15489 10543,15489 10495,15489 10163,15489 9833,15489 9501,15489 9453,15489 9423,15502 9409,15525 9177,15868 8782,16045 8224,16054 Z"/></g><g style="stroke:none;fill:rgb(125,77,0)"><path d="M 8650,16336 L 8650,16336 C 8601,16336 8555,16336 8508,16336 8459,16336 8413,16336 8366,16336 8366,16384 8366,16429 8366,16477 8513,17135 8820,17230 9288,16759 L 9217,16759 9217,16759 C 9047,16646 8892,16518 8756,16371 8733,16348 8697,16336 8650,16336 Z"/></g><g style="stroke:none;fill:rgb(189,30,7)"><path d="M 8224,17183 L 8224,17183 C 8176,17183 8129,17183 8081,17183 8034,17183 7988,17183 7939,17183 8058,17442 8294,17579 8650,17599 8697,17604 8743,17606 8791,17606 L 8791,17535 8791,17535 C 8592,17549 8499,17479 8508,17324 8508,17276 8499,17248 8480,17239 8403,17202 8318,17183 8224,17183 Z"/></g><g style="stroke:none;fill:rgb(152,60,2)"><path d="M 10778,15489 L 10778,15489 C 10731,15489 10685,15489 10637,15489 10637,15537 10625,15576 10601,15609 10508,15741 10330,15794 10069,15771 10306,16063 10578,16052 10885,15736 10908,15713 10921,15678 10921,15630 10873,15630 10838,15618 10815,15595 10792,15572 10778,15537 10778,15489 Z"/></g><g style="stroke:none;fill:rgb(131,71,0)"><path d="M 9644,15913 L 9644,15913 C 9644,15960 9631,15995 9607,16018 9584,16041 9549,16054 9501,16054 9862,16341 10381,16436 11063,16343 11111,16338 11157,16336 11205,16336 10764,16181 10757,16018 11184,15849 11198,15844 11205,15819 11205,15771 11157,15771 11115,15763 11077,15743 11020,15715 10969,15678 10921,15630 10921,15678 10908,15713 10885,15736 10578,16052 10306,16063 10069,15771 10021,15771 9977,15779 9934,15793 9835,15826 9737,15865 9644,15913 Z"/></g><g style="stroke:none;fill:rgb(174,10,0)"><path d="M 11347,17620 L 11347,17620 C 11395,17611 11441,17606 11489,17606 11489,17558 11482,17534 11468,17528 11340,17486 11205,17465 11063,17465 11015,17465 10969,17459 10921,17451 10495,17366 10069,17276 9644,17183 9644,17230 9644,17276 9644,17324 9644,17371 9644,17417 9644,17465 10288,17671 10855,17724 11347,17620 Z"/></g><g style="stroke:none;fill:rgb(167,20,0)"><path d="M 9644,17465 L 9644,17465 C 9644,17417 9644,17371 9644,17324 9595,17324 9549,17324 9501,17324 9347,17324 9191,17324 9036,17324 8861,17324 8683,17324 8508,17324 8499,17479 8592,17549 8791,17535 L 8791,17606 8791,17606 C 9052,17632 9265,17613 9426,17548 9461,17534 9493,17518 9523,17500 9556,17477 9595,17465 9644,17465 Z"/></g><g style="stroke:none;fill:rgb(226,124,124)"><path d="M 8791,13373 L 8791,13373 C 8791,13325 8804,13286 8827,13253 8983,13036 8924,12888 8650,12808 8601,12808 8555,12808 8508,12808 8508,12856 8513,12900 8522,12942 8573,13149 8522,13246 8366,13232 8366,13279 8366,13325 8366,13373 8413,13373 8459,13373 8508,13373 8555,13373 8601,13373 8650,13373 8697,13373 8743,13373 8791,13373 Z"/></g><g style="stroke:none;fill:rgb(0,0,0)"><path d="M 8863,13373 L 8791,13373 8791,13373 C 8743,13373 8697,13373 8650,13373 8601,13373 8555,13373 8508,13373 8459,13373 8413,13373 8366,13373 8318,13373 8289,13381 8280,13401 8195,13570 8081,13702 7939,13796 7939,13844 7939,13889 7939,13937 7988,13937 8034,13937 8081,13937 8129,13937 8176,13937 8224,13937 8224,13985 8224,14031 8224,14078 8664,14045 8877,13810 8863,13373 Z"/></g><g style="stroke:none;fill:rgb(255,255,255)"><path d="M 8508,12808 L 8508,12808 C 8459,12808 8413,12810 8366,12815 8158,12838 8016,12930 7939,13090 7939,13138 7939,13184 7939,13232 7892,13232 7846,13232 7797,13232 7750,13232 7704,13232 7656,13232 7656,13279 7647,13321 7627,13359 7599,13415 7562,13466 7514,13514 7495,13768 7590,13907 7797,13930 7846,13935 7892,13937 7939,13937 7939,13889 7939,13844 7939,13796 8081,13702 8195,13570 8280,13401 8289,13381 8318,13373 8366,13373 8366,13325 8366,13279 8366,13232 8522,13246 8573,13149 8522,12942 8513,12900 8508,12856 8508,12808 Z"/></g><g style="stroke:none;fill:rgb(205,62,62)"><path d="M 7627,13359 L 7627,13359 C 7647,13321 7656,13279 7656,13232 7607,13232 7562,13232 7514,13232 7514,13279 7502,13314 7478,13337 7455,13360 7419,13373 7372,13373 7372,13514 7372,13655 7372,13796 7372,13844 7372,13889 7372,13937 7495,14098 7732,14149 8081,14092 8129,14083 8176,14078 8224,14078 8224,14031 8224,13985 8224,13937 8176,13937 8129,13937 8081,13937 8034,13937 7988,13937 7939,13937 7892,13937 7846,13935 7797,13930 7590,13907 7495,13768 7514,13514 7562,13466 7599,13415 7627,13359 Z"/></g></g></g></g></svg>