<?xml version="1.0" encoding="UTF-8"?>
<!DOCTYPE svg PUBLIC "-//W3C//DTD SVG 1.1//EN" "http://www.w3.org/Graphics/SVG/1.1/DTD/svg11.dtd"><svg version="1.1" viewBox="0 0 21000 29700" preserveAspectRatio="xMidYMid" fill-rule="evenodd" xmlns="http://www.w3.org/2000/svg" xmlns:xlink="http://www.w3.org/1999/xlink"><g visibility="visible" id="Default"><desc>Master slide</desc><g style="stroke:none;fill:none"><rect x="0" y="0" width="21000" height="29700"/></g></g><g visibility="visible" id="page1"><desc>Slide</desc><g><desc>Graphic</desc><g><g style="stroke:none;fill:rgb(238,17,17)"><path d="M 12718,10850 L 12718,10850 C 12758,11106 12946,11233 13274,11233 13095,11088 12909,10961 12718,10850 Z"/></g><g style="stroke:none;fill:rgb(187,0,0)"><path d="M 13274,11233 L 13274,11233 C 12946,11233 12758,11106 12718,10850 12646,10808 12572,10767 12500,10730 12475,10730 12451,10730 12425,10730 12425,10823 12425,10919 12425,11012 12425,11060 12425,11106 12425,11153 12425,11201 12425,11247 12425,11294 12473,11294 12519,11294 12567,11294 13102,11328 13455,11555 13625,11979 13631,11993 13655,12000 13703,12000 13845,12093 13975,12199 14094,12317 14117,12340 14129,12376 14129,12423 14177,12423 14223,12423 14271,12423 14294,12423 14319,12423 14344,12423 14157,12127 13932,11846 13668,11584 13602,11520 13536,11458 13471,11398 13405,11340 13339,11286 13274,11233 Z"/></g><g style="stroke:none;fill:rgb(238,17,17)"><path d="M 12298,11182 L 12298,11182 C 12335,11162 12377,11153 12425,11153 12425,11106 12425,11060 12425,11012 12425,10919 12425,10823 12425,10730 12451,10730 12475,10730 12500,10730 12435,10696 12368,10666 12303,10637 11738,10386 11123,10261 10456,10263 9731,10261 9068,10407 8466,10702 8446,10711 8429,10721 8409,10730 8423,10730 8438,10730 8450,10730 8450,10778 8452,10823 8457,10871 8506,11204 8408,11393 8167,11436 8167,11483 8168,11529 8174,11577 8221,11958 7934,12240 7314,12423 7266,12423 7221,12423 7173,12423 7173,12471 7161,12508 7137,12536 6952,12771 6727,12968 6462,13129 6462,13081 6462,13035 6462,12988 6462,12894 6462,12799 6462,12705 6441,12705 6420,12707 6401,12713 6394,12725 6387,12737 6381,12750 L 6134,13342 6134,13342 C 6132,13346 6132,13349 6131,13355 6129,13358 6127,13362 6127,13365 6125,13370 6123,13374 6122,13379 6120,13385 6118,13390 6116,13395 6115,13399 6115,13402 6113,13406 6109,13416 6106,13427 6104,13437 5974,13857 5911,14304 5913,14778 5913,15616 6113,16371 6513,17043 10309,19602 13132,18981 14983,15177 14984,15140 14988,15104 14990,15067 14995,14972 14998,14875 14998,14778 14998,14660 14995,14545 14986,14431 14963,14083 14902,13753 14807,13437 14698,13079 14544,12743 14344,12423 14319,12423 14294,12423 14271,12423 14223,12423 14177,12423 14129,12423 14129,12376 14117,12340 14094,12317 13975,12199 13845,12093 13703,12000 13703,12048 13696,12092 13682,12134 13568,12436 13385,12437 13135,12141 13087,12141 13041,12143 12993,12148 12331,12185 11952,11949 11857,11436 L 11857,11436 C 12000,11342 12147,11257 12298,11182 Z"/></g><g style="stroke:none;fill:rgb(244,71,36)"><path d="M 12425,11153 L 12425,11153 C 12377,11153 12335,11162 12298,11182 12147,11257 12000,11342 11857,11436 11952,11949 12331,12185 12993,12148 13041,12143 13087,12141 13135,12141 13135,12093 13123,12058 13100,12035 12981,11917 12851,11811 12709,11718 12661,11718 12623,11730 12588,11753 12314,11931 12165,11825 12142,11436 12235,11436 12321,11416 12397,11379 12416,11370 12425,11342 12425,11294 12425,11247 12425,11201 12425,11153 Z"/></g><g style="stroke:none;fill:rgb(236,106,47)"><path d="M 12688,11584 L 12688,11584 C 12702,11626 12709,11670 12709,11718 12851,11811 12981,11917 13100,12035 13123,12058 13135,12093 13135,12141 13385,12437 13568,12436 13682,12134 13696,12092 13703,12048 13703,12000 13655,12000 13631,11993 13625,11979 13455,11555 13102,11328 12567,11294 12616,11388 12654,11485 12688,11584 Z"/></g><g style="stroke:none;fill:rgb(245,121,55)"><path d="M 12709,11718 L 12709,11718 C 12709,11670 12702,11626 12688,11584 12654,11485 12616,11388 12567,11294 12519,11294 12473,11294 12425,11294 12425,11342 12416,11370 12397,11379 12321,11416 12235,11436 12142,11436 12165,11825 12314,11931 12588,11753 12623,11730 12661,11718 12709,11718 Z"/></g><g style="stroke:none;fill:rgb(159,16,9)"><path d="M 8025,10950 L 8025,10950 C 8009,11007 7964,11037 7895,11039 7844,11074 7791,11111 7740,11150 7740,11152 7740,11152 7740,11153 7732,11309 7826,11379 8025,11365 L 8025,11436 8025,11436 C 8072,11436 8118,11436 8167,11436 8408,11393 8506,11204 8457,10871 8452,10823 8450,10778 8450,10730 8438,10730 8423,10730 8409,10730 8278,10797 8151,10871 8025,10950 Z"/></g><g style="stroke:none;fill:rgb(238,17,17)"><path d="M 7895,11039 L 7895,11039 C 7964,11037 8009,11007 8025,10950 L 7927,11016 7927,11016 C 7914,11023 7904,11030 7893,11039 L 7895,11039 Z"/><path d="M 7735,11153 L 7735,11153 C 7737,11153 7739,11153 7740,11153 7740,11152 7740,11152 7740,11150 7739,11152 7737,11152 7735,11153 Z"/></g><g style="stroke:none;fill:rgb(187,0,0)"><path d="M 7740,11153 L 7740,11153 C 7739,11153 7737,11153 7735,11153 7565,11282 7400,11427 7242,11584 7169,11656 7098,11732 7031,11808 6819,12044 6638,12293 6487,12556 6711,12460 6883,12316 7003,12120 7022,12086 7031,12048 7031,12000 7124,11952 7222,11914 7322,11880 7364,11866 7408,11859 7456,11859 7456,11811 7456,11765 7456,11718 7456,11670 7456,11624 7456,11577 7641,11571 7790,11536 7904,11471 7937,11448 7977,11436 8025,11436 L 8025,11365 8025,11365 C 7826,11379 7732,11309 7740,11153 Z"/></g><g style="stroke:none;fill:rgb(213,103,48)"><path d="M 7421,11965 L 7421,11965 C 7444,11942 7456,11906 7456,11859 7408,11859 7364,11866 7322,11880 7222,11914 7124,11952 7031,12000 7031,12048 7022,12086 7003,12120 6883,12316 6711,12460 6487,12556 6478,12568 6471,12582 6462,12598 6462,12633 6462,12668 6462,12705 6462,12799 6462,12894 6462,12988 6462,13035 6462,13081 6462,13129 6727,12968 6952,12771 7137,12536 7161,12508 7173,12471 7173,12423 7173,12376 7173,12330 7173,12282 7173,12235 7173,12189 7173,12141 7266,12093 7350,12035 7421,11965 Z"/></g><g style="stroke:none;fill:rgb(243,105,49)"><path d="M 7456,11859 L 7456,11859 C 7456,11906 7444,11942 7421,11965 7350,12035 7266,12093 7173,12141 7173,12189 7173,12235 7173,12282 7173,12330 7173,12376 7173,12423 7221,12423 7266,12423 7314,12423 7314,12376 7314,12330 7314,12282 7598,12093 7826,11854 7996,11563 8016,11525 8025,11483 8025,11436 7977,11436 7937,11448 7904,11471 7790,11536 7641,11571 7456,11577 7456,11624 7456,11670 7456,11718 7456,11765 7456,11811 7456,11859 Z"/></g><g style="stroke:none;fill:rgb(79,57,24)"><path d="M 6462,12705 L 6462,12705 C 6462,12668 6462,12633 6462,12598 6441,12635 6420,12674 6401,12713 6420,12707 6441,12705 6462,12705 Z"/></g><g style="stroke:none;fill:rgb(246,60,33)"><path d="M 7314,12282 L 7314,12282 C 7314,12330 7314,12376 7314,12423 7934,12240 8221,11958 8174,11577 8168,11529 8167,11483 8167,11436 8118,11436 8072,11436 8025,11436 8025,11483 8016,11525 7996,11563 7826,11854 7598,12093 7314,12282 Z"/></g><g style="stroke:none;fill:rgb(187,0,0)"><path d="M 6513,17043 L 6513,17043 C 6706,17366 6943,17671 7229,17956 7233,17962 7236,17965 7242,17971 7494,18221 7761,18436 8044,18616 8191,18710 8344,18792 8498,18868 8536,18886 8573,18904 8610,18919 9173,19168 9788,19293 10456,19293 11348,19293 12147,19071 12853,18625 13022,18517 13187,18397 13345,18265 13455,18172 13562,18075 13668,17971 13841,17796 13999,17616 14140,17429 14261,17267 14368,17099 14465,16926 14695,16508 14851,16062 14933,15584 14942,15529 14949,15473 14958,15417 14961,15381 14965,15346 14970,15311 14975,15267 14979,15221 14983,15177 13132,18981 10309,19602 6513,17043 Z"/></g><g style="stroke:none;fill:rgb(180,13,1)"><path d="M 10639,12777 L 10639,12777 C 10590,12777 10552,12764 10518,12741 10239,12553 9948,12565 9645,12777 9645,12824 9638,12849 9623,12854 9453,12902 9319,12969 9219,13059 9219,13106 9219,13152 9219,13200 9219,13248 9219,13293 9219,13341 9981,13285 10832,13237 11775,13200 11823,13200 11868,13200 11916,13200 11916,13152 11907,13124 11888,13115 11287,12810 10871,12697 10639,12777 Z"/></g><g style="stroke:none;fill:rgb(207,8,6)"><path d="M 9623,12854 L 9623,12854 C 9638,12849 9645,12824 9645,12777 9597,12777 9558,12785 9524,12805 9263,12965 8973,13096 8652,13200 8652,13248 8652,13293 8652,13341 8652,13389 8652,13435 8652,13482 8907,13547 9068,13510 9134,13369 9143,13350 9171,13341 9219,13341 9219,13293 9219,13248 9219,13200 9219,13152 9219,13106 9219,13059 9319,12969 9453,12902 9623,12854 Z"/></g><g style="stroke:none;fill:rgb(169,21,1)"><path d="M 9184,13461 L 9184,13461 C 9207,13427 9219,13389 9219,13341 9171,13341 9143,13350 9134,13369 9068,13510 8907,13547 8652,13482 8652,13530 8645,13574 8629,13616 8550,13904 8367,14094 8083,14188 8083,14281 8083,14376 8083,14470 8083,14518 8083,14563 8083,14611 8524,14295 8891,13913 9184,13461 Z"/></g><g style="stroke:none;fill:rgb(136,67,0)"><path d="M 9219,13341 L 9219,13341 C 9219,13389 9207,13427 9184,13461 8891,13913 8524,14295 8083,14611 8083,14659 8071,14694 8048,14717 8025,14740 7990,14752 7941,14752 7941,14800 7934,14844 7920,14886 7835,15168 7700,15407 7516,15599 7516,15646 7516,15692 7516,15740 7677,16008 7812,16292 7920,16594 7934,16636 7941,16680 7941,16728 8131,16962 8332,17186 8545,17398 8568,17421 8603,17433 8652,17433 9035,17664 9354,17954 9609,18301 9633,18335 9645,18373 9645,18421 9693,18421 9739,18421 9786,18421 9835,18421 9881,18421 9929,18421 9929,18373 9929,18327 9929,18280 10587,18384 11117,18253 11519,17892 11547,17869 11584,17856 11633,17856 11633,17809 11633,17763 11633,17715 11837,17089 12267,16629 12924,16333 12962,16313 13004,16304 13052,16304 13052,16257 13052,16211 13052,16163 L 13052,16163 C 13052,15929 13052,15692 13052,15458 13101,15458 13146,15458 13194,15458 13194,15410 13189,15366 13180,15324 12958,14468 12536,13807 11916,13341 11916,13293 11916,13248 11916,13200 11868,13200 11823,13200 11775,13200 10832,13237 9981,13285 9219,13341 Z"/></g><g style="stroke:none;fill:rgb(168,21,0)"><path d="M 12627,13623 L 12627,13623 C 12627,13576 12618,13546 12598,13532 12408,13424 12181,13360 11916,13341 12536,13807 12958,14468 13180,15324 13189,15366 13194,15410 13194,15458 13242,15458 13289,15458 13336,15458 13336,15410 13345,15368 13364,15331 13506,15006 13498,14719 13336,14470 13289,14470 13252,14458 13229,14435 12983,14209 12783,13939 12627,13623 Z"/></g><g style="stroke:none;fill:rgb(202,3,4)"><path d="M 13336,14329 L 13336,14329 C 13336,14376 13336,14422 13336,14470 13498,14719 13506,15006 13364,15331 13345,15368 13336,15410 13336,15458 13384,15458 13424,15449 13457,15429 14133,15034 14094,14667 13336,14329 Z"/></g><g style="stroke:none;fill:rgb(194,10,3)"><path d="M 13336,14470 L 13336,14470 C 13336,14422 13336,14376 13336,14329 13336,14281 13329,14237 13315,14195 13196,13904 12967,13713 12627,13623 12783,13939 12983,14209 13229,14435 13252,14458 13289,14470 13336,14470 Z"/></g><g style="stroke:none;fill:rgb(183,44,8)"><path d="M 7941,14752 L 7941,14752 C 7893,14752 7865,14761 7856,14780 7790,14921 7629,14959 7374,14893 7374,15175 7397,15452 7444,15726 7444,15735 7467,15740 7516,15740 7516,15692 7516,15646 7516,15599 7700,15407 7835,15168 7920,14886 7934,14844 7941,14800 7941,14752 Z"/></g><g style="stroke:none;fill:rgb(190,40,9)"><path d="M 7920,16594 L 7920,16594 C 7812,16292 7677,16008 7516,15740 7516,15788 7503,15823 7479,15846 7457,15869 7421,15881 7374,15881 7402,16281 7549,16553 7814,16699 7851,16719 7893,16728 7941,16728 7941,16680 7934,16636 7920,16594 Z"/></g><g style="stroke:none;fill:rgb(185,43,8)"><path d="M 13336,15458 L 13336,15458 C 13289,15458 13242,15458 13194,15458 13146,15458 13101,15458 13052,15458 13052,15692 13052,15929 13052,16163 13052,16211 13052,16257 13052,16304 13101,16304 13146,16304 13194,16304 13356,16183 13407,15946 13350,15599 13341,15551 13336,15505 13336,15458 Z"/></g><g style="stroke:none;fill:rgb(166,25,0)"><path d="M 13052,16304 L 13052,16304 C 13004,16304 12962,16313 12924,16333 12267,16629 11837,17089 11633,17715 11633,17763 11633,17809 11633,17856 12078,17301 12507,16934 12924,16756 12962,16736 13004,16728 13052,16728 13052,16680 13052,16634 13052,16587 13052,16539 13052,16493 13052,16445 13101,16445 13136,16433 13159,16410 13182,16387 13194,16352 13194,16304 13146,16304 13101,16304 13052,16304 Z"/></g><g style="stroke:none;fill:rgb(168,24,0)"><path d="M 11633,17856 L 11633,17856 C 11584,17856 11547,17869 11519,17892 11117,18253 10587,18384 9929,18280 9929,18327 9929,18373 9929,18421 10701,18638 11256,18490 11597,17976 11620,17943 11633,17904 11633,17856 Z"/></g><g style="stroke:none;fill:rgb(182,36,5)"><path d="M 9609,18301 L 9609,18301 C 9354,17954 9035,17664 8652,17433 8631,17687 8720,17849 8914,17920 8928,17925 8935,17950 8935,17998 9082,18181 9274,18315 9510,18400 9553,18414 9597,18421 9645,18421 9645,18373 9633,18335 9609,18301 Z"/></g><g style="stroke:none;fill:rgb(210,6,6)"><path d="M 8622,11775 L 8622,11775 C 8643,11738 8652,11695 8652,11648 8487,11487 8283,11523 8048,11754 8025,11777 7990,11789 7941,11789 7893,11789 7849,11796 7806,11810 7613,11889 7421,11978 7232,12071 7232,12119 7232,12165 7232,12212 7232,12260 7237,12304 7246,12346 7297,12553 7246,12650 7089,12636 7089,12683 7089,12729 7089,12777 7586,13101 8097,12768 8622,11775 Z"/></g><g style="stroke:none;fill:rgb(206,6,6)"><path d="M 13336,12212 L 13336,12212 C 13289,12212 13257,12200 13236,12177 12987,11858 12641,11634 12200,11507 12153,11507 12107,11507 12058,11507 12058,11554 12058,11600 12058,11648 12058,11695 12046,11731 12023,11754 12000,11777 11965,11789 11916,11789 12044,12038 12221,12242 12449,12403 12472,12417 12484,12447 12484,12494 12939,12560 13243,12789 13400,13179 13405,13193 13431,13200 13478,13200 13847,12861 13810,12563 13364,12304 13345,12290 13336,12260 13336,12212 Z"/></g></g></g></g></svg>