<?xml version="1.0" encoding="UTF-8"?>
<!DOCTYPE svg PUBLIC "-//W3C//DTD SVG 1.1//EN" "http://www.w3.org/Graphics/SVG/1.1/DTD/svg11.dtd"><svg version="1.1" viewBox="0 0 21000 29700" preserveAspectRatio="xMidYMid" fill-rule="evenodd" xmlns="http://www.w3.org/2000/svg" xmlns:xlink="http://www.w3.org/1999/xlink"><g visibility="visible" id="Default"><desc>Master slide</desc><g style="stroke:none;fill:none"><rect x="0" y="0" width="21000" height="29700"/></g></g><g visibility="visible" id="page1"><desc>Slide</desc><g><desc>Graphic</desc><g><g style="stroke:none;fill:rgb(238,17,17)"><path d="M 12718,10850 L 12718,10850 C 12758,11106 12946,11233 13274,11233 13095,11088 12909,10961 12718,10850 Z"/></g><g style="stroke:none;fill:rgb(187,0,0)"><path d="M 13274,11233 L 13274,11233 C 12946,11233 12758,11106 12718,10850 12646,10808 12572,10767 12500,10730 12475,10730 12451,10730 12425,10730 12425,10823 12425,10919 12425,11012 12425,11060 12425,11106 12425,11153 12425,11201 12425,11247 12425,11294 12473,11294 12519,11294 12567,11294 13102,11328 13455,11555 13625,11979 13631,11993 13655,12000 13703,12000 13845,12093 13975,12199 14094,12317 14117,12340 14129,12376 14129,12423 14177,12423 14223,12423 14271,12423 14294,12423 14319,12423 14344,12423 14157,12127 13932,11846 13668,11584 13602,11520 13536,11458 13471,11398 13405,11340 13339,11286 13274,11233 Z"/></g><g style="stroke:none;fill:rgb(238,17,17)"><path d="M 12298,11182 L 12298,11182 C 12335,11162 12377,11153 12425,11153 12425,11106 12425,11060 12425,11012 12425,10919 12425,10823 12425,10730 12451,10730 12475,10730 12500,10730 12435,10696 12368,10666 12303,10637 11738,10386 11123,10261 10456,10263 9731,10261 9068,10407 8466,10702 8446,10711 8429,10721 8409,10730 8423,10730 8438,10730 8450,10730 8450,10778 8452,10823 8457,10871 8506,11204 8408,11393 8167,11436 8167,11483 8168,11529 8174,11577 8221,11958 7934,12240 7314,12423 7266,12423 7221,12423 7173,12423 7173,12471 7161,12508 7137,12536 6952,12771 6727,12968 6462,13129 6462,13081 6462,13035 6462,12988 6462,12894 6462,12799 6462,12705 6441,12705 6420,12707 6401,12713 6394,12725 6387,12737 6381,12750 L 6134,13342 6134,13342 C 6132,13346 6132,13349 6131,13355 6129,13358 6127,13362 6127,13365 6125,13370 6123,13374 6122,13379 6120,13385 6118,13390 6116,13395 6115,13399 6115,13402 6113,13406 6109,13416 6106,13427 6104,13437 5974,13857 5911,14304 5913,14778 5913,15616 6113,16371 6513,17043 10309,19602 13132,18981 14983,15177 14984,15140 14988,15104 14990,15067 14995,14972 14998,14875 14998,14778 14998,14660 14995,14545 14986,14431 14963,14083 14902,13753 14807,13437 14698,13079 14544,12743 14344,12423 14319,12423 14294,12423 14271,12423 14223,12423 14177,12423 14129,12423 14129,12376 14117,12340 14094,12317 13975,12199 13845,12093 13703,12000 13703,12048 13696,12092 13682,12134 13568,12436 13385,12437 13135,12141 13087,12141 13041,12143 12993,12148 12331,12185 11952,11949 11857,11436 L 11857,11436 C 12000,11342 12147,11257 12298,11182 Z"/></g><g style="stroke:none;fill:rgb(244,71,36)"><path d="M 12425,11153 L 12425,11153 C 12377,11153 12335,11162 12298,11182 12147,11257 12000,11342 11857,11436 11952,11949 12331,12185 12993,12148 13041,12143 13087,12141 13135,12141 13135,12093 13123,12058 13100,12035 12981,11917 12851,11811 12709,11718 12661,11718 12623,11730 12588,11753 12314,11931 12165,11825 12142,11436 12235,11436 12321,11416 12397,11379 12416,11370 12425,11342 12425,11294 12425,11247 12425,11201 12425,11153 Z"/></g><g style="stroke:none;fill:rgb(236,106,47)"><path d="M 12688,11584 L 12688,11584 C 12702,11626 12709,11670 12709,11718 12851,11811 12981,11917 13100,12035 13123,12058 13135,12093 13135,12141 13385,12437 13568,12436 13682,12134 13696,12092 13703,12048 13703,12000 13655,12000 13631,11993 13625,11979 13455,11555 13102,11328 12567,11294 12616,11388 12654,11485 12688,11584 Z"/></g><g style="stroke:none;fill:rgb(245,121,55)"><path d="M 12709,11718 L 12709,11718 C 12709,11670 12702,11626 12688,11584 12654,11485 12616,11388 12567,11294 12519,11294 12473,11294 12425,11294 12425,11342 12416,11370 12397,11379 12321,11416 12235,11436 12142,11436 12165,11825 12314,11931 12588,11753 12623,11730 12661,11718 12709,11718 Z"/></g><g style="stroke:none;fill:rgb(159,16,9)"><path d="M 8025,10950 L 8025,10950 C 8009,11007 7964,11037 7895,11039 7844,11074 7791,11111 7740,11150 7740,11152 7740,11152 7740,11153 7732,11309 7826,11379 8025,11365 L 8025,11436 8025,11436 C 8072,11436 8118,11436 8167,11436 8408,11393 8506,11204 8457,10871 8452,10823 8450,10778 8450,10730 8438,10730 8423,10730 8409,10730 8278,10797 8151,10871 8025,10950 Z"/></g><g style="stroke:none;fill:rgb(238,17,17)"><path d="M 7895,11039 L 7895,11039 C 7964,11037 8009,11007 8025,10950 L 7927,11016 7927,11016 C 7914,11023 7904,11030 7893,11039 L 7895,11039 Z"/><path d="M 7735,11153 L 7735,11153 C 7737,11153 7739,11153 7740,11153 7740,11152 7740,11152 7740,11150 7739,11152 7737,11152 7735,11153 Z"/></g><g style="stroke:none;fill:rgb(187,0,0)"><path d="M 7740,11153 L 7740,11153 C 7739,11153 7737,11153 7735,11153 7565,11282 7400,11427 7242,11584 7169,11656 7098,11732 7031,11808 6819,12044 6638,12293 6487,12556 6711,12460 6883,12316 7003,12120 7022,12086 7031,12048 7031,12000 7124,11952 7222,11914 7322,11880 7364,11866 7408,11859 7456,11859 7456,11811 7456,11765 7456,11718 7456,11670 7456,11624 7456,11577 7641,11571 7790,11536 7904,11471 7937,11448 7977,11436 8025,11436 L 8025,11365 8025,11365 C 7826,11379 7732,11309 7740,11153 Z"/></g><g style="stroke:none;fill:rgb(213,103,48)"><path d="M 7421,11965 L 7421,11965 C 7444,11942 7456,11906 7456,11859 7408,11859 7364,11866 7322,11880 7222,11914 7124,11952 7031,12000 7031,12048 7022,12086 7003,12120 6883,12316 6711,12460 6487,12556 6478,12568 6471,12582 6462,12598 6462,12633 6462,12668 6462,12705 6462,12799 6462,12894 6462,12988 6462,13035 6462,13081 6462,13129 6727,12968 6952,12771 7137,12536 7161,12508 7173,12471 7173,12423 7173,12376 7173,12330 7173,12282 7173,12235 7173,12189 7173,12141 7266,12093 7350,12035 7421,11965 Z"/></g><g style="stroke:none;fill:rgb(243,105,49)"><path d="M 7456,11859 L 7456,11859 C 7456,11906 7444,11942 7421,11965 7350,12035 7266,12093 7173,12141 7173,12189 7173,12235 7173,12282 7173,12330 7173,12376 7173,12423 7221,12423 7266,12423 7314,12423 7314,12376 7314,12330 7314,12282 7598,12093 7826,11854 7996,11563 8016,11525 8025,11483 8025,11436 7977,11436 7937,11448 7904,11471 7790,11536 7641,11571 7456,11577 7456,11624 7456,11670 7456,11718 7456,11765 7456,11811 7456,11859 Z"/></g><g style="stroke:none;fill:rgb(79,57,24)"><path d="M 6462,12705 L 6462,12705 C 6462,12668 6462,12633 6462,12598 6441,12635 6420,12674 6401,12713 6420,12707 6441,12705 6462,12705 Z"/></g><g style="stroke:none;fill:rgb(246,60,33)"><path d="M 7314,12282 L 7314,12282 C 7314,12330 7314,12376 7314,12423 7934,12240 8221,11958 8174,11577 8168,11529 8167,11483 8167,11436 8118,11436 8072,11436 8025,11436 8025,11483 8016,11525 7996,11563 7826,11854 7598,12093 7314,12282 Z"/></g><g style="stroke:none;fill:rgb(187,0,0)"><path d="M 6513,17043 L 6513,17043 C 6706,17366 6943,17671 7229,17956 7233,17962 7236,17965 7242,17971 7494,18221 7761,18436 8044,18616 8191,18710 8344,18792 8498,18868 8536,18886 8573,18904 8610,18919 9173,19168 9788,19293 10456,19293 11348,19293 12147,19071 12853,18625 13022,18517 13187,18397 13345,18265 13455,18172 13562,18075 13668,17971 13841,17796 13999,17616 14140,17429 14261,17267 14368,17099 14465,16926 14695,16508 14851,16062 14933,15584 14942,15529 14949,15473 14958,15417 14961,15381 14965,15346 14970,15311 14975,15267 14979,15221 14983,15177 13132,18981 10309,19602 6513,17043 Z"/></g><g style="stroke:none;fill:rgb(233,38,38)"><path d="M 12618,12997 L 12688,12997 12688,12997 C 12688,12949 12688,12903 12688,12856 12641,12856 12598,12865 12560,12884 12409,12960 12262,13045 12121,13138 12069,13471 12163,13655 12404,13688 12453,13697 12499,13702 12546,13702 12546,13655 12541,13630 12532,13625 12390,13597 12348,13482 12404,13279 12560,13293 12632,13200 12618,12997 Z"/></g><g style="stroke:none;fill:rgb(230,94,95)"><path d="M 12688,12997 L 12618,12997 12618,12997 C 12632,13200 12560,13293 12404,13279 12348,13482 12390,13597 12532,13625 12541,13630 12546,13655 12546,13702 12594,13702 12641,13702 12688,13702 12688,13655 12688,13609 12688,13561 12688,13420 12688,13279 12688,13138 12783,13138 12878,13138 12973,13138 13020,13138 13066,13138 13115,13138 13115,13090 13102,13053 13078,13025 12960,12870 12830,12861 12688,12997 Z"/></g><g style="stroke:none;fill:rgb(255,255,255)"><path d="M 12688,13561 L 12688,13561 C 12688,13609 12688,13655 12688,13702 13015,13618 13159,13711 13122,13985 13116,14032 13115,14078 13115,14126 13796,14135 13854,13842 13292,13244 13269,13221 13257,13186 13257,13138 13208,13138 13162,13138 13115,13138 13066,13138 13020,13138 12973,13138 12878,13138 12783,13138 12688,13138 12688,13279 12688,13420 12688,13561 Z"/></g><g style="stroke:none;fill:rgb(0,0,0)"><path d="M 13115,14126 L 13115,14126 C 13115,14078 13116,14032 13122,13985 13159,13711 13015,13618 12688,13702 12688,13750 12676,13785 12653,13808 12630,13831 12594,13844 12546,13844 12509,14121 12653,14219 12980,14140 13022,14131 13066,14126 13115,14126 Z"/></g><g style="stroke:none;fill:rgb(161,58,4)"><path d="M 11837,16384 L 11837,16384 C 11789,16384 11742,16389 11695,16398 10899,16519 10332,16468 9991,16242 9943,16242 9897,16242 9849,16242 9849,16290 9840,16318 9821,16327 9744,16364 9659,16384 9565,16384 9565,16431 9565,16477 9565,16525 9755,16525 9939,16546 10118,16588 10128,16593 10133,16618 10133,16666 10578,16694 11141,16625 11823,16461 11831,16456 11837,16431 11837,16384 Z"/></g><g style="stroke:none;fill:rgb(197,40,11)"><path d="M 11695,16398 L 11695,16398 C 11742,16389 11789,16384 11837,16384 11837,16336 11835,16313 11830,16313 11219,16219 10606,16195 9991,16242 10332,16468 10899,16519 11695,16398 Z"/></g><g style="stroke:none;fill:rgb(155,39,1)"><path d="M 11837,16384 L 11837,16384 C 11837,16431 11831,16456 11823,16461 11141,16625 10578,16694 10133,16666 10133,16713 10128,16736 10118,16736 9537,16854 9068,16830 8713,16666 8921,16590 9159,16546 9423,16532 9471,16526 9517,16525 9565,16525 9565,16477 9565,16431 9565,16384 9659,16384 9744,16364 9821,16327 9840,16318 9849,16290 9849,16242 9802,16242 9755,16244 9707,16249 9442,16264 9205,16308 8998,16384 8949,16384 8903,16385 8855,16391 8648,16414 8506,16505 8429,16666 9537,17197 10674,17299 11844,16969 11886,16955 11930,16948 11979,16948 11979,16900 11991,16869 12014,16849 12176,16727 12163,16572 11979,16384 11930,16384 11884,16384 11837,16384 Z"/></g><g style="stroke:none;fill:rgb(193,7,3)"><path d="M 11979,16948 L 11979,16948 C 11930,16948 11886,16955 11844,16969 10674,17299 9537,17197 8429,16666 8506,16505 8648,16414 8855,16391 8903,16385 8949,16384 8998,16384 8998,16336 8996,16313 8990,16313 8641,16290 8311,16313 8004,16384 8122,16877 8366,17243 8735,17477 8768,17500 8808,17512 8855,17512 9290,17569 9953,17571 10843,17519 10891,17514 10936,17512 10985,17512 10985,17465 10985,17419 10985,17371 11335,17362 11654,17251 11944,17040 11966,17026 11979,16996 11979,16948 Z"/></g><g style="stroke:none;fill:rgb(196,10,4)"><path d="M 12014,16849 L 12014,16849 C 11991,16869 11979,16900 11979,16948 12026,16948 12072,16948 12121,16948 12169,16948 12207,16936 12241,16913 12667,16616 12580,16440 11979,16384 12163,16572 12176,16727 12014,16849 Z"/></g><g style="stroke:none;fill:rgb(210,3,6)"><path d="M 11979,16948 L 11979,16948 C 11979,16996 11966,17026 11944,17040 11654,17251 11335,17362 10985,17371 10985,17419 10985,17465 10985,17512 11524,17687 11893,17541 12092,17075 12112,17038 12121,16996 12121,16948 12072,16948 12026,16948 11979,16948 Z"/></g><g style="stroke:none;fill:rgb(143,62,1)"><path d="M 10118,16736 L 10118,16736 C 10128,16736 10133,16713 10133,16666 10133,16618 10128,16593 10118,16588 9939,16546 9755,16525 9565,16525 9517,16525 9471,16526 9423,16532 9159,16546 8921,16590 8713,16666 9068,16830 9537,16854 10118,16736 Z"/></g><g style="stroke:none;fill:rgb(245,59,59)"><path d="M 8004,12715 L 8004,12715 C 8004,12762 8004,12808 8004,12856 8004,12903 8004,12949 8004,12997 8188,13002 8337,13038 8450,13103 8485,13126 8524,13138 8571,13138 8727,13129 8779,13224 8727,13427 8719,13470 8713,13514 8713,13561 8761,13561 8786,13554 8791,13540 8996,12829 8733,12554 8004,12715 Z"/></g><g style="stroke:none;fill:rgb(235,63,63)"><path d="M 8004,12997 L 8004,12997 C 7955,12997 7930,13004 7925,13018 7788,13380 7484,13561 7010,13561 7075,13824 7223,14004 7449,14098 7488,14117 7530,14126 7577,14126 7577,14078 7572,14055 7563,14055 7421,14022 7379,13905 7435,13702 7577,13609 7725,13524 7876,13448 7913,13429 7955,13420 8004,13420 8004,13373 8004,13327 8004,13279 8004,13186 8004,13090 8004,12997 Z"/></g><g style="stroke:none;fill:rgb(255,255,255)"><path d="M 8004,13420 L 8004,13420 C 7955,13420 7913,13429 7876,13448 7725,13524 7577,13609 7435,13702 7379,13905 7421,14022 7563,14055 7572,14055 7577,14078 7577,14126 7672,14126 7767,14126 7862,14126 7909,14126 7955,14126 8004,14126 8004,14078 8004,14032 8004,13985 8004,13937 8004,13891 8004,13844 8307,13810 8501,13773 8585,13731 8622,13711 8666,13702 8713,13702 8713,13655 8713,13609 8713,13561 8713,13514 8719,13470 8727,13427 8779,13224 8727,13129 8571,13138 8571,13186 8573,13232 8578,13279 8587,13434 8492,13482 8287,13420 8239,13420 8194,13420 8146,13420 8097,13420 8051,13420 8004,13420 Z"/></g><g style="stroke:none;fill:rgb(233,163,163)"><path d="M 8004,12997 L 8004,12997 C 8004,13090 8004,13186 8004,13279 8004,13327 8004,13373 8004,13420 8051,13420 8097,13420 8146,13420 8194,13420 8239,13420 8287,13420 8492,13482 8587,13434 8578,13279 8573,13232 8571,13186 8571,13138 8524,13138 8485,13126 8450,13103 8337,13038 8188,13002 8004,12997 Z"/></g><g style="stroke:none;fill:rgb(0,0,0)"><path d="M 8713,13702 L 8713,13702 C 8666,13702 8622,13711 8585,13731 8501,13773 8307,13810 8004,13844 8004,13891 8004,13937 8004,13985 8004,14032 8004,14078 8004,14126 8382,14403 8614,14309 8699,13844 8708,13796 8713,13750 8713,13702 Z"/></g></g></g></g></svg>