<?xml version="1.0" encoding="UTF-8"?>
<!DOCTYPE svg PUBLIC "-//W3C//DTD SVG 1.1//EN" "http://www.w3.org/Graphics/SVG/1.1/DTD/svg11.dtd"><svg version="1.1" viewBox="0 0 21000 29700" preserveAspectRatio="xMidYMid" fill-rule="evenodd" xmlns="http://www.w3.org/2000/svg" xmlns:xlink="http://www.w3.org/1999/xlink"><g visibility="visible" id="Default"><desc>Master slide</desc><g style="stroke:none;fill:none"><rect x="0" y="0" width="21000" height="29700"/></g></g><g visibility="visible" id="page1"><desc>Slide</desc><g><desc>Graphic</desc><g><g style="stroke:none;fill:rgb(238,17,17)"><path d="M 12718,10850 L 12718,10850 C 12758,11106 12946,11233 13274,11233 13095,11088 12909,10961 12718,10850 Z"/></g><g style="stroke:none;fill:rgb(187,0,0)"><path d="M 13274,11233 L 13274,11233 C 12946,11233 12758,11106 12718,10850 12646,10808 12572,10767 12500,10730 12475,10730 12451,10730 12425,10730 12425,10823 12425,10919 12425,11012 12425,11060 12425,11106 12425,11153 12425,11201 12425,11247 12425,11294 12473,11294 12519,11294 12567,11294 13102,11328 13455,11555 13625,11979 13631,11993 13655,12000 13703,12000 13845,12093 13975,12199 14094,12317 14117,12340 14129,12376 14129,12423 14177,12423 14223,12423 14271,12423 14294,12423 14319,12423 14344,12423 14157,12127 13932,11846 13668,11584 13602,11520 13536,11458 13471,11398 13405,11340 13339,11286 13274,11233 Z"/></g><g style="stroke:none;fill:rgb(238,17,17)"><path d="M 12298,11182 L 12298,11182 C 12335,11162 12377,11153 12425,11153 12425,11106 12425,11060 12425,11012 12425,10919 12425,10823 12425,10730 12451,10730 12475,10730 12500,10730 12435,10696 12368,10666 12303,10637 11738,10386 11123,10261 10456,10263 9731,10261 9068,10407 8466,10702 8446,10711 8429,10721 8409,10730 8423,10730 8438,10730 8450,10730 8450,10778 8452,10823 8457,10871 8506,11204 8408,11393 8167,11436 8167,11483 8168,11529 8174,11577 8221,11958 7934,12240 7314,12423 7266,12423 7221,12423 7173,12423 7173,12471 7161,12508 7137,12536 6952,12771 6727,12968 6462,13129 6462,13081 6462,13035 6462,12988 6462,12894 6462,12799 6462,12705 6441,12705 6420,12707 6401,12713 6394,12725 6387,12737 6381,12750 L 6134,13342 6134,13342 C 6132,13346 6132,13349 6131,13355 6129,13358 6127,13362 6127,13365 6125,13370 6123,13374 6122,13379 6120,13385 6118,13390 6116,13395 6115,13399 6115,13402 6113,13406 6109,13416 6106,13427 6104,13437 5974,13857 5911,14304 5913,14778 5913,15616 6113,16371 6513,17043 10309,19602 13132,18981 14983,15177 14984,15140 14988,15104 14990,15067 14995,14972 14998,14875 14998,14778 14998,14660 14995,14545 14986,14431 14963,14083 14902,13753 14807,13437 14698,13079 14544,12743 14344,12423 14319,12423 14294,12423 14271,12423 14223,12423 14177,12423 14129,12423 14129,12376 14117,12340 14094,12317 13975,12199 13845,12093 13703,12000 13703,12048 13696,12092 13682,12134 13568,12436 13385,12437 13135,12141 13087,12141 13041,12143 12993,12148 12331,12185 11952,11949 11857,11436 L 11857,11436 C 12000,11342 12147,11257 12298,11182 Z"/></g><g style="stroke:none;fill:rgb(244,71,36)"><path d="M 12425,11153 L 12425,11153 C 12377,11153 12335,11162 12298,11182 12147,11257 12000,11342 11857,11436 11952,11949 12331,12185 12993,12148 13041,12143 13087,12141 13135,12141 13135,12093 13123,12058 13100,12035 12981,11917 12851,11811 12709,11718 12661,11718 12623,11730 12588,11753 12314,11931 12165,11825 12142,11436 12235,11436 12321,11416 12397,11379 12416,11370 12425,11342 12425,11294 12425,11247 12425,11201 12425,11153 Z"/></g><g style="stroke:none;fill:rgb(236,106,47)"><path d="M 12688,11584 L 12688,11584 C 12702,11626 12709,11670 12709,11718 12851,11811 12981,11917 13100,12035 13123,12058 13135,12093 13135,12141 13385,12437 13568,12436 13682,12134 13696,12092 13703,12048 13703,12000 13655,12000 13631,11993 13625,11979 13455,11555 13102,11328 12567,11294 12616,11388 12654,11485 12688,11584 Z"/></g><g style="stroke:none;fill:rgb(245,121,55)"><path d="M 12709,11718 L 12709,11718 C 12709,11670 12702,11626 12688,11584 12654,11485 12616,11388 12567,11294 12519,11294 12473,11294 12425,11294 12425,11342 12416,11370 12397,11379 12321,11416 12235,11436 12142,11436 12165,11825 12314,11931 12588,11753 12623,11730 12661,11718 12709,11718 Z"/></g><g style="stroke:none;fill:rgb(159,16,9)"><path d="M 8025,10950 L 8025,10950 C 8009,11007 7964,11037 7895,11039 7844,11074 7791,11111 7740,11150 7740,11152 7740,11152 7740,11153 7732,11309 7826,11379 8025,11365 L 8025,11436 8025,11436 C 8072,11436 8118,11436 8167,11436 8408,11393 8506,11204 8457,10871 8452,10823 8450,10778 8450,10730 8438,10730 8423,10730 8409,10730 8278,10797 8151,10871 8025,10950 Z"/></g><g style="stroke:none;fill:rgb(238,17,17)"><path d="M 7895,11039 L 7895,11039 C 7964,11037 8009,11007 8025,10950 L 7927,11016 7927,11016 C 7914,11023 7904,11030 7893,11039 L 7895,11039 Z"/><path d="M 7735,11153 L 7735,11153 C 7737,11153 7739,11153 7740,11153 7740,11152 7740,11152 7740,11150 7739,11152 7737,11152 7735,11153 Z"/></g><g style="stroke:none;fill:rgb(187,0,0)"><path d="M 7740,11153 L 7740,11153 C 7739,11153 7737,11153 7735,11153 7565,11282 7400,11427 7242,11584 7169,11656 7098,11732 7031,11808 6819,12044 6638,12293 6487,12556 6711,12460 6883,12316 7003,12120 7022,12086 7031,12048 7031,12000 7124,11952 7222,11914 7322,11880 7364,11866 7408,11859 7456,11859 7456,11811 7456,11765 7456,11718 7456,11670 7456,11624 7456,11577 7641,11571 7790,11536 7904,11471 7937,11448 7977,11436 8025,11436 L 8025,11365 8025,11365 C 7826,11379 7732,11309 7740,11153 Z"/></g><g style="stroke:none;fill:rgb(213,103,48)"><path d="M 7421,11965 L 7421,11965 C 7444,11942 7456,11906 7456,11859 7408,11859 7364,11866 7322,11880 7222,11914 7124,11952 7031,12000 7031,12048 7022,12086 7003,12120 6883,12316 6711,12460 6487,12556 6478,12568 6471,12582 6462,12598 6462,12633 6462,12668 6462,12705 6462,12799 6462,12894 6462,12988 6462,13035 6462,13081 6462,13129 6727,12968 6952,12771 7137,12536 7161,12508 7173,12471 7173,12423 7173,12376 7173,12330 7173,12282 7173,12235 7173,12189 7173,12141 7266,12093 7350,12035 7421,11965 Z"/></g><g style="stroke:none;fill:rgb(243,105,49)"><path d="M 7456,11859 L 7456,11859 C 7456,11906 7444,11942 7421,11965 7350,12035 7266,12093 7173,12141 7173,12189 7173,12235 7173,12282 7173,12330 7173,12376 7173,12423 7221,12423 7266,12423 7314,12423 7314,12376 7314,12330 7314,12282 7598,12093 7826,11854 7996,11563 8016,11525 8025,11483 8025,11436 7977,11436 7937,11448 7904,11471 7790,11536 7641,11571 7456,11577 7456,11624 7456,11670 7456,11718 7456,11765 7456,11811 7456,11859 Z"/></g><g style="stroke:none;fill:rgb(79,57,24)"><path d="M 6462,12705 L 6462,12705 C 6462,12668 6462,12633 6462,12598 6441,12635 6420,12674 6401,12713 6420,12707 6441,12705 6462,12705 Z"/></g><g style="stroke:none;fill:rgb(246,60,33)"><path d="M 7314,12282 L 7314,12282 C 7314,12330 7314,12376 7314,12423 7934,12240 8221,11958 8174,11577 8168,11529 8167,11483 8167,11436 8118,11436 8072,11436 8025,11436 8025,11483 8016,11525 7996,11563 7826,11854 7598,12093 7314,12282 Z"/></g><g style="stroke:none;fill:rgb(187,0,0)"><path d="M 6513,17043 L 6513,17043 C 6706,17366 6943,17671 7229,17956 7233,17962 7236,17965 7242,17971 7494,18221 7761,18436 8044,18616 8191,18710 8344,18792 8498,18868 8536,18886 8573,18904 8610,18919 9173,19168 9788,19293 10456,19293 11348,19293 12147,19071 12853,18625 13022,18517 13187,18397 13345,18265 13455,18172 13562,18075 13668,17971 13841,17796 13999,17616 14140,17429 14261,17267 14368,17099 14465,16926 14695,16508 14851,16062 14933,15584 14942,15529 14949,15473 14958,15417 14961,15381 14965,15346 14970,15311 14975,15267 14979,15221 14983,15177 13132,18981 10309,19602 6513,17043 Z"/></g><g style="stroke:none;fill:rgb(255,255,255)"><path d="M 12602,12715 L 12602,12715 C 12553,12715 12507,12715 12460,12715 12460,12808 12460,12903 12460,12997 12460,13045 12460,13090 12460,13138 12695,13321 12876,13270 12999,12983 13018,12946 13027,12903 13027,12856 13027,12808 13027,12762 13027,12715 12980,12715 12934,12715 12885,12715 12792,12715 12695,12715 12602,12715 Z"/></g><g style="stroke:none;fill:rgb(241,43,43)"><path d="M 12460,12715 L 12460,12715 C 12507,12715 12553,12715 12602,12715 12602,12667 12589,12632 12566,12609 12543,12586 12507,12574 12460,12574 12411,12574 12365,12574 12318,12574 12270,12574 12223,12574 12176,12574 12142,12889 12199,13112 12346,13244 12374,13267 12411,13279 12460,13279 12460,13232 12460,13186 12460,13138 12460,13090 12460,13045 12460,12997 12460,12903 12460,12808 12460,12715 Z"/></g><g style="stroke:none;fill:rgb(244,37,28)"><path d="M 12566,12609 L 12566,12609 C 12589,12632 12602,12667 12602,12715 12695,12715 12792,12715 12885,12715 12934,12715 12980,12715 13027,12715 13027,12667 13027,12621 13027,12574 13027,12544 13027,12512 13027,12482 L 13027,12482 12811,12482 12811,12418 12811,12418 C 12741,12470 12625,12475 12460,12433 12460,12480 12460,12526 12460,12574 12507,12574 12543,12586 12566,12609 Z"/></g><g style="stroke:none;fill:rgb(155,111,111)"><path d="M 12460,13138 L 12460,13138 C 12460,13186 12460,13232 12460,13279 12460,13327 12460,13373 12460,13420 12786,13426 13013,13526 13141,13724 13161,13757 13169,13796 13169,13844 13264,13844 13359,13844 13454,13844 13501,13844 13547,13844 13596,13844 13596,13796 13582,13764 13559,13745 13403,13613 13320,13411 13311,13138 L 13240,13138 13240,13138 C 13254,12941 13183,12847 13027,12856 13027,12903 13018,12946 12999,12983 12876,13270 12695,13321 12460,13138 Z"/></g><g style="stroke:none;fill:rgb(0,0,0)"><path d="M 12460,13420 L 12460,13420 C 12411,13420 12365,13420 12318,13420 12284,13934 12523,14083 13034,13872 13077,13852 13122,13844 13169,13844 13169,13796 13161,13757 13141,13724 13013,13526 12786,13426 12460,13420 Z"/></g><g style="stroke:none;fill:rgb(216,71,71)"><path d="M 13311,13138 L 13311,13138 C 13320,13411 13403,13613 13559,13745 13582,13764 13596,13796 13596,13844 13643,13844 13673,13831 13687,13808 13920,13493 13794,13270 13311,13138 Z"/></g><g style="stroke:none;fill:rgb(192,40,9)"><path d="M 11742,16736 L 11742,16736 C 11748,16736 11749,16713 11749,16666 11702,16666 11656,16666 11608,16666 10501,16660 9270,16519 7916,16242 7916,16290 7916,16336 7916,16384 7902,16929 7713,16835 7349,16101 7300,16101 7254,16101 7207,16101 7258,16708 7546,17080 8066,17216 8108,17225 8153,17230 8201,17230 8201,17183 8201,17137 8201,17089 8201,16948 8201,16807 8201,16666 8575,16623 8847,16682 9017,16842 9040,16865 9052,16900 9052,16948 9862,16863 10757,16793 11742,16736 Z"/></g><g style="stroke:none;fill:rgb(137,66,1)"><path d="M 11749,16666 L 11749,16666 C 11749,16713 11748,16736 11742,16736 10757,16793 9862,16863 9052,16948 9005,16948 8960,16941 8917,16927 8818,16893 8720,16854 8626,16807 8561,17061 8598,17221 8740,17287 8759,17295 8768,17324 8768,17371 8958,17419 9110,17500 9230,17618 9253,17641 9288,17653 9336,17653 9913,17592 10576,17569 11324,17583 L 11324,17512 11324,17512 C 11276,17512 11229,17511 11182,17505 11020,17482 10926,17391 10898,17230 11252,16967 11482,17017 11586,17378 11600,17421 11608,17465 11608,17512 11656,17512 11702,17512 11749,17512 11749,17465 11749,17419 11749,17371 12167,17315 12536,17202 12857,17033 12876,17024 12885,16996 12885,16948 12838,16948 12792,16946 12743,16941 12582,16918 12536,16779 12602,16525 12650,16525 12685,16512 12708,16489 12731,16466 12743,16431 12743,16384 12695,16384 12650,16384 12602,16384 12553,16384 12507,16384 12460,16384 12460,16431 12451,16461 12432,16475 12241,16583 12014,16646 11749,16666 Z"/></g><g style="stroke:none;fill:rgb(135,69,1)"><path d="M 12708,16489 L 12708,16489 C 12685,16512 12650,16525 12602,16525 12536,16779 12582,16918 12743,16941 12792,16946 12838,16948 12885,16948 12934,16900 12985,16863 13041,16835 13078,16816 13122,16807 13169,16807 13169,16759 13169,16713 13169,16666 13217,16666 13264,16666 13311,16666 13311,16618 13319,16574 13333,16532 13484,16151 13289,16054 12743,16242 12743,16290 12743,16336 12743,16384 12743,16431 12731,16466 12708,16489 Z"/></g><g style="stroke:none;fill:rgb(191,40,9)"><path d="M 12460,16384 L 12460,16384 C 12507,16384 12553,16384 12602,16384 12650,16384 12695,16384 12743,16384 12743,16336 12743,16290 12743,16242 13289,16054 13484,16151 13333,16532 13319,16574 13311,16618 13311,16666 13405,16713 13503,16752 13603,16786 13645,16800 13689,16807 13737,16807 13737,16759 13737,16713 13737,16666 13785,16666 13821,16653 13844,16630 13867,16608 13879,16572 13879,16525 13831,16525 13803,16516 13794,16496 13496,15867 13050,15782 12460,16242 12460,16290 12460,16336 12460,16384 Z"/></g><g style="stroke:none;fill:rgb(203,29,10)"><path d="M 13041,16835 L 13041,16835 C 12985,16863 12934,16900 12885,16948 12885,16996 12876,17024 12857,17033 12536,17202 12167,17315 11749,17371 11749,17419 11749,17465 11749,17512 11749,17560 11742,17585 11728,17590 10928,17858 10132,17879 9336,17653 9288,17653 9253,17641 9230,17618 9110,17500 8958,17419 8768,17371 8720,17371 8675,17371 8626,17371 8578,17371 8532,17371 8485,17371 9265,17913 10353,18147 11749,18077 11798,18077 11844,18077 11891,18077 11891,18029 11891,17983 11891,17936 11940,17936 11986,17936 12033,17936 12033,17888 12033,17842 12033,17795 12033,17701 12033,17606 12033,17512 12664,17705 13036,17518 13155,16948 13164,16900 13169,16854 13169,16807 13122,16807 13078,16816 13041,16835 Z"/></g><g style="stroke:none;fill:rgb(174,48,6)"><path d="M 7349,15960 L 7349,15960 C 7349,16008 7349,16054 7349,16101 7713,16835 7902,16929 7916,16384 7916,16336 7916,16290 7916,16242 7916,16195 7904,16158 7881,16130 7781,15997 7604,15941 7349,15960 Z"/></g><g style="stroke:none;fill:rgb(160,52,4)"><path d="M 8201,16666 L 8201,16666 C 8201,16807 8201,16948 8201,17089 8201,17137 8201,17183 8201,17230 8248,17278 8299,17315 8357,17343 8394,17362 8436,17371 8485,17371 8532,17371 8578,17371 8626,17371 8675,17371 8720,17371 8768,17371 8768,17324 8759,17295 8740,17287 8598,17221 8561,17061 8626,16807 8720,16854 8818,16893 8917,16927 8960,16941 9005,16948 9052,16948 9052,16900 9040,16865 9017,16842 8847,16682 8575,16623 8201,16666 Z"/></g><g style="stroke:none;fill:rgb(174,51,7)"><path d="M 11324,17512 L 11324,17583 11324,17583 C 10576,17569 9913,17592 9336,17653 10132,17879 10928,17858 11728,17590 11742,17585 11749,17560 11749,17512 11702,17512 11656,17512 11608,17512 11560,17512 11514,17512 11466,17512 11417,17512 11372,17512 11324,17512 Z"/></g><g style="stroke:none;fill:rgb(119,76,0)"><path d="M 11182,17505 L 11182,17505 C 11229,17511 11276,17512 11324,17512 11372,17512 11417,17512 11466,17512 11514,17512 11560,17512 11608,17512 11608,17465 11600,17421 11586,17378 11482,17017 11252,16967 10898,17230 10926,17391 11020,17482 11182,17505 Z"/></g><g style="stroke:none;fill:rgb(255,128,128)"><path d="M 8307,12828 L 8307,12828 C 8330,12799 8343,12762 8343,12715 8343,12667 8336,12642 8322,12637 8194,12595 8058,12574 7916,12574 7916,12621 7904,12657 7881,12679 7858,12702 7823,12715 7774,12715 7774,12762 7774,12808 7774,12856 7774,12903 7774,12949 7774,12997 8030,13020 8208,12963 8307,12828 Z"/></g><g style="stroke:none;fill:rgb(255,255,255)"><path d="M 8343,12715 L 8343,12715 C 8343,12762 8330,12799 8307,12828 8208,12963 8030,13020 7774,12997 7774,13045 7774,13090 7774,13138 8058,13138 8337,13161 8612,13209 8621,13209 8626,13232 8626,13279 8675,13232 8712,13180 8740,13124 8759,13087 8768,13045 8768,12997 8720,12997 8692,12988 8683,12969 8617,12828 8504,12743 8343,12715 Z"/></g><g style="stroke:none;fill:rgb(241,41,41)"><path d="M 8322,12637 L 8322,12637 C 8336,12642 8343,12667 8343,12715 8504,12743 8617,12828 8683,12969 8692,12988 8720,12997 8768,12997 8768,12949 8766,12903 8761,12856 8738,12461 8456,12320 7916,12433 7916,12480 7916,12526 7916,12574 8058,12574 8194,12595 8322,12637 Z"/></g><g style="stroke:none;fill:rgb(213,61,61)"><path d="M 7774,13138 L 7774,13138 C 7774,13090 7774,13045 7774,12997 7774,12949 7774,12903 7774,12856 7727,12856 7688,12868 7654,12891 7540,12956 7391,12992 7207,12997 7065,13697 7299,14004 7909,13914 7915,13914 7916,13891 7916,13844 7916,13796 7916,13750 7916,13702 7869,13702 7823,13702 7774,13702 7727,13702 7681,13702 7632,13702 7585,13702 7539,13701 7491,13695 7330,13673 7283,13533 7349,13279 7442,13232 7540,13193 7639,13159 7683,13145 7727,13138 7774,13138 Z"/></g><g style="stroke:none;fill:rgb(255,255,255)"><path d="M 7788,13272 L 7788,13272 C 7780,13230 7774,13186 7774,13138 7727,13138 7683,13145 7639,13159 7540,13193 7442,13232 7349,13279 7283,13533 7330,13673 7491,13695 7539,13701 7585,13702 7632,13702 7632,13655 7632,13609 7632,13561 7788,13575 7841,13478 7788,13272 Z"/></g><g style="stroke:none;fill:rgb(142,117,117)"><path d="M 7774,13138 L 7774,13138 C 7774,13186 7780,13230 7788,13272 7841,13478 7788,13575 7632,13561 7632,13609 7632,13655 7632,13702 7681,13702 7727,13702 7774,13702 7823,13702 7869,13702 7916,13702 7916,13655 7916,13609 7916,13561 7916,13514 7916,13468 7916,13420 8106,13373 8294,13330 8485,13293 8532,13284 8578,13279 8626,13279 8626,13232 8621,13209 8612,13209 8337,13161 8058,13138 7774,13138 Z"/></g><g style="stroke:none;fill:rgb(0,0,0)"><path d="M 7916,13420 L 7916,13420 C 7916,13468 7916,13514 7916,13561 7916,13609 7916,13655 7916,13702 7916,13750 7916,13796 7916,13844 8178,13725 8401,13574 8591,13385 8614,13362 8626,13327 8626,13279 8578,13279 8532,13284 8485,13293 8294,13330 8106,13373 7916,13420 Z"/></g></g></g></g></svg>