<?xml version="1.0" encoding="UTF-8"?>
<!DOCTYPE svg PUBLIC "-//W3C//DTD SVG 1.1//EN" "http://www.w3.org/Graphics/SVG/1.1/DTD/svg11.dtd"><svg version="1.1" viewBox="0 0 21000 29700" preserveAspectRatio="xMidYMid" fill-rule="evenodd" xmlns="http://www.w3.org/2000/svg" xmlns:xlink="http://www.w3.org/1999/xlink"><g visibility="visible" id="Default"><desc>Master slide</desc><g style="stroke:none;fill:none"><rect x="0" y="0" width="21000" height="29700"/></g></g><g visibility="visible" id="page1"><desc>Slide</desc><g><desc>Graphic</desc><g><g style="stroke:none;fill:rgb(238,17,17)"><path d="M 12718,10850 L 12718,10850 C 12758,11106 12946,11233 13274,11233 13095,11088 12909,10961 12718,10850 Z"/></g><g style="stroke:none;fill:rgb(187,0,0)"><path d="M 13274,11233 L 13274,11233 C 12946,11233 12758,11106 12718,10850 12646,10808 12572,10767 12500,10730 12475,10730 12451,10730 12425,10730 12425,10823 12425,10919 12425,11012 12425,11060 12425,11106 12425,11153 12425,11201 12425,11247 12425,11294 12473,11294 12519,11294 12567,11294 13102,11328 13455,11555 13625,11979 13631,11993 13655,12000 13703,12000 13845,12093 13975,12199 14094,12317 14117,12340 14129,12376 14129,12423 14177,12423 14223,12423 14271,12423 14294,12423 14319,12423 14344,12423 14157,12127 13932,11846 13668,11584 13602,11520 13536,11458 13471,11398 13405,11340 13339,11286 13274,11233 Z"/></g><g style="stroke:none;fill:rgb(238,17,17)"><path d="M 12298,11182 L 12298,11182 C 12335,11162 12377,11153 12425,11153 12425,11106 12425,11060 12425,11012 12425,10919 12425,10823 12425,10730 12451,10730 12475,10730 12500,10730 12435,10696 12368,10666 12303,10637 11738,10386 11123,10261 10456,10263 9731,10261 9068,10407 8466,10702 8446,10711 8429,10721 8409,10730 8423,10730 8438,10730 8450,10730 8450,10778 8452,10823 8457,10871 8506,11204 8408,11393 8167,11436 8167,11483 8168,11529 8174,11577 8221,11958 7934,12240 7314,12423 7266,12423 7221,12423 7173,12423 7173,12471 7161,12508 7137,12536 6952,12771 6727,12968 6462,13129 6462,13081 6462,13035 6462,12988 6462,12894 6462,12799 6462,12705 6441,12705 6420,12707 6401,12713 6394,12725 6387,12737 6381,12750 L 6134,13342 6134,13342 C 6132,13346 6132,13349 6131,13355 6129,13358 6127,13362 6127,13365 6125,13370 6123,13374 6122,13379 6120,13385 6118,13390 6116,13395 6115,13399 6115,13402 6113,13406 6109,13416 6106,13427 6104,13437 5974,13857 5911,14304 5913,14778 5913,15616 6113,16371 6513,17043 10309,19602 13132,18981 14983,15177 14984,15140 14988,15104 14990,15067 14995,14972 14998,14875 14998,14778 14998,14660 14995,14545 14986,14431 14963,14083 14902,13753 14807,13437 14698,13079 14544,12743 14344,12423 14319,12423 14294,12423 14271,12423 14223,12423 14177,12423 14129,12423 14129,12376 14117,12340 14094,12317 13975,12199 13845,12093 13703,12000 13703,12048 13696,12092 13682,12134 13568,12436 13385,12437 13135,12141 13087,12141 13041,12143 12993,12148 12331,12185 11952,11949 11857,11436 L 11857,11436 C 12000,11342 12147,11257 12298,11182 Z"/></g><g style="stroke:none;fill:rgb(244,71,36)"><path d="M 12425,11153 L 12425,11153 C 12377,11153 12335,11162 12298,11182 12147,11257 12000,11342 11857,11436 11952,11949 12331,12185 12993,12148 13041,12143 13087,12141 13135,12141 13135,12093 13123,12058 13100,12035 12981,11917 12851,11811 12709,11718 12661,11718 12623,11730 12588,11753 12314,11931 12165,11825 12142,11436 12235,11436 12321,11416 12397,11379 12416,11370 12425,11342 12425,11294 12425,11247 12425,11201 12425,11153 Z"/></g><g style="stroke:none;fill:rgb(236,106,47)"><path d="M 12688,11584 L 12688,11584 C 12702,11626 12709,11670 12709,11718 12851,11811 12981,11917 13100,12035 13123,12058 13135,12093 13135,12141 13385,12437 13568,12436 13682,12134 13696,12092 13703,12048 13703,12000 13655,12000 13631,11993 13625,11979 13455,11555 13102,11328 12567,11294 12616,11388 12654,11485 12688,11584 Z"/></g><g style="stroke:none;fill:rgb(245,121,55)"><path d="M 12709,11718 L 12709,11718 C 12709,11670 12702,11626 12688,11584 12654,11485 12616,11388 12567,11294 12519,11294 12473,11294 12425,11294 12425,11342 12416,11370 12397,11379 12321,11416 12235,11436 12142,11436 12165,11825 12314,11931 12588,11753 12623,11730 12661,11718 12709,11718 Z"/></g><g style="stroke:none;fill:rgb(159,16,9)"><path d="M 8025,10950 L 8025,10950 C 8009,11007 7964,11037 7895,11039 7844,11074 7791,11111 7740,11150 7740,11152 7740,11152 7740,11153 7732,11309 7826,11379 8025,11365 L 8025,11436 8025,11436 C 8072,11436 8118,11436 8167,11436 8408,11393 8506,11204 8457,10871 8452,10823 8450,10778 8450,10730 8438,10730 8423,10730 8409,10730 8278,10797 8151,10871 8025,10950 Z"/></g><g style="stroke:none;fill:rgb(238,17,17)"><path d="M 7895,11039 L 7895,11039 C 7964,11037 8009,11007 8025,10950 L 7927,11016 7927,11016 C 7914,11023 7904,11030 7893,11039 L 7895,11039 Z"/><path d="M 7735,11153 L 7735,11153 C 7737,11153 7739,11153 7740,11153 7740,11152 7740,11152 7740,11150 7739,11152 7737,11152 7735,11153 Z"/></g><g style="stroke:none;fill:rgb(187,0,0)"><path d="M 7740,11153 L 7740,11153 C 7739,11153 7737,11153 7735,11153 7565,11282 7400,11427 7242,11584 7169,11656 7098,11732 7031,11808 6819,12044 6638,12293 6487,12556 6711,12460 6883,12316 7003,12120 7022,12086 7031,12048 7031,12000 7124,11952 7222,11914 7322,11880 7364,11866 7408,11859 7456,11859 7456,11811 7456,11765 7456,11718 7456,11670 7456,11624 7456,11577 7641,11571 7790,11536 7904,11471 7937,11448 7977,11436 8025,11436 L 8025,11365 8025,11365 C 7826,11379 7732,11309 7740,11153 Z"/></g><g style="stroke:none;fill:rgb(213,103,48)"><path d="M 7421,11965 L 7421,11965 C 7444,11942 7456,11906 7456,11859 7408,11859 7364,11866 7322,11880 7222,11914 7124,11952 7031,12000 7031,12048 7022,12086 7003,12120 6883,12316 6711,12460 6487,12556 6478,12568 6471,12582 6462,12598 6462,12633 6462,12668 6462,12705 6462,12799 6462,12894 6462,12988 6462,13035 6462,13081 6462,13129 6727,12968 6952,12771 7137,12536 7161,12508 7173,12471 7173,12423 7173,12376 7173,12330 7173,12282 7173,12235 7173,12189 7173,12141 7266,12093 7350,12035 7421,11965 Z"/></g><g style="stroke:none;fill:rgb(243,105,49)"><path d="M 7456,11859 L 7456,11859 C 7456,11906 7444,11942 7421,11965 7350,12035 7266,12093 7173,12141 7173,12189 7173,12235 7173,12282 7173,12330 7173,12376 7173,12423 7221,12423 7266,12423 7314,12423 7314,12376 7314,12330 7314,12282 7598,12093 7826,11854 7996,11563 8016,11525 8025,11483 8025,11436 7977,11436 7937,11448 7904,11471 7790,11536 7641,11571 7456,11577 7456,11624 7456,11670 7456,11718 7456,11765 7456,11811 7456,11859 Z"/></g><g style="stroke:none;fill:rgb(79,57,24)"><path d="M 6462,12705 L 6462,12705 C 6462,12668 6462,12633 6462,12598 6441,12635 6420,12674 6401,12713 6420,12707 6441,12705 6462,12705 Z"/></g><g style="stroke:none;fill:rgb(246,60,33)"><path d="M 7314,12282 L 7314,12282 C 7314,12330 7314,12376 7314,12423 7934,12240 8221,11958 8174,11577 8168,11529 8167,11483 8167,11436 8118,11436 8072,11436 8025,11436 8025,11483 8016,11525 7996,11563 7826,11854 7598,12093 7314,12282 Z"/></g><g style="stroke:none;fill:rgb(187,0,0)"><path d="M 6513,17043 L 6513,17043 C 6706,17366 6943,17671 7229,17956 7233,17962 7236,17965 7242,17971 7494,18221 7761,18436 8044,18616 8191,18710 8344,18792 8498,18868 8536,18886 8573,18904 8610,18919 9173,19168 9788,19293 10456,19293 11348,19293 12147,19071 12853,18625 13022,18517 13187,18397 13345,18265 13455,18172 13562,18075 13668,17971 13841,17796 13999,17616 14140,17429 14261,17267 14368,17099 14465,16926 14695,16508 14851,16062 14933,15584 14942,15529 14949,15473 14958,15417 14961,15381 14965,15346 14970,15311 14975,15267 14979,15221 14983,15177 13132,18981 10309,19602 6513,17043 Z"/></g><g style="stroke:none;fill:rgb(206,4,5)"><path d="M 7304,12442 L 7304,12442 C 7248,12470 7196,12507 7148,12554 7148,12602 7148,12648 7148,12696 7204,12757 7253,12817 7297,12875 7655,13353 7627,13763 7219,14107 L 7290,14107 7290,14107 C 7702,14369 7962,14234 8071,13697 8071,13689 8094,13683 8143,13683 8143,13636 8143,13590 8143,13542 8143,13449 8143,13353 8143,13260 8143,13212 8143,13166 8143,13119 8143,13071 8143,13025 8143,12978 8094,12978 8064,12969 8050,12950 7945,12775 7813,12636 7647,12528 7581,12484 7509,12447 7432,12413 7384,12413 7342,12422 7304,12442 Z"/></g><g style="stroke:none;fill:rgb(203,31,10)"><path d="M 8143,13119 L 8143,13119 C 8143,13166 8143,13212 8143,13260 8829,13198 8960,13329 8540,13648 8511,13671 8474,13683 8426,13683 L 8426,13754 8426,13754 C 9212,13415 9116,13156 8143,12978 8143,13025 8143,13071 8143,13119 Z"/></g><g style="stroke:none;fill:rgb(160,42,3)"><path d="M 8426,13683 L 8426,13683 C 8474,13683 8511,13671 8540,13648 8960,13329 8829,13198 8143,13260 8143,13353 8143,13449 8143,13542 8143,13590 8143,13636 8143,13683 8190,13683 8236,13683 8284,13683 8332,13683 8378,13683 8426,13683 Z"/></g><g style="stroke:none;fill:rgb(205,7,5)"><path d="M 12962,13260 L 12962,13260 C 12934,13604 12699,13745 12259,13683 12907,13980 13475,14121 13963,14107 14011,14107 14056,14107 14105,14107 13659,13674 13553,13332 13786,13084 13809,13061 13821,13025 13821,12978 13712,12323 13457,12362 13054,13091 13045,13110 13017,13119 12969,13119 12969,13166 12967,13212 12962,13260 Z"/></g><g style="stroke:none;fill:rgb(166,43,4)"><path d="M 12259,13683 L 12259,13683 C 12699,13745 12934,13604 12962,13260 12967,13212 12969,13166 12969,13119 12969,13071 12964,13047 12955,13041 12585,12951 12353,13025 12259,13260 12259,13353 12259,13449 12259,13542 12259,13590 12259,13636 12259,13683 Z"/></g><g style="stroke:none;fill:rgb(173,49,6)"><path d="M 13231,16230 L 13231,16230 C 13245,16273 13252,16317 13252,16364 13301,16364 13326,16357 13331,16343 13454,16019 13429,15602 13252,15094 13205,15094 13166,15082 13133,15059 12555,14641 11981,14652 11407,15094 11407,15142 11407,15188 11407,15235 11407,15283 11405,15306 11400,15306 10856,15371 10433,15537 10130,15800 10130,15848 10125,15872 10115,15877 9936,15920 9751,15941 9562,15941 9562,15989 9562,16034 9562,16082 9562,16130 9562,16176 9562,16223 10248,16285 10740,16059 11038,15546 11047,15526 11075,15518 11124,15518 11484,15546 11849,15392 12223,15059 12246,15036 12259,15001 12259,14953 12747,15221 13070,15646 13231,16230 Z"/></g><g style="stroke:none;fill:rgb(134,69,0)"><path d="M 13252,16364 L 13252,16364 C 13252,16317 13245,16273 13231,16230 13070,15646 12747,15221 12259,14953 12259,15001 12246,15036 12223,15059 11849,15392 11484,15546 11124,15518 11075,15518 11047,15526 11038,15546 10740,16059 10248,16285 9562,16223 9562,16271 9555,16315 9541,16357 9475,16564 9340,16708 9136,16788 9136,16976 9136,17163 9136,17352 9136,17400 9136,17446 9136,17493 9434,17573 9660,17721 9811,17938 9834,17971 9846,18010 9846,18058 10178,18058 10508,18058 10840,18058 10887,18058 10933,18058 10982,18058 10982,18010 10982,17964 10982,17916 11294,17380 11707,16941 12223,16597 12246,16583 12259,16553 12259,16505 12495,16505 12733,16505 12969,16505 13017,16505 13063,16505 13111,16505 13159,16505 13194,16493 13217,16470 13240,16447 13252,16412 13252,16364 Z"/></g><g style="stroke:none;fill:rgb(202,34,11)"><path d="M 11400,15306 L 11400,15306 C 11405,15306 11407,15283 11407,15235 11359,15235 11314,15235 11265,15235 10717,15207 10337,15348 10130,15659 10130,15706 10130,15752 10130,15800 10433,15537 10856,15371 11400,15306 Z"/></g><g style="stroke:none;fill:rgb(158,43,2)"><path d="M 12699,16675 L 12699,16675 C 12736,16655 12780,16647 12827,16647 12921,16647 13006,16627 13082,16590 13103,16581 13111,16553 13111,16505 13063,16505 13017,16505 12969,16505 12733,16505 12495,16505 12259,16505 12259,16553 12246,16583 12223,16597 11707,16941 11294,17380 10982,17916 10982,17964 10982,18010 10982,18058 11029,18058 11075,18058 11124,18058 11171,18058 11217,18058 11265,18058 11265,18010 11265,17964 11265,17916 11265,17869 11265,17823 11265,17775 11470,17837 11586,17795 11621,17648 11621,17640 11644,17634 11691,17634 11691,17587 11691,17541 11691,17493 11981,17169 12316,16895 12699,16675 Z"/></g><g style="stroke:none;fill:rgb(190,13,3)"><path d="M 12827,16647 L 12827,16647 C 12780,16647 12736,16655 12699,16675 12316,16895 11981,17169 11691,17493 11691,17541 11691,17587 11691,17634 12211,17493 12580,17206 12799,16774 12818,16736 12827,16694 12827,16647 Z"/></g><g style="stroke:none;fill:rgb(158,36,0)"><path d="M 11102,18135 L 11102,18135 C 11117,18130 11124,18105 11124,18058 11075,18058 11029,18058 10982,18058 10933,18058 10887,18058 10840,18058 10508,18058 10178,18058 9846,18058 9846,18105 9837,18133 9818,18142 9741,18179 9656,18199 9562,18199 10030,18382 10543,18361 11102,18135 Z"/></g><g style="stroke:none;fill:rgb(203,34,11)"><path d="M 8710,16647 L 8710,16647 C 8710,16740 8710,16835 8710,16929 8710,16976 8710,17022 8710,17070 8956,16796 9205,16527 9455,16258 9479,16236 9514,16223 9562,16223 9562,16176 9562,16130 9562,16082 9562,16034 9562,15989 9562,15941 9514,15941 9482,15953 9463,15976 9258,16250 9008,16472 8710,16647 Z"/></g><g style="stroke:none;fill:rgb(158,57,4)"><path d="M 9136,17352 L 9136,17352 C 9136,17163 9136,16976 9136,16788 9340,16708 9475,16564 9541,16357 9555,16315 9562,16271 9562,16223 9514,16223 9479,16236 9455,16258 9205,16527 8956,16796 8710,17070 8761,17259 8861,17389 9008,17465 9045,17484 9088,17493 9136,17493 9136,17446 9136,17400 9136,17352 Z"/></g><g style="stroke:none;fill:rgb(169,52,5)"><path d="M 9818,18142 L 9818,18142 C 9837,18133 9846,18105 9846,18058 9846,18010 9834,17971 9811,17938 9660,17721 9434,17573 9136,17493 9084,17827 9172,18036 9398,18121 9413,18126 9420,18151 9420,18199 9468,18199 9514,18199 9562,18199 9656,18199 9741,18179 9818,18142 Z"/></g></g></g></g></svg>