<?xml version="1.0" encoding="UTF-8"?>
<!DOCTYPE svg PUBLIC "-//W3C//DTD SVG 1.1//EN" "http://www.w3.org/Graphics/SVG/1.1/DTD/svg11.dtd"><svg version="1.1" viewBox="0 0 21000 29700" preserveAspectRatio="xMidYMid" fill-rule="evenodd" xmlns="http://www.w3.org/2000/svg" xmlns:xlink="http://www.w3.org/1999/xlink"><g visibility="visible" id="Default"><desc>Master slide</desc><g style="stroke:none;fill:none"><rect x="0" y="0" width="21000" height="29700"/></g></g><g visibility="visible" id="page1"><desc>Slide</desc><g><desc>Graphic</desc><g><g style="stroke:none;fill:rgb(238,17,17)"><path d="M 12718,10850 L 12718,10850 C 12758,11106 12946,11233 13274,11233 13095,11088 12909,10961 12718,10850 Z"/></g><g style="stroke:none;fill:rgb(187,0,0)"><path d="M 13274,11233 L 13274,11233 C 12946,11233 12758,11106 12718,10850 12646,10808 12572,10767 12500,10730 12475,10730 12451,10730 12425,10730 12425,10823 12425,10919 12425,11012 12425,11060 12425,11106 12425,11153 12425,11201 12425,11247 12425,11294 12473,11294 12519,11294 12567,11294 13102,11328 13455,11555 13625,11979 13631,11993 13655,12000 13703,12000 13845,12093 13975,12199 14094,12317 14117,12340 14129,12376 14129,12423 14177,12423 14223,12423 14271,12423 14294,12423 14319,12423 14344,12423 14157,12127 13932,11846 13668,11584 13602,11520 13536,11458 13471,11398 13405,11340 13339,11286 13274,11233 Z"/></g><g style="stroke:none;fill:rgb(238,17,17)"><path d="M 12298,11182 L 12298,11182 C 12335,11162 12377,11153 12425,11153 12425,11106 12425,11060 12425,11012 12425,10919 12425,10823 12425,10730 12451,10730 12475,10730 12500,10730 12435,10696 12368,10666 12303,10637 11738,10386 11123,10261 10456,10263 9731,10261 9068,10407 8466,10702 8446,10711 8429,10721 8409,10730 8423,10730 8438,10730 8450,10730 8450,10778 8452,10823 8457,10871 8506,11204 8408,11393 8167,11436 8167,11483 8168,11529 8174,11577 8221,11958 7934,12240 7314,12423 7266,12423 7221,12423 7173,12423 7173,12471 7161,12508 7137,12536 6952,12771 6727,12968 6462,13129 6462,13081 6462,13035 6462,12988 6462,12894 6462,12799 6462,12705 6441,12705 6420,12707 6401,12713 6394,12725 6387,12737 6381,12750 L 6134,13342 6134,13342 C 6132,13346 6132,13349 6131,13355 6129,13358 6127,13362 6127,13365 6125,13370 6123,13374 6122,13379 6120,13385 6118,13390 6116,13395 6115,13399 6115,13402 6113,13406 6109,13416 6106,13427 6104,13437 5974,13857 5911,14304 5913,14778 5913,15616 6113,16371 6513,17043 10309,19602 13132,18981 14983,15177 14984,15140 14988,15104 14990,15067 14995,14972 14998,14875 14998,14778 14998,14660 14995,14545 14986,14431 14963,14083 14902,13753 14807,13437 14698,13079 14544,12743 14344,12423 14319,12423 14294,12423 14271,12423 14223,12423 14177,12423 14129,12423 14129,12376 14117,12340 14094,12317 13975,12199 13845,12093 13703,12000 13703,12048 13696,12092 13682,12134 13568,12436 13385,12437 13135,12141 13087,12141 13041,12143 12993,12148 12331,12185 11952,11949 11857,11436 L 11857,11436 C 12000,11342 12147,11257 12298,11182 Z"/></g><g style="stroke:none;fill:rgb(244,71,36)"><path d="M 12425,11153 L 12425,11153 C 12377,11153 12335,11162 12298,11182 12147,11257 12000,11342 11857,11436 11952,11949 12331,12185 12993,12148 13041,12143 13087,12141 13135,12141 13135,12093 13123,12058 13100,12035 12981,11917 12851,11811 12709,11718 12661,11718 12623,11730 12588,11753 12314,11931 12165,11825 12142,11436 12235,11436 12321,11416 12397,11379 12416,11370 12425,11342 12425,11294 12425,11247 12425,11201 12425,11153 Z"/></g><g style="stroke:none;fill:rgb(236,106,47)"><path d="M 12688,11584 L 12688,11584 C 12702,11626 12709,11670 12709,11718 12851,11811 12981,11917 13100,12035 13123,12058 13135,12093 13135,12141 13385,12437 13568,12436 13682,12134 13696,12092 13703,12048 13703,12000 13655,12000 13631,11993 13625,11979 13455,11555 13102,11328 12567,11294 12616,11388 12654,11485 12688,11584 Z"/></g><g style="stroke:none;fill:rgb(245,121,55)"><path d="M 12709,11718 L 12709,11718 C 12709,11670 12702,11626 12688,11584 12654,11485 12616,11388 12567,11294 12519,11294 12473,11294 12425,11294 12425,11342 12416,11370 12397,11379 12321,11416 12235,11436 12142,11436 12165,11825 12314,11931 12588,11753 12623,11730 12661,11718 12709,11718 Z"/></g><g style="stroke:none;fill:rgb(159,16,9)"><path d="M 8025,10950 L 8025,10950 C 8009,11007 7964,11037 7895,11039 7844,11074 7791,11111 7740,11150 7740,11152 7740,11152 7740,11153 7732,11309 7826,11379 8025,11365 L 8025,11436 8025,11436 C 8072,11436 8118,11436 8167,11436 8408,11393 8506,11204 8457,10871 8452,10823 8450,10778 8450,10730 8438,10730 8423,10730 8409,10730 8278,10797 8151,10871 8025,10950 Z"/></g><g style="stroke:none;fill:rgb(238,17,17)"><path d="M 7895,11039 L 7895,11039 C 7964,11037 8009,11007 8025,10950 L 7927,11016 7927,11016 C 7914,11023 7904,11030 7893,11039 L 7895,11039 Z"/><path d="M 7735,11153 L 7735,11153 C 7737,11153 7739,11153 7740,11153 7740,11152 7740,11152 7740,11150 7739,11152 7737,11152 7735,11153 Z"/></g><g style="stroke:none;fill:rgb(187,0,0)"><path d="M 7740,11153 L 7740,11153 C 7739,11153 7737,11153 7735,11153 7565,11282 7400,11427 7242,11584 7169,11656 7098,11732 7031,11808 6819,12044 6638,12293 6487,12556 6711,12460 6883,12316 7003,12120 7022,12086 7031,12048 7031,12000 7124,11952 7222,11914 7322,11880 7364,11866 7408,11859 7456,11859 7456,11811 7456,11765 7456,11718 7456,11670 7456,11624 7456,11577 7641,11571 7790,11536 7904,11471 7937,11448 7977,11436 8025,11436 L 8025,11365 8025,11365 C 7826,11379 7732,11309 7740,11153 Z"/></g><g style="stroke:none;fill:rgb(213,103,48)"><path d="M 7421,11965 L 7421,11965 C 7444,11942 7456,11906 7456,11859 7408,11859 7364,11866 7322,11880 7222,11914 7124,11952 7031,12000 7031,12048 7022,12086 7003,12120 6883,12316 6711,12460 6487,12556 6478,12568 6471,12582 6462,12598 6462,12633 6462,12668 6462,12705 6462,12799 6462,12894 6462,12988 6462,13035 6462,13081 6462,13129 6727,12968 6952,12771 7137,12536 7161,12508 7173,12471 7173,12423 7173,12376 7173,12330 7173,12282 7173,12235 7173,12189 7173,12141 7266,12093 7350,12035 7421,11965 Z"/></g><g style="stroke:none;fill:rgb(243,105,49)"><path d="M 7456,11859 L 7456,11859 C 7456,11906 7444,11942 7421,11965 7350,12035 7266,12093 7173,12141 7173,12189 7173,12235 7173,12282 7173,12330 7173,12376 7173,12423 7221,12423 7266,12423 7314,12423 7314,12376 7314,12330 7314,12282 7598,12093 7826,11854 7996,11563 8016,11525 8025,11483 8025,11436 7977,11436 7937,11448 7904,11471 7790,11536 7641,11571 7456,11577 7456,11624 7456,11670 7456,11718 7456,11765 7456,11811 7456,11859 Z"/></g><g style="stroke:none;fill:rgb(79,57,24)"><path d="M 6462,12705 L 6462,12705 C 6462,12668 6462,12633 6462,12598 6441,12635 6420,12674 6401,12713 6420,12707 6441,12705 6462,12705 Z"/></g><g style="stroke:none;fill:rgb(246,60,33)"><path d="M 7314,12282 L 7314,12282 C 7314,12330 7314,12376 7314,12423 7934,12240 8221,11958 8174,11577 8168,11529 8167,11483 8167,11436 8118,11436 8072,11436 8025,11436 8025,11483 8016,11525 7996,11563 7826,11854 7598,12093 7314,12282 Z"/></g><g style="stroke:none;fill:rgb(187,0,0)"><path d="M 6513,17043 L 6513,17043 C 6706,17366 6943,17671 7229,17956 7233,17962 7236,17965 7242,17971 7494,18221 7761,18436 8044,18616 8191,18710 8344,18792 8498,18868 8536,18886 8573,18904 8610,18919 9173,19168 9788,19293 10456,19293 11348,19293 12147,19071 12853,18625 13022,18517 13187,18397 13345,18265 13455,18172 13562,18075 13668,17971 13841,17796 13999,17616 14140,17429 14261,17267 14368,17099 14465,16926 14695,16508 14851,16062 14933,15584 14942,15529 14949,15473 14958,15417 14961,15381 14965,15346 14970,15311 14975,15267 14979,15221 14983,15177 13132,18981 10309,19602 6513,17043 Z"/></g><g style="stroke:none;fill:rgb(241,55,55)"><path d="M 12739,12785 L 12739,12785 C 12739,12738 12739,12692 12739,12644 12882,12644 13024,12644 13166,12644 13213,12644 13260,12644 13308,12644 13308,12597 13303,12572 13294,12567 12739,12434 12365,12508 12172,12785 12110,13034 12206,13152 12456,13138 L 12456,13209 12456,13209 C 12504,13209 12550,13209 12598,13209 12598,13161 12598,13115 12598,13068 12598,13020 12598,12974 12598,12926 12646,12926 12681,12914 12704,12891 12727,12868 12739,12833 12739,12785 Z"/></g><g style="stroke:none;fill:rgb(247,109,109)"><path d="M 12739,12644 L 12739,12644 C 12739,12692 12739,12738 12739,12785 13157,12935 13434,13221 13570,13639 13584,13681 13592,13725 13592,13773 13640,13773 13686,13773 13733,13773 13782,13773 13828,13773 13875,13773 13875,13725 13867,13683 13847,13646 13672,13313 13492,12978 13308,12644 13260,12644 13213,12644 13166,12644 13024,12644 12882,12644 12739,12644 Z"/></g><g style="stroke:none;fill:rgb(255,255,255)"><path d="M 12704,12891 L 12704,12891 C 12681,12914 12646,12926 12598,12926 12598,12974 12598,13020 12598,13068 12598,13115 12598,13161 12598,13209 12924,13260 13111,13448 13159,13773 13164,13821 13166,13867 13166,13914 13308,13914 13443,13893 13570,13851 13584,13845 13592,13821 13592,13773 13592,13725 13584,13681 13570,13639 13434,13221 13157,12935 12739,12785 12739,12833 12727,12868 12704,12891 Z"/></g><g style="stroke:none;fill:rgb(0,0,0)"><path d="M 12598,13209 L 12598,13209 C 12550,13209 12504,13209 12456,13209 12504,13256 12541,13307 12569,13364 12589,13401 12598,13443 12598,13491 12598,13538 12585,13574 12562,13597 12539,13620 12504,13632 12456,13632 12433,13937 12574,14082 12882,14062 12930,14057 12976,14055 13024,14055 13071,14055 13108,14043 13131,14020 13153,13997 13166,13962 13166,13914 13166,13867 13164,13821 13159,13773 13111,13448 12924,13260 12598,13209 Z"/></g><g style="stroke:none;fill:rgb(237,54,54)"><path d="M 13166,13914 L 13166,13914 C 13166,13962 13153,13997 13131,14020 13108,14043 13071,14055 13024,14055 13478,14408 13757,14359 13861,13907 13870,13865 13875,13821 13875,13773 13828,13773 13782,13773 13733,13773 13686,13773 13640,13773 13592,13773 13592,13821 13584,13845 13570,13851 13443,13893 13308,13914 13166,13914 Z"/></g><g style="stroke:none;fill:rgb(188,2,2)"><path d="M 12846,16419 L 12846,16419 C 12823,16442 12788,16454 12739,16454 12655,16821 12797,16967 13166,16892 13213,16883 13260,16877 13308,16877 13356,16877 13391,16865 13414,16842 13845,16376 13668,16152 12882,16172 12882,16219 12882,16265 12882,16313 12882,16361 12869,16396 12846,16419 Z"/></g><g style="stroke:none;fill:rgb(192,5,2)"><path d="M 12739,16454 L 12739,16454 C 12788,16454 12823,16442 12846,16419 12869,16396 12882,16361 12882,16313 12834,16313 12797,16325 12769,16348 12569,16523 12323,16652 12030,16736 12167,16877 12179,17026 12065,17181 12042,17214 12030,17253 12030,17301 12267,17202 12550,17154 12882,17160 12930,17160 12976,17160 13024,17160 13118,17112 13201,17054 13273,16983 13296,16960 13308,16925 13308,16877 13260,16877 13213,16883 13166,16892 12797,16967 12655,16821 12739,16454 Z"/></g><g style="stroke:none;fill:rgb(161,28,0)"><path d="M 12065,17181 L 12065,17181 C 12179,17026 12167,16877 12030,16736 11982,16736 11936,16736 11888,16736 11794,16736 11698,16736 11604,16736 11604,16784 11610,16830 11619,16877 11703,17253 11178,17394 10042,17301 10137,17394 10239,17477 10348,17548 10381,17571 10420,17583 10469,17583 10469,17535 10469,17489 10469,17442 10966,17377 11349,17414 11619,17555 11656,17574 11698,17583 11746,17583 11840,17535 11923,17477 11995,17407 12018,17384 12030,17348 12030,17301 12030,17253 12042,17214 12065,17181 Z"/></g><g style="stroke:none;fill:rgb(147,55,1)"><path d="M 10042,16595 L 10042,16595 C 10042,16643 10034,16673 10014,16687 9802,16814 9526,16877 9191,16877 9238,17066 9305,17244 9389,17414 9398,17433 9426,17442 9475,17442 9730,17507 9892,17470 9958,17329 9967,17310 9995,17301 10042,17301 11178,17394 11703,17253 11619,16877 11610,16830 11604,16784 11604,16736 11556,16736 11510,16738 11463,16743 11064,16766 10590,16717 10042,16595 Z"/></g><g style="stroke:none;fill:rgb(182,4,0)"><path d="M 11619,17555 L 11619,17555 C 11349,17414 10966,17377 10469,17442 10469,17489 10469,17535 10469,17583 10815,17795 11233,17821 11725,17661 11739,17655 11746,17631 11746,17583 11698,17583 11656,17574 11619,17555 Z"/></g><g style="stroke:none;fill:rgb(184,3,1)"><path d="M 10469,17583 L 10469,17583 C 10420,17583 10381,17571 10348,17548 10239,17477 10137,17394 10042,17301 9995,17301 9967,17310 9958,17329 9892,17470 9730,17507 9475,17442 9626,17927 9944,18004 10432,17675 10456,17661 10469,17631 10469,17583 Z"/></g><g style="stroke:none;fill:rgb(247,80,83)"><path d="M 7203,13209 L 7203,13209 C 7203,13256 7203,13302 7203,13350 7251,13350 7286,13337 7309,13314 7333,13292 7345,13256 7345,13209 7345,13161 7345,13115 7345,13068 7345,13020 7345,12974 7345,12926 7780,12884 8218,13060 8659,13456 8682,13478 8717,13491 8764,13491 8764,13443 8752,13413 8729,13399 8408,13193 8134,12941 7913,12644 7865,12644 7819,12644 7771,12644 7677,12644 7581,12644 7488,12644 7439,12644 7397,12653 7360,12672 7302,12701 7251,12738 7203,12785 7203,12926 7203,13068 7203,13209 Z"/></g><g style="stroke:none;fill:rgb(255,255,255)"><path d="M 7345,12926 L 7345,12926 C 7345,12974 7345,13020 7345,13068 7345,13115 7345,13161 7345,13209 7681,13251 7908,13397 8027,13646 8046,13683 8055,13725 8055,13773 8330,13919 8531,13930 8659,13808 8682,13785 8717,13773 8764,13773 8764,13725 8764,13680 8764,13632 8764,13584 8764,13538 8764,13491 8717,13491 8682,13478 8659,13456 8218,13060 7780,12884 7345,12926 Z"/></g><g style="stroke:none;fill:rgb(0,0,0)"><path d="M 7345,13209 L 7345,13209 C 7345,13256 7333,13292 7309,13314 7286,13337 7251,13350 7203,13350 7322,13815 7563,13965 7927,13801 7964,13782 8007,13773 8055,13773 8055,13725 8046,13683 8027,13646 7908,13397 7681,13251 7345,13209 Z"/></g><g style="stroke:none;fill:rgb(233,54,54)"><path d="M 8764,13773 L 8764,13773 C 8717,13773 8682,13785 8659,13808 8531,13930 8330,13919 8055,13773 8188,14318 8411,14359 8729,13893 8752,13859 8764,13821 8764,13773 Z"/></g><g style="stroke:none;fill:rgb(238,16,16)"><path d="M 11604,18006 L 11604,18006 C 11604,18054 11617,18093 11640,18126 11867,18460 12186,18421 12598,18006 12598,17959 12589,17916 12569,17879 12437,17639 12116,17682 11604,18006 Z"/></g><g style="stroke:none;fill:rgb(236,16,16)"><path d="M 11178,18288 L 11178,18288 C 11178,18241 11166,18209 11143,18190 10822,17902 10313,17888 9616,18147 9616,18195 9623,18220 9638,18225 9927,18329 10440,18350 11178,18288 Z"/></g></g></g></g></svg>