<?xml version="1.0" encoding="UTF-8"?>
<!DOCTYPE svg PUBLIC "-//W3C//DTD SVG 1.1//EN" "http://www.w3.org/Graphics/SVG/1.1/DTD/svg11.dtd"><svg version="1.1" viewBox="0 0 21000 29700" preserveAspectRatio="xMidYMid" fill-rule="evenodd" xmlns="http://www.w3.org/2000/svg" xmlns:xlink="http://www.w3.org/1999/xlink"><g visibility="visible" id="Default"><desc>Master slide</desc><g style="stroke:none;fill:none"><rect x="0" y="0" width="21000" height="29700"/></g></g><g visibility="visible" id="page1"><desc>Slide</desc><g><desc>Graphic</desc><g><g style="stroke:none;fill:rgb(238,17,17)"><path d="M 12718,10850 L 12718,10850 C 12758,11106 12946,11233 13274,11233 13095,11088 12909,10961 12718,10850 Z"/></g><g style="stroke:none;fill:rgb(187,0,0)"><path d="M 13274,11233 L 13274,11233 C 12946,11233 12758,11106 12718,10850 12646,10808 12572,10767 12500,10730 12475,10730 12451,10730 12425,10730 12425,10823 12425,10919 12425,11012 12425,11060 12425,11106 12425,11153 12425,11201 12425,11247 12425,11294 12473,11294 12519,11294 12567,11294 13102,11328 13455,11555 13625,11979 13631,11993 13655,12000 13703,12000 13845,12093 13975,12199 14094,12317 14117,12340 14129,12376 14129,12423 14177,12423 14223,12423 14271,12423 14294,12423 14319,12423 14344,12423 14157,12127 13932,11846 13668,11584 13602,11520 13536,11458 13471,11398 13405,11340 13339,11286 13274,11233 Z"/></g><g style="stroke:none;fill:rgb(238,17,17)"><path d="M 12298,11182 L 12298,11182 C 12335,11162 12377,11153 12425,11153 12425,11106 12425,11060 12425,11012 12425,10919 12425,10823 12425,10730 12451,10730 12475,10730 12500,10730 12435,10696 12368,10666 12303,10637 11738,10386 11123,10261 10456,10263 9731,10261 9068,10407 8466,10702 8446,10711 8429,10721 8409,10730 8423,10730 8438,10730 8450,10730 8450,10778 8452,10823 8457,10871 8506,11204 8408,11393 8167,11436 8167,11483 8168,11529 8174,11577 8221,11958 7934,12240 7314,12423 7266,12423 7221,12423 7173,12423 7173,12471 7161,12508 7137,12536 6952,12771 6727,12968 6462,13129 6462,13081 6462,13035 6462,12988 6462,12894 6462,12799 6462,12705 6441,12705 6420,12707 6401,12713 6394,12725 6387,12737 6381,12750 L 6134,13342 6134,13342 C 6132,13346 6132,13349 6131,13355 6129,13358 6127,13362 6127,13365 6125,13370 6123,13374 6122,13379 6120,13385 6118,13390 6116,13395 6115,13399 6115,13402 6113,13406 6109,13416 6106,13427 6104,13437 5974,13857 5911,14304 5913,14778 5913,15616 6113,16371 6513,17043 10309,19602 13132,18981 14983,15177 14984,15140 14988,15104 14990,15067 14995,14972 14998,14875 14998,14778 14998,14660 14995,14545 14986,14431 14963,14083 14902,13753 14807,13437 14698,13079 14544,12743 14344,12423 14319,12423 14294,12423 14271,12423 14223,12423 14177,12423 14129,12423 14129,12376 14117,12340 14094,12317 13975,12199 13845,12093 13703,12000 13703,12048 13696,12092 13682,12134 13568,12436 13385,12437 13135,12141 13087,12141 13041,12143 12993,12148 12331,12185 11952,11949 11857,11436 L 11857,11436 C 12000,11342 12147,11257 12298,11182 Z"/></g><g style="stroke:none;fill:rgb(244,71,36)"><path d="M 12425,11153 L 12425,11153 C 12377,11153 12335,11162 12298,11182 12147,11257 12000,11342 11857,11436 11952,11949 12331,12185 12993,12148 13041,12143 13087,12141 13135,12141 13135,12093 13123,12058 13100,12035 12981,11917 12851,11811 12709,11718 12661,11718 12623,11730 12588,11753 12314,11931 12165,11825 12142,11436 12235,11436 12321,11416 12397,11379 12416,11370 12425,11342 12425,11294 12425,11247 12425,11201 12425,11153 Z"/></g><g style="stroke:none;fill:rgb(236,106,47)"><path d="M 12688,11584 L 12688,11584 C 12702,11626 12709,11670 12709,11718 12851,11811 12981,11917 13100,12035 13123,12058 13135,12093 13135,12141 13385,12437 13568,12436 13682,12134 13696,12092 13703,12048 13703,12000 13655,12000 13631,11993 13625,11979 13455,11555 13102,11328 12567,11294 12616,11388 12654,11485 12688,11584 Z"/></g><g style="stroke:none;fill:rgb(245,121,55)"><path d="M 12709,11718 L 12709,11718 C 12709,11670 12702,11626 12688,11584 12654,11485 12616,11388 12567,11294 12519,11294 12473,11294 12425,11294 12425,11342 12416,11370 12397,11379 12321,11416 12235,11436 12142,11436 12165,11825 12314,11931 12588,11753 12623,11730 12661,11718 12709,11718 Z"/></g><g style="stroke:none;fill:rgb(159,16,9)"><path d="M 8025,10950 L 8025,10950 C 8009,11007 7964,11037 7895,11039 7844,11074 7791,11111 7740,11150 7740,11152 7740,11152 7740,11153 7732,11309 7826,11379 8025,11365 L 8025,11436 8025,11436 C 8072,11436 8118,11436 8167,11436 8408,11393 8506,11204 8457,10871 8452,10823 8450,10778 8450,10730 8438,10730 8423,10730 8409,10730 8278,10797 8151,10871 8025,10950 Z"/></g><g style="stroke:none;fill:rgb(238,17,17)"><path d="M 7895,11039 L 7895,11039 C 7964,11037 8009,11007 8025,10950 L 7927,11016 7927,11016 C 7914,11023 7904,11030 7893,11039 L 7895,11039 Z"/><path d="M 7735,11153 L 7735,11153 C 7737,11153 7739,11153 7740,11153 7740,11152 7740,11152 7740,11150 7739,11152 7737,11152 7735,11153 Z"/></g><g style="stroke:none;fill:rgb(187,0,0)"><path d="M 7740,11153 L 7740,11153 C 7739,11153 7737,11153 7735,11153 7565,11282 7400,11427 7242,11584 7169,11656 7098,11732 7031,11808 6819,12044 6638,12293 6487,12556 6711,12460 6883,12316 7003,12120 7022,12086 7031,12048 7031,12000 7124,11952 7222,11914 7322,11880 7364,11866 7408,11859 7456,11859 7456,11811 7456,11765 7456,11718 7456,11670 7456,11624 7456,11577 7641,11571 7790,11536 7904,11471 7937,11448 7977,11436 8025,11436 L 8025,11365 8025,11365 C 7826,11379 7732,11309 7740,11153 Z"/></g><g style="stroke:none;fill:rgb(213,103,48)"><path d="M 7421,11965 L 7421,11965 C 7444,11942 7456,11906 7456,11859 7408,11859 7364,11866 7322,11880 7222,11914 7124,11952 7031,12000 7031,12048 7022,12086 7003,12120 6883,12316 6711,12460 6487,12556 6478,12568 6471,12582 6462,12598 6462,12633 6462,12668 6462,12705 6462,12799 6462,12894 6462,12988 6462,13035 6462,13081 6462,13129 6727,12968 6952,12771 7137,12536 7161,12508 7173,12471 7173,12423 7173,12376 7173,12330 7173,12282 7173,12235 7173,12189 7173,12141 7266,12093 7350,12035 7421,11965 Z"/></g><g style="stroke:none;fill:rgb(243,105,49)"><path d="M 7456,11859 L 7456,11859 C 7456,11906 7444,11942 7421,11965 7350,12035 7266,12093 7173,12141 7173,12189 7173,12235 7173,12282 7173,12330 7173,12376 7173,12423 7221,12423 7266,12423 7314,12423 7314,12376 7314,12330 7314,12282 7598,12093 7826,11854 7996,11563 8016,11525 8025,11483 8025,11436 7977,11436 7937,11448 7904,11471 7790,11536 7641,11571 7456,11577 7456,11624 7456,11670 7456,11718 7456,11765 7456,11811 7456,11859 Z"/></g><g style="stroke:none;fill:rgb(79,57,24)"><path d="M 6462,12705 L 6462,12705 C 6462,12668 6462,12633 6462,12598 6441,12635 6420,12674 6401,12713 6420,12707 6441,12705 6462,12705 Z"/></g><g style="stroke:none;fill:rgb(246,60,33)"><path d="M 7314,12282 L 7314,12282 C 7314,12330 7314,12376 7314,12423 7934,12240 8221,11958 8174,11577 8168,11529 8167,11483 8167,11436 8118,11436 8072,11436 8025,11436 8025,11483 8016,11525 7996,11563 7826,11854 7598,12093 7314,12282 Z"/></g><g style="stroke:none;fill:rgb(187,0,0)"><path d="M 6513,17043 L 6513,17043 C 6706,17366 6943,17671 7229,17956 7233,17962 7236,17965 7242,17971 7494,18221 7761,18436 8044,18616 8191,18710 8344,18792 8498,18868 8536,18886 8573,18904 8610,18919 9173,19168 9788,19293 10456,19293 11348,19293 12147,19071 12853,18625 13022,18517 13187,18397 13345,18265 13455,18172 13562,18075 13668,17971 13841,17796 13999,17616 14140,17429 14261,17267 14368,17099 14465,16926 14695,16508 14851,16062 14933,15584 14942,15529 14949,15473 14958,15417 14961,15381 14965,15346 14970,15311 14975,15267 14979,15221 14983,15177 13132,18981 10309,19602 6513,17043 Z"/></g><g style="stroke:none;fill:rgb(189,12,3)"><path d="M 13654,15006 L 13654,15006 C 13654,14959 13652,14913 13647,14865 13624,14611 13484,14470 13228,14442 13228,14535 13228,14631 13228,14724 13228,14772 13228,14817 13228,14865 13228,14913 13240,14948 13264,14971 13287,14994 13322,15006 13370,15006 13417,15006 13464,15006 13512,15006 13560,15006 13606,15006 13654,15006 Z"/></g><g style="stroke:none;fill:rgb(192,40,9)"><path d="M 13654,16699 L 13654,16699 C 13654,16652 13661,16608 13675,16565 13888,16052 13881,15534 13654,15006 13606,15006 13560,15006 13512,15006 13464,15006 13417,15006 13370,15006 13370,15054 13379,15093 13398,15126 13816,15826 13663,16398 12945,16841 12945,16888 12945,16934 12945,16982 12945,17029 12945,17075 12945,17123 13247,17095 13456,16962 13568,16728 13577,16708 13606,16699 13654,16699 Z"/></g><g style="stroke:none;fill:rgb(185,27,5)"><path d="M 13228,14442 L 13228,14442 C 13228,14394 13230,14348 13235,14301 13301,13666 12873,13290 11951,13172 11951,13219 11951,13265 11951,13313 12689,13600 13092,14115 13157,14858 13157,14863 13180,14865 13228,14865 13228,14817 13228,14772 13228,14724 13228,14631 13228,14535 13228,14442 Z"/></g><g style="stroke:none;fill:rgb(182,41,7)"><path d="M 11809,13383 L 11809,13313 11809,13313 C 11809,13265 11803,13242 11795,13242 11175,13135 10659,13158 10247,13313 10247,13361 10247,13406 10247,13454 10247,13502 10247,13548 10247,13595 10247,13643 10247,13689 10247,13736 10488,13364 11008,13248 11809,13383 Z"/></g><g style="stroke:none;fill:rgb(136,67,0)"><path d="M 11809,13313 L 11809,13383 11809,13383 C 11008,13248 10488,13364 10247,13736 10247,13784 10234,13816 10211,13835 10004,14010 9684,14070 9253,14018 9253,14066 9246,14110 9232,14153 9175,14322 9040,14419 8827,14442 8827,14489 8822,14514 8813,14519 8557,14581 8325,14648 8117,14724 8117,14772 8105,14803 8082,14823 7821,15040 7597,15288 7407,15571 7407,15618 7407,15664 7407,15712 7407,15759 7407,15805 7407,15853 7416,16324 7641,16715 8082,17031 8105,17045 8117,17075 8117,17123 8638,17405 9052,17788 9360,18273 9383,18306 9395,18345 9395,18393 9911,18252 10330,18225 10652,18315 10666,18320 10673,18345 10673,18393 10720,18393 10766,18393 10815,18393 11156,18322 11439,18278 11667,18259 11714,18253 11760,18252 11809,18252 11809,18204 11809,18158 11809,18111 11970,18082 12083,17998 12149,17857 L 12149,17857 C 12158,17837 12186,17828 12234,17828 12234,17781 12234,17735 12234,17687 12424,17499 12623,17322 12831,17158 12859,17135 12896,17123 12945,17123 12945,17075 12945,17029 12945,16982 12945,16934 12945,16888 12945,16841 13663,16398 13816,15826 13398,15126 13379,15093 13370,15054 13370,15006 13322,15006 13287,14994 13264,14971 13240,14948 13228,14913 13228,14865 13180,14865 13157,14863 13157,14858 13092,14115 12689,13600 11951,13313 11902,13313 11856,13313 11809,13313 Z"/></g><g style="stroke:none;fill:rgb(169,29,3)"><path d="M 10211,13835 L 10211,13835 C 10234,13816 10247,13784 10247,13736 10247,13689 10247,13643 10247,13595 10247,13548 10247,13502 10247,13454 10199,13454 10164,13466 10141,13489 9922,13696 9628,13826 9253,13877 9253,13925 9253,13971 9253,14018 9684,14070 10004,14010 10211,13835 Z"/></g><g style="stroke:none;fill:rgb(191,40,9)"><path d="M 8827,14442 L 8827,14442 C 8779,14442 8733,14436 8685,14428 8151,14338 7677,14532 7265,15006 7265,15288 7288,15565 7337,15839 7337,15848 7360,15853 7407,15853 7407,15805 7407,15759 7407,15712 7407,15664 7407,15618 7407,15571 7597,15288 7821,15040 8082,14823 8105,14803 8117,14772 8117,14724 8325,14648 8557,14581 8813,14519 8822,14514 8827,14489 8827,14442 Z"/></g><g style="stroke:none;fill:rgb(193,39,9)"><path d="M 8117,17123 L 8117,17123 C 8117,17075 8105,17045 8082,17031 7641,16715 7416,16324 7407,15853 7407,15900 7395,15936 7372,15959 7349,15982 7313,15994 7265,15994 7288,16581 7528,16952 7983,17102 8025,17116 8069,17123 8117,17123 Z"/></g><g style="stroke:none;fill:rgb(195,36,9)"><path d="M 8117,17123 L 8117,17123 C 8117,17170 8105,17206 8082,17229 8059,17252 8023,17264 7976,17264 8510,17580 8791,17908 8820,18252 8826,18299 8827,18345 8827,18393 8970,18393 9111,18393 9253,18393 9301,18393 9347,18393 9395,18393 9395,18345 9383,18306 9360,18273 9052,17788 8638,17405 8117,17123 Z"/></g><g style="stroke:none;fill:rgb(159,36,0)"><path d="M 10673,18393 L 10673,18393 C 10673,18345 10666,18320 10652,18315 10330,18225 9911,18252 9395,18393 9707,18562 10089,18569 10538,18414 10580,18400 10625,18393 10673,18393 Z"/></g><g style="stroke:none;fill:rgb(189,40,8)"><path d="M 12802,17405 L 12802,17405 C 12802,17357 12802,17312 12802,17264 12850,17264 12885,17252 12908,17229 12932,17206 12945,17170 12945,17123 12896,17123 12859,17135 12831,17158 12623,17322 12424,17499 12234,17687 12234,17735 12234,17781 12234,17828 12283,17828 12328,17828 12376,17828 12424,17828 12471,17828 12518,17828 12518,17781 12518,17735 12518,17687 12566,17640 12618,17603 12674,17574 12711,17555 12754,17546 12802,17546 12802,17499 12802,17453 12802,17405 Z"/></g><g style="stroke:none;fill:rgb(163,29,0)"><path d="M 11809,18252 L 11809,18252 C 11760,18252 11714,18253 11667,18259 11439,18278 11156,18322 10815,18393 11061,18712 11381,18698 11773,18350 11796,18331 11809,18299 11809,18252 Z"/></g><g style="stroke:none;fill:rgb(208,6,6)"><path d="M 7549,11902 L 7549,11902 C 7549,11949 7549,11995 7549,12043 7549,12091 7541,12133 7521,12170 7493,12226 7455,12278 7407,12325 8055,12867 8316,12634 8188,11627 8188,11621 8166,11620 8117,11620 8069,11620 8034,11632 8011,11655 7892,11773 7739,11854 7549,11902 Z"/></g><g style="stroke:none;fill:rgb(207,7,6)"><path d="M 12092,11761 L 12092,11761 C 12092,11808 12083,11851 12064,11888 12035,11944 11998,11995 11951,12043 12504,12678 12873,12814 13057,12452 13077,12415 13086,12373 13086,12325 13086,12278 13073,12246 13050,12226 12857,12080 12680,11925 12518,11761 12471,11761 12424,11761 12376,11761 12283,11761 12186,11761 12092,11761 Z"/></g></g></g></g></svg>