<?xml version="1.0" encoding="UTF-8"?>
<!DOCTYPE svg PUBLIC "-//W3C//DTD SVG 1.1//EN" "http://www.w3.org/Graphics/SVG/1.1/DTD/svg11.dtd"><svg version="1.1" viewBox="0 0 21000 29700" preserveAspectRatio="xMidYMid" fill-rule="evenodd" xmlns="http://www.w3.org/2000/svg" xmlns:xlink="http://www.w3.org/1999/xlink"><g visibility="visible" id="Default"><desc>Master slide</desc><g style="stroke:none;fill:none"><rect x="0" y="0" width="21000" height="29700"/></g></g><g visibility="visible" id="page1"><desc>Slide</desc><g><desc>Graphic</desc><g><g style="stroke:none;fill:rgb(238,17,17)"><path d="M 12718,10850 L 12718,10850 C 12758,11106 12946,11233 13274,11233 13095,11088 12909,10961 12718,10850 Z"/></g><g style="stroke:none;fill:rgb(187,0,0)"><path d="M 13274,11233 L 13274,11233 C 12946,11233 12758,11106 12718,10850 12646,10808 12572,10767 12500,10730 12475,10730 12451,10730 12425,10730 12425,10823 12425,10919 12425,11012 12425,11060 12425,11106 12425,11153 12425,11201 12425,11247 12425,11294 12473,11294 12519,11294 12567,11294 13102,11328 13455,11555 13625,11979 13631,11993 13655,12000 13703,12000 13845,12093 13975,12199 14094,12317 14117,12340 14129,12376 14129,12423 14177,12423 14223,12423 14271,12423 14294,12423 14319,12423 14344,12423 14157,12127 13932,11846 13668,11584 13602,11520 13536,11458 13471,11398 13405,11340 13339,11286 13274,11233 Z"/></g><g style="stroke:none;fill:rgb(238,17,17)"><path d="M 12298,11182 L 12298,11182 C 12335,11162 12377,11153 12425,11153 12425,11106 12425,11060 12425,11012 12425,10919 12425,10823 12425,10730 12451,10730 12475,10730 12500,10730 12435,10696 12368,10666 12303,10637 11738,10386 11123,10261 10456,10263 9731,10261 9068,10407 8466,10702 8446,10711 8429,10721 8409,10730 8423,10730 8438,10730 8450,10730 8450,10778 8452,10823 8457,10871 8506,11204 8408,11393 8167,11436 8167,11483 8168,11529 8174,11577 8221,11958 7934,12240 7314,12423 7266,12423 7221,12423 7173,12423 7173,12471 7161,12508 7137,12536 6952,12771 6727,12968 6462,13129 6462,13081 6462,13035 6462,12988 6462,12894 6462,12799 6462,12705 6441,12705 6420,12707 6401,12713 6394,12725 6387,12737 6381,12750 L 6134,13342 6134,13342 C 6132,13346 6132,13349 6131,13355 6129,13358 6127,13362 6127,13365 6125,13370 6123,13374 6122,13379 6120,13385 6118,13390 6116,13395 6115,13399 6115,13402 6113,13406 6109,13416 6106,13427 6104,13437 5974,13857 5911,14304 5913,14778 5913,15616 6113,16371 6513,17043 10309,19602 13132,18981 14983,15177 14984,15140 14988,15104 14990,15067 14995,14972 14998,14875 14998,14778 14998,14660 14995,14545 14986,14431 14963,14083 14902,13753 14807,13437 14698,13079 14544,12743 14344,12423 14319,12423 14294,12423 14271,12423 14223,12423 14177,12423 14129,12423 14129,12376 14117,12340 14094,12317 13975,12199 13845,12093 13703,12000 13703,12048 13696,12092 13682,12134 13568,12436 13385,12437 13135,12141 13087,12141 13041,12143 12993,12148 12331,12185 11952,11949 11857,11436 L 11857,11436 C 12000,11342 12147,11257 12298,11182 Z"/></g><g style="stroke:none;fill:rgb(244,71,36)"><path d="M 12425,11153 L 12425,11153 C 12377,11153 12335,11162 12298,11182 12147,11257 12000,11342 11857,11436 11952,11949 12331,12185 12993,12148 13041,12143 13087,12141 13135,12141 13135,12093 13123,12058 13100,12035 12981,11917 12851,11811 12709,11718 12661,11718 12623,11730 12588,11753 12314,11931 12165,11825 12142,11436 12235,11436 12321,11416 12397,11379 12416,11370 12425,11342 12425,11294 12425,11247 12425,11201 12425,11153 Z"/></g><g style="stroke:none;fill:rgb(236,106,47)"><path d="M 12688,11584 L 12688,11584 C 12702,11626 12709,11670 12709,11718 12851,11811 12981,11917 13100,12035 13123,12058 13135,12093 13135,12141 13385,12437 13568,12436 13682,12134 13696,12092 13703,12048 13703,12000 13655,12000 13631,11993 13625,11979 13455,11555 13102,11328 12567,11294 12616,11388 12654,11485 12688,11584 Z"/></g><g style="stroke:none;fill:rgb(245,121,55)"><path d="M 12709,11718 L 12709,11718 C 12709,11670 12702,11626 12688,11584 12654,11485 12616,11388 12567,11294 12519,11294 12473,11294 12425,11294 12425,11342 12416,11370 12397,11379 12321,11416 12235,11436 12142,11436 12165,11825 12314,11931 12588,11753 12623,11730 12661,11718 12709,11718 Z"/></g><g style="stroke:none;fill:rgb(159,16,9)"><path d="M 8025,10950 L 8025,10950 C 8009,11007 7964,11037 7895,11039 7844,11074 7791,11111 7740,11150 7740,11152 7740,11152 7740,11153 7732,11309 7826,11379 8025,11365 L 8025,11436 8025,11436 C 8072,11436 8118,11436 8167,11436 8408,11393 8506,11204 8457,10871 8452,10823 8450,10778 8450,10730 8438,10730 8423,10730 8409,10730 8278,10797 8151,10871 8025,10950 Z"/></g><g style="stroke:none;fill:rgb(238,17,17)"><path d="M 7895,11039 L 7895,11039 C 7964,11037 8009,11007 8025,10950 L 7927,11016 7927,11016 C 7914,11023 7904,11030 7893,11039 L 7895,11039 Z"/><path d="M 7735,11153 L 7735,11153 C 7737,11153 7739,11153 7740,11153 7740,11152 7740,11152 7740,11150 7739,11152 7737,11152 7735,11153 Z"/></g><g style="stroke:none;fill:rgb(187,0,0)"><path d="M 7740,11153 L 7740,11153 C 7739,11153 7737,11153 7735,11153 7565,11282 7400,11427 7242,11584 7169,11656 7098,11732 7031,11808 6819,12044 6638,12293 6487,12556 6711,12460 6883,12316 7003,12120 7022,12086 7031,12048 7031,12000 7124,11952 7222,11914 7322,11880 7364,11866 7408,11859 7456,11859 7456,11811 7456,11765 7456,11718 7456,11670 7456,11624 7456,11577 7641,11571 7790,11536 7904,11471 7937,11448 7977,11436 8025,11436 L 8025,11365 8025,11365 C 7826,11379 7732,11309 7740,11153 Z"/></g><g style="stroke:none;fill:rgb(213,103,48)"><path d="M 7421,11965 L 7421,11965 C 7444,11942 7456,11906 7456,11859 7408,11859 7364,11866 7322,11880 7222,11914 7124,11952 7031,12000 7031,12048 7022,12086 7003,12120 6883,12316 6711,12460 6487,12556 6478,12568 6471,12582 6462,12598 6462,12633 6462,12668 6462,12705 6462,12799 6462,12894 6462,12988 6462,13035 6462,13081 6462,13129 6727,12968 6952,12771 7137,12536 7161,12508 7173,12471 7173,12423 7173,12376 7173,12330 7173,12282 7173,12235 7173,12189 7173,12141 7266,12093 7350,12035 7421,11965 Z"/></g><g style="stroke:none;fill:rgb(243,105,49)"><path d="M 7456,11859 L 7456,11859 C 7456,11906 7444,11942 7421,11965 7350,12035 7266,12093 7173,12141 7173,12189 7173,12235 7173,12282 7173,12330 7173,12376 7173,12423 7221,12423 7266,12423 7314,12423 7314,12376 7314,12330 7314,12282 7598,12093 7826,11854 7996,11563 8016,11525 8025,11483 8025,11436 7977,11436 7937,11448 7904,11471 7790,11536 7641,11571 7456,11577 7456,11624 7456,11670 7456,11718 7456,11765 7456,11811 7456,11859 Z"/></g><g style="stroke:none;fill:rgb(79,57,24)"><path d="M 6462,12705 L 6462,12705 C 6462,12668 6462,12633 6462,12598 6441,12635 6420,12674 6401,12713 6420,12707 6441,12705 6462,12705 Z"/></g><g style="stroke:none;fill:rgb(246,60,33)"><path d="M 7314,12282 L 7314,12282 C 7314,12330 7314,12376 7314,12423 7934,12240 8221,11958 8174,11577 8168,11529 8167,11483 8167,11436 8118,11436 8072,11436 8025,11436 8025,11483 8016,11525 7996,11563 7826,11854 7598,12093 7314,12282 Z"/></g><g style="stroke:none;fill:rgb(187,0,0)"><path d="M 6513,17043 L 6513,17043 C 6706,17366 6943,17671 7229,17956 7233,17962 7236,17965 7242,17971 7494,18221 7761,18436 8044,18616 8191,18710 8344,18792 8498,18868 8536,18886 8573,18904 8610,18919 9173,19168 9788,19293 10456,19293 11348,19293 12147,19071 12853,18625 13022,18517 13187,18397 13345,18265 13455,18172 13562,18075 13668,17971 13841,17796 13999,17616 14140,17429 14261,17267 14368,17099 14465,16926 14695,16508 14851,16062 14933,15584 14942,15529 14949,15473 14958,15417 14961,15381 14965,15346 14970,15311 14975,15267 14979,15221 14983,15177 13132,18981 10309,19602 6513,17043 Z"/></g><g style="stroke:none;fill:rgb(0,0,0)"><path d="M 12755,13480 L 12755,13480 C 12755,13528 12755,13574 12755,13621 12755,13669 12755,13715 12755,13762 12755,13810 12755,13856 12755,13904 12755,13951 12755,13997 12755,14045 12804,14045 12848,14038 12890,14024 13506,13817 13461,13635 12755,13480 Z"/></g><g style="stroke:none;fill:rgb(248,104,104)"><path d="M 12295,13586 L 12295,13586 C 12318,13563 12330,13528 12330,13480 12282,13480 12251,13468 12237,13445 12176,13355 12018,13367 11762,13480 11762,13528 11762,13574 11762,13621 11762,13669 11762,13715 11762,13762 11856,13856 11959,13939 12067,14009 12102,14032 12140,14045 12188,14045 12188,13997 12188,13951 12188,13904 12188,13810 12188,13715 12188,13621 12236,13621 12272,13609 12295,13586 Z"/></g><g style="stroke:none;fill:rgb(255,255,255)"><path d="M 12330,13480 L 12330,13480 C 12330,13528 12318,13563 12295,13586 12272,13609 12236,13621 12188,13621 12188,13715 12188,13810 12188,13904 12188,13951 12188,13997 12188,14045 12288,14092 12385,14131 12479,14165 12522,14179 12566,14186 12614,14186 12614,14138 12614,14092 12614,14045 12662,14045 12708,14045 12755,14045 12755,13997 12755,13951 12755,13904 12755,13856 12755,13810 12755,13762 L 12685,13762 12685,13762 C 12699,13514 12580,13419 12330,13480 Z"/></g><g style="stroke:none;fill:rgb(238,38,38)"><path d="M 12614,14186 L 12614,14186 C 12566,14186 12522,14179 12479,14165 12385,14131 12288,14092 12188,14045 12140,14045 12102,14032 12067,14009 11959,13939 11856,13856 11762,13762 11691,14304 11968,14470 12592,14263 12607,14258 12614,14233 12614,14186 Z"/></g><g style="stroke:none;fill:rgb(203,5,5)"><path d="M 12614,17008 L 12614,17008 C 12662,17008 12701,16996 12734,16973 13231,16620 13238,16396 12755,16302 12708,16302 12662,16297 12614,16288 12264,16232 11932,16424 11621,16867 11572,16867 11526,16872 11478,16881 10536,17056 9968,16862 9774,16302 9726,16302 9682,16295 9640,16281 9186,16149 8710,16204 8213,16443 8218,16585 8239,16719 8276,16846 8282,16860 8307,16867 8355,16867 8355,16819 8355,16773 8355,16726 8355,16678 8355,16632 8355,16585 9486,16495 9584,16563 8653,16789 8645,16794 8639,16819 8639,16867 9187,16839 9581,16967 9817,17255 9837,17278 9869,17290 9916,17290 9916,17243 9916,17197 9916,17149 9916,17101 9916,17056 9916,17008 10365,16943 10733,17048 11017,17325 11040,17348 11052,17384 11052,17431 L 11052,17502 11052,17502 C 11696,17248 12216,17084 12614,17008 Z"/></g><g style="stroke:none;fill:rgb(190,1,1)"><path d="M 8355,16726 L 8355,16726 C 8355,16773 8355,16819 8355,16867 8403,16867 8449,16867 8497,16867 8545,16867 8591,16867 8639,16867 8639,16819 8645,16794 8653,16789 9584,16563 9486,16495 8355,16585 8355,16632 8355,16678 8355,16726 Z"/></g><g style="stroke:none;fill:rgb(192,2,2)"><path d="M 9916,17008 L 9916,17008 C 9916,17056 9916,17101 9916,17149 9916,17197 9916,17243 9916,17290 10167,17525 10501,17579 10917,17452 10960,17438 11004,17431 11052,17431 11052,17384 11040,17348 11017,17325 10733,17048 10365,16943 9916,17008 Z"/></g><g style="stroke:none;fill:rgb(244,74,74)"><path d="M 7929,13339 L 7929,13339 C 7929,13292 7923,13267 7915,13262 7607,13186 7375,13212 7219,13339 7196,13687 7295,13912 7518,14016 7555,14036 7597,14045 7646,14045 7646,13997 7636,13969 7616,13960 7474,13895 7437,13734 7503,13480 7503,13433 7503,13387 7503,13339 7597,13339 7693,13339 7787,13339 7835,13339 7881,13339 7929,13339 Z"/></g><g style="stroke:none;fill:rgb(0,0,0)"><path d="M 8334,13374 L 8334,13374 C 8299,13351 8261,13339 8213,13339 8213,13387 8225,13422 8248,13445 8438,13637 8378,13791 8071,13904 8071,13951 8071,13997 8071,14045 8894,14059 8982,13835 8334,13374 Z"/></g><g style="stroke:none;fill:rgb(168,100,100)"><path d="M 7503,13339 L 7503,13339 C 7503,13387 7503,13433 7503,13480 7839,13429 8023,13523 8057,13762 8066,13810 8071,13856 8071,13904 8378,13791 8438,13637 8248,13445 8225,13422 8213,13387 8213,13339 8165,13339 8118,13339 8071,13339 8023,13339 7977,13339 7929,13339 7881,13339 7835,13339 7787,13339 7693,13339 7597,13339 7503,13339 Z"/></g><g style="stroke:none;fill:rgb(255,255,255)"><path d="M 7616,13960 L 7616,13960 C 7636,13969 7646,13997 7646,14045 7674,14200 7778,14212 7957,14080 7986,14057 8023,14045 8071,14045 8071,13997 8071,13951 8071,13904 8071,13856 8066,13810 8057,13762 8023,13523 7839,13429 7503,13480 7437,13734 7474,13895 7616,13960 Z"/></g></g></g></g></svg>