<?xml version="1.0" encoding="UTF-8"?>
<!DOCTYPE svg PUBLIC "-//W3C//DTD SVG 1.1//EN" "http://www.w3.org/Graphics/SVG/1.1/DTD/svg11.dtd"><svg version="1.1" viewBox="0 0 21000 29700" preserveAspectRatio="xMidYMid" fill-rule="evenodd" xmlns="http://www.w3.org/2000/svg" xmlns:xlink="http://www.w3.org/1999/xlink"><g visibility="visible" id="Default"><desc>Master slide</desc><g style="stroke:none;fill:none"><rect x="0" y="0" width="21000" height="29700"/></g></g><g visibility="visible" id="page1"><desc>Slide</desc><g><desc>Graphic</desc><g><g style="stroke:none;fill:rgb(238,17,17)"><path d="M 12718,10850 L 12718,10850 C 12758,11106 12946,11233 13274,11233 13095,11088 12909,10961 12718,10850 Z"/></g><g style="stroke:none;fill:rgb(187,0,0)"><path d="M 13274,11233 L 13274,11233 C 12946,11233 12758,11106 12718,10850 12646,10808 12572,10767 12500,10730 12475,10730 12451,10730 12425,10730 12425,10823 12425,10919 12425,11012 12425,11060 12425,11106 12425,11153 12425,11201 12425,11247 12425,11294 12473,11294 12519,11294 12567,11294 13102,11328 13455,11555 13625,11979 13631,11993 13655,12000 13703,12000 13845,12093 13975,12199 14094,12317 14117,12340 14129,12376 14129,12423 14177,12423 14223,12423 14271,12423 14294,12423 14319,12423 14344,12423 14157,12127 13932,11846 13668,11584 13602,11520 13536,11458 13471,11398 13405,11340 13339,11286 13274,11233 Z"/></g><g style="stroke:none;fill:rgb(238,17,17)"><path d="M 12298,11182 L 12298,11182 C 12335,11162 12377,11153 12425,11153 12425,11106 12425,11060 12425,11012 12425,10919 12425,10823 12425,10730 12451,10730 12475,10730 12500,10730 12435,10696 12368,10666 12303,10637 11738,10386 11123,10261 10456,10263 9731,10261 9068,10407 8466,10702 8446,10711 8429,10721 8409,10730 8423,10730 8438,10730 8450,10730 8450,10778 8452,10823 8457,10871 8506,11204 8408,11393 8167,11436 8167,11483 8168,11529 8174,11577 8221,11958 7934,12240 7314,12423 7266,12423 7221,12423 7173,12423 7173,12471 7161,12508 7137,12536 6952,12771 6727,12968 6462,13129 6462,13081 6462,13035 6462,12988 6462,12894 6462,12799 6462,12705 6441,12705 6420,12707 6401,12713 6394,12725 6387,12737 6381,12750 L 6134,13342 6134,13342 C 6132,13346 6132,13349 6131,13355 6129,13358 6127,13362 6127,13365 6125,13370 6123,13374 6122,13379 6120,13385 6118,13390 6116,13395 6115,13399 6115,13402 6113,13406 6109,13416 6106,13427 6104,13437 5974,13857 5911,14304 5913,14778 5913,15616 6113,16371 6513,17043 10309,19602 13132,18981 14983,15177 14984,15140 14988,15104 14990,15067 14995,14972 14998,14875 14998,14778 14998,14660 14995,14545 14986,14431 14963,14083 14902,13753 14807,13437 14698,13079 14544,12743 14344,12423 14319,12423 14294,12423 14271,12423 14223,12423 14177,12423 14129,12423 14129,12376 14117,12340 14094,12317 13975,12199 13845,12093 13703,12000 13703,12048 13696,12092 13682,12134 13568,12436 13385,12437 13135,12141 13087,12141 13041,12143 12993,12148 12331,12185 11952,11949 11857,11436 L 11857,11436 C 12000,11342 12147,11257 12298,11182 Z"/></g><g style="stroke:none;fill:rgb(244,71,36)"><path d="M 12425,11153 L 12425,11153 C 12377,11153 12335,11162 12298,11182 12147,11257 12000,11342 11857,11436 11952,11949 12331,12185 12993,12148 13041,12143 13087,12141 13135,12141 13135,12093 13123,12058 13100,12035 12981,11917 12851,11811 12709,11718 12661,11718 12623,11730 12588,11753 12314,11931 12165,11825 12142,11436 12235,11436 12321,11416 12397,11379 12416,11370 12425,11342 12425,11294 12425,11247 12425,11201 12425,11153 Z"/></g><g style="stroke:none;fill:rgb(236,106,47)"><path d="M 12688,11584 L 12688,11584 C 12702,11626 12709,11670 12709,11718 12851,11811 12981,11917 13100,12035 13123,12058 13135,12093 13135,12141 13385,12437 13568,12436 13682,12134 13696,12092 13703,12048 13703,12000 13655,12000 13631,11993 13625,11979 13455,11555 13102,11328 12567,11294 12616,11388 12654,11485 12688,11584 Z"/></g><g style="stroke:none;fill:rgb(245,121,55)"><path d="M 12709,11718 L 12709,11718 C 12709,11670 12702,11626 12688,11584 12654,11485 12616,11388 12567,11294 12519,11294 12473,11294 12425,11294 12425,11342 12416,11370 12397,11379 12321,11416 12235,11436 12142,11436 12165,11825 12314,11931 12588,11753 12623,11730 12661,11718 12709,11718 Z"/></g><g style="stroke:none;fill:rgb(159,16,9)"><path d="M 8025,10950 L 8025,10950 C 8009,11007 7964,11037 7895,11039 7844,11074 7791,11111 7740,11150 7740,11152 7740,11152 7740,11153 7732,11309 7826,11379 8025,11365 L 8025,11436 8025,11436 C 8072,11436 8118,11436 8167,11436 8408,11393 8506,11204 8457,10871 8452,10823 8450,10778 8450,10730 8438,10730 8423,10730 8409,10730 8278,10797 8151,10871 8025,10950 Z"/></g><g style="stroke:none;fill:rgb(238,17,17)"><path d="M 7895,11039 L 7895,11039 C 7964,11037 8009,11007 8025,10950 L 7927,11016 7927,11016 C 7914,11023 7904,11030 7893,11039 L 7895,11039 Z"/><path d="M 7735,11153 L 7735,11153 C 7737,11153 7739,11153 7740,11153 7740,11152 7740,11152 7740,11150 7739,11152 7737,11152 7735,11153 Z"/></g><g style="stroke:none;fill:rgb(187,0,0)"><path d="M 7740,11153 L 7740,11153 C 7739,11153 7737,11153 7735,11153 7565,11282 7400,11427 7242,11584 7169,11656 7098,11732 7031,11808 6819,12044 6638,12293 6487,12556 6711,12460 6883,12316 7003,12120 7022,12086 7031,12048 7031,12000 7124,11952 7222,11914 7322,11880 7364,11866 7408,11859 7456,11859 7456,11811 7456,11765 7456,11718 7456,11670 7456,11624 7456,11577 7641,11571 7790,11536 7904,11471 7937,11448 7977,11436 8025,11436 L 8025,11365 8025,11365 C 7826,11379 7732,11309 7740,11153 Z"/></g><g style="stroke:none;fill:rgb(213,103,48)"><path d="M 7421,11965 L 7421,11965 C 7444,11942 7456,11906 7456,11859 7408,11859 7364,11866 7322,11880 7222,11914 7124,11952 7031,12000 7031,12048 7022,12086 7003,12120 6883,12316 6711,12460 6487,12556 6478,12568 6471,12582 6462,12598 6462,12633 6462,12668 6462,12705 6462,12799 6462,12894 6462,12988 6462,13035 6462,13081 6462,13129 6727,12968 6952,12771 7137,12536 7161,12508 7173,12471 7173,12423 7173,12376 7173,12330 7173,12282 7173,12235 7173,12189 7173,12141 7266,12093 7350,12035 7421,11965 Z"/></g><g style="stroke:none;fill:rgb(243,105,49)"><path d="M 7456,11859 L 7456,11859 C 7456,11906 7444,11942 7421,11965 7350,12035 7266,12093 7173,12141 7173,12189 7173,12235 7173,12282 7173,12330 7173,12376 7173,12423 7221,12423 7266,12423 7314,12423 7314,12376 7314,12330 7314,12282 7598,12093 7826,11854 7996,11563 8016,11525 8025,11483 8025,11436 7977,11436 7937,11448 7904,11471 7790,11536 7641,11571 7456,11577 7456,11624 7456,11670 7456,11718 7456,11765 7456,11811 7456,11859 Z"/></g><g style="stroke:none;fill:rgb(79,57,24)"><path d="M 6462,12705 L 6462,12705 C 6462,12668 6462,12633 6462,12598 6441,12635 6420,12674 6401,12713 6420,12707 6441,12705 6462,12705 Z"/></g><g style="stroke:none;fill:rgb(246,60,33)"><path d="M 7314,12282 L 7314,12282 C 7314,12330 7314,12376 7314,12423 7934,12240 8221,11958 8174,11577 8168,11529 8167,11483 8167,11436 8118,11436 8072,11436 8025,11436 8025,11483 8016,11525 7996,11563 7826,11854 7598,12093 7314,12282 Z"/></g><g style="stroke:none;fill:rgb(187,0,0)"><path d="M 6513,17043 L 6513,17043 C 6706,17366 6943,17671 7229,17956 7233,17962 7236,17965 7242,17971 7494,18221 7761,18436 8044,18616 8191,18710 8344,18792 8498,18868 8536,18886 8573,18904 8610,18919 9173,19168 9788,19293 10456,19293 11348,19293 12147,19071 12853,18625 13022,18517 13187,18397 13345,18265 13455,18172 13562,18075 13668,17971 13841,17796 13999,17616 14140,17429 14261,17267 14368,17099 14465,16926 14695,16508 14851,16062 14933,15584 14942,15529 14949,15473 14958,15417 14961,15381 14965,15346 14970,15311 14975,15267 14979,15221 14983,15177 13132,18981 10309,19602 6513,17043 Z"/></g><g style="stroke:none;fill:rgb(255,255,255)"><path d="M 8113,12401 L 8113,12401 C 8065,12401 8023,12410 7986,12429 7806,12523 7659,12655 7546,12824 7546,12872 7546,12918 7546,12965 7546,13013 7537,13055 7517,13092 7489,13149 7451,13200 7403,13248 7403,13713 7554,13819 7858,13565 7886,13542 7923,13530 7971,13530 L 7971,13459 7971,13459 C 7721,13473 7625,13355 7688,13107 7735,13059 7786,13022 7844,12994 7881,12974 7923,12965 7971,12965 8113,12965 8255,12965 8397,12965 8445,12965 8492,12965 8539,12965 8587,12965 8612,12958 8617,12944 8768,12473 8601,12293 8113,12401 Z"/></g><g style="stroke:none;fill:rgb(144,119,119)"><path d="M 8539,13107 L 8539,13107 C 8539,13059 8539,13013 8539,12965 8492,12965 8445,12965 8397,12965 8255,12965 8113,12965 7971,12965 7923,12965 7881,12974 7844,12994 7786,13022 7735,13059 7688,13107 7625,13355 7721,13473 7971,13459 L 7971,13530 7971,13530 C 8020,13530 8065,13530 8113,13530 8113,13482 8113,13436 8113,13389 8113,13341 8113,13295 8113,13248 8208,13200 8306,13161 8404,13128 8447,13114 8492,13107 8539,13107 Z"/></g><g style="stroke:none;fill:rgb(0,0,0)"><path d="M 8575,13212 L 8575,13212 C 8552,13189 8539,13154 8539,13107 8492,13107 8447,13114 8404,13128 8306,13161 8208,13200 8113,13248 8113,13295 8113,13341 8113,13389 8113,13436 8113,13482 8113,13530 8113,13577 8101,13613 8078,13636 8055,13659 8020,13671 7971,13671 7971,13719 7971,13764 7971,13812 8747,13817 8949,13616 8575,13212 Z"/></g><g style="stroke:none;fill:rgb(208,41,41)"><path d="M 7546,12965 L 7546,12965 C 7498,12965 7458,12978 7425,13001 7317,13071 7214,13154 7119,13248 7100,13690 7338,13881 7830,13819 7877,13814 7923,13812 7971,13812 7971,13764 7971,13719 7971,13671 8020,13671 8055,13659 8078,13636 8101,13613 8113,13577 8113,13530 8065,13530 8020,13530 7971,13530 7923,13530 7886,13542 7858,13565 7554,13819 7403,13713 7403,13248 7451,13200 7489,13149 7517,13092 7537,13055 7546,13013 7546,12965 Z"/></g><g style="stroke:none;fill:rgb(201,13,6)"><path d="M 7830,15929 L 7830,15929 C 7781,15929 7737,15936 7695,15950 7595,15983 7498,16022 7403,16070 7432,16513 7716,16703 8255,16641 8303,16636 8350,16634 8397,16634 8478,16837 8622,16971 8831,17036 8873,17050 8917,17058 8966,17058 8966,17010 8966,16964 8966,16916 8951,16654 8761,16513 8397,16493 8350,16493 8303,16493 8255,16493 8208,16493 8162,16493 8113,16493 8065,16493 8021,16486 7979,16472 7814,16416 7716,16281 7688,16070 7735,16070 7771,16057 7794,16035 7817,16012 7830,15976 7830,15929 Z"/></g><g style="stroke:none;fill:rgb(169,36,3)"><path d="M 8418,15964 L 8418,15964 C 8452,15941 8492,15929 8539,15929 8539,15881 8534,15856 8525,15851 8218,15775 7986,15802 7830,15929 7830,15976 7817,16012 7794,16035 7771,16057 7735,16070 7688,16070 7716,16281 7814,16416 7979,16472 8021,16486 8065,16493 8113,16493 8113,16446 8106,16401 8092,16359 8058,16260 8020,16163 7971,16070 8156,16065 8306,16029 8418,15964 Z"/></g><g style="stroke:none;fill:rgb(155,50,1)"><path d="M 8539,15929 L 8539,15929 C 8492,15929 8452,15941 8418,15964 8306,16029 8156,16065 7971,16070 8020,16163 8058,16260 8092,16359 8106,16401 8113,16446 8113,16493 8162,16493 8208,16493 8255,16493 8303,16493 8350,16493 8397,16493 8397,16446 8397,16400 8397,16352 8553,16366 8605,16269 8553,16063 8545,16020 8539,15976 8539,15929 Z"/></g><g style="stroke:none;fill:rgb(181,39,6)"><path d="M 12372,15788 L 12372,15788 C 12372,15835 12372,15881 12372,15929 12321,16262 12408,16472 12635,16557 12649,16562 12656,16587 12656,16634 12704,16634 12743,16622 12777,16599 13445,16119 13310,15849 12372,15788 Z"/></g><g style="stroke:none;fill:rgb(190,16,5)"><path d="M 12372,15929 L 12372,15929 C 12325,15929 12281,15936 12237,15950 12044,16029 11852,16117 11663,16211 11663,16259 11663,16304 11663,16352 11663,16400 11663,16446 11663,16493 L 11733,16493 11733,16493 C 11747,17021 11487,17207 10953,17058 10953,17105 10953,17151 10953,17199 11814,17349 12353,17170 12571,16662 12580,16643 12609,16634 12656,16634 12656,16587 12649,16562 12635,16557 12408,16472 12321,16262 12372,15929 Z"/></g><g style="stroke:none;fill:rgb(158,57,3)"><path d="M 11733,16493 L 11663,16493 11663,16493 C 11615,16493 11568,16495 11521,16500 10976,16548 10408,16544 9817,16493 9817,16541 9817,16587 9817,16634 10072,16615 10250,16671 10349,16804 10372,16832 10385,16869 10385,16916 10376,17072 10470,17142 10669,17128 L 10669,17199 10669,17199 C 10717,17199 10762,17199 10811,17199 10859,17199 10905,17199 10953,17199 10953,17151 10953,17105 10953,17058 11487,17207 11747,17021 11733,16493 Z"/></g><g style="stroke:none;fill:rgb(194,39,10)"><path d="M 11663,16493 L 11663,16493 C 11663,16446 11663,16400 11663,16352 11615,16352 11568,16354 11521,16359 11146,16396 10862,16347 10669,16211 L 10669,16281 10669,16281 C 10243,16211 9817,16234 9391,16352 9391,16400 9391,16446 9391,16493 9485,16493 9570,16513 9647,16550 9666,16558 9675,16587 9675,16634 9723,16634 9769,16634 9817,16634 9817,16587 9817,16541 9817,16493 10408,16544 10976,16548 11521,16500 11568,16495 11615,16493 11663,16493 Z"/></g><g style="stroke:none;fill:rgb(140,65,1)"><path d="M 10349,16804 L 10349,16804 C 10250,16671 10072,16615 9817,16634 9769,16634 9723,16634 9675,16634 9628,16634 9581,16634 9533,16634 9477,16837 9524,16932 9675,16924 9723,16918 9769,16916 9817,16916 9959,16916 10101,16916 10243,16916 10291,16916 10337,16916 10385,16916 10385,16869 10372,16832 10349,16804 Z"/></g><g style="stroke:none;fill:rgb(152,53,1)"><path d="M 9796,16994 L 9796,16994 C 9810,16989 9817,16964 9817,16916 9769,16916 9723,16918 9675,16924 9524,16932 9477,16837 9533,16634 9581,16634 9628,16634 9675,16634 9675,16587 9666,16558 9647,16550 9570,16513 9485,16493 9391,16493 9343,16493 9301,16502 9263,16521 9207,16550 9155,16587 9107,16634 9136,16795 9221,16908 9363,16973 9382,16982 9391,17010 9391,17058 9533,17058 9668,17036 9796,16994 Z"/></g><g style="stroke:none;fill:rgb(195,35,10)"><path d="M 9817,16916 L 9817,16916 C 9817,16964 9810,16989 9796,16994 9668,17036 9533,17058 9391,17058 9343,17058 9298,17058 9249,17058 9155,17058 9059,17058 8966,17058 9368,17222 9888,17271 10527,17206 10574,17200 10621,17199 10669,17199 L 10669,17128 10669,17128 C 10470,17142 10376,17072 10385,16916 10337,16916 10291,16916 10243,16916 10101,16916 9959,16916 9817,16916 Z"/></g><g style="stroke:none;fill:rgb(183,16,3)"><path d="M 9391,16493 L 9391,16493 C 9391,16446 9391,16400 9391,16352 9391,16304 9379,16273 9356,16253 9138,16089 8866,15980 8539,15929 8539,15976 8545,16020 8553,16063 8605,16269 8553,16366 8397,16352 8397,16400 8397,16446 8397,16493 8761,16513 8951,16654 8966,16916 8966,16964 8966,17010 8966,17058 9059,17058 9155,17058 9249,17058 9298,17058 9343,17058 9391,17058 9391,17010 9382,16982 9363,16973 9221,16908 9136,16795 9107,16634 9155,16587 9207,16550 9263,16521 9301,16502 9343,16493 9391,16493 Z"/></g><g style="stroke:none;fill:rgb(255,255,255)"><path d="M 12514,13248 L 12514,13248 C 12514,13200 12514,13154 12514,13107 12818,13172 13020,13137 13125,13001 13145,12978 13176,12965 13224,12965 13224,12918 13224,12872 13224,12824 13224,12777 13212,12741 13189,12719 13004,12526 12732,12420 12372,12401 12372,12683 12395,12960 12444,13234 12444,13242 12467,13248 12514,13248 Z"/></g><g style="stroke:none;fill:rgb(121,112,112)"><path d="M 12514,13107 L 12514,13107 C 12514,13154 12514,13200 12514,13248 12779,13267 13006,13331 13196,13438 13215,13452 13224,13482 13224,13530 13273,13530 13310,13518 13338,13495 13517,13353 13480,13177 13224,12965 13176,12965 13145,12978 13125,13001 13020,13137 12818,13172 12514,13107 Z"/></g><g style="stroke:none;fill:rgb(220,41,41)"><path d="M 13224,12824 L 13224,12824 C 13224,12872 13224,12918 13224,12965 13573,12946 13740,13135 13721,13530 L 13792,13530 13792,13530 C 13840,13530 13863,13525 13863,13516 13943,13022 13730,12791 13224,12824 Z"/></g><g style="stroke:none;fill:rgb(255,255,255)"><path d="M 13338,13495 L 13338,13495 C 13310,13518 13273,13530 13224,13530 13224,13577 13224,13623 13224,13671 13224,13719 13224,13764 13224,13812 13527,13877 13708,13828 13771,13664 13785,13622 13792,13577 13792,13530 L 13721,13530 13721,13530 C 13740,13135 13573,12946 13224,12965 13480,13177 13517,13353 13338,13495 Z"/></g><g style="stroke:none;fill:rgb(0,0,0)"><path d="M 13224,13530 L 13224,13530 C 13224,13482 13215,13452 13196,13438 13006,13331 12779,13267 12514,13248 12609,13530 12800,13712 13089,13791 13132,13805 13176,13812 13224,13812 13224,13764 13224,13719 13224,13671 13224,13623 13224,13577 13224,13530 Z"/></g></g></g></g></svg>