<?xml version="1.0" encoding="UTF-8"?>
<!DOCTYPE svg PUBLIC "-//W3C//DTD SVG 1.1//EN" "http://www.w3.org/Graphics/SVG/1.1/DTD/svg11.dtd"><svg version="1.1" viewBox="0 0 21000 29700" preserveAspectRatio="xMidYMid" fill-rule="evenodd" xmlns="http://www.w3.org/2000/svg" xmlns:xlink="http://www.w3.org/1999/xlink"><g visibility="visible" id="Default"><desc>Master slide</desc><g style="stroke:none;fill:none"><rect x="0" y="0" width="21000" height="29700"/></g></g><g visibility="visible" id="page1"><desc>Slide</desc><g><desc>Graphic</desc><g><g style="stroke:none;fill:rgb(238,17,17)"><path d="M 12718,10850 L 12718,10850 C 12758,11106 12946,11233 13274,11233 13095,11088 12909,10961 12718,10850 Z"/></g><g style="stroke:none;fill:rgb(187,0,0)"><path d="M 13274,11233 L 13274,11233 C 12946,11233 12758,11106 12718,10850 12646,10808 12572,10767 12500,10730 12475,10730 12451,10730 12425,10730 12425,10823 12425,10919 12425,11012 12425,11060 12425,11106 12425,11153 12425,11201 12425,11247 12425,11294 12473,11294 12519,11294 12567,11294 13102,11328 13455,11555 13625,11979 13631,11993 13655,12000 13703,12000 13845,12093 13975,12199 14094,12317 14117,12340 14129,12376 14129,12423 14177,12423 14223,12423 14271,12423 14294,12423 14319,12423 14344,12423 14157,12127 13932,11846 13668,11584 13602,11520 13536,11458 13471,11398 13405,11340 13339,11286 13274,11233 Z"/></g><g style="stroke:none;fill:rgb(238,17,17)"><path d="M 12298,11182 L 12298,11182 C 12335,11162 12377,11153 12425,11153 12425,11106 12425,11060 12425,11012 12425,10919 12425,10823 12425,10730 12451,10730 12475,10730 12500,10730 12435,10696 12368,10666 12303,10637 11738,10386 11123,10261 10456,10263 9731,10261 9068,10407 8466,10702 8446,10711 8429,10721 8409,10730 8423,10730 8438,10730 8450,10730 8450,10778 8452,10823 8457,10871 8506,11204 8408,11393 8167,11436 8167,11483 8168,11529 8174,11577 8221,11958 7934,12240 7314,12423 7266,12423 7221,12423 7173,12423 7173,12471 7161,12508 7137,12536 6952,12771 6727,12968 6462,13129 6462,13081 6462,13035 6462,12988 6462,12894 6462,12799 6462,12705 6441,12705 6420,12707 6401,12713 6394,12725 6387,12737 6381,12750 L 6134,13342 6134,13342 C 6132,13346 6132,13349 6131,13355 6129,13358 6127,13362 6127,13365 6125,13370 6123,13374 6122,13379 6120,13385 6118,13390 6116,13395 6115,13399 6115,13402 6113,13406 6109,13416 6106,13427 6104,13437 5974,13857 5911,14304 5913,14778 5913,15616 6113,16371 6513,17043 10309,19602 13132,18981 14983,15177 14984,15140 14988,15104 14990,15067 14995,14972 14998,14875 14998,14778 14998,14660 14995,14545 14986,14431 14963,14083 14902,13753 14807,13437 14698,13079 14544,12743 14344,12423 14319,12423 14294,12423 14271,12423 14223,12423 14177,12423 14129,12423 14129,12376 14117,12340 14094,12317 13975,12199 13845,12093 13703,12000 13703,12048 13696,12092 13682,12134 13568,12436 13385,12437 13135,12141 13087,12141 13041,12143 12993,12148 12331,12185 11952,11949 11857,11436 L 11857,11436 C 12000,11342 12147,11257 12298,11182 Z"/></g><g style="stroke:none;fill:rgb(244,71,36)"><path d="M 12425,11153 L 12425,11153 C 12377,11153 12335,11162 12298,11182 12147,11257 12000,11342 11857,11436 11952,11949 12331,12185 12993,12148 13041,12143 13087,12141 13135,12141 13135,12093 13123,12058 13100,12035 12981,11917 12851,11811 12709,11718 12661,11718 12623,11730 12588,11753 12314,11931 12165,11825 12142,11436 12235,11436 12321,11416 12397,11379 12416,11370 12425,11342 12425,11294 12425,11247 12425,11201 12425,11153 Z"/></g><g style="stroke:none;fill:rgb(236,106,47)"><path d="M 12688,11584 L 12688,11584 C 12702,11626 12709,11670 12709,11718 12851,11811 12981,11917 13100,12035 13123,12058 13135,12093 13135,12141 13385,12437 13568,12436 13682,12134 13696,12092 13703,12048 13703,12000 13655,12000 13631,11993 13625,11979 13455,11555 13102,11328 12567,11294 12616,11388 12654,11485 12688,11584 Z"/></g><g style="stroke:none;fill:rgb(245,121,55)"><path d="M 12709,11718 L 12709,11718 C 12709,11670 12702,11626 12688,11584 12654,11485 12616,11388 12567,11294 12519,11294 12473,11294 12425,11294 12425,11342 12416,11370 12397,11379 12321,11416 12235,11436 12142,11436 12165,11825 12314,11931 12588,11753 12623,11730 12661,11718 12709,11718 Z"/></g><g style="stroke:none;fill:rgb(159,16,9)"><path d="M 8025,10950 L 8025,10950 C 8009,11007 7964,11037 7895,11039 7844,11074 7791,11111 7740,11150 7740,11152 7740,11152 7740,11153 7732,11309 7826,11379 8025,11365 L 8025,11436 8025,11436 C 8072,11436 8118,11436 8167,11436 8408,11393 8506,11204 8457,10871 8452,10823 8450,10778 8450,10730 8438,10730 8423,10730 8409,10730 8278,10797 8151,10871 8025,10950 Z"/></g><g style="stroke:none;fill:rgb(238,17,17)"><path d="M 7895,11039 L 7895,11039 C 7964,11037 8009,11007 8025,10950 L 7927,11016 7927,11016 C 7914,11023 7904,11030 7893,11039 L 7895,11039 Z"/><path d="M 7735,11153 L 7735,11153 C 7737,11153 7739,11153 7740,11153 7740,11152 7740,11152 7740,11150 7739,11152 7737,11152 7735,11153 Z"/></g><g style="stroke:none;fill:rgb(187,0,0)"><path d="M 7740,11153 L 7740,11153 C 7739,11153 7737,11153 7735,11153 7565,11282 7400,11427 7242,11584 7169,11656 7098,11732 7031,11808 6819,12044 6638,12293 6487,12556 6711,12460 6883,12316 7003,12120 7022,12086 7031,12048 7031,12000 7124,11952 7222,11914 7322,11880 7364,11866 7408,11859 7456,11859 7456,11811 7456,11765 7456,11718 7456,11670 7456,11624 7456,11577 7641,11571 7790,11536 7904,11471 7937,11448 7977,11436 8025,11436 L 8025,11365 8025,11365 C 7826,11379 7732,11309 7740,11153 Z"/></g><g style="stroke:none;fill:rgb(213,103,48)"><path d="M 7421,11965 L 7421,11965 C 7444,11942 7456,11906 7456,11859 7408,11859 7364,11866 7322,11880 7222,11914 7124,11952 7031,12000 7031,12048 7022,12086 7003,12120 6883,12316 6711,12460 6487,12556 6478,12568 6471,12582 6462,12598 6462,12633 6462,12668 6462,12705 6462,12799 6462,12894 6462,12988 6462,13035 6462,13081 6462,13129 6727,12968 6952,12771 7137,12536 7161,12508 7173,12471 7173,12423 7173,12376 7173,12330 7173,12282 7173,12235 7173,12189 7173,12141 7266,12093 7350,12035 7421,11965 Z"/></g><g style="stroke:none;fill:rgb(243,105,49)"><path d="M 7456,11859 L 7456,11859 C 7456,11906 7444,11942 7421,11965 7350,12035 7266,12093 7173,12141 7173,12189 7173,12235 7173,12282 7173,12330 7173,12376 7173,12423 7221,12423 7266,12423 7314,12423 7314,12376 7314,12330 7314,12282 7598,12093 7826,11854 7996,11563 8016,11525 8025,11483 8025,11436 7977,11436 7937,11448 7904,11471 7790,11536 7641,11571 7456,11577 7456,11624 7456,11670 7456,11718 7456,11765 7456,11811 7456,11859 Z"/></g><g style="stroke:none;fill:rgb(79,57,24)"><path d="M 6462,12705 L 6462,12705 C 6462,12668 6462,12633 6462,12598 6441,12635 6420,12674 6401,12713 6420,12707 6441,12705 6462,12705 Z"/></g><g style="stroke:none;fill:rgb(246,60,33)"><path d="M 7314,12282 L 7314,12282 C 7314,12330 7314,12376 7314,12423 7934,12240 8221,11958 8174,11577 8168,11529 8167,11483 8167,11436 8118,11436 8072,11436 8025,11436 8025,11483 8016,11525 7996,11563 7826,11854 7598,12093 7314,12282 Z"/></g><g style="stroke:none;fill:rgb(187,0,0)"><path d="M 6513,17043 L 6513,17043 C 6706,17366 6943,17671 7229,17956 7233,17962 7236,17965 7242,17971 7494,18221 7761,18436 8044,18616 8191,18710 8344,18792 8498,18868 8536,18886 8573,18904 8610,18919 9173,19168 9788,19293 10456,19293 11348,19293 12147,19071 12853,18625 13022,18517 13187,18397 13345,18265 13455,18172 13562,18075 13668,17971 13841,17796 13999,17616 14140,17429 14261,17267 14368,17099 14465,16926 14695,16508 14851,16062 14933,15584 14942,15529 14949,15473 14958,15417 14961,15381 14965,15346 14970,15311 14975,15267 14979,15221 14983,15177 13132,18981 10309,19602 6513,17043 Z"/></g><g style="stroke:none;fill:rgb(222,57,56)"><path d="M 13057,12471 L 13057,12471 C 13009,12471 12964,12471 12915,12471 12679,12471 12442,12471 12205,12471 12140,12818 12175,13065 12312,13212 12335,13235 12348,13270 12348,13318 12395,13270 12447,13233 12504,13205 12541,13185 12583,13177 12632,13177 12632,13129 12632,13083 12632,13035 12583,13035 12537,13034 12490,13028 12328,13005 12282,12866 12348,12612 12651,12547 12853,12582 12958,12718 12978,12741 13009,12753 13057,12753 13057,12706 13057,12660 13057,12612 13057,12564 13057,12519 13057,12471 Z"/></g><g style="stroke:none;fill:rgb(255,255,255)"><path d="M 13057,12753 L 13057,12753 C 13009,12753 12978,12741 12958,12718 12853,12582 12651,12547 12348,12612 12282,12866 12328,13005 12490,13028 12537,13034 12583,13035 12632,13035 13009,13013 13201,13178 13206,13529 13208,13552 13208,13575 13206,13600 13201,13647 13199,13693 13199,13741 13247,13741 13280,13729 13299,13706 13347,13647 13382,13589 13405,13529 13483,13326 13414,13115 13199,12894 13152,12894 13116,12882 13093,12859 13069,12836 13057,12801 13057,12753 Z"/></g><g style="stroke:none;fill:rgb(100,99,99)"><path d="M 12632,13035 L 12632,13035 C 12632,13083 12632,13129 12632,13177 12776,13270 12890,13388 12979,13529 12997,13556 13013,13584 13029,13614 13048,13651 13057,13693 13057,13741 13106,13741 13152,13741 13199,13741 13199,13693 13201,13647 13206,13600 13208,13575 13208,13552 13206,13529 13201,13178 13009,13013 12632,13035 Z"/></g><g style="stroke:none;fill:rgb(0,0,0)"><path d="M 12632,13177 L 12632,13177 C 12583,13177 12541,13185 12504,13205 12447,13233 12395,13270 12348,13318 12300,13318 12253,13318 12205,13318 12209,13397 12221,13468 12241,13529 12325,13789 12550,13909 12915,13889 12964,13884 13009,13882 13057,13882 13057,13834 13057,13789 13057,13741 13057,13693 13048,13651 13029,13614 13013,13584 12997,13556 12979,13529 12890,13388 12776,13270 12632,13177 Z"/></g><g style="stroke:none;fill:rgb(217,69,69)"><path d="M 13299,13706 L 13299,13706 C 13280,13729 13247,13741 13199,13741 13152,13741 13106,13741 13057,13741 13057,13789 13057,13834 13057,13882 13506,13873 13738,13755 13757,13529 13766,13429 13730,13305 13654,13162 13634,13125 13625,13083 13625,13035 13577,13035 13533,13028 13490,13014 13391,12981 13294,12942 13199,12894 13414,13115 13483,13326 13405,13529 13382,13589 13347,13647 13299,13706 Z"/></g><g style="stroke:none;fill:rgb(172,43,4)"><path d="M 11496,15293 L 11496,15293 C 11448,15293 11401,15293 11354,15293 10976,15293 10596,15293 10218,15293 10218,15341 10218,15387 10218,15434 10497,15584 10876,15634 11354,15582 11401,15577 11448,15575 11496,15575 11717,15778 12002,15914 12348,15985 12395,15993 12442,15999 12490,15999 12490,15951 12483,15926 12468,15921 12065,15775 11742,15567 11496,15293 Z"/></g><g style="stroke:none;fill:rgb(133,67,0)"><path d="M 11496,15575 L 11496,15575 C 11448,15575 11401,15577 11354,15582 10876,15634 10497,15584 10218,15434 10218,15482 10213,15507 10204,15512 10025,15554 9840,15575 9650,15575 9650,15623 9650,15669 9650,15716 9650,15764 9650,15810 9650,15858 9631,16112 9719,16274 9913,16344 9927,16350 9934,16374 9934,16422 10312,16422 10688,16445 11062,16493 11068,16493 11070,16516 11070,16563 11326,16281 11647,16251 12035,16471 12054,16486 12063,16516 12063,16563 12830,16600 13031,16491 12667,16232 12644,16217 12632,16187 12632,16140 12583,16140 12548,16127 12525,16105 12502,16082 12490,16046 12490,15999 12442,15999 12395,15993 12348,15985 12002,15914 11717,15778 11496,15575 Z"/></g><g style="stroke:none;fill:rgb(196,16,5)"><path d="M 11496,15152 L 11496,15152 C 11496,15200 11496,15246 11496,15293 11742,15567 12065,15775 12468,15921 12483,15926 12490,15951 12490,15999 12537,15999 12573,15986 12596,15963 12619,15940 12632,15905 12632,15858 12632,15810 12623,15780 12604,15766 12242,15545 11874,15341 11496,15152 Z"/></g><g style="stroke:none;fill:rgb(199,34,10)"><path d="M 12632,15858 L 12632,15858 C 12632,15905 12619,15940 12596,15963 12573,15986 12537,15999 12490,15999 12490,16046 12502,16082 12525,16105 12548,16127 12583,16140 12632,16140 12887,16075 13048,16112 13114,16253 13123,16272 13152,16281 13199,16281 13199,16233 13199,16187 13199,16140 13180,15750 12992,15655 12632,15858 Z"/></g><g style="stroke:none;fill:rgb(201,16,7)"><path d="M 8657,15999 L 8657,15999 C 8608,15999 8562,15997 8515,15992 8094,15955 7856,16097 7804,16422 7804,16611 7826,16794 7869,16972 7874,16981 7899,16986 7946,16986 7946,16939 7946,16893 7946,16845 7946,16798 7946,16752 7946,16704 8117,16450 8344,16244 8628,16083 8648,16075 8657,16046 8657,15999 Z"/></g><g style="stroke:none;fill:rgb(164,40,3)"><path d="M 8657,15858 L 8657,15858 C 8657,15905 8657,15951 8657,15999 8657,16046 8648,16075 8628,16083 8344,16244 8117,16450 7946,16704 7946,16752 7946,16798 7946,16845 7946,16893 7946,16939 7946,16986 7995,16986 8030,16999 8053,17022 8076,17045 8088,17080 8088,17128 8325,17128 8557,17105 8784,17057 8793,17057 8798,17034 8798,16986 8750,16986 8704,16988 8657,16994 8381,17031 8287,16888 8373,16563 8448,16357 8637,16262 8940,16281 8989,16281 9034,16281 9082,16281 9082,16233 9082,16187 9082,16140 9224,16046 9372,15962 9522,15886 9560,15866 9602,15858 9650,15858 9650,15810 9650,15764 9650,15716 9650,15669 9650,15623 9650,15575 9602,15575 9560,15584 9522,15604 9466,15632 9414,15669 9366,15716 9319,15716 9286,15729 9266,15752 9162,15888 8959,15923 8657,15858 Z"/></g><g style="stroke:none;fill:rgb(144,54,0)"><path d="M 9650,15858 L 9650,15858 C 9602,15858 9560,15866 9522,15886 9372,15962 9224,16046 9082,16140 9082,16187 9082,16233 9082,16281 9380,16262 9439,16366 9259,16591 9237,16620 9224,16657 9224,16704 9272,16704 9319,16704 9366,16704 9414,16704 9461,16704 9508,16704 9508,16657 9508,16611 9508,16563 9712,16625 9830,16583 9863,16436 9863,16427 9886,16422 9934,16422 9934,16374 9927,16350 9913,16344 9719,16274 9631,16112 9650,15858 Z"/></g><g style="stroke:none;fill:rgb(191,29,8)"><path d="M 9366,15575 L 9366,15575 C 9366,15623 9366,15669 9366,15716 9414,15669 9466,15632 9522,15604 9560,15584 9602,15575 9650,15575 9840,15575 10025,15554 10204,15512 10213,15507 10218,15482 10218,15434 10218,15387 10218,15341 10218,15293 10170,15293 10124,15291 10076,15286 9758,15258 9522,15307 9366,15434 9366,15482 9366,15528 9366,15575 Z"/></g><g style="stroke:none;fill:rgb(128,67,0)"><path d="M 9224,16704 L 9224,16704 C 9224,16657 9237,16620 9259,16591 9439,16366 9380,16262 9082,16281 9034,16281 8989,16281 8940,16281 8637,16262 8448,16357 8373,16563 8287,16888 8381,17031 8657,16994 8704,16988 8750,16986 8798,16986 8959,16958 9073,16874 9139,16732 9148,16713 9177,16704 9224,16704 Z"/></g><g style="stroke:none;fill:rgb(185,40,7)"><path d="M 9508,16563 L 9508,16563 C 9508,16611 9508,16657 9508,16704 9556,16704 9602,16704 9650,16704 9698,16704 9744,16704 9793,16704 10118,16600 10497,16597 10927,16690 10976,16699 11022,16704 11070,16704 11070,16657 11070,16611 11070,16563 11070,16516 11068,16493 11062,16493 10688,16445 10312,16422 9934,16422 9886,16422 9863,16427 9863,16436 9830,16583 9712,16625 9508,16563 Z"/></g><g style="stroke:none;fill:rgb(191,21,6)"><path d="M 9756,16810 L 9756,16810 C 9779,16787 9793,16752 9793,16704 9744,16704 9698,16704 9650,16704 9602,16704 9556,16704 9508,16704 9461,16704 9414,16704 9366,16704 9319,16704 9272,16704 9224,16704 9177,16704 9148,16713 9139,16732 9073,16874 8959,16958 8798,16986 8798,17034 8793,17057 8784,17057 8557,17105 8325,17128 8088,17128 8750,17362 9308,17256 9756,16810 Z"/></g><g style="stroke:none;fill:rgb(165,28,2)"><path d="M 13199,16281 L 13199,16281 C 13152,16281 13123,16272 13114,16253 13048,16112 12887,16075 12632,16140 12632,16187 12644,16217 12667,16232 13031,16491 12830,16600 12063,16563 12319,16986 12569,17045 12816,16740 12836,16717 12867,16704 12915,16704 13076,16676 13169,16583 13192,16422 13197,16374 13199,16329 13199,16281 Z"/></g><g style="stroke:none;fill:rgb(181,44,7)"><path d="M 12063,16563 L 12063,16563 C 12063,16516 12054,16486 12035,16471 11647,16251 11326,16281 11070,16563 11070,16611 11070,16657 11070,16704 11259,16704 11448,16704 11638,16704 11686,16704 11731,16704 11780,16704 11780,16657 11780,16611 11780,16563 11828,16563 11874,16563 11921,16563 11970,16563 12016,16563 12063,16563 Z"/></g><g style="stroke:none;fill:rgb(232,98,97)"><path d="M 8515,12330 L 8515,12330 C 8466,12330 8420,12330 8373,12330 8278,12330 8183,12330 8088,12330 8088,12378 8076,12413 8053,12436 8030,12459 7995,12471 7946,12471 7946,12519 7946,12564 7946,12612 8335,12508 8548,12600 8585,12887 8585,12893 8608,12894 8657,12894 8657,12847 8657,12801 8657,12753 8651,12570 8605,12429 8515,12330 Z"/></g><g style="stroke:none;fill:rgb(100,99,99)"><path d="M 7663,13600 L 7663,13600 C 7663,13647 7675,13683 7698,13706 7721,13729 7756,13741 7804,13741 7853,13741 7899,13741 7946,13741 7946,13693 7946,13647 7946,13600 7977,13573 8012,13549 8050,13529 8136,13485 8245,13462 8373,13459 8420,13459 8466,13459 8515,13459 8515,13411 8515,13365 8515,13318 8562,13318 8598,13305 8620,13282 8644,13259 8657,13224 8657,13177 8608,13177 8562,13177 8515,13177 8373,13177 8230,13177 8088,13177 8041,13177 7997,13184 7953,13198 7854,13231 7756,13270 7663,13318 7698,13388 7721,13459 7730,13529 7732,13552 7734,13577 7734,13600 L 7663,13600 Z"/></g><g style="stroke:none;fill:rgb(231,82,82)"><path d="M 7698,13706 L 7698,13706 C 7675,13683 7663,13647 7663,13600 7614,13600 7583,13612 7563,13635 7451,13774 7391,13739 7379,13529 7375,13471 7375,13401 7379,13318 7331,13318 7284,13318 7237,13318 7189,13318 7142,13318 7095,13318 7086,13397 7084,13468 7091,13529 7121,13845 7352,13940 7783,13819 7797,13813 7804,13789 7804,13741 7756,13741 7721,13729 7698,13706 Z"/></g><g style="stroke:none;fill:rgb(255,255,255)"><path d="M 7563,13635 L 7563,13635 C 7583,13612 7614,13600 7663,13600 L 7734,13600 7734,13600 C 7734,13577 7732,13552 7730,13529 7721,13459 7698,13388 7663,13318 7756,13270 7854,13231 7953,13198 7997,13184 8041,13177 8088,13177 8230,13177 8373,13177 8515,13177 8562,13177 8608,13177 8657,13177 8657,13129 8657,13083 8657,13035 8657,12988 8657,12942 8657,12894 8608,12894 8585,12893 8585,12887 8548,12600 8335,12508 7946,12612 7899,12612 7874,12617 7869,12626 7797,12917 7634,13101 7379,13177 7379,13224 7379,13270 7379,13318 7375,13401 7375,13471 7379,13529 7391,13739 7451,13774 7563,13635 Z"/></g><g style="stroke:none;fill:rgb(0,0,0)"><path d="M 8373,13459 L 8373,13459 C 8245,13462 8136,13485 8050,13529 8012,13549 7977,13573 7946,13600 7946,13647 7946,13693 7946,13741 8183,13972 8365,13923 8493,13593 8501,13572 8506,13550 8508,13529 8513,13506 8515,13483 8515,13459 8466,13459 8420,13459 8373,13459 Z"/></g></g></g></g></svg>