<?xml version="1.0" encoding="UTF-8"?>
<!DOCTYPE svg PUBLIC "-//W3C//DTD SVG 1.1//EN" "http://www.w3.org/Graphics/SVG/1.1/DTD/svg11.dtd"><svg version="1.1" viewBox="0 0 21000 29700" preserveAspectRatio="xMidYMid" fill-rule="evenodd" xmlns="http://www.w3.org/2000/svg" xmlns:xlink="http://www.w3.org/1999/xlink"><g visibility="visible" id="Default"><desc>Master slide</desc><g style="stroke:none;fill:none"><rect x="0" y="0" width="21000" height="29700"/></g></g><g visibility="visible" id="page1"><desc>Slide</desc><g><desc>Graphic</desc><g><g style="stroke:none;fill:rgb(238,17,17)"><path d="M 12718,10850 L 12718,10850 C 12758,11106 12946,11233 13274,11233 13095,11088 12909,10961 12718,10850 Z"/></g><g style="stroke:none;fill:rgb(187,0,0)"><path d="M 13274,11233 L 13274,11233 C 12946,11233 12758,11106 12718,10850 12646,10808 12572,10767 12500,10730 12475,10730 12451,10730 12425,10730 12425,10823 12425,10919 12425,11012 12425,11060 12425,11106 12425,11153 12425,11201 12425,11247 12425,11294 12473,11294 12519,11294 12567,11294 13102,11328 13455,11555 13625,11979 13631,11993 13655,12000 13703,12000 13845,12093 13975,12199 14094,12317 14117,12340 14129,12376 14129,12423 14177,12423 14223,12423 14271,12423 14294,12423 14319,12423 14344,12423 14157,12127 13932,11846 13668,11584 13602,11520 13536,11458 13471,11398 13405,11340 13339,11286 13274,11233 Z"/></g><g style="stroke:none;fill:rgb(238,17,17)"><path d="M 12298,11182 L 12298,11182 C 12335,11162 12377,11153 12425,11153 12425,11106 12425,11060 12425,11012 12425,10919 12425,10823 12425,10730 12451,10730 12475,10730 12500,10730 12435,10696 12368,10666 12303,10637 11738,10386 11123,10261 10456,10263 9731,10261 9068,10407 8466,10702 8446,10711 8429,10721 8409,10730 8423,10730 8438,10730 8450,10730 8450,10778 8452,10823 8457,10871 8506,11204 8408,11393 8167,11436 8167,11483 8168,11529 8174,11577 8221,11958 7934,12240 7314,12423 7266,12423 7221,12423 7173,12423 7173,12471 7161,12508 7137,12536 6952,12771 6727,12968 6462,13129 6462,13081 6462,13035 6462,12988 6462,12894 6462,12799 6462,12705 6441,12705 6420,12707 6401,12713 6394,12725 6387,12737 6381,12750 L 6134,13342 6134,13342 C 6132,13346 6132,13349 6131,13355 6129,13358 6127,13362 6127,13365 6125,13370 6123,13374 6122,13379 6120,13385 6118,13390 6116,13395 6115,13399 6115,13402 6113,13406 6109,13416 6106,13427 6104,13437 5974,13857 5911,14304 5913,14778 5913,15616 6113,16371 6513,17043 10309,19602 13132,18981 14983,15177 14984,15140 14988,15104 14990,15067 14995,14972 14998,14875 14998,14778 14998,14660 14995,14545 14986,14431 14963,14083 14902,13753 14807,13437 14698,13079 14544,12743 14344,12423 14319,12423 14294,12423 14271,12423 14223,12423 14177,12423 14129,12423 14129,12376 14117,12340 14094,12317 13975,12199 13845,12093 13703,12000 13703,12048 13696,12092 13682,12134 13568,12436 13385,12437 13135,12141 13087,12141 13041,12143 12993,12148 12331,12185 11952,11949 11857,11436 L 11857,11436 C 12000,11342 12147,11257 12298,11182 Z"/></g><g style="stroke:none;fill:rgb(244,71,36)"><path d="M 12425,11153 L 12425,11153 C 12377,11153 12335,11162 12298,11182 12147,11257 12000,11342 11857,11436 11952,11949 12331,12185 12993,12148 13041,12143 13087,12141 13135,12141 13135,12093 13123,12058 13100,12035 12981,11917 12851,11811 12709,11718 12661,11718 12623,11730 12588,11753 12314,11931 12165,11825 12142,11436 12235,11436 12321,11416 12397,11379 12416,11370 12425,11342 12425,11294 12425,11247 12425,11201 12425,11153 Z"/></g><g style="stroke:none;fill:rgb(236,106,47)"><path d="M 12688,11584 L 12688,11584 C 12702,11626 12709,11670 12709,11718 12851,11811 12981,11917 13100,12035 13123,12058 13135,12093 13135,12141 13385,12437 13568,12436 13682,12134 13696,12092 13703,12048 13703,12000 13655,12000 13631,11993 13625,11979 13455,11555 13102,11328 12567,11294 12616,11388 12654,11485 12688,11584 Z"/></g><g style="stroke:none;fill:rgb(245,121,55)"><path d="M 12709,11718 L 12709,11718 C 12709,11670 12702,11626 12688,11584 12654,11485 12616,11388 12567,11294 12519,11294 12473,11294 12425,11294 12425,11342 12416,11370 12397,11379 12321,11416 12235,11436 12142,11436 12165,11825 12314,11931 12588,11753 12623,11730 12661,11718 12709,11718 Z"/></g><g style="stroke:none;fill:rgb(159,16,9)"><path d="M 8025,10950 L 8025,10950 C 8009,11007 7964,11037 7895,11039 7844,11074 7791,11111 7740,11150 7740,11152 7740,11152 7740,11153 7732,11309 7826,11379 8025,11365 L 8025,11436 8025,11436 C 8072,11436 8118,11436 8167,11436 8408,11393 8506,11204 8457,10871 8452,10823 8450,10778 8450,10730 8438,10730 8423,10730 8409,10730 8278,10797 8151,10871 8025,10950 Z"/></g><g style="stroke:none;fill:rgb(238,17,17)"><path d="M 7895,11039 L 7895,11039 C 7964,11037 8009,11007 8025,10950 L 7927,11016 7927,11016 C 7914,11023 7904,11030 7893,11039 L 7895,11039 Z"/><path d="M 7735,11153 L 7735,11153 C 7737,11153 7739,11153 7740,11153 7740,11152 7740,11152 7740,11150 7739,11152 7737,11152 7735,11153 Z"/></g><g style="stroke:none;fill:rgb(187,0,0)"><path d="M 7740,11153 L 7740,11153 C 7739,11153 7737,11153 7735,11153 7565,11282 7400,11427 7242,11584 7169,11656 7098,11732 7031,11808 6819,12044 6638,12293 6487,12556 6711,12460 6883,12316 7003,12120 7022,12086 7031,12048 7031,12000 7124,11952 7222,11914 7322,11880 7364,11866 7408,11859 7456,11859 7456,11811 7456,11765 7456,11718 7456,11670 7456,11624 7456,11577 7641,11571 7790,11536 7904,11471 7937,11448 7977,11436 8025,11436 L 8025,11365 8025,11365 C 7826,11379 7732,11309 7740,11153 Z"/></g><g style="stroke:none;fill:rgb(213,103,48)"><path d="M 7421,11965 L 7421,11965 C 7444,11942 7456,11906 7456,11859 7408,11859 7364,11866 7322,11880 7222,11914 7124,11952 7031,12000 7031,12048 7022,12086 7003,12120 6883,12316 6711,12460 6487,12556 6478,12568 6471,12582 6462,12598 6462,12633 6462,12668 6462,12705 6462,12799 6462,12894 6462,12988 6462,13035 6462,13081 6462,13129 6727,12968 6952,12771 7137,12536 7161,12508 7173,12471 7173,12423 7173,12376 7173,12330 7173,12282 7173,12235 7173,12189 7173,12141 7266,12093 7350,12035 7421,11965 Z"/></g><g style="stroke:none;fill:rgb(243,105,49)"><path d="M 7456,11859 L 7456,11859 C 7456,11906 7444,11942 7421,11965 7350,12035 7266,12093 7173,12141 7173,12189 7173,12235 7173,12282 7173,12330 7173,12376 7173,12423 7221,12423 7266,12423 7314,12423 7314,12376 7314,12330 7314,12282 7598,12093 7826,11854 7996,11563 8016,11525 8025,11483 8025,11436 7977,11436 7937,11448 7904,11471 7790,11536 7641,11571 7456,11577 7456,11624 7456,11670 7456,11718 7456,11765 7456,11811 7456,11859 Z"/></g><g style="stroke:none;fill:rgb(79,57,24)"><path d="M 6462,12705 L 6462,12705 C 6462,12668 6462,12633 6462,12598 6441,12635 6420,12674 6401,12713 6420,12707 6441,12705 6462,12705 Z"/></g><g style="stroke:none;fill:rgb(246,60,33)"><path d="M 7314,12282 L 7314,12282 C 7314,12330 7314,12376 7314,12423 7934,12240 8221,11958 8174,11577 8168,11529 8167,11483 8167,11436 8118,11436 8072,11436 8025,11436 8025,11483 8016,11525 7996,11563 7826,11854 7598,12093 7314,12282 Z"/></g><g style="stroke:none;fill:rgb(187,0,0)"><path d="M 6513,17043 L 6513,17043 C 6706,17366 6943,17671 7229,17956 7233,17962 7236,17965 7242,17971 7494,18221 7761,18436 8044,18616 8191,18710 8344,18792 8498,18868 8536,18886 8573,18904 8610,18919 9173,19168 9788,19293 10456,19293 11348,19293 12147,19071 12853,18625 13022,18517 13187,18397 13345,18265 13455,18172 13562,18075 13668,17971 13841,17796 13999,17616 14140,17429 14261,17267 14368,17099 14465,16926 14695,16508 14851,16062 14933,15584 14942,15529 14949,15473 14958,15417 14961,15381 14965,15346 14970,15311 14975,15267 14979,15221 14983,15177 13132,18981 10309,19602 6513,17043 Z"/></g><g style="stroke:none;fill:rgb(255,255,255)"><path d="M 12460,13355 L 12460,13355 C 12460,13399 12460,13445 12460,13491 12506,13491 12552,13491 12598,13491 12688,13491 12781,13491 12873,13491 12919,13491 12965,13491 13011,13491 13283,13454 13378,13593 13301,13909 13292,13949 13287,13994 13289,14039 13333,14039 13378,14036 13425,14027 13771,13958 13679,13688 13150,13217 13148,13172 13138,13136 13115,13113 13092,13090 13057,13080 13011,13080 12965,13080 12934,13069 12915,13046 12795,12895 12642,12905 12460,13080 12460,13172 12460,13263 12460,13355 Z"/></g><g style="stroke:none;fill:rgb(0,0,0)"><path d="M 12460,13491 L 12460,13491 C 12460,13537 12449,13572 12425,13595 12402,13618 12367,13628 12321,13628 12284,14122 12553,14285 13129,14115 13143,14110 13150,14085 13150,14039 13104,14039 13066,14029 13040,14006 12860,13868 12713,13697 12598,13491 12552,13491 12506,13491 12460,13491 Z"/></g><g style="stroke:none;fill:rgb(100,99,99)"><path d="M 12873,13491 L 12873,13491 C 12781,13491 12688,13491 12598,13491 12713,13697 12860,13868 13040,14006 13066,14029 13104,14039 13150,14039 13196,14039 13242,14039 13289,14039 13287,13994 13292,13949 13301,13909 13378,13593 13283,13454 13011,13491 12965,13491 12919,13491 12873,13491 Z"/></g><g style="stroke:none;fill:rgb(255,255,255)"><path d="M 7906,13080 L 7837,13080 7837,13080 C 7828,13350 7667,13441 7352,13355 7321,13844 7505,14115 7906,14170 7950,14175 7997,14177 8043,14177 8043,14131 8036,14087 8023,14046 7990,13949 7950,13856 7906,13766 7860,13766 7814,13768 7767,13773 7620,13782 7574,13687 7629,13491 7720,13491 7802,13473 7878,13436 7895,13427 7904,13399 7906,13355 8043,13355 8181,13355 8320,13355 8366,13355 8411,13355 8457,13355 8456,13309 8463,13265 8478,13224 8578,12909 8389,12859 7906,13080 Z"/></g><g style="stroke:none;fill:rgb(125,106,106)"><path d="M 7906,13355 L 7906,13355 C 7904,13399 7895,13427 7878,13436 7802,13473 7720,13491 7629,13491 7574,13687 7620,13782 7767,13773 7814,13768 7860,13766 7906,13766 8025,13655 8209,13607 8457,13621 8502,13627 8548,13628 8594,13628 8594,13583 8594,13537 8594,13491 8594,13445 8584,13411 8561,13389 8538,13366 8502,13353 8457,13355 8411,13355 8366,13355 8320,13355 8181,13355 8043,13355 7906,13355 Z"/></g><g style="stroke:none;fill:rgb(0,0,0)"><path d="M 8594,13628 L 8594,13628 C 8548,13628 8502,13627 8457,13621 8209,13607 8025,13655 7906,13766 7950,13856 7990,13949 8023,14046 8036,14087 8043,14131 8043,14177 8513,14300 8701,14163 8608,13766 8599,13720 8594,13674 8594,13628 Z"/></g><g style="stroke:none;fill:rgb(189,10,3)"><path d="M 12311,16319 L 12311,16319 C 12311,16363 12300,16393 12277,16407 11974,16617 11570,16724 11068,16730 11094,16885 11233,16936 11484,16881 11528,16872 11574,16867 11621,16867 11666,16867 11689,16872 11689,16881 11823,17465 11340,17689 10241,17553 10195,17552 10151,17559 10109,17573 9572,17769 9201,17626 8999,17141 9043,17095 9095,17058 9150,17031 9187,17012 9228,17003 9274,17005 9274,16959 9274,16913 9274,16867 9321,16867 9366,16867 9412,16867 9412,16821 9412,16775 9412,16730 9366,16730 9342,16723 9336,16708 9253,16488 9049,16403 8722,16454 8722,16500 8727,16544 8736,16585 8786,16786 8735,16880 8584,16867 8584,16913 8584,16959 8584,17005 8584,17049 8584,17095 8584,17141 8777,17634 9191,17906 9826,17957 9872,17963 9918,17964 9965,17964 9965,17918 9965,17873 9965,17827 L 9965,17827 C 10369,17634 10741,17626 11082,17800 11120,17818 11161,17827 11207,17827 11597,17881 11954,17693 12277,17257 12300,17225 12311,17186 12311,17141 12513,17068 12738,17001 12987,16943 12995,16938 13001,16913 13001,16867 12955,16867 12908,16872 12862,16881 12504,16954 12365,16813 12449,16454 12493,16454 12529,16444 12552,16421 12574,16398 12585,16363 12587,16319 12541,16319 12495,16319 12449,16319 12402,16319 12357,16319 12311,16319 Z"/></g><g style="stroke:none;fill:rgb(163,45,2)"><path d="M 12862,16881 L 12862,16881 C 12908,16872 12955,16867 13001,16867 13047,16865 13080,16855 13104,16832 13127,16809 13138,16775 13139,16730 13139,16684 13139,16638 13139,16592 13148,16308 12964,16218 12587,16319 12585,16363 12574,16398 12552,16421 12529,16444 12493,16454 12449,16454 12365,16813 12504,16954 12862,16881 Z"/></g><g style="stroke:none;fill:rgb(189,16,4)"><path d="M 12449,16319 L 12449,16319 C 12495,16319 12541,16319 12587,16319 12964,16218 13148,16308 13139,16592 13139,16638 13139,16684 13139,16730 13185,16730 13231,16730 13278,16730 13278,16684 13278,16638 13278,16592 13410,16227 13552,16081 13705,16153 13742,16172 13784,16181 13829,16181 14110,16296 14225,16068 14174,15502 14174,15497 14151,15495 14105,15495 14058,15495 14032,15504 14023,15523 13838,15957 13636,15994 13414,15633 13461,15587 13498,15536 13526,15481 13544,15444 13552,15403 13552,15357 13506,15357 13482,15364 13476,15379 13297,15867 12908,16135 12311,16181 12311,16225 12311,16271 12311,16319 12357,16319 12402,16319 12449,16319 Z"/></g><g style="stroke:none;fill:rgb(165,47,4)"><path d="M 14023,15523 L 14023,15523 C 14032,15504 14058,15495 14105,15495 14105,15449 14098,15405 14085,15364 13987,15066 13810,15019 13552,15222 13552,15266 13552,15311 13552,15357 13552,15403 13544,15444 13526,15481 13498,15536 13461,15587 13414,15633 13636,15994 13838,15957 14023,15523 Z"/></g><g style="stroke:none;fill:rgb(203,3,5)"><path d="M 13278,16592 L 13278,16592 C 13278,16638 13278,16684 13278,16730 13503,16839 13679,16700 13808,16312 13821,16269 13828,16225 13829,16181 13784,16181 13742,16172 13705,16153 13552,16081 13410,16227 13278,16592 Z"/></g><g style="stroke:none;fill:rgb(206,30,11)"><path d="M 6928,15084 L 6928,15084 C 6928,15130 6928,15176 6928,15222 7228,15199 7388,15333 7411,15625 7411,15629 7434,15631 7479,15633 7526,15678 7577,15715 7632,15742 7670,15761 7711,15770 7757,15770 7757,15724 7750,15680 7735,15640 7560,15155 7292,14969 6928,15084 Z"/></g><g style="stroke:none;fill:rgb(160,42,1)"><path d="M 6998,15894 L 6998,15894 C 6998,15902 7021,15906 7066,15906 7314,15971 7449,15925 7472,15770 7478,15722 7479,15677 7479,15633 7434,15631 7411,15629 7411,15625 7388,15333 7228,15199 6928,15222 6928,15449 6951,15673 6998,15894 Z"/></g><g style="stroke:none;fill:rgb(193,7,3)"><path d="M 8171,16181 L 8171,16181 C 8171,16135 8162,16095 8144,16058 8069,15911 7939,15814 7757,15770 7711,15770 7670,15761 7632,15742 7577,15715 7526,15678 7479,15633 7479,15677 7478,15722 7472,15770 7449,15925 7314,15971 7066,15906 7061,16460 7292,16775 7757,16853 7802,16862 7849,16867 7895,16867 7939,16821 7991,16784 8046,16758 8083,16738 8124,16730 8171,16730 8171,16684 8162,16656 8144,16647 8006,16583 7922,16474 7895,16319 7939,16271 7991,16234 8046,16208 8083,16188 8124,16179 8171,16181 Z"/></g><g style="stroke:none;fill:rgb(166,37,2)"><path d="M 8046,16208 L 8046,16208 C 7991,16234 7939,16271 7895,16319 7922,16474 8006,16583 8144,16647 8162,16656 8171,16684 8171,16730 8162,16880 8255,16931 8452,16881 8494,16872 8538,16867 8584,16867 8735,16880 8786,16786 8736,16585 8727,16544 8722,16500 8722,16454 8676,16454 8629,16451 8584,16442 8401,16405 8262,16317 8171,16181 8124,16179 8083,16188 8046,16208 Z"/></g><g style="stroke:none;fill:rgb(199,29,9)"><path d="M 8046,16758 L 8046,16758 C 7991,16784 7939,16821 7895,16867 7936,17100 8118,17194 8447,17148 8492,17142 8538,17141 8584,17141 8584,17095 8584,17049 8584,17005 8584,16959 8584,16913 8584,16867 8538,16867 8494,16872 8452,16881 8255,16931 8162,16880 8171,16730 8124,16730 8083,16738 8046,16758 Z"/></g><g style="stroke:none;fill:rgb(198,39,11)"><path d="M 9412,16730 L 9412,16730 C 9412,16775 9412,16821 9412,16867 9734,16867 10057,16867 10378,16867 10424,16867 10471,16867 10516,16867 10608,16867 10692,16850 10764,16813 10785,16804 10794,16775 10794,16730 10747,16730 10703,16724 10662,16716 10390,16643 9974,16647 9412,16730 Z"/></g><g style="stroke:none;fill:rgb(145,53,1)"><path d="M 9412,16867 L 9412,16867 C 9366,16867 9321,16867 9274,16867 9274,16913 9274,16959 9274,17005 9329,17407 9652,17567 10241,17485 L 10241,17553 10241,17553 C 11340,17689 11823,17465 11689,16881 11689,16872 11666,16867 11621,16867 11621,16911 11612,16940 11593,16948 11265,17126 10906,17100 10516,16867 10471,16867 10424,16867 10378,16867 10057,16867 9734,16867 9412,16867 Z"/></g><g style="stroke:none;fill:rgb(157,27,0)"><path d="M 9274,17005 L 9274,17005 C 9228,17003 9187,17012 9150,17031 9095,17058 9043,17095 8999,17141 9201,17626 9572,17769 10109,17573 10151,17559 10195,17552 10241,17553 L 10241,17485 10241,17485 C 9652,17567 9329,17407 9274,17005 Z"/></g><g style="stroke:none;fill:rgb(166,58,6)"><path d="M 10929,16730 L 10929,16730 C 10884,16730 10838,16730 10794,16730 10794,16775 10785,16804 10764,16813 10692,16850 10608,16867 10516,16867 10906,17100 11265,17126 11593,16948 11612,16940 11621,16911 11621,16867 11574,16867 11528,16872 11484,16881 11233,16936 11094,16885 11068,16730 11022,16730 10976,16730 10929,16730 Z"/></g><g style="stroke:none;fill:rgb(214,1,7)"><path d="M 11207,17827 L 11207,17827 C 11161,17827 11120,17818 11082,17800 10741,17626 10369,17634 9965,17827 9965,17873 9965,17918 9965,17964 10378,17964 10790,17941 11199,17896 11205,17896 11207,17873 11207,17827 Z"/></g></g></g></g></svg>