<?xml version="1.0" encoding="UTF-8"?>
<!DOCTYPE svg PUBLIC "-//W3C//DTD SVG 1.1//EN" "http://www.w3.org/Graphics/SVG/1.1/DTD/svg11.dtd"><svg version="1.1" viewBox="0 0 21000 29700" preserveAspectRatio="xMidYMid" fill-rule="evenodd" xmlns="http://www.w3.org/2000/svg" xmlns:xlink="http://www.w3.org/1999/xlink"><g visibility="visible" id="Default"><desc>Master slide</desc><g style="stroke:none;fill:none"><rect x="0" y="0" width="21000" height="29700"/></g></g><g visibility="visible" id="page1"><desc>Slide</desc><g><desc>Graphic</desc><g><g style="stroke:none;fill:rgb(238,17,17)"><path d="M 12718,10850 L 12718,10850 C 12758,11106 12946,11233 13274,11233 13095,11088 12909,10961 12718,10850 Z"/></g><g style="stroke:none;fill:rgb(187,0,0)"><path d="M 13274,11233 L 13274,11233 C 12946,11233 12758,11106 12718,10850 12646,10808 12572,10767 12500,10730 12475,10730 12451,10730 12425,10730 12425,10823 12425,10919 12425,11012 12425,11060 12425,11106 12425,11153 12425,11201 12425,11247 12425,11294 12473,11294 12519,11294 12567,11294 13102,11328 13455,11555 13625,11979 13631,11993 13655,12000 13703,12000 13845,12093 13975,12199 14094,12317 14117,12340 14129,12376 14129,12423 14177,12423 14223,12423 14271,12423 14294,12423 14319,12423 14344,12423 14157,12127 13932,11846 13668,11584 13602,11520 13536,11458 13471,11398 13405,11340 13339,11286 13274,11233 Z"/></g><g style="stroke:none;fill:rgb(238,17,17)"><path d="M 12298,11182 L 12298,11182 C 12335,11162 12377,11153 12425,11153 12425,11106 12425,11060 12425,11012 12425,10919 12425,10823 12425,10730 12451,10730 12475,10730 12500,10730 12435,10696 12368,10666 12303,10637 11738,10386 11123,10261 10456,10263 9731,10261 9068,10407 8466,10702 8446,10711 8429,10721 8409,10730 8423,10730 8438,10730 8450,10730 8450,10778 8452,10823 8457,10871 8506,11204 8408,11393 8167,11436 8167,11483 8168,11529 8174,11577 8221,11958 7934,12240 7314,12423 7266,12423 7221,12423 7173,12423 7173,12471 7161,12508 7137,12536 6952,12771 6727,12968 6462,13129 6462,13081 6462,13035 6462,12988 6462,12894 6462,12799 6462,12705 6441,12705 6420,12707 6401,12713 6394,12725 6387,12737 6381,12750 L 6134,13342 6134,13342 C 6132,13346 6132,13349 6131,13355 6129,13358 6127,13362 6127,13365 6125,13370 6123,13374 6122,13379 6120,13385 6118,13390 6116,13395 6115,13399 6115,13402 6113,13406 6109,13416 6106,13427 6104,13437 5974,13857 5911,14304 5913,14778 5913,15616 6113,16371 6513,17043 10309,19602 13132,18981 14983,15177 14984,15140 14988,15104 14990,15067 14995,14972 14998,14875 14998,14778 14998,14660 14995,14545 14986,14431 14963,14083 14902,13753 14807,13437 14698,13079 14544,12743 14344,12423 14319,12423 14294,12423 14271,12423 14223,12423 14177,12423 14129,12423 14129,12376 14117,12340 14094,12317 13975,12199 13845,12093 13703,12000 13703,12048 13696,12092 13682,12134 13568,12436 13385,12437 13135,12141 13087,12141 13041,12143 12993,12148 12331,12185 11952,11949 11857,11436 L 11857,11436 C 12000,11342 12147,11257 12298,11182 Z"/></g><g style="stroke:none;fill:rgb(244,71,36)"><path d="M 12425,11153 L 12425,11153 C 12377,11153 12335,11162 12298,11182 12147,11257 12000,11342 11857,11436 11952,11949 12331,12185 12993,12148 13041,12143 13087,12141 13135,12141 13135,12093 13123,12058 13100,12035 12981,11917 12851,11811 12709,11718 12661,11718 12623,11730 12588,11753 12314,11931 12165,11825 12142,11436 12235,11436 12321,11416 12397,11379 12416,11370 12425,11342 12425,11294 12425,11247 12425,11201 12425,11153 Z"/></g><g style="stroke:none;fill:rgb(236,106,47)"><path d="M 12688,11584 L 12688,11584 C 12702,11626 12709,11670 12709,11718 12851,11811 12981,11917 13100,12035 13123,12058 13135,12093 13135,12141 13385,12437 13568,12436 13682,12134 13696,12092 13703,12048 13703,12000 13655,12000 13631,11993 13625,11979 13455,11555 13102,11328 12567,11294 12616,11388 12654,11485 12688,11584 Z"/></g><g style="stroke:none;fill:rgb(245,121,55)"><path d="M 12709,11718 L 12709,11718 C 12709,11670 12702,11626 12688,11584 12654,11485 12616,11388 12567,11294 12519,11294 12473,11294 12425,11294 12425,11342 12416,11370 12397,11379 12321,11416 12235,11436 12142,11436 12165,11825 12314,11931 12588,11753 12623,11730 12661,11718 12709,11718 Z"/></g><g style="stroke:none;fill:rgb(159,16,9)"><path d="M 8025,10950 L 8025,10950 C 8009,11007 7964,11037 7895,11039 7844,11074 7791,11111 7740,11150 7740,11152 7740,11152 7740,11153 7732,11309 7826,11379 8025,11365 L 8025,11436 8025,11436 C 8072,11436 8118,11436 8167,11436 8408,11393 8506,11204 8457,10871 8452,10823 8450,10778 8450,10730 8438,10730 8423,10730 8409,10730 8278,10797 8151,10871 8025,10950 Z"/></g><g style="stroke:none;fill:rgb(238,17,17)"><path d="M 7895,11039 L 7895,11039 C 7964,11037 8009,11007 8025,10950 L 7927,11016 7927,11016 C 7914,11023 7904,11030 7893,11039 L 7895,11039 Z"/><path d="M 7735,11153 L 7735,11153 C 7737,11153 7739,11153 7740,11153 7740,11152 7740,11152 7740,11150 7739,11152 7737,11152 7735,11153 Z"/></g><g style="stroke:none;fill:rgb(187,0,0)"><path d="M 7740,11153 L 7740,11153 C 7739,11153 7737,11153 7735,11153 7565,11282 7400,11427 7242,11584 7169,11656 7098,11732 7031,11808 6819,12044 6638,12293 6487,12556 6711,12460 6883,12316 7003,12120 7022,12086 7031,12048 7031,12000 7124,11952 7222,11914 7322,11880 7364,11866 7408,11859 7456,11859 7456,11811 7456,11765 7456,11718 7456,11670 7456,11624 7456,11577 7641,11571 7790,11536 7904,11471 7937,11448 7977,11436 8025,11436 L 8025,11365 8025,11365 C 7826,11379 7732,11309 7740,11153 Z"/></g><g style="stroke:none;fill:rgb(213,103,48)"><path d="M 7421,11965 L 7421,11965 C 7444,11942 7456,11906 7456,11859 7408,11859 7364,11866 7322,11880 7222,11914 7124,11952 7031,12000 7031,12048 7022,12086 7003,12120 6883,12316 6711,12460 6487,12556 6478,12568 6471,12582 6462,12598 6462,12633 6462,12668 6462,12705 6462,12799 6462,12894 6462,12988 6462,13035 6462,13081 6462,13129 6727,12968 6952,12771 7137,12536 7161,12508 7173,12471 7173,12423 7173,12376 7173,12330 7173,12282 7173,12235 7173,12189 7173,12141 7266,12093 7350,12035 7421,11965 Z"/></g><g style="stroke:none;fill:rgb(243,105,49)"><path d="M 7456,11859 L 7456,11859 C 7456,11906 7444,11942 7421,11965 7350,12035 7266,12093 7173,12141 7173,12189 7173,12235 7173,12282 7173,12330 7173,12376 7173,12423 7221,12423 7266,12423 7314,12423 7314,12376 7314,12330 7314,12282 7598,12093 7826,11854 7996,11563 8016,11525 8025,11483 8025,11436 7977,11436 7937,11448 7904,11471 7790,11536 7641,11571 7456,11577 7456,11624 7456,11670 7456,11718 7456,11765 7456,11811 7456,11859 Z"/></g><g style="stroke:none;fill:rgb(79,57,24)"><path d="M 6462,12705 L 6462,12705 C 6462,12668 6462,12633 6462,12598 6441,12635 6420,12674 6401,12713 6420,12707 6441,12705 6462,12705 Z"/></g><g style="stroke:none;fill:rgb(246,60,33)"><path d="M 7314,12282 L 7314,12282 C 7314,12330 7314,12376 7314,12423 7934,12240 8221,11958 8174,11577 8168,11529 8167,11483 8167,11436 8118,11436 8072,11436 8025,11436 8025,11483 8016,11525 7996,11563 7826,11854 7598,12093 7314,12282 Z"/></g><g style="stroke:none;fill:rgb(187,0,0)"><path d="M 6513,17043 L 6513,17043 C 6706,17366 6943,17671 7229,17956 7233,17962 7236,17965 7242,17971 7494,18221 7761,18436 8044,18616 8191,18710 8344,18792 8498,18868 8536,18886 8573,18904 8610,18919 9173,19168 9788,19293 10456,19293 11348,19293 12147,19071 12853,18625 13022,18517 13187,18397 13345,18265 13455,18172 13562,18075 13668,17971 13841,17796 13999,17616 14140,17429 14261,17267 14368,17099 14465,16926 14695,16508 14851,16062 14933,15584 14942,15529 14949,15473 14958,15417 14961,15381 14965,15346 14970,15311 14975,15267 14979,15221 14983,15177 13132,18981 10309,19602 6513,17043 Z"/></g><g style="stroke:none;fill:rgb(245,65,69)"><path d="M 12781,12687 L 12781,12687 C 12781,12734 12781,12780 12781,12828 13102,12597 13329,12646 13462,12976 13482,13018 13491,13062 13491,13110 13538,13062 13575,13011 13604,12955 13624,12918 13633,12875 13633,12828 13633,12780 13633,12734 13633,12687 13584,12687 13549,12674 13526,12651 13503,12628 13491,12593 13491,12545 13443,12545 13398,12538 13356,12524 13109,12425 12917,12433 12781,12545 12781,12593 12781,12639 12781,12687 Z"/></g><g style="stroke:none;fill:rgb(231,51,51)"><path d="M 12213,13533 L 12213,13533 C 12165,13533 12119,13533 12071,13533 12221,14233 12541,14364 13029,13921 13052,13898 13064,13863 13064,13815 13017,13815 12974,13807 12937,13787 12880,13759 12829,13722 12781,13674 12732,13674 12697,13687 12674,13710 12427,13949 12275,13891 12213,13533 Z"/></g><g style="stroke:none;fill:rgb(255,255,255)"><path d="M 12213,13392 L 12213,13392 C 12213,13440 12213,13486 12213,13533 12275,13891 12427,13949 12674,13710 12697,13687 12732,13674 12781,13674 12781,13627 12781,13581 12781,13533 12781,13486 12772,13443 12752,13406 12724,13350 12687,13299 12639,13251 12590,13251 12546,13258 12504,13272 12409,13306 12312,13344 12213,13392 Z"/></g><g style="stroke:none;fill:rgb(0,0,0)"><path d="M 12781,13533 L 12781,13533 C 12781,13581 12781,13627 12781,13674 12829,13722 12880,13759 12937,13787 12974,13807 13017,13815 13064,13815 13468,13838 13633,13655 13561,13265 13561,13256 13538,13251 13491,13251 13443,13251 13396,13253 13348,13258 13108,13295 12917,13387 12781,13533 Z"/></g><g style="stroke:none;fill:rgb(177,176,176)"><path d="M 12752,13406 L 12752,13406 C 12772,13443 12781,13486 12781,13533 12917,13387 13108,13295 13348,13258 13396,13253 13443,13251 13491,13251 13491,13203 13491,13157 13491,13110 13443,13110 13396,13110 13348,13110 13159,13110 12971,13110 12781,13110 12732,13110 12687,13110 12639,13110 12639,13157 12639,13203 12639,13251 12687,13299 12724,13350 12752,13406 Z"/></g><g style="stroke:none;fill:rgb(255,255,255)"><path d="M 12781,12969 L 12781,12969 C 12781,13016 12781,13062 12781,13110 12971,13110 13159,13110 13348,13110 13396,13110 13443,13110 13491,13110 13491,13062 13482,13018 13462,12976 13329,12646 13102,12597 12781,12828 12781,12875 12781,12921 12781,12969 Z"/></g><g style="stroke:none;fill:rgb(168,18,0)"><path d="M 11787,16638 L 11787,16638 C 11787,16685 11778,16713 11758,16722 11682,16759 11597,16779 11503,16779 11503,16826 11515,16863 11538,16892 11742,17146 11588,17250 11077,17202 11029,17202 10985,17209 10942,17223 10848,17257 10750,17295 10651,17343 10987,17592 11324,17648 11659,17512 11696,17493 11739,17484 11787,17484 11787,17437 11787,17391 11787,17343 11787,17295 11787,17250 11787,17202 11949,17174 12000,17033 11944,16779 11934,16731 11928,16685 11928,16638 11881,16638 11835,16638 11787,16638 Z"/></g><g style="stroke:none;fill:rgb(193,39,9)"><path d="M 11758,16722 L 11758,16722 C 11778,16713 11787,16685 11787,16638 11739,16638 11695,16630 11652,16616 11240,16466 10717,16426 10083,16496 10083,16544 10083,16590 10083,16638 10629,16567 11057,16604 11375,16750 11412,16770 11455,16779 11503,16779 11597,16779 11682,16759 11758,16722 Z"/></g><g style="stroke:none;fill:rgb(199,2,2)"><path d="M 11928,16638 L 11928,16638 C 11928,16685 11934,16731 11944,16779 12000,17033 11949,17174 11787,17202 11787,17250 11787,17295 11787,17343 11835,17343 11881,17338 11928,17329 12041,17306 12337,17274 12816,17230 L 13196,16967 13196,16967 C 13273,16705 13370,16454 13491,16214 13443,16214 13403,16227 13370,16249 13034,16475 12553,16604 11928,16638 Z"/></g><g style="stroke:none;fill:rgb(186,1,1)"><path d="M 7776,16680 L 7776,16680 C 7799,16699 7812,16731 7812,16779 7860,16779 7895,16791 7918,16814 7941,16837 7953,16872 7953,16920 8002,16920 8039,16907 8067,16884 8513,16546 8332,16322 7528,16214 7556,16426 7639,16581 7776,16680 Z"/></g><g style="stroke:none;fill:rgb(204,5,5)"><path d="M 7812,16779 L 7812,16779 C 7812,16731 7799,16699 7776,16680 7639,16581 7556,16426 7528,16214 8332,16322 8513,16546 8067,16884 8039,16907 8002,16920 7953,16920 8209,17183 8534,17392 8926,17548 8940,17553 8947,17578 8947,17625 9251,17701 9537,17788 9807,17886 9849,17900 9893,17907 9941,17907 10021,17856 10163,17832 10367,17837 L 10367,17907 10367,17907 C 10912,17860 11375,17747 11758,17569 11778,17560 11787,17532 11787,17484 11739,17484 11696,17493 11659,17512 11324,17648 10987,17592 10651,17343 10603,17343 10557,17343 10509,17343 10462,17343 10415,17343 10367,17343 10367,17391 10360,17415 10346,17421 9446,17750 8933,17535 8806,16779 8854,16779 8900,16779 8947,16779 8947,16731 8947,16685 8947,16638 8900,16638 8870,16629 8855,16609 8708,16364 8502,16186 8238,16073 L 8238,16003 8238,16003 C 8006,16101 7675,16124 7244,16073 7249,16445 7393,16673 7677,16757 7720,16772 7764,16779 7812,16779 Z"/></g><g style="stroke:none;fill:rgb(181,8,0)"><path d="M 8947,16779 L 8947,16779 C 8900,16779 8854,16779 8806,16779 8933,17535 9446,17750 10346,17421 10360,17415 10367,17391 10367,17343 L 10367,17272 10367,17272 C 9823,17479 9396,17408 9089,17061 9042,17061 9013,17052 9005,17033 8968,16957 8947,16872 8947,16779 Z"/></g><g style="stroke:none;fill:rgb(188,35,8)"><path d="M 9089,16920 L 9089,16920 C 9089,16872 9089,16826 9089,16779 9245,16652 9482,16602 9800,16630 9847,16636 9893,16638 9941,16638 9941,16590 9939,16567 9934,16567 9602,16519 9274,16496 8947,16496 8947,16544 8947,16590 8947,16638 8947,16685 8947,16731 8947,16779 8947,16872 8968,16957 9005,17033 9013,17052 9042,17061 9089,17061 9089,17013 9089,16967 9089,16920 Z"/></g><g style="stroke:none;fill:rgb(146,60,1)"><path d="M 9089,16779 L 9089,16779 C 9089,16826 9089,16872 9089,16920 9089,16967 9089,17013 9089,17061 9638,17027 10298,17052 11070,17131 11075,17131 11077,17154 11077,17202 11588,17250 11742,17146 11538,16892 11515,16863 11503,16826 11503,16779 11455,16779 11412,16770 11375,16750 11057,16604 10629,16567 10083,16638 10035,16638 9990,16638 9941,16638 9893,16638 9847,16636 9800,16630 9482,16602 9245,16652 9089,16779 Z"/></g><g style="stroke:none;fill:rgb(147,36,0)"><path d="M 11077,17202 L 11077,17202 C 11077,17154 11075,17131 11070,17131 10298,17052 9638,17027 9089,17061 9396,17408 9823,17479 10367,17272 L 10367,17343 10367,17343 C 10415,17343 10462,17343 10509,17343 10557,17343 10603,17343 10651,17343 10750,17295 10848,17257 10942,17223 10985,17209 11029,17202 11077,17202 Z"/></g><g style="stroke:none;fill:rgb(247,111,111)"><path d="M 7244,13251 L 7244,13251 C 7196,13251 7154,13260 7116,13279 7059,13307 7008,13344 6960,13392 6960,13440 6960,13486 6960,13533 7037,13740 7224,13835 7528,13815 7576,13815 7622,13815 7670,13815 7670,13768 7670,13722 7670,13674 7622,13674 7576,13673 7528,13667 7367,13644 7321,13505 7386,13251 7338,13251 7292,13251 7244,13251 Z"/></g><g style="stroke:none;fill:rgb(238,37,37)"><path d="M 6960,13533 L 6960,13533 C 6912,13533 6866,13533 6818,13533 7003,13985 7288,14133 7677,13978 7720,13964 7764,13956 7812,13956 7812,13909 7812,13863 7812,13815 7764,13815 7718,13815 7670,13815 7622,13815 7576,13815 7528,13815 7224,13835 7037,13740 6960,13533 Z"/></g><g style="stroke:none;fill:rgb(241,53,53)"><path d="M 7244,13110 L 7244,13110 C 7244,13157 7244,13203 7244,13251 7292,13251 7338,13251 7386,13251 7599,13228 7734,13131 7790,12962 7804,12919 7812,12875 7812,12828 7812,12780 7812,12734 7812,12687 8285,12593 8522,12734 8522,13110 8522,13157 8522,13203 8522,13251 8569,13251 8594,13246 8599,13237 8747,12678 8578,12399 8096,12404 L 8096,12334 8096,12334 C 7826,12582 7542,12842 7244,13110 Z"/></g><g style="stroke:none;fill:rgb(179,106,106)"><path d="M 7812,12687 L 7812,12687 C 7812,12734 7812,12780 7812,12828 7860,12828 7902,12836 7939,12856 8431,13073 8343,13299 7670,13533 7670,13581 7670,13627 7670,13674 7670,13722 7670,13768 7670,13815 7718,13815 7764,13815 7812,13815 7812,13768 7812,13722 7812,13674 8115,13646 8323,13514 8436,13279 8445,13260 8474,13251 8522,13251 8522,13203 8522,13157 8522,13110 8522,12734 8285,12593 7812,12687 Z"/></g><g style="stroke:none;fill:rgb(255,255,255)"><path d="M 7939,12856 L 7939,12856 C 7902,12836 7860,12828 7812,12828 7812,12875 7804,12919 7790,12962 7734,13131 7599,13228 7386,13251 7321,13505 7367,13644 7528,13667 7576,13673 7622,13674 7670,13674 7670,13627 7670,13581 7670,13533 8343,13299 8431,13073 7939,12856 Z"/></g><g style="stroke:none;fill:rgb(0,0,0)"><path d="M 8522,13251 L 8522,13251 C 8474,13251 8445,13260 8436,13279 8323,13514 8115,13646 7812,13674 7812,13722 7812,13768 7812,13815 7812,13863 7812,13909 7812,13956 8343,14061 8580,13872 8529,13392 8524,13344 8522,13299 8522,13251 Z"/></g></g></g></g></svg>