<?xml version="1.0" encoding="UTF-8"?>
<!DOCTYPE svg PUBLIC "-//W3C//DTD SVG 1.1//EN" "http://www.w3.org/Graphics/SVG/1.1/DTD/svg11.dtd"><svg version="1.1" viewBox="0 0 21000 29700" preserveAspectRatio="xMidYMid" fill-rule="evenodd" xmlns="http://www.w3.org/2000/svg" xmlns:xlink="http://www.w3.org/1999/xlink"><g visibility="visible" id="Default"><desc>Master slide</desc><g style="stroke:none;fill:none"><rect x="0" y="0" width="21000" height="29700"/></g></g><g visibility="visible" id="page1"><desc>Slide</desc><g><desc>Graphic</desc><g><g style="stroke:none;fill:rgb(238,17,17)"><path d="M 12718,10850 L 12718,10850 C 12758,11106 12946,11233 13274,11233 13095,11088 12909,10961 12718,10850 Z"/></g><g style="stroke:none;fill:rgb(187,0,0)"><path d="M 13274,11233 L 13274,11233 C 12946,11233 12758,11106 12718,10850 12646,10808 12572,10767 12500,10730 12475,10730 12451,10730 12425,10730 12425,10823 12425,10919 12425,11012 12425,11060 12425,11106 12425,11153 12425,11201 12425,11247 12425,11294 12473,11294 12519,11294 12567,11294 13102,11328 13455,11555 13625,11979 13631,11993 13655,12000 13703,12000 13845,12093 13975,12199 14094,12317 14117,12340 14129,12376 14129,12423 14177,12423 14223,12423 14271,12423 14294,12423 14319,12423 14344,12423 14157,12127 13932,11846 13668,11584 13602,11520 13536,11458 13471,11398 13405,11340 13339,11286 13274,11233 Z"/></g><g style="stroke:none;fill:rgb(238,17,17)"><path d="M 12298,11182 L 12298,11182 C 12335,11162 12377,11153 12425,11153 12425,11106 12425,11060 12425,11012 12425,10919 12425,10823 12425,10730 12451,10730 12475,10730 12500,10730 12435,10696 12368,10666 12303,10637 11738,10386 11123,10261 10456,10263 9731,10261 9068,10407 8466,10702 8446,10711 8429,10721 8409,10730 8423,10730 8438,10730 8450,10730 8450,10778 8452,10823 8457,10871 8506,11204 8408,11393 8167,11436 8167,11483 8168,11529 8174,11577 8221,11958 7934,12240 7314,12423 7266,12423 7221,12423 7173,12423 7173,12471 7161,12508 7137,12536 6952,12771 6727,12968 6462,13129 6462,13081 6462,13035 6462,12988 6462,12894 6462,12799 6462,12705 6441,12705 6420,12707 6401,12713 6394,12725 6387,12737 6381,12750 L 6134,13342 6134,13342 C 6132,13346 6132,13349 6131,13355 6129,13358 6127,13362 6127,13365 6125,13370 6123,13374 6122,13379 6120,13385 6118,13390 6116,13395 6115,13399 6115,13402 6113,13406 6109,13416 6106,13427 6104,13437 5974,13857 5911,14304 5913,14778 5913,15616 6113,16371 6513,17043 10309,19602 13132,18981 14983,15177 14984,15140 14988,15104 14990,15067 14995,14972 14998,14875 14998,14778 14998,14660 14995,14545 14986,14431 14963,14083 14902,13753 14807,13437 14698,13079 14544,12743 14344,12423 14319,12423 14294,12423 14271,12423 14223,12423 14177,12423 14129,12423 14129,12376 14117,12340 14094,12317 13975,12199 13845,12093 13703,12000 13703,12048 13696,12092 13682,12134 13568,12436 13385,12437 13135,12141 13087,12141 13041,12143 12993,12148 12331,12185 11952,11949 11857,11436 L 11857,11436 C 12000,11342 12147,11257 12298,11182 Z"/></g><g style="stroke:none;fill:rgb(244,71,36)"><path d="M 12425,11153 L 12425,11153 C 12377,11153 12335,11162 12298,11182 12147,11257 12000,11342 11857,11436 11952,11949 12331,12185 12993,12148 13041,12143 13087,12141 13135,12141 13135,12093 13123,12058 13100,12035 12981,11917 12851,11811 12709,11718 12661,11718 12623,11730 12588,11753 12314,11931 12165,11825 12142,11436 12235,11436 12321,11416 12397,11379 12416,11370 12425,11342 12425,11294 12425,11247 12425,11201 12425,11153 Z"/></g><g style="stroke:none;fill:rgb(236,106,47)"><path d="M 12688,11584 L 12688,11584 C 12702,11626 12709,11670 12709,11718 12851,11811 12981,11917 13100,12035 13123,12058 13135,12093 13135,12141 13385,12437 13568,12436 13682,12134 13696,12092 13703,12048 13703,12000 13655,12000 13631,11993 13625,11979 13455,11555 13102,11328 12567,11294 12616,11388 12654,11485 12688,11584 Z"/></g><g style="stroke:none;fill:rgb(245,121,55)"><path d="M 12709,11718 L 12709,11718 C 12709,11670 12702,11626 12688,11584 12654,11485 12616,11388 12567,11294 12519,11294 12473,11294 12425,11294 12425,11342 12416,11370 12397,11379 12321,11416 12235,11436 12142,11436 12165,11825 12314,11931 12588,11753 12623,11730 12661,11718 12709,11718 Z"/></g><g style="stroke:none;fill:rgb(159,16,9)"><path d="M 8025,10950 L 8025,10950 C 8009,11007 7964,11037 7895,11039 7844,11074 7791,11111 7740,11150 7740,11152 7740,11152 7740,11153 7732,11309 7826,11379 8025,11365 L 8025,11436 8025,11436 C 8072,11436 8118,11436 8167,11436 8408,11393 8506,11204 8457,10871 8452,10823 8450,10778 8450,10730 8438,10730 8423,10730 8409,10730 8278,10797 8151,10871 8025,10950 Z"/></g><g style="stroke:none;fill:rgb(238,17,17)"><path d="M 7895,11039 L 7895,11039 C 7964,11037 8009,11007 8025,10950 L 7927,11016 7927,11016 C 7914,11023 7904,11030 7893,11039 L 7895,11039 Z"/><path d="M 7735,11153 L 7735,11153 C 7737,11153 7739,11153 7740,11153 7740,11152 7740,11152 7740,11150 7739,11152 7737,11152 7735,11153 Z"/></g><g style="stroke:none;fill:rgb(187,0,0)"><path d="M 7740,11153 L 7740,11153 C 7739,11153 7737,11153 7735,11153 7565,11282 7400,11427 7242,11584 7169,11656 7098,11732 7031,11808 6819,12044 6638,12293 6487,12556 6711,12460 6883,12316 7003,12120 7022,12086 7031,12048 7031,12000 7124,11952 7222,11914 7322,11880 7364,11866 7408,11859 7456,11859 7456,11811 7456,11765 7456,11718 7456,11670 7456,11624 7456,11577 7641,11571 7790,11536 7904,11471 7937,11448 7977,11436 8025,11436 L 8025,11365 8025,11365 C 7826,11379 7732,11309 7740,11153 Z"/></g><g style="stroke:none;fill:rgb(213,103,48)"><path d="M 7421,11965 L 7421,11965 C 7444,11942 7456,11906 7456,11859 7408,11859 7364,11866 7322,11880 7222,11914 7124,11952 7031,12000 7031,12048 7022,12086 7003,12120 6883,12316 6711,12460 6487,12556 6478,12568 6471,12582 6462,12598 6462,12633 6462,12668 6462,12705 6462,12799 6462,12894 6462,12988 6462,13035 6462,13081 6462,13129 6727,12968 6952,12771 7137,12536 7161,12508 7173,12471 7173,12423 7173,12376 7173,12330 7173,12282 7173,12235 7173,12189 7173,12141 7266,12093 7350,12035 7421,11965 Z"/></g><g style="stroke:none;fill:rgb(243,105,49)"><path d="M 7456,11859 L 7456,11859 C 7456,11906 7444,11942 7421,11965 7350,12035 7266,12093 7173,12141 7173,12189 7173,12235 7173,12282 7173,12330 7173,12376 7173,12423 7221,12423 7266,12423 7314,12423 7314,12376 7314,12330 7314,12282 7598,12093 7826,11854 7996,11563 8016,11525 8025,11483 8025,11436 7977,11436 7937,11448 7904,11471 7790,11536 7641,11571 7456,11577 7456,11624 7456,11670 7456,11718 7456,11765 7456,11811 7456,11859 Z"/></g><g style="stroke:none;fill:rgb(79,57,24)"><path d="M 6462,12705 L 6462,12705 C 6462,12668 6462,12633 6462,12598 6441,12635 6420,12674 6401,12713 6420,12707 6441,12705 6462,12705 Z"/></g><g style="stroke:none;fill:rgb(246,60,33)"><path d="M 7314,12282 L 7314,12282 C 7314,12330 7314,12376 7314,12423 7934,12240 8221,11958 8174,11577 8168,11529 8167,11483 8167,11436 8118,11436 8072,11436 8025,11436 8025,11483 8016,11525 7996,11563 7826,11854 7598,12093 7314,12282 Z"/></g><g style="stroke:none;fill:rgb(187,0,0)"><path d="M 6513,17043 L 6513,17043 C 6706,17366 6943,17671 7229,17956 7233,17962 7236,17965 7242,17971 7494,18221 7761,18436 8044,18616 8191,18710 8344,18792 8498,18868 8536,18886 8573,18904 8610,18919 9173,19168 9788,19293 10456,19293 11348,19293 12147,19071 12853,18625 13022,18517 13187,18397 13345,18265 13455,18172 13562,18075 13668,17971 13841,17796 13999,17616 14140,17429 14261,17267 14368,17099 14465,16926 14695,16508 14851,16062 14933,15584 14942,15529 14949,15473 14958,15417 14961,15381 14965,15346 14970,15311 14975,15267 14979,15221 14983,15177 13132,18981 10309,19602 6513,17043 Z"/></g><g style="stroke:none;fill:rgb(197,4,4)"><path d="M 12453,12637 L 12453,12637 C 12404,12637 12369,12649 12346,12672 12014,12997 11577,13173 11033,13202 11033,13249 11045,13281 11068,13300 11579,13732 12041,13512 12453,12637 Z"/></g><g style="stroke:none;fill:rgb(195,6,4)"><path d="M 13183,15325 L 13183,15325 C 13169,15368 13162,15412 13162,15459 13162,15507 13169,15532 13183,15537 13837,15729 13829,15422 13162,14613 13257,14847 13264,15085 13183,15325 Z"/></g><g style="stroke:none;fill:rgb(178,39,6)"><path d="M 13162,15459 L 13162,15459 C 13162,15412 13169,15368 13183,15325 13264,15085 13257,14847 13162,14613 13115,14613 13068,14618 13020,14627 12830,14664 12642,14706 12453,14754 12495,15140 12685,15369 13020,15445 13068,15454 13115,15459 13162,15459 Z"/></g><g style="stroke:none;fill:rgb(197,34,10)"><path d="M 12736,16024 L 12736,16024 C 12736,15976 12727,15948 12708,15939 12282,15708 11961,15784 11742,16165 11742,16212 11742,16258 11742,16306 11791,16306 11837,16306 11884,16306 12021,16160 12211,16068 12453,16031 12500,16025 12546,16024 12594,16024 12642,16024 12688,16024 12736,16024 Z"/></g><g style="stroke:none;fill:rgb(151,56,2)"><path d="M 12566,16151 L 12566,16151 C 12585,16114 12594,16071 12594,16024 12546,16024 12500,16025 12453,16031 12211,16068 12021,16160 11884,16306 L 11884,16376 11884,16376 C 11280,16391 10854,16555 10606,16870 10559,16870 10520,16879 10486,16899 10259,17045 9920,17082 9471,17011 9471,17059 9458,17094 9435,17117 9412,17140 9377,17153 9329,17153 9329,17246 9329,17341 9329,17435 9329,17482 9329,17528 9329,17576 9760,17576 10186,17576 10606,17576 10655,17576 10701,17576 10748,17576 10748,17528 10748,17482 10748,17435 10891,17341 11038,17257 11189,17181 11226,17161 11268,17153 11317,17153 11317,17105 11317,17059 11317,17011 11907,16893 12325,16608 12566,16151 Z"/></g><g style="stroke:none;fill:rgb(157,26,0)"><path d="M 12594,16024 L 12594,16024 C 12594,16071 12585,16114 12566,16151 12325,16608 11907,16893 11317,17011 11317,17059 11317,17105 11317,17153 11635,17186 11877,17151 12048,17047 12081,17024 12121,17011 12169,17011 12169,16964 12169,16918 12169,16870 12476,16752 12660,16518 12722,16165 12731,16117 12736,16071 12736,16024 12688,16024 12642,16024 12594,16024 Z"/></g><g style="stroke:none;fill:rgb(189,5,2)"><path d="M 12736,16024 L 12736,16024 C 12736,16071 12731,16117 12722,16165 12660,16518 12476,16752 12169,16870 12169,16918 12169,16964 12169,17011 13063,16960 13285,16643 12836,16059 12816,16036 12785,16024 12736,16024 Z"/></g><g style="stroke:none;fill:rgb(193,40,10)"><path d="M 11884,16306 L 11884,16306 C 11837,16306 11791,16306 11742,16306 11695,16306 11650,16299 11608,16285 11414,16205 11127,16258 10748,16447 10748,16495 10740,16537 10720,16574 10692,16630 10655,16682 10606,16729 10606,16777 10606,16823 10606,16870 10854,16555 11280,16391 11884,16376 L 11884,16306 Z"/></g><g style="stroke:none;fill:rgb(192,8,3)"><path d="M 12169,17011 L 12169,17011 C 12121,17011 12081,17024 12048,17047 11877,17151 11635,17186 11317,17153 11268,17153 11226,17161 11189,17181 11038,17257 10891,17341 10748,17435 10748,17482 10748,17528 10748,17576 11283,17646 11744,17493 12133,17117 12156,17094 12169,17059 12169,17011 Z"/></g><g style="stroke:none;fill:rgb(184,24,3)"><path d="M 9471,17011 L 9471,17011 C 9423,17011 9400,17006 9400,16997 9366,16856 9249,16814 9045,16870 9045,16918 9045,16964 9045,17011 9050,17153 9050,17294 9045,17435 9045,17482 9045,17528 9045,17576 9093,17576 9140,17576 9187,17576 9235,17576 9281,17576 9329,17576 9329,17528 9329,17482 9329,17435 9329,17341 9329,17246 9329,17153 9377,17153 9412,17140 9435,17117 9458,17094 9471,17059 9471,17011 Z"/></g><g style="stroke:none;fill:rgb(194,5,2)"><path d="M 9045,17011 L 9045,17011 C 8998,17011 8952,17019 8910,17033 8621,17146 8336,17138 8051,17011 8032,17359 8316,17548 8903,17576 8951,17576 8998,17576 9045,17576 9045,17528 9045,17482 9045,17435 9050,17294 9050,17153 9045,17011 Z"/></g><g style="stroke:none;fill:rgb(246,12,18)"><path d="M 10472,16708 L 10472,16708 C 10515,16722 10559,16729 10606,16729 10655,16682 10692,16630 10720,16574 10740,16537 10748,16495 10748,16447 L 10748,16376 10748,16376 C 10441,16399 10109,16424 9755,16447 9988,16541 10225,16629 10472,16708 Z"/></g><g style="stroke:none;fill:rgb(198,33,10)"><path d="M 10323,17724 L 10323,17724 C 10371,17719 10417,17717 10465,17717 10513,17717 10559,17717 10606,17717 10655,17717 10701,17717 10748,17717 10748,17669 10748,17624 10748,17576 10701,17576 10655,17576 10606,17576 10186,17576 9760,17576 9329,17576 9281,17576 9235,17576 9187,17576 9140,17576 9093,17576 9045,17576 9358,17740 9783,17789 10323,17724 Z"/></g><g style="stroke:none;fill:rgb(197,4,4)"><path d="M 9105,13246 L 9105,13246 C 9058,13246 9022,13258 8999,13281 8667,13605 8231,13782 7686,13810 7686,13858 7698,13889 7721,13909 8232,14341 8694,14121 9105,13246 Z"/></g><g style="stroke:none;fill:rgb(244,18,18)"><path d="M 8336,16306 L 8336,16306 C 8336,16354 8344,16384 8364,16398 8690,16595 9059,16659 9471,16588 9471,16541 9458,16511 9435,16496 9186,16318 8818,16255 8336,16306 Z"/></g></g></g></g></svg>