<?xml version="1.0" encoding="UTF-8"?>
<!DOCTYPE svg PUBLIC "-//W3C//DTD SVG 1.1//EN" "http://www.w3.org/Graphics/SVG/1.1/DTD/svg11.dtd"><svg version="1.1" viewBox="0 0 21000 29700" preserveAspectRatio="xMidYMid" fill-rule="evenodd" xmlns="http://www.w3.org/2000/svg" xmlns:xlink="http://www.w3.org/1999/xlink"><g visibility="visible" id="Default"><desc>Master slide</desc><g style="stroke:none;fill:none"><rect x="0" y="0" width="21000" height="29700"/></g></g><g visibility="visible" id="page1"><desc>Slide</desc><g><desc>Graphic</desc><g><g style="stroke:none;fill:rgb(238,17,17)"><path d="M 12718,10850 L 12718,10850 C 12758,11106 12946,11233 13274,11233 13095,11088 12909,10961 12718,10850 Z"/></g><g style="stroke:none;fill:rgb(187,0,0)"><path d="M 13274,11233 L 13274,11233 C 12946,11233 12758,11106 12718,10850 12646,10808 12572,10767 12500,10730 12475,10730 12451,10730 12425,10730 12425,10823 12425,10919 12425,11012 12425,11060 12425,11106 12425,11153 12425,11201 12425,11247 12425,11294 12473,11294 12519,11294 12567,11294 13102,11328 13455,11555 13625,11979 13631,11993 13655,12000 13703,12000 13845,12093 13975,12199 14094,12317 14117,12340 14129,12376 14129,12423 14177,12423 14223,12423 14271,12423 14294,12423 14319,12423 14344,12423 14157,12127 13932,11846 13668,11584 13602,11520 13536,11458 13471,11398 13405,11340 13339,11286 13274,11233 Z"/></g><g style="stroke:none;fill:rgb(238,17,17)"><path d="M 12298,11182 L 12298,11182 C 12335,11162 12377,11153 12425,11153 12425,11106 12425,11060 12425,11012 12425,10919 12425,10823 12425,10730 12451,10730 12475,10730 12500,10730 12435,10696 12368,10666 12303,10637 11738,10386 11123,10261 10456,10263 9731,10261 9068,10407 8466,10702 8446,10711 8429,10721 8409,10730 8423,10730 8438,10730 8450,10730 8450,10778 8452,10823 8457,10871 8506,11204 8408,11393 8167,11436 8167,11483 8168,11529 8174,11577 8221,11958 7934,12240 7314,12423 7266,12423 7221,12423 7173,12423 7173,12471 7161,12508 7137,12536 6952,12771 6727,12968 6462,13129 6462,13081 6462,13035 6462,12988 6462,12894 6462,12799 6462,12705 6441,12705 6420,12707 6401,12713 6394,12725 6387,12737 6381,12750 L 6134,13342 6134,13342 C 6132,13346 6132,13349 6131,13355 6129,13358 6127,13362 6127,13365 6125,13370 6123,13374 6122,13379 6120,13385 6118,13390 6116,13395 6115,13399 6115,13402 6113,13406 6109,13416 6106,13427 6104,13437 5974,13857 5911,14304 5913,14778 5913,15616 6113,16371 6513,17043 10309,19602 13132,18981 14983,15177 14984,15140 14988,15104 14990,15067 14995,14972 14998,14875 14998,14778 14998,14660 14995,14545 14986,14431 14963,14083 14902,13753 14807,13437 14698,13079 14544,12743 14344,12423 14319,12423 14294,12423 14271,12423 14223,12423 14177,12423 14129,12423 14129,12376 14117,12340 14094,12317 13975,12199 13845,12093 13703,12000 13703,12048 13696,12092 13682,12134 13568,12436 13385,12437 13135,12141 13087,12141 13041,12143 12993,12148 12331,12185 11952,11949 11857,11436 L 11857,11436 C 12000,11342 12147,11257 12298,11182 Z"/></g><g style="stroke:none;fill:rgb(244,71,36)"><path d="M 12425,11153 L 12425,11153 C 12377,11153 12335,11162 12298,11182 12147,11257 12000,11342 11857,11436 11952,11949 12331,12185 12993,12148 13041,12143 13087,12141 13135,12141 13135,12093 13123,12058 13100,12035 12981,11917 12851,11811 12709,11718 12661,11718 12623,11730 12588,11753 12314,11931 12165,11825 12142,11436 12235,11436 12321,11416 12397,11379 12416,11370 12425,11342 12425,11294 12425,11247 12425,11201 12425,11153 Z"/></g><g style="stroke:none;fill:rgb(236,106,47)"><path d="M 12688,11584 L 12688,11584 C 12702,11626 12709,11670 12709,11718 12851,11811 12981,11917 13100,12035 13123,12058 13135,12093 13135,12141 13385,12437 13568,12436 13682,12134 13696,12092 13703,12048 13703,12000 13655,12000 13631,11993 13625,11979 13455,11555 13102,11328 12567,11294 12616,11388 12654,11485 12688,11584 Z"/></g><g style="stroke:none;fill:rgb(245,121,55)"><path d="M 12709,11718 L 12709,11718 C 12709,11670 12702,11626 12688,11584 12654,11485 12616,11388 12567,11294 12519,11294 12473,11294 12425,11294 12425,11342 12416,11370 12397,11379 12321,11416 12235,11436 12142,11436 12165,11825 12314,11931 12588,11753 12623,11730 12661,11718 12709,11718 Z"/></g><g style="stroke:none;fill:rgb(159,16,9)"><path d="M 8025,10950 L 8025,10950 C 8009,11007 7964,11037 7895,11039 7844,11074 7791,11111 7740,11150 7740,11152 7740,11152 7740,11153 7732,11309 7826,11379 8025,11365 L 8025,11436 8025,11436 C 8072,11436 8118,11436 8167,11436 8408,11393 8506,11204 8457,10871 8452,10823 8450,10778 8450,10730 8438,10730 8423,10730 8409,10730 8278,10797 8151,10871 8025,10950 Z"/></g><g style="stroke:none;fill:rgb(238,17,17)"><path d="M 7895,11039 L 7895,11039 C 7964,11037 8009,11007 8025,10950 L 7927,11016 7927,11016 C 7914,11023 7904,11030 7893,11039 L 7895,11039 Z"/><path d="M 7735,11153 L 7735,11153 C 7737,11153 7739,11153 7740,11153 7740,11152 7740,11152 7740,11150 7739,11152 7737,11152 7735,11153 Z"/></g><g style="stroke:none;fill:rgb(187,0,0)"><path d="M 7740,11153 L 7740,11153 C 7739,11153 7737,11153 7735,11153 7565,11282 7400,11427 7242,11584 7169,11656 7098,11732 7031,11808 6819,12044 6638,12293 6487,12556 6711,12460 6883,12316 7003,12120 7022,12086 7031,12048 7031,12000 7124,11952 7222,11914 7322,11880 7364,11866 7408,11859 7456,11859 7456,11811 7456,11765 7456,11718 7456,11670 7456,11624 7456,11577 7641,11571 7790,11536 7904,11471 7937,11448 7977,11436 8025,11436 L 8025,11365 8025,11365 C 7826,11379 7732,11309 7740,11153 Z"/></g><g style="stroke:none;fill:rgb(213,103,48)"><path d="M 7421,11965 L 7421,11965 C 7444,11942 7456,11906 7456,11859 7408,11859 7364,11866 7322,11880 7222,11914 7124,11952 7031,12000 7031,12048 7022,12086 7003,12120 6883,12316 6711,12460 6487,12556 6478,12568 6471,12582 6462,12598 6462,12633 6462,12668 6462,12705 6462,12799 6462,12894 6462,12988 6462,13035 6462,13081 6462,13129 6727,12968 6952,12771 7137,12536 7161,12508 7173,12471 7173,12423 7173,12376 7173,12330 7173,12282 7173,12235 7173,12189 7173,12141 7266,12093 7350,12035 7421,11965 Z"/></g><g style="stroke:none;fill:rgb(243,105,49)"><path d="M 7456,11859 L 7456,11859 C 7456,11906 7444,11942 7421,11965 7350,12035 7266,12093 7173,12141 7173,12189 7173,12235 7173,12282 7173,12330 7173,12376 7173,12423 7221,12423 7266,12423 7314,12423 7314,12376 7314,12330 7314,12282 7598,12093 7826,11854 7996,11563 8016,11525 8025,11483 8025,11436 7977,11436 7937,11448 7904,11471 7790,11536 7641,11571 7456,11577 7456,11624 7456,11670 7456,11718 7456,11765 7456,11811 7456,11859 Z"/></g><g style="stroke:none;fill:rgb(79,57,24)"><path d="M 6462,12705 L 6462,12705 C 6462,12668 6462,12633 6462,12598 6441,12635 6420,12674 6401,12713 6420,12707 6441,12705 6462,12705 Z"/></g><g style="stroke:none;fill:rgb(246,60,33)"><path d="M 7314,12282 L 7314,12282 C 7314,12330 7314,12376 7314,12423 7934,12240 8221,11958 8174,11577 8168,11529 8167,11483 8167,11436 8118,11436 8072,11436 8025,11436 8025,11483 8016,11525 7996,11563 7826,11854 7598,12093 7314,12282 Z"/></g><g style="stroke:none;fill:rgb(187,0,0)"><path d="M 6513,17043 L 6513,17043 C 6706,17366 6943,17671 7229,17956 7233,17962 7236,17965 7242,17971 7494,18221 7761,18436 8044,18616 8191,18710 8344,18792 8498,18868 8536,18886 8573,18904 8610,18919 9173,19168 9788,19293 10456,19293 11348,19293 12147,19071 12853,18625 13022,18517 13187,18397 13345,18265 13455,18172 13562,18075 13668,17971 13841,17796 13999,17616 14140,17429 14261,17267 14368,17099 14465,16926 14695,16508 14851,16062 14933,15584 14942,15529 14949,15473 14958,15417 14961,15381 14965,15346 14970,15311 14975,15267 14979,15221 14983,15177 13132,18981 10309,19602 6513,17043 Z"/></g><g style="stroke:none;fill:rgb(203,5,5)"><path d="M 13651,12713 L 13651,12642 13651,12642 C 13277,12693 12708,12812 11947,12995 11947,13043 11946,13089 11940,13136 11925,13390 12023,13531 12231,13559 12279,13559 12322,13568 12359,13588 12989,13907 13418,13992 13651,13842 13651,13794 13638,13762 13616,13743 13161,13385 13173,13043 13651,12713 Z"/></g><g style="stroke:none;fill:rgb(179,46,7)"><path d="M 12231,15253 L 12231,15253 C 12231,15205 12231,15159 12231,15112 12183,15112 12155,15103 12146,15083 11825,14496 11237,14364 10385,14688 10338,14688 10292,14688 10243,14688 10196,14688 10150,14688 10101,14688 10101,14736 10101,14782 10101,14829 10527,14829 10954,14829 11379,14829 11427,14829 11474,14829 11521,14829 11772,14956 11977,15133 12139,15359 12153,15382 12183,15394 12231,15394 12231,15346 12231,15300 12231,15253 Z"/></g><g style="stroke:none;fill:rgb(198,36,10)"><path d="M 12231,15112 L 12231,15112 C 12231,15159 12231,15205 12231,15253 12231,15300 12231,15346 12231,15394 12606,15724 12662,16151 12401,16678 12382,16715 12373,16757 12373,16805 12373,16853 12373,16898 12373,16946 12420,16946 12450,16937 12458,16918 12833,16128 12756,15526 12231,15112 Z"/></g><g style="stroke:none;fill:rgb(135,68,0)"><path d="M 12231,15394 L 12231,15394 C 12183,15394 12153,15382 12139,15359 11977,15133 11772,14956 11521,14829 11474,14829 11427,14829 11379,14829 10954,14829 10527,14829 10101,14829 10053,14829 10029,14836 10023,14851 9873,15246 9520,15427 8966,15394 8966,15441 8953,15479 8930,15507 8737,15733 8463,15882 8114,15958 8279,16500 8505,16976 8788,17391 8812,17424 8824,17463 8824,17510 8923,17652 9056,17764 9221,17849 9241,17858 9249,17886 9249,17934 9344,17981 9441,18020 9541,18054 9583,18068 9628,18075 9676,18075 9676,18027 9676,17981 9676,17934 10078,18010 10364,18017 10534,17955 10577,17941 10622,17934 10670,17934 10670,17886 10670,17840 10670,17793 10812,17699 10940,17593 11060,17475 11083,17452 11095,17417 11095,17369 11095,17322 11095,17276 11095,17228 11388,16814 11769,16669 12238,16791 L 12238,16791 C 12281,16800 12325,16805 12373,16805 12373,16757 12382,16715 12401,16678 12662,16151 12606,15724 12231,15394 Z"/></g><g style="stroke:none;fill:rgb(207,32,12)"><path d="M 9392,15112 L 9392,15112 C 9344,15112 9300,15106 9257,15098 8925,15018 8687,15022 8540,15112 8540,15205 8540,15300 8540,15394 8540,15441 8540,15487 8540,15535 8633,15487 8731,15449 8831,15415 8874,15401 8918,15394 8966,15394 8966,15346 8966,15300 8966,15253 9107,15253 9242,15232 9370,15189 9385,15184 9392,15159 9392,15112 Z"/></g><g style="stroke:none;fill:rgb(190,40,9)"><path d="M 9392,14971 L 9392,14971 C 9392,15018 9392,15064 9392,15112 9392,15159 9385,15184 9370,15189 9242,15232 9107,15253 8966,15253 8966,15300 8966,15346 8966,15394 9520,15427 9873,15246 10023,14851 10029,14836 10053,14829 10101,14829 10101,14782 10101,14736 10101,14688 10150,14688 10196,14688 10243,14688 10292,14688 10338,14688 10385,14688 L 10385,14618 10385,14618 C 10078,14641 9746,14665 9392,14688 9392,14782 9392,14877 9392,14971 Z"/></g><g style="stroke:none;fill:rgb(179,46,7)"><path d="M 8966,15394 L 8966,15394 C 8918,15394 8874,15401 8831,15415 8731,15449 8633,15487 8540,15535 8540,15583 8533,15607 8519,15613 8391,15655 8256,15676 8114,15676 8114,15724 8101,15759 8078,15782 8055,15805 8020,15817 7971,15817 7971,15865 7971,15911 7971,15958 8020,15958 8066,15958 8114,15958 8463,15882 8737,15733 8930,15507 8953,15479 8966,15441 8966,15394 Z"/></g><g style="stroke:none;fill:rgb(160,35,0)"><path d="M 10549,18110 L 10549,18110 C 10582,18087 10622,18075 10670,18075 10670,18027 10670,17981 10670,17934 10622,17934 10577,17941 10534,17955 10364,18017 10078,18010 9676,17934 9676,17981 9676,18027 9676,18075 9979,18287 10270,18299 10549,18110 Z"/></g><g style="stroke:none;fill:rgb(194,32,9)"><path d="M 10670,17934 L 10670,17934 C 10670,17981 10670,18027 10670,18075 10670,18123 10682,18158 10705,18181 10728,18204 10763,18216 10812,18216 10812,18168 10812,18123 10812,18075 10812,18027 10812,17981 10812,17934 10859,17934 10905,17934 10954,17934 10954,17886 10954,17840 10954,17793 11143,17699 11321,17590 11486,17468 11509,17449 11521,17417 11521,17369 11474,17369 11427,17369 11379,17369 11286,17369 11189,17369 11095,17369 11095,17417 11083,17452 11060,17475 10940,17593 10812,17699 10670,17793 10670,17840 10670,17886 10670,17934 Z"/></g><g style="stroke:none;fill:rgb(162,36,1)"><path d="M 11095,17369 L 11095,17369 C 11189,17369 11286,17369 11379,17369 11427,17369 11474,17369 11521,17369 11700,17172 11940,17036 12238,16960 12281,16951 12325,16946 12373,16946 12373,16898 12373,16853 12373,16805 12325,16805 12281,16800 12238,16791 11769,16669 11388,16814 11095,17228 11095,17276 11095,17322 11095,17369 Z"/></g><g style="stroke:none;fill:rgb(158,58,4)"><path d="M 8824,17510 L 8824,17510 C 8824,17463 8812,17424 8788,17391 8505,16976 8279,16500 8114,15958 8066,15958 8020,15958 7971,15958 7910,16584 8092,16981 8519,17151 8533,17156 8540,17181 8540,17228 8696,17219 8767,17313 8753,17510 L 8824,17510 Z"/></g><g style="stroke:none;fill:rgb(199,36,10)"><path d="M 8078,15782 L 8078,15782 C 8101,15759 8114,15724 8114,15676 8066,15676 8022,15683 7980,15697 7880,15731 7782,15770 7688,15817 7665,16447 7816,16905 8143,17193 8171,17216 8208,17228 8256,17228 8303,17228 8350,17228 8398,17228 8445,17228 8492,17228 8540,17228 8540,17181 8533,17156 8519,17151 8092,16981 7910,16584 7971,15958 7971,15911 7971,15865 7971,15817 8020,15817 8055,15805 8078,15782 Z"/></g><g style="stroke:none;fill:rgb(191,3,3)"><path d="M 8682,13559 L 8682,13559 C 8730,13559 8776,13559 8824,13559 8824,13512 8822,13466 8817,13418 8797,13113 8610,12972 8256,12995 8265,13268 8364,13447 8554,13531 8591,13551 8633,13559 8682,13559 Z"/></g><g style="stroke:none;fill:rgb(207,6,6)"><path d="M 8817,13418 L 8817,13418 C 8822,13466 8824,13512 8824,13559 L 8895,13559 8895,13559 C 8790,12958 8247,12535 7262,12290 7580,12708 7764,13037 7816,13277 7825,13325 7830,13371 7830,13418 7334,13602 7292,13826 7709,14089 7743,14112 7782,14124 7830,14124 8015,13884 8293,13722 8668,13637 8677,13632 8682,13607 8682,13559 8633,13559 8591,13551 8554,13531 8364,13447 8265,13268 8256,12995 8610,12972 8797,13113 8817,13418 Z"/></g></g></g></g></svg>