<?xml version="1.0" encoding="UTF-8"?>
<!DOCTYPE svg PUBLIC "-//W3C//DTD SVG 1.1//EN" "http://www.w3.org/Graphics/SVG/1.1/DTD/svg11.dtd"><svg version="1.1" viewBox="0 0 21000 29700" preserveAspectRatio="xMidYMid" fill-rule="evenodd" xmlns="http://www.w3.org/2000/svg" xmlns:xlink="http://www.w3.org/1999/xlink"><g visibility="visible" id="Default"><desc>Master slide</desc><g style="stroke:none;fill:none"><rect x="0" y="0" width="21000" height="29700"/></g></g><g visibility="visible" id="page1"><desc>Slide</desc><g><desc>Graphic</desc><g><g style="stroke:none;fill:rgb(238,17,17)"><path d="M 12718,10850 L 12718,10850 C 12758,11106 12946,11233 13274,11233 13095,11088 12909,10961 12718,10850 Z"/></g><g style="stroke:none;fill:rgb(187,0,0)"><path d="M 13274,11233 L 13274,11233 C 12946,11233 12758,11106 12718,10850 12646,10808 12572,10767 12500,10730 12475,10730 12451,10730 12425,10730 12425,10823 12425,10919 12425,11012 12425,11060 12425,11106 12425,11153 12425,11201 12425,11247 12425,11294 12473,11294 12519,11294 12567,11294 13102,11328 13455,11555 13625,11979 13631,11993 13655,12000 13703,12000 13845,12093 13975,12199 14094,12317 14117,12340 14129,12376 14129,12423 14177,12423 14223,12423 14271,12423 14294,12423 14319,12423 14344,12423 14157,12127 13932,11846 13668,11584 13602,11520 13536,11458 13471,11398 13405,11340 13339,11286 13274,11233 Z"/></g><g style="stroke:none;fill:rgb(238,17,17)"><path d="M 12298,11182 L 12298,11182 C 12335,11162 12377,11153 12425,11153 12425,11106 12425,11060 12425,11012 12425,10919 12425,10823 12425,10730 12451,10730 12475,10730 12500,10730 12435,10696 12368,10666 12303,10637 11738,10386 11123,10261 10456,10263 9731,10261 9068,10407 8466,10702 8446,10711 8429,10721 8409,10730 8423,10730 8438,10730 8450,10730 8450,10778 8452,10823 8457,10871 8506,11204 8408,11393 8167,11436 8167,11483 8168,11529 8174,11577 8221,11958 7934,12240 7314,12423 7266,12423 7221,12423 7173,12423 7173,12471 7161,12508 7137,12536 6952,12771 6727,12968 6462,13129 6462,13081 6462,13035 6462,12988 6462,12894 6462,12799 6462,12705 6441,12705 6420,12707 6401,12713 6394,12725 6387,12737 6381,12750 L 6134,13342 6134,13342 C 6132,13346 6132,13349 6131,13355 6129,13358 6127,13362 6127,13365 6125,13370 6123,13374 6122,13379 6120,13385 6118,13390 6116,13395 6115,13399 6115,13402 6113,13406 6109,13416 6106,13427 6104,13437 5974,13857 5911,14304 5913,14778 5913,15616 6113,16371 6513,17043 10309,19602 13132,18981 14983,15177 14984,15140 14988,15104 14990,15067 14995,14972 14998,14875 14998,14778 14998,14660 14995,14545 14986,14431 14963,14083 14902,13753 14807,13437 14698,13079 14544,12743 14344,12423 14319,12423 14294,12423 14271,12423 14223,12423 14177,12423 14129,12423 14129,12376 14117,12340 14094,12317 13975,12199 13845,12093 13703,12000 13703,12048 13696,12092 13682,12134 13568,12436 13385,12437 13135,12141 13087,12141 13041,12143 12993,12148 12331,12185 11952,11949 11857,11436 L 11857,11436 C 12000,11342 12147,11257 12298,11182 Z"/></g><g style="stroke:none;fill:rgb(244,71,36)"><path d="M 12425,11153 L 12425,11153 C 12377,11153 12335,11162 12298,11182 12147,11257 12000,11342 11857,11436 11952,11949 12331,12185 12993,12148 13041,12143 13087,12141 13135,12141 13135,12093 13123,12058 13100,12035 12981,11917 12851,11811 12709,11718 12661,11718 12623,11730 12588,11753 12314,11931 12165,11825 12142,11436 12235,11436 12321,11416 12397,11379 12416,11370 12425,11342 12425,11294 12425,11247 12425,11201 12425,11153 Z"/></g><g style="stroke:none;fill:rgb(236,106,47)"><path d="M 12688,11584 L 12688,11584 C 12702,11626 12709,11670 12709,11718 12851,11811 12981,11917 13100,12035 13123,12058 13135,12093 13135,12141 13385,12437 13568,12436 13682,12134 13696,12092 13703,12048 13703,12000 13655,12000 13631,11993 13625,11979 13455,11555 13102,11328 12567,11294 12616,11388 12654,11485 12688,11584 Z"/></g><g style="stroke:none;fill:rgb(245,121,55)"><path d="M 12709,11718 L 12709,11718 C 12709,11670 12702,11626 12688,11584 12654,11485 12616,11388 12567,11294 12519,11294 12473,11294 12425,11294 12425,11342 12416,11370 12397,11379 12321,11416 12235,11436 12142,11436 12165,11825 12314,11931 12588,11753 12623,11730 12661,11718 12709,11718 Z"/></g><g style="stroke:none;fill:rgb(159,16,9)"><path d="M 8025,10950 L 8025,10950 C 8009,11007 7964,11037 7895,11039 7844,11074 7791,11111 7740,11150 7740,11152 7740,11152 7740,11153 7732,11309 7826,11379 8025,11365 L 8025,11436 8025,11436 C 8072,11436 8118,11436 8167,11436 8408,11393 8506,11204 8457,10871 8452,10823 8450,10778 8450,10730 8438,10730 8423,10730 8409,10730 8278,10797 8151,10871 8025,10950 Z"/></g><g style="stroke:none;fill:rgb(238,17,17)"><path d="M 7895,11039 L 7895,11039 C 7964,11037 8009,11007 8025,10950 L 7927,11016 7927,11016 C 7914,11023 7904,11030 7893,11039 L 7895,11039 Z"/><path d="M 7735,11153 L 7735,11153 C 7737,11153 7739,11153 7740,11153 7740,11152 7740,11152 7740,11150 7739,11152 7737,11152 7735,11153 Z"/></g><g style="stroke:none;fill:rgb(187,0,0)"><path d="M 7740,11153 L 7740,11153 C 7739,11153 7737,11153 7735,11153 7565,11282 7400,11427 7242,11584 7169,11656 7098,11732 7031,11808 6819,12044 6638,12293 6487,12556 6711,12460 6883,12316 7003,12120 7022,12086 7031,12048 7031,12000 7124,11952 7222,11914 7322,11880 7364,11866 7408,11859 7456,11859 7456,11811 7456,11765 7456,11718 7456,11670 7456,11624 7456,11577 7641,11571 7790,11536 7904,11471 7937,11448 7977,11436 8025,11436 L 8025,11365 8025,11365 C 7826,11379 7732,11309 7740,11153 Z"/></g><g style="stroke:none;fill:rgb(213,103,48)"><path d="M 7421,11965 L 7421,11965 C 7444,11942 7456,11906 7456,11859 7408,11859 7364,11866 7322,11880 7222,11914 7124,11952 7031,12000 7031,12048 7022,12086 7003,12120 6883,12316 6711,12460 6487,12556 6478,12568 6471,12582 6462,12598 6462,12633 6462,12668 6462,12705 6462,12799 6462,12894 6462,12988 6462,13035 6462,13081 6462,13129 6727,12968 6952,12771 7137,12536 7161,12508 7173,12471 7173,12423 7173,12376 7173,12330 7173,12282 7173,12235 7173,12189 7173,12141 7266,12093 7350,12035 7421,11965 Z"/></g><g style="stroke:none;fill:rgb(243,105,49)"><path d="M 7456,11859 L 7456,11859 C 7456,11906 7444,11942 7421,11965 7350,12035 7266,12093 7173,12141 7173,12189 7173,12235 7173,12282 7173,12330 7173,12376 7173,12423 7221,12423 7266,12423 7314,12423 7314,12376 7314,12330 7314,12282 7598,12093 7826,11854 7996,11563 8016,11525 8025,11483 8025,11436 7977,11436 7937,11448 7904,11471 7790,11536 7641,11571 7456,11577 7456,11624 7456,11670 7456,11718 7456,11765 7456,11811 7456,11859 Z"/></g><g style="stroke:none;fill:rgb(79,57,24)"><path d="M 6462,12705 L 6462,12705 C 6462,12668 6462,12633 6462,12598 6441,12635 6420,12674 6401,12713 6420,12707 6441,12705 6462,12705 Z"/></g><g style="stroke:none;fill:rgb(246,60,33)"><path d="M 7314,12282 L 7314,12282 C 7314,12330 7314,12376 7314,12423 7934,12240 8221,11958 8174,11577 8168,11529 8167,11483 8167,11436 8118,11436 8072,11436 8025,11436 8025,11483 8016,11525 7996,11563 7826,11854 7598,12093 7314,12282 Z"/></g><g style="stroke:none;fill:rgb(187,0,0)"><path d="M 6513,17043 L 6513,17043 C 6706,17366 6943,17671 7229,17956 7233,17962 7236,17965 7242,17971 7494,18221 7761,18436 8044,18616 8191,18710 8344,18792 8498,18868 8536,18886 8573,18904 8610,18919 9173,19168 9788,19293 10456,19293 11348,19293 12147,19071 12853,18625 13022,18517 13187,18397 13345,18265 13455,18172 13562,18075 13668,17971 13841,17796 13999,17616 14140,17429 14261,17267 14368,17099 14465,16926 14695,16508 14851,16062 14933,15584 14942,15529 14949,15473 14958,15417 14961,15381 14965,15346 14970,15311 14975,15267 14979,15221 14983,15177 13132,18981 10309,19602 6513,17043 Z"/></g><g style="stroke:none;fill:rgb(199,4,5)"><path d="M 8261,11817 L 8261,11817 C 8233,11874 8195,11925 8148,11972 8148,12020 8148,12066 8148,12114 8138,12269 8233,12339 8431,12325 L 8431,12396 8431,12396 C 8480,12396 8517,12383 8545,12360 9165,11833 9079,11611 8289,11690 8289,11738 8280,11780 8261,11817 Z"/></g><g style="stroke:none;fill:rgb(122,5,5)"><path d="M 8318,12572 L 8318,12572 C 8346,12549 8383,12537 8431,12537 8431,12489 8431,12443 8431,12396 L 8431,12325 8431,12325 C 8233,12339 8138,12269 8148,12114 8099,12114 8053,12114 8006,12114 7911,12114 7816,12114 7722,12114 7722,12161 7713,12204 7693,12241 7665,12297 7627,12348 7579,12396 7716,12771 7962,12831 8318,12572 Z"/></g><g style="stroke:none;fill:rgb(198,8,8)"><path d="M 8431,12537 L 8431,12537 C 8383,12537 8346,12549 8318,12572 7962,12831 7716,12771 7579,12396 7532,12396 7489,12405 7451,12424 7395,12452 7344,12489 7295,12537 7295,12585 7295,12630 7295,12678 7295,12726 7308,12763 7331,12791 7511,13017 7451,13121 7154,13101 7414,13463 7828,13313 8396,12650 8419,12622 8431,12585 8431,12537 Z"/></g><g style="stroke:none;fill:rgb(210,0,6)"><path d="M 8857,13807 L 8857,13807 C 8857,13854 8857,13900 8857,13948 9089,14094 9416,14117 9837,14019 9839,14019 9842,14017 9844,14011 9849,14003 9851,13981 9851,13948 9851,13900 9849,13877 9844,13877 9518,13830 9189,13807 8857,13807 Z"/></g><g style="stroke:none;fill:rgb(193,6,3)"><path d="M 8573,14512 L 8573,14512 C 8621,14512 8668,14512 8715,14512 8715,14465 8715,14419 8715,14371 9100,14327 9477,14310 9844,14322 10492,14340 11113,14444 11704,14632 11746,14646 11791,14653 11839,14653 11839,14606 11826,14574 11803,14555 11212,14061 10561,13858 9851,13948 9851,13981 9849,14003 9844,14011 9842,14017 9839,14019 9837,14019 9416,14117 9089,14094 8857,13948 8810,13948 8765,13955 8722,13969 8481,14048 8148,14278 7722,14653 7722,14701 7722,14747 7722,14795 7769,14795 7804,14807 7828,14830 7851,14853 7864,14888 7864,14936 8143,14885 8348,14754 8481,14548 8496,14525 8526,14512 8573,14512 Z"/></g><g style="stroke:none;fill:rgb(135,67,0)"><path d="M 8715,14512 L 8715,14512 C 8668,14512 8621,14512 8573,14512 8573,14560 8561,14599 8538,14632 8325,14929 8099,15218 7864,15500 7787,16045 7871,16433 8112,16664 8135,16687 8148,16722 8148,16770 8148,16818 8148,16864 8148,16911 8536,16996 8793,17223 8921,17596 8926,17610 8951,17617 8999,17617 9228,17724 9509,17781 9844,17786 9981,17788 10125,17781 10276,17765 10325,17760 10371,17758 10419,17758 10915,17828 11299,17791 11569,17645 11607,17626 11649,17617 11697,17617 11697,17569 11697,17523 11697,17476 11796,17386 11938,17340 12123,17335 12170,17335 12216,17335 12264,17335 12264,17287 12264,17241 12264,17193 12264,17146 12264,17100 12264,17052 12313,17052 12348,17040 12371,17017 12394,16994 12406,16959 12406,16911 12406,16864 12406,16818 12406,16770 12600,16629 12696,16488 12690,16347 L 12690,16347 C 12690,16299 12690,16253 12690,16206 12690,16158 12681,16116 12662,16079 12539,15788 12406,15500 12264,15218 12264,15170 12252,15135 12229,15112 12158,15042 12074,14983 11981,14936 11932,14936 11888,14929 11846,14915 11542,14802 11256,14668 10987,14512 10938,14512 10894,14518 10852,14526 10522,14601 10187,14638 9844,14639 9475,14641 9098,14599 8715,14512 Z"/></g><g style="stroke:none;fill:rgb(160,31,0)"><path d="M 8715,14371 L 8715,14371 C 8715,14419 8715,14465 8715,14512 9098,14599 9475,14641 9844,14639 10187,14638 10522,14601 10852,14526 10894,14518 10938,14512 10987,14512 11256,14668 11542,14802 11846,14915 11888,14929 11932,14936 11981,14936 11981,14888 11972,14846 11953,14809 11923,14752 11886,14701 11839,14653 11791,14653 11746,14646 11704,14632 11113,14444 10492,14340 9844,14322 9477,14310 9100,14327 8715,14371 Z"/></g><g style="stroke:none;fill:rgb(165,30,1)"><path d="M 8573,14512 L 8573,14512 C 8526,14512 8496,14525 8481,14548 8348,14754 8143,14885 7864,14936 7864,15077 7864,15218 7864,15359 7864,15407 7864,15453 7864,15500 8099,15218 8325,14929 8538,14632 8561,14599 8573,14560 8573,14512 Z"/></g><g style="stroke:none;fill:rgb(206,8,6)"><path d="M 12229,15112 L 12229,15112 C 12252,15135 12264,15170 12264,15218 12425,15246 12539,15331 12606,15472 12614,15491 12643,15500 12690,15500 12738,15500 12785,15500 12832,15500 12832,15453 12824,15410 12804,15373 12611,15012 12288,14772 11839,14653 11886,14701 11923,14752 11953,14809 11972,14846 11981,14888 11981,14936 12074,14983 12158,15042 12229,15112 Z"/></g><g style="stroke:none;fill:rgb(168,34,2)"><path d="M 12606,15472 L 12606,15472 C 12539,15331 12425,15246 12264,15218 12406,15500 12539,15788 12662,16079 12681,16116 12690,16158 12690,16206 12738,16206 12764,16200 12769,16192 12845,15886 12818,15655 12690,15500 12643,15500 12614,15491 12606,15472 Z"/></g><g style="stroke:none;fill:rgb(189,39,7)"><path d="M 12690,16206 L 12690,16206 C 12690,16253 12690,16299 12690,16347 12696,16488 12600,16629 12406,16770 12406,16818 12406,16864 12406,16911 12648,16869 12825,16768 12939,16608 12962,16574 12974,16536 12974,16488 12974,16440 12976,16394 12982,16347 13043,15946 12994,15664 12832,15500 12785,15500 12738,15500 12690,15500 12818,15655 12845,15886 12769,16192 12764,16200 12738,16206 12690,16206 Z"/></g><g style="stroke:none;fill:rgb(195,2,2)"><path d="M 13080,16523 L 13080,16523 C 13057,16500 13022,16488 12974,16488 12974,16536 12962,16574 12939,16608 12825,16768 12648,16869 12406,16911 12406,16959 12394,16994 12371,17017 12348,17040 12313,17052 12264,17052 12264,17100 12264,17146 12264,17193 12264,17241 12264,17287 12264,17335 12264,17382 12264,17428 12264,17476 12274,17767 12085,17862 11697,17758 11697,17805 11684,17841 11661,17864 11638,17887 11602,17899 11554,17899 11554,17947 11542,17982 11519,18005 11496,18028 11461,18040 11412,18040 11412,18088 11404,18116 11384,18125 11207,18225 11058,18349 10935,18492 11006,18515 11082,18536 11166,18553 L 11911,18448 11911,18448 C 11960,18412 12009,18388 12062,18375 12132,18356 12200,18335 12267,18310 12366,18269 12460,18220 12550,18165 12575,18104 12607,18038 12646,17968 12666,17934 12685,17895 12703,17853 12722,17802 12748,17749 12783,17696 12820,17641 12857,17583 12896,17525 12875,17509 12854,17493 12832,17476 12871,17463 12908,17453 12945,17440 L 12945,17440 12976,17248 13047,17178 13047,17178 C 13047,17155 13047,17130 13047,17107 13047,17084 13052,17070 13061,17065 13092,17049 13110,17017 13117,16969 13125,16904 13150,16857 13189,16825 13175,16772 13189,16731 13229,16705 13189,16647 13140,16587 13080,16523 Z"/></g><g style="stroke:none;fill:rgb(212,26,11)"><path d="M 12264,17476 L 12264,17476 C 12264,17428 12264,17382 12264,17335 12216,17335 12170,17335 12123,17335 11938,17340 11796,17386 11697,17476 11697,17523 11697,17569 11697,17617 11697,17664 11697,17710 11697,17758 12085,17862 12274,17767 12264,17476 Z"/></g><g style="stroke:none;fill:rgb(192,43,10)"><path d="M 10419,17758 L 10419,17758 C 10371,17758 10325,17760 10276,17765 10125,17781 9981,17788 9844,17786 9509,17781 9228,17724 8999,17617 8942,17820 8985,17936 9126,17970 9136,17970 9142,17992 9142,18040 9375,18026 9609,18017 9844,18012 10320,18001 10796,18008 11270,18033 11319,18038 11365,18040 11412,18040 11461,18040 11496,18028 11519,18005 11542,17982 11554,17947 11554,17899 11507,17899 11461,17901 11412,17906 10964,17971 10632,17922 10419,17758 Z"/></g><g style="stroke:none;fill:rgb(175,51,7)"><path d="M 11697,17617 L 11697,17617 C 11649,17617 11607,17626 11569,17645 11299,17791 10915,17828 10419,17758 10632,17922 10964,17971 11412,17906 11461,17901 11507,17899 11554,17899 11602,17899 11638,17887 11661,17864 11684,17841 11697,17805 11697,17758 11697,17710 11697,17664 11697,17617 Z"/></g><g style="stroke:none;fill:rgb(186,40,7)"><path d="M 7864,14936 L 7864,14936 C 7864,14888 7851,14853 7828,14830 7804,14807 7769,14795 7722,14795 7722,14842 7727,14888 7736,14936 7792,15190 7741,15331 7579,15359 7400,16149 7544,16613 8013,16749 8055,16763 8099,16770 8148,16770 8148,16722 8135,16687 8112,16664 7871,16433 7787,16045 7864,15500 7864,15453 7864,15407 7864,15359 7864,15218 7864,15077 7864,14936 Z"/></g><g style="stroke:none;fill:rgb(207,34,12)"><path d="M 9028,18005 L 9028,18005 C 9056,18028 9093,18040 9142,18040 9142,17992 9136,17970 9126,17970 8985,17936 8942,17820 8999,17617 8951,17617 8926,17610 8921,17596 8793,17223 8536,16996 8148,16911 8332,17320 8624,17686 9028,18005 Z"/></g><g style="stroke:none;fill:rgb(121,7,7)"><path d="M 13542,12537 L 13542,12537 C 13542,12489 13542,12443 13542,12396 13542,12348 13542,12302 13542,12255 L 13535,12255 13535,12255 C 13491,12255 13445,12255 13400,12255 13352,12255 13317,12242 13294,12219 13115,12045 12912,12057 12690,12255 12690,12302 12690,12348 12690,12396 12671,12655 12727,12831 12861,12925 12889,12948 12927,12960 12974,12960 13310,13017 13496,12923 13535,12678 13542,12636 13544,12588 13542,12537 Z"/></g><g style="stroke:none;fill:rgb(202,6,7)"><path d="M 13542,12396 L 13542,12396 C 13542,12443 13542,12489 13542,12537 13544,12588 13542,12636 13535,12678 13496,12923 13310,13017 12974,12960 13210,13114 13396,13214 13535,13260 13863,13364 13922,13167 13712,12664 13693,12627 13684,12585 13684,12537 13684,12489 13672,12454 13649,12431 13626,12408 13591,12396 13542,12396 Z"/></g><g style="stroke:none;fill:rgb(196,10,7)"><path d="M 12371,11937 L 12371,11937 C 12348,11960 12313,11972 12264,11972 12293,12184 12390,12318 12555,12375 12599,12389 12643,12396 12690,12396 12690,12348 12690,12302 12690,12255 12912,12057 13115,12045 13294,12219 13317,12242 13352,12255 13400,12255 13400,12207 13391,12168 13372,12135 13215,11872 12894,11770 12406,11831 12406,11879 12394,11914 12371,11937 Z"/></g></g></g></g></svg>