<?xml version="1.0" encoding="UTF-8"?>
<!DOCTYPE svg PUBLIC "-//W3C//DTD SVG 1.1//EN" "http://www.w3.org/Graphics/SVG/1.1/DTD/svg11.dtd"><svg version="1.1" viewBox="0 0 21000 29700" preserveAspectRatio="xMidYMid" fill-rule="evenodd" xmlns="http://www.w3.org/2000/svg" xmlns:xlink="http://www.w3.org/1999/xlink"><g visibility="visible" id="Default"><desc>Master slide</desc><g style="stroke:none;fill:none"><rect x="0" y="0" width="21000" height="29700"/></g></g><g visibility="visible" id="page1"><desc>Slide</desc><g><desc>Graphic</desc><g><g style="stroke:none;fill:rgb(238,17,17)"><path d="M 12718,10850 L 12718,10850 C 12758,11106 12946,11233 13274,11233 13095,11088 12909,10961 12718,10850 Z"/></g><g style="stroke:none;fill:rgb(187,0,0)"><path d="M 13274,11233 L 13274,11233 C 12946,11233 12758,11106 12718,10850 12646,10808 12572,10767 12500,10730 12475,10730 12451,10730 12425,10730 12425,10823 12425,10919 12425,11012 12425,11060 12425,11106 12425,11153 12425,11201 12425,11247 12425,11294 12473,11294 12519,11294 12567,11294 13102,11328 13455,11555 13625,11979 13631,11993 13655,12000 13703,12000 13845,12093 13975,12199 14094,12317 14117,12340 14129,12376 14129,12423 14177,12423 14223,12423 14271,12423 14294,12423 14319,12423 14344,12423 14157,12127 13932,11846 13668,11584 13602,11520 13536,11458 13471,11398 13405,11340 13339,11286 13274,11233 Z"/></g><g style="stroke:none;fill:rgb(238,17,17)"><path d="M 12298,11182 L 12298,11182 C 12335,11162 12377,11153 12425,11153 12425,11106 12425,11060 12425,11012 12425,10919 12425,10823 12425,10730 12451,10730 12475,10730 12500,10730 12435,10696 12368,10666 12303,10637 11738,10386 11123,10261 10456,10263 9731,10261 9068,10407 8466,10702 8446,10711 8429,10721 8409,10730 8423,10730 8438,10730 8450,10730 8450,10778 8452,10823 8457,10871 8506,11204 8408,11393 8167,11436 8167,11483 8168,11529 8174,11577 8221,11958 7934,12240 7314,12423 7266,12423 7221,12423 7173,12423 7173,12471 7161,12508 7137,12536 6952,12771 6727,12968 6462,13129 6462,13081 6462,13035 6462,12988 6462,12894 6462,12799 6462,12705 6441,12705 6420,12707 6401,12713 6394,12725 6387,12737 6381,12750 L 6134,13342 6134,13342 C 6132,13346 6132,13349 6131,13355 6129,13358 6127,13362 6127,13365 6125,13370 6123,13374 6122,13379 6120,13385 6118,13390 6116,13395 6115,13399 6115,13402 6113,13406 6109,13416 6106,13427 6104,13437 5974,13857 5911,14304 5913,14778 5913,15616 6113,16371 6513,17043 10309,19602 13132,18981 14983,15177 14984,15140 14988,15104 14990,15067 14995,14972 14998,14875 14998,14778 14998,14660 14995,14545 14986,14431 14963,14083 14902,13753 14807,13437 14698,13079 14544,12743 14344,12423 14319,12423 14294,12423 14271,12423 14223,12423 14177,12423 14129,12423 14129,12376 14117,12340 14094,12317 13975,12199 13845,12093 13703,12000 13703,12048 13696,12092 13682,12134 13568,12436 13385,12437 13135,12141 13087,12141 13041,12143 12993,12148 12331,12185 11952,11949 11857,11436 L 11857,11436 C 12000,11342 12147,11257 12298,11182 Z"/></g><g style="stroke:none;fill:rgb(244,71,36)"><path d="M 12425,11153 L 12425,11153 C 12377,11153 12335,11162 12298,11182 12147,11257 12000,11342 11857,11436 11952,11949 12331,12185 12993,12148 13041,12143 13087,12141 13135,12141 13135,12093 13123,12058 13100,12035 12981,11917 12851,11811 12709,11718 12661,11718 12623,11730 12588,11753 12314,11931 12165,11825 12142,11436 12235,11436 12321,11416 12397,11379 12416,11370 12425,11342 12425,11294 12425,11247 12425,11201 12425,11153 Z"/></g><g style="stroke:none;fill:rgb(236,106,47)"><path d="M 12688,11584 L 12688,11584 C 12702,11626 12709,11670 12709,11718 12851,11811 12981,11917 13100,12035 13123,12058 13135,12093 13135,12141 13385,12437 13568,12436 13682,12134 13696,12092 13703,12048 13703,12000 13655,12000 13631,11993 13625,11979 13455,11555 13102,11328 12567,11294 12616,11388 12654,11485 12688,11584 Z"/></g><g style="stroke:none;fill:rgb(245,121,55)"><path d="M 12709,11718 L 12709,11718 C 12709,11670 12702,11626 12688,11584 12654,11485 12616,11388 12567,11294 12519,11294 12473,11294 12425,11294 12425,11342 12416,11370 12397,11379 12321,11416 12235,11436 12142,11436 12165,11825 12314,11931 12588,11753 12623,11730 12661,11718 12709,11718 Z"/></g><g style="stroke:none;fill:rgb(159,16,9)"><path d="M 8025,10950 L 8025,10950 C 8009,11007 7964,11037 7895,11039 7844,11074 7791,11111 7740,11150 7740,11152 7740,11152 7740,11153 7732,11309 7826,11379 8025,11365 L 8025,11436 8025,11436 C 8072,11436 8118,11436 8167,11436 8408,11393 8506,11204 8457,10871 8452,10823 8450,10778 8450,10730 8438,10730 8423,10730 8409,10730 8278,10797 8151,10871 8025,10950 Z"/></g><g style="stroke:none;fill:rgb(238,17,17)"><path d="M 7895,11039 L 7895,11039 C 7964,11037 8009,11007 8025,10950 L 7927,11016 7927,11016 C 7914,11023 7904,11030 7893,11039 L 7895,11039 Z"/><path d="M 7735,11153 L 7735,11153 C 7737,11153 7739,11153 7740,11153 7740,11152 7740,11152 7740,11150 7739,11152 7737,11152 7735,11153 Z"/></g><g style="stroke:none;fill:rgb(187,0,0)"><path d="M 7740,11153 L 7740,11153 C 7739,11153 7737,11153 7735,11153 7565,11282 7400,11427 7242,11584 7169,11656 7098,11732 7031,11808 6819,12044 6638,12293 6487,12556 6711,12460 6883,12316 7003,12120 7022,12086 7031,12048 7031,12000 7124,11952 7222,11914 7322,11880 7364,11866 7408,11859 7456,11859 7456,11811 7456,11765 7456,11718 7456,11670 7456,11624 7456,11577 7641,11571 7790,11536 7904,11471 7937,11448 7977,11436 8025,11436 L 8025,11365 8025,11365 C 7826,11379 7732,11309 7740,11153 Z"/></g><g style="stroke:none;fill:rgb(213,103,48)"><path d="M 7421,11965 L 7421,11965 C 7444,11942 7456,11906 7456,11859 7408,11859 7364,11866 7322,11880 7222,11914 7124,11952 7031,12000 7031,12048 7022,12086 7003,12120 6883,12316 6711,12460 6487,12556 6478,12568 6471,12582 6462,12598 6462,12633 6462,12668 6462,12705 6462,12799 6462,12894 6462,12988 6462,13035 6462,13081 6462,13129 6727,12968 6952,12771 7137,12536 7161,12508 7173,12471 7173,12423 7173,12376 7173,12330 7173,12282 7173,12235 7173,12189 7173,12141 7266,12093 7350,12035 7421,11965 Z"/></g><g style="stroke:none;fill:rgb(243,105,49)"><path d="M 7456,11859 L 7456,11859 C 7456,11906 7444,11942 7421,11965 7350,12035 7266,12093 7173,12141 7173,12189 7173,12235 7173,12282 7173,12330 7173,12376 7173,12423 7221,12423 7266,12423 7314,12423 7314,12376 7314,12330 7314,12282 7598,12093 7826,11854 7996,11563 8016,11525 8025,11483 8025,11436 7977,11436 7937,11448 7904,11471 7790,11536 7641,11571 7456,11577 7456,11624 7456,11670 7456,11718 7456,11765 7456,11811 7456,11859 Z"/></g><g style="stroke:none;fill:rgb(79,57,24)"><path d="M 6462,12705 L 6462,12705 C 6462,12668 6462,12633 6462,12598 6441,12635 6420,12674 6401,12713 6420,12707 6441,12705 6462,12705 Z"/></g><g style="stroke:none;fill:rgb(246,60,33)"><path d="M 7314,12282 L 7314,12282 C 7314,12330 7314,12376 7314,12423 7934,12240 8221,11958 8174,11577 8168,11529 8167,11483 8167,11436 8118,11436 8072,11436 8025,11436 8025,11483 8016,11525 7996,11563 7826,11854 7598,12093 7314,12282 Z"/></g><g style="stroke:none;fill:rgb(187,0,0)"><path d="M 6513,17043 L 6513,17043 C 6706,17366 6943,17671 7229,17956 7233,17962 7236,17965 7242,17971 7494,18221 7761,18436 8044,18616 8191,18710 8344,18792 8498,18868 8536,18886 8573,18904 8610,18919 9173,19168 9788,19293 10456,19293 11348,19293 12147,19071 12853,18625 13022,18517 13187,18397 13345,18265 13455,18172 13562,18075 13668,17971 13841,17796 13999,17616 14140,17429 14261,17267 14368,17099 14465,16926 14695,16508 14851,16062 14933,15584 14942,15529 14949,15473 14958,15417 14961,15381 14965,15346 14970,15311 14975,15267 14979,15221 14983,15177 13132,18981 10309,19602 6513,17043 Z"/></g><g style="stroke:none;fill:rgb(238,45,45)"><path d="M 12227,12935 L 12227,12935 C 12161,13237 12211,13417 12376,13478 12418,13493 12463,13500 12511,13500 12511,13452 12511,13406 12511,13359 12516,13217 12516,13076 12511,12935 12701,12935 12889,12935 13078,12935 13127,12935 13173,12935 13220,12935 13220,12888 13213,12863 13199,12858 12745,12688 12420,12715 12227,12935 Z"/></g><g style="stroke:none;fill:rgb(0,0,0)"><path d="M 12653,13641 L 12653,13641 C 12605,13641 12559,13641 12511,13641 12488,13946 12630,14091 12937,14071 12985,14066 13031,14064 13078,14064 13078,14016 13078,13971 13078,13923 13078,13875 13066,13840 13043,13817 12978,13747 12894,13688 12795,13641 12747,13641 12701,13641 12653,13641 Z"/></g><g style="stroke:none;fill:rgb(255,255,255)"><path d="M 12618,13535 L 12618,13535 C 12641,13558 12653,13593 12653,13641 12701,13641 12747,13641 12795,13641 12894,13688 12978,13747 13043,13817 13066,13840 13078,13875 13078,13923 13329,13985 13429,13889 13377,13641 13368,13593 13363,13547 13363,13500 13363,13452 13354,13410 13334,13373 13306,13316 13269,13265 13220,13217 13220,13170 13220,13124 13220,13076 13220,13029 13220,12983 13220,12935 13173,12935 13127,12935 13078,12935 12889,12935 12701,12935 12511,12935 12516,13076 12516,13217 12511,13359 12511,13406 12511,13452 12511,13500 12559,13500 12594,13512 12618,13535 Z"/></g><g style="stroke:none;fill:rgb(189,80,80)"><path d="M 13363,13500 L 13363,13500 C 13363,13547 13368,13593 13377,13641 13429,13889 13329,13985 13078,13923 13078,13971 13078,14016 13078,14064 13817,14027 13952,13851 13484,13535 13450,13512 13410,13500 13363,13500 Z"/></g><g style="stroke:none;fill:rgb(199,4,4)"><path d="M 11801,16322 L 11801,16251 11801,16251 C 10794,16313 9990,16336 9388,16322 9340,16322 9305,16334 9281,16357 8903,16705 8464,16929 7968,17027 8275,17555 8659,17705 9117,17479 9156,17459 9198,17451 9245,17451 9558,17338 9809,17161 9998,16921 10018,16899 10050,16886 10097,16886 10618,17036 11141,17043 11666,16907 11709,16893 11753,16886 11801,16886 12105,17054 12337,17211 12499,17357 L 12499,17357 12869,17357 12869,17147 12869,17147 C 12484,16906 12128,16630 11801,16322 Z"/></g><g style="stroke:none;fill:rgb(213,57,57)"><path d="M 7819,13359 L 7819,13359 C 7825,13311 7826,13265 7826,13217 7778,13217 7750,13226 7741,13246 7675,13387 7514,13424 7258,13359 7173,13819 7270,14094 7549,14184 7592,14198 7636,14205 7684,14205 7684,14158 7684,14112 7684,14064 7636,14064 7599,14052 7570,14029 7437,13935 7381,13759 7400,13500 7656,13565 7795,13519 7819,13359 Z"/></g><g style="stroke:none;fill:rgb(255,255,255)"><path d="M 7826,13217 L 7826,13217 C 7826,13265 7825,13311 7819,13359 7795,13519 7656,13565 7400,13500 7381,13759 7437,13935 7570,14029 7599,14052 7636,14064 7684,14064 7945,13895 8218,13734 8508,13584 8527,13575 8536,13547 8536,13500 8536,13452 8536,13406 8536,13359 8536,13311 8531,13265 8522,13217 8456,12873 8271,12828 7968,13076 7968,13124 7968,13170 7968,13217 7920,13217 7874,13217 7826,13217 Z"/></g><g style="stroke:none;fill:rgb(244,71,70)"><path d="M 7826,13076 L 7826,13076 C 7826,13124 7826,13170 7826,13217 7874,13217 7920,13217 7968,13217 7968,13170 7968,13124 7968,13076 8271,12828 8456,12873 8522,13217 8531,13265 8536,13311 8536,13359 L 8607,13359 8607,13359 C 8587,12588 8329,12447 7826,12935 7826,12983 7826,13029 7826,13076 Z"/></g><g style="stroke:none;fill:rgb(0,0,0)"><path d="M 8536,13500 L 8536,13500 C 8536,13547 8527,13575 8508,13584 8218,13734 7945,13895 7684,14064 7684,14112 7684,14158 7684,14205 8323,14473 8629,14239 8607,13500 L 8536,13500 Z"/></g></g></g></g></svg>