<?xml version="1.0" encoding="UTF-8"?>
<!DOCTYPE svg PUBLIC "-//W3C//DTD SVG 1.1//EN" "http://www.w3.org/Graphics/SVG/1.1/DTD/svg11.dtd"><svg version="1.1" viewBox="0 0 21000 29700" preserveAspectRatio="xMidYMid" fill-rule="evenodd" xmlns="http://www.w3.org/2000/svg" xmlns:xlink="http://www.w3.org/1999/xlink"><g visibility="visible" id="Default"><desc>Master slide</desc><g style="stroke:none;fill:none"><rect x="0" y="0" width="21000" height="29700"/></g></g><g visibility="visible" id="page1"><desc>Slide</desc><g><desc>Graphic</desc><g><g style="stroke:none;fill:rgb(238,17,17)"><path d="M 12718,10850 L 12718,10850 C 12758,11106 12946,11233 13274,11233 13095,11088 12909,10961 12718,10850 Z"/></g><g style="stroke:none;fill:rgb(187,0,0)"><path d="M 13274,11233 L 13274,11233 C 12946,11233 12758,11106 12718,10850 12646,10808 12572,10767 12500,10730 12475,10730 12451,10730 12425,10730 12425,10823 12425,10919 12425,11012 12425,11060 12425,11106 12425,11153 12425,11201 12425,11247 12425,11294 12473,11294 12519,11294 12567,11294 13102,11328 13455,11555 13625,11979 13631,11993 13655,12000 13703,12000 13845,12093 13975,12199 14094,12317 14117,12340 14129,12376 14129,12423 14177,12423 14223,12423 14271,12423 14294,12423 14319,12423 14344,12423 14157,12127 13932,11846 13668,11584 13602,11520 13536,11458 13471,11398 13405,11340 13339,11286 13274,11233 Z"/></g><g style="stroke:none;fill:rgb(238,17,17)"><path d="M 12298,11182 L 12298,11182 C 12335,11162 12377,11153 12425,11153 12425,11106 12425,11060 12425,11012 12425,10919 12425,10823 12425,10730 12451,10730 12475,10730 12500,10730 12435,10696 12368,10666 12303,10637 11738,10386 11123,10261 10456,10263 9731,10261 9068,10407 8466,10702 8446,10711 8429,10721 8409,10730 8423,10730 8438,10730 8450,10730 8450,10778 8452,10823 8457,10871 8506,11204 8408,11393 8167,11436 8167,11483 8168,11529 8174,11577 8221,11958 7934,12240 7314,12423 7266,12423 7221,12423 7173,12423 7173,12471 7161,12508 7137,12536 6952,12771 6727,12968 6462,13129 6462,13081 6462,13035 6462,12988 6462,12894 6462,12799 6462,12705 6441,12705 6420,12707 6401,12713 6394,12725 6387,12737 6381,12750 L 6134,13342 6134,13342 C 6132,13346 6132,13349 6131,13355 6129,13358 6127,13362 6127,13365 6125,13370 6123,13374 6122,13379 6120,13385 6118,13390 6116,13395 6115,13399 6115,13402 6113,13406 6109,13416 6106,13427 6104,13437 5974,13857 5911,14304 5913,14778 5913,15616 6113,16371 6513,17043 10309,19602 13132,18981 14983,15177 14984,15140 14988,15104 14990,15067 14995,14972 14998,14875 14998,14778 14998,14660 14995,14545 14986,14431 14963,14083 14902,13753 14807,13437 14698,13079 14544,12743 14344,12423 14319,12423 14294,12423 14271,12423 14223,12423 14177,12423 14129,12423 14129,12376 14117,12340 14094,12317 13975,12199 13845,12093 13703,12000 13703,12048 13696,12092 13682,12134 13568,12436 13385,12437 13135,12141 13087,12141 13041,12143 12993,12148 12331,12185 11952,11949 11857,11436 L 11857,11436 C 12000,11342 12147,11257 12298,11182 Z"/></g><g style="stroke:none;fill:rgb(244,71,36)"><path d="M 12425,11153 L 12425,11153 C 12377,11153 12335,11162 12298,11182 12147,11257 12000,11342 11857,11436 11952,11949 12331,12185 12993,12148 13041,12143 13087,12141 13135,12141 13135,12093 13123,12058 13100,12035 12981,11917 12851,11811 12709,11718 12661,11718 12623,11730 12588,11753 12314,11931 12165,11825 12142,11436 12235,11436 12321,11416 12397,11379 12416,11370 12425,11342 12425,11294 12425,11247 12425,11201 12425,11153 Z"/></g><g style="stroke:none;fill:rgb(236,106,47)"><path d="M 12688,11584 L 12688,11584 C 12702,11626 12709,11670 12709,11718 12851,11811 12981,11917 13100,12035 13123,12058 13135,12093 13135,12141 13385,12437 13568,12436 13682,12134 13696,12092 13703,12048 13703,12000 13655,12000 13631,11993 13625,11979 13455,11555 13102,11328 12567,11294 12616,11388 12654,11485 12688,11584 Z"/></g><g style="stroke:none;fill:rgb(245,121,55)"><path d="M 12709,11718 L 12709,11718 C 12709,11670 12702,11626 12688,11584 12654,11485 12616,11388 12567,11294 12519,11294 12473,11294 12425,11294 12425,11342 12416,11370 12397,11379 12321,11416 12235,11436 12142,11436 12165,11825 12314,11931 12588,11753 12623,11730 12661,11718 12709,11718 Z"/></g><g style="stroke:none;fill:rgb(159,16,9)"><path d="M 8025,10950 L 8025,10950 C 8009,11007 7964,11037 7895,11039 7844,11074 7791,11111 7740,11150 7740,11152 7740,11152 7740,11153 7732,11309 7826,11379 8025,11365 L 8025,11436 8025,11436 C 8072,11436 8118,11436 8167,11436 8408,11393 8506,11204 8457,10871 8452,10823 8450,10778 8450,10730 8438,10730 8423,10730 8409,10730 8278,10797 8151,10871 8025,10950 Z"/></g><g style="stroke:none;fill:rgb(238,17,17)"><path d="M 7895,11039 L 7895,11039 C 7964,11037 8009,11007 8025,10950 L 7927,11016 7927,11016 C 7914,11023 7904,11030 7893,11039 L 7895,11039 Z"/><path d="M 7735,11153 L 7735,11153 C 7737,11153 7739,11153 7740,11153 7740,11152 7740,11152 7740,11150 7739,11152 7737,11152 7735,11153 Z"/></g><g style="stroke:none;fill:rgb(187,0,0)"><path d="M 7740,11153 L 7740,11153 C 7739,11153 7737,11153 7735,11153 7565,11282 7400,11427 7242,11584 7169,11656 7098,11732 7031,11808 6819,12044 6638,12293 6487,12556 6711,12460 6883,12316 7003,12120 7022,12086 7031,12048 7031,12000 7124,11952 7222,11914 7322,11880 7364,11866 7408,11859 7456,11859 7456,11811 7456,11765 7456,11718 7456,11670 7456,11624 7456,11577 7641,11571 7790,11536 7904,11471 7937,11448 7977,11436 8025,11436 L 8025,11365 8025,11365 C 7826,11379 7732,11309 7740,11153 Z"/></g><g style="stroke:none;fill:rgb(213,103,48)"><path d="M 7421,11965 L 7421,11965 C 7444,11942 7456,11906 7456,11859 7408,11859 7364,11866 7322,11880 7222,11914 7124,11952 7031,12000 7031,12048 7022,12086 7003,12120 6883,12316 6711,12460 6487,12556 6478,12568 6471,12582 6462,12598 6462,12633 6462,12668 6462,12705 6462,12799 6462,12894 6462,12988 6462,13035 6462,13081 6462,13129 6727,12968 6952,12771 7137,12536 7161,12508 7173,12471 7173,12423 7173,12376 7173,12330 7173,12282 7173,12235 7173,12189 7173,12141 7266,12093 7350,12035 7421,11965 Z"/></g><g style="stroke:none;fill:rgb(243,105,49)"><path d="M 7456,11859 L 7456,11859 C 7456,11906 7444,11942 7421,11965 7350,12035 7266,12093 7173,12141 7173,12189 7173,12235 7173,12282 7173,12330 7173,12376 7173,12423 7221,12423 7266,12423 7314,12423 7314,12376 7314,12330 7314,12282 7598,12093 7826,11854 7996,11563 8016,11525 8025,11483 8025,11436 7977,11436 7937,11448 7904,11471 7790,11536 7641,11571 7456,11577 7456,11624 7456,11670 7456,11718 7456,11765 7456,11811 7456,11859 Z"/></g><g style="stroke:none;fill:rgb(79,57,24)"><path d="M 6462,12705 L 6462,12705 C 6462,12668 6462,12633 6462,12598 6441,12635 6420,12674 6401,12713 6420,12707 6441,12705 6462,12705 Z"/></g><g style="stroke:none;fill:rgb(246,60,33)"><path d="M 7314,12282 L 7314,12282 C 7314,12330 7314,12376 7314,12423 7934,12240 8221,11958 8174,11577 8168,11529 8167,11483 8167,11436 8118,11436 8072,11436 8025,11436 8025,11483 8016,11525 7996,11563 7826,11854 7598,12093 7314,12282 Z"/></g><g style="stroke:none;fill:rgb(187,0,0)"><path d="M 6513,17043 L 6513,17043 C 6706,17366 6943,17671 7229,17956 7233,17962 7236,17965 7242,17971 7494,18221 7761,18436 8044,18616 8191,18710 8344,18792 8498,18868 8536,18886 8573,18904 8610,18919 9173,19168 9788,19293 10456,19293 11348,19293 12147,19071 12853,18625 13022,18517 13187,18397 13345,18265 13455,18172 13562,18075 13668,17971 13841,17796 13999,17616 14140,17429 14261,17267 14368,17099 14465,16926 14695,16508 14851,16062 14933,15584 14942,15529 14949,15473 14958,15417 14961,15381 14965,15346 14970,15311 14975,15267 14979,15221 14983,15177 13132,18981 10309,19602 6513,17043 Z"/></g><g style="stroke:none;fill:rgb(200,11,6)"><path d="M 13533,13213 L 13533,13213 C 13524,13165 13519,13119 13519,13071 13471,13071 13425,13071 13376,13071 13283,13071 13187,13071 13093,13071 13220,13227 13247,13458 13171,13763 13166,13772 13141,13777 13093,13777 13093,13825 13093,13870 13093,13918 13093,13966 13093,14012 13093,14059 13141,14012 13192,13975 13248,13946 13286,13927 13329,13918 13376,13918 13376,13870 13376,13825 13376,13777 13538,13701 13590,13514 13533,13213 Z"/></g><g style="stroke:none;fill:rgb(210,5,7)"><path d="M 13519,13071 L 13519,13071 C 13519,13119 13524,13165 13533,13213 13590,13514 13538,13701 13376,13777 13376,13825 13376,13870 13376,13918 14024,14398 14101,14124 13604,13100 13595,13080 13566,13071 13519,13071 Z"/></g><g style="stroke:none;fill:rgb(198,33,10)"><path d="M 12667,13213 L 12667,13213 C 12619,13213 12576,13221 12539,13241 12482,13269 12431,13306 12383,13354 12454,13706 12646,13934 12958,14038 13000,14052 13045,14059 13093,14059 13093,14012 13093,13966 13093,13918 13093,13870 13093,13825 13093,13777 13045,13777 12999,13772 12951,13763 12709,13729 12616,13546 12667,13213 Z"/></g><g style="stroke:none;fill:rgb(171,38,5)"><path d="M 12667,13071 L 12667,13071 C 12667,13119 12667,13165 12667,13213 12616,13546 12709,13729 12951,13763 12999,13772 13045,13777 13093,13777 13141,13777 13166,13772 13171,13763 13247,13458 13220,13227 13093,13071 13045,13071 12999,13071 12951,13071 12857,13071 12761,13071 12667,13071 Z"/></g><g style="stroke:none;fill:rgb(191,40,9)"><path d="M 13241,15308 L 13241,15308 C 13285,15322 13329,15329 13376,15329 13376,15282 13368,15253 13348,15244 12156,14587 11171,14615 10395,15329 10395,15377 10395,15423 10395,15470 11105,14991 12054,14936 13241,15308 Z"/></g><g style="stroke:none;fill:rgb(135,68,0)"><path d="M 13376,15329 L 13376,15329 C 13329,15329 13285,15322 13241,15308 12054,14936 11105,14991 10395,15470 10348,15470 10302,15470 10253,15470 10205,15470 10174,15483 10154,15506 9949,15779 9700,16001 9401,16176 9354,16176 9308,16178 9259,16183 8956,16202 8578,16246 8123,16317 8172,16365 8209,16416 8237,16472 8257,16509 8266,16552 8266,16599 8634,16749 8825,17079 8834,17587 8834,17634 8834,17680 8834,17728 9047,17756 9182,17853 9238,18017 9252,18060 9259,18104 9259,18151 9634,18109 9925,18146 10133,18264 10167,18284 10205,18292 10253,18292 10458,18072 10681,17869 10927,17686 10951,17666 10964,17634 10964,17587 11313,17652 11561,17617 11708,17481 11731,17458 11767,17446 11815,17446 11863,17398 11914,17361 11971,17333 12008,17313 12051,17305 12098,17305 12193,17257 12277,17199 12347,17128 L 12347,17128 C 12370,17105 12383,17070 12383,17022 12383,16975 12383,16929 12383,16881 12714,16458 13100,16093 13540,15788 13573,15765 13613,15752 13661,15752 L 13731,15752 13731,15752 C 13698,15550 13580,15409 13376,15329 Z"/></g><g style="stroke:none;fill:rgb(185,44,8)"><path d="M 13661,15752 L 13661,15752 C 13613,15752 13573,15765 13540,15788 13100,16093 12714,16458 12383,16881 12383,16929 12383,16975 12383,17022 12913,16749 13329,16366 13632,15872 13652,15839 13661,15800 13661,15752 Z"/></g><g style="stroke:none;fill:rgb(184,42,8)"><path d="M 10154,15506 L 10154,15506 C 10174,15483 10205,15470 10253,15470 10253,15423 10248,15400 10239,15400 9856,15338 9623,15456 9544,15752 9496,15752 9451,15760 9408,15774 8883,15962 8360,16001 7840,15894 7774,16195 7809,16396 7946,16500 7969,16520 7982,16552 7982,16599 8030,16599 8076,16599 8123,16599 8172,16599 8218,16599 8266,16599 8266,16552 8257,16509 8237,16472 8209,16416 8172,16365 8123,16317 8578,16246 8956,16202 9259,16183 9308,16178 9354,16176 9401,16176 9700,16001 9949,15779 10154,15506 Z"/></g><g style="stroke:none;fill:rgb(162,37,1)"><path d="M 11794,17580 L 11794,17580 C 11808,17537 11815,17493 11815,17446 11767,17446 11731,17458 11708,17481 11561,17617 11313,17652 10964,17587 10964,17634 10951,17666 10927,17686 10681,17869 10458,18072 10253,18292 10205,18292 10167,18284 10133,18264 9925,18146 9634,18109 9259,18151 10003,18583 10632,18502 11148,17904 11167,17881 11199,17869 11247,17869 11531,17911 11714,17814 11794,17580 Z"/></g><g style="stroke:none;fill:rgb(198,9,5)"><path d="M 8123,16599 L 8123,16599 C 8076,16599 8030,16599 7982,16599 7982,16647 7969,16682 7946,16705 7923,16728 7888,16740 7840,16740 7991,16966 8151,17190 8316,17410 8330,17433 8360,17446 8408,17446 8408,17398 8415,17354 8429,17312 8552,17015 8499,16777 8266,16599 8218,16599 8172,16599 8123,16599 Z"/></g><g style="stroke:none;fill:rgb(166,43,3)"><path d="M 8429,17312 L 8429,17312 C 8415,17354 8408,17398 8408,17446 8502,17539 8604,17622 8713,17693 8747,17716 8785,17728 8834,17728 8834,17680 8834,17634 8834,17587 8825,17079 8634,16749 8266,16599 8499,16777 8552,17015 8429,17312 Z"/></g><g style="stroke:none;fill:rgb(208,5,6)"><path d="M 6989,12507 L 6989,12507 C 6940,12507 6894,12507 6846,12507 6846,12555 6846,12600 6846,12648 6846,12696 6846,12742 6846,12789 7386,13207 7398,13601 6882,13967 6859,13982 6846,14012 6846,14059 6926,14262 7068,14378 7272,14412 L 7272,14341 7272,14341 C 7437,14177 7593,14001 7740,13812 7760,13789 7792,13777 7840,13777 7840,13729 7840,13683 7840,13636 7840,13542 7840,13447 7840,13354 7840,13306 7840,13260 7840,13213 7792,13213 7767,13205 7762,13191 7620,12833 7363,12606 6989,12507 Z"/></g><g style="stroke:none;fill:rgb(199,32,10)"><path d="M 7840,13213 L 7840,13213 C 7840,13260 7840,13306 7840,13354 8516,13415 8562,13549 7974,13756 7932,13770 7888,13777 7840,13777 L 7840,13848 7840,13848 C 8848,13659 8848,13447 7840,13213 Z"/></g><g style="stroke:none;fill:rgb(166,40,4)"><path d="M 7840,13777 L 7840,13777 C 7888,13777 7932,13770 7974,13756 8562,13549 8516,13415 7840,13354 7840,13447 7840,13542 7840,13636 7840,13683 7840,13729 7840,13777 Z"/></g></g></g></g></svg>