<?xml version="1.0" encoding="UTF-8"?>
<!DOCTYPE svg PUBLIC "-//W3C//DTD SVG 1.1//EN" "http://www.w3.org/Graphics/SVG/1.1/DTD/svg11.dtd"><svg version="1.1" viewBox="0 0 21000 29700" preserveAspectRatio="xMidYMid" fill-rule="evenodd" xmlns="http://www.w3.org/2000/svg" xmlns:xlink="http://www.w3.org/1999/xlink"><g visibility="visible" id="Default"><desc>Master slide</desc><g style="stroke:none;fill:none"><rect x="0" y="0" width="21000" height="29700"/></g></g><g visibility="visible" id="page1"><desc>Slide</desc><g><desc>Graphic</desc><g><g style="stroke:none;fill:rgb(109,128,243)"><path d="M 9629,14286 L 9629,14286 10008,13870 10320,14053 10393,14640 9696,14962 9517,15948 8625,16946 8625,16946 C 9255,16946 9595,16574 9635,15837 9635,15821 9635,15810 9640,15793 L 9640,15793 10521,14951 10515,13798 10030,13299 8737,14729 8687,15843 7733,16502 7733,16946 7956,17057 7856,16718 8804,15959 8848,14840 9629,14286 Z"/></g><g style="stroke:none;fill:rgb(214,224,252)"><path d="M 10008,13870 L 10008,13870 9629,14286 8959,15172 8915,16070 8084,16807 8274,17156 8625,16946 9517,15948 9696,14962 10393,14640 10320,14053 10008,13870 Z"/></g><g style="stroke:none;fill:rgb(55,56,156)"><path d="M 10699,13504 L 10699,13504 10030,13078 8514,14397 8463,15516 7956,16059 7621,16392 7733,16946 7733,16502 8687,15843 8737,14729 10030,13299 10515,13798 10521,14951 9640,15793 9640,15793 C 9635,15810 9635,15821 9635,15837 9595,16574 9255,16946 8625,16946 L 8625,17167 8625,17167 C 9411,17195 9819,16824 9858,16059 9858,16042 9858,16031 9863,16015 L 9863,16015 10744,15283 10699,13504 Z"/></g><g style="stroke:none;fill:rgb(41,52,97)"><path d="M 7733,16946 L 7733,16946 7621,16392 7956,16059 7511,16281 7511,17057 8106,17494 8314,17367 8314,17367 C 8185,17389 8062,17284 7956,17057 L 7733,16946 Z"/><path d="M 8625,17167 L 8625,17167 C 8586,17167 8564,17178 8547,17195 8531,17212 8520,17228 8503,17245 L 8625,17167 Z"/></g><g style="stroke:none;fill:rgb(158,178,241)"><path d="M 8547,17195 L 8547,17195 C 8564,17178 8586,17167 8625,17167 L 8625,17167 8625,16946 8274,17156 8084,16807 8915,16070 8959,15172 9629,14286 8848,14840 8804,15959 7856,16718 7956,17057 7956,17057 C 8062,17284 8185,17389 8314,17367 8374,17350 8435,17311 8503,17245 8520,17228 8531,17212 8547,17195 Z"/></g></g></g></g></svg>