<?xml version="1.0" encoding="UTF-8"?>
<!DOCTYPE svg PUBLIC "-//W3C//DTD SVG 1.1//EN" "http://www.w3.org/Graphics/SVG/1.1/DTD/svg11.dtd"><svg version="1.1" viewBox="0 0 21000 29700" preserveAspectRatio="xMidYMid" fill-rule="evenodd" xmlns="http://www.w3.org/2000/svg" xmlns:xlink="http://www.w3.org/1999/xlink"><g visibility="visible" id="Default"><desc>Master slide</desc><g style="stroke:none;fill:none"><rect x="0" y="0" width="21000" height="29700"/></g></g><g visibility="visible" id="page1"><desc>Slide</desc><g><desc>Graphic</desc><g><g style="stroke:none;fill:rgb(85,97,202)"><path d="M 9516,14012 L 9516,14012 C 9566,14012 9608,14012 9658,14012 L 9658,14012 10461,13602 10737,14026 10482,15270 10928,16189 9374,16557 11219,16557 11219,16557 C 10844,15857 10837,15178 11205,14521 11248,14443 11298,14365 11362,14295 L 11362,14295 10907,13383 9516,14012 Z"/></g><g style="stroke:none;fill:rgb(102,109,233)"><path d="M 9658,14012 L 9658,14012 C 9608,14012 9566,14012 9516,14012 L 9516,14012 9481,15263 8523,16133 9658,15709 9658,14012 Z"/></g><g style="stroke:none;fill:rgb(68,76,164)"><path d="M 9516,14012 L 9516,14012 C 9467,14012 9445,14019 9445,14026 9211,15334 8523,16175 7387,16557 7387,16748 7429,16917 7515,17059 7592,17193 7692,17264 7813,17264 L 7813,17264 7685,16833 8523,16133 9481,15263 9516,14012 Z"/></g><g style="stroke:none;fill:rgb(196,207,249)"><path d="M 10737,14026 L 10737,14026 10461,13602 9658,14012 9658,15709 8523,16133 7685,16833 7813,17264 9374,16557 10928,16189 10482,15270 10737,14026 Z"/></g><g style="stroke:none;fill:rgb(46,56,114)"><path d="M 8799,17186 L 8799,17186 9304,17087 9516,16840 11219,16557 9374,16557 7813,17264 7813,17264 C 7692,17264 7592,17193 7515,17059 7429,16917 7387,16748 7387,16557 7060,16833 7209,17200 7841,17646 7855,17660 7869,17674 7891,17681 L 8799,17186 Z"/></g></g></g></g></svg>