<?xml version="1.0" encoding="UTF-8"?>
<!DOCTYPE svg PUBLIC "-//W3C//DTD SVG 1.1//EN" "http://www.w3.org/Graphics/SVG/1.1/DTD/svg11.dtd"><svg version="1.1" viewBox="0 0 21000 29700" preserveAspectRatio="xMidYMid" fill-rule="evenodd" xmlns="http://www.w3.org/2000/svg" xmlns:xlink="http://www.w3.org/1999/xlink"><g visibility="visible" id="Default"><desc>Master slide</desc><g style="stroke:none;fill:none"><rect x="0" y="0" width="21000" height="29700"/></g></g><g visibility="visible" id="page1"><desc>Slide</desc><g><desc>Graphic</desc><g><g style="stroke:none;fill:rgb(61,65,162)"><path d="M 11872,11927 L 11872,11927 11305,12633 11177,13493 9267,14192 8984,14615 8465,14749 7968,15349 7755,16301 8040,16301 8182,16019 8182,15596 11163,13903 11511,13585 11588,13197 12441,12209 12497,12273 12497,12273 C 12653,12231 12824,12209 13008,12209 L 13015,11617 13015,11617 C 12922,11525 12817,11447 12710,11377 12675,11370 12632,11363 12582,11363 L 12582,11363 12341,11807 11872,11927 Z"/></g><g style="stroke:none;fill:rgb(192,209,249)"><path d="M 11511,13585 L 11511,13585 11163,13903 11113,14481 11113,14481 C 10985,14502 10872,14538 10765,14587 9892,15046 9033,15525 8182,16019 L 8182,16019 8040,16301 7897,16584 8401,17268 9175,16725 9175,16725 C 9999,16633 10594,16210 10964,15469 L 12866,16584 12866,16584 C 13306,16464 13384,16238 13108,15913 13086,15892 13058,15878 13008,15878 L 13008,15878 12036,15462 12078,14460 13292,13197 12945,12795 12945,12795 C 12589,13240 12285,13705 12029,14206 11802,14643 11624,15109 11503,15596 L 11113,15229 11113,15229 C 11007,15328 10893,15427 10779,15518 10034,16167 9168,16548 8182,16654 9253,16005 10332,15356 11404,14707 L 11404,14707 11447,13903 12945,12795 12497,12273 12441,12209 11588,13197 11511,13585 Z"/></g><g style="stroke:none;fill:rgb(49,54,131)"><path d="M 12582,11292 L 12582,11363 12582,11363 C 12632,11363 12675,11370 12710,11377 12668,11342 12625,11313 12582,11292 Z"/><path d="M 13015,11617 L 13008,12209 13008,12209 C 13633,12964 13591,13635 12873,14220 12824,14255 12774,14291 12724,14326 L 13008,15878 13008,15878 C 13058,15878 13086,15892 13108,15913 13384,16238 13306,16464 12866,16584 L 12866,16584 12604,17063 11730,16301 10829,16210 9459,17289 9459,17289 C 8259,17684 7692,17353 7755,16301 L 7755,16301 7188,16584 8040,17712 8040,17712 C 8572,17762 9104,17705 9622,17529 10190,17324 10701,17000 11149,16570 L 11149,16570 11730,16584 12803,17564 13377,16598 13810,17092 13810,17092 C 13917,17085 13967,17070 13960,17056 13704,16471 13391,15906 13022,15377 14030,14037 14030,12781 13015,11617 Z"/></g><g style="stroke:none;fill:rgb(102,123,235)"><path d="M 13008,12209 L 13008,12209 C 12824,12209 12653,12231 12497,12273 L 12497,12273 12945,12795 13292,13197 12078,14460 12036,15462 13008,15878 12724,14326 12724,14326 C 12774,14291 12824,14255 12873,14220 13591,13635 13633,12964 13008,12209 Z"/></g><g style="stroke:none;fill:rgb(252,253,254)"><path d="M 12029,14206 L 12029,14206 C 12285,13705 12589,13240 12945,12795 L 12945,12795 11447,13903 11404,14707 11404,14707 C 10332,15356 9253,16005 8182,16654 9168,16548 10034,16167 10779,15518 10893,15427 11007,15328 11113,15229 L 11503,15596 11503,15596 C 11624,15109 11802,14643 12029,14206 Z"/></g><g style="stroke:none;fill:rgb(110,127,232)"><path d="M 12604,17063 L 12604,17063 12866,16584 10964,15469 10964,15469 C 10594,16210 9999,16633 9175,16725 L 9175,16725 8401,17268 7897,16584 8040,16301 7755,16301 7755,16301 C 7692,17353 8259,17684 9459,17289 L 9459,17289 10829,16210 11730,16301 12604,17063 Z"/></g><g style="stroke:none;fill:rgb(103,125,244)"><path d="M 10765,14587 L 10765,14587 C 10872,14538 10985,14502 11113,14481 L 11113,14481 11163,13903 8182,15596 8182,16019 8182,16019 C 9033,15525 9892,15046 10765,14587 Z"/></g></g></g></g></svg>