<?xml version="1.0" encoding="UTF-8"?>
<!DOCTYPE svg PUBLIC "-//W3C//DTD SVG 1.1//EN" "http://www.w3.org/Graphics/SVG/1.1/DTD/svg11.dtd"><svg version="1.1" viewBox="0 0 21000 29700" preserveAspectRatio="xMidYMid" fill-rule="evenodd" xmlns="http://www.w3.org/2000/svg" xmlns:xlink="http://www.w3.org/1999/xlink"><g visibility="visible" id="Default"><desc>Master slide</desc><g style="stroke:none;fill:none"><rect x="0" y="0" width="21000" height="29700"/></g></g><g visibility="visible" id="page1"><desc>Slide</desc><g><desc>Graphic</desc><g><g style="stroke:none;fill:rgb(79,86,178)"><path d="M 10482,11282 L 10482,11282 9910,11424 9767,12561 8339,13413 7910,14833 7517,15224 7482,16822 8181,17525 8767,17390 10103,15735 10139,16367 12197,16680 10910,16395 10274,14840 8767,16538 8482,17319 7624,16253 8767,13555 11910,12419 12769,12419 11746,11914 11746,11914 C 11283,11886 10861,11673 10482,11282 Z"/></g><g style="stroke:none;fill:rgb(34,33,98)"><path d="M 9767,12561 L 9767,12561 9910,11424 8196,13271 7910,14833 8339,13413 9767,12561 Z"/></g><g style="stroke:none;fill:rgb(149,164,238)"><path d="M 11910,12419 L 11910,12419 8767,13555 7624,16253 8482,17319 8767,16538 10274,14840 10910,16395 12197,16680 12197,16680 C 12640,16559 12718,16332 12440,16005 12418,15984 12389,15969 12340,15969 L 11482,15714 11482,15714 C 11260,14677 11603,13747 12511,12916 L 11910,12419 Z M 9910,13555 L 9910,13555 11425,13143 11203,14627 9825,14393 9825,14393 C 9574,14925 9303,15472 9010,16019 8795,16438 8524,16573 8189,16424 8167,16395 8160,16374 8167,16353 8410,15259 8989,14329 9910,13555 Z"/></g><g style="stroke:none;fill:rgb(227,234,252)"><path d="M 11425,13143 L 9910,13555 9910,13555 C 8989,14329 8410,15259 8167,16353 8160,16374 8167,16395 8189,16424 8524,16573 8795,16438 9010,16019 9303,15472 9574,14925 9825,14393 L 9825,14393 11203,14627 11425,13143 Z"/></g><g style="stroke:none;fill:rgb(37,40,101)"><path d="M 12311,14066 L 12311,14066 12911,13981 13333,13193 12769,11708 12769,11708 C 12704,11730 12647,11758 12589,11779 12297,11886 12011,11929 11746,11914 L 12769,12419 12769,12419 C 12968,13065 12776,13519 12182,13796 12140,13811 12096,13825 12053,13839 L 12053,13839 11739,15160 12340,15969 12340,15969 C 12389,15969 12418,15984 12440,16005 12718,16332 12640,16559 12197,16680 L 12197,16680 10139,16367 10103,15735 8767,17390 9846,16545 9846,16545 C 10682,17148 11560,17241 12483,16822 L 13404,16559 13404,16559 C 12468,15998 12104,15167 12311,14066 Z"/></g><g style="stroke:none;fill:rgb(93,98,174)"><path d="M 12182,13796 L 12182,13796 C 12776,13519 12968,13065 12769,12419 L 12769,12419 11910,12419 12511,12916 12511,12916 C 11603,13747 11260,14677 11482,15714 L 11482,15714 12340,15969 11739,15160 12053,13839 12053,13839 C 12096,13825 12140,13811 12182,13796 Z"/></g></g></g></g></svg>