<?xml version="1.0" encoding="UTF-8"?>
<!DOCTYPE svg PUBLIC "-//W3C//DTD SVG 1.1//EN" "http://www.w3.org/Graphics/SVG/1.1/DTD/svg11.dtd"><svg version="1.1" viewBox="0 0 21000 29700" preserveAspectRatio="xMidYMid" fill-rule="evenodd" xmlns="http://www.w3.org/2000/svg" xmlns:xlink="http://www.w3.org/1999/xlink"><g visibility="visible" id="Default"><desc>Master slide</desc><g style="stroke:none;fill:none"><rect x="0" y="0" width="21000" height="29700"/></g></g><g visibility="visible" id="page1"><desc>Slide</desc><g><desc>Graphic</desc><g><g style="stroke:none;fill:rgb(59,59,161)"><path d="M 8516,12254 L 8516,12254 7721,12952 7658,14378 6443,15210 7154,17044 7437,17186 7231,16191 6877,15499 7998,14561 8148,12952 9709,12670 9851,11541 8516,12254 Z"/></g><g style="stroke:none;fill:rgb(101,116,232)"><path d="M 8148,12952 L 8148,12952 7998,14561 6877,15499 7231,16191 7437,17186 7863,17609 7863,17609 C 7324,16727 7267,15894 7693,15111 L 7693,15111 8779,13425 9709,13093 10497,13792 10497,13792 C 10518,13792 10532,13785 10539,13778 11363,12854 12314,12536 13400,12811 13400,12762 13400,12720 13400,12670 L 13400,12670 11122,12324 10703,11541 10703,11541 C 10653,11541 10625,11527 10610,11506 10390,11203 10142,11210 9851,11541 L 9851,11541 9709,12670 8148,12952 Z M 9851,11824 L 9851,11824 C 9851,11774 9851,11732 9851,11682 10738,11619 10866,11887 10241,12494 10220,12515 10184,12529 10135,12529 9950,12381 9858,12148 9851,11824 Z"/></g><g style="stroke:none;fill:rgb(188,194,248)"><path d="M 9851,11682 L 9851,11682 C 9851,11732 9851,11774 9851,11824 9858,12148 9950,12381 10135,12529 10184,12529 10220,12515 10241,12494 10866,11887 10738,11619 9851,11682 Z"/></g><g style="stroke:none;fill:rgb(37,41,113)"><path d="M 10703,11541 L 10703,11541 11122,12324 13400,12670 13400,12670 C 13450,12670 13492,12670 13542,12670 13542,12621 13542,12578 13542,12529 L 10703,11541 Z"/></g><g style="stroke:none;fill:rgb(253,254,254)"><path d="M 9851,13658 L 9851,13658 9148,13665 9070,14081 7863,15351 8005,17044 8005,17044 C 8013,16050 8445,15168 9298,14399 9347,14349 9389,14293 9425,14222 L 9425,14222 10759,14653 10703,16452 10703,16480 10802,16508 12435,16988 12435,16988 C 12477,16988 12520,16981 12562,16967 12605,16953 12634,16925 12648,16889 12662,16861 12662,16833 12655,16798 L 12655,16798 11122,16275 10966,15838 11626,13933 13109,13185 11838,13093 11129,14222 9851,13658 Z"/></g><g style="stroke:none;fill:rgb(197,210,250)"><path d="M 9148,13665 L 9148,13665 9851,13658 11129,14222 11838,13093 13109,13185 11626,13933 10966,15838 11122,16275 12655,16798 12655,16798 C 12662,16833 12662,16861 12648,16889 12634,16925 12605,16953 12562,16967 12520,16981 12477,16988 12435,16988 L 12435,16988 10802,16508 12562,17552 12974,17186 12974,17186 C 12981,17164 12981,17150 12981,17129 12932,16522 12413,16021 11412,15633 L 11980,14081 11980,14081 C 12044,14074 12108,14074 12172,14074 13038,14032 13450,13609 13400,12811 12314,12536 11363,12854 10539,13778 10532,13785 10518,13792 10497,13792 L 10497,13792 9709,13093 8779,13425 7693,15111 7693,15111 C 7267,15894 7324,16727 7863,17609 L 7863,17609 8148,17609 8431,15916 10276,14646 10276,15669 10276,16198 10703,16452 10759,14653 9425,14222 9425,14222 C 9389,14293 9347,14349 9298,14399 8445,15168 8013,16050 8005,17044 L 8005,17044 7863,15351 9070,14081 9148,13665 Z"/></g><g style="stroke:none;fill:rgb(99,109,227)"><path d="M 13400,12670 L 13400,12670 C 13400,12720 13400,12762 13400,12811 13450,13609 13038,14032 12172,14074 12108,14074 12044,14074 11980,14081 L 11412,15633 11412,15633 C 12413,16021 12932,16522 12981,17129 12981,17150 12981,17164 12974,17186 12974,17235 12974,17277 12974,17327 L 12974,17327 13485,16727 11980,15633 12108,14498 12690,14363 12690,14363 C 13691,14124 13982,13601 13570,12797 13549,12762 13542,12720 13542,12670 13492,12670 13450,12670 13400,12670 Z"/></g><g style="stroke:none;fill:rgb(37,37,113)"><path d="M 13542,12670 L 13542,12670 C 13542,12720 13549,12762 13570,12797 13982,13601 13691,14124 12690,14363 L 12690,14363 12264,14787 13258,14646 14110,13517 13542,12529 13542,12529 C 13542,12578 13542,12621 13542,12670 Z"/></g><g style="stroke:none;fill:rgb(42,45,129)"><path d="M 12690,14363 L 12690,14363 12108,14498 11980,15633 13485,16727 12974,17327 12264,17750 10418,16903 11838,18032 13201,17475 13747,17482 14082,17179 12264,14787 12690,14363 Z"/></g><g style="stroke:none;fill:rgb(90,103,218)"><path d="M 12974,17327 L 12974,17327 C 12974,17277 12974,17235 12974,17186 L 12974,17186 12562,17552 10802,16508 10703,16480 10703,16452 10276,16198 10276,15669 10262,15132 9141,15492 9141,15916 9141,15916 C 9801,15344 10220,15626 10404,16762 10411,16812 10418,16854 10418,16903 L 10418,16903 12264,17750 12974,17327 Z"/></g><g style="stroke:none;fill:rgb(106,122,232)"><path d="M 10262,15132 L 10262,15132 10276,15669 10276,14646 8431,15916 8148,17609 9141,15916 9141,15492 10262,15132 Z"/></g><g style="stroke:none;fill:rgb(41,48,116)"><path d="M 10418,16903 L 10418,16903 C 10418,16854 10411,16812 10404,16762 10220,15626 9801,15344 9141,15916 L 9141,15916 8148,17609 7863,17609 7437,17186 7154,17044 7941,18025 9993,15775 10007,16741 10418,16903 Z"/></g></g></g></g></svg>