<?xml version="1.0" encoding="UTF-8"?>
<!DOCTYPE svg PUBLIC "-//W3C//DTD SVG 1.1//EN" "http://www.w3.org/Graphics/SVG/1.1/DTD/svg11.dtd"><svg version="1.1" viewBox="0 0 21000 29700" preserveAspectRatio="xMidYMid" fill-rule="evenodd" xmlns="http://www.w3.org/2000/svg" xmlns:xlink="http://www.w3.org/1999/xlink"><g visibility="visible" id="Default"><desc>Master slide</desc><g style="stroke:none;fill:none"><rect x="0" y="0" width="21000" height="29700"/></g></g><g visibility="visible" id="page1"><desc>Slide</desc><g><desc>Graphic</desc><g><g style="stroke:none;fill:rgb(33,33,94)"><path d="M 11131,12045 L 11131,12045 C 11074,12031 11024,12031 10975,12045 9909,12348 8923,12913 8008,13738 L 11131,12045 Z"/></g><g style="stroke:none;fill:rgb(116,136,240)"><path d="M 9030,14211 L 9030,14211 C 9292,13823 9618,13477 9995,13174 L 9995,13174 7865,14585 7865,16278 7865,16278 C 8199,15551 8582,14860 9030,14211 Z"/></g><g style="stroke:none;fill:rgb(160,177,240)"><path d="M 9995,13174 L 9995,13174 C 9618,13477 9292,13823 9030,14211 8582,14860 8199,15551 7865,16278 L 7865,16278 7723,16842 8150,17527 8994,17485 9995,16137 10989,15996 12494,17118 11698,15149 11698,15149 C 11649,15149 11607,15149 11556,15149 10854,15142 10478,14811 10420,14161 10847,13929 11272,13717 11698,13526 L 11698,13597 11698,13597 C 12792,13675 13133,13202 12713,12179 12699,12137 12692,12094 12692,12045 11862,12024 11131,12264 10499,12764 10329,12899 10158,13040 9995,13174 Z M 9853,14020 L 9995,13456 9995,13456 C 10555,12856 11202,12645 11932,12821 12081,12849 12216,12913 12337,13018 L 12337,13018 11272,13174 10151,14105 10506,15283 11904,15855 8717,15149 9853,14020 Z"/></g><g style="stroke:none;fill:rgb(227,236,252)"><path d="M 9995,13456 L 9995,13456 9853,14020 8717,15149 11904,15855 10506,15283 10151,14105 11272,13174 12337,13018 12337,13018 C 12216,12913 12081,12849 11932,12821 11202,12645 10555,12856 9995,13456 Z"/></g><g style="stroke:none;fill:rgb(75,83,187)"><path d="M 9995,13174 L 9995,13174 C 10158,13040 10329,12899 10499,12764 11131,12264 11862,12024 12692,12045 12742,12045 12778,12031 12799,12010 12820,11988 12834,11953 12834,11904 L 12834,11904 11131,12045 8008,13738 8008,13738 C 7546,14535 7490,15375 7837,16271 7837,16278 7844,16278 7865,16278 L 7865,16278 7865,14585 9995,13174 Z"/></g><g style="stroke:none;fill:rgb(54,60,133)"><path d="M 12799,12010 L 12799,12010 C 12778,12031 12742,12045 12692,12045 12692,12094 12699,12137 12713,12179 13133,13202 12792,13675 11698,13597 L 11698,13597 10961,14698 11315,15086 11698,15149 12494,17118 10989,15996 9995,16137 8994,17485 8150,17527 7723,16842 7865,16278 7865,16278 C 7844,16278 7837,16278 7837,16271 7490,15375 7546,14535 8008,13738 L 8008,13738 7156,14726 7304,16638 7304,16638 C 7369,17223 7667,17668 8192,17971 8320,18049 8447,18098 8575,18112 L 8575,18112 9278,17266 11330,16447 12650,17506 13324,16666 12422,14930 12692,13738 13395,13096 12834,11904 12834,11904 C 12834,11953 12820,11988 12799,12010 Z"/></g><g style="stroke:none;fill:rgb(89,105,227)"><path d="M 11698,13597 L 11698,13526 11698,13526 C 11272,13717 10847,13929 10420,14161 10478,14811 10854,15142 11556,15149 11607,15149 11649,15149 11698,15149 L 11698,15149 11315,15086 10961,14698 11698,13597 Z"/></g></g></g></g></svg>