<?xml version="1.0" encoding="UTF-8"?>
<!DOCTYPE svg PUBLIC "-//W3C//DTD SVG 1.1//EN" "http://www.w3.org/Graphics/SVG/1.1/DTD/svg11.dtd"><svg version="1.1" viewBox="0 0 21000 29700" preserveAspectRatio="xMidYMid" fill-rule="evenodd" xmlns="http://www.w3.org/2000/svg" xmlns:xlink="http://www.w3.org/1999/xlink"><g visibility="visible" id="Default"><desc>Master slide</desc><g style="stroke:none;fill:none"><rect x="0" y="0" width="21000" height="29700"/></g></g><g visibility="visible" id="page1"><desc>Slide</desc><g><desc>Graphic</desc><g><g style="stroke:none;fill:rgb(34,35,86)"><path d="M 9537,11955 L 9537,11955 9537,12130 10193,12707 11647,12829 10199,12480 10199,12480 C 10105,12130 9882,11955 9537,11955 Z"/></g><g style="stroke:none;fill:rgb(148,163,241)"><path d="M 9900,13395 L 9900,13395 C 9853,13435 9812,13482 9771,13529 L 9771,13529 8482,13995 8482,14927 7778,16209 8053,16897 8364,17025 8482,16792 9303,15859 9320,15830 9888,14811 10123,15626 10709,15277 10709,15277 C 10709,15236 10709,15201 10709,15160 10750,15160 10786,15160 10827,15160 10827,15119 10832,15084 10850,15055 10867,15020 10891,14985 10908,14956 11072,14653 11184,14374 11236,14111 11313,13768 11290,13459 11178,13179 10692,13004 10263,13074 9900,13395 Z M 9419,13995 L 9419,13995 10545,13657 10357,14694 9959,14490 9478,14572 9185,15510 8159,16768 8013,16209 8716,15277 8716,14694 9419,13995 Z"/></g><g style="stroke:none;fill:rgb(226,234,252)"><path d="M 10545,13657 L 10545,13657 9419,13995 8716,14694 8716,15277 8013,16209 8159,16768 9185,15510 9478,14572 9959,14490 10357,14694 10545,13657 Z"/></g><g style="stroke:none;fill:rgb(73,78,168)"><path d="M 9771,13529 L 9771,13529 C 9812,13482 9853,13435 9900,13395 10263,13074 10692,13004 11178,13179 L 11178,13179 11647,13063 11647,12829 10193,12707 9537,12130 9272,13208 8247,13878 8013,14927 7543,15393 7690,16326 7690,16326 C 7696,15795 7959,15329 8482,14927 L 8482,14927 8482,13995 9771,13529 Z"/></g><g style="stroke:none;fill:rgb(105,109,183)"><path d="M 11178,13179 L 11178,13179 C 11290,13459 11313,13768 11236,14111 L 11236,14111 11647,13063 11178,13179 Z"/></g><g style="stroke:none;fill:rgb(33,32,93)"><path d="M 9537,12130 L 9537,12130 9185,13063 8129,13762 8013,14927 8247,13878 9272,13208 9537,12130 Z"/></g><g style="stroke:none;fill:rgb(52,55,114)"><path d="M 11647,12829 L 11647,12829 11647,13063 11236,14111 11236,14111 C 11184,14374 11072,14653 10908,14956 L 10827,15160 10827,15160 C 10786,15160 10750,15160 10709,15160 10709,15201 10709,15236 10709,15277 L 10709,15277 10580,15720 11190,16139 10475,16209 9877,16355 9648,15452 9320,15830 9303,15859 8482,16792 8364,17025 7895,17025 8282,17369 8833,17025 9097,16535 10591,16792 12116,16559 11296,15393 11296,14344 11296,14344 C 11336,14327 11371,14304 11412,14275 12034,13867 12111,13383 11647,12829 Z"/></g><g style="stroke:none;fill:rgb(105,109,183)"><path d="M 10908,14956 L 10908,14956 C 10891,14985 10867,15020 10850,15055 10832,15084 10827,15119 10827,15160 L 10908,14956 Z"/></g><g style="stroke:none;fill:rgb(149,164,238)"><path d="M 10580,15720 L 10580,15720 10709,15277 10123,15626 10475,16209 11190,16139 10580,15720 Z"/></g><g style="stroke:none;fill:rgb(93,104,203)"><path d="M 9320,15830 L 9320,15830 9648,15452 9877,16355 10475,16209 10123,15626 9888,14811 9320,15830 Z"/></g><g style="stroke:none;fill:rgb(105,125,217)"><path d="M 7690,16326 L 7690,16326 C 7684,16495 7713,16675 7766,16856 7772,16873 7772,16891 7778,16908 7778,16949 7789,16978 7807,16996 7825,17013 7854,17025 7895,17025 L 7895,17025 8364,17025 8053,16897 7778,16209 8482,14927 8482,14927 C 7959,15329 7696,15795 7690,16326 Z"/></g></g></g></g></svg>