<?xml version="1.0" encoding="UTF-8"?>
<!DOCTYPE svg PUBLIC "-//W3C//DTD SVG 1.1//EN" "http://www.w3.org/Graphics/SVG/1.1/DTD/svg11.dtd"><svg version="1.1" viewBox="0 0 21000 29700" preserveAspectRatio="xMidYMid" fill-rule="evenodd" xmlns="http://www.w3.org/2000/svg" xmlns:xlink="http://www.w3.org/1999/xlink"><g visibility="visible" id="Default"><desc>Master slide</desc><g style="stroke:none;fill:none"><rect x="0" y="0" width="21000" height="29700"/></g></g><g visibility="visible" id="page1"><desc>Slide</desc><g><desc>Graphic</desc><g><g style="stroke:none;fill:rgb(94,107,220)"><path d="M 9008,13230 L 9008,13230 8823,14555 8215,15198 8215,15198 C 7918,15670 7951,16235 8315,16897 8321,16904 8328,16904 8348,16904 L 8348,16904 8348,15461 9668,13558 10328,13361 10928,13748 12969,12836 13364,12705 11972,12298 11648,12311 11523,12167 11120,12049 11120,12049 C 11120,12094 11114,12134 11106,12173 10935,12829 10717,12829 10460,12180 L 9008,13230 Z"/></g><g style="stroke:none;fill:rgb(39,37,111)"><path d="M 8823,14555 L 9008,13230 9008,13230 C 9008,13184 9008,13144 9008,13098 L 9008,13098 8604,14338 8083,15067 8083,15067 C 7562,15139 7344,15421 7443,15907 L 7820,16117 7820,16117 C 7820,16071 7813,16044 7792,16038 7661,15979 7627,15828 7687,15592 7792,15434 7931,15310 8096,15224 8129,15205 8169,15198 8215,15198 L 8823,14555 Z"/></g><g style="stroke:none;fill:rgb(42,40,118)"><path d="M 9008,13098 L 9008,13098 C 9008,13144 9008,13184 9008,13230 L 10460,12180 10460,12180 C 10460,12134 10460,12094 10460,12049 L 10460,12049 10460,11786 9008,13098 Z"/></g><g style="stroke:none;fill:rgb(142,145,193)"><path d="M 11106,12173 L 11106,12173 C 11114,12134 11120,12094 11120,12049 11120,12003 11106,11970 11087,11937 10856,11622 10652,11661 10460,12049 10460,12094 10460,12134 10460,12180 10717,12829 10935,12829 11106,12173 Z"/></g><g style="stroke:none;fill:rgb(39,41,110)"><path d="M 11087,11937 L 11087,11937 C 11106,11970 11120,12003 11120,12049 L 11120,12049 11523,12167 10902,11471 10460,11786 10460,12049 10460,12049 C 10652,11661 10856,11622 11087,11937 Z"/></g><g style="stroke:none;fill:rgb(190,201,239)"><path d="M 10928,13748 L 10928,13748 10328,13361 9668,13558 8348,15461 8348,16904 8348,16904 C 8400,17042 8453,17153 8506,17239 8645,17317 8796,17370 8961,17403 9008,17370 9060,17331 9106,17271 9126,17245 9140,17212 9140,17166 L 9140,17166 9225,16819 9265,16346 9800,15854 10856,14673 11120,16379 12441,16773 12441,16773 C 12487,16773 12519,16766 12552,16747 12902,16543 12804,16300 12269,16005 12189,15959 12104,15920 12011,15880 11952,15854 11899,15828 11840,15802 11642,15677 11707,15565 12044,15461 12044,15415 12057,15382 12077,15356 12876,14299 13173,13459 12969,12836 L 10928,13748 Z M 10889,14358 L 10889,14358 10394,14411 9140,15329 10460,14017 10460,14017 C 10585,14056 10717,14096 10843,14135 11127,14194 11384,14142 11629,13984 11668,13964 11701,13938 11727,13905 L 11727,13905 11384,14804 10889,14358 Z"/></g><g style="stroke:none;fill:rgb(246,248,254)"><path d="M 10394,14411 L 10394,14411 10889,14358 11384,14804 11727,13905 11727,13905 C 11701,13938 11668,13964 11629,13984 11384,14142 11127,14194 10843,14135 10717,14096 10585,14056 10460,14017 L 10460,14017 9140,15329 10394,14411 Z"/></g><g style="stroke:none;fill:rgb(101,109,203)"><path d="M 13364,12705 L 12969,12836 12969,12836 C 13173,13459 12876,14299 12077,15356 12057,15382 12044,15415 12044,15461 L 12011,15880 12011,15880 C 12104,15920 12189,15959 12269,16005 L 12269,16005 12836,15985 12176,15592 12176,15592 C 12189,15506 12222,15447 12276,15408 12506,15205 12698,15008 12863,14804 L 12863,14804 12764,14627 13060,14522 13060,14522 C 13431,13938 13529,13328 13364,12705 Z"/></g><g style="stroke:none;fill:rgb(39,41,110)"><path d="M 13060,14522 L 13060,14522 13364,14411 14018,13558 13377,12239 11972,12298 13364,12705 13364,12705 C 13529,13328 13431,13938 13060,14522 Z"/></g><g style="stroke:none;fill:rgb(117,129,191)"><path d="M 12969,17035 L 12969,17035 C 13015,17035 13054,17029 13087,17009 13708,16714 13622,16373 12836,15985 L 12269,16005 12269,16005 C 12804,16300 12902,16543 12552,16747 12519,16766 12487,16773 12441,16773 12407,17029 12539,17121 12843,17048 12882,17042 12922,17035 12969,17035 Z"/></g><g style="stroke:none;fill:rgb(39,41,110)"><path d="M 13087,17009 L 13087,17009 C 13054,17029 13015,17035 12969,17035 L 12969,17035 12374,17298 12044,16904 10724,16510 10671,15474 9536,16510 9271,17166 9271,17429 10189,16307 11120,17166 11959,17442 12704,17560 14024,16858 12863,14804 12863,14804 C 12698,15008 12506,15205 12276,15408 12222,15447 12189,15506 12176,15592 L 12836,15985 12836,15985 C 13622,16373 13708,16714 13087,17009 Z"/></g><g style="stroke:none;fill:rgb(95,108,207)"><path d="M 12969,17035 L 12969,17035 C 12922,17035 12882,17042 12843,17048 12539,17121 12407,17029 12441,16773 L 12441,16773 11120,16379 10856,14673 9800,15854 9265,16346 9225,16819 9140,17166 9140,17166 C 9186,17166 9225,17166 9271,17166 L 9271,17166 9536,16510 10671,15474 10724,16510 12044,16904 12374,17298 12969,17035 Z"/></g><g style="stroke:none;fill:rgb(117,129,191)"><path d="M 12044,15461 L 12044,15461 C 11707,15565 11642,15677 11840,15802 11899,15828 11952,15854 12011,15880 L 12044,15461 Z"/></g><g style="stroke:none;fill:rgb(60,68,143)"><path d="M 8215,15198 L 8215,15198 C 8169,15198 8129,15205 8096,15224 7931,15310 7792,15434 7687,15592 7627,15828 7661,15979 7792,16038 7813,16044 7820,16071 7820,16117 7820,16478 7964,16792 8248,17048 8328,17121 8413,17180 8506,17239 8453,17153 8400,17042 8348,16904 8328,16904 8321,16904 8315,16897 7951,16235 7918,15670 8215,15198 Z"/><path d="M 9271,17429 L 9271,17166 9271,17166 C 9225,17166 9186,17166 9140,17166 9140,17212 9126,17245 9106,17271 9060,17331 9008,17370 8961,17403 9060,17422 9160,17429 9271,17429 Z"/></g></g></g></g></svg>