<?xml version="1.0" encoding="UTF-8"?>
<!DOCTYPE svg PUBLIC "-//W3C//DTD SVG 1.1//EN" "http://www.w3.org/Graphics/SVG/1.1/DTD/svg11.dtd"><svg version="1.1" viewBox="0 0 21000 29700" preserveAspectRatio="xMidYMid" fill-rule="evenodd" xmlns="http://www.w3.org/2000/svg" xmlns:xlink="http://www.w3.org/1999/xlink"><g visibility="visible" id="Default"><desc>Master slide</desc><g style="stroke:none;fill:none"><rect x="0" y="0" width="21000" height="29700"/></g></g><g visibility="visible" id="page1"><desc>Slide</desc><g><desc>Graphic</desc><g><g style="stroke:none;fill:rgb(42,44,113)"><path d="M 11397,11795 L 11397,11795 10658,10819 9748,12192 8570,13102 8178,14664 7405,14983 7928,16414 8439,17266 9100,17207 10141,16095 10926,16615 11580,16615 11580,16615 C 12281,17051 12982,16947 13669,16297 L 13669,16297 12497,14794 12549,14065 12549,14065 C 13184,13851 13557,13421 13669,12784 L 13669,12784 12831,11678 11397,11795 Z M 10271,12374 L 10271,12374 10612,11294 11266,12185 13021,12322 13100,13467 12235,13883 11974,15184 13145,16153 11974,16615 10665,15965 10475,14937 9356,16160 9022,17006 8498,16921 8309,16615 8178,15575 8046,14989 8046,14989 C 8131,14943 8210,14885 8282,14826 8485,14657 8609,14443 8655,14189 8668,14124 8675,14052 8675,13981 8701,12959 9231,12419 10271,12374 Z"/></g><g style="stroke:none;fill:rgb(91,98,200)"><path d="M 10612,11294 L 10271,12374 10271,12374 C 9231,12419 8701,12959 8675,13981 8675,14052 8668,14124 8655,14189 9106,13532 9689,13083 10402,12836 L 10841,13083 10841,13083 C 10874,13076 10893,13070 10906,13057 11293,12536 11778,12335 12366,12452 L 12366,12452 12628,12452 13021,12322 11266,12185 10612,11294 Z"/></g><g style="stroke:none;fill:rgb(113,135,238)"><path d="M 10906,13057 L 10906,13057 C 10893,13070 10874,13076 10841,13083 L 10402,12836 10402,12836 C 9689,13083 9106,13532 8655,14189 8609,14443 8485,14657 8282,14826 8249,14898 8210,14976 8178,15054 L 8178,15054 8178,15575 8309,16615 8309,16615 C 8354,16615 8393,16615 8439,16615 L 8439,16615 8309,15965 9578,13408 10402,13102 10979,13278 11050,13298 11129,13246 12366,12452 12366,12452 C 11778,12335 11293,12536 10906,13057 Z"/></g><g style="stroke:none;fill:rgb(171,182,234)"><path d="M 10979,13278 L 10979,13278 10402,13102 9578,13408 8309,15965 8439,16615 8923,16824 9061,16238 8832,16615 8445,16160 9224,14404 9748,14013 9978,13454 10979,13278 Z"/></g><g style="stroke:none;fill:rgb(232,238,253)"><path d="M 10979,13278 L 10979,13278 9978,13454 9748,14013 9224,14404 8445,16160 8832,16615 9061,16238 9093,16095 9205,16010 10402,14013 11083,14189 11319,14664 11895,13109 11129,13246 11050,13298 10979,13278 Z"/></g><g style="stroke:none;fill:rgb(171,182,234)"><path d="M 11129,13246 L 11129,13246 11895,13109 11319,14664 11083,14189 10402,14013 9205,16010 9879,15444 10605,14410 11306,16062 12622,16036 11450,15575 12105,13493 12818,13168 12628,12452 12366,12452 11129,13246 Z"/></g><g style="stroke:none;fill:rgb(101,111,189)"><path d="M 13021,12322 L 13021,12322 12628,12452 12818,13168 12105,13493 11450,15575 12622,16036 11306,16062 10605,14410 9879,15444 9205,16010 9093,16095 9061,16238 8923,16824 8439,16615 8439,16615 C 8393,16615 8354,16615 8309,16615 L 8309,16615 8498,16921 9022,17006 9356,16160 10475,14937 10665,15965 11974,16615 13145,16153 11974,15184 12235,13883 13100,13467 13021,12322 Z"/></g><g style="stroke:none;fill:rgb(91,98,200)"><path d="M 8282,14826 L 8282,14826 C 8210,14885 8131,14943 8046,14989 L 8046,14989 8178,15575 8178,15054 8178,15054 C 8210,14976 8249,14898 8282,14826 Z"/></g></g></g></g></svg>