<?xml version="1.0" encoding="UTF-8"?>
<!DOCTYPE svg PUBLIC "-//W3C//DTD SVG 1.1//EN" "http://www.w3.org/Graphics/SVG/1.1/DTD/svg11.dtd"><svg version="1.1" viewBox="0 0 21000 29700" preserveAspectRatio="xMidYMid" fill-rule="evenodd" xmlns="http://www.w3.org/2000/svg" xmlns:xlink="http://www.w3.org/1999/xlink"><g visibility="visible" id="Default"><desc>Master slide</desc><g style="stroke:none;fill:none"><rect x="0" y="0" width="21000" height="29700"/></g></g><g visibility="visible" id="page1"><desc>Slide</desc><g><desc>Graphic</desc><g><g style="stroke:none;fill:rgb(77,83,196)"><path d="M 8297,12182 L 8297,12182 8102,13824 6902,14845 7879,17064 7879,17064 C 7928,17064 7969,17064 8019,17064 L 7739,16029 7739,16029 C 7691,16029 7670,16021 7663,16014 7558,15592 7446,15208 7321,14845 7691,14594 8026,14313 8333,13995 8354,13972 8389,13958 8437,13958 L 8528,12693 8528,12693 C 9080,11923 9743,11975 10525,12855 L 11642,11960 11642,11960 C 12284,11613 12891,11687 13464,12182 L 13464,12182 13464,11886 11321,11442 10392,10259 9554,11664 8297,12182 Z M 9974,11147 L 9974,11147 C 10692,10481 10929,10681 10685,11746 10679,11790 10672,11835 10672,11886 10225,11916 9995,11716 9974,11295 9974,11243 9974,11198 9974,11147 Z"/></g><g style="stroke:none;fill:rgb(145,151,218)"><path d="M 10685,11746 L 10685,11746 C 10929,10681 10692,10481 9974,11147 9974,11198 9974,11243 9974,11295 9995,11716 10225,11916 10672,11886 10672,11835 10679,11790 10685,11746 Z"/></g><g style="stroke:none;fill:rgb(138,155,234)"><path d="M 8528,12693 L 8528,12693 8437,13958 7739,15289 7838,15629 7739,16029 8019,17064 8480,17057 8996,15881 10112,14845 10532,16177 12766,16916 13184,16177 13184,16177 C 12088,15718 11718,15274 12067,14845 L 12067,14845 12067,14490 12333,13595 13464,12182 13464,12182 C 12891,11687 12284,11613 11642,11960 L 10525,12855 10525,12855 C 9743,11975 9080,11923 8528,12693 Z M 10378,13255 L 10378,13255 10825,13284 12067,12182 13184,12182 12067,13218 11789,14549 11244,15370 11244,15370 C 12242,15541 12737,15896 12737,16450 L 12737,16450 10958,15940 10587,13965 10587,13965 C 9575,14142 8857,14734 8437,15733 L 8382,16680 8382,16680 C 8228,16820 8116,16783 8047,16569 7844,15940 7879,15319 8159,14697 L 8159,14697 9275,13070 9736,12752 10378,13255 Z"/></g><g style="stroke:none;fill:rgb(228,233,248)"><path d="M 10825,13284 L 10825,13284 10378,13255 9736,12752 9275,13070 8159,14697 8159,14697 C 7879,15319 7844,15940 8047,16569 8116,16783 8228,16820 8382,16680 L 8437,15733 8437,15733 C 8857,14734 9575,14142 10587,13965 L 10587,13965 10958,15940 12737,16450 12737,16450 C 12737,15896 12242,15541 11244,15370 L 11244,15370 11789,14549 12067,13218 13184,12182 12067,12182 10825,13284 Z"/></g><g style="stroke:none;fill:rgb(111,135,242)"><path d="M 8437,13958 L 8437,13958 C 8389,13958 8354,13972 8333,13995 8026,14313 7691,14594 7321,14845 7446,15208 7558,15592 7663,16014 7670,16021 7691,16029 7739,16029 L 7739,16029 7838,15629 7739,15289 8437,13958 Z"/></g><g style="stroke:none;fill:rgb(39,39,126)"><path d="M 13464,11886 L 13464,11886 13464,12182 13352,13432 14022,12774 13792,12042 13464,11886 Z"/></g><g style="stroke:none;fill:rgb(81,88,207)"><path d="M 13345,13514 L 13345,13514 13352,13432 13464,12182 12333,13595 12067,14490 12326,13832 13233,13551 13345,13514 Z"/></g><g style="stroke:none;fill:rgb(39,39,126)"><path d="M 13233,13551 L 13233,13551 12326,13832 12067,14490 12067,14845 12067,14845 C 12005,15259 12193,15415 12633,15304 12675,15296 12717,15289 12766,15289 12766,15237 12766,15193 12766,15141 L 12766,15141 12354,14409 13233,13551 Z"/></g><g style="stroke:none;fill:rgb(36,37,96)"><path d="M 12766,15141 L 12766,15141 C 12766,15193 12766,15237 12766,15289 13792,16029 13841,16547 12927,16835 12912,16843 12905,16865 12905,16916 12905,16968 12905,17013 12905,17064 L 12905,17064 14155,16554 12766,15141 Z"/></g><g style="stroke:none;fill:rgb(86,95,193)"><path d="M 12766,15289 L 12766,15289 C 12717,15289 12675,15296 12633,15304 12193,15415 12005,15259 12067,14845 11718,15274 12088,15718 13184,16177 L 12766,16916 12766,16916 C 12815,16916 12856,16916 12905,16916 12905,16865 12912,16843 12927,16835 13841,16547 13792,16029 12766,15289 Z"/></g><g style="stroke:none;fill:rgb(56,62,148)"><path d="M 12905,17064 L 12905,17064 C 12905,17013 12905,16968 12905,16916 12856,16916 12815,16916 12766,16916 L 12766,16916 10532,16177 10951,16769 12905,17064 Z"/></g><g style="stroke:none;fill:rgb(47,53,126)"><path d="M 10532,16177 L 10532,16177 10112,14845 8996,15881 8480,17057 8019,17064 8019,17064 C 7969,17064 7928,17064 7879,17064 L 7879,17064 8297,17420 9100,16887 9100,16887 C 9192,16066 9527,15578 10112,15437 L 10112,15437 10106,16258 10951,16769 10532,16177 Z"/></g></g></g></g></svg>