<?xml version="1.0" encoding="UTF-8"?>
<!DOCTYPE svg PUBLIC "-//W3C//DTD SVG 1.1//EN" "http://www.w3.org/Graphics/SVG/1.1/DTD/svg11.dtd"><svg version="1.1" viewBox="0 0 21000 29700" preserveAspectRatio="xMidYMid" fill-rule="evenodd" xmlns="http://www.w3.org/2000/svg" xmlns:xlink="http://www.w3.org/1999/xlink"><g visibility="visible" id="Default"><desc>Master slide</desc><g style="stroke:none;fill:none"><rect x="0" y="0" width="21000" height="29700"/></g></g><g visibility="visible" id="page1"><desc>Slide</desc><g><desc>Graphic</desc><g><g style="stroke:none;fill:rgb(220,230,252)"><path d="M 8960,13930 L 8960,13930 8847,14431 8740,14931 9258,15341 8308,16850 8789,17119 9727,16427 9848,15891 11224,15305 11998,16145 11998,16145 C 12311,15700 12176,15270 11586,14854 11579,14847 11572,14826 11572,14804 L 10863,15157 10863,15157 C 10032,14988 9649,14515 9727,13746 L 9727,13746 11005,12899 12140,13252 12936,12314 12936,12314 C 12743,12109 12587,12152 12481,12441 L 11714,12617 11714,12617 C 10706,12420 9812,12822 9024,13824 L 8960,13930 Z"/></g><g style="stroke:none;fill:rgb(113,132,239)"><path d="M 8847,14431 L 8847,14431 8960,13930 9024,13824 9024,13824 C 9251,13443 9535,13090 9869,12758 L 9869,12758 7995,14000 8165,16004 8165,16709 8165,16709 C 8215,16709 8257,16709 8308,16709 L 8847,14431 Z"/></g><g style="stroke:none;fill:rgb(34,34,99)"><path d="M 7739,13887 L 7739,13887 8996,12744 7313,13887 7597,15016 7739,13887 Z"/></g><g style="stroke:none;fill:rgb(78,87,195)"><path d="M 8996,12744 L 8996,12744 7739,13887 8165,16004 7995,14000 9869,12758 9869,12758 C 10401,12130 11040,11989 11793,12328 L 11793,12328 12666,11806 12992,11912 12992,11630 11430,11912 9265,12561 8996,12744 Z"/></g><g style="stroke:none;fill:rgb(34,34,99)"><path d="M 11430,11912 L 11430,11912 10004,11693 9265,12561 11430,11912 Z"/></g><g style="stroke:none;fill:rgb(150,170,237)"><path d="M 10295,14184 L 10295,14184 10011,13746 11572,13182 12020,13499 12708,13323 12708,13323 C 12708,13273 12708,13231 12708,13182 13581,13034 13716,12617 13099,11947 13077,11926 13042,11912 12992,11912 L 12992,11912 12666,11806 11793,12328 11793,12328 C 11040,11989 10401,12130 9869,12758 9535,13090 9251,13443 9024,13824 9812,12822 10706,12420 11714,12617 L 12481,12441 12481,12441 C 12587,12152 12743,12109 12936,12314 L 12936,12314 12140,13252 11005,12899 9727,13746 9727,13746 C 9649,14515 10032,14988 10863,15157 L 11572,14804 11572,14804 C 11572,14826 11579,14847 11586,14854 12176,15270 12311,15700 11998,16145 L 11998,16145 12708,16850 12424,15581 12424,15581 C 12424,15319 12311,15094 12090,14910 11863,14720 11586,14628 11267,14628 L 11267,14628 10727,14861 10401,14353 10401,14353 C 10337,14296 10302,14240 10295,14184 Z"/></g><g style="stroke:none;fill:rgb(90,107,217)"><path d="M 10011,13746 L 10011,13746 10295,14184 12566,13605 12708,13323 12020,13499 11572,13182 10011,13746 Z"/></g><g style="stroke:none;fill:rgb(72,80,186)"><path d="M 10295,14184 L 10295,14184 C 10302,14240 10337,14296 10401,14353 10522,14452 10806,14543 11267,14628 11586,14628 11863,14720 12090,14910 12311,15094 12424,15319 12424,15581 12587,15736 12680,15736 12701,15581 12708,15531 12708,15489 12708,15439 L 12708,15439 12105,13817 12566,13605 10295,14184 Z"/></g><g style="stroke:none;fill:rgb(40,46,107)"><path d="M 12992,11912 L 12992,11912 C 13042,11912 13077,11926 13099,11947 13716,12617 13581,13034 12708,13182 12708,13231 12708,13273 12708,13323 L 12708,13323 12566,13605 12105,13817 12708,15439 12708,15439 C 12757,15439 12801,15439 12850,15439 L 12850,15439 12424,14028 13659,13139 13702,12194 12992,11630 12992,11912 Z"/></g><g style="stroke:none;fill:rgb(77,85,167)"><path d="M 12850,15439 L 12850,15439 C 12801,15439 12757,15439 12708,15439 12708,15489 12708,15531 12701,15581 12680,15736 12587,15736 12424,15581 L 12424,15581 12708,16850 11998,16145 11714,16145 12140,16709 12140,16709 C 13070,17239 13312,16865 12871,15573 12857,15531 12850,15489 12850,15439 Z"/></g><g style="stroke:none;fill:rgb(90,107,217)"><path d="M 10727,14861 L 11267,14628 11267,14628 C 10806,14543 10522,14452 10401,14353 L 10727,14861 Z"/></g><g style="stroke:none;fill:rgb(48,51,137)"><path d="M 9869,16709 L 9869,16709 C 9869,16759 9869,16801 9869,16850 L 9869,16850 11430,16286 12140,16709 11714,16145 10231,16124 9869,16709 Z"/></g><g style="stroke:none;fill:rgb(57,64,144)"><path d="M 9869,16850 L 9869,16850 C 9869,16801 9869,16759 9869,16709 L 9869,16709 9159,17556 8520,17556 8023,16709 8023,17274 8875,18191 9869,16850 Z"/></g><g style="stroke:none;fill:rgb(132,148,231)"><path d="M 9159,17556 L 9159,17556 9869,16709 10231,16124 11714,16145 11998,16145 11224,15305 9848,15891 9727,16427 8789,17119 8308,16850 8308,16850 C 8308,16801 8308,16759 8308,16709 8257,16709 8215,16709 8165,16709 8115,16709 8073,16709 8023,16709 L 8023,16709 8520,17556 9159,17556 Z"/></g><g style="stroke:none;fill:rgb(150,170,237)"><path d="M 8308,16709 L 8308,16709 C 8308,16759 8308,16801 8308,16850 L 8308,16850 9258,15341 8740,14931 8847,14431 8308,16709 Z"/></g><g style="stroke:none;fill:rgb(44,45,121)"><path d="M 8023,16709 L 8023,16709 C 8073,16709 8115,16709 8165,16709 L 8165,16709 8165,16004 7739,13887 7597,15016 8023,17274 8023,16709 Z"/></g></g></g></g></svg>