<?xml version="1.0" encoding="UTF-8"?>
<!DOCTYPE svg PUBLIC "-//W3C//DTD SVG 1.1//EN" "http://www.w3.org/Graphics/SVG/1.1/DTD/svg11.dtd"><svg version="1.1" viewBox="0 0 21000 29700" preserveAspectRatio="xMidYMid" fill-rule="evenodd" xmlns="http://www.w3.org/2000/svg" xmlns:xlink="http://www.w3.org/1999/xlink"><g visibility="visible" id="Default"><desc>Master slide</desc><g style="stroke:none;fill:none"><rect x="0" y="0" width="21000" height="29700"/></g></g><g visibility="visible" id="page1"><desc>Slide</desc><g><desc>Graphic</desc><g><g style="stroke:none;fill:rgb(57,64,147)"><path d="M 11482,12172 L 11482,12172 C 11432,12172 11389,12172 11340,12172 L 9920,13159 9920,13159 C 9992,13830 9835,14401 9451,14874 9353,15001 9225,15085 9068,15135 L 9068,15135 7507,16969 7783,17378 7783,17378 C 7776,17301 7776,17209 7790,17110 7997,16892 8238,16715 8515,16574 8550,16553 8593,16546 8643,16546 L 8643,16546 9495,15135 10204,14994 10204,13159 11198,12454 11482,12172 Z"/></g><g style="stroke:none;fill:rgb(44,49,114)"><path d="M 11340,12172 L 11340,12172 C 11389,12172 11432,12172 11482,12172 L 11482,12172 12646,12158 12604,12905 12938,13427 12476,13724 12476,16123 12646,16849 10431,16842 9210,17675 9210,17675 C 9210,17724 9196,17759 9175,17781 8820,18155 8451,18169 8075,17816 L 8075,17816 8593,18352 9353,17816 10204,17534 10631,16969 12774,17195 12759,13865 13470,13230 12539,11762 11340,12172 Z"/></g><g style="stroke:none;fill:rgb(103,114,214)"><path d="M 11482,12172 L 11482,12172 11198,12454 12071,12708 12071,12708 C 12071,12729 12064,12736 12057,12743 11284,13082 11091,13456 11482,13865 12014,14182 12255,14789 12199,15699 12192,15749 12192,15791 12192,15840 11744,16412 11134,16652 10346,16546 10325,16553 10311,16553 10290,16560 L 10290,16560 8926,17675 9210,17675 10431,16842 12646,16849 12476,16123 12476,13724 12938,13427 12604,12905 12646,12158 11482,12172 Z"/></g><g style="stroke:none;fill:rgb(205,216,250)"><path d="M 10503,13646 L 10503,13646 11056,14634 10631,15474 10055,15678 9778,16123 8217,17534 8217,17534 C 8352,17809 8550,17872 8806,17710 8842,17689 8877,17675 8926,17675 L 10290,16560 10290,16560 C 10311,16553 10325,16553 10346,16546 11134,16652 11744,16412 12192,15840 L 11482,13865 11482,13865 C 11091,13456 11284,13082 12057,12743 12064,12736 12071,12729 12071,12708 L 12071,12708 11198,12454 10503,13646 Z"/></g><g style="stroke:none;fill:rgb(143,156,238)"><path d="M 11056,14634 L 11056,14634 10503,13646 11198,12454 10204,13159 10204,14994 9495,15135 8643,16546 8643,16546 C 8096,16871 7940,17195 8174,17513 8181,17520 8196,17527 8217,17534 L 8217,17534 9778,16123 10055,15678 10631,15474 11056,14634 Z"/></g><g style="stroke:none;fill:rgb(131,149,245)"><path d="M 12192,15840 L 12192,15840 C 12192,15791 12192,15749 12199,15699 12255,14789 12014,14182 11482,13865 L 12192,15840 Z"/></g><g style="stroke:none;fill:rgb(107,123,202)"><path d="M 9175,17781 L 9175,17781 C 9196,17759 9210,17724 9210,17675 L 8926,17675 8926,17675 C 8877,17675 8842,17689 8806,17710 8550,17872 8352,17809 8217,17534 8196,17527 8181,17520 8174,17513 7940,17195 8096,16871 8643,16546 8593,16546 8550,16553 8515,16574 8238,16715 7997,16892 7790,17110 7776,17209 7776,17301 7783,17378 L 8011,17724 8011,17724 C 8025,17731 8039,17731 8053,17738 8068,17745 8075,17767 8075,17816 8451,18169 8820,18155 9175,17781 Z"/></g><g style="stroke:none;fill:rgb(57,64,147)"><path d="M 8011,17724 L 8075,17816 8075,17816 C 8075,17767 8068,17745 8053,17738 8039,17731 8025,17731 8011,17724 Z"/></g></g></g></g></svg>