<?xml version="1.0" encoding="UTF-8"?>
<!DOCTYPE svg PUBLIC "-//W3C//DTD SVG 1.1//EN" "http://www.w3.org/Graphics/SVG/1.1/DTD/svg11.dtd"><svg version="1.1" viewBox="0 0 21000 29700" preserveAspectRatio="xMidYMid" fill-rule="evenodd" xmlns="http://www.w3.org/2000/svg" xmlns:xlink="http://www.w3.org/1999/xlink"><g visibility="visible" id="Default"><desc>Master slide</desc><g style="stroke:none;fill:none"><rect x="0" y="0" width="21000" height="29700"/></g></g><g visibility="visible" id="page1"><desc>Slide</desc><g><desc>Graphic</desc><g><g style="stroke:none;fill:rgb(102,118,217)"><path d="M 11291,13059 L 11291,13059 C 11291,13108 11291,13150 11291,13200 L 11291,13200 12696,12290 13164,12487 12994,13651 11432,14470 11858,15599 12817,15860 12710,16445 10808,15754 10808,15754 C 10204,16622 9416,17137 8436,17292 8345,17306 8259,17306 8167,17292 8487,17772 8912,17863 9444,17574 L 9444,17574 9729,17010 10864,16304 12000,16727 12931,17242 13249,16219 13704,16586 12284,15316 12568,14046 13299,13884 13697,12840 12568,11648 11291,13059 Z"/></g><g style="stroke:none;fill:rgb(91,103,220)"><path d="M 11291,13200 L 11291,13200 C 11291,13150 11291,13108 11291,13059 11091,13059 10900,13080 10715,13115 10225,13207 9778,13418 9381,13750 9239,13863 9104,13990 8984,14138 8345,14851 8025,15718 8025,16727 L 9054,14702 9054,14702 C 9090,14702 9118,14710 9147,14724 9707,15055 10048,14738 10155,13764 L 11291,13341 11291,13341 C 11291,13291 11291,13249 11291,13200 Z"/></g><g style="stroke:none;fill:rgb(202,216,250)"><path d="M 11291,13200 L 11291,13200 C 11291,13249 11291,13291 11291,13341 10964,14180 10375,14752 9516,15041 9395,15083 9281,15126 9161,15175 L 9161,15175 8167,16868 8167,17292 8167,17292 C 8259,17306 8345,17306 8436,17292 9416,17137 10204,16622 10808,15754 L 10808,15754 12710,16445 12817,15860 11858,15599 11432,14470 12994,13651 13164,12487 12696,12290 11291,13200 Z M 11063,14759 L 11063,14759 11198,15373 9871,15175 11063,14759 Z"/></g><g style="stroke:none;fill:rgb(249,251,254)"><path d="M 11198,15373 L 11198,15373 11063,14759 9871,15175 11198,15373 Z"/></g><g style="stroke:none;fill:rgb(45,47,123)"><path d="M 10715,13115 L 10715,13115 C 10900,13080 11091,13059 11291,13059 L 12568,11648 12568,11648 C 12518,11648 12476,11648 12426,11648 11908,12240 11340,12727 10715,13115 Z"/></g><g style="stroke:none;fill:rgb(139,160,242)"><path d="M 11291,13341 L 10155,13764 10155,13764 C 10048,14738 9707,15055 9147,14724 9118,14710 9090,14702 9054,14702 L 9054,14702 8025,16727 7883,17010 8167,17292 8167,16868 9161,15175 9161,15175 C 9281,15126 9395,15083 9516,15041 10375,14752 10964,14180 11291,13341 Z"/></g><g style="stroke:none;fill:rgb(45,47,123)"><path d="M 8984,14138 L 8984,14138 C 9104,13990 9239,13863 9381,13750 9218,13806 9047,13856 8877,13905 8543,14420 8259,14956 8025,15514 7883,15853 7790,16212 7741,16586 L 7741,16586 7883,17010 8025,16727 8025,16727 C 8025,15718 8345,14851 8984,14138 Z"/></g><g style="stroke:none;fill:rgb(41,45,102)"><path d="M 12426,11648 L 12426,11648 C 12476,11648 12518,11648 12568,11648 L 12568,11648 13697,12840 13299,13884 12568,14046 12284,15316 13704,16586 13249,16219 12931,17242 12000,16727 12931,17708 14279,16629 12852,14611 13526,14068 13846,12635 13193,11513 12426,11648 Z"/></g><g style="stroke:none;fill:rgb(43,47,117)"><path d="M 9729,17010 L 9444,17574 9444,17574 C 8912,17863 8487,17772 8167,17292 L 8167,17292 7883,17010 7741,16586 7741,16586 C 7585,17249 7869,17715 8600,17976 8621,17990 8650,17997 8685,17997 L 8685,17997 11368,16572 12000,16727 10864,16304 9729,17010 Z"/></g></g></g></g></svg>