<?xml version="1.0" encoding="UTF-8"?>
<!DOCTYPE svg PUBLIC "-//W3C//DTD SVG 1.1//EN" "http://www.w3.org/Graphics/SVG/1.1/DTD/svg11.dtd"><svg version="1.1" viewBox="0 0 21000 29700" preserveAspectRatio="xMidYMid" fill-rule="evenodd" xmlns="http://www.w3.org/2000/svg" xmlns:xlink="http://www.w3.org/1999/xlink"><g visibility="visible" id="Default"><desc>Master slide</desc><g style="stroke:none;fill:none"><rect x="0" y="0" width="21000" height="29700"/></g></g><g visibility="visible" id="page1"><desc>Slide</desc><g><desc>Graphic</desc><g><g style="stroke:none;fill:rgb(57,59,159)"><path d="M 7080,13298 L 7080,13298 C 7045,13425 7031,13559 7038,13708 L 7038,13708 7187,14237 7470,13108 7470,13108 C 7470,12910 7528,12727 7649,12558 7584,12600 7528,12642 7470,12685 7272,12868 7144,13073 7080,13298 Z"/></g><g style="stroke:none;fill:rgb(36,33,99)"><path d="M 7122,12833 L 7080,13298 7080,13298 C 7144,13073 7272,12868 7470,12685 L 7122,12833 Z"/></g><g style="stroke:none;fill:rgb(133,161,243)"><path d="M 8323,13108 L 8323,13108 8464,12685 7989,12776 7896,14378 8109,15641 8181,16071 8181,16071 C 8181,16121 8181,16163 8181,16212 L 8181,16212 8692,14794 8039,13955 8323,13108 Z"/></g><g style="stroke:none;fill:rgb(200,214,250)"><path d="M 8464,12685 L 8464,12685 8323,13108 9777,14738 9182,15175 9039,15951 9032,14660 8330,14152 8323,13108 8039,13955 8692,14794 8181,16212 8634,16953 9508,15486 10871,14872 11631,15606 12298,15225 10672,13686 9884,14364 9884,14364 C 9160,14145 8862,13701 8997,13037 L 8997,13037 9600,12967 10601,12593 12298,12685 12298,12685 C 12298,12635 12305,12614 12319,12607 13093,12325 13135,11972 12440,11556 L 12440,11485 12440,11485 C 12042,12050 11616,12170 11162,11838 L 11162,11838 10026,11556 8464,12685 Z"/></g><g style="stroke:none;fill:rgb(108,127,241)"><path d="M 7649,12558 L 7649,12558 C 7528,12727 7470,12910 7470,13108 L 7470,13108 7896,14378 7989,12776 8464,12685 10026,11556 11162,11838 10878,11415 10878,11415 C 10274,11415 9735,11485 9245,11619 8969,11697 8706,11796 8472,11916 8081,12106 7812,12318 7649,12558 Z"/></g><g style="stroke:none;fill:rgb(252,253,254)"><path d="M 8323,13108 L 8323,13108 8330,14152 9032,14660 9039,15951 9182,15175 9777,14738 8323,13108 Z"/></g><g style="stroke:none;fill:rgb(46,56,119)"><path d="M 10878,11415 L 11162,11838 11162,11838 C 11836,11266 12475,11266 13071,11824 L 13071,11824 13128,12431 12298,12685 12298,12967 13149,12903 13149,12903 C 13625,11986 13320,11351 12233,11005 L 10878,11274 10878,11274 C 10878,11323 10878,11365 10878,11415 Z"/></g><g style="stroke:none;fill:rgb(57,59,159)"><path d="M 10878,11415 L 10878,11415 C 10878,11365 10878,11323 10878,11274 10423,11231 10012,11288 9643,11443 9508,11499 9380,11556 9245,11619 9735,11485 10274,11415 10878,11415 Z"/></g><g style="stroke:none;fill:rgb(87,97,221)"><path d="M 9600,12967 L 9600,12967 9032,13249 9664,13962 10026,13390 11304,13672 12014,14660 11531,13263 12156,13108 12156,13108 C 12205,13108 12240,13094 12262,13073 12284,13051 12298,13016 12298,12967 L 12298,12967 12298,12685 10601,12593 9600,12967 Z"/></g><g style="stroke:none;fill:rgb(109,137,234)"><path d="M 9032,13249 L 9032,13249 9600,12967 8997,13037 8997,13037 C 8862,13701 9160,14145 9884,14364 L 9884,14364 10672,13686 12298,15225 12298,14942 12014,14660 11304,13672 10026,13390 9664,13962 9032,13249 Z"/></g><g style="stroke:none;fill:rgb(106,131,227)"><path d="M 12440,11485 L 12440,11556 12440,11556 C 13135,11972 13093,12325 12319,12607 12305,12614 12298,12635 12298,12685 L 12298,12685 13128,12431 13071,11824 13071,11824 C 12475,11266 11836,11266 11162,11838 11616,12170 12042,12050 12440,11485 Z"/></g><g style="stroke:none;fill:rgb(40,41,125)"><path d="M 11729,13531 L 11729,13531 12156,13108 11531,13263 12014,14660 12298,14942 11729,13531 Z"/></g><g style="stroke:none;fill:rgb(41,43,115)"><path d="M 12298,14942 L 12298,14942 12298,15225 12581,16636 11446,15789 12518,16911 12518,16911 C 12539,16911 12546,16904 12553,16897 13057,16142 12972,15493 12298,14942 Z"/></g><g style="stroke:none;fill:rgb(99,113,221)"><path d="M 12581,16636 L 12581,16636 12298,15225 11631,15606 10871,14872 9508,15486 8634,16953 8181,16212 8181,16212 C 8181,16163 8181,16121 8181,16071 L 8039,16918 8039,16918 C 8500,17870 8947,17687 9380,16375 9387,16360 9408,16353 9458,16353 L 9458,16353 9877,15577 11446,15789 12581,16636 Z"/></g><g style="stroke:none;fill:rgb(44,48,118)"><path d="M 9458,16353 L 9458,16353 C 9408,16353 9387,16360 9380,16375 8947,17687 8500,17870 8039,16918 L 8174,17983 8174,17983 C 8174,18004 8174,18011 8174,18018 9039,17807 9466,17249 9458,16353 Z"/></g><g style="stroke:none;fill:rgb(35,38,117)"><path d="M 9458,16353 L 9458,16353 11446,15789 9877,15577 9458,16353 Z"/></g><g style="stroke:none;fill:rgb(84,95,219)"><path d="M 7889,15507 L 7889,15507 C 7896,15556 7896,15598 7896,15648 7989,15627 8060,15620 8109,15641 L 8109,15641 7896,14378 7470,13108 7187,14237 7187,14237 C 7570,14512 7804,14935 7889,15507 Z"/></g><g style="stroke:none;fill:rgb(36,33,99)"><path d="M 7896,15648 L 7896,15648 C 7896,15598 7896,15556 7889,15507 7804,14935 7570,14512 7187,14237 L 7187,14237 7038,13708 6973,14371 7896,15648 Z"/></g></g></g></g></svg>