<?xml version="1.0" encoding="UTF-8"?>
<!DOCTYPE svg PUBLIC "-//W3C//DTD SVG 1.1//EN" "http://www.w3.org/Graphics/SVG/1.1/DTD/svg11.dtd"><svg version="1.1" viewBox="0 0 21000 29700" preserveAspectRatio="xMidYMid" fill-rule="evenodd" xmlns="http://www.w3.org/2000/svg" xmlns:xlink="http://www.w3.org/1999/xlink"><g visibility="visible" id="Default"><desc>Master slide</desc><g style="stroke:none;fill:none"><rect x="0" y="0" width="21000" height="29700"/></g></g><g visibility="visible" id="page1"><desc>Slide</desc><g><desc>Graphic</desc><g><g style="stroke:none;fill:rgb(43,46,115)"><path d="M 7635,13147 L 7635,13147 7635,13993 6358,15122 6358,15122 C 6330,15510 6450,15828 6713,16089 6777,16145 6848,16202 6926,16251 7054,16950 7409,17465 7991,17796 8502,17098 9084,16484 9744,15955 9829,15891 9928,15849 10049,15828 L 10049,15828 10063,16597 11668,17246 11668,17246 C 11824,17521 12058,17662 12377,17683 12512,17690 12661,17676 12811,17655 L 12811,17655 14159,16759 12463,14981 12633,14269 12633,14269 C 13080,14219 13436,14008 13712,13634 13903,13380 14003,13104 14017,12808 L 14017,12808 13315,11877 12725,11813 12463,11171 11469,11595 10411,11327 7635,13147 Z M 9340,12582 L 9340,12582 10135,11602 11036,12096 13172,12159 13599,13147 13357,13344 13229,13711 12179,13993 12037,15405 12037,15405 C 12115,15433 12200,15461 12278,15496 13350,15870 13548,16399 12888,17098 L 12888,17098 12342,17387 12037,16957 10333,16533 10333,15263 8771,16251 8062,17380 8062,17380 C 7458,17204 7175,16780 7210,16110 L 7210,16110 6784,15122 7635,14558 7635,14558 C 7984,14142 8161,13634 8154,13027 L 9340,12582 Z"/></g><g style="stroke:none;fill:rgb(114,126,219)"><path d="M 10135,11602 L 10135,11602 9340,12582 8154,13027 8154,13027 C 8161,13634 7984,14142 7635,14558 L 7635,14558 7352,15122 7352,15969 8913,13429 8913,13429 C 9105,13337 9304,13288 9503,13295 9942,13302 10326,13443 10660,13718 L 10660,13718 11043,13570 11696,12596 12881,12399 13172,12865 11894,13852 11611,15405 13023,16477 11894,16533 12888,17098 12888,17098 C 13548,16399 13350,15870 12278,15496 12200,15461 12115,15433 12037,15405 L 12037,15405 12179,13993 13229,13711 13357,13344 13599,13147 13172,12159 11036,12096 10135,11602 Z"/></g><g style="stroke:none;fill:rgb(167,186,245)"><path d="M 9503,13295 L 9503,13295 C 9304,13288 9105,13337 8913,13429 L 8913,13429 7352,15969 7777,16957 7635,15546 8913,14417 9417,13443 10553,13986 11469,13570 12179,12582 13172,12865 12881,12399 11696,12596 11043,13570 10660,13718 10660,13718 C 10326,13443 9942,13302 9503,13295 Z"/></g><g style="stroke:none;fill:rgb(215,223,248)"><path d="M 11469,13570 L 11469,13570 10553,13986 9417,13443 8913,14417 7635,15546 7777,16957 8154,16971 8346,15969 9055,15263 10191,14699 10759,14981 10759,14981 C 10752,15045 10752,15108 10745,15172 10660,16040 11043,16491 11894,16533 L 11894,16533 13023,16477 11611,15405 11894,13852 13172,12865 12179,12582 11469,13570 Z"/></g><g style="stroke:none;fill:rgb(108,121,210)"><path d="M 12342,17387 L 12342,17387 12888,17098 11894,16533 11894,16533 C 11043,16491 10660,16040 10745,15172 10752,15108 10752,15045 10759,14981 L 10759,14981 10191,14699 9055,15263 8346,15969 8154,16971 7777,16957 7352,15969 7352,15969 C 7302,15969 7259,15969 7210,15969 7210,16018 7210,16061 7210,16110 7175,16780 7458,17204 8062,17380 L 8062,17380 8771,16251 10333,15263 10333,16533 12037,16957 12342,17387 Z"/></g><g style="stroke:none;fill:rgb(78,92,191)"><path d="M 7352,15969 L 7352,15969 7352,15122 7635,14558 6784,15122 7210,16110 7210,16110 C 7210,16061 7210,16018 7210,15969 7259,15969 7302,15969 7352,15969 Z"/></g></g></g></g></svg>