<?xml version="1.0" encoding="UTF-8"?>
<!DOCTYPE svg PUBLIC "-//W3C//DTD SVG 1.1//EN" "http://www.w3.org/Graphics/SVG/1.1/DTD/svg11.dtd"><svg version="1.1" viewBox="0 0 21000 29700" preserveAspectRatio="xMidYMid" fill-rule="evenodd" xmlns="http://www.w3.org/2000/svg" xmlns:xlink="http://www.w3.org/1999/xlink"><g visibility="visible" id="Default"><desc>Master slide</desc><g style="stroke:none;fill:none"><rect x="0" y="0" width="21000" height="29700"/></g></g><g visibility="visible" id="page1"><desc>Slide</desc><g><desc>Graphic</desc><g><g style="stroke:none;fill:rgb(49,51,112)"><path d="M 10493,12000 L 10493,12000 C 10227,11923 10071,11742 10020,11465 L 10020,11465 9819,12522 8593,13527 8542,14700 7945,15074 7686,15589 7750,16633 8334,17264 8892,17213 8892,17213 C 9657,16498 10617,16072 11777,15937 11867,15918 11958,15885 12042,15840 L 12042,15840 11374,14938 12094,12496 11057,11981 11057,11981 C 10869,12052 10681,12058 10493,12000 Z M 10869,12251 L 10869,12251 11783,12747 11446,14429 10798,15074 10357,15467 10357,15467 C 10370,15976 9909,16278 8983,16362 8983,16407 8976,16446 8962,16485 8684,17193 8392,17193 8075,16491 L 8075,16491 7945,15847 8983,14429 8853,13656 10869,12251 Z"/></g><g style="stroke:none;fill:rgb(133,148,236)"><path d="M 11783,12747 L 11783,12747 10869,12251 8853,13656 8983,14429 8075,15976 8075,16491 8075,16491 C 8392,17193 8684,17193 8962,16485 8976,16446 8983,16407 8983,16362 L 8983,16362 9890,15718 10299,14642 10798,15074 11446,14429 11783,12747 Z M 10668,13269 L 10668,13269 11024,13179 10862,14107 10150,14171 9760,15331 9760,15331 C 9631,15492 9501,15660 9371,15821 9067,16214 8684,16369 8211,16285 8205,16266 8205,16253 8211,16240 8892,15061 9715,14075 10668,13269 Z"/></g><g style="stroke:none;fill:rgb(225,233,252)"><path d="M 11024,13179 L 10668,13269 10668,13269 C 9715,14075 8892,15061 8211,16240 8205,16253 8205,16266 8211,16285 8684,16369 9067,16214 9371,15821 9501,15660 9631,15492 9760,15331 L 9760,15331 10150,14171 10862,14107 11024,13179 Z"/></g><g style="stroke:none;fill:rgb(89,101,210)"><path d="M 10357,15467 L 10357,15467 10798,15074 10299,14642 9890,15718 8983,16362 8983,16362 C 9909,16278 10370,15976 10357,15467 Z"/></g><g style="stroke:none;fill:rgb(94,111,228)"><path d="M 8075,16491 L 8075,16491 8075,15976 8983,14429 7945,15847 8075,16491 Z"/></g></g></g></g></svg>