<?xml version="1.0" encoding="UTF-8"?>
<!DOCTYPE svg PUBLIC "-//W3C//DTD SVG 1.1//EN" "http://www.w3.org/Graphics/SVG/1.1/DTD/svg11.dtd"><svg version="1.1" viewBox="0 0 21000 29700" preserveAspectRatio="xMidYMid" fill-rule="evenodd" xmlns="http://www.w3.org/2000/svg" xmlns:xlink="http://www.w3.org/1999/xlink"><g visibility="visible" id="Default"><desc>Master slide</desc><g style="stroke:none;fill:none"><rect x="0" y="0" width="21000" height="29700"/></g></g><g visibility="visible" id="page1"><desc>Slide</desc><g><desc>Graphic</desc><g><g style="stroke:none;fill:rgb(50,54,127)"><path d="M 8219,13556 L 8219,13556 C 8219,13605 8205,13640 8183,13669 8091,13803 7913,13859 7658,13838 L 7658,13838 7651,13838 7651,13845 7651,15249 7743,16039 7509,16378 7785,17112 7785,17112 C 7785,17105 7785,17091 7792,17083 7843,17034 7892,16999 7949,16971 7985,16949 8027,16942 8077,16942 L 8077,16942 7792,14685 8645,13556 8645,13556 C 8645,13168 8907,12836 9439,12561 9965,12286 10596,12145 11342,12145 L 11342,12145 12903,12145 12406,11623 11377,11968 11377,11968 C 11144,11778 10895,11665 10625,11616 10136,11524 9866,11665 9816,12039 L 8219,13556 Z"/></g><g style="stroke:none;fill:rgb(30,28,83)"><path d="M 8183,13669 L 8183,13669 C 8205,13640 8219,13605 8219,13556 L 7658,13838 7658,13838 C 7913,13859 8091,13803 8183,13669 Z"/></g><g style="stroke:none;fill:rgb(125,147,239)"><path d="M 8645,14685 L 8645,14685 8503,14120 8503,16801 8645,14685 Z"/></g><g style="stroke:none;fill:rgb(119,136,234)"><path d="M 8503,14120 L 8645,14685 8645,14685 C 8645,14021 8907,13457 9439,12991 9965,12519 10596,12286 11342,12286 11342,12236 11342,12194 11342,12145 10596,12145 9965,12286 9439,12561 8907,12836 8645,13168 8645,13556 L 8503,14120 Z"/></g><g style="stroke:none;fill:rgb(89,100,207)"><path d="M 8503,14120 L 8503,14120 8645,13556 7792,14685 8077,16942 8503,16801 8503,14120 Z"/></g><g style="stroke:none;fill:rgb(30,28,83)"><path d="M 7651,13845 L 7651,13845 7083,14685 7651,15249 7651,13845 Z"/></g><g style="stroke:none;fill:rgb(127,144,207)"><path d="M 11342,12145 L 11342,12145 C 11342,12194 11342,12236 11342,12286 L 12336,13274 12336,13274 C 12336,13323 12336,13365 12336,13415 13117,13217 13315,12836 12940,12265 12917,12229 12903,12194 12903,12145 L 11342,12145 Z"/></g><g style="stroke:none;fill:rgb(133,154,236)"><path d="M 9639,13415 L 9355,14402 9355,14402 C 9511,14635 9730,14769 10022,14790 10455,14868 10760,14727 10937,14374 L 10937,14374 11342,14353 12194,15672 12194,15672 C 12194,15623 12194,15581 12194,15531 12194,15482 12194,15440 12194,15390 L 12194,15390 11917,14847 11626,14685 11058,13838 10462,14191 9936,13902 11200,13062 12336,13415 12336,13415 C 12336,13365 12336,13323 12336,13274 L 12336,13274 10994,12864 9639,13415 Z"/></g><g style="stroke:none;fill:rgb(200,212,249)"><path d="M 9355,14402 L 9355,14402 9639,13415 10994,12864 12336,13274 11342,12286 11342,12286 C 10596,12286 9965,12519 9439,12991 8907,13457 8645,14021 8645,14685 L 8645,14685 8503,16801 8077,16942 8077,16942 C 8396,18022 8751,18071 9135,17105 9142,17091 9163,17083 9212,17083 L 11058,15207 11058,15207 C 11093,15200 11122,15200 11158,15200 11279,15207 11335,15277 11314,15411 11307,15454 11307,15496 11321,15531 11626,16314 11917,16357 12194,15672 L 12194,15672 11342,14353 10937,14374 10937,14374 C 10760,14727 10455,14868 10022,14790 9730,14769 9511,14635 9355,14402 Z"/></g><g style="stroke:none;fill:rgb(88,98,223)"><path d="M 11058,13838 L 11058,13838 11626,14685 11917,14847 12194,15390 12194,15390 C 12187,15341 12173,15306 12151,15270 11647,14417 11704,13803 12336,13415 L 12336,13415 11200,13062 9936,13902 10462,14191 11058,13838 Z"/></g><g style="stroke:none;fill:rgb(46,51,124)"><path d="M 12903,12145 L 12903,12145 C 12903,12194 12917,12229 12940,12265 13315,12836 13117,13217 12336,13415 11704,13803 11647,14417 12151,15270 12173,15306 12187,15341 12194,15390 12194,15440 12194,15482 12194,15531 L 12194,15531 12620,16942 11484,16237 10199,16300 9355,17083 9276,17570 9070,17930 10199,16583 11484,16519 12620,17366 12903,15955 12478,14544 12080,14092 13330,13330 13429,12483 12903,12145 Z"/></g><g style="stroke:none;fill:rgb(118,132,226)"><path d="M 12194,15531 L 12194,15531 C 12194,15581 12194,15623 12194,15672 11917,16357 11626,16314 11321,15531 11307,15496 11307,15454 11314,15411 11335,15277 11279,15207 11158,15200 11122,15200 11093,15200 11058,15207 L 9212,17083 9212,17083 C 9262,17083 9305,17083 9355,17083 L 9355,17083 10199,16300 11484,16237 12620,16942 12194,15531 Z"/></g><g style="stroke:none;fill:rgb(81,93,183)"><path d="M 9212,17083 L 9212,17083 C 9163,17083 9142,17091 9135,17105 8751,18071 8396,18022 8077,16942 8027,16942 7985,16949 7949,16971 7892,16999 7843,17034 7792,17083 7785,17091 7785,17105 7785,17112 L 7906,17436 7906,17436 C 7913,17436 7913,17436 7920,17436 7927,17436 7934,17457 7934,17507 8070,18226 8410,18382 8956,17965 8986,17944 9021,17930 9070,17930 L 9070,17930 9276,17570 9355,17083 9355,17083 C 9305,17083 9262,17083 9212,17083 Z"/></g><g style="stroke:none;fill:rgb(50,54,127)"><path d="M 7906,17436 L 7934,17507 7934,17507 C 7934,17457 7927,17436 7920,17436 7913,17436 7913,17436 7906,17436 Z"/></g></g></g></g></svg>