<?xml version="1.0" encoding="UTF-8"?>
<!DOCTYPE svg PUBLIC "-//W3C//DTD SVG 1.1//EN" "http://www.w3.org/Graphics/SVG/1.1/DTD/svg11.dtd"><svg version="1.1" viewBox="0 0 21000 29700" preserveAspectRatio="xMidYMid" fill-rule="evenodd" xmlns="http://www.w3.org/2000/svg" xmlns:xlink="http://www.w3.org/1999/xlink"><g visibility="visible" id="Default"><desc>Master slide</desc><g style="stroke:none;fill:none"><rect x="0" y="0" width="21000" height="29700"/></g></g><g visibility="visible" id="page1"><desc>Slide</desc><g><desc>Graphic</desc><g><g style="stroke:none;fill:rgb(112,127,230)"><path d="M 10574,14902 L 10574,14902 C 10340,14641 10155,14655 10027,14959 L 10425,15616 10425,15616 C 10291,15708 10198,15814 10148,15949 10091,16132 10169,16260 10375,16337 L 10375,16337 9316,17221 10880,17080 10596,14959 10596,14959 C 10589,14938 10581,14916 10574,14902 Z"/></g><g style="stroke:none;fill:rgb(52,56,141)"><path d="M 11023,16253 L 11023,16253 C 10973,16196 10930,16139 10880,16090 L 10880,16090 10596,14959 10880,17080 10880,17080 C 11279,16889 11329,16613 11023,16253 Z"/></g><g style="stroke:none;fill:rgb(204,214,248)"><path d="M 9600,15242 L 9600,15242 9316,16655 8854,16818 8604,17080 7751,17221 8106,17695 8747,17645 8747,17645 C 9024,17638 9202,17539 9287,17348 9309,17313 9316,17270 9316,17221 L 10375,16337 10375,16337 C 10169,16260 10091,16132 10148,15949 10198,15814 10291,15708 10425,15616 L 10425,15616 10027,14959 9600,15242 Z"/></g><g style="stroke:none;fill:rgb(80,89,184)"><path d="M 9316,16655 L 9316,16655 9600,15242 8604,16655 7466,17080 7900,17794 8747,17645 8106,17695 7751,17221 8604,17080 8854,16818 9316,16655 Z"/></g></g></g></g></svg>