<?xml version="1.0" encoding="UTF-8"?>
<!DOCTYPE svg PUBLIC "-//W3C//DTD SVG 1.1//EN" "http://www.w3.org/Graphics/SVG/1.1/DTD/svg11.dtd"><svg version="1.1" viewBox="0 0 21000 29700" preserveAspectRatio="xMidYMid" fill-rule="evenodd" xmlns="http://www.w3.org/2000/svg" xmlns:xlink="http://www.w3.org/1999/xlink"><g visibility="visible" id="Default"><desc>Master slide</desc><g style="stroke:none;fill:none"><rect x="0" y="0" width="21000" height="29700"/></g></g><g visibility="visible" id="page1"><desc>Slide</desc><g><desc>Graphic</desc><g><g style="stroke:none;fill:rgb(43,46,120)"><path d="M 11955,11809 L 11955,11809 C 11791,11893 11741,12034 11791,12232 L 12075,12232 12075,12232 C 12387,12232 12657,12288 12877,12401 13082,12500 13189,12620 13210,12754 L 13154,11943 13154,11943 C 12792,11597 12387,11555 11955,11809 Z"/></g><g style="stroke:none;fill:rgb(98,106,216)"><path d="M 11791,12232 L 11791,12232 11081,12796 10875,15202 9662,16042 8526,16606 8526,16606 C 8526,16656 8526,16698 8526,16747 L 8526,16747 9662,16465 11365,15477 11769,14426 11230,13431 12075,12232 11791,12232 Z"/></g><g style="stroke:none;fill:rgb(214,223,252)"><path d="M 11230,13431 L 11230,13431 11769,14426 11365,15477 9662,16465 9662,16465 C 9030,16740 8717,17044 8731,17382 8731,17418 8753,17453 8788,17488 L 8788,17488 9662,17312 10513,17030 10712,16719 11081,16465 12578,16197 12089,15400 12238,15075 12238,15075 C 12231,15068 12224,15061 12217,15054 12231,15047 12245,15047 12252,15040 L 12252,15040 12359,13361 12288,13361 12288,13361 C 12941,12796 12870,12422 12075,12232 L 11230,13431 Z"/></g><g style="stroke:none;fill:rgb(93,101,223)"><path d="M 13210,12754 L 13210,12754 C 13189,12620 13082,12500 12877,12401 12657,12288 12387,12232 12075,12232 12870,12422 12941,12796 12288,13361 L 12359,13361 12359,13361 C 12636,13325 12756,13467 12714,13784 L 12785,13784 12785,13784 C 12834,13784 12877,13784 12927,13784 L 12927,13784 13452,13234 13210,12796 13210,12796 C 13210,12782 13210,12768 13210,12754 Z"/></g><g style="stroke:none;fill:rgb(82,89,222)"><path d="M 12927,13784 L 12927,13784 C 12877,13784 12834,13784 12785,13784 L 12252,15040 12252,15040 C 12245,15047 12231,15047 12217,15054 12224,15061 12231,15068 12238,15075 L 12238,15075 12927,16324 12927,13784 Z"/></g><g style="stroke:none;fill:rgb(118,135,233)"><path d="M 12714,13784 L 12714,13784 C 12756,13467 12636,13325 12359,13361 L 12359,13361 12252,15040 12785,13784 12714,13784 Z"/></g><g style="stroke:none;fill:rgb(40,45,112)"><path d="M 13217,13784 L 13217,13784 13800,13325 13210,12796 13452,13234 12927,13784 12927,16324 12927,16324 C 12501,16888 11883,17030 11081,16747 L 11081,16747 10712,17001 10371,17319 9662,17453 9662,17453 C 9662,17502 9648,17538 9626,17559 9604,17580 9569,17594 9520,17594 9520,17643 9513,17686 9491,17721 9363,17961 9086,18060 8668,18017 9534,18144 10271,17869 10875,17199 10918,17157 10954,17107 10989,17058 L 10989,17058 13068,16945 13217,13784 Z"/></g><g style="stroke:none;fill:rgb(118,135,233)"><path d="M 12238,15075 L 12238,15075 12089,15400 12578,16197 11081,16465 10712,16719 10513,17030 9662,17312 9662,17312 C 9662,17361 9662,17403 9662,17453 L 9662,17453 10371,17319 10712,17001 11081,16747 11081,16747 C 11883,17030 12501,16888 12927,16324 L 12238,15075 Z"/></g><g style="stroke:none;fill:rgb(153,170,242)"><path d="M 9662,17453 L 9662,17453 C 9662,17403 9662,17361 9662,17312 L 8788,17488 8788,17488 C 8753,17453 8731,17418 8731,17382 8717,17044 9030,16740 9662,16465 L 8526,16747 8526,16747 C 8519,16768 8512,16783 8505,16797 8171,17199 8291,17530 8867,17799 L 9520,17594 9520,17594 C 9569,17594 9604,17580 9626,17559 9648,17538 9662,17502 9662,17453 Z"/></g><g style="stroke:none;fill:rgb(66,83,141)"><path d="M 9491,17721 L 9491,17721 C 9513,17686 9520,17643 9520,17594 L 8867,17799 8867,17799 C 8291,17530 8171,17199 8505,16797 8512,16783 8519,16768 8526,16747 8526,16698 8526,16656 8526,16606 8476,16606 8433,16613 8391,16627 8199,16705 8008,16797 7816,16888 7859,17460 8100,17827 8533,17996 8575,18010 8618,18017 8668,18017 9086,18060 9363,17961 9491,17721 Z"/></g><g style="stroke:none;fill:rgb(32,31,110)"><path d="M 9662,16042 L 9662,16042 10875,15202 11081,12796 10740,14927 9662,16042 Z"/></g></g></g></g></svg>