<?xml version="1.0" encoding="UTF-8"?>
<!DOCTYPE svg PUBLIC "-//W3C//DTD SVG 1.1//EN" "http://www.w3.org/Graphics/SVG/1.1/DTD/svg11.dtd"><svg version="1.1" viewBox="0 0 21000 29700" preserveAspectRatio="xMidYMid" fill-rule="evenodd" xmlns="http://www.w3.org/2000/svg" xmlns:xlink="http://www.w3.org/1999/xlink"><g visibility="visible" id="Default"><desc>Master slide</desc><g style="stroke:none;fill:none"><rect x="0" y="0" width="21000" height="29700"/></g></g><g visibility="visible" id="page1"><desc>Slide</desc><g><desc>Graphic</desc><g><g style="stroke:none;fill:rgb(50,52,126)"><path d="M 10563,12529 L 10563,12529 9640,13167 8510,14038 8627,15090 8627,15324 8863,14155 10575,12763 11092,13290 11098,14740 9928,15628 10134,16044 9687,16260 8745,16845 8158,16845 8158,16845 C 8158,16886 8158,16921 8158,16962 L 8158,16962 8522,17295 8975,16903 10475,16254 10475,16254 C 10398,15722 10646,15295 11216,14974 L 11216,14974 11346,12921 10563,12529 Z"/></g><g style="stroke:none;fill:rgb(199,211,250)"><path d="M 10669,13360 L 10669,13360 9569,13921 9098,14506 8857,15611 8040,16611 8158,16845 8745,16845 9805,15441 9922,14705 10557,14734 10669,13360 Z"/></g><g style="stroke:none;fill:rgb(102,116,229)"><path d="M 9569,13921 L 9569,13921 10669,13360 10557,14734 9922,14705 9805,15441 8745,16845 9687,16260 10134,16044 9928,15628 11098,14740 11092,13290 10575,12763 8863,14155 8627,15324 8627,15324 C 8468,15324 8328,15453 8216,15704 8098,15956 8040,16254 8040,16611 L 8040,16611 8857,15611 9098,14506 9569,13921 Z"/></g><g style="stroke:none;fill:rgb(46,52,121)"><path d="M 8627,15324 L 8627,15324 8627,15090 7687,15909 7739,16739 8158,16962 8158,16962 C 8158,16921 8158,16886 8158,16845 L 8040,16611 8040,16611 C 8040,16254 8098,15956 8216,15704 8328,15453 8468,15324 8627,15324 Z"/></g></g></g></g></svg>