<?xml version="1.0" encoding="UTF-8"?>
<!DOCTYPE svg PUBLIC "-//W3C//DTD SVG 1.1//EN" "http://www.w3.org/Graphics/SVG/1.1/DTD/svg11.dtd"><svg version="1.1" viewBox="0 0 21000 29700" preserveAspectRatio="xMidYMid" fill-rule="evenodd" xmlns="http://www.w3.org/2000/svg" xmlns:xlink="http://www.w3.org/1999/xlink"><g visibility="visible" id="Default"><desc>Master slide</desc><g style="stroke:none;fill:none"><rect x="0" y="0" width="21000" height="29700"/></g></g><g visibility="visible" id="page1"><desc>Slide</desc><g><desc>Graphic</desc><g><g style="stroke:none;fill:rgb(102,102,102)"><path d="M 12212,11406 L 12212,11406 12784,10834 8204,10834 8204,18838 8776,18266 8776,18266 C 8776,15979 8776,13693 8776,11406 L 12212,11406 Z"/></g><g style="stroke:none;fill:rgb(153,153,153)"><path d="M 12784,10834 L 12784,10834 12212,11406 12212,18266 8776,18266 8204,18838 12784,18838 12784,10834 Z"/><path d="M 12784,10834 L 12784,10834 13357,10263 7630,10263 7630,19410 8204,18838 8204,10834 12784,10834 Z"/></g><g style="stroke:none;fill:rgb(102,102,102)"><path d="M 13357,10263 L 13357,10263 12784,10834 12784,18838 8204,18838 7630,19410 13357,19410 13357,10263 Z"/></g><g style="stroke:none;fill:rgb(0,136,85)"><path d="M 15074,10263 L 15074,10263 13357,10263 13357,19410 15074,19410 15074,10263 Z"/><path d="M 7630,10263 L 7630,10263 5913,10263 5913,19410 7630,19410 7630,10263 Z"/></g><g style="stroke:none;fill:rgb(0,0,0)"><path d="M 8776,18266 L 8776,18266 12212,18266 12212,11406 8776,11406 8776,11406 C 8776,13693 8776,15979 8776,18266 Z"/></g><g style="stroke:none;fill:rgb(255,255,255)"><path d="M 7345,17695 L 7345,17695 6880,17123 6486,17123 6486,17695 7345,17695 Z"/></g><g style="stroke:none;fill:rgb(255,255,0)"><path d="M 6880,17123 L 6880,17123 7345,17695 7631,17695 7631,17123 6880,17123 Z"/></g><g style="stroke:none;fill:rgb(255,255,255)"><path d="M 7345,16552 L 7345,16552 6880,15979 6486,15979 6486,16552 7345,16552 Z"/></g><g style="stroke:none;fill:rgb(255,255,0)"><path d="M 6880,15979 L 6880,15979 7345,16552 7631,16552 7631,15979 6880,15979 Z"/></g><g style="stroke:none;fill:rgb(255,255,255)"><path d="M 7345,15408 L 7345,15408 6880,14836 6486,14836 6486,15408 7345,15408 Z"/></g><g style="stroke:none;fill:rgb(255,255,0)"><path d="M 6880,14836 L 6880,14836 7345,15408 7631,15408 7631,14836 6880,14836 Z"/></g><g style="stroke:none;fill:rgb(255,255,255)"><path d="M 7345,14266 L 7345,14266 6880,13693 6486,13693 6486,14266 7345,14266 Z"/></g><g style="stroke:none;fill:rgb(255,255,0)"><path d="M 6880,13693 L 6880,13693 7345,14266 7631,14266 7631,13693 6880,13693 Z"/></g><g style="stroke:none;fill:rgb(255,255,255)"><path d="M 7345,13122 L 7345,13122 6880,12550 6486,12550 6486,13122 7345,13122 Z"/></g><g style="stroke:none;fill:rgb(255,255,0)"><path d="M 6880,12550 L 6880,12550 7345,13122 7631,13122 7631,12550 6880,12550 Z"/></g><g style="stroke:none;fill:rgb(255,255,255)"><path d="M 7345,11979 L 7345,11979 6880,11406 6486,11406 6486,11979 7345,11979 Z"/></g><g style="stroke:none;fill:rgb(255,255,0)"><path d="M 6880,11406 L 6880,11406 7345,11979 7631,11979 7631,11406 6880,11406 Z"/><path d="M 13657,17123 L 13657,17123 13371,17123 13371,17694 14122,17694 13657,17123 Z"/></g><g style="stroke:none;fill:rgb(255,153,0)"><path d="M 14122,17694 L 14122,17694 14515,17694 14515,17123 13657,17123 14122,17694 Z"/></g><g style="stroke:none;fill:rgb(255,255,0)"><path d="M 13657,15980 L 13657,15980 13371,15980 13371,16552 14122,16552 13657,15980 Z"/></g><g style="stroke:none;fill:rgb(255,153,0)"><path d="M 14122,16552 L 14122,16552 14515,16552 14515,15980 13657,15980 14122,16552 Z"/></g><g style="stroke:none;fill:rgb(255,255,0)"><path d="M 13657,14837 L 13657,14837 13371,14837 13371,15408 14122,15408 13657,14837 Z"/></g><g style="stroke:none;fill:rgb(255,153,0)"><path d="M 14122,15408 L 14122,15408 14515,15408 14515,14837 13657,14837 14122,15408 Z"/></g><g style="stroke:none;fill:rgb(255,255,0)"><path d="M 13657,13693 L 13657,13693 13371,13693 13371,14265 14122,14265 13657,13693 Z"/></g><g style="stroke:none;fill:rgb(255,153,0)"><path d="M 14122,14265 L 14122,14265 14515,14265 14515,13693 13657,13693 14122,14265 Z"/></g><g style="stroke:none;fill:rgb(255,255,0)"><path d="M 13657,12550 L 13657,12550 13371,12550 13371,13121 14122,13121 13657,12550 Z"/></g><g style="stroke:none;fill:rgb(255,153,0)"><path d="M 14122,13121 L 14122,13121 14515,13121 14515,12550 13657,12550 14122,13121 Z"/></g><g style="stroke:none;fill:rgb(255,255,0)"><path d="M 13657,11406 L 13657,11406 13371,11406 13371,11978 14122,11978 13657,11406 Z"/></g><g style="stroke:none;fill:rgb(255,153,0)"><path d="M 14122,11978 L 14122,11978 14515,11978 14515,11406 13657,11406 14122,11978 Z"/></g></g></g></g></svg>