<?xml version="1.0" encoding="UTF-8"?>
<!DOCTYPE svg PUBLIC "-//W3C//DTD SVG 1.1//EN" "http://www.w3.org/Graphics/SVG/1.1/DTD/svg11.dtd"><svg version="1.1" viewBox="0 0 21000 29700" preserveAspectRatio="xMidYMid" fill-rule="evenodd" xmlns="http://www.w3.org/2000/svg" xmlns:xlink="http://www.w3.org/1999/xlink"><g visibility="visible" id="Default"><desc>Master slide</desc><g style="stroke:none;fill:none"><rect x="0" y="0" width="21000" height="29700"/></g></g><g visibility="visible" id="page1"><desc>Slide</desc><g><desc>Graphic</desc><g><g style="stroke:none;fill:rgb(153,153,153)"><path d="M 15074,10834 L 15074,10834 15074,10263 5913,10263 5913,10834 15074,10834 Z"/></g><g style="stroke:none;fill:rgb(102,102,102)"><path d="M 15074,11406 L 15074,11406 15074,10834 5913,10834 5913,11406 15074,11406 Z"/></g><g style="stroke:none;fill:rgb(153,153,153)"><path d="M 5913,18266 L 5913,18266 5913,18838 15074,18838 15074,18266 5913,18266 Z"/></g><g style="stroke:none;fill:rgb(102,102,102)"><path d="M 5913,18838 L 5913,18838 5913,19410 15074,19410 15074,18838 5913,18838 Z"/></g><g style="stroke:none;fill:rgb(0,0,0)"><path d="M 5913,18266 L 5913,18266 15074,18266 15074,11406 5913,11406 5913,18266 Z"/></g><g style="stroke:none;fill:rgb(102,102,102)"><path d="M 6585,12721 L 6585,12721 C 6568,12692 6545,12665 6515,12638 6445,12579 6362,12549 6266,12551 6168,12549 6084,12579 6016,12638 5988,12661 5967,12689 5951,12717 6176,12889 6388,12891 6585,12721 Z"/></g><g style="stroke:none;fill:rgb(51,51,51)"><path d="M 6618,12855 L 6618,12855 C 6618,12806 6607,12762 6585,12721 6388,12891 6176,12889 5951,12717 5925,12759 5913,12805 5913,12855 5913,12939 5947,13013 6016,13072 6084,13131 6168,13162 6266,13162 6357,13160 6433,13134 6500,13083 L 6515,13072 6515,13072 C 6585,13013 6618,12939 6618,12855 Z"/></g><g style="stroke:none;fill:rgb(0,255,0)"><path d="M 6584,15007 L 6584,15007 C 6568,14978 6545,14951 6515,14924 6445,14865 6362,14835 6265,14837 6167,14835 6084,14865 6016,14924 5988,14947 5967,14975 5951,15003 6176,15175 6387,15177 6584,15007 Z"/></g><g style="stroke:none;fill:rgb(0,153,51)"><path d="M 6618,15141 L 6618,15141 C 6618,15092 6607,15048 6584,15007 6387,15177 6176,15175 5951,15003 5925,15045 5913,15091 5913,15141 5913,15225 5946,15299 6016,15357 6084,15417 6167,15448 6265,15448 6356,15446 6433,15420 6499,15369 L 6515,15357 6515,15357 C 6584,15299 6618,15225 6618,15141 Z"/></g></g></g></g></svg>