<?xml version="1.0" encoding="UTF-8"?>
<!DOCTYPE svg PUBLIC "-//W3C//DTD SVG 1.1//EN" "http://www.w3.org/Graphics/SVG/1.1/DTD/svg11.dtd"><svg version="1.1" viewBox="0 0 21000 29700" preserveAspectRatio="xMidYMid" fill-rule="evenodd" xmlns="http://www.w3.org/2000/svg" xmlns:xlink="http://www.w3.org/1999/xlink"><g visibility="visible" id="Default"><desc>Master slide</desc><g style="stroke:none;fill:none"><rect x="0" y="0" width="21000" height="29700"/></g></g><g visibility="visible" id="page1"><desc>Slide</desc><g><desc>Graphic</desc><g><g style="stroke:none;fill:rgb(45,91,136)"><path d="M 10859,14096 L 10859,14096 C 10743,14016 10652,13932 10585,13839 10515,13742 10473,13637 10457,13526 10436,13665 10374,13792 10272,13910 10210,13979 10134,14045 10042,14106 9999,14132 9954,14159 9909,14186 9977,14237 10040,14283 10101,14322 10112,14330 10124,14336 10135,14344 10155,14358 10177,14371 10199,14383 10228,14363 10254,14344 10278,14324 10302,14302 10324,14280 10345,14256 10403,14189 10437,14115 10448,14035 10460,14112 10493,14184 10548,14250 10571,14278 10600,14306 10634,14333 10651,14347 10670,14363 10690,14377 10706,14367 10723,14358 10740,14347 10745,14342 10751,14339 10757,14336 10829,14291 10906,14236 10987,14175 10940,14150 10898,14123 10859,14096 Z"/></g><g style="stroke:none;fill:rgb(69,133,197)"><path d="M 10585,13839 L 10585,13839 C 10652,13932 10743,14016 10859,14096 10898,14123 10940,14150 10987,14175 10991,14172 10995,14168 10999,14165 10979,14126 10960,14087 10942,14046 10623,13320 10454,12058 10436,10263 10418,12053 10250,13312 9932,14040 9915,14082 9896,14121 9876,14161 9887,14168 9898,14178 9909,14186 9954,14159 9999,14132 10042,14106 10134,14045 10210,13979 10272,13910 10374,13466 10428,12855 10436,12077 10443,12815 10493,13402 10585,13839 Z"/></g><g style="stroke:none;fill:rgb(121,168,213)"><path d="M 10457,13526 L 10457,13526 C 10473,13637 10515,13742 10585,13839 10493,13402 10443,12815 10436,12077 10428,12855 10374,13466 10272,13910 10374,13792 10436,13665 10457,13526 Z"/></g><g style="stroke:none;fill:rgb(151,187,221)"><path d="M 10690,14377 L 10690,14377 C 10670,14363 10651,14347 10634,14333 10600,14306 10571,14278 10548,14250 10493,14184 10460,14112 10448,14035 10437,14115 10403,14189 10345,14256 10324,14280 10302,14302 10278,14324 10254,14344 10228,14363 10199,14383 10287,14433 10365,14469 10436,14493 10512,14469 10596,14432 10690,14377 Z"/></g><g style="stroke:none;fill:rgb(210,225,240)"><path d="M 10740,14347 L 10740,14347 C 10723,14358 10706,14367 10690,14377 10717,14396 10748,14415 10782,14432 10802,14473 10824,14510 10848,14545 10859,14524 10871,14504 10885,14484 10893,14471 10901,14458 10909,14446 10949,14385 10995,14322 11046,14255 11054,14244 11064,14233 11073,14222 11209,14048 11384,13852 11598,13635 11376,13852 11176,14029 10999,14165 10995,14168 10991,14172 10987,14175 10906,14236 10829,14291 10757,14336 10751,14339 10745,14342 10740,14347 Z"/></g><g style="stroke:none;fill:rgb(186,210,233)"><path d="M 10782,14432 L 10782,14432 C 10748,14415 10717,14396 10690,14377 10596,14432 10512,14469 10436,14493 10576,14538 10688,14531 10768,14471 10710,14546 10701,14650 10740,14780 10762,14709 10799,14631 10848,14545 10824,14510 10802,14473 10782,14432 Z"/></g><g style="stroke:none;fill:rgb(151,187,221)"><path d="M 10848,14545 L 10848,14545 C 10799,14631 10762,14709 10740,14780 10761,14854 10799,14935 10851,15024 10867,15001 10882,14980 10899,14962 10925,14930 10952,14904 10982,14880 11046,14828 11116,14797 11193,14786 11113,14775 11038,14741 10971,14684 10951,14667 10929,14647 10910,14625 10889,14601 10868,14574 10848,14545 Z"/></g><g style="stroke:none;fill:rgb(223,234,244)"><path d="M 10740,14780 L 10740,14780 C 10701,14650 10710,14546 10768,14471 10688,14531 10576,14538 10436,14493 10304,14532 10198,14523 10121,14465 10179,14542 10187,14647 10148,14780 10193,14919 10187,15029 10126,15109 10203,15053 10305,15043 10436,15081 10573,15037 10684,15045 10764,15104 10704,15024 10696,14916 10740,14780 Z"/></g><g style="stroke:none;fill:rgb(45,91,136)"><path d="M 10909,14446 L 10909,14446 C 10901,14458 10893,14471 10885,14484 10871,14504 10859,14524 10848,14545 10868,14574 10889,14601 10910,14625 10929,14647 10951,14667 10971,14684 11038,14741 11113,14775 11193,14786 11116,14797 11046,14828 10982,14880 10952,14904 10925,14930 10899,14962 10882,14980 10867,15001 10851,15024 10862,15045 10876,15067 10890,15090 10893,15095 10896,15101 10899,15106 10940,15170 10988,15238 11043,15308 11070,15261 11096,15217 11127,15176 11188,15087 11253,15012 11324,14952 11437,14855 11562,14797 11698,14778 11573,14761 11460,14711 11354,14629 11270,14565 11193,14480 11123,14377 11095,14338 11070,14297 11046,14255 10995,14322 10949,14385 10909,14446 Z"/></g><g style="stroke:none;fill:rgb(69,133,197)"><path d="M 11073,14222 L 11073,14222 C 11064,14233 11054,14244 11046,14255 11070,14297 11095,14338 11123,14377 11193,14480 11270,14565 11354,14629 11798,14727 12404,14780 13174,14788 12387,14795 11771,14850 11324,14952 11253,15012 11188,15087 11127,15176 11096,15217 11070,15261 11043,15308 11051,15319 11060,15332 11068,15343 11107,15322 11149,15302 11192,15285 11921,14966 13190,14797 14999,14780 13185,14763 11914,14593 11185,14273 11146,14256 11109,14239 11073,14222 Z"/></g><g style="stroke:none;fill:rgb(177,205,231)"><path d="M 11073,14222 L 11073,14222 C 11109,14239 11146,14256 11185,14273 11428,13888 11824,13416 12373,12859 11809,13410 11332,13805 10942,14046 10960,14087 10979,14126 10999,14165 11176,14029 11376,13852 11598,13635 11384,13852 11209,14048 11073,14222 Z"/></g><g style="stroke:none;fill:rgb(45,91,136)"><path d="M 9510,14636 L 9510,14636 C 9407,14714 9296,14761 9174,14778 9307,14797 9428,14852 9540,14944 9617,15009 9690,15092 9757,15194 9784,15233 9810,15274 9835,15318 9898,15234 9953,15158 9999,15086 10001,15082 10002,15079 10004,15078 10012,15064 10021,15049 10029,15035 10021,15021 10012,15009 10004,14998 9974,14959 9942,14924 9909,14896 9840,14835 9762,14797 9679,14786 9765,14774 9846,14734 9918,14669 9943,14645 9969,14618 9993,14589 10007,14571 10020,14552 10032,14535 10023,14518 10013,14502 10002,14487 10001,14482 9998,14479 9996,14476 9950,14404 9895,14327 9832,14245 9809,14284 9786,14324 9762,14360 9685,14474 9600,14567 9510,14636 Z"/></g><g style="stroke:none;fill:rgb(121,168,213)"><path d="M 9174,14778 L 9174,14778 C 9296,14761 9407,14714 9510,14636 9068,14728 8473,14780 7723,14788 8490,14795 9095,14847 9540,14944 9428,14852 9307,14797 9174,14778 Z"/></g><g style="stroke:none;fill:rgb(210,225,240)"><path d="M 10082,14451 L 10082,14451 C 10126,14429 10163,14407 10199,14383 10177,14371 10155,14358 10135,14344 10124,14336 10112,14330 10101,14322 10040,14283 9977,14237 9909,14186 9898,14178 9887,14168 9876,14161 9703,14024 9507,13852 9290,13640 9507,13860 9684,14057 9821,14231 9824,14236 9827,14240 9832,14245 9895,14327 9950,14404 9996,14476 9998,14479 10001,14482 10002,14487 10013,14502 10023,14518 10032,14535 10049,14509 10065,14480 10082,14451 Z"/></g><g style="stroke:none;fill:rgb(186,210,233)"><path d="M 10199,14383 L 10199,14383 C 10163,14407 10126,14429 10082,14451 10065,14480 10049,14509 10032,14535 10084,14625 10124,14706 10148,14780 10187,14647 10179,14542 10121,14465 10198,14523 10304,14532 10436,14493 10365,14469 10287,14433 10199,14383 Z"/></g><g style="stroke:none;fill:rgb(69,133,197)"><path d="M 9832,14245 L 9832,14245 C 9827,14240 9824,14236 9821,14231 9786,14248 9750,14264 9714,14280 8982,14595 7715,14763 5914,14780 7710,14797 8974,14963 9707,15278 9746,15296 9786,15313 9824,15332 9827,15327 9831,15322 9835,15318 9810,15274 9784,15233 9757,15194 9690,15092 9617,15009 9540,14944 9095,14847 8490,14795 7723,14788 8473,14780 9068,14728 9510,14636 9600,14567 9685,14474 9762,14360 9786,14324 9809,14284 9832,14245 Z"/></g><g style="stroke:none;fill:rgb(177,205,231)"><path d="M 9714,14280 L 9714,14280 C 9750,14264 9786,14248 9821,14231 9684,14057 9507,13860 9290,13640 9507,13852 9703,14024 9876,14161 9896,14121 9915,14082 9932,14040 9548,13797 9079,13406 8528,12869 9075,13424 9469,13894 9714,14280 Z"/></g><g style="stroke:none;fill:rgb(151,187,221)"><path d="M 9679,14786 L 9679,14786 C 9762,14797 9840,14835 9909,14896 9942,14924 9974,14959 10004,14998 10012,15009 10021,15021 10029,15035 10084,14941 10124,14857 10148,14780 10124,14706 10084,14625 10032,14535 10020,14552 10007,14571 9993,14589 9969,14618 9943,14645 9918,14669 9846,14734 9765,14774 9679,14786 Z"/></g><g style="stroke:none;fill:rgb(210,225,240)"><path d="M 10135,15230 L 10135,15230 C 10155,15216 10176,15202 10196,15191 10163,15167 10126,15147 10084,15126 10067,15093 10048,15062 10029,15035 10021,15049 10012,15064 10004,15078 10002,15079 10001,15082 9999,15086 9953,15158 9898,15234 9835,15318 9831,15322 9827,15327 9824,15332 9685,15509 9506,15710 9286,15934 9507,15719 9706,15543 9882,15407 9893,15398 9906,15388 9917,15380 9990,15325 10059,15277 10124,15236 10127,15234 10130,15231 10135,15230 Z"/></g><g style="stroke:none;fill:rgb(45,91,136)"><path d="M 10196,15191 L 10196,15191 C 10176,15202 10155,15216 10135,15230 10130,15231 10127,15234 10124,15236 10059,15277 9990,15325 9917,15380 9960,15404 9999,15427 10037,15452 10129,15514 10206,15578 10268,15647 10374,15764 10436,15893 10457,16034 10474,15920 10518,15815 10589,15716 10657,15623 10748,15539 10863,15462 10899,15437 10937,15413 10979,15390 10895,15325 10815,15271 10740,15225 10739,15224 10739,15224 10737,15224 10723,15214 10707,15205 10693,15197 10679,15205 10666,15214 10654,15224 10618,15252 10585,15282 10559,15311 10498,15380 10460,15457 10448,15540 10436,15454 10398,15376 10334,15305 10312,15282 10287,15258 10256,15234 10237,15219 10217,15205 10196,15191 Z"/></g><g style="stroke:none;fill:rgb(186,210,233)"><path d="M 10084,15126 L 10084,15126 C 10126,15147 10163,15167 10196,15191 10282,15140 10363,15104 10436,15081 10305,15043 10203,15053 10126,15109 10187,15029 10193,14919 10148,14780 10124,14857 10084,14941 10029,15035 10048,15062 10067,15093 10084,15126 Z"/></g><g style="stroke:none;fill:rgb(69,133,197)"><path d="M 10037,15452 L 10037,15452 C 9999,15427 9960,15404 9917,15380 9906,15388 9893,15398 9882,15407 9900,15441 9915,15477 9932,15517 10250,16243 10418,17502 10436,19293 10454,17495 10624,16235 10943,15509 10960,15471 10977,15435 10995,15401 10990,15396 10984,15393 10979,15390 10937,15413 10899,15437 10863,15462 10748,15539 10657,15623 10589,15716 10495,16155 10443,16747 10436,17495 10428,16707 10373,16090 10268,15647 10206,15578 10129,15514 10037,15452 Z"/></g><g style="stroke:none;fill:rgb(177,205,231)"><path d="M 9932,15517 L 9932,15517 C 9915,15477 9900,15441 9882,15407 9706,15543 9507,15719 9286,15934 9506,15710 9685,15509 9824,15332 9786,15313 9746,15296 9707,15278 9465,15662 9068,16134 8520,16691 9075,16150 9546,15758 9932,15517 Z"/></g><g style="stroke:none;fill:rgb(210,225,240)"><path d="M 10899,15106 L 10899,15106 C 10896,15101 10893,15095 10890,15090 10876,15067 10862,15045 10851,15024 10826,15060 10802,15100 10779,15144 10748,15161 10720,15178 10693,15197 10707,15205 10723,15214 10737,15224 10739,15224 10739,15224 10740,15225 10815,15271 10895,15325 10979,15390 10984,15393 10990,15396 10995,15401 11173,15539 11376,15719 11603,15940 11384,15717 11206,15518 11068,15343 11060,15332 11051,15319 11043,15308 10988,15238 10940,15170 10899,15106 Z"/></g><g style="stroke:none;fill:rgb(177,205,231)"><path d="M 11192,15285 L 11192,15285 C 11149,15302 11107,15322 11068,15343 11206,15518 11384,15717 11603,15940 11376,15719 11173,15539 10995,15401 10977,15435 10960,15471 10943,15509 11334,15750 11813,16147 12381,16700 11830,16142 11434,15670 11192,15285 Z"/></g><g style="stroke:none;fill:rgb(151,187,221)"><path d="M 10654,15224 L 10654,15224 C 10666,15214 10679,15205 10693,15197 10596,15142 10512,15103 10436,15081 10363,15104 10282,15140 10196,15191 10217,15205 10237,15219 10256,15234 10287,15258 10312,15282 10334,15305 10398,15376 10436,15454 10448,15540 10460,15457 10498,15380 10559,15311 10585,15282 10618,15252 10654,15224 Z"/></g><g style="stroke:none;fill:rgb(186,210,233)"><path d="M 10779,15144 L 10779,15144 C 10802,15100 10826,15060 10851,15024 10799,14935 10761,14854 10740,14780 10696,14916 10704,15024 10764,15104 10684,15045 10573,15037 10436,15081 10512,15103 10596,15142 10693,15197 10720,15178 10748,15161 10779,15144 Z"/></g><g style="stroke:none;fill:rgb(121,168,213)"><path d="M 10589,15716 L 10589,15716 C 10518,15815 10474,15920 10457,16034 10436,15893 10374,15764 10268,15647 10373,16090 10428,16707 10436,17495 10443,16747 10495,16155 10589,15716 Z"/><path d="M 13174,14788 L 13174,14788 C 12404,14780 11798,14727 11354,14629 11460,14711 11573,14761 11698,14778 11562,14797 11437,14855 11324,14952 11771,14850 12387,14795 13174,14788 Z"/></g></g></g></g></svg>