<?xml version="1.0" encoding="UTF-8"?>
<!DOCTYPE svg PUBLIC "-//W3C//DTD SVG 1.1//EN" "http://www.w3.org/Graphics/SVG/1.1/DTD/svg11.dtd"><svg version="1.1" viewBox="0 0 21000 29700" preserveAspectRatio="xMidYMid" fill-rule="evenodd" xmlns="http://www.w3.org/2000/svg" xmlns:xlink="http://www.w3.org/1999/xlink"><g visibility="visible" id="Default"><desc>Master slide</desc><g style="stroke:none;fill:none"><rect x="0" y="0" width="21000" height="29700"/></g></g><g visibility="visible" id="page1"><desc>Slide</desc><g><desc>Graphic</desc><g><g style="stroke:none;fill:rgb(128,4,2)"><path d="M 12067,11231 L 12067,11231 C 12027,11207 11979,11199 11923,11199 11556,11413 11252,11691 11004,12017 10980,12056 10964,12096 10964,12151 10366,12239 9887,12294 9527,12310 9471,12310 9424,12310 9368,12310 9368,12366 9368,12413 9368,12469 9424,12524 9479,12564 9544,12596 9583,12620 9631,12628 9686,12628 10006,12683 10318,12755 10621,12858 10637,12866 10645,12890 10645,12945 11276,13001 11724,13255 11986,13707 11994,13731 12027,13739 12083,13739 12122,14287 12378,14628 12858,14763 12874,14771 12881,14795 12881,14850 12698,15247 12466,15604 12195,15922 12170,15946 12138,15961 12083,15961 12083,16017 12067,16049 12043,16073 11811,16271 11611,16493 11444,16755 L 11444,16676 11444,16676 C 10853,16930 10430,16906 10166,16596 10110,16596 10070,16612 10047,16636 9495,17247 8840,17287 8090,16755 8090,16700 8098,16652 8114,16604 8321,15961 8098,15533 7451,15326 7395,15326 7363,15342 7347,15366 7060,15803 6772,16001 6493,15961 6380,16866 6756,17295 7611,17239 7666,17231 7714,17231 7770,17231 7794,17946 7898,18311 8090,18335 8146,18343 8193,18343 8250,18343 8577,18192 8761,17874 8808,17398 8808,17390 8832,17390 8889,17390 9552,17366 10047,17509 10366,17827 10390,17851 10430,17866 10485,17866 11021,17874 11499,17843 11923,17787 L 11923,17866 11923,17866 C 12027,18239 12347,18398 12881,18351 12937,18343 12985,18343 13041,18343 13424,18144 13799,17938 14175,17739 14215,17716 14263,17708 14319,17708 14079,17255 13895,16731 13760,16136 13760,16128 13736,16120 13680,16120 13911,15025 13967,14017 13848,13104 13840,13048 13840,13001 13840,12945 14454,12890 14598,12580 14263,12024 14247,12001 14215,11993 14159,11993 13664,12009 13353,11850 13225,11509 13209,11461 13201,11413 13201,11358 12714,11413 12339,11374 12067,11231 Z M 12266,12461 L 12266,12461 C 12250,12413 12242,12366 12242,12310 12850,11731 13264,11842 13497,12636 13512,12683 13520,12731 13520,12786 12785,12882 12370,12771 12266,12461 Z M 13520,17231 L 13520,17231 C 13520,17287 13520,17335 13520,17390 13129,17843 12874,17843 12746,17382 12730,17335 12722,17287 12722,17231 13272,16327 13536,16327 13520,17231 Z"/></g><g style="stroke:none;fill:rgb(216,33,3)"><path d="M 12242,12310 L 12242,12310 C 12242,12366 12250,12413 12266,12461 12370,12771 12785,12882 13520,12786 13520,12731 13512,12683 13497,12636 13264,11842 12850,11731 12242,12310 Z"/></g><g style="stroke:none;fill:rgb(211,64,6)"><path d="M 13520,17390 L 13520,17390 C 13520,17335 13520,17287 13520,17231 13536,16327 13272,16327 12722,17231 12722,17287 12730,17335 12746,17382 12874,17843 13129,17843 13520,17390 Z"/></g><g style="stroke:none;fill:rgb(175,11,2)"><path d="M 9686,12628 L 9686,12628 C 9631,12628 9583,12620 9544,12596 9479,12564 9424,12524 9368,12469 9311,12469 9288,12477 9280,12493 8936,13358 8218,13826 7131,13898 7236,14009 7307,14160 7363,14350 7371,14366 7395,14374 7451,14374 7451,14318 7451,14271 7451,14215 7507,14215 7546,14231 7571,14255 7595,14279 7611,14318 7611,14374 8218,14080 8808,13771 9384,13453 9424,13429 9471,13421 9527,13421 9248,13080 9288,12842 9663,12715 9679,12707 9686,12683 9686,12628 Z"/></g><g style="stroke:none;fill:rgb(223,43,10)"><path d="M 9686,12628 L 9686,12628 C 9686,12683 9679,12707 9663,12715 9288,12842 9248,13080 9527,13421 9471,13421 9424,13429 9384,13453 8808,13771 8218,14080 7611,14374 7530,14985 7850,15199 8577,15025 8625,15017 8672,15009 8729,15009 8729,14953 8729,14906 8729,14850 8729,14533 8729,14215 8729,13898 9152,13794 9583,13691 10006,13596 10063,13588 10110,13580 10166,13580 10166,13525 10166,13477 10166,13421 10254,13239 10406,13112 10621,13032 10637,13025 10645,13001 10645,12945 10645,12890 10637,12866 10621,12858 10318,12755 10006,12683 9686,12628 Z"/></g><g style="stroke:none;fill:rgb(224,129,4)"><path d="M 10166,13421 L 10166,13421 C 10166,13477 10166,13525 10166,13580 10222,13580 10246,13588 10246,13596 10414,14596 10222,15279 9686,15644 9631,15644 9583,15636 9536,15620 9175,15517 8913,15311 8729,15009 8672,15009 8625,15017 8577,15025 7850,15199 7530,14985 7611,14374 7611,14318 7595,14279 7571,14255 7546,14231 7507,14215 7451,14215 7451,14271 7451,14318 7451,14374 7451,14636 7451,14906 7451,15168 7451,15223 7451,15271 7451,15326 8098,15533 8321,15961 8114,16604 8098,16652 8090,16700 8090,16755 8785,16239 9463,16104 10142,16350 10158,16358 10166,16382 10166,16438 10382,16438 10589,16438 10805,16438 10861,16438 10909,16438 10964,16438 11197,16192 11516,16041 11923,15977 11979,15969 12027,15961 12083,15961 12138,15961 12170,15946 12195,15922 12466,15604 12698,15247 12881,14850 L 12881,14850 C 12881,14795 12874,14771 12858,14763 12378,14628 12122,14287 12083,13739 12027,13739 11994,13731 11986,13707 11724,13255 11276,13001 10645,12945 10645,13001 10637,13025 10621,13032 10406,13112 10254,13239 10166,13421 Z"/></g><g style="stroke:none;fill:rgb(119,14,2)"><path d="M 10246,13596 L 10246,13596 C 10246,13588 10222,13580 10166,13580 10110,13580 10063,13588 10006,13596 9583,13691 9152,13794 8729,13898 8729,14215 8729,14533 8729,14850 8729,14906 8729,14953 8729,15009 8913,15311 9175,15517 9536,15620 9583,15636 9631,15644 9686,15644 10222,15279 10414,14596 10246,13596 Z"/></g><g style="stroke:none;fill:rgb(103,1,0)"><path d="M 9368,12469 L 9368,12469 C 9368,12413 9368,12366 9368,12310 9311,12310 9264,12302 9224,12278 8721,12040 8497,11683 8569,11199 8513,11199 8465,11199 8409,11207 7994,11262 7619,11366 7291,11516 7291,11572 7283,11620 7267,11667 7147,12072 6892,12334 6493,12469 6844,12699 7003,13128 6972,13739 6972,13794 6972,13842 6972,13898 7027,13898 7076,13898 7131,13898 8218,13826 8936,13358 9280,12493 9288,12477 9311,12469 9368,12469 Z"/></g><g style="stroke:none;fill:rgb(212,4,7)"><path d="M 7451,14374 L 7451,14374 C 7395,14374 7371,14366 7363,14350 7307,14160 7236,14009 7131,13898 7076,13898 7027,13898 6972,13898 6972,13953 6964,13985 6940,13993 6708,14104 6565,14287 6493,14533 6644,14922 6652,15350 6516,15811 6500,15858 6493,15906 6493,15961 6772,16001 7060,15803 7347,15366 7363,15342 7395,15326 7451,15326 7451,15271 7451,15223 7451,15168 7451,14906 7451,14636 7451,14374 Z"/></g><g style="stroke:none;fill:rgb(232,20,5)"><path d="M 10166,16438 L 10166,16438 C 10166,16382 10158,16358 10142,16350 9463,16104 8785,16239 8090,16755 8840,17287 9495,17247 10047,16636 10070,16612 10110,16596 10166,16596 10166,16541 10166,16493 10166,16438 Z"/></g><g style="stroke:none;fill:rgb(207,49,4)"><path d="M 10964,16438 L 10964,16438 C 10909,16438 10861,16438 10805,16438 10589,16438 10382,16438 10166,16438 10166,16493 10166,16541 10166,16596 10430,16906 10853,16930 11444,16676 L 11444,16755 11444,16755 C 11611,16493 11811,16271 12043,16073 12067,16049 12083,16017 12083,15961 12027,15961 11979,15969 11923,15977 11516,16041 11197,16192 10964,16438 Z"/></g></g></g></g></svg>