<?xml version="1.0" encoding="UTF-8"?>
<!DOCTYPE svg PUBLIC "-//W3C//DTD SVG 1.1//EN" "http://www.w3.org/Graphics/SVG/1.1/DTD/svg11.dtd"><svg version="1.1" viewBox="0 0 21000 29700" preserveAspectRatio="xMidYMid" fill-rule="evenodd" xmlns="http://www.w3.org/2000/svg" xmlns:xlink="http://www.w3.org/1999/xlink"><g visibility="visible" id="Default"><desc>Master slide</desc><g style="stroke:none;fill:none"><rect x="0" y="0" width="21000" height="29700"/></g></g><g visibility="visible" id="page1"><desc>Slide</desc><g><desc>Graphic</desc><g><g style="stroke:none;fill:rgb(107,0,0)"><path d="M 12119,12123 L 12119,12123 C 12064,12123 12016,12123 11959,12130 11672,12146 11456,12091 11320,11964 11320,12019 11312,12051 11289,12059 10626,12392 9947,12519 9245,12440 9188,12440 9140,12432 9101,12408 8901,12305 8734,12154 8606,11964 8606,11908 8598,11861 8574,11821 8294,11154 8142,11361 8126,12440 8126,12496 8126,12519 8118,12519 7359,12559 6833,12742 6529,13075 6585,13758 6720,14496 6921,15282 6929,15290 6953,15297 7008,15297 7584,15361 7799,15782 7663,16567 7655,16623 7647,16671 7647,16726 7104,16814 6905,16964 7057,17163 7081,17187 7112,17202 7168,17202 7383,17464 7519,17830 7568,18306 7568,18314 7592,18314 7647,18314 8006,18385 8366,18211 8726,17806 8750,17774 8765,17734 8765,17679 9492,17536 10346,17536 11320,17671 11377,17679 11425,17679 11480,17679 L 11480,17679 C 11696,17782 11896,17909 12079,18044 12103,18068 12119,18099 12119,18155 12926,18203 13509,18203 13876,18163 13932,18155 13980,18155 14036,18155 14364,17766 14275,17329 13756,16845 13732,16821 13717,16782 13717,16726 13740,16329 13820,15964 13948,15639 13956,15623 13980,15615 14036,15615 14108,14972 14028,14448 13812,14059 13804,14035 13772,14027 13717,14027 13812,13662 13820,13345 13740,13067 13725,13019 13717,12972 13717,12916 L 13636,12916 13636,12916 C 13652,13146 13573,13250 13397,13234 13397,13289 13397,13337 13397,13392 13405,14170 13245,14647 12918,14821 12918,14877 12918,14924 12918,14980 12918,15036 12910,15059 12894,15067 12703,15123 12551,15194 12439,15297 12439,15353 12439,15401 12439,15456 12439,15512 12447,15559 12455,15615 12519,15901 12462,16059 12279,16091 12327,16409 12447,16663 12638,16845 12662,16869 12703,16885 12758,16885 12814,16885 12854,16901 12886,16925 13725,17671 13581,17925 12439,17679 12383,17679 12343,17663 12311,17639 12103,17472 12040,17171 12119,16726 12064,16726 12016,16718 11967,16702 11584,16599 11105,16552 10523,16567 10523,16623 10506,16663 10482,16694 9900,17441 9428,17401 9085,16567 9268,16258 9644,16099 10203,16091 10259,16091 10306,16091 10363,16091 10363,16036 10371,15988 10379,15932 L 10379,15932 C 10610,14734 10235,14154 9245,14186 9188,14186 9164,14194 9164,14202 9125,14369 8997,14416 8765,14345 8765,14401 8765,14448 8765,14504 8765,14559 8765,14607 8773,14662 8829,15242 8878,15559 8925,15615 L 8925,15694 8925,15694 C 8231,15544 7592,15305 7008,14980 7008,14924 7008,14877 7008,14821 7008,14186 7008,13551 7008,12916 7479,13011 7951,13035 8438,12996 8446,12996 8446,12972 8446,12916 9396,12551 10395,12575 11456,12988 11472,12996 11480,13019 11480,13075 11983,13305 12423,13210 12798,12797 12822,12773 12862,12757 12918,12757 12918,12702 12918,12654 12918,12599 13309,12615 13541,12464 13628,12138 13636,12130 13661,12123 13717,12123 13717,12067 13701,12027 13677,11996 13094,11249 12575,11289 12119,12123 Z"/></g><g style="stroke:none;fill:rgb(218,14,3)"><path d="M 10395,13432 L 10395,13432 C 10426,13408 10466,13392 10523,13392 11568,13496 12303,13869 12718,14528 12742,14567 12758,14607 12758,14662 12758,14766 12782,14861 12822,14948 12830,14972 12862,14980 12918,14980 12918,14924 12918,14877 12918,14821 13245,14647 13405,14170 13397,13392 13397,13337 13397,13289 13397,13234 13397,13178 13397,13131 13405,13075 13445,12765 13285,12662 12918,12757 12862,12757 12822,12773 12798,12797 12423,13210 11983,13305 11480,13075 11480,13019 11472,12996 11456,12988 10395,12575 9396,12551 8446,12916 8446,12972 8446,12996 8438,12996 7951,13035 7479,13011 7008,12916 7008,13551 7008,14186 7008,14821 7008,14877 7008,14924 7008,14980 7592,15305 8231,15544 8925,15694 L 8925,15615 8925,15615 C 8878,15559 8829,15242 8773,14662 8765,14607 8765,14559 8765,14504 8710,14504 8661,14512 8614,14528 8006,14726 7631,14670 7487,14345 8022,14035 8517,13678 8965,13273 8989,13250 9028,13234 9085,13234 9412,13797 9851,13861 10395,13432 Z"/></g><g style="stroke:none;fill:rgb(229,117,1)"><path d="M 10523,13392 L 10523,13392 C 10466,13392 10426,13408 10395,13432 9851,13861 9412,13797 9085,13234 9028,13234 8989,13250 8965,13273 8517,13678 8022,14035 7487,14345 7631,14670 8006,14726 8614,14528 8661,14512 8710,14504 8765,14504 8765,14448 8765,14401 8765,14345 8997,14416 9125,14369 9164,14202 9164,14194 9188,14186 9245,14186 9245,14131 9245,14083 9245,14027 9245,13972 9245,13924 9245,13869 9732,13813 10107,13853 10379,13996 10418,14020 10466,14027 10523,14027 10770,14758 10778,15504 10546,16258 10531,16306 10523,16353 10523,16409 10825,16290 11201,16234 11640,16250 11696,16250 11744,16250 11800,16250 11888,15409 12159,14893 12614,14694 12654,14670 12703,14662 12758,14662 12758,14607 12742,14567 12718,14528 12303,13869 11568,13496 10523,13392 Z"/></g><g style="stroke:none;fill:rgb(149,62,1)"><path d="M 9245,14027 L 9245,14027 C 9245,14083 9245,14131 9245,14186 10235,14154 10610,14734 10379,15932 10371,15988 10363,16036 10363,16091 10363,16147 10363,16194 10363,16250 10363,16306 10363,16353 10363,16409 10418,16409 10466,16409 10523,16409 10523,16353 10531,16306 10546,16258 10778,15504 10770,14758 10523,14027 10466,14027 10418,14020 10379,13996 10107,13853 9732,13813 9245,13869 9245,13924 9245,13972 9245,14027 Z"/></g><g style="stroke:none;fill:rgb(180,119,0)"><path d="M 12439,15456 L 12439,15456 C 12439,15401 12439,15353 12439,15297 12551,15194 12703,15123 12894,15067 12910,15059 12918,15036 12918,14980 12862,14980 12830,14972 12822,14948 12782,14861 12758,14766 12758,14662 12703,14662 12654,14670 12614,14694 12159,14893 11888,15409 11800,16250 11744,16250 11696,16250 11640,16250 11201,16234 10825,16290 10523,16409 10466,16409 10418,16409 10363,16409 10363,16464 10379,16504 10403,16528 10426,16552 10466,16567 10523,16567 11105,16552 11584,16599 11967,16702 12016,16718 12064,16726 12119,16726 12119,16671 12119,16623 12119,16567 12119,16306 12119,16036 12119,15774 12295,15790 12375,15686 12359,15456 L 12439,15456 Z"/></g><g style="stroke:none;fill:rgb(154,23,3)"><path d="M 12455,15615 L 12455,15615 C 12447,15559 12439,15512 12439,15456 L 12359,15456 12359,15456 C 12375,15686 12295,15790 12119,15774 12119,16036 12119,16306 12119,16567 12119,16623 12119,16671 12119,16726 12040,17171 12103,17472 12311,17639 12343,17663 12383,17679 12439,17679 12439,17623 12439,17576 12439,17520 12543,17361 12638,17195 12726,17028 12750,16988 12758,16941 12758,16885 12703,16885 12662,16869 12638,16845 12447,16663 12327,16409 12279,16091 12462,16059 12519,15901 12455,15615 Z"/></g><g style="stroke:none;fill:rgb(187,3,1)"><path d="M 10523,16567 L 10523,16567 C 10466,16567 10426,16552 10403,16528 10379,16504 10363,16464 10363,16409 10363,16353 10363,16306 10363,16250 10363,16194 10363,16147 10363,16091 10306,16091 10259,16091 10203,16091 9644,16099 9268,16258 9085,16567 9428,17401 9900,17441 10482,16694 10506,16663 10523,16623 10523,16567 Z"/></g><g style="stroke:none;fill:rgb(191,21,4)"><path d="M 12439,17520 L 12439,17520 C 12439,17576 12439,17623 12439,17679 13581,17925 13725,17671 12886,16925 12854,16901 12814,16885 12758,16885 12758,16941 12750,16988 12726,17028 12638,17195 12543,17361 12439,17520 Z"/></g><g style="stroke:none;fill:rgb(144,0,0)"><path d="M 13717,12123 L 13717,12123 C 13661,12123 13636,12130 13628,12138 13541,12464 13309,12615 12918,12599 12918,12654 12918,12702 12918,12757 13285,12662 13445,12765 13405,13075 13397,13131 13397,13178 13397,13234 13573,13250 13652,13146 13636,12916 L 13717,12916 13717,12916 C 13772,12916 13812,12900 13853,12877 14499,12456 14459,12202 13717,12123 Z"/></g></g></g></g></svg>