<?xml version="1.0" encoding="UTF-8"?>
<!DOCTYPE svg PUBLIC "-//W3C//DTD SVG 1.1//EN" "http://www.w3.org/Graphics/SVG/1.1/DTD/svg11.dtd"><svg version="1.1" viewBox="0 0 21000 29700" preserveAspectRatio="xMidYMid" fill-rule="evenodd" xmlns="http://www.w3.org/2000/svg" xmlns:xlink="http://www.w3.org/1999/xlink"><g visibility="visible" id="Default"><desc>Master slide</desc><g style="stroke:none;fill:none"><rect x="0" y="0" width="21000" height="29700"/></g></g><g visibility="visible" id="page1"><desc>Slide</desc><g><desc>Graphic</desc><g><g style="stroke:none;fill:rgb(116,0,1)"><path d="M 12089,13299 L 12089,13299 C 12089,13244 12081,13221 12066,13213 11167,12926 10347,12794 9590,12833 10207,13027 10839,13221 11472,13431 11519,13446 11566,13454 11620,13454 11925,13873 12183,14339 12378,14859 12394,14905 12401,14952 12401,15006 12581,15449 12519,15743 12230,15906 12191,15930 12143,15938 12089,15938 12166,16380 12058,16628 11769,16698 11722,16706 11675,16714 11620,16714 11620,16768 11628,16799 11651,16807 12112,17016 12519,16675 12870,15782 12870,15728 12862,15681 12854,15635 12745,15177 12596,14766 12401,14385 12401,14331 12409,14284 12417,14230 12534,13687 12425,13376 12089,13299 Z"/></g><g style="stroke:none;fill:rgb(225,12,6)"><path d="M 11620,13454 L 11620,13454 C 11566,13454 11519,13446 11472,13431 10839,13221 10207,13027 9590,12833 9536,12833 9504,12841 9488,12864 9372,13074 9145,13167 8809,13144 8809,13198 8809,13244 8817,13299 8888,13788 8833,14152 8653,14385 8989,14517 9216,14773 9348,15138 9355,15154 9380,15161 9434,15161 9434,15107 9434,15061 9434,15006 9731,14370 10254,13982 10995,13842 L 10995,13920 10995,13920 C 11605,14083 11792,14494 11550,15138 11543,15154 11519,15161 11464,15161 11628,15689 11479,16069 11027,16310 11003,16318 10995,16349 10995,16403 11128,16527 11339,16605 11612,16636 11620,16636 11620,16659 11620,16714 11675,16714 11722,16706 11769,16698 12058,16628 12166,16380 12089,15938 12143,15938 12191,15930 12230,15906 12519,15743 12581,15449 12401,15006 12401,14952 12394,14905 12378,14859 12183,14339 11925,13873 11620,13454 Z"/></g><g style="stroke:none;fill:rgb(235,127,0)"><path d="M 10995,13920 L 10995,13842 10995,13842 C 10254,13982 9731,14370 9434,15006 9434,15061 9434,15107 9434,15161 9544,15317 9700,15418 9903,15456 9957,15464 10004,15472 10059,15472 10270,15829 10543,16124 10863,16364 10902,16388 10941,16403 10995,16403 10995,16349 11003,16318 11027,16310 11479,16069 11628,15689 11464,15161 11519,15161 11543,15154 11550,15138 11792,14494 11605,14083 10995,13920 Z"/></g><g style="stroke:none;fill:rgb(149,7,5)"><path d="M 11464,16721 L 11464,16721 C 11519,16714 11566,16714 11620,16714 11620,16659 11620,16636 11612,16636 11339,16605 11128,16527 10995,16403 10941,16403 10902,16388 10863,16364 10543,16124 10270,15829 10059,15472 10004,15472 9957,15464 9903,15456 9700,15418 9544,15317 9434,15161 9380,15161 9355,15154 9348,15138 9216,14773 8989,14517 8653,14385 8833,14152 8888,13788 8817,13299 8809,13244 8809,13198 8809,13144 8755,13144 8708,13151 8653,13159 8411,13213 8255,13369 8184,13609 8271,14246 8419,14820 8630,15324 8645,15371 8653,15418 8653,15472 8942,15759 9355,15914 9903,15938 9957,15938 10004,15938 10059,15938 10168,16551 10636,16815 11464,16721 Z"/></g></g></g></g></svg>