<?xml version="1.0" encoding="UTF-8"?>
<!DOCTYPE svg PUBLIC "-//W3C//DTD SVG 1.1//EN" "http://www.w3.org/Graphics/SVG/1.1/DTD/svg11.dtd"><svg version="1.1" viewBox="0 0 21000 29700" preserveAspectRatio="xMidYMid" fill-rule="evenodd" xmlns="http://www.w3.org/2000/svg" xmlns:xlink="http://www.w3.org/1999/xlink"><g visibility="visible" id="Default"><desc>Master slide</desc><g style="stroke:none;fill:none"><rect x="0" y="0" width="21000" height="29700"/></g></g><g visibility="visible" id="page1"><desc>Slide</desc><g><desc>Graphic</desc><g><g style="stroke:none;fill:rgb(104,5,0)"><path d="M 10768,14026 L 10768,14026 C 10774,14026 10775,14040 10775,14066 10802,14093 10832,14114 10865,14130 10886,14140 10909,14146 10935,14146 10935,14119 10928,14102 10916,14095 10438,13752 9966,13664 9497,13828 9497,13934 9510,14036 9536,14137 9537,14142 9551,14146 9578,14146 9578,14119 9578,14093 9578,14066 9578,14013 9578,13961 9578,13908 9647,13844 9752,13830 9890,13864 9896,13865 9897,13881 9897,13908 10204,13934 10493,13973 10768,14026 Z"/></g><g style="stroke:none;fill:rgb(129,2,0)"><path d="M 11739,14384 L 11739,14384 C 11736,14357 11734,14331 11734,14304 11572,14174 11332,14119 11015,14142 10988,14144 10962,14146 10935,14146 10909,14146 10886,14140 10865,14130 10832,14114 10802,14093 10775,14066 10775,14093 10781,14114 10791,14133 10832,14204 10884,14260 10942,14303 10969,14312 10993,14322 11021,14334 11023,14334 11023,14340 11024,14349 11113,14386 11216,14396 11334,14384 11362,14384 11379,14391 11388,14403 11528,14606 11457,14733 11178,14781 11232,14832 11295,14850 11369,14830 11384,14830 11395,14839 11400,14858 11485,15139 11443,15313 11271,15380 11255,15379 11237,15380 11221,15386 11013,15410 10882,15262 10830,14939 10814,14939 10797,14938 10781,14934 10605,14879 10474,14723 10391,14460 10385,14460 10382,14460 10377,14460 10027,14412 9787,14253 9657,13987 9711,13961 9766,13938 9822,13920 L 9822,13920 C 9845,13911 9871,13908 9897,13908 9897,13881 9896,13865 9890,13864 9752,13830 9647,13844 9578,13908 9578,13961 9578,14013 9578,14066 9578,14093 9578,14119 9578,14146 9876,14373 9986,14664 9906,15019 9901,15045 9897,15072 9897,15098 9643,15163 9558,15273 9641,15423 9652,15444 9657,15469 9657,15495 10401,15417 11008,15481 11478,15686 11489,15691 11494,15707 11494,15733 11601,15825 11700,15820 11794,15717 11806,15701 11813,15680 11813,15654 11808,15100 11783,14677 11739,14384 Z"/></g><g style="stroke:none;fill:rgb(240,17,0)"><path d="M 11026,14389 L 11026,14389 C 11026,14370 11026,14357 11024,14349 11023,14340 11023,14334 11021,14334 10993,14322 10969,14312 10942,14303 10798,14245 10646,14200 10488,14170 10472,14170 10456,14176 10442,14186 10408,14213 10375,14243 10342,14280 10354,14345 10371,14405 10391,14460 10474,14723 10605,14879 10781,14934 10797,14938 10814,14939 10830,14939 10882,15262 11013,15410 11221,15386 11237,15380 11255,15379 11271,15380 11443,15313 11485,15139 11400,14858 11395,14839 11384,14830 11369,14830 11295,14850 11232,14832 11178,14781 11120,14723 11072,14624 11037,14484 11030,14458 11026,14426 11026,14389 Z"/></g></g></g></g></svg>