<?xml version="1.0" encoding="UTF-8"?>
<!DOCTYPE svg PUBLIC "-//W3C//DTD SVG 1.1//EN" "http://www.w3.org/Graphics/SVG/1.1/DTD/svg11.dtd"><svg version="1.1" viewBox="0 0 21000 29700" preserveAspectRatio="xMidYMid" fill-rule="evenodd" xmlns="http://www.w3.org/2000/svg" xmlns:xlink="http://www.w3.org/1999/xlink"><g visibility="visible" id="Default"><desc>Master slide</desc><g style="stroke:none;fill:none"><rect x="0" y="0" width="21000" height="29700"/></g></g><g visibility="visible" id="page1"><desc>Slide</desc><g><desc>Graphic</desc><g><g style="stroke:none;fill:rgb(143,5,5)"><path d="M 12869,13328 L 12869,13328 C 12813,13328 12781,13320 12773,13296 12550,12812 12047,12606 11272,12693 11272,12638 11264,12606 11240,12590 10897,12384 10434,12312 9834,12376 9779,12376 9731,12368 9674,12360 8868,12217 8285,12542 7918,13328 7846,14241 7974,14971 8293,15519 8309,15543 8341,15551 8397,15551 8397,15495 8390,15447 8365,15408 8126,14916 8029,14273 8078,13487 8293,13169 8540,12892 8836,12646 8860,12622 8877,12590 8877,12534 9339,12653 9875,12709 10473,12693 10530,12693 10577,12693 10633,12693 11671,12931 12207,13408 12230,14122 12230,14177 12230,14225 12230,14281 12286,14281 12326,14289 12366,14312 12829,14590 12997,15162 12869,16027 12813,16027 12789,16035 12781,16059 12598,16487 12310,16797 11911,16979 11855,16979 11807,16979 11751,16987 11080,17067 10441,16956 9834,16662 L 9834,16662 C 9834,16717 9842,16749 9867,16765 10370,17075 10945,17305 11591,17456 11647,17456 11696,17448 11751,17440 12246,17360 12621,17154 12869,16821 12869,16765 12877,16717 12885,16662 12941,16416 13045,16202 13189,16027 13189,15971 13189,15924 13189,15868 13189,15447 13189,15019 13189,14598 13132,14598 13101,14590 13093,14566 12909,14249 12838,13836 12869,13328 Z"/></g><g style="stroke:none;fill:rgb(226,26,22)"><path d="M 12366,14312 L 12366,14312 C 12326,14289 12286,14281 12230,14281 12175,14281 12126,14281 12071,14281 12071,14336 12079,14368 12102,14376 12477,14558 12574,14797 12390,15074 12334,15074 12294,15090 12262,15114 11943,15384 12039,15741 12550,16186 12493,16186 12454,16202 12414,16225 12102,16456 11719,16543 11272,16503 11272,16559 11264,16583 11256,16590 10554,16757 9923,16567 9355,16027 9355,16082 9355,16130 9355,16186 9355,16241 9355,16289 9355,16344 9563,16352 9707,16408 9795,16527 9818,16567 9834,16606 9834,16662 10441,16956 11080,17067 11751,16987 11807,16979 11855,16979 11911,16979 12310,16797 12598,16487 12781,16059 12789,16035 12813,16027 12869,16027 12997,15162 12829,14590 12366,14312 Z"/></g><g style="stroke:none;fill:rgb(237,21,19)"><path d="M 12230,14281 L 12230,14281 C 12230,14225 12230,14177 12230,14122 12207,13408 11671,12931 10633,12693 10577,12693 10530,12693 10473,12693 9875,12709 9339,12653 8877,12534 8877,12590 8860,12622 8836,12646 8540,12892 8293,13169 8078,13487 8029,14273 8126,14916 8365,15408 8390,15447 8397,15495 8397,15551 8445,15821 8660,15932 9035,15876 9092,15868 9140,15868 9195,15868 9195,15813 9195,15765 9195,15709 9140,15709 9092,15709 9035,15709 8980,15709 8940,15694 8901,15670 8717,15543 8605,15344 8557,15074 9052,14932 9315,14558 9347,13963 9355,13908 9355,13860 9355,13804 9763,13257 10178,13161 10593,13535 10617,13558 10633,13590 10633,13646 11424,13495 11871,13701 11990,14265 11990,14273 12015,14281 12071,14281 12126,14281 12175,14281 12230,14281 Z"/></g><g style="stroke:none;fill:rgb(250,106,46)"><path d="M 12071,14281 L 12071,14281 C 12015,14281 11990,14273 11990,14265 11871,13701 11424,13495 10633,13646 10577,13646 10530,13646 10473,13646 11408,13923 11855,14400 11831,15074 L 11751,15074 11751,15074 C 11751,15130 11751,15178 11751,15233 11751,15289 11743,15336 11719,15376 11584,15598 11647,15813 11911,16027 11855,16027 11815,16035 11775,16059 11288,16360 10905,16511 10633,16503 L 10554,16503 10554,16503 C 10505,15574 10051,15305 9195,15709 9195,15765 9195,15813 9195,15868 9252,15868 9291,15884 9315,15908 9339,15932 9355,15971 9355,16027 9923,16567 10554,16757 11256,16590 11264,16583 11272,16559 11272,16503 11719,16543 12102,16456 12414,16225 12454,16202 12493,16186 12550,16186 12039,15741 11943,15384 12262,15114 12294,15090 12334,15074 12390,15074 12574,14797 12477,14558 12102,14376 12079,14368 12071,14336 12071,14281 Z"/></g><g style="stroke:none;fill:rgb(237,242,3)"><path d="M 11751,15233 L 11751,15233 C 11751,15178 11751,15130 11751,15074 11696,15074 11671,15066 11663,15043 11487,14622 11144,14741 10633,15392 10769,16289 11104,16241 11655,15265 11663,15241 11696,15233 11751,15233 Z"/></g><g style="stroke:none;fill:rgb(246,202,32)"><path d="M 11751,15074 L 11831,15074 11831,15074 C 11855,14400 11408,13923 10473,13646 10418,13646 10378,13662 10353,13685 9875,14162 9435,14678 9035,15233 9035,15336 9035,15447 9035,15551 9035,15606 9035,15654 9035,15709 9092,15709 9140,15709 9195,15709 10051,15305 10505,15574 10554,16503 L 10633,16503 10633,16503 C 10905,16511 11288,16360 11775,16059 11815,16035 11855,16027 11911,16027 11647,15813 11584,15598 11719,15376 11743,15336 11751,15289 11751,15233 11696,15233 11663,15241 11655,15265 11104,16241 10769,16289 10633,15392 11144,14741 11487,14622 11663,15043 11671,15066 11696,15074 11751,15074 Z"/></g><g style="stroke:none;fill:rgb(106,3,2)"><path d="M 7998,15709 L 7918,15709 7918,15709 C 8102,16241 8532,16456 9195,16352 9252,16344 9299,16344 9355,16344 9355,16289 9355,16241 9355,16186 9355,16130 9355,16082 9355,16027 9355,15971 9339,15932 9315,15908 9291,15884 9252,15868 9195,15868 9140,15868 9092,15868 9035,15876 8660,15932 8445,15821 8397,15551 8341,15551 8309,15543 8293,15519 7974,14971 7846,14241 7918,13328 8285,12542 8868,12217 9674,12360 9731,12368 9779,12376 9834,12376 9834,12320 9826,12288 9802,12280 8932,11876 8254,12169 7758,13169 7670,14209 7751,15051 7998,15709 Z"/></g><g style="stroke:none;fill:rgb(250,127,57)"><path d="M 10473,13646 L 10473,13646 C 10530,13646 10577,13646 10633,13646 10633,13590 10617,13558 10593,13535 10178,13161 9763,13257 9355,13804 9355,13860 9355,13908 9347,13963 9315,14558 9052,14932 8557,15074 8605,15344 8717,15543 8901,15670 8940,15694 8980,15709 9035,15709 9035,15654 9035,15606 9035,15551 9035,15447 9035,15336 9035,15233 9435,14678 9875,14162 10353,13685 10378,13662 10418,13646 10473,13646 Z"/></g></g></g></g></svg>