<?xml version="1.0" encoding="UTF-8"?>
<!DOCTYPE svg PUBLIC "-//W3C//DTD SVG 1.1//EN" "http://www.w3.org/Graphics/SVG/1.1/DTD/svg11.dtd"><svg version="1.1" viewBox="0 0 21000 29700" preserveAspectRatio="xMidYMid" fill-rule="evenodd" xmlns="http://www.w3.org/2000/svg" xmlns:xlink="http://www.w3.org/1999/xlink"><g visibility="visible" id="Default"><desc>Master slide</desc><g style="stroke:none;fill:none"><rect x="0" y="0" width="21000" height="29700"/></g></g><g visibility="visible" id="page1"><desc>Slide</desc><g><desc>Graphic</desc><g><g style="stroke:none;fill:rgb(118,1,1)"><path d="M 13708,12810 L 13708,12731 13708,12731 C 12918,12795 12391,12620 12127,12199 11480,12445 10522,12493 9236,12334 9236,12279 9229,12247 9205,12239 8909,12088 8597,12120 8278,12334 8222,12334 8182,12318 8142,12295 7767,12064 7440,12072 7160,12334 7160,12390 7168,12437 7184,12485 7463,13430 7400,14176 7000,14715 7000,14771 7016,14811 7040,14835 7647,15462 7583,15898 6840,16144 6840,16200 6856,16239 6880,16263 7455,16859 7974,17240 8438,17414 8438,17359 8454,17319 8477,17287 9061,16517 9580,16565 10035,17414 10091,17414 10138,17422 10186,17438 10634,17589 11065,17478 11472,17097 11529,17097 11576,17105 11624,17121 12294,17351 12829,17232 13229,16779 L 13309,16779 13309,16779 C 13229,16486 13093,16224 12910,15985 12910,15930 12910,15882 12918,15827 13014,15136 13117,14715 13229,14557 13174,14557 13149,14549 13141,14533 12798,13668 12981,13088 13708,12810 Z M 12750,12977 L 12750,12977 C 12805,12969 12854,12969 12910,12969 12391,13247 12071,13723 11967,14398 11959,14454 11951,14501 11951,14557 12143,14906 12151,15335 11975,15835 11959,15882 11951,15930 11951,15985 12008,15985 12047,16001 12079,16025 12391,16287 12454,16541 12271,16779 12215,16779 12183,16763 12159,16740 11919,16430 11529,16390 10993,16620 10937,16620 10913,16628 10905,16644 10825,16914 10641,17065 10354,17097 10298,17097 10266,17089 10258,17065 10067,16652 9675,16454 9077,16462 9077,16406 9077,16359 9077,16303 9069,15938 8749,15724 8118,15668 8063,15668 8038,15660 8030,15644 7862,15247 7679,14882 7479,14557 7775,14279 8055,14215 8302,14366 8341,14390 8382,14398 8438,14398 8438,14342 8438,14295 8438,14239 8438,14184 8438,14136 8438,14080 8909,13914 9124,13485 9085,12810 L 9085,12810 C 9077,12755 9077,12707 9077,12652 9316,12374 9627,12541 10002,13152 10027,13191 10035,13231 10035,13287 10929,13930 11432,13668 11552,12501 11552,12493 11576,12493 11632,12493 11807,12850 12183,13009 12750,12977 Z"/></g><g style="stroke:none;fill:rgb(204,43,2)"><path d="M 12910,12969 L 12910,12969 C 12854,12969 12805,12969 12750,12977 12183,13009 11807,12850 11632,12493 11576,12493 11552,12493 11552,12501 11432,13668 10929,13930 10035,13287 10035,13342 10027,13390 10002,13430 9971,13493 9931,13549 9875,13604 9875,13660 9875,13707 9875,13763 9875,13819 9875,13866 9875,13922 10913,13517 11576,13715 11864,14533 11872,14549 11896,14557 11951,14557 11951,14501 11959,14454 11967,14398 12071,13723 12391,13247 12910,12969 Z"/></g><g style="stroke:none;fill:rgb(231,179,0)"><path d="M 11951,14557 L 11951,14557 C 11896,14557 11872,14549 11864,14533 11576,13715 10913,13517 9875,13922 9875,13977 9875,14025 9875,14080 9875,14136 9868,14184 9843,14223 9811,14287 9771,14342 9716,14398 9755,15295 10027,15763 10513,15819 10570,15827 10618,15827 10673,15827 10322,15295 10243,14771 10426,14263 10434,14247 10458,14239 10513,14239 11176,14723 11648,14866 11911,14668 11935,14644 11951,14612 11951,14557 Z"/></g><g style="stroke:none;fill:rgb(232,138,2)"><path d="M 11951,14557 L 11951,14557 C 11951,14612 11935,14644 11911,14668 11648,14866 11176,14723 10513,14239 10458,14239 10434,14247 10426,14263 10243,14771 10322,15295 10673,15827 10618,15827 10570,15827 10513,15819 10027,15763 9755,15295 9716,14398 9771,14342 9811,14287 9843,14223 9868,14184 9875,14136 9875,14080 9819,14080 9771,14088 9716,14096 9308,14160 8941,14263 8597,14398 8597,14454 8597,14501 8597,14557 8765,15168 9124,15668 9675,16041 9700,16057 9716,16089 9716,16144 10266,16184 10961,16136 11791,16001 11848,15993 11896,15985 11951,15985 11951,15930 11959,15882 11975,15835 12151,15335 12143,14906 11951,14557 Z"/></g><g style="stroke:none;fill:rgb(224,24,8)"><path d="M 11951,15985 L 11951,15985 C 11896,15985 11848,15993 11791,16001 10961,16136 10266,16184 9716,16144 9716,16089 9700,16057 9675,16041 9124,15668 8765,15168 8597,14557 8597,14612 8597,14660 8590,14715 8566,15057 8406,15263 8118,15350 8118,15406 8118,15454 8118,15509 8118,15565 8118,15612 8118,15668 8749,15724 9069,15938 9077,16303 9077,16359 9077,16406 9077,16462 9675,16454 10067,16652 10258,17065 10266,17089 10298,17097 10354,17097 10641,17065 10825,16914 10905,16644 10913,16628 10937,16620 10993,16620 11529,16390 11919,16430 12159,16740 12183,16763 12215,16779 12271,16779 12454,16541 12391,16287 12079,16025 12047,16001 12008,15985 11951,15985 Z"/></g><g style="stroke:none;fill:rgb(222,6,4)"><path d="M 9077,12652 L 9077,12652 C 9077,12707 9077,12755 9085,12810 9124,13485 8909,13914 8438,14080 8438,14136 8438,14184 8438,14239 8438,14295 8438,14342 8438,14398 8493,14398 8542,14398 8597,14398 8941,14263 9308,14160 9716,14096 9771,14088 9819,14080 9875,14080 9875,14025 9875,13977 9875,13922 9875,13866 9875,13819 9875,13763 9875,13707 9875,13660 9875,13604 9931,13549 9971,13493 10002,13430 10027,13390 10035,13342 10035,13287 10035,13231 10027,13191 10002,13152 9627,12541 9316,12374 9077,12652 Z"/></g><g style="stroke:none;fill:rgb(225,7,10)"><path d="M 8118,15509 L 8118,15509 C 8118,15454 8118,15406 8118,15350 8406,15263 8566,15057 8590,14715 8597,14660 8597,14612 8597,14557 8597,14501 8597,14454 8597,14398 8542,14398 8493,14398 8438,14398 8382,14398 8341,14390 8302,14366 8055,14215 7775,14279 7479,14557 7679,14882 7862,15247 8030,15644 8038,15660 8063,15668 8118,15668 8118,15612 8118,15565 8118,15509 Z"/></g></g></g></g></svg>