<?xml version="1.0" encoding="UTF-8"?>
<!DOCTYPE svg PUBLIC "-//W3C//DTD SVG 1.1//EN" "http://www.w3.org/Graphics/SVG/1.1/DTD/svg11.dtd"><svg version="1.1" viewBox="0 0 21000 29700" preserveAspectRatio="xMidYMid" fill-rule="evenodd" xmlns="http://www.w3.org/2000/svg" xmlns:xlink="http://www.w3.org/1999/xlink"><g visibility="visible" id="Default"><desc>Master slide</desc><g style="stroke:none;fill:none"><rect x="0" y="0" width="21000" height="29700"/></g></g><g visibility="visible" id="page1"><desc>Slide</desc><g><desc>Graphic</desc><g><g style="stroke:none;fill:rgb(124,3,0)"><path d="M 12053,13486 L 12053,13486 C 12000,13486 11947,13491 11894,13502 11611,13560 11504,13449 11574,13169 11521,13169 11480,13154 11453,13128 11241,12916 11174,12560 11255,12057 L 11255,11978 11255,11978 C 10786,12661 10094,12793 9178,12375 9178,12428 9178,12481 9178,12534 9178,12586 9178,12639 9178,12692 10036,12835 10660,13063 11054,13375 11081,13396 11095,13433 11095,13486 11281,13666 11592,13694 12029,13572 12045,13567 12053,13539 12053,13486 Z"/></g><g style="stroke:none;fill:rgb(116,0,0)"><path d="M 11894,13502 L 11894,13502 C 11947,13491 12000,13486 12053,13486 12053,13433 12053,13380 12053,13327 12324,13587 12577,13862 12811,14153 12838,14185 12852,14227 12852,14280 12442,15015 12481,15610 12970,16065 12998,16091 13012,16132 13012,16185 13065,16185 13118,16185 13172,16185 13172,16132 13160,16086 13139,16049 12814,15525 12879,14989 13331,14439 13331,14386 13322,14334 13306,14287 13216,14012 13065,13798 12852,13645 12852,13592 12852,13539 12852,13486 12814,12698 12389,12592 11574,13169 11504,13449 11611,13560 11894,13502 Z"/></g><g style="stroke:none;fill:rgb(222,23,3)"><path d="M 12053,13327 L 12053,13327 C 12053,13380 12053,13433 12053,13486 12053,13539 12045,13567 12029,13572 11592,13694 11281,13666 11095,13486 11095,13433 11081,13396 11054,13375 10660,13063 10036,12835 9178,12692 9125,12692 9088,12678 9067,12652 8816,12361 8534,12322 8220,12534 8220,12586 8220,12639 8220,12692 8220,12745 8220,12798 8220,12851 8363,13026 8444,13290 8460,13645 L 8539,13645 8539,13645 C 8539,13592 8539,13539 8539,13486 8539,13327 8539,13169 8539,13010 9232,12851 9524,13116 9418,13804 L 9497,13804 9497,13804 C 10595,13793 11597,13922 12508,14192 12524,14197 12533,14227 12533,14280 12580,14804 12369,15095 11901,15153 11895,15153 11894,15179 11894,15232 11797,15597 11904,15783 12213,15788 L 12213,15867 12213,15867 C 12394,16370 12646,16509 12970,16287 12998,16271 13012,16238 13012,16185 13012,16132 12998,16091 12970,16065 12481,15610 12442,15015 12852,14280 12852,14227 12838,14185 12811,14153 12577,13862 12324,13587 12053,13327 Z"/></g><g style="stroke:none;fill:rgb(236,108,2)"><path d="M 11894,15232 L 11894,15232 C 11894,15179 11895,15153 11901,15153 12369,15095 12580,14804 12533,14280 12533,14227 12524,14197 12508,14192 11597,13922 10595,13793 9497,13804 L 9418,13804 9418,13804 C 9524,13116 9232,12851 8539,13010 8539,13169 8539,13327 8539,13486 8539,13539 8539,13592 8539,13645 9120,14073 9553,14377 9840,14557 9878,14583 9924,14597 9977,14597 10589,14058 10958,14269 11086,15232 11091,15285 11095,15338 11095,15391 11383,15417 11602,15377 11757,15271 11794,15245 11840,15232 11894,15232 Z"/></g><g style="stroke:none;fill:rgb(173,65,0)"><path d="M 11894,15232 L 11894,15232 C 11840,15232 11794,15245 11757,15271 11602,15377 11383,15417 11095,15391 11042,15391 11006,15402 10990,15423 10868,15634 10637,15730 10296,15709 10296,15814 10296,15920 10296,16026 10296,16079 10296,16132 10296,16185 10600,15888 11186,15779 12053,15858 12106,15864 12159,15867 12213,15867 L 12213,15788 12213,15788 C 11904,15783 11797,15597 11894,15232 Z"/></g><g style="stroke:none;fill:rgb(111,0,0)"><path d="M 13012,16185 L 13012,16185 C 13012,16238 12998,16271 12970,16287 12646,16509 12394,16370 12213,15867 12159,15867 12106,15864 12053,15858 11186,15779 10600,15888 10296,16185 10243,16185 10189,16185 10136,16185 9392,16222 9232,16010 9657,15550 L 9738,15550 9738,15550 C 9354,14999 8848,14629 8220,14439 8220,14491 8220,14544 8220,14597 8215,15280 7949,15703 7422,15867 7587,16333 7959,16594 8539,16652 8593,16657 8646,16661 8699,16661 9062,17227 9301,17180 9418,16518 9418,16508 9445,16502 9497,16502 9838,16725 10317,16783 10935,16677 10988,16666 11042,16661 11095,16661 11430,16963 11808,17217 12229,17423 12271,17444 12319,17455 12373,17455 12735,17206 13067,17245 13370,17573 13397,17599 13437,17613 13490,17613 13411,17164 13311,16737 13195,16335 13179,16287 13172,16238 13172,16185 13118,16185 13065,16185 13012,16185 Z"/></g><g style="stroke:none;fill:rgb(131,3,4)"><path d="M 9067,12652 L 9067,12652 C 9088,12678 9125,12692 9178,12692 9178,12639 9178,12586 9178,12534 9178,12481 9178,12428 9178,12375 9125,12375 9095,12366 9090,12350 8935,11937 8699,11840 8380,12057 8326,12057 8291,12070 8275,12096 7887,12620 7656,13296 7581,14121 7687,14280 7847,14380 8061,14423 8114,14433 8167,14439 8220,14439 8220,14386 8212,14334 8195,14287 8068,13895 8023,13417 8061,12851 8114,12851 8167,12851 8220,12851 8220,12798 8220,12745 8220,12692 8220,12639 8220,12586 8220,12534 8534,12322 8816,12361 9067,12652 Z"/></g><g style="stroke:none;fill:rgb(224,16,3)"><path d="M 8539,13645 L 8460,13645 8460,13645 C 8444,13290 8363,13026 8220,12851 8167,12851 8114,12851 8061,12851 8023,13417 8068,13895 8195,14287 8212,14334 8220,14386 8220,14439 8848,14629 9354,14999 9738,15550 L 9657,15550 9657,15550 C 9232,16010 9392,16222 10136,16185 10189,16185 10243,16185 10296,16185 10296,16132 10296,16079 10296,16026 10296,15920 10296,15814 10296,15709 10637,15730 10868,15634 10990,15423 11006,15402 11042,15391 11095,15391 11095,15338 11091,15285 11086,15232 10958,14269 10589,14058 9977,14597 9924,14597 9878,14583 9840,14557 9553,14377 9120,14073 8539,13645 Z"/></g></g></g></g></svg>