<?xml version="1.0" encoding="UTF-8"?>
<!DOCTYPE svg PUBLIC "-//W3C//DTD SVG 1.1//EN" "http://www.w3.org/Graphics/SVG/1.1/DTD/svg11.dtd"><svg version="1.1" viewBox="0 0 21000 29700" preserveAspectRatio="xMidYMid" fill-rule="evenodd" xmlns="http://www.w3.org/2000/svg" xmlns:xlink="http://www.w3.org/1999/xlink"><g visibility="visible" id="Default"><desc>Master slide</desc><g style="stroke:none;fill:none"><rect x="0" y="0" width="21000" height="29700"/></g></g><g visibility="visible" id="page1"><desc>Slide</desc><g><desc>Graphic</desc><g><g style="stroke:none;fill:rgb(95,0,0)"><path d="M 7702,12593 L 7702,12593 C 7702,12490 7702,12379 7702,12276 7758,12276 7806,12276 7861,12276 7918,12276 7966,12276 8021,12276 8021,12220 8021,12173 8021,12117 8078,12117 8125,12117 8181,12117 8181,12062 8173,12038 8165,12038 7981,12006 7559,12030 6904,12117 7239,12681 7303,13062 7103,13268 7080,13292 7064,13332 7064,13387 7199,13617 7223,13935 7143,14340 L 7223,14340 7223,14340 C 7223,14284 7223,14237 7223,14181 7223,14125 7223,14078 7223,14022 7407,13673 7534,13252 7622,12768 7622,12760 7646,12752 7702,12752 7702,12697 7702,12649 7702,12593 Z"/></g><g style="stroke:none;fill:rgb(199,25,4)"><path d="M 7702,12276 L 7702,12276 C 7702,12379 7702,12490 7702,12593 7702,12649 7702,12697 7702,12752 7702,12808 7710,12855 7719,12911 7782,13197 7726,13355 7542,13387 7502,14260 7678,14435 8070,13903 8094,13879 8125,13863 8181,13863 8532,13617 8652,13348 8532,13062 8508,13014 8500,12967 8500,12911 8500,12855 8500,12808 8500,12752 8500,12697 8500,12649 8500,12593 L 8421,12593 8421,12593 C 8437,12316 8301,12205 8021,12276 7966,12276 7918,12276 7861,12276 7806,12276 7758,12276 7702,12276 Z"/></g><g style="stroke:none;fill:rgb(111,2,0)"><path d="M 8021,12276 L 8021,12276 C 8301,12205 8437,12316 8421,12593 L 8500,12593 8500,12593 C 9035,12760 9571,12768 10106,12617 10153,12601 10202,12593 10258,12593 10664,12879 11144,13062 11695,13149 L 11695,13070 11695,13070 C 11927,12824 12191,12697 12485,12673 12493,12673 12493,12649 12493,12593 12869,12586 13173,12657 13420,12808 13444,12824 13452,12855 13452,12911 13333,13570 13124,13887 12813,13871 12757,13863 12709,13863 12653,13863 12573,14522 12350,15038 11974,15411 11950,15435 11911,15451 11855,15451 11855,15507 11847,15538 11822,15546 11735,15586 11639,15610 11536,15610 11536,15713 11536,15824 11536,15927 11536,15983 11536,16030 11536,16086 11591,16086 11631,16102 11655,16126 11838,16308 12015,16507 12175,16721 L 12175,16800 12175,16800 C 12678,16729 12941,16856 12972,17197 12972,17253 12956,17284 12933,17300 12453,17602 12039,17570 11695,17197 L 11775,17197 11775,17197 C 11056,16737 10497,16681 10098,17038 10098,17094 10090,17126 10066,17134 9579,17364 9220,17435 8980,17356 8924,17356 8884,17340 8844,17316 8492,17094 8222,16792 8021,16403 8078,16403 8125,16403 8181,16403 8181,16348 8181,16300 8181,16245 8181,16189 8181,16141 8181,16086 8780,15919 8972,15395 8748,14514 8741,14506 8717,14498 8660,14498 8605,14498 8557,14506 8516,14530 7981,14760 7606,14752 7382,14498 7382,14554 7382,14602 7374,14657 7350,14943 7191,15102 6904,15133 7486,15641 7526,16102 7031,16522 6999,16546 6959,16562 6904,16562 7311,16848 7598,17261 7774,17808 7782,17824 7806,17832 7861,17832 8094,17967 8405,17943 8788,17769 8812,17761 8820,17729 8820,17673 9139,17673 9459,17673 9778,17673 9834,17673 9883,17673 9938,17673 L 9938,17673 C 10210,17523 10481,17372 10753,17229 10792,17205 10840,17197 10897,17197 11192,17380 11447,17602 11655,17864 11680,17896 11695,17935 11695,17991 12390,17792 12885,17832 13173,18110 13197,18134 13236,18150 13292,18150 13619,18332 13859,18221 14011,17832 L 13931,17832 13931,17832 C 13811,17419 13595,17110 13268,16911 13228,16888 13189,16880 13132,16880 13508,16253 13412,15610 12853,14943 12828,14911 12813,14872 12813,14816 12901,14586 13069,14435 13300,14364 13348,14348 13396,14340 13452,14340 13356,13824 13452,13482 13739,13324 13763,13316 13771,13284 13771,13228 13731,13022 13779,12649 13915,12109 13923,12062 13931,12014 13931,11958 13492,11919 13197,11720 13061,11347 13053,11331 13029,11323 12972,11323 12709,11427 12390,11506 12023,11562 12015,11562 12015,11585 12015,11641 11687,12109 11208,12395 10577,12514 L 10577,12435 10577,12435 C 10242,12070 9954,12109 9715,12562 9707,12586 9674,12593 9619,12593 9259,12363 8836,12212 8341,12133 8285,12125 8237,12117 8181,12117 8125,12117 8078,12117 8021,12117 8021,12173 8021,12220 8021,12276 Z"/></g><g style="stroke:none;fill:rgb(184,12,5)"><path d="M 8500,12752 L 8500,12752 C 8500,12808 8500,12855 8500,12911 8812,12879 9019,13094 9124,13546 9131,13602 9139,13649 9139,13705 9755,13697 10329,13776 10873,13935 10889,13943 10897,13967 10897,14022 11360,13586 11830,13451 12310,13617 12325,13625 12333,13649 12333,13705 12270,14110 12118,14641 11879,15300 11863,15348 11855,15395 11855,15451 11911,15451 11950,15435 11974,15411 12350,15038 12573,14522 12653,13863 12709,13863 12757,13863 12813,13871 13124,13887 13333,13570 13452,12911 13452,12855 13444,12824 13420,12808 13173,12657 12869,12586 12493,12593 12493,12649 12493,12673 12485,12673 12191,12697 11927,12824 11695,13070 L 11695,13149 11695,13149 C 11144,13062 10664,12879 10258,12593 10202,12593 10153,12601 10106,12617 9571,12768 9035,12760 8500,12593 8500,12649 8500,12697 8500,12752 Z"/></g><g style="stroke:none;fill:rgb(215,74,23)"><path d="M 8500,12911 L 8500,12911 C 8500,12967 8508,13014 8532,13062 8652,13348 8532,13617 8181,13863 8157,14205 8309,14395 8652,14419 8660,14419 8660,14443 8660,14498 8717,14498 8741,14506 8748,14514 8972,15395 8780,15919 8181,16086 8181,16141 8181,16189 8181,16245 8181,16300 8181,16348 8181,16403 8605,16991 9044,17110 9491,16761 9522,16737 9563,16721 9619,16721 10713,16761 11343,16602 11503,16229 11528,16189 11536,16141 11536,16086 11536,16030 11536,15983 11536,15927 11536,15824 11536,15713 11536,15610 11639,15610 11735,15586 11822,15546 11847,15538 11855,15507 11855,15451 11855,15395 11863,15348 11879,15300 12118,14641 12270,14110 12333,13705 12333,13649 12325,13625 12310,13617 11830,13451 11360,13586 10897,14022 10897,13967 10889,13943 10873,13935 10329,13776 9755,13697 9139,13705 L 9139,13705 C 9139,13649 9131,13602 9124,13546 9019,13094 8812,12879 8500,12911 Z M 10497,14340 L 10417,14340 10417,14340 C 11392,14578 11711,14919 11376,15372 L 11376,15292 11376,15292 C 11144,14911 10913,14895 10680,15253 10664,15276 10633,15292 10577,15292 10577,15348 10577,15395 10577,15451 10577,15507 10585,15530 10593,15538 11008,15634 11112,15760 10897,15927 10897,15983 10881,16014 10857,16038 9946,16784 9163,16856 8500,16245 8892,16268 9060,16054 8988,15610 8980,15554 8980,15507 8980,15451 8980,15395 8980,15348 8980,15292 8980,14919 8980,14554 8980,14181 9770,13784 10274,13840 10497,14340 Z"/></g><g style="stroke:none;fill:rgb(243,159,56)"><path d="M 10417,14340 L 10497,14340 10497,14340 C 10274,13840 9770,13784 8980,14181 8980,14554 8980,14919 8980,15292 8980,15348 8980,15395 8980,15451 9522,15911 10018,15927 10457,15491 10481,15467 10522,15451 10577,15451 10577,15395 10577,15348 10577,15292 10522,15292 10473,15284 10425,15268 10210,15181 9994,15078 9778,14975 9834,14665 10002,14459 10266,14364 10313,14348 10362,14340 10417,14340 Z"/></g><g style="stroke:none;fill:rgb(215,124,36)"><path d="M 10417,14340 L 10417,14340 C 10362,14340 10313,14348 10266,14364 10002,14459 9834,14665 9778,14975 9994,15078 10210,15181 10425,15268 10473,15284 10522,15292 10577,15292 10633,15292 10664,15276 10680,15253 10913,14895 11144,14911 11376,15292 L 11376,15372 11376,15372 C 11711,14919 11392,14578 10417,14340 Z"/></g><g style="stroke:none;fill:rgb(239,182,35)"><path d="M 10577,15451 L 10577,15451 C 10522,15451 10481,15467 10457,15491 10018,15927 9522,15911 8980,15451 8980,15507 8980,15554 8988,15610 9060,16054 8892,16268 8500,16245 9163,16856 9946,16784 10857,16038 10881,16014 10897,15983 10897,15927 11112,15760 11008,15634 10593,15538 10585,15530 10577,15507 10577,15451 Z"/></g><g style="stroke:none;fill:rgb(152,29,1)"><path d="M 7702,12752 L 7702,12752 C 7646,12752 7622,12760 7622,12768 7534,13252 7407,13673 7223,14022 7223,14078 7223,14125 7223,14181 7223,14237 7223,14284 7223,14340 7223,14395 7239,14435 7263,14459 7287,14483 7327,14498 7382,14498 7606,14752 7981,14760 8516,14530 8557,14506 8605,14498 8660,14498 8660,14443 8660,14419 8652,14419 8309,14395 8157,14205 8181,13863 8125,13863 8094,13879 8070,13903 7678,14435 7502,14260 7542,13387 7726,13355 7782,13197 7719,12911 7710,12855 7702,12808 7702,12752 Z"/></g><g style="stroke:none;fill:rgb(161,20,5)"><path d="M 12933,17300 L 12933,17300 C 12956,17284 12972,17253 12972,17197 12941,16856 12678,16729 12175,16800 L 12175,16721 12175,16721 C 12015,16507 11838,16308 11655,16126 11631,16102 11591,16086 11536,16086 11536,16141 11528,16189 11503,16229 11343,16602 10713,16761 9619,16721 9563,16721 9522,16737 9491,16761 9044,17110 8605,16991 8181,16403 8125,16403 8078,16403 8021,16403 8222,16792 8492,17094 8844,17316 8884,17340 8924,17356 8980,17356 9220,17435 9579,17364 10066,17134 10090,17126 10098,17094 10098,17038 10497,16681 11056,16737 11775,17197 L 11695,17197 11695,17197 C 12039,17570 12453,17602 12933,17300 Z"/></g></g></g></g></svg>