<?xml version="1.0" encoding="UTF-8"?>
<!DOCTYPE svg PUBLIC "-//W3C//DTD SVG 1.1//EN" "http://www.w3.org/Graphics/SVG/1.1/DTD/svg11.dtd"><svg version="1.1" viewBox="0 0 21000 29700" preserveAspectRatio="xMidYMid" fill-rule="evenodd" xmlns="http://www.w3.org/2000/svg" xmlns:xlink="http://www.w3.org/1999/xlink"><g visibility="visible" id="Default"><desc>Master slide</desc><g style="stroke:none;fill:none"><rect x="0" y="0" width="21000" height="29700"/></g></g><g visibility="visible" id="page1"><desc>Slide</desc><g><desc>Graphic</desc><g><g style="stroke:none;fill:rgb(118,2,1)"><path d="M 12612,13986 L 12612,13986 C 12612,13930 12612,13882 12620,13827 12669,13136 12452,12716 11973,12557 11918,12557 11878,12565 11837,12589 11367,12859 10880,13113 10377,13351 10320,13351 10280,13335 10257,13311 9985,13049 9706,12803 9418,12557 9362,12557 9314,12565 9274,12589 8771,12819 8340,13128 7980,13509 7980,13565 7988,13613 7996,13668 8077,14121 8124,14438 8140,14621 8140,14676 8156,14708 8180,14732 8708,15208 8691,15597 8140,15891 L 8061,15891 8061,15891 C 8284,16303 8580,16676 8939,17002 8995,17002 9043,16994 9099,16986 10097,16835 11007,16835 11813,17002 11870,17002 11918,16994 11965,16978 12197,16907 12365,16756 12452,16526 12452,16470 12452,16422 12452,16367 12444,16097 12604,15724 12932,15256 12932,15200 12924,15176 12908,15168 12205,14883 12109,14486 12612,13986 Z M 11694,13001 L 11694,13001 C 11670,12970 11654,12930 11654,12874 12476,13978 12484,14017 11694,13001 Z M 9738,15732 L 9738,15732 C 10209,15724 10424,15462 10385,14938 10377,14883 10377,14835 10377,14779 10320,14779 10280,14795 10257,14819 9490,15510 8835,15343 8300,14303 8915,13533 9706,13446 10656,14041 10679,14057 10696,14089 10696,14144 11015,14144 11326,14168 11638,14224 11646,14224 11654,14248 11654,14303 11710,14303 11750,14319 11774,14343 12061,14637 12285,14994 12452,15414 12452,15470 12444,15518 12429,15565 12005,16732 11535,16891 11015,16049 L 11015,15970 11015,15970 C 10320,16724 9890,16645 9738,15732 Z"/></g><g style="stroke:none;fill:rgb(186,8,8)"><path d="M 11654,12874 L 11654,12874 C 11654,12930 11670,12970 11694,13001 12484,14017 12476,13978 11654,12874 Z"/></g><g style="stroke:none;fill:rgb(195,93,30)"><path d="M 11135,15946 L 11135,15946 C 10776,15708 10632,15264 10696,14621 10959,14621 11231,14621 11494,14621 11551,14621 11598,14621 11654,14621 11654,14565 11654,14517 11654,14462 11654,14406 11654,14359 11654,14303 11598,14303 11551,14303 11494,14295 11007,14240 10640,14295 10377,14462 10377,14517 10377,14565 10377,14621 10377,14676 10377,14724 10377,14779 10377,14835 10377,14883 10385,14938 10424,15462 10209,15724 9738,15732 9890,16645 10320,16724 11015,15970 L 11015,16049 11015,16049 C 11071,16049 11119,16049 11174,16049 11174,15994 11159,15962 11135,15946 Z"/></g><g style="stroke:none;fill:rgb(248,170,58)"><path d="M 10696,14621 L 10696,14621 C 10632,15264 10776,15708 11135,15946 11159,15962 11174,15994 11174,16049 11854,16145 12022,15716 11679,14771 11662,14724 11654,14676 11654,14621 11598,14621 11551,14621 11494,14621 11231,14621 10959,14621 10696,14621 Z"/></g><g style="stroke:none;fill:rgb(175,10,8)"><path d="M 10377,14779 L 10377,14779 C 10377,14724 10377,14676 10377,14621 10377,14565 10377,14517 10377,14462 10640,14295 11007,14240 11494,14295 11551,14303 11598,14303 11654,14303 11654,14248 11646,14224 11638,14224 11326,14168 11015,14144 10696,14144 10696,14089 10679,14057 10656,14041 9706,13446 8915,13533 8300,14303 8835,15343 9490,15510 10257,14819 10280,14795 10320,14779 10377,14779 Z M 8619,14303 L 8619,14303 C 8619,14248 8619,14200 8619,14144 9681,14089 9882,14398 9219,15057 9194,15081 9154,15097 9099,15097 8763,15010 8604,14740 8619,14303 Z"/></g><g style="stroke:none;fill:rgb(231,16,16)"><path d="M 8619,14144 L 8619,14144 C 8619,14200 8619,14248 8619,14303 8604,14740 8763,15010 9099,15097 9154,15097 9194,15081 9219,15057 9882,14398 9681,14089 8619,14144 Z"/></g><g style="stroke:none;fill:rgb(187,38,20)"><path d="M 11174,16049 L 11174,16049 C 11119,16049 11071,16049 11015,16049 11535,16891 12005,16732 12429,15565 12444,15518 12452,15470 12452,15414 12285,14994 12061,14637 11774,14343 11750,14319 11710,14303 11654,14303 11654,14359 11654,14406 11654,14462 11654,14517 11654,14565 11654,14621 11654,14676 11662,14724 11679,14771 12022,15716 11854,16145 11174,16049 Z"/></g></g></g></g></svg>