<?xml version="1.0" encoding="UTF-8"?>
<!DOCTYPE svg PUBLIC "-//W3C//DTD SVG 1.1//EN" "http://www.w3.org/Graphics/SVG/1.1/DTD/svg11.dtd"><svg version="1.1" viewBox="0 0 21000 29700" preserveAspectRatio="xMidYMid" fill-rule="evenodd" xmlns="http://www.w3.org/2000/svg" xmlns:xlink="http://www.w3.org/1999/xlink"><g visibility="visible" id="Default"><desc>Master slide</desc><g style="stroke:none;fill:none"><rect x="0" y="0" width="21000" height="29700"/></g></g><g visibility="visible" id="page1"><desc>Slide</desc><g><desc>Graphic</desc><g><g style="stroke:none;fill:rgb(136,3,3)"><path d="M 13443,12708 L 13443,12708 C 13421,12661 13411,12609 13411,12556 13049,12123 12410,11962 11494,12073 11441,12078 11388,12080 11334,12080 10940,11731 10301,11623 9418,11756 9364,11761 9311,11763 9258,11763 9205,11763 9155,11752 9107,11731 8740,11583 8258,11540 7661,11604 7661,11657 7664,11710 7670,11763 7691,12197 7368,12514 6702,12715 6702,13403 6702,14091 6702,14779 6702,14832 6702,14885 6702,14938 7006,15112 7260,15335 7462,15604 7489,15636 7501,15679 7501,15731 6990,15700 6724,15911 6702,16366 6702,16419 6702,16472 6702,16525 7006,16964 7388,17324 7845,17605 7883,17626 7927,17636 7980,17636 8683,17594 9269,17462 9738,17240 L 9738,17319 9738,17319 C 9966,17774 10392,17906 11015,17716 L 11015,17795 11015,17795 C 11648,18065 12394,18222 13251,18264 13304,18270 13358,18271 13411,18271 13730,17901 14037,17520 14330,17128 14357,17097 14369,17054 14369,17001 14225,16562 13973,16227 13611,15994 13585,15978 13571,15943 13571,15890 13948,15472 13980,14954 13667,14334 13655,14313 13623,14303 13571,14303 13650,13641 13608,13110 13443,12708 Z M 12772,12636 L 12772,12715 12772,12715 C 13134,13234 13198,13715 12963,14160 12942,14202 12932,14250 12932,14303 12984,14303 13021,14317 13037,14343 13734,15349 13645,15599 12772,15096 12772,15149 12759,15190 12733,15216 12707,15243 12665,15255 12612,15255 12612,15361 12612,15467 12612,15573 12612,15626 12612,15679 12612,15731 12665,15731 12714,15742 12756,15763 13118,15922 13390,16176 13571,16525 13571,16578 13563,16629 13548,16677 13372,17127 12847,17499 11973,17795 11920,17795 11887,17785 11871,17763 11471,17097 11026,16737 10536,16684 10536,16737 10531,16790 10519,16843 10387,17562 10126,17562 9738,16843 9684,16843 9631,16848 9578,16859 8891,17001 8625,16732 8779,16049 L 8779,15970 8779,15970 C 8172,15991 7852,15753 7821,15255 7821,15202 7815,15176 7805,15176 6900,14975 6586,14207 6862,12874 7160,12636 7480,12528 7821,12549 7874,12555 7927,12556 7980,12556 7980,12504 7980,12451 7980,12398 7980,12345 7980,12292 7980,12239 9141,11805 10268,11900 11360,12525 11397,12546 11441,12556 11494,12556 11771,12668 12197,12694 12772,12636 Z"/></g><g style="stroke:none;fill:rgb(245,66,29)"><path d="M 12445,13430 L 12445,13430 C 12451,13430 12452,13456 12452,13509 12373,14160 12466,14599 12733,14827 12759,14848 12772,14885 12772,14938 12772,14991 12772,15044 12772,15096 13645,15599 13734,15349 13037,14343 13021,14317 12984,14303 12932,14303 12879,14303 12840,14290 12812,14264 12631,14073 12564,13768 12612,13350 12612,13297 12601,13266 12580,13255 12149,13027 11574,12953 10856,13033 10856,12980 10854,12927 10848,12874 10811,12408 10440,12302 9738,12556 9738,12662 9738,12768 9738,12874 9738,12927 9738,12980 9738,13033 9998,12530 10254,12486 10504,12899 10526,12936 10536,12980 10536,13033 10536,13086 10550,13126 10577,13153 10603,13179 10642,13191 10696,13191 10749,13191 10802,13191 10856,13191 11420,13276 11950,13355 12445,13430 Z"/></g><g style="stroke:none;fill:rgb(246,189,39)"><path d="M 12452,13509 L 12452,13509 C 12452,13456 12451,13430 12445,13430 11950,13355 11420,13276 10856,13191 10856,13244 10865,13296 10881,13343 11093,14121 10818,14652 10057,14938 10057,14885 10057,14832 10057,14779 10057,14303 10057,13826 10057,13350 10270,13350 10477,13327 10679,13280 10691,13274 10696,13244 10696,13191 10642,13191 10603,13179 10577,13153 10550,13126 10536,13086 10536,13033 10482,13033 10429,13038 10377,13049 9791,13144 9578,13615 9738,14461 9738,14514 9725,14551 9699,14573 9352,14869 8939,15096 8460,15255 8460,15361 8460,15467 8460,15573 8460,15626 8460,15679 8460,15731 9397,15620 9970,15684 10177,15922 10204,15954 10217,15996 10217,16049 9982,16435 10036,16645 10377,16677 10429,16682 10482,16684 10536,16684 10536,16631 10536,16578 10536,16525 10536,16472 10536,16419 10536,16366 L 10536,16366 C 10536,16313 10536,16261 10536,16208 10589,16208 10642,16208 10696,16208 10696,16155 10691,16128 10679,16128 10519,16091 10472,15959 10536,15731 10893,14922 11471,14629 12270,14851 12286,14857 12293,14885 12293,14938 12399,14938 12506,14938 12612,14938 12665,14938 12719,14938 12772,14938 12772,14885 12759,14848 12733,14827 12466,14599 12373,14160 12452,13509 Z"/></g><g style="stroke:none;fill:rgb(235,19,17)"><path d="M 12580,13255 L 12580,13255 C 12601,13266 12612,13297 12612,13350 12564,13768 12631,14073 12812,14264 12840,14290 12879,14303 12932,14303 12932,14250 12942,14202 12963,14160 13198,13715 13134,13234 12772,12715 L 12772,12636 12772,12636 C 12197,12694 11771,12668 11494,12556 11441,12556 11397,12546 11360,12525 10268,11900 9141,11805 7980,12239 7980,12292 7980,12345 7980,12398 7980,12451 7980,12504 7980,12556 8033,12556 8087,12556 8140,12556 8853,12588 9386,12773 9738,13112 L 9738,13033 9738,13033 C 9738,12980 9738,12927 9738,12874 9738,12768 9738,12662 9738,12556 10440,12302 10811,12408 10848,12874 10854,12927 10856,12980 10856,13033 11574,12953 12149,13027 12580,13255 Z"/></g><g style="stroke:none;fill:rgb(237,241,3)"><path d="M 10881,13343 L 10881,13343 C 10865,13296 10856,13244 10856,13191 10802,13191 10749,13191 10696,13191 10696,13244 10691,13274 10679,13280 10477,13327 10270,13350 10057,13350 10057,13826 10057,14303 10057,14779 10057,14832 10057,14885 10057,14938 10818,14652 11093,14121 10881,13343 Z"/></g><g style="stroke:none;fill:rgb(242,151,58)"><path d="M 12612,15255 L 12612,15255 C 12665,15255 12707,15243 12733,15216 12759,15190 12772,15149 12772,15096 12772,15044 12772,14991 12772,14938 12719,14938 12665,14938 12612,14938 12506,14938 12399,14938 12293,14938 12293,14991 12291,15044 12286,15096 12254,15435 12203,15647 12133,15731 12080,15731 12031,15740 11982,15756 11551,15899 11121,16049 10696,16208 10642,16208 10589,16208 10536,16208 10536,16261 10536,16313 10536,16366 11191,16509 11659,16832 11941,17335 11962,17377 11973,17425 11973,17478 13044,17086 13270,16546 12653,15858 12626,15827 12612,15784 12612,15731 12612,15679 12612,15626 12612,15573 12612,15467 12612,15361 12612,15255 Z"/></g><g style="stroke:none;fill:rgb(240,237,7)"><path d="M 12286,15096 L 12286,15096 C 12291,15044 12293,14991 12293,14938 12293,14885 12286,14857 12270,14851 11471,14629 10893,14922 10536,15731 10472,15959 10519,16091 10679,16128 10691,16128 10696,16155 10696,16208 11121,16049 11551,15899 11982,15756 12031,15740 12080,15731 12133,15731 12203,15647 12254,15435 12286,15096 Z"/></g><g style="stroke:none;fill:rgb(242,29,23)"><path d="M 7821,12549 L 7821,12549 C 7480,12528 7160,12636 6862,12874 6586,14207 6900,14975 7805,15176 7815,15176 7821,15202 7821,15255 7874,15202 7933,15160 7996,15128 8039,15107 8087,15096 8140,15096 8193,15096 8224,15089 8229,15073 8410,14618 8167,14043 7501,13350 7784,13207 7986,12990 8108,12699 8130,12657 8140,12609 8140,12556 8087,12556 8033,12556 7980,12556 7927,12556 7874,12555 7821,12549 Z"/></g><g style="stroke:none;fill:rgb(252,141,64)"><path d="M 9738,13033 L 9738,13112 9738,13112 C 9386,12773 8853,12588 8140,12556 8140,12609 8130,12657 8108,12699 7986,12990 7784,13207 7501,13350 8167,14043 8410,14618 8229,15073 8224,15089 8193,15096 8140,15096 8119,15382 8182,15581 8332,15693 8363,15719 8407,15731 8460,15731 8460,15679 8460,15626 8460,15573 8460,15467 8460,15361 8460,15255 8939,15096 9352,14869 9699,14573 9725,14551 9738,14514 9738,14461 9578,13615 9791,13144 10377,13049 10429,13038 10482,13033 10536,13033 10536,12980 10526,12936 10504,12899 10254,12486 9998,12530 9738,13033 Z M 7829,13509 L 7829,13509 C 7824,13456 7821,13403 7821,13350 8747,12779 8939,12980 8396,13953 8386,13975 8353,13985 8300,13985 8012,13953 7856,13795 7829,13509 Z"/></g><g style="stroke:none;fill:rgb(246,208,35)"><path d="M 7821,13350 L 7821,13350 C 7821,13403 7824,13456 7829,13509 7856,13795 8012,13953 8300,13985 8353,13985 8386,13975 8396,13953 8939,12980 8747,12779 7821,13350 Z"/></g><g style="stroke:none;fill:rgb(233,82,37)"><path d="M 8140,15096 L 8140,15096 C 8087,15096 8039,15107 7996,15128 7933,15160 7874,15202 7821,15255 7852,15753 8172,15991 8779,15970 L 8779,16049 8779,16049 C 9508,15827 9831,16038 9746,16684 9741,16737 9738,16790 9738,16843 10126,17562 10387,17562 10519,16843 10531,16790 10536,16737 10536,16684 10482,16684 10429,16682 10377,16677 10036,16645 9982,16435 10217,16049 10217,15996 10204,15954 10177,15922 9970,15684 9397,15620 8460,15731 8407,15731 8363,15719 8332,15693 8182,15581 8119,15382 8140,15096 Z"/></g><g style="stroke:none;fill:rgb(243,9,16)"><path d="M 9738,16843 L 9738,16843 C 9738,16790 9741,16737 9746,16684 9831,16038 9508,15827 8779,16049 8625,16732 8891,17001 9578,16859 9631,16848 9684,16843 9738,16843 Z"/></g><g style="stroke:none;fill:rgb(217,58,27)"><path d="M 10536,16525 L 10536,16525 C 10536,16578 10536,16631 10536,16684 11026,16737 11471,17097 11871,17763 11887,17785 11920,17795 11973,17795 12847,17499 13372,17127 13548,16677 13563,16629 13571,16578 13571,16525 13390,16176 13118,15922 12756,15763 12714,15742 12665,15731 12612,15731 12612,15784 12626,15827 12653,15858 13270,16546 13044,17086 11973,17478 11973,17425 11962,17377 11941,17335 11659,16832 11191,16509 10536,16366 10536,16419 10536,16472 10536,16525 Z"/></g><g style="stroke:none;fill:rgb(99,1,1)"><path d="M 9107,11731 L 9107,11731 C 9155,11752 9205,11763 9258,11763 9258,11710 9246,11676 9220,11660 8851,11406 8332,11281 7661,11286 7661,11339 7649,11380 7622,11406 7244,11772 6883,12154 6543,12556 6543,13350 6570,14142 6623,14931 6623,14936 6649,14938 6702,14938 6702,14885 6702,14832 6702,14779 6702,14091 6702,13403 6702,12715 7368,12514 7691,12197 7670,11763 7664,11710 7661,11657 7661,11604 8258,11540 8740,11583 9107,11731 Z"/></g></g></g></g></svg>