<?xml version="1.0" encoding="UTF-8"?>
<!DOCTYPE svg PUBLIC "-//W3C//DTD SVG 1.1//EN" "http://www.w3.org/Graphics/SVG/1.1/DTD/svg11.dtd"><svg version="1.1" viewBox="0 0 21000 29700" preserveAspectRatio="xMidYMid" fill-rule="evenodd" xmlns="http://www.w3.org/2000/svg" xmlns:xlink="http://www.w3.org/1999/xlink"><g visibility="visible" id="Default"><desc>Master slide</desc><g style="stroke:none;fill:none"><rect x="0" y="0" width="21000" height="29700"/></g></g><g visibility="visible" id="page1"><desc>Slide</desc><g><desc>Graphic</desc><g><g style="stroke:none;fill:rgb(153,153,153)"><path d="M 13357,11978 L 13357,11978 13929,11406 7058,11406 7058,18266 7630,17695 7630,11978 13357,11978 Z"/></g><g style="stroke:none;fill:rgb(102,102,102)"><path d="M 13929,11406 L 13929,11406 13357,11978 13357,17695 7630,17695 7058,18266 13929,18266 13929,11406 Z"/></g><g style="stroke:none;fill:rgb(119,119,119)"><path d="M 7630,11978 L 7630,11978 7630,17695 13357,17695 13357,11978 7630,11978 Z M 12212,13121 L 12212,13121 12212,13693 8776,13693 8776,13121 12212,13121 Z M 12212,15408 L 12212,15408 12784,15408 12784,15979 12212,15979 12212,15408 Z M 8776,14836 L 8776,14836 8776,14265 9921,14265 9921,14836 8776,14836 Z M 8776,15979 L 8776,15979 8776,15408 9349,15408 9349,15979 8776,15979 Z M 10493,14836 L 10493,14836 10493,14265 11066,14265 11066,14836 10493,14836 Z M 11066,15408 L 11066,15408 11638,15408 11638,15979 11066,15979 11066,15408 Z M 9921,15979 L 9921,15979 9921,15408 10493,15408 10493,15979 9921,15979 Z"/></g><g style="stroke:none;fill:rgb(153,153,153)"><path d="M 12212,13693 L 12212,13693 12212,13121 8776,13121 8776,13693 12212,13693 Z"/><path d="M 12784,15408 L 12784,15408 12212,15408 12212,15979 12784,15979 12784,15408 Z"/><path d="M 8776,14265 L 8776,14265 8776,14836 9921,14836 9921,14265 8776,14265 Z"/><path d="M 8776,15408 L 8776,15408 8776,15979 9349,15979 9349,15408 8776,15408 Z"/><path d="M 10493,14265 L 10493,14265 10493,14836 11066,14836 11066,14265 10493,14265 Z"/><path d="M 11638,15408 L 11638,15408 11066,15408 11066,15979 11638,15979 11638,15408 Z"/><path d="M 9921,15408 L 9921,15408 9921,15979 10493,15979 10493,15408 9921,15408 Z"/></g><g style="stroke:none;fill:rgb(255,255,0)"><path d="M 7630,11121 L 7630,11121 7630,11406 8204,11406 8204,10656 7630,11121 Z"/></g><g style="stroke:none;fill:rgb(255,255,255)"><path d="M 7630,10263 L 7630,10263 7630,11121 8204,10656 8204,10263 7630,10263 Z"/></g><g style="stroke:none;fill:rgb(255,255,0)"><path d="M 8776,11121 L 8776,11121 8776,11406 9349,11406 9349,10656 8776,11121 Z"/></g><g style="stroke:none;fill:rgb(255,255,255)"><path d="M 8776,10263 L 8776,10263 8776,11121 9349,10656 9349,10263 8776,10263 Z"/></g><g style="stroke:none;fill:rgb(255,255,0)"><path d="M 9921,11121 L 9921,11121 9921,11406 10494,11406 10494,10656 9921,11121 Z"/></g><g style="stroke:none;fill:rgb(255,255,255)"><path d="M 9921,10263 L 9921,10263 9921,11121 10494,10656 10494,10263 9921,10263 Z"/></g><g style="stroke:none;fill:rgb(255,255,0)"><path d="M 11065,11121 L 11065,11121 11065,11406 11638,11406 11638,10656 11065,11121 Z"/></g><g style="stroke:none;fill:rgb(255,255,255)"><path d="M 11065,10263 L 11065,10263 11065,11121 11638,10656 11638,10263 11065,10263 Z"/></g><g style="stroke:none;fill:rgb(255,255,0)"><path d="M 12211,11121 L 12211,11121 12211,11406 12784,11406 12784,10656 12211,11121 Z"/></g><g style="stroke:none;fill:rgb(255,255,255)"><path d="M 12211,10263 L 12211,10263 12211,11121 12784,10656 12784,10263 12211,10263 Z"/></g><g style="stroke:none;fill:rgb(255,255,0)"><path d="M 13356,11121 L 13356,11121 13356,11406 13929,11406 13929,10656 13356,11121 Z"/></g><g style="stroke:none;fill:rgb(255,255,255)"><path d="M 13356,10263 L 13356,10263 13356,11121 13929,10656 13929,10263 13356,10263 Z"/></g><g style="stroke:none;fill:rgb(255,255,0)"><path d="M 6772,17695 L 6772,17695 7058,17695 7058,17123 6307,17123 6772,17695 Z"/></g><g style="stroke:none;fill:rgb(255,255,255)"><path d="M 5913,17695 L 5913,17695 6772,17695 6307,17123 5913,17123 5913,17695 Z"/></g><g style="stroke:none;fill:rgb(255,255,0)"><path d="M 6772,16552 L 6772,16552 7058,16552 7058,15979 6307,15979 6772,16552 Z"/></g><g style="stroke:none;fill:rgb(255,255,255)"><path d="M 5913,16552 L 5913,16552 6772,16552 6307,15979 5913,15979 5913,16552 Z"/></g><g style="stroke:none;fill:rgb(255,255,0)"><path d="M 6772,15408 L 6772,15408 7058,15408 7058,14836 6307,14836 6772,15408 Z"/></g><g style="stroke:none;fill:rgb(255,255,255)"><path d="M 5913,15408 L 5913,15408 6772,15408 6307,14836 5913,14836 5913,15408 Z"/></g><g style="stroke:none;fill:rgb(255,255,0)"><path d="M 6772,14266 L 6772,14266 7058,14266 7058,13693 6307,13693 6772,14266 Z"/></g><g style="stroke:none;fill:rgb(255,255,255)"><path d="M 5913,14266 L 5913,14266 6772,14266 6307,13693 5913,13693 5913,14266 Z"/></g><g style="stroke:none;fill:rgb(255,255,0)"><path d="M 6772,13122 L 6772,13122 7058,13122 7058,12550 6307,12550 6772,13122 Z"/></g><g style="stroke:none;fill:rgb(255,255,255)"><path d="M 5913,13122 L 5913,13122 6772,13122 6307,12550 5913,12550 5913,13122 Z"/></g><g style="stroke:none;fill:rgb(255,255,0)"><path d="M 6772,11979 L 6772,11979 7058,11979 7058,11406 6307,11406 6772,11979 Z"/></g><g style="stroke:none;fill:rgb(255,255,255)"><path d="M 5913,11979 L 5913,11979 6772,11979 6307,11406 5913,11406 5913,11979 Z"/></g><g style="stroke:none;fill:rgb(255,255,0)"><path d="M 14215,17695 L 14215,17695 13929,17695 13929,18266 14680,18266 14215,17695 Z"/></g><g style="stroke:none;fill:rgb(255,153,0)"><path d="M 14680,18266 L 14680,18266 15073,18266 15073,17695 14215,17695 14680,18266 Z"/></g><g style="stroke:none;fill:rgb(255,255,0)"><path d="M 14215,16552 L 14215,16552 13929,16552 13929,17123 14680,17123 14215,16552 Z"/></g><g style="stroke:none;fill:rgb(255,153,0)"><path d="M 14680,17123 L 14680,17123 15073,17123 15073,16552 14215,16552 14680,17123 Z"/></g><g style="stroke:none;fill:rgb(255,255,0)"><path d="M 14215,15408 L 14215,15408 13929,15408 13929,15979 14680,15979 14215,15408 Z"/></g><g style="stroke:none;fill:rgb(255,153,0)"><path d="M 14680,15979 L 14680,15979 15073,15979 15073,15408 14215,15408 14680,15979 Z"/></g><g style="stroke:none;fill:rgb(255,255,0)"><path d="M 14215,14265 L 14215,14265 13929,14265 13929,14836 14680,14836 14215,14265 Z"/></g><g style="stroke:none;fill:rgb(255,153,0)"><path d="M 14680,14836 L 14680,14836 15073,14836 15073,14265 14215,14265 14680,14836 Z"/></g><g style="stroke:none;fill:rgb(255,255,0)"><path d="M 14215,13121 L 14215,13121 13929,13121 13929,13692 14680,13692 14215,13121 Z"/></g><g style="stroke:none;fill:rgb(255,153,0)"><path d="M 14680,13692 L 14680,13692 15073,13692 15073,13121 14215,13121 14680,13692 Z"/></g><g style="stroke:none;fill:rgb(255,255,0)"><path d="M 14215,11979 L 14215,11979 13929,11979 13929,12550 14680,12550 14215,11979 Z"/></g><g style="stroke:none;fill:rgb(255,153,0)"><path d="M 14680,12550 L 14680,12550 15073,12550 15073,11979 14215,11979 14680,12550 Z"/></g><g style="stroke:none;fill:rgb(255,255,0)"><path d="M 7630,18552 L 7630,18552 7630,18266 7058,18266 7058,19016 7630,18552 Z"/></g><g style="stroke:none;fill:rgb(255,153,0)"><path d="M 7058,19016 L 7058,19016 7058,19409 7630,19409 7630,18552 7058,19016 Z"/></g><g style="stroke:none;fill:rgb(255,255,0)"><path d="M 8776,18552 L 8776,18552 8776,18266 8204,18266 8204,19016 8776,18552 Z"/></g><g style="stroke:none;fill:rgb(255,153,0)"><path d="M 8204,19016 L 8204,19016 8204,19409 8776,19409 8776,18552 8204,19016 Z"/></g><g style="stroke:none;fill:rgb(255,255,0)"><path d="M 9921,18552 L 9921,18552 9921,18266 9349,18266 9349,19016 9921,18552 Z"/></g><g style="stroke:none;fill:rgb(255,153,0)"><path d="M 9349,19016 L 9349,19016 9349,19409 9921,19409 9921,18552 9349,19016 Z"/></g><g style="stroke:none;fill:rgb(255,255,0)"><path d="M 11066,18552 L 11066,18552 11066,18266 10494,18266 10494,19016 11066,18552 Z"/></g><g style="stroke:none;fill:rgb(255,153,0)"><path d="M 10494,19016 L 10494,19016 10494,19409 11066,19409 11066,18552 10494,19016 Z"/></g><g style="stroke:none;fill:rgb(255,255,0)"><path d="M 12212,18552 L 12212,18552 12212,18266 11639,18266 11639,19016 12212,18552 Z"/></g><g style="stroke:none;fill:rgb(255,153,0)"><path d="M 11639,19016 L 11639,19016 11639,19409 12212,19409 12212,18552 11639,19016 Z"/></g><g style="stroke:none;fill:rgb(255,255,0)"><path d="M 13356,18552 L 13356,18552 13356,18266 12784,18266 12784,19016 13356,18552 Z"/></g><g style="stroke:none;fill:rgb(255,153,0)"><path d="M 12784,19016 L 12784,19016 12784,19409 13356,19409 13356,18552 12784,19016 Z"/></g></g></g></g></svg>