<?xml version="1.0" encoding="UTF-8"?>
<!DOCTYPE svg PUBLIC "-//W3C//DTD SVG 1.1//EN" "http://www.w3.org/Graphics/SVG/1.1/DTD/svg11.dtd"><svg version="1.1" viewBox="0 0 21000 29700" preserveAspectRatio="xMidYMid" fill-rule="evenodd" xmlns="http://www.w3.org/2000/svg" xmlns:xlink="http://www.w3.org/1999/xlink"><g visibility="visible" id="Default"><desc>Master slide</desc><g style="stroke:none;fill:none"><rect x="0" y="0" width="21000" height="29700"/></g></g><g visibility="visible" id="page1"><desc>Slide</desc><g><desc>Graphic</desc><g><g style="stroke:none;fill:rgb(153,153,153)"><path d="M 14501,11978 L 14501,11978 15074,11406 5913,11406 5913,11978 14501,11978 Z"/></g><g style="stroke:none;fill:rgb(102,102,102)"><path d="M 15074,11406 L 15074,11406 14501,11978 14501,17695 5913,17695 5913,18266 15074,18266 15074,11406 Z"/></g><g style="stroke:none;fill:rgb(119,119,119)"><path d="M 6485,13693 L 6485,13693 7058,13693 7058,14265 6485,14265 6485,14836 5913,14836 5913,17695 14501,17695 14501,11978 5913,11978 5913,14265 6485,14265 6485,13693 Z M 6485,15408 L 6485,15408 7058,15408 7058,15979 6485,15979 6485,15408 Z"/></g><g style="stroke:none;fill:rgb(153,153,153)"><path d="M 7058,15408 L 7058,15408 6485,15408 6485,15979 7058,15979 7058,15408 Z"/><path d="M 7058,13693 L 7058,13693 6485,13693 6485,14265 7058,14265 7058,13693 Z"/><path d="M 5913,14836 L 5913,14836 6485,14836 6485,14265 5913,14265 5913,14836 Z"/></g><g style="stroke:none;fill:rgb(102,102,102)"><path d="M 11013,14730 L 11013,14730 C 11013,15007 11111,15243 11306,15438 11501,15632 11737,15730 12015,15730 12292,15730 12528,15632 12723,15438 12918,15243 13017,15007 13017,14730 13017,14453 12918,14217 12723,14023 12528,13828 12292,13730 12015,13730 11737,13730 11501,13828 11306,14023 11111,14217 11013,14453 11013,14730 Z"/></g><g style="stroke:none;fill:rgb(153,153,153)"><path d="M 11979,14158 L 11979,14158 C 11820,14158 11685,14213 11572,14324 11462,14437 11406,14571 11406,14730 11406,14889 11462,15022 11572,15134 11685,15246 11820,15301 11979,15301 12139,15301 12272,15246 12383,15134 12496,15022 12551,14889 12551,14730 12551,14571 12496,14437 12383,14324 12272,14213 12139,14158 11979,14158 Z"/></g><g style="stroke:none;fill:rgb(255,255,0)"><path d="M 6485,11121 L 6485,11121 6485,11406 7058,11406 7058,10656 6485,11121 Z"/></g><g style="stroke:none;fill:rgb(255,255,255)"><path d="M 6485,10263 L 6485,10263 6485,11121 7058,10656 7058,10263 6485,10263 Z"/></g><g style="stroke:none;fill:rgb(255,255,0)"><path d="M 7630,11121 L 7630,11121 7630,11406 8204,11406 8204,10656 7630,11121 Z"/></g><g style="stroke:none;fill:rgb(255,255,255)"><path d="M 7630,10263 L 7630,10263 7630,11121 8204,10656 8204,10263 7630,10263 Z"/></g><g style="stroke:none;fill:rgb(255,255,0)"><path d="M 8776,11121 L 8776,11121 8776,11406 9349,11406 9349,10656 8776,11121 Z"/></g><g style="stroke:none;fill:rgb(255,255,255)"><path d="M 8776,10263 L 8776,10263 8776,11121 9349,10656 9349,10263 8776,10263 Z"/></g><g style="stroke:none;fill:rgb(255,255,0)"><path d="M 9921,11121 L 9921,11121 9921,11406 10494,11406 10494,10656 9921,11121 Z"/></g><g style="stroke:none;fill:rgb(255,255,255)"><path d="M 9921,10263 L 9921,10263 9921,11121 10494,10656 10494,10263 9921,10263 Z"/></g><g style="stroke:none;fill:rgb(255,255,0)"><path d="M 11065,11121 L 11065,11121 11065,11406 11638,11406 11638,10656 11065,11121 Z"/></g><g style="stroke:none;fill:rgb(255,255,255)"><path d="M 11065,10263 L 11065,10263 11065,11121 11638,10656 11638,10263 11065,10263 Z"/></g><g style="stroke:none;fill:rgb(255,255,0)"><path d="M 12211,11121 L 12211,11121 12211,11406 12784,11406 12784,10656 12211,11121 Z"/></g><g style="stroke:none;fill:rgb(255,255,255)"><path d="M 12211,10263 L 12211,10263 12211,11121 12784,10656 12784,10263 12211,10263 Z"/></g><g style="stroke:none;fill:rgb(255,255,0)"><path d="M 13356,11121 L 13356,11121 13356,11406 13929,11406 13929,10656 13356,11121 Z"/></g><g style="stroke:none;fill:rgb(255,255,255)"><path d="M 13356,10263 L 13356,10263 13356,11121 13929,10656 13929,10263 13356,10263 Z"/></g><g style="stroke:none;fill:rgb(255,255,0)"><path d="M 7058,18552 L 7058,18552 7058,18266 6486,18266 6486,19016 7058,18552 Z"/></g><g style="stroke:none;fill:rgb(255,153,0)"><path d="M 6486,19016 L 6486,19016 6486,19409 7058,19409 7058,18552 6486,19016 Z"/></g><g style="stroke:none;fill:rgb(255,255,0)"><path d="M 8204,18552 L 8204,18552 8204,18266 7631,18266 7631,19016 8204,18552 Z"/></g><g style="stroke:none;fill:rgb(255,153,0)"><path d="M 7631,19016 L 7631,19016 7631,19409 8204,19409 8204,18552 7631,19016 Z"/></g><g style="stroke:none;fill:rgb(255,255,0)"><path d="M 9348,18552 L 9348,18552 9348,18266 8776,18266 8776,19016 9348,18552 Z"/></g><g style="stroke:none;fill:rgb(255,153,0)"><path d="M 8776,19016 L 8776,19016 8776,19409 9348,19409 9348,18552 8776,19016 Z"/></g><g style="stroke:none;fill:rgb(255,255,0)"><path d="M 10493,18552 L 10493,18552 10493,18266 9921,18266 9921,19016 10493,18552 Z"/></g><g style="stroke:none;fill:rgb(255,153,0)"><path d="M 9921,19016 L 9921,19016 9921,19409 10493,19409 10493,18552 9921,19016 Z"/></g><g style="stroke:none;fill:rgb(255,255,0)"><path d="M 11638,18552 L 11638,18552 11638,18266 11066,18266 11066,19016 11638,18552 Z"/></g><g style="stroke:none;fill:rgb(255,153,0)"><path d="M 11066,19016 L 11066,19016 11066,19409 11638,19409 11638,18552 11066,19016 Z"/></g><g style="stroke:none;fill:rgb(255,255,0)"><path d="M 12784,18552 L 12784,18552 12784,18266 12212,18266 12212,19016 12784,18552 Z"/></g><g style="stroke:none;fill:rgb(255,153,0)"><path d="M 12212,19016 L 12212,19016 12212,19409 12784,19409 12784,18552 12212,19016 Z"/></g><g style="stroke:none;fill:rgb(255,255,0)"><path d="M 13929,18552 L 13929,18552 13929,18266 13357,18266 13357,19016 13929,18552 Z"/></g><g style="stroke:none;fill:rgb(255,153,0)"><path d="M 13357,19016 L 13357,19016 13357,19409 13929,19409 13929,18552 13357,19016 Z"/></g></g></g></g></svg>