<?xml version="1.0" encoding="UTF-8"?>
<!DOCTYPE svg PUBLIC "-//W3C//DTD SVG 1.1//EN" "http://www.w3.org/Graphics/SVG/1.1/DTD/svg11.dtd"><svg version="1.1" viewBox="0 0 21000 29700" preserveAspectRatio="xMidYMid" fill-rule="evenodd" xmlns="http://www.w3.org/2000/svg" xmlns:xlink="http://www.w3.org/1999/xlink"><g visibility="visible" id="Default"><desc>Master slide</desc><g style="stroke:none;fill:none"><rect x="0" y="0" width="21000" height="29700"/></g></g><g visibility="visible" id="page1"><desc>Slide</desc><g><desc>Graphic</desc><g><g style="stroke:none;fill:rgb(108,3,0)"><path d="M 7879,18662 L 7879,18662 C 7834,18683 7788,18695 7738,18702 7607,18727 7475,18706 7340,18636 7296,18613 7249,18584 7204,18548 7153,18421 7103,18266 7058,18085 L 7058,17666 7058,17666 C 7202,18304 7373,18623 7567,18622 7804,18623 8006,18143 8172,17183 L 8172,17183 8221,16883 8221,18421 8221,18421 C 8108,18536 7994,18616 7879,18662 Z"/></g><g style="stroke:none;fill:rgb(135,2,0)"><path d="M 8221,16883 L 8172,17183 8172,17183 C 8006,18143 7804,18623 7567,18622 7373,18623 7202,18304 7058,17666 L 7058,17013 7058,17013 C 7201,17748 7371,18114 7567,18112 7779,18114 7960,17685 8110,16826 8151,16584 8188,16324 8221,16039 L 8221,16883 Z"/></g><g style="stroke:none;fill:rgb(152,1,0)"><path d="M 8221,16039 L 8221,16039 C 8188,16324 8151,16584 8110,16826 7960,17685 7779,18114 7567,18112 7371,18114 7201,17748 7058,17013 L 7058,17013 7058,16291 7087,16469 7087,16469 C 7221,17226 7380,17605 7567,17605 7754,17605 7913,17226 8045,16469 8132,15980 8190,15426 8221,14804 L 8221,16039 Z"/></g><g style="stroke:none;fill:rgb(146,2,0)"><path d="M 8221,11470 L 8221,12625 8221,12625 C 8197,12176 8162,11758 8110,11370 L 8221,11470 Z"/></g><g style="stroke:none;fill:rgb(205,4,0)"><path d="M 7921,11683 L 7921,11683 C 8019,12242 8069,12920 8069,13717 8069,14515 8019,15192 7921,15748 7822,16312 7703,16591 7567,16591 7429,16591 7310,16312 7211,15748 7113,15190 7065,14514 7065,13717 7065,12922 7113,12242 7211,11683 7239,11526 7267,11391 7298,11281 L 7371,11241 7371,11241 C 7421,11218 7469,11204 7514,11195 7548,11188 7577,11185 7598,11183 7647,11180 7693,11181 7741,11190 7761,11192 7786,11197 7813,11206 7816,11220 7820,11234 7823,11247 7856,11361 7888,11506 7921,11683 Z M 7981,13717 L 7981,13717 C 7981,13057 7940,12499 7860,12041 7778,11578 7679,11347 7567,11347 7453,11347 7354,11578 7272,12041 7192,12505 7153,13064 7153,13717 7153,14369 7192,14926 7272,15391 7354,15854 7453,16084 7567,16084 7679,16084 7778,15854 7860,15391 7940,14933 7981,14376 7981,13717 Z"/></g><g style="stroke:none;fill:rgb(214,50,0)"><path d="M 7860,12041 L 7860,12041 C 7940,12499 7981,13057 7981,13717 7981,14376 7940,14933 7860,15391 7778,15854 7679,16084 7567,16084 7453,16084 7354,15854 7272,15391 7192,14926 7153,14369 7153,13717 7153,13064 7192,12505 7272,12041 7354,11578 7453,11347 7567,11347 7679,11347 7778,11578 7860,12041 Z M 7921,13717 L 7921,13717 C 7921,13154 7886,12675 7818,12280 7748,11884 7665,11685 7567,11685 7467,11685 7385,11884 7316,12280 7246,12679 7211,13158 7211,13717 7211,14276 7246,14753 7316,15151 7384,15546 7467,15744 7567,15744 7665,15744 7748,15546 7818,15151 7886,14757 7921,14280 7921,13717 Z"/></g><g style="stroke:none;fill:rgb(215,55,0)"><path d="M 7818,12280 L 7818,12280 C 7886,12675 7921,13154 7921,13717 7921,14280 7886,14757 7818,15151 7748,15546 7665,15744 7567,15744 7467,15744 7384,15546 7316,15151 7246,14753 7211,14276 7211,13717 7211,13158 7246,12679 7316,12280 7385,11884 7467,11685 7567,11685 7665,11685 7748,11884 7818,12280 Z M 7892,13717 L 7892,13717 C 7892,13209 7860,12770 7797,12398 7733,12035 7656,11854 7567,11854 7476,11854 7399,12035 7337,12398 7272,12764 7240,13203 7240,13717 7240,14229 7272,14667 7337,15031 7399,15394 7476,15576 7567,15576 7656,15576 7733,15394 7797,15031 7860,14662 7892,14224 7892,13717 Z"/></g><g style="stroke:none;fill:rgb(226,106,0)"><path d="M 7797,12398 L 7797,12398 C 7860,12770 7892,13209 7892,13717 7892,14224 7860,14662 7797,15031 7733,15394 7656,15576 7567,15576 7476,15576 7399,15394 7337,15031 7272,14667 7240,14229 7240,13717 7240,13203 7272,12764 7337,12398 7399,12035 7476,11854 7567,11854 7656,11854 7733,12035 7797,12398 Z M 7734,14674 L 7734,14674 C 7781,14404 7804,14086 7804,13717 7804,13347 7781,13027 7734,12757 7689,12492 7632,12361 7567,12361 7500,12361 7445,12492 7399,12757 7353,13027 7330,13347 7330,13717 7330,14086 7353,14404 7399,14674 7445,14937 7500,15068 7567,15068 7632,15068 7689,14937 7734,14674 Z"/></g><g style="stroke:none;fill:rgb(236,157,0)"><path d="M 7804,13717 L 7804,13717 C 7804,14086 7781,14404 7734,14674 7689,14937 7632,15068 7567,15068 7500,15068 7445,14937 7399,14674 7353,14404 7330,14086 7330,13717 7330,13347 7353,13027 7399,12757 7445,12492 7500,12361 7567,12361 7632,12361 7689,12492 7734,12757 7781,13027 7804,13347 7804,13717 Z M 7672,14313 L 7672,14313 C 7700,14147 7715,13949 7715,13717 7715,13483 7700,13284 7672,13118 7645,12953 7609,12871 7567,12870 7523,12871 7489,12953 7464,13118 7434,13284 7419,13483 7421,13717 7419,13949 7434,14147 7464,14313 7489,14479 7523,14561 7567,14561 7609,14561 7645,14479 7672,14313 Z"/></g><g style="stroke:none;fill:rgb(246,208,0)"><path d="M 7715,13717 L 7715,13717 C 7715,13949 7700,14147 7672,14313 7645,14479 7609,14561 7567,14561 7523,14561 7489,14479 7464,14313 7434,14147 7419,13949 7421,13717 7419,13483 7434,13284 7464,13118 7489,12953 7523,12871 7567,12870 7609,12871 7645,12953 7672,13118 7700,13284 7715,13483 7715,13717 Z M 7626,13717 L 7626,13717 C 7626,13624 7621,13544 7609,13477 7596,13411 7582,13378 7567,13378 7551,13378 7537,13411 7525,13477 7513,13544 7507,13622 7509,13717 7507,13811 7513,13890 7525,13954 7537,14021 7551,14054 7567,14054 7582,14054 7596,14021 7609,13954 7621,13888 7626,13808 7626,13717 Z"/></g><g style="stroke:none;fill:rgb(255,255,0)"><path d="M 7609,13477 L 7609,13477 C 7621,13544 7626,13624 7626,13717 7626,13808 7621,13888 7609,13954 7596,14021 7582,14054 7567,14054 7551,14054 7537,14021 7525,13954 7513,13890 7507,13811 7509,13717 7507,13622 7513,13544 7525,13477 7537,13411 7551,13378 7567,13378 7582,13378 7596,13411 7609,13477 Z"/></g><g style="stroke:none;fill:rgb(188,0,0)"><path d="M 8069,13717 L 8069,13717 C 8069,12920 8019,12242 7921,11683 7888,11506 7856,11361 7823,11247 7820,11234 7816,11220 7813,11206 L 7813,11206 7876,11227 7977,11278 7984,11323 7984,11323 C 8101,11992 8158,12789 8158,13717 8158,14643 8101,15441 7984,16107 7870,16768 7731,17100 7567,17100 7403,17100 7263,16768 7150,16107 7110,15893 7080,15673 7058,15450 L 7058,12817 7058,12817 C 7078,12387 7120,11980 7185,11597 7187,11587 7188,11576 7190,11563 L 7190,11563 7237,11318 7298,11281 7298,11281 C 7267,11391 7239,11526 7211,11683 7113,12242 7065,12922 7065,13717 7065,14514 7113,15190 7211,15748 7310,16312 7429,16591 7567,16591 7703,16591 7822,16312 7921,15748 8019,15192 8069,14515 8069,13717 Z"/></g><g style="stroke:none;fill:rgb(170,1,0)"><path d="M 8221,12625 L 8221,14804 8221,14804 C 8190,15426 8132,15980 8045,16469 7913,17226 7754,17605 7567,17605 7380,17605 7221,17226 7087,16469 L 7087,16469 7058,16291 7058,15450 7058,15450 C 7080,15673 7110,15893 7150,16107 7263,16768 7403,17100 7567,17100 7731,17100 7870,16768 7984,16107 8101,15441 8158,14643 8158,13717 8158,12789 8101,11992 7984,11323 L 7984,11323 7977,11278 8110,11370 8110,11370 C 8162,11758 8197,12176 8221,12625 Z"/></g><g style="stroke:none;fill:rgb(100,4,0)"><path d="M 7058,18421 L 7058,18085 7058,18085 C 7103,18266 7153,18421 7204,18548 7153,18510 7104,18470 7058,18421 Z"/></g><g style="stroke:none;fill:rgb(182,0,0)"><path d="M 7185,11597 L 7185,11597 C 7120,11980 7078,12387 7058,12817 L 7058,12817 7058,11470 7237,11318 7190,11563 7190,11563 C 7188,11576 7187,11587 7185,11597 Z"/></g><g style="stroke:none;fill:rgb(108,3,0)"><path d="M 9024,18662 L 9024,18662 C 8980,18683 8933,18695 8883,18702 8752,18727 8620,18706 8486,18636 8441,18613 8394,18584 8350,18548 8298,18421 8248,18266 8204,18085 L 8204,17666 8204,17666 C 8348,18304 8518,18623 8712,18622 8949,18623 9151,18143 9317,17183 L 9317,17183 9366,16883 9366,18421 9366,18421 C 9253,18536 9139,18616 9024,18662 Z"/></g><g style="stroke:none;fill:rgb(135,2,0)"><path d="M 9366,16883 L 9317,17183 9317,17183 C 9151,18143 8949,18623 8712,18622 8518,18623 8348,18304 8204,17666 L 8204,17013 8204,17013 C 8347,17748 8516,18114 8712,18112 8924,18114 9105,17685 9256,16826 9296,16584 9334,16324 9366,16039 L 9366,16883 Z"/></g><g style="stroke:none;fill:rgb(152,1,0)"><path d="M 9366,16039 L 9366,16039 C 9334,16324 9296,16584 9256,16826 9105,17685 8924,18114 8712,18112 8516,18114 8347,17748 8204,17013 L 8204,17013 8204,16291 8232,16469 8232,16469 C 8366,17226 8525,17605 8712,17605 8899,17605 9059,17226 9191,16469 9277,15980 9336,15426 9366,14804 L 9366,16039 Z"/></g><g style="stroke:none;fill:rgb(146,2,0)"><path d="M 9366,11470 L 9366,12625 9366,12625 C 9343,12176 9307,11758 9256,11370 L 9366,11470 Z"/></g><g style="stroke:none;fill:rgb(205,4,0)"><path d="M 9066,11683 L 9066,11683 C 9164,12242 9214,12920 9214,13717 9214,14515 9164,15192 9066,15748 8967,16312 8849,16591 8712,16591 8574,16591 8455,16312 8357,15748 8258,15190 8211,14514 8211,13717 8211,12922 8258,12242 8357,11683 8384,11526 8413,11391 8443,11281 L 8516,11241 8516,11241 C 8567,11218 8614,11204 8659,11195 8694,11188 8722,11185 8743,11183 8792,11180 8839,11181 8886,11190 8907,11192 8931,11197 8958,11206 8961,11220 8965,11234 8968,11247 9001,11361 9033,11506 9066,11683 Z M 9127,13717 L 9127,13717 C 9127,13057 9085,12499 9005,12041 8923,11578 8824,11347 8712,11347 8598,11347 8500,11578 8418,12041 8337,12505 8298,13064 8298,13717 8298,14369 8337,14926 8418,15391 8500,15854 8598,16084 8712,16084 8824,16084 8923,15854 9005,15391 9085,14933 9127,14376 9127,13717 Z"/></g><g style="stroke:none;fill:rgb(214,50,0)"><path d="M 9005,12041 L 9005,12041 C 9085,12499 9127,13057 9127,13717 9127,14376 9085,14933 9005,15391 8923,15854 8824,16084 8712,16084 8598,16084 8500,15854 8418,15391 8337,14926 8298,14369 8298,13717 8298,13064 8337,12505 8418,12041 8500,11578 8598,11347 8712,11347 8824,11347 8923,11578 9005,12041 Z M 9066,13717 L 9066,13717 C 9066,13154 9031,12675 8963,12280 8893,11884 8810,11685 8712,11685 8612,11685 8530,11884 8461,12280 8391,12679 8357,13158 8357,13717 8357,14276 8391,14753 8461,15151 8529,15546 8612,15744 8712,15744 8810,15744 8893,15546 8963,15151 9031,14757 9066,14280 9066,13717 Z"/></g><g style="stroke:none;fill:rgb(215,55,0)"><path d="M 8963,12280 L 8963,12280 C 9031,12675 9066,13154 9066,13717 9066,14280 9031,14757 8963,15151 8893,15546 8810,15744 8712,15744 8612,15744 8529,15546 8461,15151 8391,14753 8357,14276 8357,13717 8357,13158 8391,12679 8461,12280 8530,11884 8612,11685 8712,11685 8810,11685 8893,11884 8963,12280 Z M 9037,13717 L 9037,13717 C 9037,13209 9005,12770 8942,12398 8878,12035 8801,11854 8712,11854 8622,11854 8544,12035 8483,12398 8418,12764 8385,13203 8385,13717 8385,14229 8418,14667 8483,15031 8544,15394 8622,15576 8712,15576 8801,15576 8878,15394 8942,15031 9005,14662 9037,14224 9037,13717 Z"/></g><g style="stroke:none;fill:rgb(226,106,0)"><path d="M 8942,12398 L 8942,12398 C 9005,12770 9037,13209 9037,13717 9037,14224 9005,14662 8942,15031 8878,15394 8801,15576 8712,15576 8622,15576 8544,15394 8483,15031 8418,14667 8385,14229 8385,13717 8385,13203 8418,12764 8483,12398 8544,12035 8622,11854 8712,11854 8801,11854 8878,12035 8942,12398 Z M 8879,14674 L 8879,14674 C 8926,14404 8949,14086 8949,13717 8949,13347 8926,13027 8879,12757 8835,12492 8778,12361 8712,12361 8645,12361 8590,12492 8544,12757 8499,13027 8475,13347 8475,13717 8475,14086 8499,14404 8544,14674 8590,14937 8645,15068 8712,15068 8778,15068 8835,14937 8879,14674 Z"/></g><g style="stroke:none;fill:rgb(236,157,0)"><path d="M 8949,13717 L 8949,13717 C 8949,14086 8926,14404 8879,14674 8835,14937 8778,15068 8712,15068 8645,15068 8590,14937 8544,14674 8499,14404 8475,14086 8475,13717 8475,13347 8499,13027 8544,12757 8590,12492 8645,12361 8712,12361 8778,12361 8835,12492 8879,12757 8926,13027 8949,13347 8949,13717 Z M 8817,14313 L 8817,14313 C 8846,14147 8860,13949 8860,13717 8860,13483 8846,13284 8817,13118 8790,12953 8754,12871 8712,12870 8668,12871 8635,12953 8609,13118 8579,13284 8565,13483 8567,13717 8565,13949 8579,14147 8609,14313 8635,14479 8668,14561 8712,14561 8754,14561 8790,14479 8817,14313 Z"/></g><g style="stroke:none;fill:rgb(246,208,0)"><path d="M 8860,13717 L 8860,13717 C 8860,13949 8846,14147 8817,14313 8790,14479 8754,14561 8712,14561 8668,14561 8635,14479 8609,14313 8579,14147 8565,13949 8567,13717 8565,13483 8579,13284 8609,13118 8635,12953 8668,12871 8712,12870 8754,12871 8790,12953 8817,13118 8846,13284 8860,13483 8860,13717 Z M 8772,13717 L 8772,13717 C 8772,13624 8767,13544 8754,13477 8741,13411 8727,13378 8712,13378 8697,13378 8682,13411 8670,13477 8658,13544 8652,13622 8654,13717 8652,13811 8658,13890 8670,13954 8682,14021 8697,14054 8712,14054 8727,14054 8741,14021 8754,13954 8767,13888 8772,13808 8772,13717 Z"/></g><g style="stroke:none;fill:rgb(255,255,0)"><path d="M 8754,13477 L 8754,13477 C 8767,13544 8772,13624 8772,13717 8772,13808 8767,13888 8754,13954 8741,14021 8727,14054 8712,14054 8697,14054 8682,14021 8670,13954 8658,13890 8652,13811 8654,13717 8652,13622 8658,13544 8670,13477 8682,13411 8697,13378 8712,13378 8727,13378 8741,13411 8754,13477 Z"/></g><g style="stroke:none;fill:rgb(188,0,0)"><path d="M 9214,13717 L 9214,13717 C 9214,12920 9164,12242 9066,11683 9033,11506 9001,11361 8968,11247 8965,11234 8961,11220 8958,11206 L 8958,11206 9021,11227 9123,11278 9130,11323 9130,11323 C 9246,11992 9303,12789 9303,13717 9303,14643 9246,15441 9130,16107 9015,16768 8876,17100 8712,17100 8548,17100 8408,16768 8295,16107 8255,15893 8225,15673 8204,15450 L 8204,12817 8204,12817 C 8223,12387 8265,11980 8330,11597 8332,11587 8333,11576 8335,11563 L 8335,11563 8382,11318 8443,11281 8443,11281 C 8413,11391 8384,11526 8357,11683 8258,12242 8211,12922 8211,13717 8211,14514 8258,15190 8357,15748 8455,16312 8574,16591 8712,16591 8849,16591 8967,16312 9066,15748 9164,15192 9214,14515 9214,13717 Z"/></g><g style="stroke:none;fill:rgb(170,1,0)"><path d="M 9366,12625 L 9366,14804 9366,14804 C 9336,15426 9277,15980 9191,16469 9059,17226 8899,17605 8712,17605 8525,17605 8366,17226 8232,16469 L 8232,16469 8204,16291 8204,15450 8204,15450 C 8225,15673 8255,15893 8295,16107 8408,16768 8548,17100 8712,17100 8876,17100 9015,16768 9130,16107 9246,15441 9303,14643 9303,13717 9303,12789 9246,11992 9130,11323 L 9130,11323 9123,11278 9256,11370 9256,11370 C 9307,11758 9343,12176 9366,12625 Z"/></g><g style="stroke:none;fill:rgb(100,4,0)"><path d="M 8204,18421 L 8204,18085 8204,18085 C 8248,18266 8298,18421 8350,18548 8298,18510 8249,18470 8204,18421 Z"/></g><g style="stroke:none;fill:rgb(182,0,0)"><path d="M 8330,11597 L 8330,11597 C 8265,11980 8223,12387 8204,12817 L 8204,12817 8204,11470 8382,11318 8335,11563 8335,11563 C 8333,11576 8332,11587 8330,11597 Z"/></g><g style="stroke:none;fill:rgb(108,3,0)"><path d="M 10170,18662 L 10170,18662 C 10125,18683 10078,18695 10029,18702 9898,18727 9766,18706 9631,18636 9586,18613 9540,18584 9495,18548 9443,18421 9393,18266 9349,18085 L 9349,17666 9349,17666 C 9493,18304 9663,18623 9857,18622 10094,18623 10296,18143 10463,17183 L 10463,17183 10511,16883 10511,18421 10511,18421 C 10399,18536 10284,18616 10170,18662 Z"/></g><g style="stroke:none;fill:rgb(135,2,0)"><path d="M 10511,16883 L 10463,17183 10463,17183 C 10296,18143 10094,18623 9857,18622 9663,18623 9493,18304 9349,17666 L 9349,17013 9349,17013 C 9492,17748 9661,18114 9857,18112 10069,18114 10251,17685 10401,16826 10441,16584 10479,16324 10511,16039 L 10511,16883 Z"/></g><g style="stroke:none;fill:rgb(152,1,0)"><path d="M 10511,16039 L 10511,16039 C 10479,16324 10441,16584 10401,16826 10251,17685 10069,18114 9857,18112 9661,18114 9492,17748 9349,17013 L 9349,17013 9349,16291 9377,16469 9377,16469 C 9511,17226 9670,17605 9857,17605 10045,17605 10204,17226 10336,16469 10422,15980 10481,15426 10511,14804 L 10511,16039 Z"/></g><g style="stroke:none;fill:rgb(146,2,0)"><path d="M 10511,11470 L 10511,12625 10511,12625 C 10488,12176 10453,11758 10401,11370 L 10511,11470 Z"/></g><g style="stroke:none;fill:rgb(205,4,0)"><path d="M 10211,11683 L 10211,11683 C 10310,12242 10359,12920 10359,13717 10359,14515 10310,15192 10211,15748 10113,16312 9994,16591 9857,16591 9719,16591 9600,16312 9502,15748 9404,15190 9356,14514 9356,13717 9356,12922 9404,12242 9502,11683 9529,11526 9558,11391 9588,11281 L 9661,11241 9661,11241 C 9712,11218 9760,11204 9804,11195 9839,11188 9867,11185 9889,11183 9937,11180 9984,11181 10032,11190 10052,11192 10076,11197 10104,11206 10107,11220 10111,11234 10114,11247 10146,11361 10179,11506 10211,11683 Z M 10272,13717 L 10272,13717 C 10272,13057 10230,12499 10150,12041 10068,11578 9970,11347 9857,11347 9743,11347 9645,11578 9563,12041 9483,12505 9443,13064 9443,13717 9443,14369 9483,14926 9563,15391 9645,15854 9743,16084 9857,16084 9970,16084 10068,15854 10150,15391 10230,14933 10272,14376 10272,13717 Z"/></g><g style="stroke:none;fill:rgb(214,50,0)"><path d="M 10150,12041 L 10150,12041 C 10230,12499 10272,13057 10272,13717 10272,14376 10230,14933 10150,15391 10068,15854 9970,16084 9857,16084 9743,16084 9645,15854 9563,15391 9483,14926 9443,14369 9443,13717 9443,13064 9483,12505 9563,12041 9645,11578 9743,11347 9857,11347 9970,11347 10068,11578 10150,12041 Z M 10211,13717 L 10211,13717 C 10211,13154 10177,12675 10109,12280 10039,11884 9955,11685 9857,11685 9758,11685 9675,11884 9607,12280 9537,12679 9502,13158 9502,13717 9502,14276 9537,14753 9607,15151 9674,15546 9758,15744 9857,15744 9955,15744 10039,15546 10109,15151 10177,14757 10211,14280 10211,13717 Z"/></g><g style="stroke:none;fill:rgb(215,55,0)"><path d="M 10109,12280 L 10109,12280 C 10177,12675 10211,13154 10211,13717 10211,14280 10177,14757 10109,15151 10039,15546 9955,15744 9857,15744 9758,15744 9674,15546 9607,15151 9537,14753 9502,14276 9502,13717 9502,13158 9537,12679 9607,12280 9675,11884 9758,11685 9857,11685 9955,11685 10039,11884 10109,12280 Z M 10183,13717 L 10183,13717 C 10183,13209 10150,12770 10087,12398 10023,12035 9946,11854 9857,11854 9767,11854 9690,12035 9628,12398 9563,12764 9530,13203 9530,13717 9530,14229 9563,14667 9628,15031 9690,15394 9767,15576 9857,15576 9946,15576 10023,15394 10087,15031 10150,14662 10183,14224 10183,13717 Z"/></g><g style="stroke:none;fill:rgb(226,106,0)"><path d="M 10087,12398 L 10087,12398 C 10150,12770 10183,13209 10183,13717 10183,14224 10150,14662 10087,15031 10023,15394 9946,15576 9857,15576 9767,15576 9690,15394 9628,15031 9563,14667 9530,14229 9530,13717 9530,13203 9563,12764 9628,12398 9690,12035 9767,11854 9857,11854 9946,11854 10023,12035 10087,12398 Z M 10024,14674 L 10024,14674 C 10071,14404 10094,14086 10094,13717 10094,13347 10071,13027 10024,12757 9980,12492 9923,12361 9857,12361 9790,12361 9735,12492 9690,12757 9644,13027 9621,13347 9621,13717 9621,14086 9644,14404 9690,14674 9735,14937 9790,15068 9857,15068 9923,15068 9980,14937 10024,14674 Z"/></g><g style="stroke:none;fill:rgb(236,157,0)"><path d="M 10094,13717 L 10094,13717 C 10094,14086 10071,14404 10024,14674 9980,14937 9923,15068 9857,15068 9790,15068 9735,14937 9690,14674 9644,14404 9621,14086 9621,13717 9621,13347 9644,13027 9690,12757 9735,12492 9790,12361 9857,12361 9923,12361 9980,12492 10024,12757 10071,13027 10094,13347 10094,13717 Z M 9963,14313 L 9963,14313 C 9991,14147 10005,13949 10005,13717 10005,13483 9991,13284 9963,13118 9935,12953 9900,12871 9857,12870 9813,12871 9780,12953 9755,13118 9724,13284 9710,13483 9712,13717 9710,13949 9724,14147 9755,14313 9780,14479 9813,14561 9857,14561 9900,14561 9935,14479 9963,14313 Z"/></g><g style="stroke:none;fill:rgb(246,208,0)"><path d="M 10005,13717 L 10005,13717 C 10005,13949 9991,14147 9963,14313 9935,14479 9900,14561 9857,14561 9813,14561 9780,14479 9755,14313 9724,14147 9710,13949 9712,13717 9710,13483 9724,13284 9755,13118 9780,12953 9813,12871 9857,12870 9900,12871 9935,12953 9963,13118 9991,13284 10005,13483 10005,13717 Z M 9917,13717 L 9917,13717 C 9917,13624 9912,13544 9900,13477 9886,13411 9872,13378 9857,13378 9842,13378 9828,13411 9815,13477 9803,13544 9797,13622 9799,13717 9797,13811 9803,13890 9815,13954 9828,14021 9842,14054 9857,14054 9872,14054 9886,14021 9900,13954 9912,13888 9917,13808 9917,13717 Z"/></g><g style="stroke:none;fill:rgb(255,255,0)"><path d="M 9900,13477 L 9900,13477 C 9912,13544 9917,13624 9917,13717 9917,13808 9912,13888 9900,13954 9886,14021 9872,14054 9857,14054 9842,14054 9828,14021 9815,13954 9803,13890 9797,13811 9799,13717 9797,13622 9803,13544 9815,13477 9828,13411 9842,13378 9857,13378 9872,13378 9886,13411 9900,13477 Z"/></g><g style="stroke:none;fill:rgb(188,0,0)"><path d="M 10359,13717 L 10359,13717 C 10359,12920 10310,12242 10211,11683 10179,11506 10146,11361 10114,11247 10111,11234 10107,11220 10104,11206 L 10104,11206 10166,11227 10268,11278 10275,11323 10275,11323 C 10392,11992 10448,12789 10448,13717 10448,14643 10392,15441 10275,16107 10160,16768 10021,17100 9857,17100 9694,17100 9554,16768 9440,16107 9401,15893 9370,15673 9349,15450 L 9349,12817 9349,12817 C 9368,12387 9411,11980 9476,11597 9478,11587 9479,11576 9481,11563 L 9481,11563 9527,11318 9588,11281 9588,11281 C 9558,11391 9529,11526 9502,11683 9404,12242 9356,12922 9356,13717 9356,14514 9404,15190 9502,15748 9600,16312 9719,16591 9857,16591 9994,16591 10113,16312 10211,15748 10310,15192 10359,14515 10359,13717 Z"/></g><g style="stroke:none;fill:rgb(170,1,0)"><path d="M 10511,12625 L 10511,14804 10511,14804 C 10481,15426 10422,15980 10336,16469 10204,17226 10045,17605 9857,17605 9670,17605 9511,17226 9377,16469 L 9377,16469 9349,16291 9349,15450 9349,15450 C 9370,15673 9401,15893 9440,16107 9554,16768 9694,17100 9857,17100 10021,17100 10160,16768 10275,16107 10392,15441 10448,14643 10448,13717 10448,12789 10392,11992 10275,11323 L 10275,11323 10268,11278 10401,11370 10401,11370 C 10453,11758 10488,12176 10511,12625 Z"/></g><g style="stroke:none;fill:rgb(100,4,0)"><path d="M 9349,18421 L 9349,18085 9349,18085 C 9393,18266 9443,18421 9495,18548 9443,18510 9395,18470 9349,18421 Z"/></g><g style="stroke:none;fill:rgb(182,0,0)"><path d="M 9476,11597 L 9476,11597 C 9411,11980 9368,12387 9349,12817 L 9349,12817 9349,11470 9527,11318 9481,11563 9481,11563 C 9479,11576 9478,11587 9476,11597 Z"/></g><g style="stroke:none;fill:rgb(108,3,0)"><path d="M 11315,18662 L 11315,18662 C 11270,18683 11224,18695 11174,18702 11043,18727 10911,18706 10776,18636 10732,18613 10685,18584 10640,18548 10588,18421 10539,18266 10494,18085 L 10494,17666 10494,17666 C 10638,18304 10809,18623 11002,18622 11240,18623 11442,18143 11608,17183 L 11608,17183 11657,16883 11657,18421 11657,18421 C 11544,18536 11429,18616 11315,18662 Z"/></g><g style="stroke:none;fill:rgb(135,2,0)"><path d="M 11657,16883 L 11608,17183 11608,17183 C 11442,18143 11240,18623 11002,18622 10809,18623 10638,18304 10494,17666 L 10494,17013 10494,17013 C 10637,17748 10807,18114 11002,18112 11214,18114 11396,17685 11546,16826 11587,16584 11624,16324 11657,16039 L 11657,16883 Z"/></g><g style="stroke:none;fill:rgb(152,1,0)"><path d="M 11657,16039 L 11657,16039 C 11624,16324 11587,16584 11546,16826 11396,17685 11214,18114 11002,18112 10807,18114 10637,17748 10494,17013 L 10494,17013 10494,16291 10523,16469 10523,16469 C 10656,17226 10816,17605 11002,17605 11190,17605 11349,17226 11481,16469 11567,15980 11626,15426 11657,14804 L 11657,16039 Z"/></g><g style="stroke:none;fill:rgb(146,2,0)"><path d="M 11657,11470 L 11657,12625 11657,12625 C 11633,12176 11598,11758 11546,11370 L 11657,11470 Z"/></g><g style="stroke:none;fill:rgb(205,4,0)"><path d="M 11356,11683 L 11356,11683 C 11455,12242 11505,12920 11505,13717 11505,14515 11455,15192 11356,15748 11258,16312 11139,16591 11002,16591 10864,16591 10746,16312 10647,15748 10549,15190 10501,14514 10501,13717 10501,12922 10549,12242 10647,11683 10675,11526 10703,11391 10734,11281 L 10807,11241 10807,11241 C 10857,11218 10905,11204 10950,11195 10984,11188 11013,11185 11034,11183 11083,11180 11129,11181 11177,11190 11197,11192 11221,11197 11249,11206 11252,11220 11256,11234 11259,11247 11291,11361 11324,11506 11356,11683 Z M 11417,13717 L 11417,13717 C 11417,13057 11376,12499 11296,12041 11213,11578 11115,11347 11002,11347 10889,11347 10790,11578 10708,12041 10628,12505 10588,13064 10588,13717 10588,14369 10628,14926 10708,15391 10790,15854 10889,16084 11002,16084 11115,16084 11213,15854 11296,15391 11376,14933 11417,14376 11417,13717 Z"/></g><g style="stroke:none;fill:rgb(214,50,0)"><path d="M 11296,12041 L 11296,12041 C 11376,12499 11417,13057 11417,13717 11417,14376 11376,14933 11296,15391 11213,15854 11115,16084 11002,16084 10889,16084 10790,15854 10708,15391 10628,14926 10588,14369 10588,13717 10588,13064 10628,12505 10708,12041 10790,11578 10889,11347 11002,11347 11115,11347 11213,11578 11296,12041 Z M 11356,13717 L 11356,13717 C 11356,13154 11322,12675 11254,12280 11184,11884 11101,11685 11002,11685 10903,11685 10821,11884 10752,12280 10682,12679 10647,13158 10647,13717 10647,14276 10682,14753 10752,15151 10820,15546 10903,15744 11002,15744 11101,15744 11184,15546 11254,15151 11322,14757 11356,14280 11356,13717 Z"/></g><g style="stroke:none;fill:rgb(215,55,0)"><path d="M 11254,12280 L 11254,12280 C 11322,12675 11356,13154 11356,13717 11356,14280 11322,14757 11254,15151 11184,15546 11101,15744 11002,15744 10903,15744 10820,15546 10752,15151 10682,14753 10647,14276 10647,13717 10647,13158 10682,12679 10752,12280 10821,11884 10903,11685 11002,11685 11101,11685 11184,11884 11254,12280 Z M 11328,13717 L 11328,13717 C 11328,13209 11296,12770 11233,12398 11169,12035 11092,11854 11002,11854 10912,11854 10835,12035 10773,12398 10708,12764 10676,13203 10676,13717 10676,14229 10708,14667 10773,15031 10835,15394 10912,15576 11002,15576 11092,15576 11169,15394 11233,15031 11296,14662 11328,14224 11328,13717 Z"/></g><g style="stroke:none;fill:rgb(226,106,0)"><path d="M 11233,12398 L 11233,12398 C 11296,12770 11328,13209 11328,13717 11328,14224 11296,14662 11233,15031 11169,15394 11092,15576 11002,15576 10912,15576 10835,15394 10773,15031 10708,14667 10676,14229 10676,13717 10676,13203 10708,12764 10773,12398 10835,12035 10912,11854 11002,11854 11092,11854 11169,12035 11233,12398 Z M 11170,14674 L 11170,14674 C 11216,14404 11240,14086 11240,13717 11240,13347 11216,13027 11170,12757 11125,12492 11068,12361 11002,12361 10935,12361 10881,12492 10835,12757 10789,13027 10766,13347 10766,13717 10766,14086 10789,14404 10835,14674 10881,14937 10935,15068 11002,15068 11068,15068 11125,14937 11170,14674 Z"/></g><g style="stroke:none;fill:rgb(236,157,0)"><path d="M 11240,13717 L 11240,13717 C 11240,14086 11216,14404 11170,14674 11125,14937 11068,15068 11002,15068 10935,15068 10881,14937 10835,14674 10789,14404 10766,14086 10766,13717 10766,13347 10789,13027 10835,12757 10881,12492 10935,12361 11002,12361 11068,12361 11125,12492 11170,12757 11216,13027 11240,13347 11240,13717 Z M 11108,14313 L 11108,14313 C 11136,14147 11150,13949 11150,13717 11150,13483 11136,13284 11108,13118 11080,12953 11045,12871 11002,12870 10959,12871 10925,12953 10900,13118 10869,13284 10855,13483 10857,13717 10855,13949 10869,14147 10900,14313 10925,14479 10959,14561 11002,14561 11045,14561 11080,14479 11108,14313 Z"/></g><g style="stroke:none;fill:rgb(246,208,0)"><path d="M 11150,13717 L 11150,13717 C 11150,13949 11136,14147 11108,14313 11080,14479 11045,14561 11002,14561 10959,14561 10925,14479 10900,14313 10869,14147 10855,13949 10857,13717 10855,13483 10869,13284 10900,13118 10925,12953 10959,12871 11002,12870 11045,12871 11080,12953 11108,13118 11136,13284 11150,13483 11150,13717 Z M 11062,13717 L 11062,13717 C 11062,13624 11057,13544 11045,13477 11032,13411 11018,13378 11002,13378 10987,13378 10973,13411 10961,13477 10949,13544 10943,13622 10945,13717 10943,13811 10949,13890 10961,13954 10973,14021 10987,14054 11002,14054 11018,14054 11032,14021 11045,13954 11057,13888 11062,13808 11062,13717 Z"/></g><g style="stroke:none;fill:rgb(255,255,0)"><path d="M 11045,13477 L 11045,13477 C 11057,13544 11062,13624 11062,13717 11062,13808 11057,13888 11045,13954 11032,14021 11018,14054 11002,14054 10987,14054 10973,14021 10961,13954 10949,13890 10943,13811 10945,13717 10943,13622 10949,13544 10961,13477 10973,13411 10987,13378 11002,13378 11018,13378 11032,13411 11045,13477 Z"/></g><g style="stroke:none;fill:rgb(188,0,0)"><path d="M 11505,13717 L 11505,13717 C 11505,12920 11455,12242 11356,11683 11324,11506 11291,11361 11259,11247 11256,11234 11252,11220 11249,11206 L 11249,11206 11312,11227 11413,11278 11420,11323 11420,11323 C 11537,11992 11594,12789 11594,13717 11594,14643 11537,15441 11420,16107 11306,16768 11167,17100 11002,17100 10839,17100 10699,16768 10585,16107 10546,15893 10515,15673 10494,15450 L 10494,12817 10494,12817 C 10513,12387 10556,11980 10621,11597 10623,11587 10624,11576 10626,11563 L 10626,11563 10673,11318 10734,11281 10734,11281 C 10703,11391 10675,11526 10647,11683 10549,12242 10501,12922 10501,13717 10501,14514 10549,15190 10647,15748 10746,16312 10864,16591 11002,16591 11139,16591 11258,16312 11356,15748 11455,15192 11505,14515 11505,13717 Z"/></g><g style="stroke:none;fill:rgb(170,1,0)"><path d="M 11657,12625 L 11657,14804 11657,14804 C 11626,15426 11567,15980 11481,16469 11349,17226 11190,17605 11002,17605 10816,17605 10656,17226 10523,16469 L 10523,16469 10494,16291 10494,15450 10494,15450 C 10515,15673 10546,15893 10585,16107 10699,16768 10839,17100 11002,17100 11167,17100 11306,16768 11420,16107 11537,15441 11594,14643 11594,13717 11594,12789 11537,11992 11420,11323 L 11420,11323 11413,11278 11546,11370 11546,11370 C 11598,11758 11633,12176 11657,12625 Z"/></g><g style="stroke:none;fill:rgb(100,4,0)"><path d="M 10494,18421 L 10494,18085 10494,18085 C 10539,18266 10588,18421 10640,18548 10588,18510 10540,18470 10494,18421 Z"/></g><g style="stroke:none;fill:rgb(182,0,0)"><path d="M 10621,11597 L 10621,11597 C 10556,11980 10513,12387 10494,12817 L 10494,12817 10494,11470 10673,11318 10626,11563 10626,11563 C 10624,11576 10623,11587 10621,11597 Z"/></g><g style="stroke:none;fill:rgb(108,3,0)"><path d="M 12460,18662 L 12460,18662 C 12415,18683 12369,18695 12319,18702 12188,18727 12056,18706 11921,18636 11877,18613 11830,18584 11785,18548 11734,18421 11684,18266 11639,18085 L 11639,17666 11639,17666 C 11783,18304 11954,18623 12148,18622 12385,18623 12587,18143 12753,17183 L 12753,17183 12802,16883 12802,18421 12802,18421 C 12689,18536 12575,18616 12460,18662 Z"/></g><g style="stroke:none;fill:rgb(135,2,0)"><path d="M 12802,16883 L 12753,17183 12753,17183 C 12587,18143 12385,18623 12148,18622 11954,18623 11783,18304 11639,17666 L 11639,17013 11639,17013 C 11782,17748 11952,18114 12148,18112 12360,18114 12541,17685 12691,16826 12732,16584 12769,16324 12802,16039 L 12802,16883 Z"/></g><g style="stroke:none;fill:rgb(152,1,0)"><path d="M 12802,16039 L 12802,16039 C 12769,16324 12732,16584 12691,16826 12541,17685 12360,18114 12148,18112 11952,18114 11782,17748 11639,17013 L 11639,17013 11639,16291 11668,16469 11668,16469 C 11802,17226 11961,17605 12148,17605 12335,17605 12495,17226 12626,16469 12713,15980 12772,15426 12802,14804 L 12802,16039 Z"/></g><g style="stroke:none;fill:rgb(146,2,0)"><path d="M 12802,11470 L 12802,12625 12802,12625 C 12779,12176 12743,11758 12691,11370 L 12802,11470 Z"/></g><g style="stroke:none;fill:rgb(205,4,0)"><path d="M 12502,11683 L 12502,11683 C 12600,12242 12650,12920 12650,13717 12650,14515 12600,15192 12502,15748 12403,16312 12285,16591 12148,16591 12010,16591 11891,16312 11793,15748 11694,15190 11647,14514 11647,13717 11647,12922 11694,12242 11793,11683 11820,11526 11848,11391 11879,11281 L 11952,11241 11952,11241 C 12003,11218 12050,11204 12095,11195 12129,11188 12158,11185 12179,11183 12228,11180 12274,11181 12322,11190 12342,11192 12367,11197 12394,11206 12397,11220 12401,11234 12404,11247 12437,11361 12469,11506 12502,11683 Z M 12563,13717 L 12563,13717 C 12563,13057 12521,12499 12441,12041 12359,11578 12260,11347 12148,11347 12034,11347 11936,11578 11853,12041 11773,12505 11734,13064 11734,13717 11734,14369 11773,14926 11853,15391 11936,15854 12034,16084 12148,16084 12260,16084 12359,15854 12441,15391 12521,14933 12563,14376 12563,13717 Z"/></g><g style="stroke:none;fill:rgb(214,50,0)"><path d="M 12441,12041 L 12441,12041 C 12521,12499 12563,13057 12563,13717 12563,14376 12521,14933 12441,15391 12359,15854 12260,16084 12148,16084 12034,16084 11936,15854 11853,15391 11773,14926 11734,14369 11734,13717 11734,13064 11773,12505 11853,12041 11936,11578 12034,11347 12148,11347 12260,11347 12359,11578 12441,12041 Z M 12502,13717 L 12502,13717 C 12502,13154 12467,12675 12399,12280 12329,11884 12246,11685 12148,11685 12048,11685 11966,11884 11897,12280 11827,12679 11793,13158 11793,13717 11793,14276 11827,14753 11897,15151 11965,15546 12048,15744 12148,15744 12246,15744 12329,15546 12399,15151 12467,14757 12502,14280 12502,13717 Z"/></g><g style="stroke:none;fill:rgb(215,55,0)"><path d="M 12399,12280 L 12399,12280 C 12467,12675 12502,13154 12502,13717 12502,14280 12467,14757 12399,15151 12329,15546 12246,15744 12148,15744 12048,15744 11965,15546 11897,15151 11827,14753 11793,14276 11793,13717 11793,13158 11827,12679 11897,12280 11966,11884 12048,11685 12148,11685 12246,11685 12329,11884 12399,12280 Z M 12473,13717 L 12473,13717 C 12473,13209 12441,12770 12378,12398 12314,12035 12237,11854 12148,11854 12057,11854 11980,12035 11918,12398 11853,12764 11821,13203 11821,13717 11821,14229 11853,14667 11918,15031 11980,15394 12057,15576 12148,15576 12237,15576 12314,15394 12378,15031 12441,14662 12473,14224 12473,13717 Z"/></g><g style="stroke:none;fill:rgb(226,106,0)"><path d="M 12378,12398 L 12378,12398 C 12441,12770 12473,13209 12473,13717 12473,14224 12441,14662 12378,15031 12314,15394 12237,15576 12148,15576 12057,15576 11980,15394 11918,15031 11853,14667 11821,14229 11821,13717 11821,13203 11853,12764 11918,12398 11980,12035 12057,11854 12148,11854 12237,11854 12314,12035 12378,12398 Z M 12315,14674 L 12315,14674 C 12362,14404 12385,14086 12385,13717 12385,13347 12362,13027 12315,12757 12270,12492 12214,12361 12148,12361 12081,12361 12026,12492 11980,12757 11935,13027 11911,13347 11911,13717 11911,14086 11935,14404 11980,14674 12026,14937 12081,15068 12148,15068 12214,15068 12270,14937 12315,14674 Z"/></g><g style="stroke:none;fill:rgb(236,157,0)"><path d="M 12385,13717 L 12385,13717 C 12385,14086 12362,14404 12315,14674 12270,14937 12214,15068 12148,15068 12081,15068 12026,14937 11980,14674 11935,14404 11911,14086 11911,13717 11911,13347 11935,13027 11980,12757 12026,12492 12081,12361 12148,12361 12214,12361 12270,12492 12315,12757 12362,13027 12385,13347 12385,13717 Z M 12253,14313 L 12253,14313 C 12282,14147 12296,13949 12296,13717 12296,13483 12282,13284 12253,13118 12226,12953 12190,12871 12148,12870 12104,12871 12071,12953 12045,13118 12015,13284 12001,13483 12003,13717 12001,13949 12015,14147 12045,14313 12071,14479 12104,14561 12148,14561 12190,14561 12226,14479 12253,14313 Z"/></g><g style="stroke:none;fill:rgb(246,208,0)"><path d="M 12296,13717 L 12296,13717 C 12296,13949 12282,14147 12253,14313 12226,14479 12190,14561 12148,14561 12104,14561 12071,14479 12045,14313 12015,14147 12001,13949 12003,13717 12001,13483 12015,13284 12045,13118 12071,12953 12104,12871 12148,12870 12190,12871 12226,12953 12253,13118 12282,13284 12296,13483 12296,13717 Z M 12207,13717 L 12207,13717 C 12207,13624 12202,13544 12190,13477 12177,13411 12163,13378 12148,13378 12132,13378 12118,13411 12106,13477 12094,13544 12088,13622 12090,13717 12088,13811 12094,13890 12106,13954 12118,14021 12132,14054 12148,14054 12163,14054 12177,14021 12190,13954 12202,13888 12207,13808 12207,13717 Z"/></g><g style="stroke:none;fill:rgb(255,255,0)"><path d="M 12190,13477 L 12190,13477 C 12202,13544 12207,13624 12207,13717 12207,13808 12202,13888 12190,13954 12177,14021 12163,14054 12148,14054 12132,14054 12118,14021 12106,13954 12094,13890 12088,13811 12090,13717 12088,13622 12094,13544 12106,13477 12118,13411 12132,13378 12148,13378 12163,13378 12177,13411 12190,13477 Z"/></g><g style="stroke:none;fill:rgb(188,0,0)"><path d="M 12650,13717 L 12650,13717 C 12650,12920 12600,12242 12502,11683 12469,11506 12437,11361 12404,11247 12401,11234 12397,11220 12394,11206 L 12394,11206 12457,11227 12558,11278 12566,11323 12566,11323 C 12682,11992 12739,12789 12739,13717 12739,14643 12682,15441 12566,16107 12451,16768 12312,17100 12148,17100 11984,17100 11844,16768 11731,16107 11691,15893 11661,15673 11639,15450 L 11639,12817 11639,12817 C 11659,12387 11701,11980 11766,11597 11768,11587 11769,11576 11771,11563 L 11771,11563 11818,11318 11879,11281 11879,11281 C 11848,11391 11820,11526 11793,11683 11694,12242 11647,12922 11647,13717 11647,14514 11694,15190 11793,15748 11891,16312 12010,16591 12148,16591 12285,16591 12403,16312 12502,15748 12600,15192 12650,14515 12650,13717 Z"/></g><g style="stroke:none;fill:rgb(170,1,0)"><path d="M 12802,12625 L 12802,14804 12802,14804 C 12772,15426 12713,15980 12626,16469 12495,17226 12335,17605 12148,17605 11961,17605 11802,17226 11668,16469 L 11668,16469 11639,16291 11639,15450 11639,15450 C 11661,15673 11691,15893 11731,16107 11844,16768 11984,17100 12148,17100 12312,17100 12451,16768 12566,16107 12682,15441 12739,14643 12739,13717 12739,12789 12682,11992 12566,11323 L 12566,11323 12558,11278 12691,11370 12691,11370 C 12743,11758 12779,12176 12802,12625 Z"/></g><g style="stroke:none;fill:rgb(100,4,0)"><path d="M 11639,18421 L 11639,18085 11639,18085 C 11684,18266 11734,18421 11785,18548 11734,18510 11685,18470 11639,18421 Z"/></g><g style="stroke:none;fill:rgb(182,0,0)"><path d="M 11766,11597 L 11766,11597 C 11701,11980 11659,12387 11639,12817 L 11639,12817 11639,11470 11818,11318 11771,11563 11771,11563 C 11769,11576 11768,11587 11766,11597 Z"/></g><g style="stroke:none;fill:rgb(108,3,0)"><path d="M 13605,18662 L 13605,18662 C 13561,18683 13514,18695 13464,18702 13334,18727 13202,18706 13067,18636 13022,18613 12975,18584 12931,18548 12879,18421 12829,18266 12785,18085 L 12785,17666 12785,17666 C 12929,18304 13099,18623 13293,18622 13530,18623 13732,18143 13899,17183 L 13899,17183 13947,16883 13947,18421 13947,18421 C 13835,18536 13720,18616 13605,18662 Z"/></g><g style="stroke:none;fill:rgb(135,2,0)"><path d="M 13947,16883 L 13899,17183 13899,17183 C 13732,18143 13530,18623 13293,18622 13099,18623 12929,18304 12785,17666 L 12785,17013 12785,17013 C 12928,17748 13097,18114 13293,18112 13505,18114 13687,17685 13837,16826 13877,16584 13915,16324 13947,16039 L 13947,16883 Z"/></g><g style="stroke:none;fill:rgb(152,1,0)"><path d="M 13947,16039 L 13947,16039 C 13915,16324 13877,16584 13837,16826 13687,17685 13505,18114 13293,18112 13097,18114 12928,17748 12785,17013 L 12785,17013 12785,16291 12813,16469 12813,16469 C 12947,17226 13106,17605 13293,17605 13481,17605 13640,17226 13772,16469 13858,15980 13917,15426 13947,14804 L 13947,16039 Z"/></g><g style="stroke:none;fill:rgb(146,2,0)"><path d="M 13947,11470 L 13947,12625 13947,12625 C 13924,12176 13888,11758 13837,11370 L 13947,11470 Z"/></g><g style="stroke:none;fill:rgb(205,4,0)"><path d="M 13647,11683 L 13647,11683 C 13745,12242 13795,12920 13795,13717 13795,14515 13745,15192 13647,15748 13549,16312 13430,16591 13293,16591 13155,16591 13036,16312 12938,15748 12839,15190 12792,14514 12792,13717 12792,12922 12839,12242 12938,11683 12965,11526 12994,11391 13024,11281 L 13097,11241 13097,11241 C 13148,11218 13196,11204 13240,11195 13275,11188 13303,11185 13324,11183 13373,11180 13420,11181 13467,11190 13488,11192 13512,11197 13539,11206 13542,11220 13547,11234 13550,11247 13582,11361 13615,11506 13647,11683 Z M 13708,13717 L 13708,13717 C 13708,13057 13666,12499 13586,12041 13504,11578 13406,11347 13293,11347 13179,11347 13081,11578 12999,12041 12919,12505 12879,13064 12879,13717 12879,14369 12919,14926 12999,15391 13081,15854 13179,16084 13293,16084 13406,16084 13504,15854 13586,15391 13666,14933 13708,14376 13708,13717 Z"/></g><g style="stroke:none;fill:rgb(214,50,0)"><path d="M 13586,12041 L 13586,12041 C 13666,12499 13708,13057 13708,13717 13708,14376 13666,14933 13586,15391 13504,15854 13406,16084 13293,16084 13179,16084 13081,15854 12999,15391 12919,14926 12879,14369 12879,13717 12879,13064 12919,12505 12999,12041 13081,11578 13179,11347 13293,11347 13406,11347 13504,11578 13586,12041 Z M 13647,13717 L 13647,13717 C 13647,13154 13612,12675 13545,12280 13475,11884 13391,11685 13293,11685 13194,11685 13111,11884 13042,12280 12972,12679 12938,13158 12938,13717 12938,14276 12972,14753 13042,15151 13110,15546 13194,15744 13293,15744 13391,15744 13475,15546 13545,15151 13612,14757 13647,14280 13647,13717 Z"/></g><g style="stroke:none;fill:rgb(215,55,0)"><path d="M 13545,12280 L 13545,12280 C 13612,12675 13647,13154 13647,13717 13647,14280 13612,14757 13545,15151 13475,15546 13391,15744 13293,15744 13194,15744 13110,15546 13042,15151 12972,14753 12938,14276 12938,13717 12938,13158 12972,12679 13042,12280 13111,11884 13194,11685 13293,11685 13391,11685 13475,11884 13545,12280 Z M 13619,13717 L 13619,13717 C 13619,13209 13586,12770 13523,12398 13459,12035 13382,11854 13293,11854 13203,11854 13126,12035 13064,12398 12999,12764 12966,13203 12966,13717 12966,14229 12999,14667 13064,15031 13126,15394 13203,15576 13293,15576 13382,15576 13459,15394 13523,15031 13586,14662 13619,14224 13619,13717 Z"/></g><g style="stroke:none;fill:rgb(226,106,0)"><path d="M 13523,12398 L 13523,12398 C 13586,12770 13619,13209 13619,13717 13619,14224 13586,14662 13523,15031 13459,15394 13382,15576 13293,15576 13203,15576 13126,15394 13064,15031 12999,14667 12966,14229 12966,13717 12966,13203 12999,12764 13064,12398 13126,12035 13203,11854 13293,11854 13382,11854 13459,12035 13523,12398 Z M 13460,14674 L 13460,14674 C 13507,14404 13530,14086 13530,13717 13530,13347 13507,13027 13460,12757 13416,12492 13359,12361 13293,12361 13226,12361 13171,12492 13126,12757 13080,13027 13057,13347 13057,13717 13057,14086 13080,14404 13126,14674 13171,14937 13226,15068 13293,15068 13359,15068 13416,14937 13460,14674 Z"/></g><g style="stroke:none;fill:rgb(236,157,0)"><path d="M 13530,13717 L 13530,13717 C 13530,14086 13507,14404 13460,14674 13416,14937 13359,15068 13293,15068 13226,15068 13171,14937 13126,14674 13080,14404 13057,14086 13057,13717 13057,13347 13080,13027 13126,12757 13171,12492 13226,12361 13293,12361 13359,12361 13416,12492 13460,12757 13507,13027 13530,13347 13530,13717 Z M 13398,14313 L 13398,14313 C 13427,14147 13441,13949 13441,13717 13441,13483 13427,13284 13398,13118 13371,12953 13336,12871 13293,12870 13249,12871 13216,12953 13190,13118 13160,13284 13146,13483 13148,13717 13146,13949 13160,14147 13190,14313 13216,14479 13249,14561 13293,14561 13336,14561 13371,14479 13398,14313 Z"/></g><g style="stroke:none;fill:rgb(246,208,0)"><path d="M 13441,13717 L 13441,13717 C 13441,13949 13427,14147 13398,14313 13371,14479 13336,14561 13293,14561 13249,14561 13216,14479 13190,14313 13160,14147 13146,13949 13148,13717 13146,13483 13160,13284 13190,13118 13216,12953 13249,12871 13293,12870 13336,12871 13371,12953 13398,13118 13427,13284 13441,13483 13441,13717 Z M 13353,13717 L 13353,13717 C 13353,13624 13348,13544 13336,13477 13322,13411 13308,13378 13293,13378 13278,13378 13264,13411 13251,13477 13239,13544 13233,13622 13235,13717 13233,13811 13239,13890 13251,13954 13264,14021 13278,14054 13293,14054 13308,14054 13322,14021 13336,13954 13348,13888 13353,13808 13353,13717 Z"/></g><g style="stroke:none;fill:rgb(255,255,0)"><path d="M 13336,13477 L 13336,13477 C 13348,13544 13353,13624 13353,13717 13353,13808 13348,13888 13336,13954 13322,14021 13308,14054 13293,14054 13278,14054 13264,14021 13251,13954 13239,13890 13233,13811 13235,13717 13233,13622 13239,13544 13251,13477 13264,13411 13278,13378 13293,13378 13308,13378 13322,13411 13336,13477 Z"/></g><g style="stroke:none;fill:rgb(188,0,0)"><path d="M 13795,13717 L 13795,13717 C 13795,12920 13745,12242 13647,11683 13615,11506 13582,11361 13550,11247 13547,11234 13542,11220 13539,11206 L 13539,11206 13602,11227 13704,11278 13711,11323 13711,11323 C 13828,11992 13884,12789 13884,13717 13884,14643 13828,15441 13711,16107 13596,16768 13457,17100 13293,17100 13130,17100 12990,16768 12876,16107 12836,15893 12806,15673 12785,15450 L 12785,12817 12785,12817 C 12804,12387 12847,11980 12912,11597 12914,11587 12915,11576 12917,11563 L 12917,11563 12963,11318 13024,11281 13024,11281 C 12994,11391 12965,11526 12938,11683 12839,12242 12792,12922 12792,13717 12792,14514 12839,15190 12938,15748 13036,16312 13155,16591 13293,16591 13430,16591 13549,16312 13647,15748 13745,15192 13795,14515 13795,13717 Z"/></g><g style="stroke:none;fill:rgb(170,1,0)"><path d="M 13947,12625 L 13947,14804 13947,14804 C 13917,15426 13858,15980 13772,16469 13640,17226 13481,17605 13293,17605 13106,17605 12947,17226 12813,16469 L 12813,16469 12785,16291 12785,15450 12785,15450 C 12806,15673 12836,15893 12876,16107 12990,16768 13130,17100 13293,17100 13457,17100 13596,16768 13711,16107 13828,15441 13884,14643 13884,13717 13884,12789 13828,11992 13711,11323 L 13711,11323 13704,11278 13837,11370 13837,11370 C 13888,11758 13924,12176 13947,12625 Z"/></g><g style="stroke:none;fill:rgb(100,4,0)"><path d="M 12785,18421 L 12785,18085 12785,18085 C 12829,18266 12879,18421 12931,18548 12879,18510 12830,18470 12785,18421 Z"/></g><g style="stroke:none;fill:rgb(182,0,0)"><path d="M 12912,11597 L 12912,11597 C 12847,11980 12804,12387 12785,12817 L 12785,12817 12785,11470 12963,11318 12917,11563 12917,11563 C 12915,11576 12914,11587 12912,11597 Z"/></g><g style="stroke:none;fill:rgb(91,91,91)"><path d="M 15090,17290 L 15090,17290 15090,17928 15072,17932 15072,17294 15090,17290 Z"/></g><g style="stroke:none;fill:rgb(61,61,61)"><path d="M 15072,17932 L 15072,17932 15090,17928 15090,19530 13963,18407 15072,18961 15072,18032 15072,17932 Z"/></g><g style="stroke:none;fill:rgb(110,110,110)"><path d="M 15072,17294 L 15072,17294 15072,17932 15072,18032 13928,17617 13928,16963 13969,16953 15072,17212 15072,16657 15090,16654 15090,17290 15072,17294 Z"/></g><g style="stroke:none;fill:rgb(149,149,149)"><path d="M 15072,16019 L 15072,16019 15072,16246 13928,16246 13928,15691 15090,15380 15090,16016 15072,16019 Z"/></g><g style="stroke:none;fill:rgb(130,130,130)"><path d="M 15072,16246 L 15072,16246 15072,16657 15072,17212 13969,16953 13928,16942 13928,16246 15072,16246 Z"/></g><g style="stroke:none;fill:rgb(91,91,91)"><path d="M 15072,18032 L 15072,18032 15072,18961 13963,18407 13928,18372 13928,17617 15072,18032 Z"/></g><g style="stroke:none;fill:rgb(194,194,194)"><path d="M 15090,13943 L 15090,13943 15090,14740 13928,15051 13928,14254 15090,13943 Z"/></g><g style="stroke:none;fill:rgb(219,219,219)"><path d="M 15090,13147 L 15090,13147 15090,13943 13928,14254 13928,13457 15090,13147 Z"/></g><g style="stroke:none;fill:rgb(226,226,226)"><path d="M 15090,11552 L 15090,11552 15090,11870 13928,12179 13928,11861 15090,11552 Z"/></g><g style="stroke:none;fill:rgb(253,253,253)"><path d="M 15090,11870 L 15090,11870 15090,12347 13928,12660 13928,12179 15090,11870 Z"/></g><g style="stroke:none;fill:rgb(233,233,233)"><path d="M 15090,12347 L 15090,12347 15090,13147 13928,13457 13928,12660 15090,12347 Z"/></g><g style="stroke:none;fill:rgb(130,130,130)"><path d="M 15090,10596 L 15090,10596 15090,10914 14193,11155 14632,10718 15090,10596 Z"/></g><g style="stroke:none;fill:rgb(162,162,162)"><path d="M 15090,10914 L 15090,10914 15090,11234 13928,11545 13928,11420 14193,11155 15090,10914 Z"/></g><g style="stroke:none;fill:rgb(98,98,98)"><path d="M 15090,10262 L 15090,10262 15090,10596 14632,10718 15090,10262 Z"/></g><g style="stroke:none;fill:rgb(194,194,194)"><path d="M 15090,11234 L 15090,11234 15090,11552 13928,11861 13928,11545 15090,11234 Z"/></g><g style="stroke:none;fill:rgb(170,170,170)"><path d="M 15090,14740 L 15090,14740 15090,15380 13928,15691 13928,15051 15090,14740 Z"/></g><g style="stroke:none;fill:rgb(131,131,131)"><path d="M 13928,16963 L 13928,16963 13928,16942 13969,16953 13928,16963 Z"/></g><g style="stroke:none;fill:rgb(91,91,91)"><path d="M 5910,17294 L 5910,17294 5910,17932 5928,17936 5928,17298 5910,17294 Z"/></g><g style="stroke:none;fill:rgb(61,61,61)"><path d="M 5928,17936 L 5928,17936 5910,17932 5910,19534 7037,18411 5928,18965 5928,18036 5928,17936 Z"/></g><g style="stroke:none;fill:rgb(110,110,110)"><path d="M 5928,17298 L 5928,17298 5928,17936 5928,18036 7072,17621 7072,16967 7032,16957 5928,17216 5928,16661 5910,16658 5910,17294 5928,17298 Z"/></g><g style="stroke:none;fill:rgb(149,149,149)"><path d="M 5928,16023 L 5928,16023 5928,16250 7072,16250 7072,15695 5910,15384 5910,16020 5928,16023 Z"/></g><g style="stroke:none;fill:rgb(130,130,130)"><path d="M 5928,16250 L 5928,16250 5928,16661 5928,17216 7032,16957 7072,16946 7072,16250 5928,16250 Z"/></g><g style="stroke:none;fill:rgb(91,91,91)"><path d="M 5928,18036 L 5928,18036 5928,18965 7037,18411 7072,18376 7072,17621 5928,18036 Z"/></g><g style="stroke:none;fill:rgb(194,194,194)"><path d="M 5910,13947 L 5910,13947 5910,14744 7072,15055 7072,14258 5910,13947 Z"/></g><g style="stroke:none;fill:rgb(219,219,219)"><path d="M 5910,13151 L 5910,13151 5910,13947 7072,14258 7072,13461 5910,13151 Z"/></g><g style="stroke:none;fill:rgb(226,226,226)"><path d="M 5910,11556 L 5910,11556 5910,11874 7072,12183 7072,11865 5910,11556 Z"/></g><g style="stroke:none;fill:rgb(253,253,253)"><path d="M 5910,11874 L 5910,11874 5910,12351 7072,12664 7072,12183 5910,11874 Z"/></g><g style="stroke:none;fill:rgb(233,233,233)"><path d="M 5910,12351 L 5910,12351 5910,13151 7072,13461 7072,12664 5910,12351 Z"/></g><g style="stroke:none;fill:rgb(130,130,130)"><path d="M 5910,10600 L 5910,10600 5910,10918 6808,11159 6368,10722 5910,10600 Z"/></g><g style="stroke:none;fill:rgb(162,162,162)"><path d="M 5910,10918 L 5910,10918 5910,11238 7072,11549 7072,11424 6808,11159 5910,10918 Z"/></g><g style="stroke:none;fill:rgb(98,98,98)"><path d="M 5910,10266 L 5910,10266 5910,10600 6368,10722 5910,10266 Z"/></g><g style="stroke:none;fill:rgb(194,194,194)"><path d="M 5910,11238 L 5910,11238 5910,11556 7072,11865 7072,11549 5910,11238 Z"/></g><g style="stroke:none;fill:rgb(170,170,170)"><path d="M 5910,14744 L 5910,14744 5910,15384 7072,15695 7072,15055 5910,14744 Z"/></g><g style="stroke:none;fill:rgb(131,131,131)"><path d="M 7072,16967 L 7072,16967 7072,16946 7032,16957 7072,16967 Z"/></g></g></g></g></svg>