<?xml version="1.0" encoding="UTF-8"?>
<!DOCTYPE svg PUBLIC "-//W3C//DTD SVG 1.1//EN" "http://www.w3.org/Graphics/SVG/1.1/DTD/svg11.dtd"><svg version="1.1" viewBox="0 0 21000 29700" preserveAspectRatio="xMidYMid" fill-rule="evenodd" xmlns="http://www.w3.org/2000/svg" xmlns:xlink="http://www.w3.org/1999/xlink"><g visibility="visible" id="Default"><desc>Master slide</desc><g style="stroke:none;fill:none"><rect x="0" y="0" width="21000" height="29700"/></g></g><g visibility="visible" id="page1"><desc>Slide</desc><g><desc>Graphic</desc><g><g style="stroke:none;fill:rgb(0,187,102)"><path d="M 15074,11397 L 15074,11397 15074,10826 13373,10826 13373,10263 12800,10263 12800,10826 12800,10826 C 12396,10845 12204,11037 12228,11397 L 8204,11406 8204,11406 C 7822,11409 7632,11598 7631,11979 6941,12054 6559,12245 6486,12550 L 6502,15408 6502,15408 C 6503,15785 6693,15973 7075,15971 L 7075,16542 7075,16542 C 6672,16587 6481,16778 6502,17115 L 6502,17115 5929,17115 5929,17686 6502,17686 6502,17686 C 6479,18449 6663,18833 7058,18839 L 8204,18839 8204,18839 C 8597,18842 8794,18649 8792,18258 L 8792,18258 9937,18258 9937,18829 9921,18829 9921,18829 C 9555,18878 9368,19067 9365,19401 L 9921,19401 9921,19401 C 10351,19431 10548,19049 10510,18258 L 12228,18258 12228,18258 C 12209,18626 12398,18817 12800,18829 L 12800,18829 12800,19401 13373,19401 13373,18829 13373,18829 C 14094,18856 14475,18663 14518,18247 L 14518,18247 14518,17686 15074,17686 15074,17115 14518,17115 14518,17115 C 14497,16734 14305,16542 13945,16542 L 13945,15399 13945,15399 C 13905,15036 13715,14846 13373,14828 L 11614,14828 11614,14828 C 11572,14657 11487,14505 11353,14372 11164,14182 10934,14086 10664,14088 10394,14086 10164,14182 9974,14372 9841,14505 9755,14657 9716,14828 L 8792,14828 8792,14828 C 8398,14840 8208,14651 8220,14257 L 8220,13684 8220,13684 C 8232,13317 8424,13125 8792,13113 L 12228,13113 12228,13113 C 13462,13848 14226,13661 14518,12550 L 14518,12550 14518,11397 15074,11397 Z M 12212,11979 L 12212,11979 12212,12550 8526,12550 8526,12550 C 8023,12631 7726,12893 7631,13336 L 7631,14837 7631,14837 C 7637,15212 7828,15403 8204,15408 L 9750,15408 9750,15408 C 9796,15534 9871,15648 9974,15749 10005,15782 10040,15810 10073,15838 10115,15876 10163,15908 10220,15932 10354,16002 10501,16035 10664,16035 10934,16035 11164,15941 11353,15749 11455,15648 11530,15534 11579,15408 L 11579,15408 12785,15408 12785,16552 12785,16552 C 12378,16561 12186,16750 12212,17124 L 8777,17124 8777,17124 C 8792,16748 8602,16557 8204,16552 L 8204,16552 7631,16552 7631,15980 7631,15980 C 7629,15793 7567,15648 7445,15543 7337,15452 7208,15407 7058,15408 L 7058,13122 7058,13122 C 7110,12768 7300,12577 7631,12550 7966,12518 8156,12327 8204,11979 L 12212,11979 Z"/></g><g style="stroke:none;fill:rgb(0,136,85)"><path d="M 12212,12550 L 12212,12550 12212,11979 8204,11979 8204,11979 C 8156,12327 7966,12518 7631,12550 7300,12577 7110,12768 7058,13122 L 7058,15408 7058,15408 C 7208,15407 7337,15452 7445,15543 7567,15648 7629,15793 7631,15980 L 7631,15980 7631,16552 8204,16552 8204,16552 C 8602,16557 8792,16748 8777,17124 L 12212,17124 12212,17124 C 12186,16750 12378,16561 12785,16552 L 12785,16552 12785,15408 11579,15408 11579,15408 C 11530,15534 11455,15648 11353,15749 11164,15941 10934,16035 10664,16035 10501,16035 10354,16002 10220,15932 10163,15908 10115,15876 10073,15838 10040,15810 10005,15782 9974,15749 9871,15648 9796,15534 9750,15408 L 8204,15408 8204,15408 C 7828,15403 7637,15212 7631,14837 L 7631,13336 7631,13336 C 7726,12893 8023,12631 8526,12550 L 12212,12550 Z"/><path d="M 15074,11397 L 15074,11397 14518,11397 14518,12550 14518,12550 C 14226,13661 13462,13848 12228,13113 L 8792,13113 8792,13113 C 8424,13125 8232,13317 8220,13684 L 8220,14257 8220,14257 C 8208,14651 8398,14840 8792,14828 L 9716,14828 9716,14828 C 9755,14657 9841,14505 9974,14372 10164,14182 10394,14086 10664,14088 10934,14086 11164,14182 11353,14372 11487,14505 11572,14657 11614,14828 L 13373,14828 13373,14828 C 13715,14846 13905,15036 13945,15399 L 13945,16542 13945,16542 C 14305,16542 14497,16734 14518,17115 L 14518,17115 15074,17115 15074,11397 Z"/><path d="M 15074,10826 L 15074,10826 15074,10263 13373,10263 13373,10826 15074,10826 Z"/><path d="M 12800,10826 L 12800,10826 12800,10263 9921,10263 9921,10835 7631,10835 7631,10835 C 7416,11237 7035,11428 6486,11406 L 6486,11406 5913,11406 5913,19410 15074,19410 15074,17686 14518,17686 14518,18247 14518,18247 C 14475,18663 14094,18856 13373,18829 L 13373,18829 13373,19401 12800,19401 12800,18829 12800,18829 C 12398,18817 12209,18626 12228,18258 L 10510,18258 10510,18258 C 10548,19049 10351,19431 9921,19401 L 9365,19401 9365,19401 C 9368,19067 9555,18878 9921,18829 L 9921,18829 9937,18829 9937,18258 8792,18258 8792,18258 C 8794,18649 8597,18842 8204,18839 L 7058,18839 7058,18839 C 6663,18833 6479,18449 6502,17686 L 6502,17686 5929,17686 5929,17115 6502,17115 6502,17115 C 6481,16778 6672,16587 7075,16542 L 7075,15971 7075,15971 C 6693,15973 6503,15785 6502,15408 L 6486,12550 6486,12550 C 6559,12245 6941,12054 7631,11979 7632,11598 7822,11409 8204,11406 L 12228,11397 12228,11397 C 12204,11037 12396,10845 12800,10826 Z"/></g><g style="stroke:none;fill:rgb(0,187,102)"><path d="M 9921,10835 L 9921,10835 9921,10263 7058,10263 7058,10263 C 7037,10594 6845,10765 6486,10782 L 6486,10782 5913,10782 5913,11406 6486,11406 6486,11406 C 7035,11428 7416,11237 7631,10835 L 9921,10835 Z"/></g><g style="stroke:none;fill:rgb(0,136,85)"><path d="M 5913,10782 L 6486,10782 6486,10782 C 6845,10765 7037,10594 7058,10263 L 7058,10263 5913,10263 5913,10782 Z"/></g><g style="stroke:none;fill:rgb(119,119,119)"><path d="M 7864,17013 L 7864,17013 C 7807,16996 7748,16989 7685,16989 7364,17090 7339,17249 7611,17467 7682,17382 7721,17341 7729,17343 7735,17344 7760,17429 7802,17595 7808,17618 7815,17638 7824,17657 7945,17640 8001,17680 7991,17774 8057,17787 8141,17782 8241,17760 8253,17679 8254,17598 8247,17515 8243,17473 8238,17433 8232,17392 8220,17322 8193,17261 8154,17205 8131,17172 8103,17142 8071,17116 8008,17070 7939,17035 7864,17013 Z"/></g><g style="stroke:none;fill:rgb(102,102,102)"><path d="M 8171,17910 L 8171,17910 C 8193,17880 8212,17848 8224,17813 8231,17796 8237,17778 8241,17760 8141,17782 8057,17787 7991,17774 7982,17848 7934,17953 7848,18094 7858,18088 7879,18074 7911,18056 7976,18014 8027,17990 8067,17981 8106,17973 8141,17949 8171,17910 Z"/></g><g style="stroke:none;fill:rgb(187,187,187)"><path d="M 7848,18094 L 7848,18094 C 7934,17953 7982,17848 7991,17774 8001,17680 7945,17640 7824,17657 7789,17661 7747,17671 7698,17685 7365,17787 7223,17755 7271,17592 7203,17590 7137,17580 7070,17562 7070,17729 7130,17869 7251,17988 7371,18103 7570,18140 7848,18096 7849,18094 7850,18094 7851,18094 7850,18094 7849,18094 7848,18094 Z"/></g><g style="stroke:none;fill:rgb(102,102,102)"><path d="M 7824,17657 L 7824,17657 C 7815,17638 7808,17618 7802,17595 7760,17429 7735,17344 7729,17343 7721,17341 7682,17382 7611,17467 7621,17483 7628,17503 7632,17523 7643,17564 7640,17578 7622,17560 7605,17542 7528,17520 7391,17493 7375,17489 7362,17487 7349,17487 7364,17555 7354,17591 7321,17592 7304,17592 7288,17592 7271,17592 7223,17755 7365,17787 7698,17685 7747,17671 7789,17661 7824,17657 Z"/></g><g style="stroke:none;fill:rgb(187,187,187)"><path d="M 7632,17523 L 7632,17523 C 7628,17503 7621,17483 7611,17467 7296,17338 7172,17302 7240,17361 7307,17420 7343,17461 7349,17487 7362,17487 7375,17489 7391,17493 7528,17520 7605,17542 7622,17560 7640,17578 7643,17564 7632,17523 Z"/></g><g style="stroke:none;fill:rgb(255,255,255)"><path d="M 7349,17487 L 7349,17487 C 7343,17461 7307,17420 7240,17361 7172,17302 7296,17338 7611,17467 7339,17249 7364,17090 7685,16989 7517,16989 7372,17045 7251,17156 7130,17269 7070,17403 7070,17562 7137,17580 7203,17590 7271,17592 7288,17592 7304,17592 7321,17592 7354,17591 7364,17555 7349,17487 Z"/></g><g style="stroke:none;fill:rgb(119,119,119)"><path d="M 13583,17013 L 13583,17013 C 13526,16996 13467,16989 13405,16989 13083,17090 13059,17249 13330,17467 13401,17382 13440,17341 13448,17343 13454,17344 13480,17429 13521,17595 13527,17618 13534,17638 13543,17657 13664,17640 13720,17680 13710,17774 13777,17787 13860,17782 13960,17760 13973,17679 13974,17598 13967,17515 13962,17473 13957,17433 13951,17392 13939,17322 13913,17261 13873,17205 13850,17172 13822,17142 13790,17116 13727,17070 13658,17035 13583,17013 Z"/></g><g style="stroke:none;fill:rgb(102,102,102)"><path d="M 13890,17910 L 13890,17910 C 13913,17880 13931,17848 13943,17813 13950,17796 13956,17778 13960,17760 13860,17782 13777,17787 13710,17774 13702,17848 13653,17953 13567,18094 13577,18088 13598,18074 13631,18056 13696,18014 13746,17990 13786,17981 13826,17973 13860,17949 13890,17910 Z"/></g><g style="stroke:none;fill:rgb(187,187,187)"><path d="M 13567,18094 L 13567,18094 C 13653,17953 13702,17848 13710,17774 13720,17680 13664,17640 13543,17657 13508,17661 13466,17671 13418,17685 13084,17787 12942,17755 12991,17592 12923,17590 12857,17580 12790,17562 12790,17729 12850,17869 12970,17988 13090,18103 13289,18140 13567,18096 13568,18094 13569,18094 13570,18094 13569,18094 13568,18094 13567,18094 Z"/></g><g style="stroke:none;fill:rgb(102,102,102)"><path d="M 13543,17657 L 13543,17657 C 13534,17638 13527,17618 13521,17595 13480,17429 13454,17344 13448,17343 13440,17341 13401,17382 13330,17467 13341,17483 13348,17503 13352,17523 13362,17564 13359,17578 13342,17560 13324,17542 13247,17520 13110,17493 13094,17489 13081,17487 13069,17487 13083,17555 13074,17591 13040,17592 13023,17592 13007,17592 12991,17592 12942,17755 13084,17787 13418,17685 13466,17671 13508,17661 13543,17657 Z"/></g><g style="stroke:none;fill:rgb(187,187,187)"><path d="M 13352,17523 L 13352,17523 C 13348,17503 13341,17483 13330,17467 13015,17338 12891,17302 12959,17361 13026,17420 13063,17461 13069,17487 13081,17487 13094,17489 13110,17493 13247,17520 13324,17542 13342,17560 13359,17578 13362,17564 13352,17523 Z"/></g><g style="stroke:none;fill:rgb(255,255,255)"><path d="M 13069,17487 L 13069,17487 C 13063,17461 13026,17420 12959,17361 12891,17302 13015,17338 13330,17467 13059,17249 13083,17090 13405,16989 13236,16989 13091,17045 12970,17156 12850,17269 12790,17403 12790,17562 12857,17580 12923,17590 12991,17592 13007,17592 13023,17592 13040,17592 13074,17591 13083,17555 13069,17487 Z"/></g><g style="stroke:none;fill:rgb(119,119,119)"><path d="M 13583,11311 L 13583,11311 C 13526,11294 13467,11287 13405,11287 13083,11388 13059,11547 13330,11765 13401,11680 13440,11638 13448,11640 13454,11641 13480,11727 13521,11893 13527,11916 13534,11936 13543,11954 13664,11938 13720,11978 13710,12072 13777,12085 13860,12080 13960,12058 13973,11977 13974,11896 13967,11813 13962,11771 13957,11731 13951,11690 13939,11620 13913,11558 13873,11503 13850,11470 13822,11440 13790,11414 13727,11368 13658,11333 13583,11311 Z"/></g><g style="stroke:none;fill:rgb(102,102,102)"><path d="M 13890,12208 L 13890,12208 C 13913,12178 13931,12146 13943,12110 13950,12094 13956,12076 13960,12058 13860,12080 13777,12085 13710,12072 13702,12146 13653,12251 13567,12392 13577,12386 13598,12372 13631,12353 13696,12312 13746,12288 13786,12279 13826,12270 13860,12247 13890,12208 Z"/></g><g style="stroke:none;fill:rgb(187,187,187)"><path d="M 13567,12392 L 13567,12392 C 13653,12251 13702,12146 13710,12072 13720,11978 13664,11938 13543,11954 13508,11958 13466,11969 13418,11983 13084,12085 12942,12053 12991,11890 12923,11888 12857,11877 12790,11860 12790,12026 12850,12167 12970,12286 13090,12401 13289,12438 13567,12394 13568,12392 13569,12392 13570,12392 13569,12392 13568,12392 13567,12392 Z"/></g><g style="stroke:none;fill:rgb(102,102,102)"><path d="M 13543,11954 L 13543,11954 C 13534,11936 13527,11916 13521,11893 13480,11727 13454,11641 13448,11640 13440,11638 13401,11680 13330,11765 13341,11781 13348,11800 13352,11821 13362,11862 13359,11875 13342,11858 13324,11840 13247,11818 13110,11790 13094,11787 13081,11785 13069,11785 13083,11853 13074,11889 13040,11890 13023,11890 13007,11890 12991,11890 12942,12053 13084,12085 13418,11983 13466,11969 13508,11958 13543,11954 Z"/></g><g style="stroke:none;fill:rgb(187,187,187)"><path d="M 13352,11821 L 13352,11821 C 13348,11800 13341,11781 13330,11765 13015,11635 12891,11600 12959,11659 13026,11717 13063,11759 13069,11785 13081,11785 13094,11787 13110,11790 13247,11818 13324,11840 13342,11858 13359,11875 13362,11862 13352,11821 Z"/></g><g style="stroke:none;fill:rgb(255,255,255)"><path d="M 13069,11785 L 13069,11785 C 13063,11759 13026,11717 12959,11659 12891,11600 13015,11635 13330,11765 13059,11547 13083,11388 13405,11287 13236,11287 13091,11343 12970,11454 12850,11567 12790,11701 12790,11860 12857,11877 12923,11888 12991,11890 13007,11890 13023,11890 13040,11890 13074,11889 13083,11853 13069,11785 Z"/></g></g></g></g></svg>