<?xml version="1.0" encoding="UTF-8"?>
<!DOCTYPE svg PUBLIC "-//W3C//DTD SVG 1.1//EN" "http://www.w3.org/Graphics/SVG/1.1/DTD/svg11.dtd"><svg version="1.1" viewBox="0 0 21000 29700" preserveAspectRatio="xMidYMid" fill-rule="evenodd" xmlns="http://www.w3.org/2000/svg" xmlns:xlink="http://www.w3.org/1999/xlink"><g visibility="visible" id="Default"><desc>Master slide</desc><g style="stroke:none;fill:none"><rect x="0" y="0" width="21000" height="29700"/></g></g><g visibility="visible" id="page1"><desc>Slide</desc><g><desc>Graphic</desc><g><g style="stroke:none;fill:rgb(0,136,85)"><path d="M 5913,19410 L 5913,19410 8204,19410 13357,19410 15074,19410 15074,10263 5913,10263 5913,19410 Z M 13929,11978 L 13929,11978 14501,11978 14501,17123 13929,17123 13929,11978 Z M 6485,11978 L 6485,11978 7058,11978 7058,15979 7630,15979 7630,17695 6485,17695 6485,11978 Z"/></g><g style="stroke:none;fill:rgb(23,187,112)"><path d="M 14501,11978 L 14501,11978 13929,11978 13929,17123 14501,17123 14501,11978 Z"/><path d="M 7058,11978 L 7058,11978 6485,11978 6485,17695 7630,17695 7630,15979 7058,15979 7058,11978 Z"/></g><g style="stroke:rgb(177,177,177);stroke-width:2;stroke-linejoin:round;fill:rgb(255,255,255)"><path style="fill:none" d="M 13357,19410 L 8204,19410"/></g><g style="stroke:none;fill:rgb(229,229,0)"><path d="M 11066,15979 L 11066,15979 11066,16265 12785,16265 12785,15979 11066,15979 Z"/></g><g style="stroke:none;fill:rgb(229,28,28)"><path d="M 11066,16265 L 11066,16265 11066,15979 10494,15979 10494,16265 11066,16265 Z"/></g><g style="stroke:none;fill:rgb(214,214,0)"><path d="M 11066,16265 L 11066,16265 11066,16552 12785,16552 12785,16265 11066,16265 Z"/></g><g style="stroke:none;fill:rgb(214,26,26)"><path d="M 11066,16552 L 11066,16552 11066,16265 10494,16265 10494,16552 11066,16552 Z"/></g><g style="stroke:none;fill:rgb(198,198,0)"><path d="M 11066,16552 L 11066,16552 11066,16837 12785,16837 12785,16552 11066,16552 Z"/></g><g style="stroke:none;fill:rgb(198,24,24)"><path d="M 11066,16837 L 11066,16837 11066,16552 10494,16552 10494,16837 11066,16837 Z"/></g><g style="stroke:none;fill:rgb(153,153,153)"><path d="M 12785,16552 L 12785,16552 12785,16837 12785,17123 13929,17123 13929,16552 12785,16552 Z"/></g><g style="stroke:none;fill:rgb(178,178,0)"><path d="M 12785,16837 L 12785,16837 11066,16837 11066,17123 12785,17123 12785,16837 Z"/></g><g style="stroke:none;fill:rgb(0,95,59)"><path d="M 14502,17694 L 14502,17694 14502,17123 13929,17123 12785,17123 12785,17408 12785,17694 11066,17694 10494,17694 9921,17694 8776,17694 8776,18266 13357,18266 13357,17694 14502,17694 Z"/></g><g style="stroke:none;fill:rgb(153,153,0)"><path d="M 12785,17408 L 12785,17408 12785,17123 11066,17123 11066,17408 12785,17408 Z"/></g><g style="stroke:none;fill:rgb(127,127,0)"><path d="M 12785,17694 L 12785,17694 12785,17408 11066,17408 11066,17694 12785,17694 Z"/></g><g style="stroke:none;fill:rgb(153,19,19)"><path d="M 11066,17408 L 11066,17408 11066,17123 10494,17123 10494,17408 11066,17408 Z"/></g><g style="stroke:none;fill:rgb(127,16,16)"><path d="M 11066,17694 L 11066,17694 11066,17408 10494,17408 10494,17694 11066,17694 Z"/></g><g style="stroke:none;fill:rgb(178,22,22)"><path d="M 11066,17123 L 11066,17123 11066,16837 10494,16837 10494,17123 11066,17123 Z"/></g><g style="stroke:none;fill:rgb(153,153,153)"><path d="M 8204,16837 L 8204,16837 8204,16552 7058,16552 7058,17123 7631,17123 8204,17123 8204,16837 Z"/></g><g style="stroke:none;fill:rgb(198,198,0)"><path d="M 8204,16552 L 8204,16552 8204,16837 9921,16837 9921,16552 8204,16552 Z"/></g><g style="stroke:none;fill:rgb(229,229,0)"><path d="M 8204,15979 L 8204,15979 8204,16265 9921,16265 9921,15979 8204,15979 Z"/></g><g style="stroke:none;fill:rgb(214,214,0)"><path d="M 8204,16265 L 8204,16265 8204,16552 9921,16552 9921,16265 8204,16265 Z"/></g><g style="stroke:none;fill:rgb(59,52,198)"><path d="M 9921,16552 L 9921,16552 9921,16837 10494,16837 10494,16552 9921,16552 Z"/></g><g style="stroke:none;fill:rgb(64,57,214)"><path d="M 9921,16265 L 9921,16265 9921,16552 10494,16552 10494,16265 9921,16265 Z"/></g><g style="stroke:none;fill:rgb(69,61,229)"><path d="M 9921,15979 L 9921,15979 9921,16265 10494,16265 10494,15979 9921,15979 Z"/></g><g style="stroke:none;fill:rgb(53,47,178)"><path d="M 10494,16837 L 10494,16837 9921,16837 9921,17123 10494,17123 10494,16837 Z"/></g><g style="stroke:none;fill:rgb(178,178,0)"><path d="M 9921,16837 L 9921,16837 8204,16837 8204,17123 9921,17123 9921,16837 Z"/></g><g style="stroke:none;fill:rgb(46,40,153)"><path d="M 9921,17123 L 9921,17123 9921,17408 10494,17408 10494,17123 9921,17123 Z"/></g><g style="stroke:none;fill:rgb(153,153,0)"><path d="M 9921,17408 L 9921,17408 9921,17123 8204,17123 8204,17408 9921,17408 Z"/></g><g style="stroke:none;fill:rgb(38,34,127)"><path d="M 9921,17408 L 9921,17408 9921,17694 10494,17694 10494,17408 9921,17408 Z"/></g><g style="stroke:none;fill:rgb(127,127,0)"><path d="M 9921,17694 L 9921,17694 9921,17408 8204,17408 8204,17694 8776,17694 9921,17694 Z"/></g><g style="stroke:none;fill:rgb(0,95,59)"><path d="M 8204,17694 L 8204,17694 8204,17408 8204,17123 7631,17123 7631,17694 8204,17694 Z"/><path d="M 9639,12033 L 9639,12033 C 9453,11699 9229,11531 8962,11531 8809,11531 8669,11587 8543,11699 8450,11779 8364,11891 8283,12033 8097,12368 8004,12773 8004,13246 8004,13722 8097,14125 8283,14459 8358,14595 8438,14704 8531,14784 8660,14902 8804,14961 8962,14961 9229,14961 9453,14793 9639,14459 9828,14127 9921,13723 9921,13246 9921,12805 9840,12424 9678,12104 L 9639,12033 Z"/></g><g style="stroke:none;fill:rgb(119,119,119)"><path d="M 7471,12325 L 7471,12325 C 7444,12317 7416,12313 7387,12313 7234,12362 7222,12437 7351,12540 7385,12500 7403,12480 7407,12481 7410,12482 7422,12522 7442,12602 7445,12612 7448,12622 7453,12630 7510,12623 7536,12641 7532,12687 7563,12693 7603,12690 7651,12680 7657,12641 7657,12603 7654,12563 7652,12543 7649,12524 7647,12504 7641,12472 7628,12442 7609,12416 7598,12400 7585,12386 7570,12374 7539,12351 7507,12335 7471,12325 Z"/></g><g style="stroke:none;fill:rgb(102,102,102)"><path d="M 7617,12750 L 7617,12750 C 7628,12737 7637,12721 7643,12705 7646,12697 7649,12688 7651,12680 7603,12690 7563,12693 7532,12687 7528,12721 7505,12772 7463,12839 7468,12836 7478,12829 7493,12820 7525,12800 7548,12789 7568,12785 7586,12781 7603,12770 7617,12750 Z"/></g><g style="stroke:none;fill:rgb(187,187,187)"><path d="M 7463,12839 L 7463,12839 C 7505,12772 7528,12721 7532,12687 7536,12641 7510,12623 7453,12630 7436,12632 7415,12637 7392,12644 7234,12693 7167,12678 7189,12600 7158,12599 7125,12594 7094,12585 7094,12664 7122,12731 7180,12788 7237,12843 7331,12860 7463,12840 7464,12839 7464,12839 7465,12839 7464,12839 7464,12839 7463,12839 Z"/></g><g style="stroke:none;fill:rgb(102,102,102)"><path d="M 7453,12630 L 7453,12630 C 7448,12622 7445,12612 7442,12602 7422,12522 7410,12482 7407,12481 7403,12480 7385,12500 7351,12540 7356,12548 7360,12557 7362,12567 7367,12586 7365,12592 7357,12584 7348,12576 7312,12565 7247,12552 7239,12551 7233,12550 7227,12550 7234,12582 7230,12600 7213,12600 7205,12600 7197,12600 7189,12600 7167,12678 7234,12693 7392,12644 7415,12637 7436,12632 7453,12630 Z"/></g><g style="stroke:none;fill:rgb(187,187,187)"><path d="M 7362,12567 L 7362,12567 C 7360,12557 7356,12548 7351,12540 7201,12478 7142,12462 7175,12490 7206,12518 7224,12538 7227,12550 7233,12550 7239,12551 7247,12552 7312,12565 7348,12576 7357,12584 7365,12592 7367,12586 7362,12567 Z"/></g><g style="stroke:none;fill:rgb(255,255,255)"><path d="M 7227,12550 L 7227,12550 C 7224,12538 7206,12518 7175,12490 7142,12462 7201,12478 7351,12540 7222,12437 7234,12362 7387,12313 7306,12313 7238,12339 7180,12393 7122,12446 7094,12510 7094,12585 7125,12594 7158,12599 7189,12600 7197,12600 7205,12600 7213,12600 7230,12600 7234,12582 7227,12550 Z"/></g><g style="stroke:none;fill:rgb(119,119,119)"><path d="M 7471,13437 L 7471,13437 C 7444,13429 7416,13425 7387,13425 7234,13474 7222,13549 7351,13652 7385,13612 7403,13592 7407,13593 7410,13594 7422,13634 7442,13714 7445,13724 7448,13734 7453,13742 7510,13735 7536,13753 7532,13799 7563,13805 7603,13802 7651,13792 7657,13753 7657,13715 7654,13675 7652,13655 7649,13636 7647,13616 7641,13584 7628,13554 7609,13528 7598,13512 7585,13498 7570,13486 7539,13464 7507,13447 7471,13437 Z"/></g><g style="stroke:none;fill:rgb(102,102,102)"><path d="M 7617,13863 L 7617,13863 C 7628,13849 7637,13833 7643,13817 7646,13809 7649,13800 7651,13792 7603,13802 7563,13805 7532,13799 7528,13833 7505,13884 7463,13951 7468,13948 7478,13942 7493,13932 7525,13912 7548,13901 7568,13897 7586,13893 7603,13882 7617,13863 Z"/></g><g style="stroke:none;fill:rgb(187,187,187)"><path d="M 7463,13951 L 7463,13951 C 7505,13884 7528,13833 7532,13799 7536,13753 7510,13735 7453,13742 7436,13744 7415,13749 7392,13756 7234,13805 7167,13790 7189,13712 7158,13711 7125,13706 7094,13697 7094,13776 7122,13843 7180,13900 7237,13955 7331,13972 7463,13952 7464,13951 7464,13951 7465,13951 7464,13951 7464,13951 7463,13951 Z"/></g><g style="stroke:none;fill:rgb(102,102,102)"><path d="M 7453,13742 L 7453,13742 C 7448,13734 7445,13724 7442,13714 7422,13634 7410,13594 7407,13593 7403,13592 7385,13612 7351,13652 7356,13660 7360,13669 7362,13679 7367,13698 7365,13705 7357,13696 7348,13688 7312,13677 7247,13664 7239,13663 7233,13662 7227,13662 7234,13694 7230,13712 7213,13712 7205,13712 7197,13712 7189,13712 7167,13790 7234,13805 7392,13756 7415,13749 7436,13744 7453,13742 Z"/></g><g style="stroke:none;fill:rgb(187,187,187)"><path d="M 7362,13679 L 7362,13679 C 7360,13669 7356,13660 7351,13652 7201,13590 7142,13574 7175,13602 7206,13630 7224,13650 7227,13662 7233,13662 7239,13663 7247,13664 7312,13677 7348,13688 7357,13696 7365,13705 7367,13698 7362,13679 Z"/></g><g style="stroke:none;fill:rgb(255,255,255)"><path d="M 7227,13662 L 7227,13662 C 7224,13650 7206,13630 7175,13602 7142,13574 7201,13590 7351,13652 7222,13549 7234,13474 7387,13425 7306,13425 7238,13451 7180,13505 7122,13558 7094,13623 7094,13697 7125,13706 7158,13711 7189,13712 7197,13712 7205,13712 7213,13712 7230,13712 7234,13694 7227,13662 Z"/></g><g style="stroke:none;fill:rgb(89,89,191)"><path d="M 8632,11980 L 8608,11908 8608,11908 C 8497,11575 8363,11406 8204,11406 8112,11406 8028,11461 7953,11575 8270,12527 8266,13556 7946,14660 8023,14777 8109,14836 8204,14836 8363,14836 8497,14668 8608,14335 8721,14002 8776,13598 8776,13121 8776,12680 8728,12300 8632,11980 Z"/></g><g style="stroke:none;fill:rgb(119,153,238)"><path d="M 7953,11575 L 7953,11575 C 7897,11655 7845,11765 7798,11908 7686,12242 7631,12648 7631,13121 7631,13596 7686,14000 7798,14335 7842,14470 7890,14579 7946,14660 8266,13556 8270,12527 7953,11575 Z"/></g><g style="stroke:none;fill:rgb(0,95,59)"><path d="M 12503,12033 L 12503,12033 C 12317,11699 12093,11531 11826,11531 11674,11531 11533,11587 11407,11699 11315,11779 11229,11891 11147,12033 10962,12368 10869,12773 10869,13246 10869,13722 10962,14125 11147,14459 11222,14595 11303,14704 11396,14784 11524,14902 11668,14961 11826,14961 12093,14961 12317,14793 12503,14459 12691,14127 12784,13723 12784,13246 12784,12805 12704,12424 12541,12104 L 12503,12033 Z"/></g><g style="stroke:none;fill:rgb(119,119,119)"><path d="M 10334,12325 L 10334,12325 C 10306,12317 10279,12313 10250,12313 10096,12362 10084,12437 10214,12540 10248,12500 10266,12480 10270,12481 10273,12482 10285,12522 10304,12602 10307,12612 10311,12622 10316,12630 10372,12623 10399,12641 10395,12687 10426,12693 10466,12690 10513,12680 10519,12641 10519,12603 10516,12563 10514,12543 10511,12524 10509,12504 10503,12472 10491,12442 10472,12416 10461,12400 10447,12386 10432,12374 10402,12351 10369,12335 10334,12325 Z"/></g><g style="stroke:none;fill:rgb(102,102,102)"><path d="M 10480,12750 L 10480,12750 C 10491,12737 10499,12721 10505,12705 10508,12697 10511,12688 10513,12680 10466,12690 10426,12693 10395,12687 10391,12721 10367,12772 10326,12839 10331,12836 10341,12829 10356,12820 10388,12800 10411,12789 10430,12785 10448,12781 10466,12770 10480,12750 Z"/></g><g style="stroke:none;fill:rgb(187,187,187)"><path d="M 10326,12839 L 10326,12839 C 10367,12772 10391,12721 10395,12687 10399,12641 10372,12623 10316,12630 10298,12632 10278,12637 10255,12644 10096,12693 10030,12678 10052,12600 10020,12599 9988,12594 9956,12585 9956,12664 9985,12731 10043,12788 10100,12843 10194,12860 10326,12840 10327,12839 10327,12839 10328,12839 10327,12839 10327,12839 10326,12839 Z"/></g><g style="stroke:none;fill:rgb(102,102,102)"><path d="M 10316,12630 L 10316,12630 C 10311,12622 10307,12612 10304,12602 10285,12522 10273,12482 10270,12481 10266,12480 10248,12500 10214,12540 10218,12548 10222,12557 10224,12567 10229,12586 10227,12592 10219,12584 10211,12576 10175,12565 10110,12552 10102,12551 10095,12550 10089,12550 10096,12582 10092,12600 10076,12600 10068,12600 10060,12600 10052,12600 10030,12678 10096,12693 10255,12644 10278,12637 10298,12632 10316,12630 Z"/></g><g style="stroke:none;fill:rgb(187,187,187)"><path d="M 10224,12567 L 10224,12567 C 10222,12557 10218,12548 10214,12540 10064,12478 10005,12462 10038,12490 10069,12518 10086,12538 10089,12550 10095,12550 10102,12551 10110,12552 10175,12565 10211,12576 10219,12584 10227,12592 10229,12586 10224,12567 Z"/></g><g style="stroke:none;fill:rgb(255,255,255)"><path d="M 10089,12550 L 10089,12550 C 10086,12538 10069,12518 10038,12490 10005,12462 10064,12478 10214,12540 10084,12437 10096,12362 10250,12313 10169,12313 10101,12339 10043,12393 9985,12446 9956,12510 9956,12585 9988,12594 10020,12599 10052,12600 10060,12600 10068,12600 10076,12600 10092,12600 10096,12582 10089,12550 Z"/></g><g style="stroke:none;fill:rgb(119,119,119)"><path d="M 10334,13437 L 10334,13437 C 10306,13429 10279,13425 10250,13425 10096,13474 10084,13549 10214,13652 10248,13612 10266,13592 10270,13593 10273,13594 10285,13634 10304,13714 10307,13724 10311,13734 10316,13742 10372,13735 10399,13753 10395,13799 10426,13805 10466,13802 10513,13792 10519,13753 10519,13715 10516,13675 10514,13655 10511,13636 10509,13616 10503,13584 10491,13554 10472,13528 10461,13512 10447,13498 10432,13486 10402,13464 10369,13447 10334,13437 Z"/></g><g style="stroke:none;fill:rgb(102,102,102)"><path d="M 10480,13863 L 10480,13863 C 10491,13849 10499,13833 10505,13817 10508,13809 10511,13800 10513,13792 10466,13802 10426,13805 10395,13799 10391,13833 10367,13884 10326,13951 10331,13948 10341,13942 10356,13932 10388,13912 10411,13901 10430,13897 10448,13893 10466,13882 10480,13863 Z"/></g><g style="stroke:none;fill:rgb(187,187,187)"><path d="M 10326,13951 L 10326,13951 C 10367,13884 10391,13833 10395,13799 10399,13753 10372,13735 10316,13742 10298,13744 10278,13749 10255,13756 10096,13805 10030,13790 10052,13712 10020,13711 9988,13706 9956,13697 9956,13776 9985,13843 10043,13900 10100,13955 10194,13972 10326,13952 10327,13951 10327,13951 10328,13951 10327,13951 10327,13951 10326,13951 Z"/></g><g style="stroke:none;fill:rgb(102,102,102)"><path d="M 10316,13742 L 10316,13742 C 10311,13734 10307,13724 10304,13714 10285,13634 10273,13594 10270,13593 10266,13592 10248,13612 10214,13652 10218,13660 10222,13669 10224,13679 10229,13698 10227,13705 10219,13696 10211,13688 10175,13677 10110,13664 10102,13663 10095,13662 10089,13662 10096,13694 10092,13712 10076,13712 10068,13712 10060,13712 10052,13712 10030,13790 10096,13805 10255,13756 10278,13749 10298,13744 10316,13742 Z"/></g><g style="stroke:none;fill:rgb(187,187,187)"><path d="M 10224,13679 L 10224,13679 C 10222,13669 10218,13660 10214,13652 10064,13590 10005,13574 10038,13602 10069,13630 10086,13650 10089,13662 10095,13662 10102,13663 10110,13664 10175,13677 10211,13688 10219,13696 10227,13705 10229,13698 10224,13679 Z"/></g><g style="stroke:none;fill:rgb(255,255,255)"><path d="M 10089,13662 L 10089,13662 C 10086,13650 10069,13630 10038,13602 10005,13574 10064,13590 10214,13652 10084,13549 10096,13474 10250,13425 10169,13425 10101,13451 10043,13505 9985,13558 9956,13623 9956,13697 9988,13706 10020,13711 10052,13712 10060,13712 10068,13712 10076,13712 10092,13712 10096,13694 10089,13662 Z"/></g><g style="stroke:none;fill:rgb(190,86,86)"><path d="M 11494,11980 L 11471,11908 11471,11908 C 11359,11575 11226,11406 11066,11406 10975,11406 10891,11461 10816,11575 11132,12527 11129,13556 10809,14660 10886,14777 10972,14836 11066,14836 11226,14836 11359,14668 11471,14335 11584,14002 11638,13598 11638,13121 11638,12680 11591,12300 11494,11980 Z"/></g><g style="stroke:none;fill:rgb(239,116,116)"><path d="M 10816,11575 L 10816,11575 C 10760,11655 10708,11765 10661,11908 10549,12242 10494,12648 10494,13121 10494,13596 10549,14000 10661,14335 10705,14470 10753,14579 10809,14660 11129,13556 11132,12527 10816,11575 Z"/></g><g style="stroke:none;fill:rgb(119,119,119)"><path d="M 13651,11782 L 13651,11782 C 13597,11766 13540,11759 13482,11759 13176,11855 13152,12006 13411,12214 13479,12133 13515,12093 13522,12095 13529,12096 13553,12177 13592,12335 13598,12357 13605,12376 13613,12393 13729,12379 13782,12416 13772,12506 13835,12518 13915,12513 14010,12492 14022,12415 14023,12337 14015,12259 14012,12220 14007,12181 14001,12143 13990,12076 13965,12017 13927,11965 13905,11933 13879,11905 13848,11879 13788,11836 13722,11802 13651,11782 Z"/></g><g style="stroke:none;fill:rgb(102,102,102)"><path d="M 13943,12635 L 13943,12635 C 13965,12607 13982,12575 13994,12543 14000,12527 14006,12509 14010,12492 13915,12513 13835,12518 13772,12506 13765,12575 13718,12677 13636,12810 13645,12804 13665,12791 13697,12773 13758,12734 13806,12711 13844,12702 13881,12695 13915,12673 13943,12635 Z"/></g><g style="stroke:none;fill:rgb(187,187,187)"><path d="M 13636,12810 L 13636,12810 C 13718,12677 13765,12575 13772,12506 13782,12416 13729,12379 13613,12393 13580,12398 13539,12407 13494,12421 13177,12518 13041,12488 13088,12332 13023,12330 12960,12320 12897,12305 12897,12462 12954,12596 13069,12709 13182,12819 13371,12853 13636,12811 13637,12810 13638,12810 13639,12810 13638,12810 13637,12810 13636,12810 Z"/></g><g style="stroke:none;fill:rgb(102,102,102)"><path d="M 13613,12393 L 13613,12393 C 13605,12376 13598,12357 13592,12335 13553,12177 13529,12096 13522,12095 13515,12093 13479,12133 13411,12214 13421,12229 13427,12247 13432,12267 13441,12307 13438,12318 13422,12302 13406,12286 13331,12263 13202,12238 13186,12235 13174,12233 13162,12233 13176,12298 13167,12331 13135,12332 13119,12332 13103,12332 13088,12332 13041,12488 13177,12518 13494,12421 13539,12407 13580,12398 13613,12393 Z"/></g><g style="stroke:none;fill:rgb(187,187,187)"><path d="M 13432,12267 L 13432,12267 C 13427,12247 13421,12229 13411,12214 13111,12090 12994,12057 13058,12112 13121,12168 13157,12208 13162,12233 13174,12233 13186,12235 13202,12238 13331,12263 13406,12286 13422,12302 13438,12318 13441,12307 13432,12267 Z"/></g><g style="stroke:none;fill:rgb(255,255,255)"><path d="M 13162,12233 L 13162,12233 C 13157,12208 13121,12168 13058,12112 12994,12057 13111,12090 13411,12214 13152,12006 13176,11855 13482,11759 13321,11759 13183,11813 13069,11919 12954,12024 12897,12153 12897,12305 12960,12320 13023,12330 13088,12332 13103,12332 13119,12332 13135,12332 13167,12331 13176,12298 13162,12233 Z"/></g><g style="stroke:none;fill:rgb(119,119,119)"><path d="M 13651,13432 L 13651,13432 C 13597,13416 13540,13409 13482,13409 13176,13505 13152,13656 13411,13864 13479,13783 13515,13743 13522,13745 13529,13746 13553,13827 13592,13985 13598,14006 13605,14026 13613,14043 13729,14029 13782,14066 13772,14156 13835,14167 13915,14163 14010,14142 14022,14065 14023,13987 14015,13909 14012,13870 14007,13831 14001,13793 13990,13726 13965,13667 13927,13614 13905,13583 13879,13555 13848,13529 13788,13486 13722,13452 13651,13432 Z"/></g><g style="stroke:none;fill:rgb(102,102,102)"><path d="M 13943,14285 L 13943,14285 C 13965,14257 13982,14225 13994,14193 14000,14177 14006,14159 14010,14142 13915,14163 13835,14167 13772,14156 13765,14225 13718,14326 13636,14460 13645,14454 13665,14441 13697,14423 13758,14384 13806,14361 13844,14352 13881,14345 13915,14322 13943,14285 Z"/></g><g style="stroke:none;fill:rgb(187,187,187)"><path d="M 13636,14460 L 13636,14460 C 13718,14326 13765,14225 13772,14156 13782,14066 13729,14029 13613,14043 13580,14048 13539,14057 13494,14071 13177,14167 13041,14138 13088,13982 13023,13980 12960,13970 12897,13955 12897,14112 12954,14245 13069,14359 13182,14469 13371,14503 13636,14461 13637,14460 13638,14460 13639,14460 13638,14460 13637,14460 13636,14460 Z"/></g><g style="stroke:none;fill:rgb(102,102,102)"><path d="M 13613,14043 L 13613,14043 C 13605,14026 13598,14006 13592,13985 13553,13827 13529,13746 13522,13745 13515,13743 13479,13783 13411,13864 13421,13879 13427,13897 13432,13917 13441,13957 13438,13968 13422,13952 13406,13935 13331,13913 13202,13888 13186,13885 13174,13883 13162,13883 13176,13948 13167,13981 13135,13982 13119,13982 13103,13982 13088,13982 13041,14138 13177,14167 13494,14071 13539,14057 13580,14048 13613,14043 Z"/></g><g style="stroke:none;fill:rgb(187,187,187)"><path d="M 13432,13917 L 13432,13917 C 13427,13897 13421,13879 13411,13864 13111,13740 12994,13707 13058,13762 13121,13818 13157,13858 13162,13883 13174,13883 13186,13885 13202,13888 13331,13913 13406,13935 13422,13952 13438,13968 13441,13957 13432,13917 Z"/></g><g style="stroke:none;fill:rgb(255,255,255)"><path d="M 13162,13883 L 13162,13883 C 13157,13858 13121,13818 13058,13762 12994,13707 13111,13740 13411,13864 13152,13656 13176,13505 13482,13409 13321,13409 13183,13463 13069,13569 12954,13674 12897,13803 12897,13955 12960,13970 13023,13980 13088,13982 13103,13982 13119,13982 13135,13982 13167,13981 13176,13948 13162,13883 Z"/></g></g></g></g></svg>