<?xml version="1.0" encoding="UTF-8"?>
<!DOCTYPE svg PUBLIC "-//W3C//DTD SVG 1.1//EN" "http://www.w3.org/Graphics/SVG/1.1/DTD/svg11.dtd"><svg version="1.1" viewBox="0 0 21000 29700" preserveAspectRatio="xMidYMid" fill-rule="evenodd" xmlns="http://www.w3.org/2000/svg" xmlns:xlink="http://www.w3.org/1999/xlink"><g visibility="visible" id="Default"><desc>Master slide</desc><g style="stroke:none;fill:none"><rect x="0" y="0" width="21000" height="29700"/></g></g><g visibility="visible" id="page1"><desc>Slide</desc><g><desc>Graphic</desc><g><g style="stroke:none;fill:rgb(153,153,153)"><path d="M 12784,11406 L 12784,11406 13929,11406 15074,10263 5913,10263 5913,19410 7058,18266 7058,17123 7058,15408 7058,13693 7058,11978 7058,11406 7630,11406 9349,11406 11066,11406 12784,11406 Z"/></g><g style="stroke:none;fill:rgb(255,255,0)"><path d="M 13929,11406 L 13929,11406 12784,11406 7058,17123 7058,18266 8204,18266 13929,12550 13929,11406 Z"/></g><g style="stroke:none;fill:rgb(102,102,102)"><path d="M 13929,11406 L 13929,11406 13929,12550 13929,14265 13929,15979 13929,17695 13929,18266 13357,18266 11638,18266 9921,18266 8204,18266 7058,18266 5913,19410 15074,19410 15074,10263 13929,11406 Z"/></g><g style="stroke:none;fill:rgb(255,255,0)"><path d="M 13929,15979 L 13929,15979 13929,14265 9921,18266 11638,18266 13929,15979 Z"/></g><g style="stroke:none;fill:rgb(0,0,0)"><path d="M 13929,14265 L 13929,14265 13929,12550 8204,18266 9921,18266 13929,14265 Z"/></g><g style="stroke:none;fill:rgb(255,255,0)"><path d="M 11066,11406 L 11066,11406 9349,11406 7058,13693 7058,15408 11066,11406 Z"/><path d="M 7058,11406 L 7058,11406 7058,11978 7630,11406 7058,11406 Z"/></g><g style="stroke:none;fill:rgb(0,0,0)"><path d="M 7630,11406 L 7630,11406 7058,11978 7058,13693 9349,11406 7630,11406 Z"/><path d="M 7058,15408 L 7058,15408 7058,17123 12784,11406 11066,11406 7058,15408 Z"/></g><g style="stroke:none;fill:rgb(255,255,0)"><path d="M 13357,18266 L 13357,18266 13929,18266 13929,17695 13357,18266 Z"/></g><g style="stroke:none;fill:rgb(0,0,0)"><path d="M 13357,18266 L 13357,18266 13929,17695 13929,15979 11638,18266 13357,18266 Z"/></g></g></g></g></svg>