<?xml version="1.0" encoding="UTF-8"?>
<!DOCTYPE svg PUBLIC "-//W3C//DTD SVG 1.1//EN" "http://www.w3.org/Graphics/SVG/1.1/DTD/svg11.dtd"><svg version="1.1" viewBox="0 0 21000 29700" preserveAspectRatio="xMidYMid" fill-rule="evenodd" xmlns="http://www.w3.org/2000/svg" xmlns:xlink="http://www.w3.org/1999/xlink"><g visibility="visible" id="Default"><desc>Master slide</desc><g style="stroke:none;fill:none"><rect x="0" y="0" width="21000" height="29700"/></g></g><g visibility="visible" id="page1"><desc>Slide</desc><g><desc>Graphic</desc><g><g style="stroke:none;fill:rgb(85,85,221)"><path d="M 14517,10281 L 14517,10281 13945,10281 13945,11424 13945,14283 7647,14283 7647,11424 7647,10281 5929,10281 5929,19427 8220,19427 8220,15998 13372,15998 13372,19427 15090,19427 15090,10852 14517,10281 Z M 7075,11424 L 7075,11424 6501,11424 6501,10852 7075,10852 7075,11424 Z"/></g><g style="stroke:none;fill:rgb(0,0,0)"><path d="M 6501,11424 L 6501,11424 7075,11424 7075,10852 6501,10852 6501,11424 Z"/></g><g style="stroke:none;fill:rgb(255,153,0)"><path d="M 13945,11424 L 13945,11424 13945,10281 7647,10281 7647,11424 13945,11424 Z"/></g><g style="stroke:none;fill:rgb(255,255,255)"><path d="M 13945,14283 L 13945,14283 13945,11424 7647,11424 7647,14283 13945,14283 Z"/></g><g style="stroke:none;fill:rgb(153,153,153)"><path d="M 8220,15998 L 8220,15998 8220,19427 13372,19427 13372,15998 8220,15998 Z M 12800,16569 L 12800,16569 12800,18856 11655,18856 11655,16569 12800,16569 Z"/></g><g style="stroke:none;fill:rgb(85,85,221)"><path d="M 12800,18856 L 12800,18856 12800,16569 11655,16569 11655,18856 12800,18856 Z"/></g><g style="stroke:rgb(0,0,0);stroke-width:36;stroke-linejoin:round;fill:rgb(255,255,255)"><path style="fill:none" d="M 7075,11424 L 7075,11424 7075,10852 6501,10852 6501,11424 7075,11424"/><path style="fill:none" d="M 13945,11424 L 13945,11424 13945,14283 7647,14283 7647,11424"/><path style="fill:none" d="M 7647,11424 L 7647,10281"/><path style="fill:none" d="M 13945,10281 L 13945,11424"/><path style="fill:none" d="M 8220,19427 L 8220,19427 5929,19427 5929,10281 7647,10281"/><path style="fill:none" d="M 13945,10281 L 13945,10281 14517,10281 15090,10852 15090,19427 13372,19427"/><path style="fill:none" d="M 12800,16569 L 12800,16569 11655,16569 11655,18856 12800,18856 12800,16569"/><path style="fill:none" d="M 8220,19427 L 8220,19427 8220,15998 13372,15998 13372,19427"/><path style="fill:none" d="M 13945,11424 L 7647,11424"/><path style="fill:none" d="M 13372,19427 L 8220,19427"/><path style="fill:none" d="M 7647,10281 L 13945,10281"/></g></g></g></g></svg>