<?xml version="1.0" encoding="UTF-8"?>
<!DOCTYPE svg PUBLIC "-//W3C//DTD SVG 1.1//EN" "http://www.w3.org/Graphics/SVG/1.1/DTD/svg11.dtd"><svg version="1.1" viewBox="0 0 21000 29700" preserveAspectRatio="xMidYMid" fill-rule="evenodd" xmlns="http://www.w3.org/2000/svg" xmlns:xlink="http://www.w3.org/1999/xlink"><g visibility="visible" id="Default"><desc>Master slide</desc><g style="stroke:none;fill:none"><rect x="0" y="0" width="21000" height="29700"/></g></g><g visibility="visible" id="page1"><desc>Slide</desc><g><desc>Graphic</desc><g><g style="stroke:none;fill:rgb(51,51,51)"><path d="M 12784,12550 L 12784,12550 12784,17123 15074,19410 15074,10263 12784,12550 Z"/></g><g style="stroke:none;fill:rgb(153,153,153)"><path d="M 12784,17123 L 12784,17123 12784,12550 10493,14836 12784,17123 Z"/></g><g style="stroke:none;fill:rgb(204,204,204)"><path d="M 12784,12550 L 12784,12550 15074,10263 5913,10263 8204,12550 12784,12550 Z"/></g><g style="stroke:none;fill:rgb(153,153,153)"><path d="M 8204,12550 L 8204,12550 5913,10263 5913,19410 8204,17123 8204,12550 Z"/></g><g style="stroke:none;fill:rgb(51,51,51)"><path d="M 8204,12550 L 8204,12550 8204,17123 10493,14836 8204,12550 Z"/></g><g style="stroke:none;fill:rgb(102,102,102)"><path d="M 8204,12550 L 8204,12550 10493,14836 12784,12550 8204,12550 Z"/></g><g style="stroke:none;fill:rgb(204,204,204)"><path d="M 10493,14836 L 10493,14836 8204,17123 12784,17123 10493,14836 Z"/></g><g style="stroke:none;fill:rgb(102,102,102)"><path d="M 5913,19410 L 5913,19410 15074,19410 12784,17123 8204,17123 5913,19410 Z"/></g></g></g></g></svg>