<?xml version="1.0" encoding="UTF-8"?>
<!DOCTYPE svg PUBLIC "-//W3C//DTD SVG 1.1//EN" "http://www.w3.org/Graphics/SVG/1.1/DTD/svg11.dtd"><svg version="1.1" viewBox="0 0 21000 29700" preserveAspectRatio="xMidYMid" fill-rule="evenodd" xmlns="http://www.w3.org/2000/svg" xmlns:xlink="http://www.w3.org/1999/xlink"><g visibility="visible" id="Default"><desc>Master slide</desc><g style="stroke:none;fill:none"><rect x="0" y="0" width="21000" height="29700"/></g></g><g visibility="visible" id="page1"><desc>Slide</desc><g><desc>Graphic</desc><g><g style="stroke:none;fill:rgb(85,85,221)"><path d="M 15089,10852 L 15089,10852 14517,10280 13944,10280 13944,11424 13944,14282 7647,14282 7647,11424 7647,10280 5928,10280 5928,19427 8219,19427 8219,15998 13372,15998 13372,19427 15089,19427 15089,10852 Z M 7074,10852 L 7074,10852 7074,11424 6501,11424 6501,10852 7074,10852 Z"/></g><g style="stroke:none;fill:rgb(0,0,0)"><path d="M 7074,11424 L 7074,11424 7074,10852 6501,10852 6501,11424 7074,11424 Z"/></g><g style="stroke:none;fill:rgb(255,255,0)"><path d="M 13944,11424 L 13944,11424 13944,10280 7647,10280 7647,11424 13944,11424 Z"/></g><g style="stroke:none;fill:rgb(255,255,255)"><path d="M 13944,14282 L 13944,14282 13944,11424 7647,11424 7647,14282 13944,14282 Z"/></g><g style="stroke:none;fill:rgb(153,153,153)"><path d="M 8219,19427 L 8219,19427 13372,19427 13372,15998 8219,15998 8219,19427 Z M 11655,16569 L 11655,16569 12800,16569 12800,18856 11655,18856 11655,16569 Z"/></g><g style="stroke:none;fill:rgb(85,85,221)"><path d="M 12800,16569 L 12800,16569 11655,16569 11655,18856 12800,18856 12800,16569 Z"/></g><g style="stroke:rgb(0,0,0);stroke-width:36;stroke-linejoin:round;fill:rgb(255,255,255)"><path style="fill:none" d="M 7074,10852 L 7074,10852 6501,10852 6501,11424 7074,11424 7074,10852"/><path style="fill:none" d="M 11655,16569 L 11655,16569 11655,18856 12800,18856 12800,16569 11655,16569"/><path style="fill:none" d="M 7647,11424 L 7647,11424 7647,14282 13944,14282 13944,11424"/><path style="fill:none" d="M 13944,10280 L 13944,11424"/><path style="fill:none" d="M 7647,11424 L 7647,10280"/><path style="fill:none" d="M 13372,19427 L 13372,19427 15089,19427 15089,10852 14517,10280 13944,10280"/><path style="fill:none" d="M 7647,10280 L 7647,10280 5928,10280 5928,19427 8219,19427"/><path style="fill:none" d="M 8219,19427 L 13372,19427"/><path style="fill:none" d="M 7647,10280 L 13944,10280"/><path style="fill:none" d="M 13944,11424 L 7647,11424"/><path style="fill:none" d="M 8219,19427 L 8219,19427 8219,15998 13372,15998 13372,19427"/></g></g></g></g></svg>