<?xml version="1.0" encoding="UTF-8"?>
<!DOCTYPE svg PUBLIC "-//W3C//DTD SVG 1.1//EN" "http://www.w3.org/Graphics/SVG/1.1/DTD/svg11.dtd"><svg version="1.1" viewBox="0 0 21000 29700" preserveAspectRatio="xMidYMid" fill-rule="evenodd" xmlns="http://www.w3.org/2000/svg" xmlns:xlink="http://www.w3.org/1999/xlink"><g visibility="visible" id="Default"><desc>Master slide</desc><g style="stroke:none;fill:none"><rect x="0" y="0" width="21000" height="29700"/></g></g><g visibility="visible" id="page1"><desc>Slide</desc><g><desc>Graphic</desc><g><g style="stroke:none;fill:rgb(0,136,85)"><path d="M 15074,10263 L 15074,10263 5913,10263 5913,19410 15074,19410 15074,10263 Z M 13929,10834 L 13929,10834 13929,11121 13929,11406 13929,11692 13929,11978 12212,11978 11638,11978 11638,13121 12212,13121 12212,12836 12212,12550 13929,12550 14501,12550 14501,13121 13929,13121 13929,13407 13929,13693 12212,13693 11638,13693 11638,14265 13929,14265 14501,14265 14501,14836 13929,14836 13929,18266 12784,18266 12784,18838 6485,18838 6485,14836 6902,14422 6902,14422 C 6791,14154 6736,13863 6736,13550 6736,12920 6960,12380 7407,11933 7855,11486 8394,11264 9026,11264 9658,11264 10198,11486 10645,11933 10819,12106 10961,12294 11066,12496 L 11066,12496 11066,11978 11638,11406 12212,11406 12212,11121 12212,10834 13929,10834 Z"/></g><g style="stroke:none;fill:rgb(254,254,118)"><path d="M 13929,11121 L 13929,11121 13929,10834 12212,10834 12212,11121 13929,11121 Z"/></g><g style="stroke:none;fill:rgb(255,255,0)"><path d="M 13929,11406 L 13929,11406 13929,11121 12212,11121 12212,11406 13929,11406 Z"/></g><g style="stroke:none;fill:rgb(226,226,1)"><path d="M 13929,11978 L 13929,11978 13929,11692 12212,11692 12212,11978 13929,11978 Z"/></g><g style="stroke:none;fill:rgb(243,243,1)"><path d="M 13929,11692 L 13929,11692 13929,11406 12212,11406 12212,11692 13929,11692 Z"/></g><g style="stroke:none;fill:rgb(23,187,112)"><path d="M 12212,11692 L 12212,11692 12212,11406 11638,11406 11066,11978 11066,12496 11066,12496 C 11233,12812 11317,13164 11317,13550 11317,14181 11093,14720 10645,15167 10596,15217 10546,15263 10493,15308 L 10493,15308 10493,15408 9349,16552 8204,16552 8204,17695 10493,17695 10493,16552 11066,15979 11066,14836 11638,14836 11638,14265 11638,13693 12212,13693 12212,13407 12212,13121 11638,13121 11638,11978 12212,11978 12212,11692 Z"/></g><g style="stroke:none;fill:rgb(255,0,0)"><path d="M 12212,12836 L 12212,12836 12212,13121 13929,13121 13929,12836 12212,12836 Z"/></g><g style="stroke:none;fill:rgb(255,74,74)"><path d="M 12212,12550 L 12212,12550 12212,12836 13929,12836 13929,12550 12212,12550 Z"/></g><g style="stroke:none;fill:rgb(201,1,1)"><path d="M 12212,13121 L 12212,13121 12212,13407 13929,13407 13929,13121 12212,13121 Z"/></g><g style="stroke:none;fill:rgb(158,1,1)"><path d="M 12212,13407 L 12212,13407 12212,13693 13929,13693 13929,13407 12212,13407 Z"/></g><g style="stroke:none;fill:rgb(23,187,112)"><path d="M 13929,13121 L 13929,13121 14501,13121 14501,12550 13929,12550 13929,12836 13929,13121 Z"/><path d="M 13929,14836 L 13929,14836 14501,14836 14501,14265 13929,14265 13929,14836 Z"/></g><g style="stroke:none;fill:rgb(89,106,99)"><path d="M 13929,14836 L 13929,14836 13929,14265 13357,14836 13357,15408 13357,15979 13357,16552 13357,17123 13357,17695 12212,17695 11638,18266 12784,18266 13929,18266 13929,14836 Z"/></g><g style="stroke:none;fill:rgb(153,153,153)"><path d="M 13357,14836 L 13357,14836 13929,14265 11638,14265 11638,14836 11638,18266 12212,17695 12212,14836 13357,14836 Z"/></g><g style="stroke:none;fill:rgb(136,136,136)"><path d="M 13357,15408 L 13357,15408 13357,14836 12212,14836 12212,17695 13357,17695 13357,17123 12784,17123 12784,16552 13357,16552 13357,15979 12784,15979 12784,15408 13357,15408 Z"/></g><g style="stroke:none;fill:rgb(153,153,153)"><path d="M 12784,16552 L 12784,16552 12784,17123 13357,17123 13357,16552 12784,16552 Z"/><path d="M 13357,15979 L 13357,15979 13357,15408 12784,15408 12784,15979 13357,15979 Z"/></g><g style="stroke:none;fill:rgb(16,122,69)"><path d="M 11066,12496 L 11066,12496 11066,13693 10493,14265 10493,15308 10493,15308 C 10546,15263 10596,15217 10645,15167 11093,14720 11317,14181 11317,13550 11317,13164 11233,12812 11066,12496 Z"/></g><g style="stroke:none;fill:rgb(1,99,62)"><path d="M 11066,13693 L 11066,12496 11066,12496 C 10961,12294 10819,12106 10645,11933 10198,11486 9658,11264 9026,11264 8394,11264 7855,11486 7407,11933 6960,12380 6736,12920 6736,13550 6736,13863 6791,14154 6902,14422 L 6902,14422 8204,13121 8776,13121 8776,14265 7656,15385 7656,15385 C 8049,15687 8506,15837 9026,15837 9588,15837 10076,15660 10493,15308 L 10493,15308 10493,14265 11066,13693 Z"/></g><g style="stroke:none;fill:rgb(16,122,69)"><path d="M 8776,13121 L 8776,13121 8204,13121 6902,14422 6902,14422 C 7014,14693 7182,14941 7407,15167 7487,15247 7570,15319 7656,15385 L 7656,15385 8776,14265 8776,13121 Z"/></g><g style="stroke:none;fill:rgb(23,187,112)"><path d="M 7656,15385 L 7656,15385 C 7570,15319 7487,15247 7407,15167 7182,14941 7014,14693 6902,14422 L 6902,14422 6485,14836 6485,18838 12784,18838 12784,18266 11638,18266 7630,18266 7630,15408 7656,15385 Z"/></g><g style="stroke:none;fill:rgb(0,136,85)"><path d="M 7656,15385 L 7656,15385 7630,15408 7630,18266 11638,18266 11638,14836 11066,14836 11066,15979 10493,16552 10493,17695 8204,17695 8204,16552 9349,16552 10493,15408 10493,15308 10493,15308 C 10076,15660 9588,15837 9026,15837 8506,15837 8049,15687 7656,15385 Z"/></g><g style="stroke:rgb(0,136,85);stroke-width:2;stroke-linejoin:round;fill:rgb(255,255,255)"><path style="fill:none" d="M 12212,11978 L 12212,11978 13929,11978 13929,11692"/><path style="fill:none" d="M 13929,13693 L 13929,13693 13929,13407 13929,13121"/><path style="fill:none" d="M 13929,11406 L 13929,11121"/></g><g style="stroke:none;fill:rgb(136,136,136)"><path d="M 10493,13014 L 10493,13014 C 10493,12462 10298,11991 9907,11599 9515,11208 9042,11014 8490,11014 7937,11014 7464,11208 7072,11599 6681,11991 6485,12462 6485,13014 6485,13566 6681,14038 7072,14429 7464,14821 7937,15015 8490,15015 9042,15015 9515,14821 9907,14429 10298,14038 10493,13566 10493,13014 Z M 8183,11901 L 8183,11901 C 8192,11910 8204,11919 8214,11930 8326,12043 8382,12176 8382,12335 8382,12494 8326,12628 8214,12739 8173,12780 8129,12814 8080,12841 8000,12885 7908,12906 7810,12906 7651,12906 7516,12852 7403,12739 7293,12628 7237,12494 7237,12335 7237,12176 7293,12043 7403,11930 7516,11819 7651,11764 7810,11764 7955,11764 8078,11810 8183,11901 Z"/></g><g style="stroke:none;fill:rgb(153,153,153)"><path d="M 8214,11930 L 8214,11930 C 8204,11919 8192,11910 8183,11901 8078,11810 7955,11764 7810,11764 7651,11764 7516,11819 7403,11930 7293,12043 7237,12176 7237,12335 7237,12494 7293,12628 7403,12739 7516,12852 7651,12906 7810,12906 7908,12906 8000,12885 8080,12841 8129,12814 8173,12780 8214,12739 8326,12628 8382,12494 8382,12335 8382,12176 8326,12043 8214,11930 Z"/></g><g style="stroke:rgb(89,148,199);stroke-width:358;stroke-linejoin:round;fill:rgb(255,255,255)"><path style="fill:none" d="M 9907,11599 L 9907,11599 C 9515,11208 9042,11014 8490,11014 7937,11014 7464,11208 7072,11599 6681,11991 6485,12462 6485,13014 6485,13566 6681,14038 7072,14429 7464,14821 7937,15015 8490,15015 9042,15015 9515,14821 9907,14429 10298,14038 10493,13566 10493,13014 10493,12462 10298,11991 9907,11599"/></g><g style="stroke:none;fill:rgb(119,119,119)"><path d="M 7596,16497 L 7596,16497 C 7533,16478 7469,16470 7402,16470 7051,16580 7024,16753 7321,16990 7398,16898 7440,16852 7449,16855 7456,16856 7483,16949 7529,17130 7535,17155 7543,17177 7553,17197 7685,17180 7745,17222 7734,17325 7807,17339 7897,17335 8007,17309 8021,17221 8022,17133 8013,17043 8010,16997 8004,16954 7997,16909 7983,16833 7955,16765 7912,16706 7886,16670 7857,16637 7821,16608 7752,16558 7677,16520 7596,16497 Z"/></g><g style="stroke:none;fill:rgb(102,102,102)"><path d="M 7931,17473 L 7931,17473 C 7955,17441 7975,17405 7989,17367 7996,17349 8002,17329 8007,17309 7897,17335 7807,17339 7734,17325 7726,17405 7672,17521 7578,17674 7589,17667 7612,17653 7648,17631 7718,17587 7773,17560 7816,17550 7860,17541 7897,17516 7931,17473 Z"/></g><g style="stroke:none;fill:rgb(187,187,187)"><path d="M 7578,17674 L 7578,17674 C 7672,17521 7726,17405 7734,17325 7745,17222 7685,17180 7553,17197 7514,17202 7468,17213 7415,17228 7052,17339 6898,17304 6951,17127 6877,17124 6804,17113 6732,17094 6732,17275 6797,17429 6928,17557 7058,17684 7275,17723 7578,17676 7579,17674 7580,17674 7582,17674 7580,17674 7579,17674 7578,17674 Z"/></g><g style="stroke:none;fill:rgb(102,102,102)"><path d="M 7553,17197 L 7553,17197 C 7543,17177 7535,17155 7529,17130 7483,16949 7456,16856 7449,16855 7440,16852 7398,16898 7321,16990 7332,17008 7339,17030 7344,17052 7356,17098 7351,17111 7333,17092 7315,17072 7230,17048 7081,17019 7063,17014 7049,17012 7035,17012 7051,17087 7041,17125 7005,17127 6986,17127 6968,17127 6951,17127 6898,17304 7052,17339 7415,17228 7468,17213 7514,17202 7553,17197 Z"/></g><g style="stroke:none;fill:rgb(187,187,187)"><path d="M 7344,17052 L 7344,17052 C 7339,17030 7332,17008 7321,16990 6977,16849 6842,16811 6916,16875 6988,16939 7029,16984 7035,17012 7049,17012 7063,17014 7081,17019 7230,17048 7315,17072 7333,17092 7351,17111 7356,17098 7344,17052 Z"/></g><g style="stroke:none;fill:rgb(255,255,255)"><path d="M 7035,17012 L 7035,17012 C 7029,16984 6988,16939 6916,16875 6842,16811 6977,16849 7321,16990 7024,16753 7051,16580 7402,16470 7218,16470 7060,16531 6928,16653 6797,16774 6732,16921 6732,17094 6804,17113 6877,17124 6951,17127 6968,17127 6986,17127 7005,17127 7041,17125 7051,17087 7035,17012 Z"/></g><g style="stroke:none;fill:rgb(119,119,119)"><path d="M 9958,16497 L 9958,16497 C 9895,16478 9831,16470 9764,16470 9413,16580 9385,16753 9683,16990 9760,16898 9801,16852 9810,16855 9818,16856 9845,16949 9891,17130 9897,17155 9905,17177 9915,17197 10047,17180 10107,17222 10095,17325 10169,17339 10259,17335 10368,17309 10383,17221 10384,17133 10374,17043 10371,16997 10365,16954 10358,16909 10345,16833 10317,16765 10274,16706 10248,16670 10218,16637 10183,16608 10114,16558 10039,16520 9958,16497 Z"/></g><g style="stroke:none;fill:rgb(102,102,102)"><path d="M 10292,17473 L 10292,17473 C 10317,17441 10337,17405 10350,17367 10357,17349 10363,17329 10368,17309 10259,17335 10169,17339 10095,17325 10087,17405 10034,17521 9939,17674 9950,17667 9974,17653 10009,17631 10079,17587 10135,17560 10178,17550 10221,17541 10259,17516 10292,17473 Z"/></g><g style="stroke:none;fill:rgb(187,187,187)"><path d="M 9939,17674 L 9939,17674 C 10034,17521 10087,17405 10095,17325 10107,17222 10047,17180 9915,17197 9875,17202 9830,17213 9777,17228 9414,17339 9260,17304 9312,17127 9238,17124 9165,17113 9093,17094 9093,17275 9158,17429 9290,17557 9420,17684 9637,17723 9939,17676 9940,17674 9941,17674 9943,17674 9941,17674 9940,17674 9939,17674 Z"/></g><g style="stroke:none;fill:rgb(102,102,102)"><path d="M 9915,17197 L 9915,17197 C 9905,17177 9897,17155 9891,17130 9845,16949 9818,16856 9810,16855 9801,16852 9760,16898 9683,16990 9694,17008 9701,17030 9706,17052 9717,17098 9713,17111 9695,17092 9677,17072 9591,17048 9442,17019 9425,17014 9411,17012 9397,17012 9413,17087 9403,17125 9366,17127 9348,17127 9330,17127 9312,17127 9260,17304 9414,17339 9777,17228 9830,17213 9875,17202 9915,17197 Z"/></g><g style="stroke:none;fill:rgb(187,187,187)"><path d="M 9706,17052 L 9706,17052 C 9701,17030 9694,17008 9683,16990 9339,16849 9204,16811 9278,16875 9350,16939 9390,16984 9397,17012 9411,17012 9425,17014 9442,17019 9591,17048 9677,17072 9695,17092 9713,17111 9717,17098 9706,17052 Z"/></g><g style="stroke:none;fill:rgb(255,255,255)"><path d="M 9397,17012 L 9397,17012 C 9390,16984 9350,16939 9278,16875 9204,16811 9339,16849 9683,16990 9385,16753 9413,16580 9764,16470 9579,16470 9422,16531 9290,16653 9158,16774 9093,16921 9093,17094 9165,17113 9238,17124 9312,17127 9330,17127 9348,17127 9366,17127 9403,17125 9413,17087 9397,17012 Z"/></g></g></g></g></svg>