<?xml version="1.0" encoding="UTF-8"?>
<!DOCTYPE svg PUBLIC "-//W3C//DTD SVG 1.1//EN" "http://www.w3.org/Graphics/SVG/1.1/DTD/svg11.dtd"><svg version="1.1" viewBox="0 0 21000 29700" preserveAspectRatio="xMidYMid" fill-rule="evenodd" xmlns="http://www.w3.org/2000/svg" xmlns:xlink="http://www.w3.org/1999/xlink"><g visibility="visible" id="Default"><desc>Master slide</desc><g style="stroke:none;fill:none"><rect x="0" y="0" width="21000" height="29700"/></g></g><g visibility="visible" id="page1"><desc>Slide</desc><g><desc>Graphic</desc><g><g style="stroke:none;fill:rgb(0,136,85)"><path d="M 15074,10263 L 15074,10263 5913,10263 5913,19410 15074,19410 15074,10263 Z M 12784,12550 L 12784,12550 12212,12550 12212,11406 11066,11406 11066,12550 8204,12550 7058,13693 7058,17123 7630,17123 7630,18266 6485,18266 6485,10834 14501,10834 14501,12550 13929,12550 13929,11406 12784,11406 12784,12550 Z"/></g><g style="stroke:none;fill:rgb(23,187,112)"><path d="M 12212,12550 L 12212,12550 12784,12550 12784,11406 13929,11406 13929,12550 14501,12550 14501,10834 6485,10834 6485,18266 7630,18266 7630,17123 7058,17123 7058,13693 8204,12550 11066,12550 11066,11406 12212,11406 12212,12550 Z M 10493,11406 L 10493,11406 10493,11978 7630,11978 7058,12550 7058,11406 10493,11406 Z"/></g><g style="stroke:none;fill:rgb(0,136,85)"><path d="M 10493,11978 L 10493,11978 10493,11406 7058,11406 7058,12550 7630,11978 10493,11978 Z"/></g><g style="stroke:none;fill:rgb(102,102,102)"><path d="M 7058,14837 L 7058,14837 7058,15408 8204,15408 8204,14837 7058,14837 Z"/></g><g style="stroke:none;fill:rgb(153,153,153)"><path d="M 7058,14265 L 7058,14265 7058,14837 8204,14837 8204,14265 7058,14265 Z"/><path d="M 8204,15980 L 8204,15980 7058,15980 7058,16552 8204,16552 8204,15980 Z"/></g><g style="stroke:none;fill:rgb(102,102,102)"><path d="M 8204,17124 L 8204,17124 8204,16552 7058,16552 7058,17124 8204,17124 Z"/></g><g style="stroke:none;fill:rgb(0,95,59)"><path d="M 14730,14388 L 14730,14388 C 14768,14013 14578,13822 14158,13817 L 10150,13817 10150,13817 C 9959,13995 9769,13995 9577,13817 9246,13843 9055,14033 9005,14388 L 9005,18390 9005,18390 C 8998,18799 9190,18990 9577,18961 9769,18824 9959,18824 10150,18961 L 14158,18961 14158,18961 C 14557,19003 14747,18811 14730,18390 L 14730,14388 Z"/></g><g style="stroke:none;fill:rgb(173,3,3)"><path d="M 13357,13200 L 13357,13284 13357,13284 C 13451,13274 13547,13268 13645,13268 13704,13268 13761,13270 13820,13274 13786,13240 13743,13209 13695,13186 13678,13186 13661,13186 13645,13186 13547,13186 13451,13191 13357,13200 Z"/></g><g style="stroke:none;fill:rgb(178,4,4)"><path d="M 13357,13284 L 13357,13365 13357,13365 C 13451,13354 13547,13349 13645,13349 13725,13349 13804,13352 13881,13359 13865,13327 13843,13298 13820,13274 13761,13270 13704,13268 13645,13268 13547,13268 13451,13274 13357,13284 Z"/></g><g style="stroke:none;fill:rgb(183,6,5)"><path d="M 13357,13365 L 13357,13445 13357,13445 C 13451,13434 13547,13429 13645,13429 13736,13429 13828,13434 13915,13443 13906,13413 13893,13387 13881,13359 13804,13352 13725,13349 13645,13349 13547,13349 13451,13354 13357,13365 Z"/></g><g style="stroke:none;fill:rgb(194,8,7)"><path d="M 13357,13529 L 13357,13609 13357,13609 C 13449,13597 13547,13592 13645,13592 13743,13592 13840,13597 13934,13609 13934,13581 13933,13554 13931,13529 13838,13516 13743,13511 13645,13511 13547,13511 13451,13516 13357,13529 Z"/></g><g style="stroke:none;fill:rgb(189,7,6)"><path d="M 13357,13445 L 13357,13529 13357,13529 C 13451,13516 13547,13511 13645,13511 13743,13511 13838,13516 13931,13529 13927,13499 13922,13471 13915,13443 13828,13434 13736,13429 13645,13429 13547,13429 13451,13434 13357,13445 Z"/></g><g style="stroke:none;fill:rgb(167,2,1)"><path d="M 13645,13186 L 13645,13186 C 13661,13186 13678,13186 13695,13186 13607,13145 13495,13123 13357,13122 L 13357,13200 13357,13200 C 13451,13191 13547,13186 13645,13186 Z"/></g><g style="stroke:none;fill:rgb(199,10,8)"><path d="M 13934,13609 L 13934,13609 C 13840,13597 13743,13592 13645,13592 13547,13592 13449,13597 13357,13609 L 13357,13691 13357,13691 C 13449,13679 13547,13672 13645,13672 13743,13672 13838,13677 13929,13690 13931,13663 13933,13637 13934,13609 Z"/></g><g style="stroke:none;fill:rgb(205,11,9)"><path d="M 13929,13773 L 13929,13693 13929,13693 C 13929,13691 13929,13691 13929,13690 13838,13677 13743,13672 13645,13672 13547,13672 13449,13679 13357,13691 L 13357,13773 13357,13773 C 13449,13761 13547,13754 13645,13754 13743,13754 13838,13761 13929,13773 Z"/></g><g style="stroke:none;fill:rgb(221,15,13)"><path d="M 13929,14017 L 13929,13937 13929,13937 C 13838,13922 13743,13915 13645,13915 13547,13915 13449,13922 13357,13937 L 13357,14019 13357,14019 C 13449,14002 13547,13995 13645,13995 13743,13995 13838,14002 13929,14017 Z"/></g><g style="stroke:none;fill:rgb(216,14,11)"><path d="M 13929,13937 L 13929,13854 13929,13854 C 13838,13841 13743,13834 13645,13834 13547,13834 13449,13841 13357,13854 L 13357,13937 13357,13937 C 13449,13922 13547,13915 13645,13915 13743,13915 13838,13922 13929,13937 Z"/></g><g style="stroke:none;fill:rgb(226,16,14)"><path d="M 13929,14017 L 13929,14017 C 13838,14002 13743,13995 13645,13995 13547,13995 13449,14002 13357,14019 L 13357,14101 13357,14101 C 13449,14084 13547,14077 13645,14077 13743,14077 13838,14084 13929,14101 L 13929,14017 Z"/></g><g style="stroke:none;fill:rgb(210,12,10)"><path d="M 13645,13834 L 13645,13834 C 13743,13834 13838,13841 13929,13854 L 13929,13773 13929,13773 C 13838,13761 13743,13754 13645,13754 13547,13754 13449,13761 13357,13773 L 13357,13854 13357,13854 C 13449,13841 13547,13834 13645,13834 Z"/></g><g style="stroke:none;fill:rgb(232,18,15)"><path d="M 13357,14101 L 13357,14183 13357,14183 C 13449,14166 13547,14158 13645,14158 13743,14158 13838,14166 13929,14183 L 13929,14101 13929,14101 C 13838,14084 13743,14077 13645,14077 13547,14077 13449,14084 13357,14101 Z"/></g><g style="stroke:none;fill:rgb(237,19,16)"><path d="M 13357,14183 L 13357,14265 13357,14265 C 13448,14247 13545,14238 13645,14238 13743,14238 13838,14247 13929,14264 L 13929,14183 13929,14183 C 13838,14166 13743,14158 13645,14158 13547,14158 13449,14166 13357,14183 Z"/></g><g style="stroke:none;fill:rgb(248,22,18)"><path d="M 13357,14349 L 13357,14432 13357,14432 C 13448,14412 13545,14401 13645,14401 13743,14401 13838,14409 13929,14430 L 13929,14348 13929,14348 C 13838,14329 13743,14320 13645,14320 13545,14320 13448,14329 13357,14349 Z"/></g><g style="stroke:none;fill:rgb(242,20,17)"><path d="M 13357,14265 L 13357,14349 13357,14349 C 13448,14329 13545,14320 13645,14320 13743,14320 13838,14329 13929,14348 L 13929,14264 13929,14264 C 13838,14247 13743,14238 13645,14238 13545,14238 13448,14247 13357,14265 Z"/></g><g style="stroke:none;fill:rgb(253,23,19)"><path d="M 13929,14430 L 13929,14430 C 13838,14409 13743,14401 13645,14401 13545,14401 13448,14412 13357,14432 L 13357,14514 13357,14514 C 13448,14493 13545,14481 13645,14481 13743,14481 13838,14493 13929,14514 L 13929,14430 Z"/></g><g style="stroke:none;fill:rgb(255,35,18)"><path d="M 13929,14598 L 13929,14514 13929,14514 C 13838,14493 13743,14481 13645,14481 13545,14481 13448,14493 13357,14514 L 13357,14598 13357,14598 C 13448,14575 13545,14563 13645,14563 13743,14563 13838,14575 13929,14598 Z"/></g><g style="stroke:none;fill:rgb(255,51,17)"><path d="M 13929,14681 L 13929,14598 13929,14598 C 13838,14575 13743,14563 13645,14563 13545,14563 13448,14575 13357,14598 L 13357,14681 13357,14681 C 13448,14657 13542,14643 13645,14643 13744,14643 13840,14657 13929,14681 Z"/></g><g style="stroke:none;fill:rgb(255,98,13)"><path d="M 13929,14937 L 13929,14851 13929,14851 C 13842,14821 13746,14807 13645,14807 13542,14807 13446,14823 13357,14853 L 13357,14937 13357,14937 C 13446,14903 13542,14887 13645,14887 13746,14887 13842,14903 13929,14937 Z"/></g><g style="stroke:none;fill:rgb(255,82,14)"><path d="M 13929,14851 L 13929,14764 13929,14764 C 13840,14737 13744,14724 13645,14724 13542,14724 13448,14739 13357,14765 L 13357,14853 13357,14853 C 13446,14823 13542,14807 13645,14807 13746,14807 13842,14821 13929,14851 Z"/></g><g style="stroke:none;fill:rgb(255,114,12)"><path d="M 13929,14937 L 13929,14937 C 13842,14903 13746,14887 13645,14887 13542,14887 13446,14903 13357,14937 L 13357,15024 13357,15024 C 13444,14987 13540,14968 13645,14968 13746,14968 13842,14985 13929,15022 L 13929,14937 Z"/></g><g style="stroke:none;fill:rgb(255,67,16)"><path d="M 13645,14724 L 13645,14724 C 13744,14724 13840,14737 13929,14764 L 13929,14681 13929,14681 C 13840,14657 13744,14643 13645,14643 13542,14643 13448,14657 13357,14681 L 13357,14765 13357,14765 C 13448,14739 13542,14724 13645,14724 Z"/></g><g style="stroke:none;fill:rgb(255,129,10)"><path d="M 13357,15024 L 13357,15115 13357,15115 C 13444,15071 13539,15050 13645,15050 13748,15050 13843,15071 13929,15113 L 13929,15022 13929,15022 C 13842,14985 13746,14968 13645,14968 13540,14968 13444,14987 13357,15024 Z"/></g><g style="stroke:none;fill:rgb(255,161,8)"><path d="M 13357,15209 L 13357,15305 13357,15305 C 13439,15242 13535,15211 13645,15211 13752,15211 13847,15241 13929,15302 L 13929,15205 13929,15205 C 13845,15155 13750,15130 13645,15130 13539,15130 13442,15157 13357,15209 Z"/></g><g style="stroke:none;fill:rgb(255,145,9)"><path d="M 13357,15115 L 13357,15209 13357,15209 C 13442,15157 13539,15130 13645,15130 13750,15130 13845,15155 13929,15205 L 13929,15113 13929,15113 C 13843,15071 13748,15050 13645,15050 13539,15050 13444,15071 13357,15115 Z"/></g><g style="stroke:none;fill:rgb(255,176,6)"><path d="M 13929,15302 L 13929,15302 C 13847,15241 13752,15211 13645,15211 13535,15211 13439,15242 13357,15305 L 13357,15412 13357,15412 C 13357,15410 13357,15410 13358,15410 13437,15330 13532,15291 13645,15291 13756,15291 13851,15330 13929,15408 L 13929,15302 Z"/></g><g style="stroke:none;fill:rgb(255,192,5)"><path d="M 13929,15541 L 13929,15408 13929,15408 C 13851,15330 13756,15291 13645,15291 13532,15291 13437,15330 13358,15410 13357,15410 13357,15410 13357,15412 L 13357,15546 13357,15546 C 13373,15518 13392,15490 13416,15468 13479,15405 13556,15373 13645,15373 13734,15373 13811,15405 13873,15468 13897,15490 13915,15513 13929,15541 Z"/></g><g style="stroke:none;fill:rgb(255,208,4)"><path d="M 13929,15541 L 13929,15541 C 13915,15513 13897,15490 13873,15468 13811,15405 13734,15373 13645,15373 13556,15373 13479,15405 13416,15468 13392,15490 13373,15518 13357,15546 L 13357,15846 13357,15846 C 13373,15875 13392,15901 13416,15925 13479,15987 13556,16020 13645,16020 13734,16020 13811,15987 13873,15925 13897,15901 13915,15878 13929,15854 L 13929,15541 Z M 13645,15453 L 13645,15453 C 13711,15453 13768,15476 13816,15525 13865,15573 13888,15630 13888,15696 13888,15763 13865,15819 13816,15868 13768,15916 13711,15939 13645,15939 13578,15939 13521,15916 13472,15868 13425,15819 13401,15763 13401,15696 13401,15630 13425,15573 13472,15525 13521,15476 13578,15453 13645,15453 Z"/></g><g style="stroke:none;fill:rgb(255,223,2)"><path d="M 13816,15525 L 13816,15525 C 13768,15476 13711,15453 13645,15453 13578,15453 13521,15476 13472,15525 13425,15573 13401,15630 13401,15696 13401,15763 13425,15819 13472,15868 13521,15916 13578,15939 13645,15939 13711,15939 13768,15916 13816,15868 13865,15819 13888,15763 13888,15696 13888,15630 13865,15573 13816,15525 Z M 13645,15534 L 13645,15534 C 13690,15534 13729,15550 13760,15581 13791,15612 13807,15651 13807,15696 13807,15740 13791,15780 13760,15810 13729,15843 13690,15859 13645,15859 13600,15859 13561,15843 13530,15810 13498,15780 13482,15740 13482,15696 13482,15651 13498,15612 13530,15581 13561,15550 13600,15534 13645,15534 Z"/></g><g style="stroke:none;fill:rgb(255,239,1)"><path d="M 13760,15581 L 13760,15581 C 13729,15550 13690,15534 13645,15534 13600,15534 13561,15550 13530,15581 13498,15612 13482,15651 13482,15696 13482,15740 13498,15780 13530,15810 13561,15843 13600,15859 13645,15859 13690,15859 13729,15843 13760,15810 13791,15780 13807,15740 13807,15696 13807,15651 13791,15612 13760,15581 Z M 13725,15696 L 13725,15696 C 13725,15719 13718,15737 13702,15754 13686,15770 13668,15777 13645,15777 13622,15777 13603,15770 13587,15754 13571,15737 13564,15719 13564,15696 13564,15672 13571,15655 13587,15639 13603,15623 13622,15616 13645,15616 13668,15616 13686,15623 13702,15639 13718,15655 13725,15672 13725,15696 Z"/></g><g style="stroke:none;fill:rgb(255,255,0)"><path d="M 13702,15754 L 13702,15754 C 13718,15737 13725,15719 13725,15696 13725,15672 13718,15655 13702,15639 13686,15623 13668,15616 13645,15616 13622,15616 13603,15623 13587,15639 13571,15655 13564,15672 13564,15696 13564,15719 13571,15737 13587,15754 13603,15770 13622,15777 13645,15777 13668,15777 13686,15770 13702,15754 Z"/></g><g style="stroke:none;fill:rgb(255,161,8)"><path d="M 13357,16089 L 13357,16186 13357,16186 C 13442,16238 13539,16262 13645,16262 13750,16262 13845,16238 13929,16187 L 13929,16091 13929,16091 C 13847,16152 13752,16182 13645,16182 13535,16182 13439,16152 13357,16089 Z"/></g><g style="stroke:none;fill:rgb(255,176,6)"><path d="M 13357,15980 L 13357,16089 13357,16089 C 13439,16152 13535,16182 13645,16182 13752,16182 13847,16152 13929,16091 L 13929,15983 13929,15983 C 13851,16062 13756,16102 13645,16102 13532,16102 13437,16062 13358,15982 13357,15982 13357,15982 13357,15980 Z"/></g><g style="stroke:none;fill:rgb(255,192,5)"><path d="M 13357,15980 L 13357,15980 C 13357,15982 13357,15982 13358,15982 13437,16062 13532,16102 13645,16102 13756,16102 13851,16062 13929,15983 L 13929,15854 13929,15854 C 13915,15878 13897,15901 13873,15925 13811,15987 13734,16020 13645,16020 13556,16020 13479,15987 13416,15925 13392,15901 13373,15875 13357,15846 L 13357,15980 Z"/></g><g style="stroke:none;fill:rgb(255,145,9)"><path d="M 13929,16187 L 13929,16187 C 13845,16238 13750,16262 13645,16262 13539,16262 13442,16238 13357,16186 L 13357,16278 13357,16278 C 13444,16323 13539,16345 13645,16345 13748,16345 13843,16323 13929,16280 L 13929,16187 Z"/></g><g style="stroke:none;fill:rgb(255,129,10)"><path d="M 13929,16369 L 13929,16280 13929,16280 C 13843,16323 13748,16345 13645,16345 13539,16345 13444,16323 13357,16278 L 13357,16368 13357,16368 C 13444,16406 13540,16425 13645,16425 13746,16425 13842,16407 13929,16369 Z"/></g><g style="stroke:none;fill:rgb(255,114,12)"><path d="M 13929,16457 L 13929,16369 13929,16369 C 13842,16407 13746,16425 13645,16425 13540,16425 13444,16406 13357,16368 L 13357,16455 13357,16455 C 13446,16489 13542,16505 13645,16505 13746,16505 13842,16489 13929,16457 Z"/></g><g style="stroke:none;fill:rgb(255,82,14)"><path d="M 13929,16629 L 13929,16542 13929,16542 C 13842,16572 13746,16586 13645,16586 13542,16586 13446,16572 13357,16541 L 13357,16627 13357,16627 C 13448,16654 13542,16668 13645,16668 13744,16668 13840,16656 13929,16629 Z"/></g><g style="stroke:none;fill:rgb(255,98,13)"><path d="M 13929,16457 L 13929,16457 C 13842,16489 13746,16505 13645,16505 13542,16505 13446,16489 13357,16455 L 13357,16541 13357,16541 C 13446,16572 13542,16586 13645,16586 13746,16586 13842,16572 13929,16542 L 13929,16457 Z"/></g><g style="stroke:none;fill:rgb(255,67,16)"><path d="M 13929,16629 L 13929,16629 C 13840,16656 13744,16668 13645,16668 13542,16668 13448,16654 13357,16627 L 13357,16711 13357,16711 C 13448,16736 13542,16748 13645,16748 13744,16748 13840,16736 13929,16713 L 13929,16629 Z"/></g><g style="stroke:none;fill:rgb(242,20,17)"><path d="M 13357,17045 L 13357,17129 13357,17129 C 13448,17145 13545,17154 13645,17154 13743,17154 13838,17145 13929,17129 L 13929,17045 13929,17045 C 13838,17063 13743,17071 13645,17071 13545,17071 13448,17063 13357,17045 Z"/></g><g style="stroke:none;fill:rgb(248,22,18)"><path d="M 13357,16963 L 13357,17045 13357,17045 C 13448,17063 13545,17071 13645,17071 13743,17071 13838,17063 13929,17045 L 13929,16963 13929,16963 C 13838,16982 13743,16991 13645,16991 13545,16991 13448,16982 13357,16963 Z"/></g><g style="stroke:none;fill:rgb(253,23,19)"><path d="M 13357,16881 L 13357,16963 13357,16963 C 13448,16982 13545,16991 13645,16991 13743,16991 13838,16982 13929,16963 L 13929,16881 13929,16881 C 13838,16900 13743,16911 13645,16911 13545,16911 13448,16900 13357,16881 Z"/></g><g style="stroke:none;fill:rgb(255,35,18)"><path d="M 13357,16795 L 13357,16881 13357,16881 C 13448,16900 13545,16911 13645,16911 13743,16911 13838,16900 13929,16881 L 13929,16797 13929,16797 C 13838,16818 13743,16829 13645,16829 13545,16829 13448,16818 13357,16795 Z"/></g><g style="stroke:none;fill:rgb(255,51,17)"><path d="M 13357,16711 L 13357,16795 13357,16795 C 13448,16818 13545,16829 13645,16829 13743,16829 13838,16818 13929,16797 L 13929,16713 13929,16713 C 13840,16736 13744,16748 13645,16748 13542,16748 13448,16736 13357,16711 Z"/></g><g style="stroke:none;fill:rgb(232,18,15)"><path d="M 13929,17293 L 13929,17211 13929,17211 C 13838,17227 13743,17234 13645,17234 13547,17234 13449,17227 13357,17211 L 13357,17291 13357,17291 C 13449,17307 13547,17314 13645,17314 13743,17314 13838,17307 13929,17293 Z"/></g><g style="stroke:none;fill:rgb(221,15,13)"><path d="M 13929,17457 L 13929,17375 13929,17375 C 13838,17389 13743,17397 13645,17397 13547,17397 13449,17389 13357,17375 L 13357,17456 13357,17456 C 13449,17470 13547,17477 13645,17477 13743,17477 13838,17470 13929,17457 Z"/></g><g style="stroke:none;fill:rgb(216,14,11)"><path d="M 13929,17538 L 13929,17457 13929,17457 C 13838,17470 13743,17477 13645,17477 13547,17477 13449,17470 13357,17456 L 13357,17538 13357,17538 C 13449,17550 13547,17557 13645,17557 13743,17557 13838,17550 13929,17538 Z"/></g><g style="stroke:none;fill:rgb(226,16,14)"><path d="M 13645,17397 L 13645,17397 C 13743,17397 13838,17389 13929,17375 L 13929,17293 13929,17293 C 13838,17307 13743,17314 13645,17314 13547,17314 13449,17307 13357,17291 L 13357,17375 13357,17375 C 13449,17389 13547,17397 13645,17397 Z"/></g><g style="stroke:none;fill:rgb(237,19,16)"><path d="M 13645,17234 L 13645,17234 C 13743,17234 13838,17227 13929,17211 L 13929,17129 13929,17129 C 13838,17145 13743,17154 13645,17154 13545,17154 13448,17145 13357,17129 L 13357,17211 13357,17211 C 13449,17227 13547,17234 13645,17234 Z"/></g><g style="stroke:none;fill:rgb(210,12,10)"><path d="M 13929,17538 L 13929,17538 C 13838,17550 13743,17557 13645,17557 13547,17557 13449,17550 13357,17538 L 13357,17620 13357,17620 C 13449,17632 13547,17639 13645,17639 13743,17639 13838,17634 13929,17622 L 13929,17538 Z"/></g><g style="stroke:none;fill:rgb(183,6,5)"><path d="M 13357,17947 L 13357,18027 13357,18027 C 13451,18038 13547,18043 13645,18043 13725,18043 13804,18039 13881,18032 13891,18008 13901,17981 13908,17950 13821,17959 13734,17963 13645,17963 13547,17963 13451,17957 13357,17947 Z"/></g><g style="stroke:none;fill:rgb(189,7,6)"><path d="M 13357,17865 L 13357,17947 13357,17947 C 13451,17957 13547,17963 13645,17963 13734,17963 13821,17959 13908,17950 13913,17924 13919,17896 13924,17865 13833,17875 13739,17881 13645,17881 13547,17881 13451,17875 13357,17865 Z"/></g><g style="stroke:none;fill:rgb(194,8,7)"><path d="M 13357,17782 L 13357,17865 13357,17865 C 13451,17875 13547,17881 13645,17881 13739,17881 13833,17875 13924,17865 13926,17838 13927,17812 13929,17784 13838,17795 13743,17800 13645,17800 13547,17800 13449,17795 13357,17782 Z"/></g><g style="stroke:none;fill:rgb(199,10,8)"><path d="M 13357,17702 L 13357,17782 13357,17782 C 13449,17795 13547,17800 13645,17800 13743,17800 13838,17795 13929,17784 13931,17758 13931,17731 13929,17702 13838,17714 13743,17720 13645,17720 13547,17720 13449,17714 13357,17702 Z"/></g><g style="stroke:none;fill:rgb(205,11,9)"><path d="M 13357,17620 L 13357,17702 13357,17702 C 13449,17714 13547,17720 13645,17720 13743,17720 13838,17714 13929,17702 13929,17700 13929,17697 13929,17695 L 13929,17622 13929,17622 C 13838,17634 13743,17639 13645,17639 13547,17639 13449,17632 13357,17620 Z"/></g><g style="stroke:none;fill:rgb(167,2,1)"><path d="M 13645,18207 L 13645,18207 C 13547,18207 13451,18200 13357,18191 L 13357,18267 13357,18267 C 13516,18283 13641,18261 13736,18205 13706,18207 13675,18207 13645,18207 Z"/></g><g style="stroke:none;fill:rgb(173,3,3)"><path d="M 13357,18191 L 13357,18191 C 13451,18200 13547,18207 13645,18207 13675,18207 13706,18207 13736,18205 13774,18181 13804,18153 13831,18118 13770,18122 13707,18124 13645,18124 13547,18124 13451,18118 13357,18109 L 13357,18191 Z"/></g><g style="stroke:none;fill:rgb(178,4,4)"><path d="M 13357,18109 L 13357,18109 C 13451,18118 13547,18124 13645,18124 13707,18124 13770,18122 13831,18118 13851,18092 13866,18063 13881,18032 13804,18039 13725,18043 13645,18043 13547,18043 13451,18038 13357,18027 L 13357,18109 Z"/></g><g style="stroke:none;fill:rgb(255,25,19)"><path d="M 13357,13729 L 13357,13624 13357,13624 C 12760,13501 12092,13438 11352,13438 10614,13438 9944,13501 9349,13624 L 9349,13729 9349,13729 C 9939,13595 10607,13527 11352,13527 12099,13527 12766,13595 13357,13729 Z"/></g><g style="stroke:none;fill:rgb(255,41,18)"><path d="M 13357,13838 L 13357,13729 13357,13729 C 12766,13595 12099,13527 11352,13527 10607,13527 9939,13595 9349,13729 L 9349,13838 9349,13838 C 9932,13691 10600,13618 11352,13618 12106,13618 12774,13691 13357,13838 Z"/></g><g style="stroke:none;fill:rgb(255,56,17)"><path d="M 13357,13953 L 13357,13838 13357,13838 C 12774,13691 12106,13618 11352,13618 10600,13618 9932,13691 9349,13838 L 9349,13953 9349,13953 C 9923,13790 10593,13710 11352,13710 12113,13710 12783,13790 13357,13953 Z"/></g><g style="stroke:none;fill:rgb(255,87,14)"><path d="M 13357,14197 L 13357,14070 13357,14070 C 12793,13890 12123,13801 11352,13801 10581,13801 9912,13890 9349,14070 L 9349,14196 9349,14196 C 9358,14192 9368,14189 9379,14185 9925,13990 10581,13892 11352,13892 12123,13892 12781,13990 13324,14185 13336,14189 13346,14192 13357,14197 Z"/></g><g style="stroke:none;fill:rgb(255,102,13)"><path d="M 13357,14197 L 13357,14197 C 13346,14192 13336,14189 13324,14185 12781,13990 12123,13892 11352,13892 10581,13892 9925,13990 9379,14185 9368,14189 9358,14192 9349,14196 L 9349,14334 9349,14334 C 9413,14303 9483,14274 9560,14247 10055,14070 10653,13983 11352,13983 12052,13983 12650,14070 13146,14247 13222,14274 13292,14303 13357,14334 L 13357,14197 Z"/></g><g style="stroke:none;fill:rgb(255,117,11)"><path d="M 13357,14494 L 13357,14334 13357,14334 C 13292,14303 13222,14274 13146,14247 12650,14070 12052,13983 11352,13983 10653,13983 10055,14070 9560,14247 9483,14274 9413,14303 9349,14334 L 9349,14494 9349,14494 C 9450,14428 9581,14367 9738,14311 10184,14152 10722,14072 11352,14072 11982,14072 12521,14152 12966,14311 13124,14367 13254,14428 13357,14494 Z"/></g><g style="stroke:none;fill:rgb(255,71,15)"><path d="M 13357,14070 L 13357,13953 13357,13953 C 12783,13790 12113,13710 11352,13710 10593,13710 9923,13790 9349,13953 L 9349,14070 9349,14070 C 9912,13890 10581,13801 11352,13801 12123,13801 12793,13890 13357,14070 Z"/></g><g style="stroke:none;fill:rgb(255,23,20)"><path d="M 13357,13624 L 13357,13624 13357,13122 9349,13122 9349,13624 9349,13624 C 9944,13501 10614,13438 11352,13438 12092,13438 12760,13501 13357,13624 Z"/></g><g style="stroke:none;fill:rgb(255,132,10)"><path d="M 13357,14494 L 13357,14494 C 13254,14428 13124,14367 12966,14311 12521,14152 11982,14072 11352,14072 10722,14072 10184,14152 9738,14311 9581,14367 9450,14428 9349,14494 L 9349,14771 9349,14771 C 9413,14621 9602,14488 9918,14376 10313,14235 10792,14163 11352,14163 11912,14163 12392,14235 12788,14376 13102,14488 13292,14621 13357,14771 L 13357,14494 Z"/></g><g style="stroke:none;fill:rgb(255,148,9)"><path d="M 13357,15010 L 13357,14771 13357,14771 C 13292,14621 13102,14488 12788,14376 12392,14235 11912,14163 11352,14163 10792,14163 10313,14235 9918,14376 9602,14488 9413,14621 9349,14771 L 9349,15010 9349,15010 C 9413,15160 9602,15293 9918,15405 10313,15546 10792,15618 11352,15618 11912,15618 12392,15546 12788,15405 13102,15293 13292,15160 13357,15010 Z M 13128,14891 L 13128,14891 C 13128,15066 12954,15216 12607,15340 12261,15464 11843,15527 11352,15527 10862,15527 10443,15464 10099,15340 9752,15216 9577,15066 9577,14891 9577,14715 9752,14565 10099,14440 10443,14317 10862,14255 11352,14255 11843,14255 12261,14317 12607,14440 12954,14565 13128,14715 13128,14891 Z"/></g><g style="stroke:none;fill:rgb(255,163,7)"><path d="M 12607,15340 L 12607,15340 C 12954,15216 13128,15066 13128,14891 13128,14715 12954,14565 12607,14440 12261,14317 11843,14255 11352,14255 10862,14255 10443,14317 10099,14440 9752,14565 9577,14715 9577,14891 9577,15066 9752,15216 10099,15340 10443,15464 10862,15527 11352,15527 11843,15527 12261,15464 12607,15340 Z M 12428,15276 L 12428,15276 C 12130,15382 11773,15435 11352,15435 10932,15435 10574,15382 10277,15276 9980,15169 9832,15040 9832,14891 9832,14741 9980,14612 10277,14505 10574,14399 10932,14346 11352,14346 11773,14346 12130,14399 12428,14505 12725,14612 12873,14741 12873,14891 12873,15040 12725,15169 12428,15276 Z"/></g><g style="stroke:none;fill:rgb(255,178,6)"><path d="M 11352,15435 L 11352,15435 C 11773,15435 12130,15382 12428,15276 12725,15169 12873,15040 12873,14891 12873,14741 12725,14612 12428,14505 12130,14399 11773,14346 11352,14346 10932,14346 10574,14399 10277,14505 9980,14612 9832,14741 9832,14891 9832,15040 9980,15169 10277,15276 10574,15382 10932,15435 11352,15435 Z M 12249,15212 L 12249,15212 C 12001,15300 11701,15344 11352,15344 11003,15344 10705,15300 10457,15212 10207,15123 10084,15015 10084,14891 10084,14765 10207,14659 10457,14569 10705,14481 11003,14437 11352,14437 11701,14437 12001,14481 12249,14569 12498,14659 12621,14765 12621,14891 12621,15015 12498,15123 12249,15212 Z"/></g><g style="stroke:none;fill:rgb(255,193,5)"><path d="M 11352,15344 L 11352,15344 C 11701,15344 12001,15300 12249,15212 12498,15123 12621,15015 12621,14891 12621,14765 12498,14659 12249,14569 12001,14481 11701,14437 11352,14437 11003,14437 10705,14481 10457,14569 10207,14659 10084,14765 10084,14891 10084,15015 10207,15123 10457,15212 10705,15300 11003,15344 11352,15344 Z M 12071,14633 L 12071,14633 C 12268,14704 12367,14790 12367,14891 12367,14991 12268,15076 12071,15148 11872,15218 11633,15253 11352,15253 11071,15253 10834,15218 10635,15148 10436,15076 10338,14991 10338,14891 10338,14790 10436,14704 10635,14633 10834,14563 11071,14528 11352,14528 11633,14528 11872,14563 12071,14633 Z"/></g><g style="stroke:none;fill:rgb(255,209,3)"><path d="M 12367,14891 L 12367,14891 C 12367,14790 12268,14704 12071,14633 11872,14563 11633,14528 11352,14528 11071,14528 10834,14563 10635,14633 10436,14704 10338,14790 10338,14891 10338,14991 10436,15076 10635,15148 10834,15218 11071,15253 11352,15253 11633,15253 11872,15218 12071,15148 12268,15076 12367,14991 12367,14891 Z M 11891,14697 L 11891,14697 C 12040,14751 12113,14816 12113,14891 12113,14966 12040,15029 11891,15083 11743,15137 11562,15164 11352,15164 11143,15164 10963,15137 10814,15083 10666,15029 10593,14966 10593,14891 10593,14816 10666,14751 10814,14697 10963,14643 11143,14617 11352,14617 11562,14617 11743,14643 11891,14697 Z"/></g><g style="stroke:none;fill:rgb(255,224,2)"><path d="M 12113,14891 L 12113,14891 C 12113,14816 12040,14751 11891,14697 11743,14643 11562,14617 11352,14617 11143,14617 10963,14643 10814,14697 10666,14751 10593,14816 10593,14891 10593,14966 10666,15029 10814,15083 10963,15137 11143,15164 11352,15164 11562,15164 11743,15137 11891,15083 12040,15029 12113,14966 12113,14891 Z M 11352,14708 L 11352,14708 C 11492,14708 11612,14727 11710,14762 11809,14797 11859,14840 11859,14891 11859,14940 11809,14984 11710,15019 11612,15055 11492,15073 11352,15073 11213,15073 11093,15055 10994,15019 10896,14984 10846,14940 10846,14891 10846,14840 10896,14797 10994,14762 11093,14727 11213,14708 11352,14708 Z"/></g><g style="stroke:none;fill:rgb(255,239,1)"><path d="M 11710,14762 L 11710,14762 C 11612,14727 11492,14708 11352,14708 11213,14708 11093,14727 10994,14762 10896,14797 10846,14840 10846,14891 10846,14940 10896,14984 10994,15019 11093,15055 11213,15073 11352,15073 11492,15073 11612,15055 11710,15019 11809,14984 11859,14940 11859,14891 11859,14840 11809,14797 11710,14762 Z M 11532,14826 L 11532,14826 C 11582,14844 11607,14865 11607,14891 11607,14916 11582,14937 11532,14954 11483,14973 11422,14982 11352,14982 11282,14982 11221,14973 11174,14954 11123,14937 11099,14916 11099,14891 11099,14865 11123,14844 11174,14826 11221,14809 11282,14799 11352,14799 11422,14799 11483,14809 11532,14826 Z"/></g><g style="stroke:none;fill:rgb(255,255,0)"><path d="M 11607,14891 L 11607,14891 C 11607,14865 11582,14844 11532,14826 11483,14809 11422,14799 11352,14799 11282,14799 11221,14809 11174,14826 11123,14844 11099,14865 11099,14891 11099,14916 11123,14937 11174,14954 11221,14973 11282,14982 11352,14982 11422,14982 11483,14973 11532,14954 11582,14937 11607,14916 11607,14891 Z"/></g><g style="stroke:none;fill:rgb(255,132,10)"><path d="M 13357,15287 L 13357,15010 13357,15010 C 13292,15160 13102,15293 12788,15405 12392,15546 11912,15618 11352,15618 10792,15618 10313,15546 9918,15405 9602,15293 9413,15160 9349,15010 L 9349,15287 9349,15287 C 9450,15351 9581,15412 9738,15468 10184,15628 10722,15709 11352,15709 11982,15709 12521,15628 12966,15468 13124,15412 13254,15351 13357,15287 Z"/></g><g style="stroke:none;fill:rgb(255,102,13)"><path d="M 13357,15585 L 13357,15448 13357,15448 C 13292,15476 13222,15505 13146,15532 12650,15709 12052,15798 11352,15798 10653,15798 10055,15709 9560,15532 9483,15505 9413,15476 9349,15448 L 9349,15585 9349,15585 C 9358,15589 9368,15592 9379,15597 9925,15791 10581,15889 11352,15889 12123,15889 12781,15791 13324,15597 13336,15592 13346,15589 13357,15585 Z"/></g><g style="stroke:none;fill:rgb(255,87,14)"><path d="M 13357,15585 L 13357,15585 C 13346,15589 13336,15592 13324,15597 12781,15791 12123,15889 11352,15889 10581,15889 9925,15791 9379,15597 9368,15592 9358,15589 9349,15585 L 9349,15710 9349,15710 C 9912,15891 10581,15980 11352,15980 12123,15980 12793,15891 13357,15710 L 13357,15585 Z"/></g><g style="stroke:none;fill:rgb(255,25,19)"><path d="M 13357,16159 L 13357,16051 13357,16051 C 12766,16186 12099,16254 11352,16254 10607,16254 9939,16186 9349,16051 L 9349,16159 9349,16159 C 9944,16282 10614,16343 11352,16343 12092,16343 12760,16282 13357,16159 Z"/></g><g style="stroke:none;fill:rgb(255,56,17)"><path d="M 13357,15943 L 13357,15830 13357,15830 C 12783,15991 12113,16072 11352,16072 10593,16072 9923,15991 9349,15830 L 9349,15943 9349,15943 C 9932,16089 10600,16163 11352,16163 12106,16163 12774,16089 13357,15943 Z"/></g><g style="stroke:none;fill:rgb(255,41,18)"><path d="M 13357,16051 L 13357,15943 13357,15943 C 12774,16089 12106,16163 11352,16163 10600,16163 9932,16089 9349,15943 L 9349,16051 9349,16051 C 9939,16186 10607,16254 11352,16254 12099,16254 12766,16186 13357,16051 Z"/></g><g style="stroke:none;fill:rgb(255,71,15)"><path d="M 13357,15830 L 13357,15710 13357,15710 C 12793,15891 12123,15980 11352,15980 10581,15980 9912,15891 9349,15710 L 9349,15830 9349,15830 C 9923,15991 10593,16072 11352,16072 12113,16072 12783,15991 13357,15830 Z"/></g><g style="stroke:none;fill:rgb(255,117,11)"><path d="M 13146,15532 L 13146,15532 C 13222,15505 13292,15476 13357,15448 L 13357,15287 13357,15287 C 13254,15351 13124,15412 12966,15468 12521,15628 11982,15709 11352,15709 10722,15709 10184,15628 9738,15468 9581,15412 9450,15351 9349,15287 L 9349,15448 9349,15448 C 9413,15476 9483,15505 9560,15532 10055,15709 10653,15798 11352,15798 12052,15798 12650,15709 13146,15532 Z"/></g><g style="stroke:none;fill:rgb(251,22,19)"><path d="M 13357,16761 L 13357,16664 13357,16664 C 12739,16754 12072,16799 11352,16799 10633,16799 9966,16754 9349,16664 L 9349,16761 9349,16761 C 9968,16844 10635,16888 11352,16888 12071,16888 12737,16844 13357,16761 Z"/></g><g style="stroke:none;fill:rgb(245,20,17)"><path d="M 13357,16860 L 13357,16761 13357,16761 C 12737,16844 12071,16888 11352,16888 10635,16888 9968,16844 9349,16761 L 9349,16860 9349,16860 C 9970,16940 10638,16979 11352,16979 12066,16979 12736,16940 13357,16860 Z"/></g><g style="stroke:none;fill:rgb(239,18,15)"><path d="M 13357,16956 L 13357,16860 13357,16860 C 12736,16940 12066,16979 11352,16979 10638,16979 9970,16940 9349,16860 L 9349,16956 9349,16956 C 9973,17033 10640,17070 11352,17070 12064,17070 12732,17033 13357,16956 Z"/></g><g style="stroke:none;fill:rgb(233,16,14)"><path d="M 13357,17052 L 13357,16956 13357,16956 C 12732,17033 12064,17070 11352,17070 10640,17070 9973,17033 9349,16956 L 9349,17052 9349,17052 C 9975,17125 10642,17161 11352,17161 12062,17161 12730,17125 13357,17052 Z"/></g><g style="stroke:none;fill:rgb(226,14,12)"><path d="M 13357,17148 L 13357,17052 13357,17052 C 12730,17125 12062,17161 11352,17161 10642,17161 9975,17125 9349,17052 L 9349,17148 9349,17148 C 9977,17218 10644,17252 11352,17252 12061,17252 12729,17218 13357,17148 Z"/></g><g style="stroke:none;fill:rgb(195,4,4)"><path d="M 13357,17620 L 13357,17526 13357,17526 C 12723,17585 12055,17615 11352,17615 10649,17615 9982,17585 9349,17526 L 9349,17620 9349,17620 C 9984,17677 10651,17706 11352,17706 12054,17706 12722,17677 13357,17620 Z"/></g><g style="stroke:none;fill:rgb(214,10,9)"><path d="M 13357,17337 L 13357,17243 13357,17243 C 12727,17309 12059,17344 11352,17344 10645,17344 9979,17309 9349,17243 L 9349,17337 9349,17337 C 9980,17400 10647,17433 11352,17433 12057,17433 12725,17400 13357,17337 Z"/></g><g style="stroke:none;fill:rgb(208,8,7)"><path d="M 13357,17431 L 13357,17337 13357,17337 C 12725,17400 12057,17433 11352,17433 10647,17433 9980,17400 9349,17337 L 9349,17431 9349,17431 C 9980,17494 10649,17524 11352,17524 12055,17524 12725,17494 13357,17431 Z"/></g><g style="stroke:none;fill:rgb(201,6,5)"><path d="M 13357,17526 L 13357,17431 13357,17431 C 12725,17494 12055,17524 11352,17524 10649,17524 9980,17494 9349,17431 L 9349,17526 9349,17526 C 9982,17585 10649,17615 11352,17615 12055,17615 12723,17585 13357,17526 Z"/></g><g style="stroke:none;fill:rgb(220,12,10)"><path d="M 13357,17243 L 13357,17148 13357,17148 C 12729,17218 12061,17252 11352,17252 10644,17252 9977,17218 9349,17148 L 9349,17243 9349,17243 C 9979,17309 10645,17344 11352,17344 12059,17344 12727,17309 13357,17243 Z"/></g><g style="stroke:none;fill:rgb(189,2,2)"><path d="M 13357,17620 L 13357,17620 C 12722,17677 12054,17706 11352,17706 10651,17706 9984,17677 9349,17620 L 9349,17620 9349,18267 13357,18267 13357,17620 Z"/></g><g style="stroke:none;fill:rgb(255,23,20)"><path d="M 11352,16799 L 11352,16799 C 12072,16799 12739,16754 13357,16664 L 13357,16159 13357,16159 C 12760,16282 12092,16343 11352,16343 10614,16343 9944,16282 9349,16159 L 9349,16664 9349,16664 C 9966,16754 10633,16799 11352,16799 Z"/></g><g style="stroke:none;fill:rgb(131,1,1)"><path d="M 9349,13122 L 9349,13122 C 9335,13136 9319,13149 9304,13161 9311,13213 9318,13268 9323,13327 9333,13408 9340,13490 9349,13574 L 9349,13122 Z"/></g><g style="stroke:none;fill:rgb(163,7,6)"><path d="M 9251,13198 L 9251,13198 C 9244,13202 9237,13206 9232,13209 9251,13326 9272,13467 9290,13633 9312,13852 9333,14088 9349,14344 L 9349,14121 9349,14121 C 9335,13922 9318,13735 9298,13558 9282,13422 9268,13302 9251,13198 Z"/></g><g style="stroke:none;fill:rgb(170,8,7)"><path d="M 9232,13209 L 9232,13209 C 9225,13213 9218,13216 9211,13220 9236,13347 9260,13509 9282,13710 9312,13978 9335,14274 9349,14598 L 9349,14344 9349,14344 C 9333,14088 9312,13852 9290,13633 9272,13467 9251,13326 9232,13209 Z"/></g><g style="stroke:none;fill:rgb(190,12,10)"><path d="M 9157,13242 L 9157,13242 C 9143,13245 9129,13249 9115,13252 9169,13340 9216,13569 9258,13939 9309,14423 9336,15008 9336,15695 9336,16380 9309,16966 9258,17450 9211,17870 9155,18108 9092,18165 9110,18167 9129,18168 9148,18172 9191,18053 9230,17836 9265,17526 9309,17117 9338,16640 9347,16095 L 9347,16095 9349,15695 9347,15296 9347,15296 C 9338,14750 9309,14273 9265,13864 9232,13572 9197,13365 9157,13242 Z"/></g><g style="stroke:none;fill:rgb(183,10,9)"><path d="M 9188,13231 L 9188,13231 C 9176,13235 9166,13238 9157,13242 9197,13365 9232,13572 9265,13864 9309,14273 9338,14750 9347,15296 L 9349,14896 9349,14896 C 9335,14483 9309,14114 9274,13787 9246,13547 9218,13361 9188,13231 Z"/></g><g style="stroke:none;fill:rgb(177,9,8)"><path d="M 9211,13220 L 9211,13220 C 9202,13223 9195,13228 9188,13231 9218,13361 9246,13547 9274,13787 9309,14114 9335,14483 9349,14896 L 9349,14598 9349,14598 C 9335,14274 9312,13978 9282,13710 9260,13509 9236,13347 9211,13220 Z"/></g><g style="stroke:none;fill:rgb(170,8,7)"><path d="M 8914,13220 L 8914,13220 C 8907,13216 8899,13213 8892,13209 8873,13326 8853,13467 8835,13633 8812,13852 8792,14088 8776,14344 L 8776,14598 8776,14598 C 8790,14274 8812,13978 8843,13710 8865,13509 8888,13347 8914,13220 Z"/></g><g style="stroke:none;fill:rgb(183,10,9)"><path d="M 8969,13242 L 8969,13242 C 8958,13238 8948,13235 8939,13231 8907,13361 8878,13547 8851,13787 8815,14114 8790,14483 8776,14896 L 8778,15287 8778,15287 C 8787,14744 8815,14269 8860,13864 8892,13572 8928,13365 8969,13242 Z"/></g><g style="stroke:none;fill:rgb(190,12,10)"><path d="M 9010,13252 L 9010,13252 C 8996,13249 8982,13245 8969,13242 8928,13365 8892,13572 8860,13864 8815,14269 8787,14744 8778,15287 L 8778,15287 8776,15679 8776,15695 8776,15712 8778,16103 8778,16103 C 8787,16645 8815,17120 8860,17526 8894,17836 8934,18053 8977,18172 8996,18168 9014,18167 9032,18165 8969,18108 8914,17870 8867,17450 8815,16966 8789,16380 8789,15695 8789,15008 8815,14423 8867,13939 8909,13569 8955,13340 9010,13252 Z"/></g><g style="stroke:none;fill:rgb(177,9,8)"><path d="M 8939,13231 L 8939,13231 C 8930,13228 8923,13223 8914,13220 8888,13347 8865,13509 8843,13710 8812,13978 8790,14274 8776,14598 L 8776,14896 8776,14896 C 8790,14483 8815,14114 8851,13787 8878,13547 8907,13361 8939,13231 Z"/></g><g style="stroke:none;fill:rgb(197,13,11)"><path d="M 9115,13252 L 9115,13252 C 9080,13258 9045,13258 9010,13252 8955,13340 8909,13569 8867,13939 8815,14423 8789,15008 8789,15695 8789,16380 8815,16966 8867,17450 8914,17870 8969,18108 9032,18165 9052,18163 9073,18163 9092,18165 9155,18108 9211,17870 9258,17450 9309,16966 9336,16380 9336,15695 9336,15008 9309,14423 9258,13939 9216,13569 9169,13340 9115,13252 Z M 9062,13320 L 9062,13320 C 9136,13320 9197,13553 9248,14016 9300,14477 9326,15038 9326,15695 9326,16350 9300,16911 9248,17374 9197,17836 9136,18069 9062,18069 8989,18069 8928,17836 8876,17374 8824,16911 8799,16350 8799,15695 8799,15038 8824,14477 8876,14016 8928,13553 8989,13320 9062,13320 Z"/></g><g style="stroke:none;fill:rgb(203,14,12)"><path d="M 9248,14016 L 9248,14016 C 9197,13553 9136,13320 9062,13320 8989,13320 8928,13553 8876,14016 8824,14477 8799,15038 8799,15695 8799,16350 8824,16911 8876,17374 8928,17836 8989,18069 9062,18069 9136,18069 9197,17836 9248,17374 9300,16911 9326,16350 9326,15695 9326,15038 9300,14477 9248,14016 Z M 9062,13427 L 9062,13427 C 9132,13427 9191,13649 9239,14091 9288,14533 9312,15067 9312,15695 9312,16322 9288,16855 9239,17297 9191,17740 9132,17961 9062,17961 8993,17961 8934,17740 8885,17297 8837,16855 8812,16322 8812,15695 8812,15067 8837,14533 8885,14091 8934,13649 8993,13427 9062,13427 Z"/></g><g style="stroke:none;fill:rgb(210,15,13)"><path d="M 9239,14091 L 9239,14091 C 9191,13649 9132,13427 9062,13427 8993,13427 8934,13649 8885,14091 8837,14533 8812,15067 8812,15695 8812,16322 8837,16855 8885,17297 8934,17740 8993,17961 9062,17961 9132,17961 9191,17740 9239,17297 9288,16855 9312,16322 9312,15695 9312,15067 9288,14533 9239,14091 Z M 9062,13536 L 9062,13536 C 9129,13536 9184,13747 9230,14166 9277,14589 9300,15097 9300,15695 9300,16291 9277,16800 9230,17222 9184,17641 9129,17852 9062,17852 8996,17852 8941,17641 8894,17222 8848,16800 8824,16291 8824,15695 8824,15097 8848,14589 8894,14166 8941,13747 8996,13536 9062,13536 Z"/></g><g style="stroke:none;fill:rgb(217,17,14)"><path d="M 9230,14166 L 9230,14166 C 9184,13747 9129,13536 9062,13536 8996,13536 8941,13747 8894,14166 8848,14589 8824,15097 8824,15695 8824,16291 8848,16800 8894,17222 8941,17641 8996,17852 9062,17852 9129,17852 9184,17641 9230,17222 9277,16800 9300,16291 9300,15695 9300,15097 9277,14589 9230,14166 Z M 9062,13644 L 9062,13644 C 9125,13644 9178,13843 9223,14243 9268,14643 9290,15128 9290,15695 9290,16261 9268,16745 9223,17145 9178,17545 9125,17745 9062,17745 9000,17745 8946,17545 8901,17145 8857,16745 8835,16261 8835,15695 8835,15128 8857,14643 8901,14243 8946,13843 9000,13644 9062,13644 Z"/></g><g style="stroke:none;fill:rgb(224,18,15)"><path d="M 9223,14243 L 9223,14243 C 9178,13843 9125,13644 9062,13644 9000,13644 8946,13843 8901,14243 8857,14643 8835,15128 8835,15695 8835,16261 8857,16745 8901,17145 8946,17545 9000,17745 9062,17745 9125,17745 9178,17545 9223,17145 9268,16745 9290,16261 9290,15695 9290,15128 9268,14643 9223,14243 Z M 9062,13751 L 9062,13751 C 9122,13751 9173,13940 9214,14320 9256,14699 9277,15157 9277,15695 9277,16232 9256,16689 9214,17068 9173,17449 9122,17638 9062,17638 9003,17638 8951,17449 8911,17068 8869,16689 8848,16232 8848,15695 8848,15157 8869,14699 8911,14320 8951,13940 9003,13751 9062,13751 Z"/></g><g style="stroke:none;fill:rgb(230,19,16)"><path d="M 9214,14320 L 9214,14320 C 9173,13940 9122,13751 9062,13751 9003,13751 8951,13940 8911,14320 8869,14699 8848,15157 8848,15695 8848,16232 8869,16689 8911,17068 8951,17449 9003,17638 9062,17638 9122,17638 9173,17449 9214,17068 9256,16689 9277,16232 9277,15695 9277,15157 9256,14699 9214,14320 Z M 9062,13860 L 9062,13860 C 9118,13860 9166,14038 9206,14397 9244,14755 9265,15187 9265,15695 9265,16202 9244,16634 9206,16991 9166,17351 9118,17529 9062,17529 9007,17529 8958,17351 8919,16991 8880,16634 8860,16202 8860,15695 8860,15187 8880,14755 8919,14397 8958,14038 9007,13860 9062,13860 Z"/></g><g style="stroke:none;fill:rgb(237,20,17)"><path d="M 9206,14397 L 9206,14397 C 9166,14038 9118,13860 9062,13860 9007,13860 8958,14038 8919,14397 8880,14755 8860,15187 8860,15695 8860,16202 8880,16634 8919,16991 8958,17351 9007,17529 9062,17529 9118,17529 9166,17351 9206,16991 9244,16634 9265,16202 9265,15695 9265,15187 9244,14755 9206,14397 Z M 9062,13967 L 9062,13967 C 9115,13967 9159,14135 9197,14472 9234,14810 9253,15218 9253,15695 9253,16172 9234,16579 9197,16916 9159,17253 9115,17422 9062,17422 9010,17422 8965,17253 8928,16916 8890,16579 8871,16172 8871,15695 8871,15218 8890,14810 8928,14472 8965,14135 9010,13967 9062,13967 Z"/></g><g style="stroke:none;fill:rgb(244,21,18)"><path d="M 9197,14472 L 9197,14472 C 9159,14135 9115,13967 9062,13967 9010,13967 8965,14135 8928,14472 8890,14810 8871,15218 8871,15695 8871,16172 8890,16579 8928,16916 8965,17253 9010,17422 9062,17422 9115,17422 9159,17253 9197,16916 9234,16579 9253,16172 9253,15695 9253,15218 9234,14810 9197,14472 Z M 9190,14549 L 9190,14549 C 9223,14865 9241,15248 9241,15695 9241,16141 9223,16523 9190,16839 9153,17155 9110,17313 9062,17313 9014,17313 8971,17155 8935,16839 8901,16523 8883,16141 8883,15695 8883,15248 8901,14865 8935,14549 8971,14233 9014,14076 9062,14076 9110,14076 9153,14233 9190,14549 Z"/></g><g style="stroke:none;fill:rgb(250,23,19)"><path d="M 9241,15695 L 9241,15695 C 9241,15248 9223,14865 9190,14549 9153,14233 9110,14076 9062,14076 9014,14076 8971,14233 8935,14549 8901,14865 8883,15248 8883,15695 8883,16141 8901,16523 8935,16839 8971,17155 9014,17313 9062,17313 9110,17313 9153,17155 9190,16839 9223,16523 9241,16141 9241,15695 Z M 9180,14626 L 9180,14626 C 9213,14921 9229,15278 9229,15695 9229,16111 9213,16468 9180,16762 9148,17057 9108,17206 9062,17206 9016,17206 8977,17057 8944,16762 8912,16468 8895,16111 8895,15695 8895,15278 8912,14921 8944,14626 8977,14332 9016,14183 9062,14183 9108,14183 9148,14332 9180,14626 Z"/></g><g style="stroke:none;fill:rgb(255,30,19)"><path d="M 9229,15695 L 9229,15695 C 9229,15278 9213,14921 9180,14626 9148,14332 9108,14183 9062,14183 9016,14183 8977,14332 8944,14626 8912,14921 8895,15278 8895,15695 8895,16111 8912,16468 8944,16762 8977,17057 9016,17206 9062,17206 9108,17206 9148,17057 9180,16762 9213,16468 9229,16111 9229,15695 Z M 9171,14703 L 9171,14703 C 9202,14977 9218,15307 9218,15695 9218,16082 9202,16413 9171,16686 9141,16959 9105,17097 9062,17097 9019,17097 8984,16959 8953,16686 8923,16413 8907,16082 8907,15695 8907,15307 8923,14977 8953,14703 8984,14430 9019,14292 9062,14292 9105,14292 9141,14430 9171,14703 Z"/></g><g style="stroke:none;fill:rgb(255,47,17)"><path d="M 9218,15695 L 9218,15695 C 9218,15307 9202,14977 9171,14703 9141,14430 9105,14292 9062,14292 9019,14292 8984,14430 8953,14703 8923,14977 8907,15307 8907,15695 8907,16082 8923,16413 8953,16686 8984,16959 9019,17097 9062,17097 9105,17097 9141,16959 9171,16686 9202,16413 9218,16082 9218,15695 Z M 9164,14778 L 9164,14778 C 9191,15031 9206,15337 9206,15695 9206,16051 9191,16357 9164,16610 9136,16863 9101,16989 9062,16989 9023,16989 8989,16863 8960,16610 8934,16357 8919,16051 8919,15695 8919,15337 8934,15031 8960,14778 8989,14526 9023,14399 9062,14399 9101,14399 9136,14526 9164,14778 Z"/></g><g style="stroke:none;fill:rgb(255,65,16)"><path d="M 9206,15695 L 9206,15695 C 9206,15337 9191,15031 9164,14778 9136,14526 9101,14399 9062,14399 9023,14399 8989,14526 8960,14778 8934,15031 8919,15337 8919,15695 8919,16051 8934,16357 8960,16610 8989,16863 9023,16989 9062,16989 9101,16989 9136,16863 9164,16610 9191,16357 9206,16051 9206,15695 Z M 9062,14507 L 9062,14507 C 9098,14507 9129,14622 9155,14855 9180,15087 9193,15368 9193,15695 9193,16021 9180,16301 9155,16534 9129,16766 9098,16883 9062,16883 9026,16883 8996,16766 8969,16534 8944,16301 8932,16021 8932,15695 8932,15368 8944,15087 8969,14855 8996,14622 9026,14507 9062,14507 Z"/></g><g style="stroke:none;fill:rgb(255,82,14)"><path d="M 9155,14855 L 9155,14855 C 9129,14622 9098,14507 9062,14507 9026,14507 8996,14622 8969,14855 8944,15087 8932,15368 8932,15695 8932,16021 8944,16301 8969,16534 8996,16766 9026,16883 9062,16883 9098,16883 9129,16766 9155,16534 9180,16301 9193,16021 9193,15695 9193,15368 9180,15087 9155,14855 Z M 9062,14615 L 9062,14615 C 9096,14615 9123,14720 9146,14931 9169,15143 9182,15396 9182,15695 9182,15993 9169,16247 9146,16457 9123,16668 9096,16773 9062,16773 9028,16773 9002,16668 8979,16457 8955,16247 8942,15993 8942,15695 8942,15396 8955,15143 8979,14931 9002,14720 9028,14615 9062,14615 Z"/></g><g style="stroke:none;fill:rgb(255,99,13)"><path d="M 9146,14931 L 9146,14931 C 9123,14720 9096,14615 9062,14615 9028,14615 9002,14720 8979,14931 8955,15143 8942,15396 8942,15695 8942,15993 8955,16247 8979,16457 9002,16668 9028,16773 9062,16773 9096,16773 9123,16668 9146,16457 9169,16247 9182,15993 9182,15695 9182,15396 9169,15143 9146,14931 Z M 9062,14722 L 9062,14722 C 9092,14722 9118,14818 9138,15006 9159,15197 9169,15426 9169,15695 9169,15962 9159,16191 9138,16380 9118,16572 9092,16666 9062,16666 9032,16666 9007,16572 8987,16380 8965,16191 8955,15962 8955,15695 8955,15426 8965,15197 8987,15006 9007,14818 9032,14722 9062,14722 Z"/></g><g style="stroke:none;fill:rgb(255,116,11)"><path d="M 9138,15006 L 9138,15006 C 9118,14818 9092,14722 9062,14722 9032,14722 9007,14818 8987,15006 8965,15197 8955,15426 8955,15695 8955,15962 8965,16191 8987,16380 9007,16572 9032,16666 9062,16666 9092,16666 9118,16572 9138,16380 9159,16191 9169,15962 9169,15695 9169,15426 9159,15197 9138,15006 Z M 8994,15083 L 8994,15083 C 9014,14916 9035,14832 9062,14832 9089,14832 9110,14916 9131,15083 9148,15253 9157,15457 9157,15695 9157,15932 9148,16135 9131,16305 9110,16474 9089,16558 9062,16558 9035,16558 9014,16474 8994,16305 8977,16135 8967,15932 8967,15695 8967,15457 8977,15253 8994,15083 Z"/></g><g style="stroke:none;fill:rgb(255,134,10)"><path d="M 9062,14832 L 9062,14832 C 9035,14832 9014,14916 8994,15083 8977,15253 8967,15457 8967,15695 8967,15932 8977,16135 8994,16305 9014,16474 9035,16558 9062,16558 9089,16558 9110,16474 9131,16305 9148,16135 9157,15932 9157,15695 9157,15457 9148,15253 9131,15083 9110,14916 9089,14832 9062,14832 Z M 9003,15160 L 9003,15160 C 9019,15012 9039,14938 9062,14938 9085,14938 9105,15012 9122,15160 9138,15309 9146,15485 9146,15695 9146,15903 9138,16081 9122,16229 9105,16376 9085,16450 9062,16450 9039,16450 9019,16376 9003,16229 8987,16081 8979,15903 8979,15695 8979,15485 8987,15309 9003,15160 Z"/></g><g style="stroke:none;fill:rgb(255,151,8)"><path d="M 9062,14938 L 9062,14938 C 9039,14938 9019,15012 9003,15160 8987,15309 8979,15485 8979,15695 8979,15903 8987,16081 9003,16229 9019,16376 9039,16450 9062,16450 9085,16450 9105,16376 9122,16229 9138,16081 9146,15903 9146,15695 9146,15485 9138,15309 9122,15160 9105,15012 9085,14938 9062,14938 Z M 9012,15237 L 9012,15237 C 9024,15110 9042,15046 9062,15046 9082,15046 9100,15110 9112,15237 9127,15364 9134,15515 9134,15695 9134,15873 9127,16025 9112,16152 9100,16278 9082,16343 9062,16343 9042,16343 9024,16278 9012,16152 8998,16025 8991,15873 8991,15695 8991,15515 8998,15364 9012,15237 Z"/></g><g style="stroke:none;fill:rgb(255,168,7)"><path d="M 9062,15046 L 9062,15046 C 9042,15046 9024,15110 9012,15237 8998,15364 8991,15515 8991,15695 8991,15873 8998,16025 9012,16152 9024,16278 9042,16343 9062,16343 9082,16343 9100,16278 9112,16152 9127,16025 9134,15873 9134,15695 9134,15515 9127,15364 9112,15237 9100,15110 9082,15046 9062,15046 Z M 9019,15312 L 9019,15312 C 9032,15207 9047,15155 9062,15155 9078,15155 9092,15207 9105,15312 9116,15417 9122,15546 9122,15695 9122,15843 9116,15971 9105,16077 9092,16182 9078,16234 9062,16234 9047,16234 9032,16182 9019,16077 9009,15971 9003,15843 9003,15695 9003,15546 9009,15417 9019,15312 Z"/></g><g style="stroke:none;fill:rgb(255,185,5)"><path d="M 9062,15155 L 9062,15155 C 9047,15155 9032,15207 9019,15312 9009,15417 9003,15546 9003,15695 9003,15843 9009,15971 9019,16077 9032,16182 9047,16234 9062,16234 9078,16234 9092,16182 9105,16077 9116,15971 9122,15843 9122,15695 9122,15546 9116,15417 9105,15312 9092,15207 9078,15155 9062,15155 Z M 9096,15389 L 9096,15389 C 9105,15473 9110,15574 9110,15695 9110,15814 9105,15916 9096,16000 9087,16084 9075,16126 9062,16126 9050,16126 9037,16084 9028,16000 9019,15916 9014,15814 9014,15695 9014,15574 9019,15473 9028,15389 9037,15305 9050,15262 9062,15262 9075,15262 9087,15305 9096,15389 Z"/></g><g style="stroke:none;fill:rgb(255,203,4)"><path d="M 9110,15695 L 9110,15695 C 9110,15574 9105,15473 9096,15389 9087,15305 9075,15262 9062,15262 9050,15262 9037,15305 9028,15389 9019,15473 9014,15574 9014,15695 9014,15814 9019,15916 9028,16000 9037,16084 9050,16126 9062,16126 9075,16126 9087,16084 9096,16000 9105,15916 9110,15814 9110,15695 Z M 9087,15466 L 9087,15466 C 9094,15529 9098,15605 9098,15695 9098,15784 9094,15861 9087,15923 9080,15985 9071,16018 9062,16018 9054,16018 9045,15985 9037,15923 9030,15861 9026,15784 9026,15695 9026,15605 9030,15529 9037,15466 9045,15403 9054,15371 9062,15371 9071,15371 9080,15403 9087,15466 Z"/></g><g style="stroke:none;fill:rgb(255,220,2)"><path d="M 9098,15695 L 9098,15695 C 9098,15605 9094,15529 9087,15466 9080,15403 9071,15371 9062,15371 9054,15371 9045,15403 9037,15466 9030,15529 9026,15605 9026,15695 9026,15784 9030,15861 9037,15923 9045,15985 9054,16018 9062,16018 9071,16018 9080,15985 9087,15923 9094,15861 9098,15784 9098,15695 Z M 9047,15543 L 9047,15543 C 9050,15499 9055,15478 9062,15478 9070,15478 9075,15499 9078,15543 9084,15583 9085,15635 9085,15695 9085,15754 9084,15805 9078,15846 9075,15889 9070,15910 9062,15910 9055,15910 9050,15889 9047,15846 9040,15805 9039,15754 9039,15695 9039,15635 9040,15583 9047,15543 Z"/></g><g style="stroke:none;fill:rgb(255,237,1)"><path d="M 9062,15478 L 9062,15478 C 9055,15478 9050,15499 9047,15543 9040,15583 9039,15635 9039,15695 9039,15754 9040,15805 9047,15846 9050,15889 9055,15910 9062,15910 9070,15910 9075,15889 9078,15846 9084,15805 9085,15754 9085,15695 9085,15635 9084,15583 9078,15543 9075,15499 9070,15478 9062,15478 Z M 9071,15771 L 9071,15771 C 9070,15791 9066,15801 9062,15801 9059,15801 9055,15791 9054,15771 9052,15749 9050,15725 9050,15695 9050,15664 9052,15639 9054,15618 9055,15598 9059,15587 9062,15587 9066,15587 9070,15598 9071,15618 9073,15639 9075,15664 9075,15695 9075,15725 9073,15749 9071,15771 Z"/></g><g style="stroke:none;fill:rgb(255,255,0)"><path d="M 9062,15801 L 9062,15801 C 9066,15801 9070,15791 9071,15771 9073,15749 9075,15725 9075,15695 9075,15664 9073,15639 9071,15618 9070,15598 9066,15587 9062,15587 9059,15587 9055,15598 9054,15618 9052,15639 9050,15664 9050,15695 9050,15725 9052,15749 9054,15771 9055,15791 9059,15801 9062,15801 Z"/></g><g style="stroke:none;fill:rgb(143,3,2)"><path d="M 9349,13574 L 9349,13574 C 9340,13490 9333,13408 9323,13327 9318,13268 9311,13213 9304,13161 9298,13165 9293,13169 9288,13174 9297,13245 9307,13322 9316,13404 9329,13511 9340,13623 9349,13738 L 9349,13574 Z"/></g><g style="stroke:none;fill:rgb(150,4,3)"><path d="M 9316,13404 L 9316,13404 C 9307,13322 9297,13245 9288,13174 9282,13177 9275,13181 9270,13186 9282,13274 9295,13372 9307,13481 9323,13623 9336,13772 9349,13927 L 9349,13738 9349,13738 C 9340,13623 9329,13511 9316,13404 Z"/></g><g style="stroke:none;fill:rgb(156,5,4)"><path d="M 9307,13481 L 9307,13481 C 9295,13372 9282,13274 9270,13186 9265,13190 9258,13193 9251,13198 9268,13302 9282,13422 9298,13558 9318,13735 9335,13922 9349,14121 L 9349,13927 9349,13927 C 9336,13772 9323,13623 9307,13481 Z"/></g><g style="stroke:none;fill:rgb(131,1,1)"><path d="M 8820,13161 L 8820,13161 C 8805,13149 8790,13136 8776,13122 L 8776,13574 8776,13574 C 8785,13490 8792,13408 8801,13327 8806,13268 8813,13213 8820,13161 Z"/></g><g style="stroke:none;fill:rgb(156,5,4)"><path d="M 8826,13558 L 8826,13558 C 8843,13422 8858,13302 8874,13198 8867,13193 8860,13190 8855,13186 8843,13274 8829,13372 8817,13481 8801,13623 8789,13772 8776,13927 L 8776,14121 8776,14121 C 8790,13922 8806,13735 8826,13558 Z"/></g><g style="stroke:none;fill:rgb(163,7,6)"><path d="M 8874,13198 L 8874,13198 C 8858,13302 8843,13422 8826,13558 8806,13735 8790,13922 8776,14121 L 8776,14344 8776,14344 C 8792,14088 8812,13852 8835,13633 8853,13467 8873,13326 8892,13209 8887,13206 8880,13202 8874,13198 Z"/></g><g style="stroke:none;fill:rgb(150,4,3)"><path d="M 8817,13481 L 8817,13481 C 8829,13372 8843,13274 8855,13186 8850,13181 8843,13177 8837,13174 8827,13245 8817,13322 8808,13404 8796,13511 8785,13623 8776,13738 L 8776,13927 8776,13927 C 8789,13772 8801,13623 8817,13481 Z"/></g><g style="stroke:none;fill:rgb(143,3,2)"><path d="M 8808,13404 L 8808,13404 C 8817,13322 8827,13245 8837,13174 8831,13169 8826,13165 8820,13161 8813,13213 8806,13268 8801,13327 8792,13408 8785,13490 8776,13574 L 8776,13738 8776,13738 C 8785,13623 8796,13511 8808,13404 Z"/></g><g style="stroke:none;fill:rgb(170,8,7)"><path d="M 9349,17045 L 9349,16792 9349,16792 C 9335,17115 9312,17411 9282,17679 9260,17890 9234,18060 9207,18190 9214,18191 9221,18195 9229,18198 9250,18078 9270,17929 9290,17756 9312,17536 9333,17300 9349,17045 Z"/></g><g style="stroke:none;fill:rgb(177,9,8)"><path d="M 9349,16792 L 9349,16493 9349,16493 C 9335,16905 9309,17276 9274,17602 9244,17856 9214,18049 9180,18181 9190,18183 9199,18186 9207,18190 9234,18060 9260,17890 9282,17679 9312,17411 9335,17115 9349,16792 Z"/></g><g style="stroke:none;fill:rgb(170,8,7)"><path d="M 8776,16793 L 8776,17045 8776,17045 C 8792,17300 8812,17536 8835,17756 8855,17929 8874,18078 8895,18198 8904,18195 8911,18191 8919,18190 8892,18060 8865,17890 8843,17679 8812,17411 8790,17117 8776,16793 Z"/></g><g style="stroke:none;fill:rgb(177,9,8)"><path d="M 8776,16493 L 8776,16793 8776,16793 C 8790,17117 8812,17411 8843,17679 8865,17890 8892,18060 8919,18190 8928,18186 8935,18183 8944,18181 8911,18049 8880,17856 8851,17602 8815,17276 8790,16905 8776,16493 Z"/></g><g style="stroke:none;fill:rgb(143,3,2)"><path d="M 8776,17653 L 8776,17815 8776,17815 C 8785,17899 8792,17980 8801,18060 8808,18122 8815,18181 8822,18237 8827,18233 8834,18229 8839,18228 8827,18153 8817,18072 8808,17985 8796,17877 8785,17767 8776,17653 Z"/></g><g style="stroke:none;fill:rgb(150,4,3)"><path d="M 8776,17653 L 8776,17653 C 8785,17767 8796,17877 8808,17985 8817,18072 8827,18153 8839,18228 8844,18224 8851,18221 8857,18219 8844,18126 8829,18022 8817,17908 8801,17767 8789,17616 8776,17461 L 8776,17653 Z"/></g><g style="stroke:none;fill:rgb(156,5,4)"><path d="M 8776,17461 L 8776,17461 C 8789,17616 8801,17767 8817,17908 8829,18022 8844,18126 8857,18219 8864,18214 8871,18210 8876,18208 8858,18099 8843,17974 8826,17831 8806,17655 8790,17466 8776,17269 L 8776,17461 Z"/></g><g style="stroke:none;fill:rgb(163,7,6)"><path d="M 8776,17269 L 8776,17269 C 8790,17466 8806,17655 8826,17831 8843,17974 8858,18099 8876,18208 8881,18205 8888,18200 8895,18198 8874,18078 8855,17929 8835,17756 8812,17536 8792,17300 8776,17045 L 8776,17269 Z"/></g><g style="stroke:none;fill:rgb(156,5,4)"><path d="M 9349,17461 L 9349,17269 9349,17269 C 9335,17466 9318,17655 9298,17831 9282,17974 9267,18099 9248,18208 9253,18210 9261,18214 9268,18219 9281,18126 9295,18022 9307,17908 9323,17767 9336,17616 9349,17461 Z"/></g><g style="stroke:none;fill:rgb(143,3,2)"><path d="M 9349,17653 L 9349,17653 C 9340,17767 9329,17877 9316,17985 9307,18072 9297,18153 9288,18228 9293,18229 9298,18233 9304,18237 9309,18181 9316,18122 9323,18060 9333,17980 9340,17899 9349,17815 L 9349,17653 Z"/></g><g style="stroke:none;fill:rgb(150,4,3)"><path d="M 9316,17985 L 9316,17985 C 9329,17877 9340,17767 9349,17653 L 9349,17461 9349,17461 C 9336,17616 9323,17767 9307,17908 9295,18022 9281,18126 9268,18219 9274,18221 9281,18224 9288,18228 9297,18153 9307,18072 9316,17985 Z"/></g><g style="stroke:none;fill:rgb(163,7,6)"><path d="M 9298,17831 L 9298,17831 C 9318,17655 9335,17466 9349,17269 L 9349,17045 9349,17045 C 9333,17300 9312,17536 9290,17756 9270,17929 9250,18078 9229,18198 9236,18200 9243,18205 9248,18208 9267,18099 9282,17974 9298,17831 Z"/></g><g style="stroke:none;fill:rgb(183,10,9)"><path d="M 8776,16493 L 8776,16493 C 8790,16905 8815,17276 8851,17602 8880,17856 8911,18049 8944,18181 8955,18177 8965,18174 8977,18172 8934,18053 8894,17836 8860,17526 8815,17120 8787,16645 8778,16103 L 8776,16493 Z"/><path d="M 9274,17602 L 9274,17602 C 9309,17276 9335,16905 9349,16493 L 9347,16095 9347,16095 C 9338,16640 9309,17117 9265,17526 9230,17836 9191,18053 9148,18172 9159,18174 9169,18177 9180,18181 9214,18049 9244,17856 9274,17602 Z"/></g><g style="stroke:none;fill:rgb(136,2,1)"><path d="M 9323,18060 L 9323,18060 C 9316,18122 9309,18181 9304,18237 9318,18245 9333,18256 9349,18267 L 9349,17815 9349,17815 C 9340,17899 9333,17980 9323,18060 Z"/><path d="M 8822,18237 L 8822,18237 C 8815,18181 8808,18122 8801,18060 8792,17980 8785,17899 8776,17815 L 8776,18267 8776,18267 C 8792,18256 8806,18245 8822,18237 Z"/></g><g style="stroke:none;fill:rgb(244,21,18)"><path d="M 8776,13156 L 8776,13122 8776,13122 C 8692,13129 8615,13147 8548,13176 8623,13163 8699,13156 8776,13156 Z"/></g><g style="stroke:none;fill:rgb(254,23,19)"><path d="M 8332,13345 L 8332,13345 C 8300,13390 8274,13440 8251,13499 8411,13413 8585,13370 8776,13370 L 8776,13263 8776,13263 C 8618,13263 8470,13289 8332,13345 Z"/></g><g style="stroke:none;fill:rgb(255,56,17)"><path d="M 8776,13584 L 8776,13478 8776,13478 C 8567,13478 8379,13532 8213,13644 8209,13660 8206,13675 8204,13693 L 8204,13775 8204,13775 C 8370,13649 8562,13584 8776,13584 Z"/></g><g style="stroke:none;fill:rgb(255,39,18)"><path d="M 8776,13478 L 8776,13370 8776,13370 C 8585,13370 8411,13413 8251,13499 8236,13544 8221,13592 8213,13644 8379,13532 8567,13478 8776,13478 Z"/></g><g style="stroke:none;fill:rgb(251,23,19)"><path d="M 8776,13156 L 8776,13156 C 8699,13156 8623,13163 8548,13176 8461,13213 8388,13268 8332,13345 8470,13289 8618,13263 8776,13263 L 8776,13156 Z"/></g><g style="stroke:none;fill:rgb(255,90,14)"><path d="M 8776,13799 L 8776,13691 8776,13691 C 8560,13691 8368,13763 8204,13908 L 8204,14049 8204,14049 C 8365,13883 8556,13799 8776,13799 Z"/></g><g style="stroke:none;fill:rgb(255,116,11)"><path d="M 8776,13908 L 8776,13799 8776,13799 C 8556,13799 8365,13883 8204,14049 L 8204,14201 8204,14201 C 8216,14187 8227,14172 8239,14158 8388,13992 8567,13908 8776,13908 Z"/></g><g style="stroke:none;fill:rgb(255,134,10)"><path d="M 8776,14016 L 8776,13908 8776,13908 C 8567,13908 8388,13992 8239,14158 8227,14172 8216,14187 8204,14201 L 8204,14383 8204,14383 C 8232,14332 8266,14281 8307,14235 8436,14088 8592,14016 8776,14016 Z"/></g><g style="stroke:none;fill:rgb(255,73,15)"><path d="M 8204,13775 L 8204,13908 8204,13908 C 8368,13763 8560,13691 8776,13691 L 8776,13584 8776,13584 C 8562,13584 8370,13649 8204,13775 Z"/></g><g style="stroke:none;fill:rgb(255,151,8)"><path d="M 8307,14235 L 8307,14235 C 8266,14281 8232,14332 8204,14383 L 8204,15148 8204,15148 C 8232,15199 8266,15249 8307,15296 8436,15443 8592,15515 8776,15515 L 8776,15408 8776,15408 C 8618,15408 8485,15346 8373,15221 8262,15094 8207,14942 8207,14765 8207,14589 8262,14437 8373,14310 8485,14185 8618,14122 8776,14122 L 8776,14016 8776,14016 C 8592,14016 8436,14088 8307,14235 Z"/></g><g style="stroke:none;fill:rgb(255,168,7)"><path d="M 8776,14229 L 8776,14122 8776,14122 C 8618,14122 8485,14185 8373,14310 8262,14437 8207,14589 8207,14765 8207,14942 8262,15094 8373,15221 8485,15346 8618,15408 8776,15408 L 8776,15302 8776,15302 C 8646,15302 8532,15249 8441,15144 8349,15038 8302,14914 8302,14765 8302,14617 8349,14493 8441,14386 8532,14281 8646,14229 8776,14229 Z"/></g><g style="stroke:none;fill:rgb(255,185,5)"><path d="M 8776,14337 L 8776,14229 8776,14229 C 8646,14229 8532,14281 8441,14386 8349,14493 8302,14617 8302,14765 8302,14914 8349,15038 8441,15144 8532,15249 8646,15302 8776,15302 L 8776,15194 8776,15194 C 8670,15194 8581,15153 8508,15069 8434,14985 8396,14883 8396,14765 8396,14648 8434,14545 8508,14462 8581,14378 8670,14337 8776,14337 Z"/></g><g style="stroke:none;fill:rgb(255,203,4)"><path d="M 8776,14444 L 8776,14337 8776,14337 C 8670,14337 8581,14378 8508,14462 8434,14545 8396,14648 8396,14765 8396,14883 8434,14985 8508,15069 8581,15153 8670,15194 8776,15194 L 8776,15087 8776,15087 C 8698,15087 8631,15055 8576,14992 8520,14930 8492,14855 8492,14765 8492,14676 8520,14601 8576,14538 8631,14476 8698,14444 8776,14444 Z"/></g><g style="stroke:none;fill:rgb(255,237,1)"><path d="M 8776,14659 L 8776,14551 8776,14551 C 8724,14551 8679,14573 8642,14613 8604,14655 8586,14706 8586,14765 8586,14825 8604,14876 8642,14917 8679,14958 8724,14980 8776,14980 L 8776,14872 8776,14872 C 8749,14872 8728,14862 8710,14840 8690,14821 8681,14795 8681,14765 8681,14735 8690,14710 8710,14690 8728,14669 8749,14659 8776,14659 Z"/></g><g style="stroke:none;fill:rgb(255,255,0)"><path d="M 8681,14765 L 8681,14765 C 8681,14795 8690,14821 8710,14840 8728,14862 8749,14872 8776,14872 L 8776,14659 8776,14659 C 8749,14659 8728,14669 8710,14690 8690,14710 8681,14735 8681,14765 Z"/></g><g style="stroke:none;fill:rgb(255,220,2)"><path d="M 8642,14917 L 8642,14917 C 8604,14876 8586,14825 8586,14765 8586,14706 8604,14655 8642,14613 8679,14573 8724,14551 8776,14551 L 8776,14444 8776,14444 C 8698,14444 8631,14476 8576,14538 8520,14601 8492,14676 8492,14765 8492,14855 8520,14930 8576,14992 8631,15055 8698,15087 8776,15087 L 8776,14980 8776,14980 C 8724,14980 8679,14958 8642,14917 Z"/></g><g style="stroke:none;fill:rgb(255,116,11)"><path d="M 8239,15373 L 8239,15373 C 8227,15359 8216,15344 8204,15330 L 8204,15483 8204,15483 C 8365,15649 8556,15732 8776,15732 L 8776,15625 8776,15625 C 8567,15625 8388,15541 8239,15373 Z"/></g><g style="stroke:none;fill:rgb(255,134,10)"><path d="M 8204,15330 L 8204,15330 C 8216,15344 8227,15359 8239,15373 8388,15541 8567,15625 8776,15625 L 8776,15515 8776,15515 C 8592,15515 8436,15443 8307,15296 8266,15249 8232,15199 8204,15148 L 8204,15330 Z"/></g><g style="stroke:none;fill:rgb(255,73,15)"><path d="M 8204,15623 L 8204,15756 8204,15756 C 8370,15882 8562,15946 8776,15946 L 8776,15839 8776,15839 C 8560,15839 8368,15768 8204,15623 Z"/></g><g style="stroke:none;fill:rgb(255,90,14)"><path d="M 8204,15483 L 8204,15623 8204,15623 C 8368,15768 8560,15839 8776,15839 L 8776,15732 8776,15732 C 8556,15732 8365,15649 8204,15483 Z"/></g><g style="stroke:none;fill:rgb(248,22,18)"><path d="M 8204,16126 L 8204,16245 8204,16245 C 8379,16332 8570,16375 8776,16375 L 8776,16268 8776,16268 C 8569,16268 8377,16221 8204,16126 Z"/></g><g style="stroke:none;fill:rgb(254,23,19)"><path d="M 8204,16005 L 8204,16126 8204,16126 C 8377,16221 8569,16268 8776,16268 L 8776,16161 8776,16161 C 8567,16161 8375,16109 8204,16005 Z"/></g><g style="stroke:none;fill:rgb(255,39,18)"><path d="M 8204,15884 L 8204,16005 8204,16005 C 8375,16109 8567,16161 8776,16161 L 8776,16053 8776,16053 C 8563,16053 8373,15997 8204,15884 Z"/></g><g style="stroke:none;fill:rgb(255,56,17)"><path d="M 8776,16053 L 8776,15946 8776,15946 C 8562,15946 8370,15882 8204,15756 L 8204,15884 8204,15884 C 8373,15997 8563,16053 8776,16053 Z"/></g><g style="stroke:none;fill:rgb(229,18,15)"><path d="M 8776,16696 L 8776,16589 8776,16589 C 8570,16589 8380,16552 8204,16477 L 8204,16591 8204,16591 C 8380,16661 8572,16696 8776,16696 Z"/></g><g style="stroke:none;fill:rgb(235,20,16)"><path d="M 8776,16589 L 8776,16482 8776,16482 C 8570,16482 8380,16443 8204,16362 L 8204,16477 8204,16477 C 8380,16552 8570,16589 8776,16589 Z"/></g><g style="stroke:none;fill:rgb(241,21,17)"><path d="M 8776,16482 L 8776,16375 8776,16375 C 8570,16375 8379,16332 8204,16245 L 8204,16362 8204,16362 C 8380,16443 8570,16482 8776,16482 Z"/></g><g style="stroke:none;fill:rgb(223,17,14)"><path d="M 8204,16591 L 8204,16706 8204,16706 C 8382,16771 8574,16804 8776,16804 L 8776,16696 8776,16696 C 8572,16696 8380,16661 8204,16591 Z"/></g><g style="stroke:none;fill:rgb(204,13,11)"><path d="M 8204,16930 L 8204,17042 8204,17042 C 8384,17097 8574,17125 8776,17125 L 8776,17019 8776,17019 C 8574,17019 8384,16989 8204,16930 Z"/></g><g style="stroke:none;fill:rgb(211,15,12)"><path d="M 8204,16818 L 8204,16930 8204,16930 C 8384,16989 8574,17019 8776,17019 L 8776,16911 8776,16911 C 8574,16911 8382,16881 8204,16818 Z"/></g><g style="stroke:none;fill:rgb(218,16,13)"><path d="M 8776,16911 L 8776,16804 8776,16804 C 8574,16804 8382,16771 8204,16706 L 8204,16818 8204,16818 C 8382,16881 8574,16911 8776,16911 Z"/></g><g style="stroke:none;fill:rgb(201,13,11)"><path d="M 8776,17125 L 8776,17125 C 8574,17125 8384,17097 8204,17042 L 8204,17152 8204,17152 C 8384,17206 8576,17232 8776,17232 L 8776,17125 Z"/></g><g style="stroke:none;fill:rgb(192,11,9)"><path d="M 8776,17342 L 8776,17232 8776,17232 C 8576,17232 8384,17206 8204,17152 L 8204,17265 8204,17265 C 8384,17316 8576,17342 8776,17342 Z"/></g><g style="stroke:none;fill:rgb(186,10,8)"><path d="M 8776,17449 L 8776,17342 8776,17342 C 8576,17342 8384,17316 8204,17265 L 8204,17375 8204,17375 C 8386,17424 8577,17449 8776,17449 Z"/></g><g style="stroke:none;fill:rgb(180,8,7)"><path d="M 8776,17555 L 8776,17449 8776,17449 C 8577,17449 8386,17424 8204,17375 L 8204,17486 8204,17486 C 8386,17533 8577,17555 8776,17555 Z"/></g><g style="stroke:none;fill:rgb(155,3,3)"><path d="M 8209,17817 L 8209,17817 C 8213,17858 8218,17896 8227,17929 8403,17967 8586,17985 8776,17985 L 8776,17877 8776,17877 C 8579,17877 8389,17858 8209,17817 Z"/></g><g style="stroke:none;fill:rgb(161,5,4)"><path d="M 8204,17706 L 8204,17706 C 8204,17745 8206,17782 8209,17817 8389,17858 8579,17877 8776,17877 L 8776,17770 8776,17770 C 8577,17770 8386,17749 8204,17706 Z"/></g><g style="stroke:none;fill:rgb(164,5,4)"><path d="M 8204,17695 L 8204,17695 C 8204,17699 8204,17702 8204,17706 8386,17749 8577,17770 8776,17770 L 8776,17663 8776,17663 C 8577,17663 8386,17641 8204,17597 L 8204,17695 Z"/></g><g style="stroke:none;fill:rgb(152,3,2)"><path d="M 8776,17985 L 8776,17985 C 8586,17985 8403,17967 8227,17929 8237,17972 8251,18011 8270,18048 8433,18078 8602,18092 8776,18092 L 8776,17985 Z"/></g><g style="stroke:none;fill:rgb(177,8,7)"><path d="M 8204,17597 L 8204,17597 C 8386,17641 8577,17663 8776,17663 L 8776,17555 8776,17555 C 8577,17555 8386,17533 8204,17486 L 8204,17597 Z"/></g><g style="stroke:none;fill:rgb(146,2,1)"><path d="M 8776,18092 L 8776,18092 C 8602,18092 8433,18078 8270,18048 8356,18214 8524,18287 8776,18267 L 8776,18092 Z"/></g><g style="stroke:none;fill:rgb(119,119,119)"><path d="M 11891,11256 L 11891,11256 C 11818,11234 11744,11224 11665,11224 11257,11353 11226,11554 11570,11830 11661,11722 11709,11670 11720,11673 11728,11674 11759,11781 11812,11993 11819,12021 11829,12048 11841,12070 11994,12050 12064,12100 12051,12220 12135,12236 12242,12230 12369,12202 12385,12098 12386,11996 12376,11892 12372,11839 12365,11787 12358,11736 12341,11648 12309,11569 12259,11499 12229,11457 12194,11419 12153,11385 12073,11326 11985,11283 11891,11256 Z"/></g><g style="stroke:none;fill:rgb(102,102,102)"><path d="M 12281,12392 L 12281,12392 C 12309,12354 12332,12313 12347,12268 12357,12247 12364,12225 12369,12202 12242,12230 12135,12236 12051,12220 12041,12313 11979,12448 11870,12626 11883,12618 11909,12601 11951,12576 12033,12525 12097,12493 12148,12482 12197,12472 12242,12442 12281,12392 Z"/></g><g style="stroke:none;fill:rgb(187,187,187)"><path d="M 11870,12626 L 11870,12626 C 11979,12448 12041,12313 12051,12220 12064,12100 11994,12050 11841,12070 11795,12076 11742,12089 11681,12107 11258,12236 11078,12195 11139,11989 11054,11986 10969,11973 10885,11951 10885,12162 10961,12340 11114,12490 11265,12637 11518,12684 11870,12628 11871,12626 11873,12626 11874,12626 11873,12626 11871,12626 11870,12626 Z"/></g><g style="stroke:none;fill:rgb(102,102,102)"><path d="M 11841,12070 L 11841,12070 C 11829,12048 11819,12021 11812,11993 11759,11781 11728,11674 11720,11673 11709,11670 11661,11722 11570,11830 11584,11851 11592,11875 11598,11902 11610,11954 11606,11970 11585,11948 11563,11926 11464,11897 11291,11863 11271,11858 11254,11856 11239,11856 11257,11943 11246,11987 11202,11989 11181,11989 11160,11989 11139,11989 11078,12195 11258,12236 11681,12107 11742,12089 11795,12076 11841,12070 Z"/></g><g style="stroke:none;fill:rgb(187,187,187)"><path d="M 11598,11902 L 11598,11902 C 11592,11875 11584,11851 11570,11830 11171,11666 11014,11621 11100,11696 11184,11770 11231,11823 11239,11856 11254,11856 11271,11858 11291,11863 11464,11897 11563,11926 11585,11948 11606,11970 11610,11954 11598,11902 Z"/></g><g style="stroke:none;fill:rgb(255,255,255)"><path d="M 11239,11856 L 11239,11856 C 11231,11823 11184,11770 11100,11696 11014,11621 11171,11666 11570,11830 11226,11554 11257,11353 11665,11224 11450,11224 11267,11295 11114,11437 10961,11579 10885,11750 10885,11951 10969,11973 11054,11986 11139,11989 11160,11989 11181,11989 11202,11989 11246,11987 11257,11943 11239,11856 Z"/></g><g style="stroke:none;fill:rgb(119,119,119)"><path d="M 13608,11256 L 13608,11256 C 13535,11234 13461,11224 13382,11224 12974,11353 12943,11554 13288,11830 13378,11722 13427,11670 13437,11673 13445,11674 13477,11781 13529,11993 13536,12021 13547,12048 13559,12070 13712,12050 13782,12100 13769,12220 13853,12236 13959,12230 14086,12202 14102,12098 14103,11996 14093,11892 14089,11839 14082,11787 14075,11736 14059,11648 14026,11569 13977,11499 13946,11457 13912,11419 13870,11385 13790,11326 13703,11283 13608,11256 Z"/></g><g style="stroke:none;fill:rgb(102,102,102)"><path d="M 13998,12392 L 13998,12392 C 14026,12354 14050,12313 14065,12268 14074,12247 14081,12225 14086,12202 13959,12230 13853,12236 13769,12220 13759,12313 13697,12448 13587,12626 13600,12618 13627,12601 13668,12576 13750,12525 13814,12493 13865,12482 13915,12472 13959,12442 13998,12392 Z"/></g><g style="stroke:none;fill:rgb(187,187,187)"><path d="M 13587,12626 L 13587,12626 C 13697,12448 13759,12313 13769,12220 13782,12100 13712,12050 13559,12070 13512,12076 13459,12089 13398,12107 12975,12236 12796,12195 12857,11989 12772,11986 12686,11973 12602,11951 12602,12162 12678,12340 12831,12490 12983,12637 13235,12684 13587,12628 13588,12626 13590,12626 13591,12626 13590,12626 13588,12626 13587,12626 Z"/></g><g style="stroke:none;fill:rgb(102,102,102)"><path d="M 13559,12070 L 13559,12070 C 13547,12048 13536,12021 13529,11993 13477,11781 13445,11674 13437,11673 13427,11670 13378,11722 13288,11830 13301,11851 13309,11875 13315,11902 13327,11954 13323,11970 13302,11948 13281,11926 13181,11897 13009,11863 12989,11858 12971,11856 12956,11856 12974,11943 12963,11987 12920,11989 12898,11989 12877,11989 12857,11989 12796,12195 12975,12236 13398,12107 13459,12089 13512,12076 13559,12070 Z"/></g><g style="stroke:none;fill:rgb(187,187,187)"><path d="M 13315,11902 L 13315,11902 C 13309,11875 13301,11851 13288,11830 12888,11666 12731,11621 12817,11696 12901,11770 12948,11823 12956,11856 12971,11856 12989,11858 13009,11863 13181,11897 13281,11926 13302,11948 13323,11970 13327,11954 13315,11902 Z"/></g><g style="stroke:none;fill:rgb(255,255,255)"><path d="M 12956,11856 L 12956,11856 C 12948,11823 12901,11770 12817,11696 12731,11621 12888,11666 13288,11830 12943,11554 12974,11353 13382,11224 13167,11224 12985,11295 12831,11437 12678,11579 12602,11750 12602,11951 12686,11973 12772,11986 12857,11989 12877,11989 12898,11989 12920,11989 12963,11987 12974,11943 12956,11856 Z"/></g></g></g></g></svg>