<?xml version="1.0" encoding="UTF-8"?>
<!DOCTYPE svg PUBLIC "-//W3C//DTD SVG 1.1//EN" "http://www.w3.org/Graphics/SVG/1.1/DTD/svg11.dtd"><svg version="1.1" viewBox="0 0 21000 29700" preserveAspectRatio="xMidYMid" fill-rule="evenodd" xmlns="http://www.w3.org/2000/svg" xmlns:xlink="http://www.w3.org/1999/xlink"><g visibility="visible" id="Default"><desc>Master slide</desc><g style="stroke:none;fill:none"><rect x="0" y="0" width="21000" height="29700"/></g></g><g visibility="visible" id="page1"><desc>Slide</desc><g><desc>Graphic</desc><g><g style="stroke:none;fill:rgb(153,153,153)"><path d="M 13929,11406 L 13929,11406 15074,10263 5913,10263 5913,19410 7058,18266 7058,11406 13929,11406 Z"/></g><g style="stroke:none;fill:rgb(102,102,102)"><path d="M 15074,10263 L 15074,10263 13929,11406 13929,18266 7058,18266 5913,19410 15074,19410 15074,10263 Z"/></g><g style="stroke:none;fill:rgb(119,119,119)"><path d="M 7058,11406 L 7058,11406 7058,18266 13929,18266 13929,11406 7058,11406 Z"/></g><g style="stroke:none;fill:rgb(71,71,71)"><path d="M 12558,17003 L 12558,17003 C 12959,16605 13160,16122 13160,15558 13160,14994 12959,14511 12558,14111 12160,13713 11676,13512 11111,13512 10546,13512 10062,13713 9661,14111 9263,14511 9062,14994 9062,15558 9062,16122 9263,16605 9661,17003 10062,17403 10546,17604 11111,17604 11676,17604 12160,17403 12558,17003 Z"/></g><g style="stroke:none;fill:rgb(115,96,255)"><path d="M 12212,13589 L 12212,13589 C 12151,13509 12083,13432 12009,13359 11591,12941 11086,12732 10493,12733 9902,12732 9397,12941 8978,13359 8560,13776 8350,14281 8352,14872 8350,15436 8541,15923 8925,16330 L 9174,16189 9174,16189 C 8811,15826 8630,15387 8630,14872 8630,14358 8811,13918 9174,13556 9539,13193 9978,13011 10493,13011 11008,13011 11449,13193 11812,13556 11900,13643 11975,13734 12041,13829 L 12212,13589 Z"/></g><g style="stroke:none;fill:rgb(23,0,191)"><path d="M 12041,13829 L 12041,13829 C 12086,13893 12127,13959 12161,14027 12292,14283 12358,14563 12360,14872 12358,15387 12175,15826 11812,16189 11449,16552 11008,16734 10493,16735 10059,16734 9675,16603 9349,16344 9289,16295 9230,16244 9174,16189 L 8925,16330 8925,16330 C 8940,16348 8958,16365 8978,16386 9397,16803 9902,17012 10493,17012 11086,17012 11591,16803 12009,16386 12428,15967 12638,15464 12638,14872 12638,14384 12496,13958 12212,13589 L 12041,13829 Z"/></g><g style="stroke:none;fill:rgb(35,4,255)"><path d="M 12161,14027 L 12161,14027 C 12127,13959 12086,13893 12041,13829 11975,13734 11900,13643 11812,13556 11449,13193 11008,13011 10493,13011 9978,13011 9539,13193 9174,13556 8811,13918 8630,14358 8630,14872 8630,15387 8811,15826 9174,16189 9230,16244 9289,16295 9349,16344 9350,14777 10288,14003 12161,14027 Z"/></g><g style="stroke:none;fill:rgb(0,108,217)"><path d="M 12360,14872 L 12360,14872 C 12358,14563 12292,14283 12161,14027 10288,14003 9350,14777 9349,16344 9675,16603 10059,16734 10493,16735 11008,16734 11449,16552 11812,16189 12175,15826 12358,15387 12360,14872 Z"/></g><g style="stroke:none;fill:rgb(156,142,255)"><path d="M 10071,13118 L 10071,13118 C 9783,13041 9511,13077 9253,13224 8996,13373 8829,13589 8752,13877 8675,14164 8712,14436 8860,14693 8881,14731 8905,14767 8930,14800 8935,14706 8951,14611 8978,14515 9080,14132 9303,13843 9647,13645 9959,13465 10286,13409 10628,13475 10486,13298 10302,13179 10071,13118 Z"/></g></g></g></g></svg>