<?xml version="1.0" encoding="UTF-8"?>
<!DOCTYPE svg PUBLIC "-//W3C//DTD SVG 1.1//EN" "http://www.w3.org/Graphics/SVG/1.1/DTD/svg11.dtd"><svg version="1.1" viewBox="0 0 21000 29700" preserveAspectRatio="xMidYMid" fill-rule="evenodd" xmlns="http://www.w3.org/2000/svg" xmlns:xlink="http://www.w3.org/1999/xlink"><g visibility="visible" id="Default"><desc>Master slide</desc><g style="stroke:none;fill:none"><rect x="0" y="0" width="21000" height="29700"/></g></g><g visibility="visible" id="page1"><desc>Slide</desc><g><desc>Graphic</desc><g><g style="stroke:none;fill:rgb(153,153,153)"><path d="M 15074,11978 L 15074,11978 15074,11406 5913,11406 5913,13693 6485,13693 6485,11978 15074,11978 Z"/></g><g style="stroke:none;fill:rgb(102,102,102)"><path d="M 6485,13693 L 6485,13693 5913,13693 5913,14265 8204,14265 8204,14265 C 8473,14466 8599,14665 8579,14863 8569,14974 8511,15090 8405,15214 L 8987,15217 8987,15217 C 9017,15116 9035,15010 9040,14897 9054,14592 8969,14314 8788,14066 8607,13818 8413,13693 8204,13693 L 6485,13693 Z"/></g><g style="stroke:none;fill:rgb(119,119,119)"><path d="M 6485,13693 L 8204,13693 8204,13693 C 8413,13693 8607,13818 8788,14066 8969,14314 9054,14592 9040,14897 9035,15010 9017,15116 8987,15217 8933,15387 8842,15537 8715,15667 8511,15876 8342,15979 8204,15979 L 8204,15979 6485,15979 6485,17695 15074,17695 15074,11978 6485,11978 6485,13693 Z M 13357,13693 L 13357,13693 13929,13693 13929,14265 14501,14265 14501,14836 13929,14836 13929,14265 13357,14265 13357,14836 12784,14836 12784,14265 13357,14265 13357,13693 Z M 14501,15408 L 14501,15408 14501,15979 12784,15979 12784,15408 14501,15408 Z"/></g><g style="stroke:none;fill:rgb(153,153,153)"><path d="M 13929,13693 L 13929,13693 13357,13693 13357,14265 13929,14265 13929,13693 Z"/><path d="M 13929,14265 L 13929,14265 13929,14836 14501,14836 14501,14265 13929,14265 Z"/><path d="M 13357,14836 L 13357,14836 13357,14265 12784,14265 12784,14836 13357,14836 Z"/><path d="M 14501,15979 L 14501,15979 14501,15408 12784,15408 12784,15979 14501,15979 Z"/><path d="M 8405,15214 L 8405,15214 C 8350,15275 8284,15342 8204,15408 L 8204,15408 5913,15408 5913,18266 6485,17695 6485,15979 8204,15979 8204,15979 C 8342,15979 8511,15876 8715,15667 8842,15537 8933,15387 8987,15217 L 8405,15214 Z"/></g><g style="stroke:none;fill:rgb(119,119,119)"><path d="M 8204,15408 L 8204,15408 C 8284,15342 8350,15275 8405,15214 8511,15090 8569,14974 8579,14863 8599,14665 8473,14466 8204,14265 L 8204,14265 5913,14265 5913,15408 8204,15408 Z"/></g><g style="stroke:none;fill:rgb(102,102,102)"><path d="M 6485,17695 L 6485,17695 5913,18266 15074,18266 15074,17695 6485,17695 Z"/></g><g style="stroke:none;fill:rgb(255,255,0)"><path d="M 6485,11121 L 6485,11121 6485,11406 7058,11406 7058,10656 6485,11121 Z"/></g><g style="stroke:none;fill:rgb(255,255,255)"><path d="M 6485,10263 L 6485,10263 6485,11121 7058,10656 7058,10263 6485,10263 Z"/></g><g style="stroke:none;fill:rgb(255,255,0)"><path d="M 7630,11121 L 7630,11121 7630,11406 8204,11406 8204,10656 7630,11121 Z"/></g><g style="stroke:none;fill:rgb(255,255,255)"><path d="M 7630,10263 L 7630,10263 7630,11121 8204,10656 8204,10263 7630,10263 Z"/></g><g style="stroke:none;fill:rgb(255,255,0)"><path d="M 8776,11121 L 8776,11121 8776,11406 9349,11406 9349,10656 8776,11121 Z"/></g><g style="stroke:none;fill:rgb(255,255,255)"><path d="M 8776,10263 L 8776,10263 8776,11121 9349,10656 9349,10263 8776,10263 Z"/></g><g style="stroke:none;fill:rgb(255,255,0)"><path d="M 9920,11121 L 9920,11121 9920,11406 10493,11406 10493,10656 9920,11121 Z"/></g><g style="stroke:none;fill:rgb(255,255,255)"><path d="M 9920,10263 L 9920,10263 9920,11121 10493,10656 10493,10263 9920,10263 Z"/></g><g style="stroke:none;fill:rgb(255,255,0)"><path d="M 11065,11121 L 11065,11121 11065,11406 11638,11406 11638,10656 11065,11121 Z"/></g><g style="stroke:none;fill:rgb(255,255,255)"><path d="M 11065,10263 L 11065,10263 11065,11121 11638,10656 11638,10263 11065,10263 Z"/></g><g style="stroke:none;fill:rgb(255,255,0)"><path d="M 12211,11121 L 12211,11121 12211,11406 12784,11406 12784,10656 12211,11121 Z"/></g><g style="stroke:none;fill:rgb(255,255,255)"><path d="M 12211,10263 L 12211,10263 12211,11121 12784,10656 12784,10263 12211,10263 Z"/></g><g style="stroke:none;fill:rgb(255,255,0)"><path d="M 13356,11121 L 13356,11121 13356,11406 13929,11406 13929,10656 13356,11121 Z"/></g><g style="stroke:none;fill:rgb(255,255,255)"><path d="M 13356,10263 L 13356,10263 13356,11121 13929,10656 13929,10263 13356,10263 Z"/></g><g style="stroke:none;fill:rgb(255,255,0)"><path d="M 14501,11121 L 14501,11121 14501,11406 15074,11406 15074,10656 14501,11121 Z"/></g><g style="stroke:none;fill:rgb(255,255,255)"><path d="M 14501,10263 L 14501,10263 14501,11121 15074,10656 15074,10263 14501,10263 Z"/></g><g style="stroke:none;fill:rgb(102,102,102)"><path d="M 9901,14836 L 9901,14836 C 9901,15113 9999,15349 10194,15544 10390,15738 10625,15837 10903,15837 11180,15837 11416,15738 11611,15544 11806,15349 11905,15113 11905,14836 11905,14559 11806,14323 11611,14129 11416,13934 11180,13836 10903,13836 10625,13836 10390,13934 10194,14129 9999,14323 9901,14559 9901,14836 Z"/></g><g style="stroke:none;fill:rgb(153,153,153)"><path d="M 10867,14265 L 10867,14265 C 10708,14265 10573,14319 10461,14431 10350,14543 10294,14677 10294,14836 10294,14995 10350,15129 10461,15240 10573,15352 10708,15407 10867,15407 11027,15407 11161,15352 11271,15240 11384,15129 11440,14995 11440,14836 11440,14677 11384,14543 11271,14431 11161,14319 11027,14265 10867,14265 Z"/></g><g style="stroke:none;fill:rgb(255,255,0)"><path d="M 7058,18552 L 7058,18552 7058,18266 6486,18266 6486,19016 7058,18552 Z"/></g><g style="stroke:none;fill:rgb(255,153,0)"><path d="M 6486,19016 L 6486,19016 6486,19409 7058,19409 7058,18552 6486,19016 Z"/></g><g style="stroke:none;fill:rgb(255,255,0)"><path d="M 8204,18552 L 8204,18552 8204,18266 7631,18266 7631,19016 8204,18552 Z"/></g><g style="stroke:none;fill:rgb(255,153,0)"><path d="M 7631,19016 L 7631,19016 7631,19409 8204,19409 8204,18552 7631,19016 Z"/></g><g style="stroke:none;fill:rgb(255,255,0)"><path d="M 9348,18552 L 9348,18552 9348,18266 8776,18266 8776,19016 9348,18552 Z"/></g><g style="stroke:none;fill:rgb(255,153,0)"><path d="M 8776,19016 L 8776,19016 8776,19409 9348,19409 9348,18552 8776,19016 Z"/></g><g style="stroke:none;fill:rgb(255,255,0)"><path d="M 10493,18552 L 10493,18552 10493,18266 9921,18266 9921,19016 10493,18552 Z"/></g><g style="stroke:none;fill:rgb(255,153,0)"><path d="M 9921,19016 L 9921,19016 9921,19409 10493,19409 10493,18552 9921,19016 Z"/></g><g style="stroke:none;fill:rgb(255,255,0)"><path d="M 11638,18552 L 11638,18552 11638,18266 11066,18266 11066,19016 11638,18552 Z"/></g><g style="stroke:none;fill:rgb(255,153,0)"><path d="M 11066,19016 L 11066,19016 11066,19409 11638,19409 11638,18552 11066,19016 Z"/></g><g style="stroke:none;fill:rgb(255,255,0)"><path d="M 12784,18552 L 12784,18552 12784,18266 12212,18266 12212,19016 12784,18552 Z"/></g><g style="stroke:none;fill:rgb(255,153,0)"><path d="M 12212,19016 L 12212,19016 12212,19409 12784,19409 12784,18552 12212,19016 Z"/></g><g style="stroke:none;fill:rgb(255,255,0)"><path d="M 13929,18552 L 13929,18552 13929,18266 13357,18266 13357,19016 13929,18552 Z"/></g><g style="stroke:none;fill:rgb(255,153,0)"><path d="M 13357,19016 L 13357,19016 13357,19409 13929,19409 13929,18552 13357,19016 Z"/></g><g style="stroke:none;fill:rgb(255,255,0)"><path d="M 15074,18552 L 15074,18552 15074,18266 14502,18266 14502,19016 15074,18552 Z"/></g><g style="stroke:none;fill:rgb(255,153,0)"><path d="M 14502,19016 L 14502,19016 14502,19409 15074,19409 15074,18552 14502,19016 Z"/></g></g></g></g></svg>