<?xml version="1.0" encoding="UTF-8"?>
<!DOCTYPE svg PUBLIC "-//W3C//DTD SVG 1.1//EN" "http://www.w3.org/Graphics/SVG/1.1/DTD/svg11.dtd"><svg version="1.1" viewBox="0 0 21000 29700" preserveAspectRatio="xMidYMid" fill-rule="evenodd" xmlns="http://www.w3.org/2000/svg" xmlns:xlink="http://www.w3.org/1999/xlink"><g visibility="visible" id="Default"><desc>Master slide</desc><g style="stroke:none;fill:none"><rect x="0" y="0" width="21000" height="29700"/></g></g><g visibility="visible" id="page1"><desc>Slide</desc><g><desc>Graphic</desc><g><g style="stroke:none;fill:rgb(153,153,153)"><path d="M 12212,10834 L 12212,10834 14501,10834 15074,10263 5913,10263 5913,19410 6485,18838 6485,16552 6485,10834 12212,10834 Z"/></g><g style="stroke:none;fill:rgb(119,119,119)"><path d="M 14501,10834 L 14501,10834 12212,10834 12212,16552 6485,16552 6485,18838 14501,18838 14501,10834 Z"/></g><g style="stroke:none;fill:rgb(102,102,102)"><path d="M 15074,10263 L 15074,10263 14501,10834 14501,18838 6485,18838 5913,19410 15074,19410 15074,10263 Z"/></g><g style="stroke:none;fill:rgb(153,153,153)"><path d="M 12212,16552 L 12212,16552 12212,10834 11638,11406 11638,15979 7058,15979 6485,16552 12212,16552 Z"/></g><g style="stroke:none;fill:rgb(102,102,102)"><path d="M 6485,16552 L 6485,16552 7058,15979 7058,11406 11638,11406 12212,10834 6485,10834 6485,16552 Z"/></g><g style="stroke:none;fill:rgb(0,0,0)"><path d="M 11638,11406 L 11638,11406 7058,11406 7058,15979 11638,15979 11638,11406 Z"/></g><g style="stroke:rgb(1,243,1);stroke-width:36;stroke-linejoin:round;fill:rgb(255,255,255)"><path style="fill:none" d="M 5913,10263 L 5913,10263 15074,10263 15074,19410 5913,19410 5913,10263"/></g><g style="stroke:none;fill:rgb(0,255,0)"><path d="M 9572,11980 L 9572,11980 9384,11942 9420,12407 9572,11980 Z"/><path d="M 9134,11764 L 9134,11764 C 9134,11776 9137,11783 9143,11787 9261,11863 9258,11855 9134,11764 Z"/><path d="M 8822,12417 L 8822,12417 C 8879,12422 8935,12419 8991,12407 L 8991,12407 8991,11764 8561,12050 8561,12050 C 8541,12262 8628,12384 8822,12417 Z M 8668,12174 L 8668,12085 8668,12085 C 8942,12101 8942,12132 8668,12174 Z"/><path d="M 9527,13014 L 9384,13157 9384,13157 C 9457,13262 9542,13355 9637,13436 9645,13444 9652,13429 9658,13391 L 9658,13391 9572,13325 9751,13064 9527,13014 Z M 9492,13175 L 9492,13157 9492,13157 C 9733,13104 9733,13109 9492,13175 Z"/><path d="M 9349,13219 L 9349,13219 C 9349,13152 9326,13095 9277,13046 9228,12998 9169,12973 9099,12973 9030,12973 8973,12998 8925,13046 8876,13095 8851,13152 8851,13219 8851,13287 8876,13346 8925,13395 8973,13443 9030,13467 9099,13467 9169,13467 9228,13443 9277,13395 9326,13346 9349,13287 9349,13219 Z M 8998,13135 L 8998,13135 9166,13135 9166,13303 8998,13303 8998,13135 Z"/><path d="M 10234,13013 L 10234,13013 C 10204,13068 10152,13098 10075,13102 10054,12993 10010,12967 9947,13027 L 9947,13027 10003,13271 9935,13479 10102,13345 10312,13453 10183,13231 10315,13014 10315,13014 C 10266,13002 10240,13002 10234,13013 Z"/><path d="M 10565,13486 L 10565,13486 10654,13147 10493,13139 10671,13142 10719,12983 10413,12983 10565,13486 Z"/><path d="M 11272,13123 L 11272,13123 11205,12997 11031,12978 10916,13221 11141,13482 11141,13482 C 11207,13390 11170,13334 11032,13316 L 11032,13316 11031,13086 11272,13123 Z"/><path d="M 8061,11942 L 8061,11942 C 8061,11954 8064,11962 8069,11966 8187,12043 8183,12033 8061,11942 Z"/><path d="M 8187,12401 L 8187,12401 C 8214,12328 8209,12284 8167,12264 8155,12264 8145,12264 8132,12264 8108,12264 8084,12264 8061,12264 8033,12363 8059,12408 8132,12407 8145,12407 8155,12407 8167,12407 8180,12407 8185,12405 8187,12401 Z"/><path d="M 7632,12150 L 7632,12150 C 7630,12150 7630,12148 7632,12143 L 7632,12143 7843,11999 7523,12085 7523,12085 C 7468,12279 7564,12385 7810,12407 7871,12287 7811,12202 7632,12150 Z"/><path d="M 7574,13060 L 7574,13060 7713,13123 7541,13443 7845,13421 7799,12995 7574,13060 Z"/><path d="M 8347,13014 L 8347,13014 8246,13322 8291,13446 8347,13014 Z"/><path d="M 8710,13028 L 8710,13028 8527,13050 8776,13479 8710,13028 Z"/><path d="M 8597,14086 L 8597,14086 8597,14515 8826,14159 8930,14468 8960,14197 8597,14086 Z"/><path d="M 8359,14435 L 8359,14435 C 8402,14389 8424,14338 8424,14277 8424,14216 8402,14164 8359,14122 8316,14077 8264,14056 8204,14056 8143,14056 8091,14077 8047,14122 8005,14164 7983,14216 7983,14277 7983,14338 8005,14389 8047,14435 8091,14477 8143,14499 8204,14499 8264,14499 8316,14477 8359,14435 Z M 8146,14284 L 8146,14284 C 8137,14283 8132,14253 8132,14193 8405,14295 8411,14325 8146,14284 Z"/><path d="M 7595,14118 L 7595,14118 7523,14157 7504,14368 7838,14490 7632,14386 7845,14086 7630,14050 7595,14118 Z"/><path d="M 7667,15265 L 7667,15265 7867,15485 8096,15247 8160,15526 8132,15146 7555,15167 7616,15584 7667,15265 Z"/><path d="M 8525,15290 L 8525,15290 8633,15158 8377,15188 8502,15511 8319,15567 8689,15508 8525,15290 Z"/><path d="M 9982,14145 L 9917,14066 9917,14066 C 9785,14038 9690,14104 9635,14265 9633,14405 9699,14479 9830,14480 9885,14487 9925,14513 9949,14554 L 9949,14554 9670,14586 10015,14645 10015,14645 C 10092,14545 10106,14431 10054,14302 10031,14246 10007,14195 9982,14145 Z M 9949,14199 L 9949,14199 C 9955,14208 9956,14216 9956,14229 9956,14265 9956,14300 9956,14337 9956,14349 9956,14359 9956,14372 9956,14384 9955,14391 9949,14393 9801,14468 9743,14389 9778,14157 9865,14141 9923,14154 9949,14199 Z"/><path d="M 9420,13907 L 9420,13907 C 9420,13920 9424,13927 9429,13930 9547,14007 9544,13998 9420,13907 Z"/><path d="M 9384,13907 L 9384,13907 9205,13907 9062,14108 9223,14550 9384,13907 Z"/><path d="M 9492,14086 L 9492,14086 C 9469,14086 9443,14086 9420,14086 9386,14286 9413,14426 9500,14506 9506,14511 9515,14515 9527,14515 9540,14515 9546,14513 9546,14511 9576,14342 9569,14199 9527,14086 9515,14086 9504,14086 9492,14086 Z"/><path d="M 9241,14980 L 9241,14980 9080,15153 8919,15123 8811,15265 8946,15598 9241,15586 9241,14980 Z M 8919,15265 L 8919,15265 C 9193,15367 9198,15397 8933,15356 8925,15354 8919,15324 8919,15265 Z"/><path d="M 9425,15190 L 9425,15190 C 9377,15238 9352,15296 9352,15364 9352,15431 9377,15490 9425,15539 9474,15586 9530,15610 9600,15610 9670,15610 9729,15586 9778,15539 9827,15490 9849,15431 9849,15364 9849,15296 9827,15238 9778,15190 9729,15142 9670,15116 9600,15116 9530,15116 9474,15142 9425,15190 Z M 9499,15448 L 9499,15448 9499,15280 9667,15280 9667,15448 9499,15448 Z"/><path d="M 9953,15233 L 9953,15233 10122,15499 9956,15569 10270,15540 10109,15290 10243,15172 9953,15233 Z"/></g><g style="stroke:none;fill:rgb(102,102,102)"><path d="M 13357,11406 L 13357,11406 13357,11978 13929,11978 13929,11406 13357,11406 Z"/></g><g style="stroke:none;fill:rgb(153,153,153)"><path d="M 13357,11978 L 13357,11978 13357,11406 12784,11406 12784,11978 13357,11978 Z"/></g><g style="stroke:none;fill:rgb(102,102,102)"><path d="M 13929,12550 L 13929,12550 13357,12550 13357,13121 13929,13121 13929,12550 Z"/></g><g style="stroke:none;fill:rgb(153,153,153)"><path d="M 13357,13121 L 13357,13121 13357,12550 12784,12550 12784,13121 13357,13121 Z"/></g><g style="stroke:none;fill:rgb(102,102,102)"><path d="M 13357,13693 L 13357,13693 13357,14265 13929,14265 13929,13693 13357,13693 Z"/></g><g style="stroke:none;fill:rgb(153,153,153)"><path d="M 13357,14265 L 13357,14265 13357,13693 12784,13693 12784,14265 13357,14265 Z"/></g><g style="stroke:none;fill:rgb(102,102,102)"><path d="M 13929,14837 L 13929,14837 13357,14837 13357,15408 13929,15408 13929,14837 Z"/></g><g style="stroke:none;fill:rgb(153,153,153)"><path d="M 13357,15408 L 13357,15408 13357,14837 12784,14837 12784,15408 13357,15408 Z"/></g><g style="stroke:none;fill:rgb(102,102,102)"><path d="M 13357,15979 L 13357,15979 13357,16551 13929,16551 13929,15979 13357,15979 Z"/></g><g style="stroke:none;fill:rgb(153,153,153)"><path d="M 13357,16551 L 13357,16551 13357,15979 12784,15979 12784,16551 13357,16551 Z"/></g><g style="stroke:none;fill:rgb(255,0,0)"><path d="M 13931,17123 L 13931,17123 13358,17123 13358,17695 13931,17695 13931,17123 Z"/></g><g style="stroke:none;fill:rgb(102,102,102)"><path d="M 13931,18266 L 13931,18266 13931,17695 13358,17695 13358,18266 13931,18266 Z"/></g><g style="stroke:none;fill:rgb(255,255,0)"><path d="M 12786,17123 L 12786,17123 12213,17123 12213,17695 12786,17695 12786,17123 Z"/></g><g style="stroke:none;fill:rgb(102,102,102)"><path d="M 12786,18266 L 12786,18266 12786,17695 12213,17695 12213,18266 12786,18266 Z"/></g><g style="stroke:none;fill:rgb(153,153,153)"><path d="M 7630,17123 L 7630,17123 7058,17123 7058,17695 7630,17695 7630,17123 Z"/></g><g style="stroke:none;fill:rgb(102,102,102)"><path d="M 7630,18266 L 7630,18266 7630,17695 7058,17695 7058,18266 7630,18266 Z"/><path d="M 8204,17123 L 8204,17123 7630,17123 7630,17695 8204,17695 8204,17123 Z"/></g><g style="stroke:none;fill:rgb(0,0,0)"><path d="M 8204,18266 L 8204,18266 8204,17695 7630,17695 7630,18266 8204,18266 Z"/></g><g style="stroke:none;fill:rgb(153,153,153)"><path d="M 9348,17123 L 9348,17123 8776,17123 8776,17695 9348,17695 9348,17123 Z"/></g><g style="stroke:none;fill:rgb(102,102,102)"><path d="M 9348,18266 L 9348,18266 9348,17695 8776,17695 8776,18266 9348,18266 Z"/><path d="M 9921,17123 L 9921,17123 9348,17123 9348,17695 9921,17695 9921,17123 Z"/></g><g style="stroke:none;fill:rgb(0,0,0)"><path d="M 9921,18266 L 9921,18266 9921,17695 9348,17695 9348,18266 9921,18266 Z"/></g><g style="stroke:none;fill:rgb(153,153,153)"><path d="M 11066,17123 L 11066,17123 10494,17123 10494,17695 11066,17695 11066,17123 Z"/></g><g style="stroke:none;fill:rgb(102,102,102)"><path d="M 11066,18266 L 11066,18266 11066,17695 10494,17695 10494,18266 11066,18266 Z"/><path d="M 11639,17123 L 11639,17123 11066,17123 11066,17695 11639,17695 11639,17123 Z"/></g><g style="stroke:none;fill:rgb(0,0,0)"><path d="M 11639,18266 L 11639,18266 11639,17695 11066,17695 11066,18266 11639,18266 Z"/></g></g></g></g></svg>