<?xml version="1.0" encoding="UTF-8"?>
<!DOCTYPE svg PUBLIC "-//W3C//DTD SVG 1.1//EN" "http://www.w3.org/Graphics/SVG/1.1/DTD/svg11.dtd"><svg version="1.1" viewBox="0 0 21000 29700" preserveAspectRatio="xMidYMid" fill-rule="evenodd" xmlns="http://www.w3.org/2000/svg" xmlns:xlink="http://www.w3.org/1999/xlink"><g visibility="visible" id="Default"><desc>Master slide</desc><g style="stroke:none;fill:none"><rect x="0" y="0" width="21000" height="29700"/></g></g><g visibility="visible" id="page1"><desc>Slide</desc><g><desc>Graphic</desc><g><g style="stroke:none;fill:rgb(255,0,0)"><path d="M 5913,10263 L 5913,10263 6485,10834 14501,10834 14501,18838 15074,19410 15074,10263 5913,10263 Z"/></g><g style="stroke:none;fill:rgb(255,255,0)"><path d="M 6485,10834 L 6485,10834 5913,10263 5913,19410 15074,19410 14501,18838 6485,18838 6485,10834 Z"/></g><g style="stroke:none;fill:rgb(255,153,68)"><path d="M 14501,18838 L 14501,18838 14501,10834 6485,10834 6485,18838 14501,18838 Z M 13357,12550 L 13357,12550 13929,12550 13929,13693 9349,13693 9349,14265 11638,14265 11638,14836 12212,14836 12212,15979 9349,15979 9349,16552 13357,16552 13357,17123 13929,17123 13929,18266 8204,18266 8204,17695 7630,17695 7630,11978 13357,11978 13357,12550 Z"/></g><g style="stroke:none;fill:rgb(0,0,0)"><path d="M 13929,12550 L 13929,12550 13357,12550 13357,13121 8776,13121 8776,14265 9349,14265 9349,13693 13929,13693 13929,12550 Z"/></g><g style="stroke:none;fill:rgb(255,255,255)"><path d="M 13357,13121 L 13357,13121 13357,12550 13357,11978 7630,11978 7630,17695 8204,17695 13357,17695 13357,17123 13357,16552 9349,16552 8776,16552 8776,15408 11638,15408 11638,14836 11638,14265 9349,14265 8776,14265 8776,13121 13357,13121 Z"/></g><g style="stroke:none;fill:rgb(0,0,0)"><path d="M 13929,17123 L 13929,17123 13357,17123 13357,17695 8204,17695 8204,18266 13929,18266 13929,17123 Z"/><path d="M 12212,15979 L 12212,15979 12212,14836 11638,14836 11638,15408 8776,15408 8776,16552 9349,16552 9349,15979 12212,15979 Z"/></g></g></g></g></svg>