<?xml version="1.0" encoding="UTF-8"?>
<!DOCTYPE svg PUBLIC "-//W3C//DTD SVG 1.1//EN" "http://www.w3.org/Graphics/SVG/1.1/DTD/svg11.dtd"><svg version="1.1" viewBox="0 0 21000 29700" preserveAspectRatio="xMidYMid" fill-rule="evenodd" xmlns="http://www.w3.org/2000/svg" xmlns:xlink="http://www.w3.org/1999/xlink"><g visibility="visible" id="Default"><desc>Master slide</desc><g style="stroke:none;fill:none"><rect x="0" y="0" width="21000" height="29700"/></g></g><g visibility="visible" id="page1"><desc>Slide</desc><g><desc>Graphic</desc><g><g style="stroke:none;fill:rgb(108,3,0)"><path d="M 10170,18651 L 10170,18651 C 10125,18671 10078,18684 10029,18691 9898,18716 9766,18695 9631,18625 9586,18602 9540,18573 9495,18537 9443,18410 9393,18255 9349,18074 L 9349,17655 9349,17655 C 9493,18293 9663,18612 9857,18611 10094,18612 10296,18132 10463,17171 L 10463,17171 10511,16872 10511,18410 10511,18410 C 10399,18525 10284,18605 10170,18651 Z"/></g><g style="stroke:none;fill:rgb(135,2,0)"><path d="M 10511,16872 L 10463,17171 10463,17171 C 10296,18132 10094,18612 9857,18611 9663,18612 9493,18293 9349,17655 L 9349,17002 9349,17002 C 9492,17737 9661,18103 9857,18101 10069,18103 10251,17674 10401,16815 10441,16573 10479,16313 10511,16028 L 10511,16872 Z"/></g><g style="stroke:none;fill:rgb(152,1,0)"><path d="M 10511,16028 L 10511,16028 C 10479,16313 10441,16573 10401,16815 10251,17674 10069,18103 9857,18101 9661,18103 9492,17737 9349,17002 L 9349,17002 9349,16280 9377,16457 9377,16457 C 9511,17215 9670,17594 9857,17594 10045,17594 10204,17215 10336,16457 10422,15969 10481,15415 10511,14793 L 10511,16028 Z"/></g><g style="stroke:none;fill:rgb(146,2,0)"><path d="M 10511,11459 L 10511,12614 10511,12614 C 10488,12165 10453,11747 10401,11359 L 10511,11459 Z"/></g><g style="stroke:none;fill:rgb(205,4,0)"><path d="M 10211,11672 L 10211,11672 C 10310,12231 10359,12908 10359,13706 10359,14504 10310,15181 10211,15737 10113,16300 9994,16580 9857,16580 9719,16580 9600,16300 9502,15737 9404,15179 9356,14503 9356,13706 9356,12911 9404,12231 9502,11672 9529,11515 9558,11380 9588,11270 L 9661,11230 9661,11230 C 9712,11207 9760,11193 9804,11184 9839,11177 9867,11174 9889,11172 9937,11168 9984,11169 10032,11179 10052,11181 10076,11186 10104,11195 10107,11209 10111,11223 10114,11236 10146,11350 10179,11495 10211,11672 Z M 10272,13706 L 10272,13706 C 10272,13046 10230,12488 10150,12029 10068,11567 9970,11336 9857,11336 9743,11336 9645,11567 9563,12029 9483,12494 9443,13053 9443,13706 9443,14358 9483,14915 9563,15380 9645,15843 9743,16073 9857,16073 9970,16073 10068,15843 10150,15380 10230,14922 10272,14365 10272,13706 Z"/></g><g style="stroke:none;fill:rgb(214,50,0)"><path d="M 10150,12029 L 10150,12029 C 10230,12488 10272,13046 10272,13706 10272,14365 10230,14922 10150,15380 10068,15843 9970,16073 9857,16073 9743,16073 9645,15843 9563,15380 9483,14915 9443,14358 9443,13706 9443,13053 9483,12494 9563,12029 9645,11567 9743,11336 9857,11336 9970,11336 10068,11567 10150,12029 Z M 10211,13706 L 10211,13706 C 10211,13142 10177,12663 10109,12268 10039,11872 9955,11674 9857,11674 9758,11674 9675,11872 9607,12268 9537,12667 9502,13147 9502,13706 9502,14265 9537,14742 9607,15140 9674,15535 9758,15733 9857,15733 9955,15733 10039,15535 10109,15140 10177,14746 10211,14269 10211,13706 Z"/></g><g style="stroke:none;fill:rgb(215,55,0)"><path d="M 10109,12268 L 10109,12268 C 10177,12663 10211,13142 10211,13706 10211,14269 10177,14746 10109,15140 10039,15535 9955,15733 9857,15733 9758,15733 9674,15535 9607,15140 9537,14742 9502,14265 9502,13706 9502,13147 9537,12667 9607,12268 9675,11872 9758,11674 9857,11674 9955,11674 10039,11872 10109,12268 Z M 10183,13706 L 10183,13706 C 10183,13198 10150,12759 10087,12387 10023,12024 9946,11843 9857,11843 9767,11843 9690,12024 9628,12387 9563,12753 9530,13192 9530,13706 9530,14218 9563,14656 9628,15020 9690,15383 9767,15565 9857,15565 9946,15565 10023,15383 10087,15020 10150,14651 10183,14213 10183,13706 Z"/></g><g style="stroke:none;fill:rgb(226,106,0)"><path d="M 10087,12387 L 10087,12387 C 10150,12759 10183,13198 10183,13706 10183,14213 10150,14651 10087,15020 10023,15383 9946,15565 9857,15565 9767,15565 9690,15383 9628,15020 9563,14656 9530,14218 9530,13706 9530,13192 9563,12753 9628,12387 9690,12024 9767,11843 9857,11843 9946,11843 10023,12024 10087,12387 Z M 10024,14663 L 10024,14663 C 10071,14393 10094,14075 10094,13706 10094,13336 10071,13016 10024,12745 9980,12481 9923,12349 9857,12349 9790,12349 9735,12481 9690,12745 9644,13016 9621,13336 9621,13706 9621,14075 9644,14393 9690,14663 9735,14926 9790,15057 9857,15057 9923,15057 9980,14926 10024,14663 Z"/></g><g style="stroke:none;fill:rgb(236,157,0)"><path d="M 10094,13706 L 10094,13706 C 10094,14075 10071,14393 10024,14663 9980,14926 9923,15057 9857,15057 9790,15057 9735,14926 9690,14663 9644,14393 9621,14075 9621,13706 9621,13336 9644,13016 9690,12745 9735,12481 9790,12349 9857,12349 9923,12349 9980,12481 10024,12745 10071,13016 10094,13336 10094,13706 Z M 9963,14302 L 9963,14302 C 9991,14136 10005,13938 10005,13706 10005,13472 9991,13273 9963,13107 9935,12942 9900,12860 9857,12859 9813,12860 9780,12942 9755,13107 9724,13273 9710,13472 9712,13706 9710,13938 9724,14136 9755,14302 9780,14468 9813,14550 9857,14550 9900,14550 9935,14468 9963,14302 Z"/></g><g style="stroke:none;fill:rgb(246,208,0)"><path d="M 10005,13706 L 10005,13706 C 10005,13938 9991,14136 9963,14302 9935,14468 9900,14550 9857,14550 9813,14550 9780,14468 9755,14302 9724,14136 9710,13938 9712,13706 9710,13472 9724,13273 9755,13107 9780,12942 9813,12860 9857,12859 9900,12860 9935,12942 9963,13107 9991,13273 10005,13472 10005,13706 Z M 9917,13706 L 9917,13706 C 9917,13612 9912,13532 9900,13466 9886,13400 9872,13367 9857,13367 9842,13367 9828,13400 9815,13466 9803,13532 9797,13610 9799,13706 9797,13800 9803,13879 9815,13943 9828,14009 9842,14043 9857,14043 9872,14043 9886,14009 9900,13943 9912,13877 9917,13797 9917,13706 Z"/></g><g style="stroke:none;fill:rgb(255,255,0)"><path d="M 9900,13466 L 9900,13466 C 9912,13532 9917,13612 9917,13706 9917,13797 9912,13877 9900,13943 9886,14009 9872,14043 9857,14043 9842,14043 9828,14009 9815,13943 9803,13879 9797,13800 9799,13706 9797,13610 9803,13532 9815,13466 9828,13400 9842,13367 9857,13367 9872,13367 9886,13400 9900,13466 Z"/></g><g style="stroke:none;fill:rgb(188,0,0)"><path d="M 10359,13706 L 10359,13706 C 10359,12908 10310,12231 10211,11672 10179,11495 10146,11350 10114,11236 10111,11223 10107,11209 10104,11195 L 10104,11195 10166,11216 10268,11267 10275,11312 10275,11312 C 10392,11981 10448,12778 10448,13706 10448,14632 10392,15429 10275,16096 10160,16757 10021,17088 9857,17088 9694,17088 9554,16757 9440,16096 9401,15882 9370,15662 9349,15439 L 9349,12806 9349,12806 C 9368,12376 9411,11969 9476,11586 9478,11576 9479,11564 9481,11552 L 9481,11552 9527,11307 9588,11270 9588,11270 C 9558,11380 9529,11515 9502,11672 9404,12231 9356,12911 9356,13706 9356,14503 9404,15179 9502,15737 9600,16300 9719,16580 9857,16580 9994,16580 10113,16300 10211,15737 10310,15181 10359,14504 10359,13706 Z"/></g><g style="stroke:none;fill:rgb(170,1,0)"><path d="M 10511,12614 L 10511,14793 10511,14793 C 10481,15415 10422,15969 10336,16457 10204,17215 10045,17594 9857,17594 9670,17594 9511,17215 9377,16457 L 9377,16457 9349,16280 9349,15439 9349,15439 C 9370,15662 9401,15882 9440,16096 9554,16757 9694,17088 9857,17088 10021,17088 10160,16757 10275,16096 10392,15429 10448,14632 10448,13706 10448,12778 10392,11981 10275,11312 L 10275,11312 10268,11267 10401,11359 10401,11359 C 10453,11747 10488,12165 10511,12614 Z"/></g><g style="stroke:none;fill:rgb(100,4,0)"><path d="M 9349,18410 L 9349,18074 9349,18074 C 9393,18255 9443,18410 9495,18537 9443,18499 9395,18459 9349,18410 Z"/></g><g style="stroke:none;fill:rgb(182,0,0)"><path d="M 9476,11586 L 9476,11586 C 9411,11969 9368,12376 9349,12806 L 9349,12806 9349,11459 9527,11307 9481,11552 9481,11552 C 9479,11564 9478,11576 9476,11586 Z"/></g><g style="stroke:none;fill:rgb(108,3,0)"><path d="M 11315,18651 L 11315,18651 C 11270,18671 11224,18684 11174,18691 11043,18716 10911,18695 10776,18625 10732,18602 10685,18573 10640,18537 10588,18410 10539,18255 10494,18074 L 10494,17655 10494,17655 C 10638,18293 10809,18612 11002,18611 11240,18612 11442,18132 11608,17171 L 11608,17171 11657,16872 11657,18410 11657,18410 C 11544,18525 11429,18605 11315,18651 Z"/></g><g style="stroke:none;fill:rgb(135,2,0)"><path d="M 11657,16872 L 11608,17171 11608,17171 C 11442,18132 11240,18612 11002,18611 10809,18612 10638,18293 10494,17655 L 10494,17002 10494,17002 C 10637,17737 10807,18103 11002,18101 11214,18103 11396,17674 11546,16815 11587,16573 11624,16313 11657,16028 L 11657,16872 Z"/></g><g style="stroke:none;fill:rgb(152,1,0)"><path d="M 11657,16028 L 11657,16028 C 11624,16313 11587,16573 11546,16815 11396,17674 11214,18103 11002,18101 10807,18103 10637,17737 10494,17002 L 10494,17002 10494,16280 10523,16457 10523,16457 C 10656,17215 10816,17594 11002,17594 11190,17594 11349,17215 11481,16457 11567,15969 11626,15415 11657,14793 L 11657,16028 Z"/></g><g style="stroke:none;fill:rgb(146,2,0)"><path d="M 11657,11459 L 11657,12614 11657,12614 C 11633,12165 11598,11747 11546,11359 L 11657,11459 Z"/></g><g style="stroke:none;fill:rgb(205,4,0)"><path d="M 11356,11672 L 11356,11672 C 11455,12231 11505,12908 11505,13706 11505,14504 11455,15181 11356,15737 11258,16300 11139,16580 11002,16580 10864,16580 10746,16300 10647,15737 10549,15179 10501,14503 10501,13706 10501,12911 10549,12231 10647,11672 10675,11515 10703,11380 10734,11270 L 10807,11230 10807,11230 C 10857,11207 10905,11193 10950,11184 10984,11177 11013,11174 11034,11172 11083,11168 11129,11169 11177,11179 11197,11181 11221,11186 11249,11195 11252,11209 11256,11223 11259,11236 11291,11350 11324,11495 11356,11672 Z M 11417,13706 L 11417,13706 C 11417,13046 11376,12488 11296,12029 11213,11567 11115,11336 11002,11336 10889,11336 10790,11567 10708,12029 10628,12494 10588,13053 10588,13706 10588,14358 10628,14915 10708,15380 10790,15843 10889,16073 11002,16073 11115,16073 11213,15843 11296,15380 11376,14922 11417,14365 11417,13706 Z"/></g><g style="stroke:none;fill:rgb(214,50,0)"><path d="M 11296,12029 L 11296,12029 C 11376,12488 11417,13046 11417,13706 11417,14365 11376,14922 11296,15380 11213,15843 11115,16073 11002,16073 10889,16073 10790,15843 10708,15380 10628,14915 10588,14358 10588,13706 10588,13053 10628,12494 10708,12029 10790,11567 10889,11336 11002,11336 11115,11336 11213,11567 11296,12029 Z M 11356,13706 L 11356,13706 C 11356,13142 11322,12663 11254,12268 11184,11872 11101,11674 11002,11674 10903,11674 10821,11872 10752,12268 10682,12667 10647,13147 10647,13706 10647,14265 10682,14742 10752,15140 10820,15535 10903,15733 11002,15733 11101,15733 11184,15535 11254,15140 11322,14746 11356,14269 11356,13706 Z"/></g><g style="stroke:none;fill:rgb(215,55,0)"><path d="M 11254,12268 L 11254,12268 C 11322,12663 11356,13142 11356,13706 11356,14269 11322,14746 11254,15140 11184,15535 11101,15733 11002,15733 10903,15733 10820,15535 10752,15140 10682,14742 10647,14265 10647,13706 10647,13147 10682,12667 10752,12268 10821,11872 10903,11674 11002,11674 11101,11674 11184,11872 11254,12268 Z M 11328,13706 L 11328,13706 C 11328,13198 11296,12759 11233,12387 11169,12024 11092,11843 11002,11843 10912,11843 10835,12024 10773,12387 10708,12753 10676,13192 10676,13706 10676,14218 10708,14656 10773,15020 10835,15383 10912,15565 11002,15565 11092,15565 11169,15383 11233,15020 11296,14651 11328,14213 11328,13706 Z"/></g><g style="stroke:none;fill:rgb(226,106,0)"><path d="M 11233,12387 L 11233,12387 C 11296,12759 11328,13198 11328,13706 11328,14213 11296,14651 11233,15020 11169,15383 11092,15565 11002,15565 10912,15565 10835,15383 10773,15020 10708,14656 10676,14218 10676,13706 10676,13192 10708,12753 10773,12387 10835,12024 10912,11843 11002,11843 11092,11843 11169,12024 11233,12387 Z M 11170,14663 L 11170,14663 C 11216,14393 11240,14075 11240,13706 11240,13336 11216,13016 11170,12745 11125,12481 11068,12349 11002,12349 10935,12349 10881,12481 10835,12745 10789,13016 10766,13336 10766,13706 10766,14075 10789,14393 10835,14663 10881,14926 10935,15057 11002,15057 11068,15057 11125,14926 11170,14663 Z"/></g><g style="stroke:none;fill:rgb(236,157,0)"><path d="M 11240,13706 L 11240,13706 C 11240,14075 11216,14393 11170,14663 11125,14926 11068,15057 11002,15057 10935,15057 10881,14926 10835,14663 10789,14393 10766,14075 10766,13706 10766,13336 10789,13016 10835,12745 10881,12481 10935,12349 11002,12349 11068,12349 11125,12481 11170,12745 11216,13016 11240,13336 11240,13706 Z M 11108,14302 L 11108,14302 C 11136,14136 11150,13938 11150,13706 11150,13472 11136,13273 11108,13107 11080,12942 11045,12860 11002,12859 10959,12860 10925,12942 10900,13107 10869,13273 10855,13472 10857,13706 10855,13938 10869,14136 10900,14302 10925,14468 10959,14550 11002,14550 11045,14550 11080,14468 11108,14302 Z"/></g><g style="stroke:none;fill:rgb(246,208,0)"><path d="M 11150,13706 L 11150,13706 C 11150,13938 11136,14136 11108,14302 11080,14468 11045,14550 11002,14550 10959,14550 10925,14468 10900,14302 10869,14136 10855,13938 10857,13706 10855,13472 10869,13273 10900,13107 10925,12942 10959,12860 11002,12859 11045,12860 11080,12942 11108,13107 11136,13273 11150,13472 11150,13706 Z M 11062,13706 L 11062,13706 C 11062,13612 11057,13532 11045,13466 11032,13400 11018,13367 11002,13367 10987,13367 10973,13400 10961,13466 10949,13532 10943,13610 10945,13706 10943,13800 10949,13879 10961,13943 10973,14009 10987,14043 11002,14043 11018,14043 11032,14009 11045,13943 11057,13877 11062,13797 11062,13706 Z"/></g><g style="stroke:none;fill:rgb(255,255,0)"><path d="M 11045,13466 L 11045,13466 C 11057,13532 11062,13612 11062,13706 11062,13797 11057,13877 11045,13943 11032,14009 11018,14043 11002,14043 10987,14043 10973,14009 10961,13943 10949,13879 10943,13800 10945,13706 10943,13610 10949,13532 10961,13466 10973,13400 10987,13367 11002,13367 11018,13367 11032,13400 11045,13466 Z"/></g><g style="stroke:none;fill:rgb(188,0,0)"><path d="M 11505,13706 L 11505,13706 C 11505,12908 11455,12231 11356,11672 11324,11495 11291,11350 11259,11236 11256,11223 11252,11209 11249,11195 L 11249,11195 11312,11216 11413,11267 11420,11312 11420,11312 C 11537,11981 11594,12778 11594,13706 11594,14632 11537,15429 11420,16096 11306,16757 11167,17088 11002,17088 10839,17088 10699,16757 10585,16096 10546,15882 10515,15662 10494,15439 L 10494,12806 10494,12806 C 10513,12376 10556,11969 10621,11586 10623,11576 10624,11564 10626,11552 L 10626,11552 10673,11307 10734,11270 10734,11270 C 10703,11380 10675,11515 10647,11672 10549,12231 10501,12911 10501,13706 10501,14503 10549,15179 10647,15737 10746,16300 10864,16580 11002,16580 11139,16580 11258,16300 11356,15737 11455,15181 11505,14504 11505,13706 Z"/></g><g style="stroke:none;fill:rgb(170,1,0)"><path d="M 11657,12614 L 11657,14793 11657,14793 C 11626,15415 11567,15969 11481,16457 11349,17215 11190,17594 11002,17594 10816,17594 10656,17215 10523,16457 L 10523,16457 10494,16280 10494,15439 10494,15439 C 10515,15662 10546,15882 10585,16096 10699,16757 10839,17088 11002,17088 11167,17088 11306,16757 11420,16096 11537,15429 11594,14632 11594,13706 11594,12778 11537,11981 11420,11312 L 11420,11312 11413,11267 11546,11359 11546,11359 C 11598,11747 11633,12165 11657,12614 Z"/></g><g style="stroke:none;fill:rgb(100,4,0)"><path d="M 10494,18410 L 10494,18074 10494,18074 C 10539,18255 10588,18410 10640,18537 10588,18499 10540,18459 10494,18410 Z"/></g><g style="stroke:none;fill:rgb(182,0,0)"><path d="M 10621,11586 L 10621,11586 C 10556,11969 10513,12376 10494,12806 L 10494,12806 10494,11459 10673,11307 10626,11552 10626,11552 C 10624,11564 10623,11576 10621,11586 Z"/></g><g style="stroke:none;fill:rgb(108,3,0)"><path d="M 12460,18651 L 12460,18651 C 12415,18671 12369,18684 12319,18691 12188,18716 12056,18695 11921,18625 11877,18602 11830,18573 11785,18537 11734,18410 11684,18255 11639,18074 L 11639,17655 11639,17655 C 11783,18293 11954,18612 12148,18611 12385,18612 12587,18132 12753,17171 L 12753,17171 12802,16872 12802,18410 12802,18410 C 12689,18525 12575,18605 12460,18651 Z"/></g><g style="stroke:none;fill:rgb(135,2,0)"><path d="M 12802,16872 L 12753,17171 12753,17171 C 12587,18132 12385,18612 12148,18611 11954,18612 11783,18293 11639,17655 L 11639,17002 11639,17002 C 11782,17737 11952,18103 12148,18101 12360,18103 12541,17674 12691,16815 12732,16573 12769,16313 12802,16028 L 12802,16872 Z"/></g><g style="stroke:none;fill:rgb(152,1,0)"><path d="M 12802,16028 L 12802,16028 C 12769,16313 12732,16573 12691,16815 12541,17674 12360,18103 12148,18101 11952,18103 11782,17737 11639,17002 L 11639,17002 11639,16280 11668,16457 11668,16457 C 11802,17215 11961,17594 12148,17594 12335,17594 12495,17215 12626,16457 12713,15969 12772,15415 12802,14793 L 12802,16028 Z"/></g><g style="stroke:none;fill:rgb(146,2,0)"><path d="M 12802,11459 L 12802,12614 12802,12614 C 12779,12165 12743,11747 12691,11359 L 12802,11459 Z"/></g><g style="stroke:none;fill:rgb(205,4,0)"><path d="M 12502,11672 L 12502,11672 C 12600,12231 12650,12908 12650,13706 12650,14504 12600,15181 12502,15737 12403,16300 12285,16580 12148,16580 12010,16580 11891,16300 11793,15737 11694,15179 11647,14503 11647,13706 11647,12911 11694,12231 11793,11672 11820,11515 11848,11380 11879,11270 L 11952,11230 11952,11230 C 12003,11207 12050,11193 12095,11184 12129,11177 12158,11174 12179,11172 12228,11168 12274,11169 12322,11179 12342,11181 12367,11186 12394,11195 12397,11209 12401,11223 12404,11236 12437,11350 12469,11495 12502,11672 Z M 12563,13706 L 12563,13706 C 12563,13046 12521,12488 12441,12029 12359,11567 12260,11336 12148,11336 12034,11336 11936,11567 11853,12029 11773,12494 11734,13053 11734,13706 11734,14358 11773,14915 11853,15380 11936,15843 12034,16073 12148,16073 12260,16073 12359,15843 12441,15380 12521,14922 12563,14365 12563,13706 Z"/></g><g style="stroke:none;fill:rgb(214,50,0)"><path d="M 12441,12029 L 12441,12029 C 12521,12488 12563,13046 12563,13706 12563,14365 12521,14922 12441,15380 12359,15843 12260,16073 12148,16073 12034,16073 11936,15843 11853,15380 11773,14915 11734,14358 11734,13706 11734,13053 11773,12494 11853,12029 11936,11567 12034,11336 12148,11336 12260,11336 12359,11567 12441,12029 Z M 12502,13706 L 12502,13706 C 12502,13142 12467,12663 12399,12268 12329,11872 12246,11674 12148,11674 12048,11674 11966,11872 11897,12268 11827,12667 11793,13147 11793,13706 11793,14265 11827,14742 11897,15140 11965,15535 12048,15733 12148,15733 12246,15733 12329,15535 12399,15140 12467,14746 12502,14269 12502,13706 Z"/></g><g style="stroke:none;fill:rgb(215,55,0)"><path d="M 12399,12268 L 12399,12268 C 12467,12663 12502,13142 12502,13706 12502,14269 12467,14746 12399,15140 12329,15535 12246,15733 12148,15733 12048,15733 11965,15535 11897,15140 11827,14742 11793,14265 11793,13706 11793,13147 11827,12667 11897,12268 11966,11872 12048,11674 12148,11674 12246,11674 12329,11872 12399,12268 Z M 12473,13706 L 12473,13706 C 12473,13198 12441,12759 12378,12387 12314,12024 12237,11843 12148,11843 12057,11843 11980,12024 11918,12387 11853,12753 11821,13192 11821,13706 11821,14218 11853,14656 11918,15020 11980,15383 12057,15565 12148,15565 12237,15565 12314,15383 12378,15020 12441,14651 12473,14213 12473,13706 Z"/></g><g style="stroke:none;fill:rgb(226,106,0)"><path d="M 12378,12387 L 12378,12387 C 12441,12759 12473,13198 12473,13706 12473,14213 12441,14651 12378,15020 12314,15383 12237,15565 12148,15565 12057,15565 11980,15383 11918,15020 11853,14656 11821,14218 11821,13706 11821,13192 11853,12753 11918,12387 11980,12024 12057,11843 12148,11843 12237,11843 12314,12024 12378,12387 Z M 12315,14663 L 12315,14663 C 12362,14393 12385,14075 12385,13706 12385,13336 12362,13016 12315,12745 12270,12481 12214,12349 12148,12349 12081,12349 12026,12481 11980,12745 11935,13016 11911,13336 11911,13706 11911,14075 11935,14393 11980,14663 12026,14926 12081,15057 12148,15057 12214,15057 12270,14926 12315,14663 Z"/></g><g style="stroke:none;fill:rgb(236,157,0)"><path d="M 12385,13706 L 12385,13706 C 12385,14075 12362,14393 12315,14663 12270,14926 12214,15057 12148,15057 12081,15057 12026,14926 11980,14663 11935,14393 11911,14075 11911,13706 11911,13336 11935,13016 11980,12745 12026,12481 12081,12349 12148,12349 12214,12349 12270,12481 12315,12745 12362,13016 12385,13336 12385,13706 Z M 12253,14302 L 12253,14302 C 12282,14136 12296,13938 12296,13706 12296,13472 12282,13273 12253,13107 12226,12942 12190,12860 12148,12859 12104,12860 12071,12942 12045,13107 12015,13273 12001,13472 12003,13706 12001,13938 12015,14136 12045,14302 12071,14468 12104,14550 12148,14550 12190,14550 12226,14468 12253,14302 Z"/></g><g style="stroke:none;fill:rgb(246,208,0)"><path d="M 12296,13706 L 12296,13706 C 12296,13938 12282,14136 12253,14302 12226,14468 12190,14550 12148,14550 12104,14550 12071,14468 12045,14302 12015,14136 12001,13938 12003,13706 12001,13472 12015,13273 12045,13107 12071,12942 12104,12860 12148,12859 12190,12860 12226,12942 12253,13107 12282,13273 12296,13472 12296,13706 Z M 12207,13706 L 12207,13706 C 12207,13612 12202,13532 12190,13466 12177,13400 12163,13367 12148,13367 12132,13367 12118,13400 12106,13466 12094,13532 12088,13610 12090,13706 12088,13800 12094,13879 12106,13943 12118,14009 12132,14043 12148,14043 12163,14043 12177,14009 12190,13943 12202,13877 12207,13797 12207,13706 Z"/></g><g style="stroke:none;fill:rgb(255,255,0)"><path d="M 12190,13466 L 12190,13466 C 12202,13532 12207,13612 12207,13706 12207,13797 12202,13877 12190,13943 12177,14009 12163,14043 12148,14043 12132,14043 12118,14009 12106,13943 12094,13879 12088,13800 12090,13706 12088,13610 12094,13532 12106,13466 12118,13400 12132,13367 12148,13367 12163,13367 12177,13400 12190,13466 Z"/></g><g style="stroke:none;fill:rgb(188,0,0)"><path d="M 12650,13706 L 12650,13706 C 12650,12908 12600,12231 12502,11672 12469,11495 12437,11350 12404,11236 12401,11223 12397,11209 12394,11195 L 12394,11195 12457,11216 12558,11267 12566,11312 12566,11312 C 12682,11981 12739,12778 12739,13706 12739,14632 12682,15429 12566,16096 12451,16757 12312,17088 12148,17088 11984,17088 11844,16757 11731,16096 11691,15882 11661,15662 11639,15439 L 11639,12806 11639,12806 C 11659,12376 11701,11969 11766,11586 11768,11576 11769,11564 11771,11552 L 11771,11552 11818,11307 11879,11270 11879,11270 C 11848,11380 11820,11515 11793,11672 11694,12231 11647,12911 11647,13706 11647,14503 11694,15179 11793,15737 11891,16300 12010,16580 12148,16580 12285,16580 12403,16300 12502,15737 12600,15181 12650,14504 12650,13706 Z"/></g><g style="stroke:none;fill:rgb(170,1,0)"><path d="M 12802,12614 L 12802,14793 12802,14793 C 12772,15415 12713,15969 12626,16457 12495,17215 12335,17594 12148,17594 11961,17594 11802,17215 11668,16457 L 11668,16457 11639,16280 11639,15439 11639,15439 C 11661,15662 11691,15882 11731,16096 11844,16757 11984,17088 12148,17088 12312,17088 12451,16757 12566,16096 12682,15429 12739,14632 12739,13706 12739,12778 12682,11981 12566,11312 L 12566,11312 12558,11267 12691,11359 12691,11359 C 12743,11747 12779,12165 12802,12614 Z"/></g><g style="stroke:none;fill:rgb(100,4,0)"><path d="M 11639,18410 L 11639,18074 11639,18074 C 11684,18255 11734,18410 11785,18537 11734,18499 11685,18459 11639,18410 Z"/></g><g style="stroke:none;fill:rgb(182,0,0)"><path d="M 11766,11586 L 11766,11586 C 11701,11969 11659,12376 11639,12806 L 11639,12806 11639,11459 11818,11307 11771,11552 11771,11552 C 11769,11564 11768,11576 11766,11586 Z"/></g><g style="stroke:none;fill:rgb(108,3,0)"><path d="M 13605,18651 L 13605,18651 C 13561,18671 13514,18684 13464,18691 13334,18716 13202,18695 13067,18625 13022,18602 12975,18573 12931,18537 12879,18410 12829,18255 12785,18074 L 12785,17655 12785,17655 C 12929,18293 13099,18612 13293,18611 13530,18612 13732,18132 13899,17171 L 13899,17171 13947,16872 13947,18410 13947,18410 C 13835,18525 13720,18605 13605,18651 Z"/></g><g style="stroke:none;fill:rgb(135,2,0)"><path d="M 13947,16872 L 13899,17171 13899,17171 C 13732,18132 13530,18612 13293,18611 13099,18612 12929,18293 12785,17655 L 12785,17002 12785,17002 C 12928,17737 13097,18103 13293,18101 13505,18103 13687,17674 13837,16815 13877,16573 13915,16313 13947,16028 L 13947,16872 Z"/></g><g style="stroke:none;fill:rgb(152,1,0)"><path d="M 13947,16028 L 13947,16028 C 13915,16313 13877,16573 13837,16815 13687,17674 13505,18103 13293,18101 13097,18103 12928,17737 12785,17002 L 12785,17002 12785,16280 12813,16457 12813,16457 C 12947,17215 13106,17594 13293,17594 13481,17594 13640,17215 13772,16457 13858,15969 13917,15415 13947,14793 L 13947,16028 Z"/></g><g style="stroke:none;fill:rgb(146,2,0)"><path d="M 13947,11459 L 13947,12614 13947,12614 C 13924,12165 13888,11747 13837,11359 L 13947,11459 Z"/></g><g style="stroke:none;fill:rgb(205,4,0)"><path d="M 13647,11672 L 13647,11672 C 13745,12231 13795,12908 13795,13706 13795,14504 13745,15181 13647,15737 13549,16300 13430,16580 13293,16580 13155,16580 13036,16300 12938,15737 12839,15179 12792,14503 12792,13706 12792,12911 12839,12231 12938,11672 12965,11515 12994,11380 13024,11270 L 13097,11230 13097,11230 C 13148,11207 13196,11193 13240,11184 13275,11177 13303,11174 13324,11172 13373,11168 13420,11169 13467,11179 13488,11181 13512,11186 13539,11195 13542,11209 13547,11223 13550,11236 13582,11350 13615,11495 13647,11672 Z M 13708,13706 L 13708,13706 C 13708,13046 13666,12488 13586,12029 13504,11567 13406,11336 13293,11336 13179,11336 13081,11567 12999,12029 12919,12494 12879,13053 12879,13706 12879,14358 12919,14915 12999,15380 13081,15843 13179,16073 13293,16073 13406,16073 13504,15843 13586,15380 13666,14922 13708,14365 13708,13706 Z"/></g><g style="stroke:none;fill:rgb(214,50,0)"><path d="M 13586,12029 L 13586,12029 C 13666,12488 13708,13046 13708,13706 13708,14365 13666,14922 13586,15380 13504,15843 13406,16073 13293,16073 13179,16073 13081,15843 12999,15380 12919,14915 12879,14358 12879,13706 12879,13053 12919,12494 12999,12029 13081,11567 13179,11336 13293,11336 13406,11336 13504,11567 13586,12029 Z M 13647,13706 L 13647,13706 C 13647,13142 13612,12663 13545,12268 13475,11872 13391,11674 13293,11674 13194,11674 13111,11872 13042,12268 12972,12667 12938,13147 12938,13706 12938,14265 12972,14742 13042,15140 13110,15535 13194,15733 13293,15733 13391,15733 13475,15535 13545,15140 13612,14746 13647,14269 13647,13706 Z"/></g><g style="stroke:none;fill:rgb(215,55,0)"><path d="M 13545,12268 L 13545,12268 C 13612,12663 13647,13142 13647,13706 13647,14269 13612,14746 13545,15140 13475,15535 13391,15733 13293,15733 13194,15733 13110,15535 13042,15140 12972,14742 12938,14265 12938,13706 12938,13147 12972,12667 13042,12268 13111,11872 13194,11674 13293,11674 13391,11674 13475,11872 13545,12268 Z M 13619,13706 L 13619,13706 C 13619,13198 13586,12759 13523,12387 13459,12024 13382,11843 13293,11843 13203,11843 13126,12024 13064,12387 12999,12753 12966,13192 12966,13706 12966,14218 12999,14656 13064,15020 13126,15383 13203,15565 13293,15565 13382,15565 13459,15383 13523,15020 13586,14651 13619,14213 13619,13706 Z"/></g><g style="stroke:none;fill:rgb(226,106,0)"><path d="M 13523,12387 L 13523,12387 C 13586,12759 13619,13198 13619,13706 13619,14213 13586,14651 13523,15020 13459,15383 13382,15565 13293,15565 13203,15565 13126,15383 13064,15020 12999,14656 12966,14218 12966,13706 12966,13192 12999,12753 13064,12387 13126,12024 13203,11843 13293,11843 13382,11843 13459,12024 13523,12387 Z M 13460,14663 L 13460,14663 C 13507,14393 13530,14075 13530,13706 13530,13336 13507,13016 13460,12745 13416,12481 13359,12349 13293,12349 13226,12349 13171,12481 13126,12745 13080,13016 13057,13336 13057,13706 13057,14075 13080,14393 13126,14663 13171,14926 13226,15057 13293,15057 13359,15057 13416,14926 13460,14663 Z"/></g><g style="stroke:none;fill:rgb(236,157,0)"><path d="M 13530,13706 L 13530,13706 C 13530,14075 13507,14393 13460,14663 13416,14926 13359,15057 13293,15057 13226,15057 13171,14926 13126,14663 13080,14393 13057,14075 13057,13706 13057,13336 13080,13016 13126,12745 13171,12481 13226,12349 13293,12349 13359,12349 13416,12481 13460,12745 13507,13016 13530,13336 13530,13706 Z M 13398,14302 L 13398,14302 C 13427,14136 13441,13938 13441,13706 13441,13472 13427,13273 13398,13107 13371,12942 13336,12860 13293,12859 13249,12860 13216,12942 13190,13107 13160,13273 13146,13472 13148,13706 13146,13938 13160,14136 13190,14302 13216,14468 13249,14550 13293,14550 13336,14550 13371,14468 13398,14302 Z"/></g><g style="stroke:none;fill:rgb(246,208,0)"><path d="M 13441,13706 L 13441,13706 C 13441,13938 13427,14136 13398,14302 13371,14468 13336,14550 13293,14550 13249,14550 13216,14468 13190,14302 13160,14136 13146,13938 13148,13706 13146,13472 13160,13273 13190,13107 13216,12942 13249,12860 13293,12859 13336,12860 13371,12942 13398,13107 13427,13273 13441,13472 13441,13706 Z M 13353,13706 L 13353,13706 C 13353,13612 13348,13532 13336,13466 13322,13400 13308,13367 13293,13367 13278,13367 13264,13400 13251,13466 13239,13532 13233,13610 13235,13706 13233,13800 13239,13879 13251,13943 13264,14009 13278,14043 13293,14043 13308,14043 13322,14009 13336,13943 13348,13877 13353,13797 13353,13706 Z"/></g><g style="stroke:none;fill:rgb(255,255,0)"><path d="M 13336,13466 L 13336,13466 C 13348,13532 13353,13612 13353,13706 13353,13797 13348,13877 13336,13943 13322,14009 13308,14043 13293,14043 13278,14043 13264,14009 13251,13943 13239,13879 13233,13800 13235,13706 13233,13610 13239,13532 13251,13466 13264,13400 13278,13367 13293,13367 13308,13367 13322,13400 13336,13466 Z"/></g><g style="stroke:none;fill:rgb(188,0,0)"><path d="M 13795,13706 L 13795,13706 C 13795,12908 13745,12231 13647,11672 13615,11495 13582,11350 13550,11236 13547,11223 13542,11209 13539,11195 L 13539,11195 13602,11216 13704,11267 13711,11312 13711,11312 C 13828,11981 13884,12778 13884,13706 13884,14632 13828,15429 13711,16096 13596,16757 13457,17088 13293,17088 13130,17088 12990,16757 12876,16096 12836,15882 12806,15662 12785,15439 L 12785,12806 12785,12806 C 12804,12376 12847,11969 12912,11586 12914,11576 12915,11564 12917,11552 L 12917,11552 12963,11307 13024,11270 13024,11270 C 12994,11380 12965,11515 12938,11672 12839,12231 12792,12911 12792,13706 12792,14503 12839,15179 12938,15737 13036,16300 13155,16580 13293,16580 13430,16580 13549,16300 13647,15737 13745,15181 13795,14504 13795,13706 Z"/></g><g style="stroke:none;fill:rgb(170,1,0)"><path d="M 13947,12614 L 13947,14793 13947,14793 C 13917,15415 13858,15969 13772,16457 13640,17215 13481,17594 13293,17594 13106,17594 12947,17215 12813,16457 L 12813,16457 12785,16280 12785,15439 12785,15439 C 12806,15662 12836,15882 12876,16096 12990,16757 13130,17088 13293,17088 13457,17088 13596,16757 13711,16096 13828,15429 13884,14632 13884,13706 13884,12778 13828,11981 13711,11312 L 13711,11312 13704,11267 13837,11359 13837,11359 C 13888,11747 13924,12165 13947,12614 Z"/></g><g style="stroke:none;fill:rgb(100,4,0)"><path d="M 12785,18410 L 12785,18074 12785,18074 C 12829,18255 12879,18410 12931,18537 12879,18499 12830,18459 12785,18410 Z"/></g><g style="stroke:none;fill:rgb(182,0,0)"><path d="M 12912,11586 L 12912,11586 C 12847,11969 12804,12376 12785,12806 L 12785,12806 12785,11459 12963,11307 12917,11552 12917,11552 C 12915,11564 12914,11576 12912,11586 Z"/></g><g style="stroke:none;fill:rgb(83,83,83)"><path d="M 5911,18370 L 5911,18370 5911,17967 7189,18140 7072,18370 5911,18370 Z"/></g><g style="stroke:none;fill:rgb(52,52,52)"><path d="M 5911,18461 L 5911,18461 5911,18370 7072,18370 7142,18463 7276,18647 5911,18461 Z"/></g><g style="stroke:none;fill:rgb(50,50,50)"><path d="M 5911,19528 L 5911,19528 5911,18461 7276,18647 7654,19167 5911,19528 Z"/></g><g style="stroke:none;fill:rgb(73,73,73)"><path d="M 7072,18370 L 7072,18370 7189,18140 7334,17848 7343,17831 9396,18107 9396,18370 8724,18678 7142,18463 7072,18370 Z"/></g><g style="stroke:none;fill:rgb(56,56,56)"><path d="M 7276,18647 L 7276,18647 7142,18463 8724,18678 8443,18804 7276,18647 Z"/></g><g style="stroke:none;fill:rgb(55,55,55)"><path d="M 7654,19167 L 7654,19167 7276,18647 8443,18804 7654,19167 Z"/></g><g style="stroke:none;fill:rgb(93,93,93)"><path d="M 7189,18140 L 7189,18140 5911,17967 5911,17137 7578,17364 7353,17809 7334,17848 7189,18140 Z"/></g><g style="stroke:none;fill:rgb(156,156,156)"><path d="M 9396,16454 L 9396,16454 9396,16922 9298,16939 8773,17027 8752,17030 7475,16853 7283,16475 7119,16145 9396,16454 Z"/></g><g style="stroke:none;fill:rgb(105,105,105)"><path d="M 9298,16939 L 9298,16939 9396,16922 9396,17280 8207,17119 8733,17034 8773,17027 9298,16939 Z"/></g><g style="stroke:none;fill:rgb(140,140,140)"><path d="M 8752,17030 L 8752,17030 8733,17034 8207,17119 7728,17200 7658,17210 7654,17210 7497,16896 7475,16853 8752,17030 Z"/></g><g style="stroke:none;fill:rgb(214,214,214)"><path d="M 9396,14469 L 9396,14469 9396,14895 7654,14895 7477,14541 7307,14202 7298,14186 9396,14469 Z"/></g><g style="stroke:none;fill:rgb(192,192,192)"><path d="M 9396,14895 L 9396,14895 9396,15133 7654,14895 9396,14895 Z"/></g><g style="stroke:none;fill:rgb(188,188,188)"><path d="M 9396,15133 L 9396,15133 9396,15795 7343,15514 7499,15206 7654,14895 9396,15133 Z"/></g><g style="stroke:none;fill:rgb(172,172,172)"><path d="M 9396,15795 L 9396,15795 9396,16454 7119,16145 7072,16054 7266,15668 7343,15514 9396,15795 Z"/></g><g style="stroke:none;fill:rgb(96,96,96)"><path d="M 8207,17119 L 8207,17119 9396,17280 9396,18107 7343,17831 7353,17809 7578,17364 7654,17212 7656,17212 7728,17200 8207,17119 Z"/></g><g style="stroke:none;fill:rgb(252,252,252)"><path d="M 9396,12982 L 9396,12982 9396,13478 7343,13199 7421,13045 7576,12734 9396,12982 Z"/></g><g style="stroke:none;fill:rgb(231,231,231)"><path d="M 9396,12818 L 9396,12818 9396,12868 7756,12596 7695,12584 9396,12818 Z"/></g><g style="stroke:none;fill:rgb(249,249,249)"><path d="M 9396,12868 L 9396,12868 9396,12982 7576,12734 7654,12579 7756,12596 9396,12868 Z"/></g><g style="stroke:none;fill:rgb(239,239,239)"><path d="M 9396,13478 L 9396,13478 9396,13808 7187,13510 7194,13494 7343,13199 9396,13478 Z"/></g><g style="stroke:none;fill:rgb(209,209,209)"><path d="M 9396,11421 L 9396,11421 9396,11825 7121,11514 7119,11514 7072,11421 7243,11201 7358,11053 9107,11291 9396,11421 Z"/></g><g style="stroke:none;fill:rgb(253,253,253)"><path d="M 9396,11825 L 9396,11825 9396,12320 7388,12047 7298,11869 7119,11514 7121,11514 9396,11825 Z"/></g><g style="stroke:none;fill:rgb(245,245,245)"><path d="M 9396,12320 L 9396,12320 9396,12818 7695,12584 7654,12579 7493,12255 7461,12193 7388,12047 9396,12320 Z"/></g><g style="stroke:none;fill:rgb(232,232,232)"><path d="M 9396,13808 L 9396,13808 9396,14469 7298,14186 7291,14169 7072,13737 7112,13664 7178,13526 7187,13510 9396,13808 Z"/></g><g style="stroke:none;fill:rgb(113,113,113)"><path d="M 7654,17210 L 7654,17210 7654,17212 7578,17364 5911,17137 5911,16312 7297,16501 7497,16896 7654,17210 Z"/></g><g style="stroke:none;fill:rgb(130,130,130)"><path d="M 7283,16475 L 7283,16475 7297,16501 5911,16312 5911,16054 7072,16054 7119,16145 7283,16475 Z"/></g><g style="stroke:none;fill:rgb(164,164,164)"><path d="M 5911,16054 L 5911,16054 5911,15482 7266,15668 7072,16054 5911,16054 Z"/></g><g style="stroke:none;fill:rgb(175,175,175)"><path d="M 5911,15482 L 5911,15482 5911,14988 7499,15206 7343,15514 7266,15668 5911,15482 Z"/></g><g style="stroke:none;fill:rgb(189,189,189)"><path d="M 7499,15206 L 7499,15206 5911,14988 5911,14326 7477,14541 7654,14895 7499,15206 Z"/></g><g style="stroke:none;fill:rgb(204,204,204)"><path d="M 7291,14169 L 7291,14169 7307,14202 7477,14541 5911,14326 5911,13737 7072,13737 7291,14169 Z"/></g><g style="stroke:none;fill:rgb(236,236,236)"><path d="M 7194,13494 L 7194,13494 7178,13526 7112,13664 7072,13737 5911,13737 5911,12840 7419,13045 7421,13045 7343,13199 7194,13494 Z"/></g><g style="stroke:none;fill:rgb(245,245,245)"><path d="M 7576,12734 L 7576,12734 7421,13045 7419,13045 5911,12840 5911,12507 7576,12734 Z"/></g><g style="stroke:none;fill:rgb(251,251,251)"><path d="M 5911,12507 L 5911,12507 5911,12012 7475,12225 7493,12255 7654,12579 7576,12734 5911,12507 Z"/></g><g style="stroke:none;fill:rgb(155,155,155)"><path d="M 5911,11421 L 5911,11421 5911,11021 7243,11201 7072,11421 5911,11421 Z"/></g><g style="stroke:none;fill:rgb(212,212,212)"><path d="M 5911,11680 L 5911,11680 5911,11421 7072,11421 7119,11514 7298,11869 5911,11680 Z"/></g><g style="stroke:none;fill:rgb(223,223,223)"><path d="M 5911,12012 L 5911,12012 5911,11680 7298,11869 7388,12047 7461,12193 7475,12225 5911,12012 Z"/></g><g style="stroke:none;fill:rgb(138,138,138)"><path d="M 7358,11053 L 7358,11053 7243,11201 5911,11021 5911,10524 7586,10753 7358,11053 Z"/></g><g style="stroke:none;fill:rgb(172,172,172)"><path d="M 7586,10753 L 7586,10753 7672,10642 9107,11291 7358,11053 7586,10753 Z"/></g><g style="stroke:none;fill:rgb(118,118,118)"><path d="M 7672,10642 L 7672,10642 7586,10753 5911,10524 5911,10263 7672,10642 Z"/></g><g style="stroke:none;fill:rgb(91,91,91)"><path d="M 15095,17290 L 15095,17290 15095,17928 15076,17931 15076,17293 15095,17290 Z"/></g><g style="stroke:none;fill:rgb(61,61,61)"><path d="M 15076,17931 L 15076,17931 15095,17928 15095,19529 13968,18407 15076,18961 15076,18031 15076,17931 Z"/></g><g style="stroke:none;fill:rgb(110,110,110)"><path d="M 15076,17293 L 15076,17293 15076,17931 15076,18031 13932,17617 13932,16963 13973,16952 15076,17211 15076,16657 15095,16654 15095,17290 15076,17293 Z"/></g><g style="stroke:none;fill:rgb(149,149,149)"><path d="M 15076,16019 L 15076,16019 15076,16246 13932,16246 13932,15690 15095,15379 15095,16016 15076,16019 Z"/></g><g style="stroke:none;fill:rgb(130,130,130)"><path d="M 15076,16246 L 15076,16246 15076,16657 15076,17211 13973,16952 13932,16942 13932,16246 15076,16246 Z"/></g><g style="stroke:none;fill:rgb(91,91,91)"><path d="M 15076,18031 L 15076,18031 15076,18961 13968,18407 13932,18371 13932,17617 15076,18031 Z"/></g><g style="stroke:none;fill:rgb(194,194,194)"><path d="M 15095,13943 L 15095,13943 15095,14740 13932,15051 13932,14254 15095,13943 Z"/></g><g style="stroke:none;fill:rgb(219,219,219)"><path d="M 15095,13148 L 15095,13148 15095,13943 13932,14254 13932,13458 15095,13148 Z"/></g><g style="stroke:none;fill:rgb(226,226,226)"><path d="M 15095,11553 L 15095,11553 15095,11871 13932,12180 13932,11862 15095,11553 Z"/></g><g style="stroke:none;fill:rgb(253,253,253)"><path d="M 15095,11871 L 15095,11871 15095,12348 13932,12661 13932,12180 15095,11871 Z"/></g><g style="stroke:none;fill:rgb(233,233,233)"><path d="M 15095,12348 L 15095,12348 15095,13148 13932,13458 13932,12661 15095,12348 Z"/></g><g style="stroke:none;fill:rgb(130,130,130)"><path d="M 15095,10597 L 15095,10597 15095,10915 14197,11156 14636,10719 15095,10597 Z"/></g><g style="stroke:none;fill:rgb(162,162,162)"><path d="M 15095,10915 L 15095,10915 15095,11234 13932,11545 13932,11421 14197,11156 15095,10915 Z"/></g><g style="stroke:none;fill:rgb(98,98,98)"><path d="M 15095,10263 L 15095,10263 15095,10597 14636,10719 15095,10263 Z"/></g><g style="stroke:none;fill:rgb(194,194,194)"><path d="M 15095,11234 L 15095,11234 15095,11553 13932,11862 13932,11545 15095,11234 Z"/></g><g style="stroke:none;fill:rgb(170,170,170)"><path d="M 15095,14740 L 15095,14740 15095,15379 13932,15690 13932,15051 15095,14740 Z"/></g><g style="stroke:none;fill:rgb(131,131,131)"><path d="M 13932,16963 L 13932,16963 13932,16942 13973,16952 13932,16963 Z"/></g></g></g></g></svg>