<?xml version="1.0" encoding="UTF-8"?>
<!DOCTYPE svg PUBLIC "-//W3C//DTD SVG 1.1//EN" "http://www.w3.org/Graphics/SVG/1.1/DTD/svg11.dtd"><svg version="1.1" viewBox="0 0 21000 29700" preserveAspectRatio="xMidYMid" fill-rule="evenodd" xmlns="http://www.w3.org/2000/svg" xmlns:xlink="http://www.w3.org/1999/xlink"><g visibility="visible" id="Default"><desc>Master slide</desc><g style="stroke:none;fill:none"><rect x="0" y="0" width="21000" height="29700"/></g></g><g visibility="visible" id="page1"><desc>Slide</desc><g><desc>Graphic</desc><g><g style="stroke:none;fill:rgb(0,136,85)"><path d="M 15074,19410 L 15074,19410 15074,10263 5913,10263 5913,19410 15074,19410 Z"/></g><g style="stroke:none;fill:rgb(0,143,0)"><path d="M 7344,15408 L 7344,15408 7058,15408 7058,14837 7344,14837 7344,15408 Z"/></g><g style="stroke:none;fill:rgb(198,198,0)"><path d="M 7058,15408 L 7058,15408 7344,15408 7344,15980 7058,15980 7058,15408 Z"/></g><g style="stroke:none;fill:rgb(0,154,0)"><path d="M 7058,15408 L 7058,15408 6771,15408 6771,14837 7058,14837 7058,15408 Z"/></g><g style="stroke:none;fill:rgb(214,214,0)"><path d="M 6771,15408 L 6771,15408 7058,15408 7058,15980 6771,15980 6771,15408 Z"/></g><g style="stroke:none;fill:rgb(214,26,26)"><path d="M 6771,15980 L 6771,15980 7058,15980 7058,17123 6771,17123 6771,15980 Z"/></g><g style="stroke:none;fill:rgb(198,24,24)"><path d="M 7058,15980 L 7058,15980 7344,15980 7344,17123 7058,17123 7058,15980 Z"/></g><g style="stroke:none;fill:rgb(178,178,0)"><path d="M 7344,15980 L 7344,15980 7344,15408 7630,15408 7630,15980 7344,15980 Z"/></g><g style="stroke:none;fill:rgb(229,229,0)"><path d="M 6771,15408 L 6771,15408 6771,15980 6485,15980 6485,15408 6771,15408 Z"/></g><g style="stroke:none;fill:rgb(229,28,28)"><path d="M 6485,15980 L 6485,15980 6771,15980 6771,17123 6485,17123 6485,15980 Z"/></g><g style="stroke:none;fill:rgb(0,165,0)"><path d="M 6771,15408 L 6771,15408 6485,15408 6485,14837 6771,14837 6771,15408 Z"/></g><g style="stroke:none;fill:rgb(153,153,153)"><path d="M 7058,17123 L 7058,17123 7344,17123 7630,17123 7630,18266 7058,18266 7058,17123 Z"/></g><g style="stroke:none;fill:rgb(178,22,22)"><path d="M 7344,17123 L 7344,17123 7344,15980 7630,15980 7630,17123 7344,17123 Z"/></g><g style="stroke:none;fill:rgb(0,95,59)"><path d="M 8203,18839 L 8203,18839 7630,18839 7630,18266 7630,17123 7916,17123 8203,17123 8203,15980 8203,15408 8203,14837 8203,14265 8203,13122 8776,13122 8776,17695 8203,17695 8203,18839 Z"/></g><g style="stroke:none;fill:rgb(153,19,19)"><path d="M 7916,17123 L 7916,17123 7630,17123 7630,15980 7916,15980 7916,17123 Z"/></g><g style="stroke:none;fill:rgb(127,16,16)"><path d="M 8203,17123 L 8203,17123 7916,17123 7916,15980 8203,15980 8203,17123 Z"/></g><g style="stroke:none;fill:rgb(0,92,0)"><path d="M 8203,15408 L 8203,15408 7916,15408 7916,14837 8203,14837 8203,15408 Z"/></g><g style="stroke:none;fill:rgb(127,127,0)"><path d="M 7916,15408 L 7916,15408 8203,15408 8203,15980 7916,15980 7916,15408 Z"/></g><g style="stroke:none;fill:rgb(153,153,0)"><path d="M 7916,15408 L 7916,15408 7916,15980 7630,15980 7630,15408 7916,15408 Z"/></g><g style="stroke:none;fill:rgb(0,110,0)"><path d="M 7916,15408 L 7916,15408 7630,15408 7630,14837 7916,14837 7916,15408 Z"/></g><g style="stroke:none;fill:rgb(0,128,0)"><path d="M 7630,15408 L 7630,15408 7344,15408 7344,14837 7630,14837 7630,15408 Z"/></g><g style="stroke:none;fill:rgb(153,153,153)"><path d="M 7344,12550 L 7344,12550 7058,12550 7058,11406 7630,11406 7630,11979 7630,12550 7344,12550 Z"/></g><g style="stroke:none;fill:rgb(198,24,24)"><path d="M 7058,12550 L 7058,12550 7344,12550 7344,14265 7058,14265 7058,12550 Z"/></g><g style="stroke:none;fill:rgb(229,28,28)"><path d="M 6485,12550 L 6485,12550 6771,12550 6771,14265 6485,14265 6485,12550 Z"/></g><g style="stroke:none;fill:rgb(214,26,26)"><path d="M 6771,12550 L 6771,12550 7058,12550 7058,14265 6771,14265 6771,12550 Z"/></g><g style="stroke:none;fill:rgb(59,52,198)"><path d="M 7058,14265 L 7058,14265 7344,14265 7344,14837 7058,14837 7058,14265 Z"/></g><g style="stroke:none;fill:rgb(64,57,214)"><path d="M 6771,14265 L 6771,14265 7058,14265 7058,14837 6771,14837 6771,14265 Z"/></g><g style="stroke:none;fill:rgb(69,61,229)"><path d="M 6485,14837 L 6485,14837 6485,14265 6771,14265 6771,14837 6485,14837 Z"/></g><g style="stroke:none;fill:rgb(53,47,178)"><path d="M 7344,14837 L 7344,14837 7344,14265 7630,14265 7630,14837 7344,14837 Z"/></g><g style="stroke:none;fill:rgb(178,22,22)"><path d="M 7344,14265 L 7344,14265 7344,12550 7630,12550 7630,14265 7344,14265 Z"/></g><g style="stroke:none;fill:rgb(127,16,16)"><path d="M 8203,14265 L 8203,14265 7916,14265 7916,12550 8203,12550 8203,13122 8203,14265 Z"/></g><g style="stroke:none;fill:rgb(38,34,127)"><path d="M 7916,14265 L 7916,14265 8203,14265 8203,14837 7916,14837 7916,14265 Z"/></g><g style="stroke:none;fill:rgb(46,40,153)"><path d="M 7916,14265 L 7916,14265 7916,14837 7630,14837 7630,14265 7916,14265 Z"/></g><g style="stroke:none;fill:rgb(153,19,19)"><path d="M 7916,14265 L 7916,14265 7630,14265 7630,12550 7916,12550 7916,14265 Z"/></g><g style="stroke:none;fill:rgb(0,95,59)"><path d="M 7916,12550 L 7916,12550 7630,12550 7630,11979 8203,11979 8203,12550 7916,12550 Z"/></g><g style="stroke:none;fill:rgb(0,143,0)"><path d="M 10207,15408 L 10207,15408 9921,15408 9921,14837 10207,14837 10207,15408 Z"/></g><g style="stroke:none;fill:rgb(198,198,0)"><path d="M 9921,15408 L 9921,15408 10207,15408 10207,15980 9921,15980 9921,15408 Z"/></g><g style="stroke:none;fill:rgb(0,154,0)"><path d="M 9921,15408 L 9921,15408 9634,15408 9634,14837 9921,14837 9921,15408 Z"/></g><g style="stroke:none;fill:rgb(214,214,0)"><path d="M 9634,15408 L 9634,15408 9921,15408 9921,15980 9634,15980 9634,15408 Z"/></g><g style="stroke:none;fill:rgb(214,26,26)"><path d="M 9634,15980 L 9634,15980 9921,15980 9921,17123 9634,17123 9634,15980 Z"/></g><g style="stroke:none;fill:rgb(198,24,24)"><path d="M 9921,15980 L 9921,15980 10207,15980 10207,17123 9921,17123 9921,15980 Z"/></g><g style="stroke:none;fill:rgb(178,178,0)"><path d="M 10207,15980 L 10207,15980 10207,15408 10493,15408 10493,15980 10207,15980 Z"/></g><g style="stroke:none;fill:rgb(229,229,0)"><path d="M 9634,15408 L 9634,15408 9634,15980 9348,15980 9348,15408 9634,15408 Z"/></g><g style="stroke:none;fill:rgb(229,28,28)"><path d="M 9348,15980 L 9348,15980 9634,15980 9634,17123 9348,17123 9348,15980 Z"/></g><g style="stroke:none;fill:rgb(0,165,0)"><path d="M 9634,15408 L 9634,15408 9348,15408 9348,14837 9634,14837 9634,15408 Z"/></g><g style="stroke:none;fill:rgb(153,153,153)"><path d="M 9921,17123 L 9921,17123 10207,17123 10493,17123 10493,18266 9921,18266 9921,17123 Z"/></g><g style="stroke:none;fill:rgb(178,22,22)"><path d="M 10207,17123 L 10207,17123 10207,15980 10493,15980 10493,17123 10207,17123 Z"/></g><g style="stroke:none;fill:rgb(0,95,59)"><path d="M 11065,18839 L 11065,18839 10493,18839 10493,18266 10493,17123 10779,17123 11065,17123 11065,15980 11065,15408 11065,14837 11065,14265 11065,13122 11638,13122 11638,17695 11065,17695 11065,18839 Z"/></g><g style="stroke:none;fill:rgb(153,19,19)"><path d="M 10779,17123 L 10779,17123 10493,17123 10493,15980 10779,15980 10779,17123 Z"/></g><g style="stroke:none;fill:rgb(127,16,16)"><path d="M 11065,17123 L 11065,17123 10779,17123 10779,15980 11065,15980 11065,17123 Z"/></g><g style="stroke:none;fill:rgb(0,92,0)"><path d="M 11065,15408 L 11065,15408 10779,15408 10779,14837 11065,14837 11065,15408 Z"/></g><g style="stroke:none;fill:rgb(127,127,0)"><path d="M 10779,15408 L 10779,15408 11065,15408 11065,15980 10779,15980 10779,15408 Z"/></g><g style="stroke:none;fill:rgb(153,153,0)"><path d="M 10779,15408 L 10779,15408 10779,15980 10493,15980 10493,15408 10779,15408 Z"/></g><g style="stroke:none;fill:rgb(0,110,0)"><path d="M 10779,15408 L 10779,15408 10493,15408 10493,14837 10779,14837 10779,15408 Z"/></g><g style="stroke:none;fill:rgb(0,128,0)"><path d="M 10493,15408 L 10493,15408 10207,15408 10207,14837 10493,14837 10493,15408 Z"/></g><g style="stroke:none;fill:rgb(153,153,153)"><path d="M 10207,12550 L 10207,12550 9921,12550 9921,11406 10493,11406 10493,11979 10493,12550 10207,12550 Z"/></g><g style="stroke:none;fill:rgb(198,24,24)"><path d="M 9921,12550 L 9921,12550 10207,12550 10207,14265 9921,14265 9921,12550 Z"/></g><g style="stroke:none;fill:rgb(229,28,28)"><path d="M 9348,12550 L 9348,12550 9634,12550 9634,14265 9348,14265 9348,12550 Z"/></g><g style="stroke:none;fill:rgb(214,26,26)"><path d="M 9634,12550 L 9634,12550 9921,12550 9921,14265 9634,14265 9634,12550 Z"/></g><g style="stroke:none;fill:rgb(59,52,198)"><path d="M 9921,14265 L 9921,14265 10207,14265 10207,14837 9921,14837 9921,14265 Z"/></g><g style="stroke:none;fill:rgb(64,57,214)"><path d="M 9634,14265 L 9634,14265 9921,14265 9921,14837 9634,14837 9634,14265 Z"/></g><g style="stroke:none;fill:rgb(69,61,229)"><path d="M 9348,14837 L 9348,14837 9348,14265 9634,14265 9634,14837 9348,14837 Z"/></g><g style="stroke:none;fill:rgb(53,47,178)"><path d="M 10207,14837 L 10207,14837 10207,14265 10493,14265 10493,14837 10207,14837 Z"/></g><g style="stroke:none;fill:rgb(178,22,22)"><path d="M 10207,14265 L 10207,14265 10207,12550 10493,12550 10493,14265 10207,14265 Z"/></g><g style="stroke:none;fill:rgb(127,16,16)"><path d="M 11065,14265 L 11065,14265 10779,14265 10779,12550 11065,12550 11065,13122 11065,14265 Z"/></g><g style="stroke:none;fill:rgb(38,34,127)"><path d="M 10779,14265 L 10779,14265 11065,14265 11065,14837 10779,14837 10779,14265 Z"/></g><g style="stroke:none;fill:rgb(46,40,153)"><path d="M 10779,14265 L 10779,14265 10779,14837 10493,14837 10493,14265 10779,14265 Z"/></g><g style="stroke:none;fill:rgb(153,19,19)"><path d="M 10779,14265 L 10779,14265 10493,14265 10493,12550 10779,12550 10779,14265 Z"/></g><g style="stroke:none;fill:rgb(0,95,59)"><path d="M 10779,12550 L 10779,12550 10493,12550 10493,11979 11065,11979 11065,12550 10779,12550 Z"/></g><g style="stroke:none;fill:rgb(0,143,0)"><path d="M 13071,15408 L 13071,15408 12785,15408 12785,14837 13071,14837 13071,15408 Z"/></g><g style="stroke:none;fill:rgb(198,198,0)"><path d="M 12785,15408 L 12785,15408 13071,15408 13071,15980 12785,15980 12785,15408 Z"/></g><g style="stroke:none;fill:rgb(0,154,0)"><path d="M 12785,15408 L 12785,15408 12498,15408 12498,14837 12785,14837 12785,15408 Z"/></g><g style="stroke:none;fill:rgb(214,214,0)"><path d="M 12498,15408 L 12498,15408 12785,15408 12785,15980 12498,15980 12498,15408 Z"/></g><g style="stroke:none;fill:rgb(214,26,26)"><path d="M 12498,15980 L 12498,15980 12785,15980 12785,17123 12498,17123 12498,15980 Z"/></g><g style="stroke:none;fill:rgb(198,24,24)"><path d="M 12785,15980 L 12785,15980 13071,15980 13071,17123 12785,17123 12785,15980 Z"/></g><g style="stroke:none;fill:rgb(178,178,0)"><path d="M 13071,15980 L 13071,15980 13071,15408 13357,15408 13357,15980 13071,15980 Z"/></g><g style="stroke:none;fill:rgb(229,229,0)"><path d="M 12498,15408 L 12498,15408 12498,15980 12212,15980 12212,15408 12498,15408 Z"/></g><g style="stroke:none;fill:rgb(229,28,28)"><path d="M 12212,15980 L 12212,15980 12498,15980 12498,17123 12212,17123 12212,15980 Z"/></g><g style="stroke:none;fill:rgb(0,165,0)"><path d="M 12498,15408 L 12498,15408 12212,15408 12212,14837 12498,14837 12498,15408 Z"/></g><g style="stroke:none;fill:rgb(153,153,153)"><path d="M 12785,17123 L 12785,17123 13071,17123 13357,17123 13357,18266 12785,18266 12785,17123 Z"/></g><g style="stroke:none;fill:rgb(178,22,22)"><path d="M 13071,17123 L 13071,17123 13071,15980 13357,15980 13357,17123 13071,17123 Z"/></g><g style="stroke:none;fill:rgb(0,95,59)"><path d="M 13929,18839 L 13929,18839 13357,18839 13357,18266 13357,17123 13643,17123 13929,17123 13929,15980 13929,15408 13929,14837 13929,14265 13929,13122 14502,13122 14502,17695 13929,17695 13929,18839 Z"/></g><g style="stroke:none;fill:rgb(153,19,19)"><path d="M 13643,17123 L 13643,17123 13357,17123 13357,15980 13643,15980 13643,17123 Z"/></g><g style="stroke:none;fill:rgb(127,16,16)"><path d="M 13929,17123 L 13929,17123 13643,17123 13643,15980 13929,15980 13929,17123 Z"/></g><g style="stroke:none;fill:rgb(0,92,0)"><path d="M 13929,15408 L 13929,15408 13643,15408 13643,14837 13929,14837 13929,15408 Z"/></g><g style="stroke:none;fill:rgb(127,127,0)"><path d="M 13643,15408 L 13643,15408 13929,15408 13929,15980 13643,15980 13643,15408 Z"/></g><g style="stroke:none;fill:rgb(153,153,0)"><path d="M 13643,15408 L 13643,15408 13643,15980 13357,15980 13357,15408 13643,15408 Z"/></g><g style="stroke:none;fill:rgb(0,110,0)"><path d="M 13643,15408 L 13643,15408 13357,15408 13357,14837 13643,14837 13643,15408 Z"/></g><g style="stroke:none;fill:rgb(0,128,0)"><path d="M 13357,15408 L 13357,15408 13071,15408 13071,14837 13357,14837 13357,15408 Z"/></g><g style="stroke:none;fill:rgb(153,153,153)"><path d="M 13071,12550 L 13071,12550 12785,12550 12785,11406 13357,11406 13357,11979 13357,12550 13071,12550 Z"/></g><g style="stroke:none;fill:rgb(198,24,24)"><path d="M 12785,12550 L 12785,12550 13071,12550 13071,14265 12785,14265 12785,12550 Z"/></g><g style="stroke:none;fill:rgb(229,28,28)"><path d="M 12212,12550 L 12212,12550 12498,12550 12498,14265 12212,14265 12212,12550 Z"/></g><g style="stroke:none;fill:rgb(214,26,26)"><path d="M 12498,12550 L 12498,12550 12785,12550 12785,14265 12498,14265 12498,12550 Z"/></g><g style="stroke:none;fill:rgb(59,52,198)"><path d="M 12785,14265 L 12785,14265 13071,14265 13071,14837 12785,14837 12785,14265 Z"/></g><g style="stroke:none;fill:rgb(64,57,214)"><path d="M 12498,14265 L 12498,14265 12785,14265 12785,14837 12498,14837 12498,14265 Z"/></g><g style="stroke:none;fill:rgb(69,61,229)"><path d="M 12212,14837 L 12212,14837 12212,14265 12498,14265 12498,14837 12212,14837 Z"/></g><g style="stroke:none;fill:rgb(53,47,178)"><path d="M 13071,14837 L 13071,14837 13071,14265 13357,14265 13357,14837 13071,14837 Z"/></g><g style="stroke:none;fill:rgb(178,22,22)"><path d="M 13071,14265 L 13071,14265 13071,12550 13357,12550 13357,14265 13071,14265 Z"/></g><g style="stroke:none;fill:rgb(127,16,16)"><path d="M 13929,14265 L 13929,14265 13643,14265 13643,12550 13929,12550 13929,13122 13929,14265 Z"/></g><g style="stroke:none;fill:rgb(38,34,127)"><path d="M 13643,14265 L 13643,14265 13929,14265 13929,14837 13643,14837 13643,14265 Z"/></g><g style="stroke:none;fill:rgb(46,40,153)"><path d="M 13643,14265 L 13643,14265 13643,14837 13357,14837 13357,14265 13643,14265 Z"/></g><g style="stroke:none;fill:rgb(153,19,19)"><path d="M 13643,14265 L 13643,14265 13357,14265 13357,12550 13643,12550 13643,14265 Z"/></g><g style="stroke:none;fill:rgb(0,95,59)"><path d="M 13643,12550 L 13643,12550 13357,12550 13357,11979 13929,11979 13929,12550 13643,12550 Z"/></g></g></g></g></svg>