<?xml version="1.0" encoding="UTF-8"?>
<!DOCTYPE svg PUBLIC "-//W3C//DTD SVG 1.1//EN" "http://www.w3.org/Graphics/SVG/1.1/DTD/svg11.dtd"><svg version="1.1" viewBox="0 0 21000 29700" preserveAspectRatio="xMidYMid" fill-rule="evenodd" xmlns="http://www.w3.org/2000/svg" xmlns:xlink="http://www.w3.org/1999/xlink"><g visibility="visible" id="Default"><desc>Master slide</desc><g style="stroke:none;fill:none"><rect x="0" y="0" width="21000" height="29700"/></g></g><g visibility="visible" id="page1"><desc>Slide</desc><g><desc>Graphic</desc><g><g style="stroke:none;fill:rgb(0,136,85)"><path d="M 15074,10263 L 15074,10263 5913,10263 5913,19410 15074,19410 15074,10263 Z"/></g><g style="stroke:none;fill:rgb(0,143,0)"><path d="M 11084,17409 L 11084,17409 11084,17124 10511,17124 10511,17409 11084,17409 Z"/></g><g style="stroke:none;fill:rgb(198,198,0)"><path d="M 11084,17124 L 11084,17124 11084,17409 11657,17409 11657,17124 11084,17124 Z"/></g><g style="stroke:none;fill:rgb(0,154,0)"><path d="M 11084,17124 L 11084,17124 11084,16837 10511,16837 10511,17124 11084,17124 Z"/></g><g style="stroke:none;fill:rgb(214,214,0)"><path d="M 11084,16837 L 11084,16837 11084,17124 11657,17124 11657,16837 11084,16837 Z"/></g><g style="stroke:none;fill:rgb(64,57,214)"><path d="M 11657,16837 L 11657,16837 11657,17124 12801,17124 12801,16837 11657,16837 Z"/></g><g style="stroke:none;fill:rgb(59,52,198)"><path d="M 11657,17124 L 11657,17124 11657,17409 12801,17409 12801,17124 11657,17124 Z"/></g><g style="stroke:none;fill:rgb(229,229,0)"><path d="M 11084,16552 L 11084,16552 11084,16837 11657,16837 11657,16552 11084,16552 Z"/></g><g style="stroke:none;fill:rgb(0,165,0)"><path d="M 11084,16837 L 11084,16837 11084,16552 10511,16552 10511,16837 11084,16837 Z"/></g><g style="stroke:none;fill:rgb(178,178,0)"><path d="M 11657,17409 L 11657,17409 11084,17409 11084,17695 11657,17695 11657,17409 Z"/></g><g style="stroke:none;fill:rgb(69,61,229)"><path d="M 11657,16552 L 11657,16552 11657,16837 12801,16837 12801,16552 11657,16552 Z"/></g><g style="stroke:none;fill:rgb(153,153,153)"><path d="M 12801,17124 L 12801,17124 12801,17409 12801,17695 13946,17695 13946,17124 12801,17124 Z"/></g><g style="stroke:none;fill:rgb(53,47,178)"><path d="M 12801,17409 L 12801,17409 11657,17409 11657,17695 12801,17695 12801,17409 Z"/></g><g style="stroke:none;fill:rgb(0,95,59)"><path d="M 14519,18266 L 14519,18266 14519,17695 13946,17695 12801,17695 12801,17981 12801,18266 11657,18266 11084,18266 10511,18266 9938,18266 8794,18266 8794,18839 13374,18839 13374,18266 14519,18266 Z"/></g><g style="stroke:none;fill:rgb(38,34,127)"><path d="M 12801,18266 L 12801,18266 12801,17981 11657,17981 11657,18266 12801,18266 Z"/></g><g style="stroke:none;fill:rgb(46,40,153)"><path d="M 12801,17981 L 12801,17981 12801,17695 11657,17695 11657,17981 12801,17981 Z"/></g><g style="stroke:none;fill:rgb(153,153,0)"><path d="M 11657,17981 L 11657,17981 11657,17695 11084,17695 11084,17981 11657,17981 Z"/></g><g style="stroke:none;fill:rgb(0,110,0)"><path d="M 11084,17981 L 11084,17981 11084,17695 10511,17695 10511,17981 11084,17981 Z"/></g><g style="stroke:none;fill:rgb(127,127,0)"><path d="M 11657,17981 L 11657,17981 11084,17981 11084,18266 11657,18266 11657,17981 Z"/></g><g style="stroke:none;fill:rgb(0,92,0)"><path d="M 11084,18266 L 11084,18266 11084,17981 10511,17981 10511,18266 11084,18266 Z"/></g><g style="stroke:none;fill:rgb(0,128,0)"><path d="M 11084,17695 L 11084,17695 11084,17409 10511,17409 10511,17695 11084,17695 Z"/></g><g style="stroke:none;fill:rgb(153,153,153)"><path d="M 8221,17409 L 8221,17409 8221,17124 7076,17124 7076,17695 7649,17695 8221,17695 8221,17409 Z"/></g><g style="stroke:none;fill:rgb(59,52,198)"><path d="M 8221,17124 L 8221,17124 8221,17409 9938,17409 9938,17124 8221,17124 Z"/></g><g style="stroke:none;fill:rgb(69,61,229)"><path d="M 8221,16552 L 8221,16552 8221,16837 9938,16837 9938,16552 8221,16552 Z"/></g><g style="stroke:none;fill:rgb(64,57,214)"><path d="M 8221,16837 L 8221,16837 8221,17124 9938,17124 9938,16837 8221,16837 Z"/></g><g style="stroke:none;fill:rgb(198,24,24)"><path d="M 9938,17124 L 9938,17124 9938,17409 10511,17409 10511,17124 9938,17124 Z"/></g><g style="stroke:none;fill:rgb(214,26,26)"><path d="M 9938,16837 L 9938,16837 9938,17124 10511,17124 10511,16837 9938,16837 Z"/></g><g style="stroke:none;fill:rgb(178,22,22)"><path d="M 10511,17409 L 10511,17409 9938,17409 9938,17695 10511,17695 10511,17409 Z"/></g><g style="stroke:none;fill:rgb(229,28,28)"><path d="M 10511,16552 L 10511,16552 9938,16552 9938,16837 10511,16837 10511,16552 Z"/></g><g style="stroke:none;fill:rgb(53,47,178)"><path d="M 9938,17409 L 9938,17409 8221,17409 8221,17695 9938,17695 9938,17409 Z"/></g><g style="stroke:none;fill:rgb(153,19,19)"><path d="M 9938,17695 L 9938,17695 9938,17981 10511,17981 10511,17695 9938,17695 Z"/></g><g style="stroke:none;fill:rgb(46,40,153)"><path d="M 9938,17981 L 9938,17981 9938,17695 8221,17695 8221,17981 9938,17981 Z"/></g><g style="stroke:none;fill:rgb(127,16,16)"><path d="M 10511,17981 L 10511,17981 9938,17981 9938,18266 10511,18266 10511,17981 Z"/></g><g style="stroke:none;fill:rgb(38,34,127)"><path d="M 9938,18266 L 9938,18266 9938,17981 8221,17981 8221,18266 8794,18266 9938,18266 Z"/></g><g style="stroke:none;fill:rgb(0,95,59)"><path d="M 8221,17981 L 8221,17981 8221,17695 7649,17695 7649,18266 8221,18266 8221,17981 Z"/></g><g style="stroke:none;fill:rgb(0,143,0)"><path d="M 11066,11692 L 11066,11692 11066,11406 10494,11406 10494,11692 11066,11692 Z"/></g><g style="stroke:none;fill:rgb(198,198,0)"><path d="M 11066,11406 L 11066,11406 11066,11692 11639,11692 11639,11406 11066,11406 Z"/></g><g style="stroke:none;fill:rgb(0,154,0)"><path d="M 11066,11406 L 11066,11406 11066,11120 10494,11120 10494,11406 11066,11406 Z"/></g><g style="stroke:none;fill:rgb(214,214,0)"><path d="M 11066,11120 L 11066,11120 11066,11406 11639,11406 11639,11120 11066,11120 Z"/></g><g style="stroke:none;fill:rgb(214,26,26)"><path d="M 11639,11120 L 11639,11120 11639,11406 12784,11406 12784,11120 11639,11120 Z"/></g><g style="stroke:none;fill:rgb(198,24,24)"><path d="M 11639,11406 L 11639,11406 11639,11692 12784,11692 12784,11406 11639,11406 Z"/></g><g style="stroke:none;fill:rgb(178,178,0)"><path d="M 11639,11692 L 11639,11692 11066,11692 11066,11978 11639,11978 11639,11692 Z"/></g><g style="stroke:none;fill:rgb(229,229,0)"><path d="M 11066,11120 L 11066,11120 11639,11120 11639,10834 11066,10834 11066,11120 Z"/></g><g style="stroke:none;fill:rgb(229,28,28)"><path d="M 11639,10834 L 11639,10834 11639,11120 12784,11120 12784,10834 11639,10834 Z"/></g><g style="stroke:none;fill:rgb(0,165,0)"><path d="M 11066,11120 L 11066,11120 11066,10834 10494,10834 10494,11120 11066,11120 Z"/></g><g style="stroke:none;fill:rgb(153,153,153)"><path d="M 12784,11406 L 12784,11406 12784,11692 12784,11978 13929,11978 13929,11406 12784,11406 Z"/></g><g style="stroke:none;fill:rgb(178,22,22)"><path d="M 12784,11692 L 12784,11692 11639,11692 11639,11978 12784,11978 12784,11692 Z"/></g><g style="stroke:none;fill:rgb(0,95,59)"><path d="M 14502,12549 L 14502,12549 14502,11978 13929,11978 12784,11978 12784,12263 12784,12549 11639,12549 11066,12549 10494,12549 9921,12549 8777,12549 8777,13121 13357,13121 13357,12549 14502,12549 Z"/></g><g style="stroke:none;fill:rgb(153,19,19)"><path d="M 12784,12263 L 12784,12263 12784,11978 11639,11978 11639,12263 12784,12263 Z"/></g><g style="stroke:none;fill:rgb(127,16,16)"><path d="M 12784,12549 L 12784,12549 12784,12263 11639,12263 11639,12549 12784,12549 Z"/></g><g style="stroke:none;fill:rgb(0,92,0)"><path d="M 11066,12549 L 11066,12549 11066,12263 10494,12263 10494,12549 11066,12549 Z"/></g><g style="stroke:none;fill:rgb(127,127,0)"><path d="M 11066,12263 L 11066,12263 11066,12549 11639,12549 11639,12263 11066,12263 Z"/></g><g style="stroke:none;fill:rgb(153,153,0)"><path d="M 11066,12263 L 11066,12263 11639,12263 11639,11978 11066,11978 11066,12263 Z"/></g><g style="stroke:none;fill:rgb(0,110,0)"><path d="M 11066,12263 L 11066,12263 11066,11978 10494,11978 10494,12263 11066,12263 Z"/></g><g style="stroke:none;fill:rgb(0,128,0)"><path d="M 11066,11978 L 11066,11978 11066,11692 10494,11692 10494,11978 11066,11978 Z"/></g><g style="stroke:none;fill:rgb(153,153,153)"><path d="M 8204,11692 L 8204,11692 8204,11406 7058,11406 7058,11978 7631,11978 8204,11978 8204,11692 Z"/></g><g style="stroke:none;fill:rgb(198,24,24)"><path d="M 8204,11406 L 8204,11406 8204,11692 9921,11692 9921,11406 8204,11406 Z"/></g><g style="stroke:none;fill:rgb(229,28,28)"><path d="M 8204,10834 L 8204,10834 8204,11120 9921,11120 9921,10834 8204,10834 Z"/></g><g style="stroke:none;fill:rgb(214,26,26)"><path d="M 8204,11120 L 8204,11120 8204,11406 9921,11406 9921,11120 8204,11120 Z"/></g><g style="stroke:none;fill:rgb(59,52,198)"><path d="M 9921,11406 L 9921,11406 9921,11692 10494,11692 10494,11406 9921,11406 Z"/></g><g style="stroke:none;fill:rgb(64,57,214)"><path d="M 9921,11120 L 9921,11120 9921,11406 10494,11406 10494,11120 9921,11120 Z"/></g><g style="stroke:none;fill:rgb(69,61,229)"><path d="M 10494,10834 L 10494,10834 9921,10834 9921,11120 10494,11120 10494,10834 Z"/></g><g style="stroke:none;fill:rgb(53,47,178)"><path d="M 10494,11692 L 10494,11692 9921,11692 9921,11978 10494,11978 10494,11692 Z"/></g><g style="stroke:none;fill:rgb(178,22,22)"><path d="M 9921,11692 L 9921,11692 8204,11692 8204,11978 9921,11978 9921,11692 Z"/></g><g style="stroke:none;fill:rgb(127,16,16)"><path d="M 9921,12549 L 9921,12549 9921,12263 8204,12263 8204,12549 8777,12549 9921,12549 Z"/></g><g style="stroke:none;fill:rgb(38,34,127)"><path d="M 9921,12263 L 9921,12263 9921,12549 10494,12549 10494,12263 9921,12263 Z"/></g><g style="stroke:none;fill:rgb(46,40,153)"><path d="M 9921,12263 L 9921,12263 10494,12263 10494,11978 9921,11978 9921,12263 Z"/></g><g style="stroke:none;fill:rgb(153,19,19)"><path d="M 9921,12263 L 9921,12263 9921,11978 8204,11978 8204,12263 9921,12263 Z"/></g><g style="stroke:none;fill:rgb(0,95,59)"><path d="M 8204,12263 L 8204,12263 8204,11978 7631,11978 7631,12549 8204,12549 8204,12263 Z"/></g><g style="stroke:none;fill:rgb(229,229,0)"><path d="M 11066,13711 L 11066,13711 11066,13996 12785,13996 12785,13711 11066,13711 Z"/></g><g style="stroke:none;fill:rgb(229,28,28)"><path d="M 11066,13996 L 11066,13996 11066,13711 10494,13711 10494,13996 11066,13996 Z"/></g><g style="stroke:none;fill:rgb(214,214,0)"><path d="M 11066,13996 L 11066,13996 11066,14283 12785,14283 12785,13996 11066,13996 Z"/></g><g style="stroke:none;fill:rgb(214,26,26)"><path d="M 11066,14283 L 11066,14283 11066,13996 10494,13996 10494,14283 11066,14283 Z"/></g><g style="stroke:none;fill:rgb(198,198,0)"><path d="M 11066,14283 L 11066,14283 11066,14569 12785,14569 12785,14283 11066,14283 Z"/></g><g style="stroke:none;fill:rgb(198,24,24)"><path d="M 11066,14569 L 11066,14569 11066,14283 10494,14283 10494,14569 11066,14569 Z"/></g><g style="stroke:none;fill:rgb(153,153,153)"><path d="M 12785,14283 L 12785,14283 12785,14569 12785,14854 13929,14854 13929,14283 12785,14283 Z"/></g><g style="stroke:none;fill:rgb(178,178,0)"><path d="M 12785,14569 L 12785,14569 11066,14569 11066,14854 12785,14854 12785,14569 Z"/></g><g style="stroke:none;fill:rgb(0,95,59)"><path d="M 14502,15425 L 14502,15425 14502,14854 13929,14854 12785,14854 12785,15140 12785,15425 11066,15425 10494,15425 9921,15425 8776,15425 8776,15998 13357,15998 13357,15425 14502,15425 Z"/></g><g style="stroke:none;fill:rgb(153,153,0)"><path d="M 12785,15140 L 12785,15140 12785,14854 11066,14854 11066,15140 12785,15140 Z"/></g><g style="stroke:none;fill:rgb(127,127,0)"><path d="M 12785,15425 L 12785,15425 12785,15140 11066,15140 11066,15425 12785,15425 Z"/></g><g style="stroke:none;fill:rgb(153,19,19)"><path d="M 11066,15140 L 11066,15140 11066,14854 10494,14854 10494,15140 11066,15140 Z"/></g><g style="stroke:none;fill:rgb(127,16,16)"><path d="M 11066,15425 L 11066,15425 11066,15140 10494,15140 10494,15425 11066,15425 Z"/></g><g style="stroke:none;fill:rgb(178,22,22)"><path d="M 11066,14854 L 11066,14854 11066,14569 10494,14569 10494,14854 11066,14854 Z"/></g><g style="stroke:none;fill:rgb(153,153,153)"><path d="M 8204,14569 L 8204,14569 8204,14283 7058,14283 7058,14854 7631,14854 8204,14854 8204,14569 Z"/></g><g style="stroke:none;fill:rgb(198,198,0)"><path d="M 8204,14283 L 8204,14283 8204,14569 9921,14569 9921,14283 8204,14283 Z"/></g><g style="stroke:none;fill:rgb(229,229,0)"><path d="M 8204,13711 L 8204,13711 8204,13996 9921,13996 9921,13711 8204,13711 Z"/></g><g style="stroke:none;fill:rgb(214,214,0)"><path d="M 8204,13996 L 8204,13996 8204,14283 9921,14283 9921,13996 8204,13996 Z"/></g><g style="stroke:none;fill:rgb(59,52,198)"><path d="M 9921,14283 L 9921,14283 9921,14569 10494,14569 10494,14283 9921,14283 Z"/></g><g style="stroke:none;fill:rgb(64,57,214)"><path d="M 9921,13996 L 9921,13996 9921,14283 10494,14283 10494,13996 9921,13996 Z"/></g><g style="stroke:none;fill:rgb(69,61,229)"><path d="M 9921,13711 L 9921,13711 9921,13996 10494,13996 10494,13711 9921,13711 Z"/></g><g style="stroke:none;fill:rgb(53,47,178)"><path d="M 10494,14569 L 10494,14569 9921,14569 9921,14854 10494,14854 10494,14569 Z"/></g><g style="stroke:none;fill:rgb(178,178,0)"><path d="M 9921,14569 L 9921,14569 8204,14569 8204,14854 9921,14854 9921,14569 Z"/></g><g style="stroke:none;fill:rgb(46,40,153)"><path d="M 9921,14854 L 9921,14854 9921,15140 10494,15140 10494,14854 9921,14854 Z"/></g><g style="stroke:none;fill:rgb(153,153,0)"><path d="M 9921,15140 L 9921,15140 9921,14854 8204,14854 8204,15140 9921,15140 Z"/></g><g style="stroke:none;fill:rgb(38,34,127)"><path d="M 9921,15140 L 9921,15140 9921,15425 10494,15425 10494,15140 9921,15140 Z"/></g><g style="stroke:none;fill:rgb(127,127,0)"><path d="M 9921,15425 L 9921,15425 9921,15140 8204,15140 8204,15425 8776,15425 9921,15425 Z"/></g><g style="stroke:none;fill:rgb(0,95,59)"><path d="M 8204,15425 L 8204,15425 8204,15140 8204,14854 7631,14854 7631,15425 8204,15425 Z"/></g></g></g></g></svg>