<?xml version="1.0" encoding="UTF-8"?>
<!DOCTYPE svg PUBLIC "-//W3C//DTD SVG 1.1//EN" "http://www.w3.org/Graphics/SVG/1.1/DTD/svg11.dtd"><svg version="1.1" viewBox="0 0 21000 29700" preserveAspectRatio="xMidYMid" fill-rule="evenodd" xmlns="http://www.w3.org/2000/svg" xmlns:xlink="http://www.w3.org/1999/xlink"><g visibility="visible" id="Default"><desc>Master slide</desc><g style="stroke:none;fill:none"><rect x="0" y="0" width="21000" height="29700"/></g></g><g visibility="visible" id="page1"><desc>Slide</desc><g><desc>Graphic</desc><g><g style="stroke:none;fill:rgb(126,3,2)"><path d="M 13133,13110 L 13133,13110 C 12922,12955 12758,12761 12633,12528 12579,12528 12540,12544 12509,12567 12297,12714 11977,12753 11540,12683 11540,12629 11533,12606 11525,12598 11205,12520 10947,12396 10759,12218 10705,12218 10657,12225 10619,12249 10322,12412 9901,12451 9353,12373 9299,12373 9268,12365 9260,12342 9088,12024 8807,11830 8417,11752 8362,11752 8331,11768 8315,11791 7948,12365 7566,12924 7167,13459 7167,13514 7175,13560 7190,13607 7308,14003 7402,14414 7480,14856 7534,14856 7574,14872 7605,14895 7800,15050 8018,15190 8261,15322 8261,15376 8268,15423 8276,15477 8346,15889 8182,16199 7792,16409 L 7713,16409 7713,16409 C 7815,16828 8097,17084 8573,17185 8627,17185 8666,17200 8705,17224 8878,17348 9042,17332 9197,17185 9197,17130 9214,17092 9237,17068 9650,16696 10049,16735 10447,17185 10501,17185 10549,17185 10603,17185 11282,17177 11751,17387 12009,17806 12063,17806 12110,17806 12164,17806 12532,17806 12891,17806 13258,17806 13312,17806 13344,17790 13367,17767 13680,17371 13796,17022 13726,16719 13672,16719 13632,16704 13609,16680 13281,16347 13266,15943 13570,15477 L 13648,15477 13648,15477 C 13406,14841 13273,14065 13258,13149 13203,13149 13165,13134 13133,13110 Z M 12625,13227 L 12625,13227 C 12633,13227 12633,13250 12633,13304 12633,13359 12641,13405 12648,13459 12805,14243 12641,14709 12164,14856 12110,15268 12156,15586 12289,15811 12313,15850 12320,15889 12320,15943 12438,16137 12641,16269 12930,16331 12938,16331 12945,16354 12945,16409 12945,16463 12938,16510 12922,16556 12610,17480 12149,17379 11540,16253 11485,16253 11438,16261 11392,16277 11126,16362 10814,16409 10447,16409 10447,16463 10439,16494 10416,16502 9970,16696 9509,16354 9042,15477 9042,15423 9042,15376 9042,15322 8986,15322 8940,15314 8893,15291 8128,14981 7659,14368 7480,13459 7730,13242 8041,13095 8417,13009 8471,13002 8518,12994 8573,12994 8573,12940 8573,12893 8573,12839 8760,12505 9229,12451 9986,12660 10033,12676 10080,12683 10134,12683 10134,12629 10134,12582 10134,12528 L 10134,12528 C 10713,12466 11095,12660 11290,13118 11298,13141 11329,13149 11384,13149 11797,13149 12212,13172 12625,13227 Z"/></g><g style="stroke:none;fill:rgb(217,0,4)"><path d="M 12633,13304 L 12633,13304 C 12633,13250 12633,13227 12625,13227 12212,13172 11797,13149 11384,13149 11329,13149 11298,13141 11290,13118 11095,12660 10713,12466 10134,12528 10134,12582 10134,12629 10134,12683 10923,12963 11087,13196 10626,13374 10611,13382 10603,13405 10603,13459 11454,13491 12087,13444 12484,13328 12532,13312 12579,13304 12633,13304 Z"/></g><g style="stroke:none;fill:rgb(231,66,7)"><path d="M 12648,13459 L 12648,13459 C 12641,13405 12633,13359 12633,13304 12579,13304 12532,13312 12484,13328 12087,13444 11454,13491 10603,13459 10603,13405 10611,13382 10626,13374 11087,13196 10923,12963 10134,12683 10080,12683 10033,12676 9986,12660 9229,12451 8760,12505 8573,12839 8573,12893 8573,12940 8573,12994 8573,13048 8565,13095 8558,13149 8518,13413 8315,13514 7948,13459 8682,13910 9050,14476 9042,15167 9042,15221 9042,15268 9042,15322 9042,15376 9042,15423 9042,15477 9752,15493 10213,15757 10424,16261 10439,16308 10447,16354 10447,16409 10814,16409 11126,16362 11392,16277 11438,16261 11485,16253 11540,16253 11595,16199 11649,16160 11712,16129 11751,16106 11797,16098 11853,16098 L 11853,16021 11853,16021 C 11197,16253 10829,16075 10759,15477 L 10759,15400 10759,15400 C 10221,15516 9752,15439 9353,15167 L 9432,15167 9432,15167 C 9409,14725 9330,14305 9197,13925 9549,13871 9908,13747 10260,13553 10283,13545 10291,13514 10291,13459 10377,13685 10580,13816 10908,13848 10915,13848 10915,13871 10915,13925 11751,13762 12173,14026 12164,14701 12164,14756 12164,14802 12164,14856 12641,14709 12805,14243 12648,13459 Z"/></g><g style="stroke:none;fill:rgb(227,6,10)"><path d="M 8573,12994 L 8573,12994 C 8518,12994 8471,13002 8417,13009 8041,13095 7730,13242 7480,13459 7659,14368 8128,14981 8893,15291 8940,15314 8986,15322 9042,15322 9042,15268 9042,15221 9042,15167 9050,14476 8682,13910 7948,13459 8315,13514 8518,13413 8558,13149 8565,13095 8573,13048 8573,12994 Z"/></g><g style="stroke:none;fill:rgb(234,150,8)"><path d="M 10291,13459 L 10291,13459 C 10291,13514 10283,13545 10260,13553 9908,13747 9549,13871 9197,13925 9330,14305 9409,14725 9432,15167 L 9353,15167 9353,15167 C 9752,15439 10221,15516 10759,15400 L 10759,15477 10759,15477 C 10829,16075 11197,16253 11853,16021 L 11853,16098 11853,16098 C 12000,16836 12328,16952 12828,16447 12852,16424 12891,16409 12945,16409 12945,16354 12938,16331 12930,16331 12641,16269 12438,16137 12320,15943 12320,15889 12313,15850 12289,15811 12156,15586 12110,15268 12164,14856 12164,14802 12164,14756 12164,14701 12173,14026 11751,13762 10915,13925 10915,13871 10915,13848 10908,13848 10580,13816 10377,13685 10291,13459 Z"/></g><g style="stroke:none;fill:rgb(222,49,23)"><path d="M 11853,16098 L 11853,16098 C 11797,16098 11751,16106 11712,16129 11649,16160 11595,16199 11540,16253 12149,17379 12610,17480 12922,16556 12938,16510 12945,16463 12945,16409 12891,16409 12852,16424 12828,16447 12328,16952 12000,16836 11853,16098 Z"/></g><g style="stroke:none;fill:rgb(217,5,5)"><path d="M 10416,16502 L 10416,16502 C 10439,16494 10447,16463 10447,16409 10447,16354 10439,16308 10424,16261 10213,15757 9752,15493 9042,15477 9509,16354 9970,16696 10416,16502 Z"/></g></g></g></g></svg>