<?xml version="1.0" encoding="UTF-8"?>
<!DOCTYPE svg PUBLIC "-//W3C//DTD SVG 1.1//EN" "http://www.w3.org/Graphics/SVG/1.1/DTD/svg11.dtd"><svg version="1.1" viewBox="0 0 21000 29700" preserveAspectRatio="xMidYMid" fill-rule="evenodd" xmlns="http://www.w3.org/2000/svg" xmlns:xlink="http://www.w3.org/1999/xlink"><g visibility="visible" id="Default"><desc>Master slide</desc><g style="stroke:none;fill:none"><rect x="0" y="0" width="21000" height="29700"/></g></g><g visibility="visible" id="page1"><desc>Slide</desc><g><desc>Graphic</desc><g><g style="stroke:none;fill:rgb(143,5,5)"><path d="M 11323,12809 L 11323,12809 C 11323,12754 11315,12723 11292,12708 10956,12506 10503,12436 9918,12498 9864,12498 9816,12491 9762,12483 8973,12343 8403,12661 8043,13430 7973,14322 8099,15036 8411,15572 8427,15595 8458,15603 8512,15603 8512,15548 8504,15502 8481,15463 8247,14982 8153,14353 8199,13585 8411,13274 8653,13003 8942,12762 8965,12739 8981,12708 8981,12654 9434,12770 9957,12824 10543,12809 10597,12809 10644,12809 10699,12809 11714,13042 12237,13507 12260,14206 12260,14260 12260,14307 12260,14361 12315,14361 12354,14369 12393,14392 12846,14664 13010,15222 12885,16068 12830,16068 12806,16076 12799,16099 12619,16519 12339,16821 11948,17000 11893,17000 11847,17000 11792,17007 11136,17085 10511,16976 9918,16689 9918,16744 9926,16775 9949,16790 10449,17093 11010,17318 11635,17465 L 11635,17465 C 11691,17465 11737,17458 11792,17450 12276,17372 12643,17170 12885,16844 12885,16790 12893,16744 12901,16689 12955,16449 13057,16239 13198,16068 13198,16014 13198,15967 13198,15913 13198,15502 13198,15083 13198,14671 13142,14671 13111,14664 13103,14640 12932,14330 12862,13926 12885,13430 12830,13430 12799,13422 12791,13399 12573,12925 12081,12723 11323,12809 Z"/></g><g style="stroke:none;fill:rgb(237,21,19)"><path d="M 8981,12654 L 8981,12654 C 8981,12708 8965,12739 8942,12762 8653,13003 8411,13274 8199,13585 8153,14353 8247,14982 8481,15463 8504,15502 8512,15548 8512,15603 8559,15867 8770,15975 9137,15921 9191,15913 9239,15913 9293,15913 9293,15859 9293,15812 9293,15758 9239,15758 9191,15758 9137,15758 9082,15758 9044,15742 9004,15719 8824,15595 8716,15401 8668,15137 9152,14997 9410,14633 9441,14051 9449,13996 9449,13950 9449,13895 9847,13360 10254,13267 10659,13631 10682,13655 10699,13686 10699,13740 11471,13593 11909,13794 12026,14345 12026,14353 12050,14361 12104,14361 12158,14361 12206,14361 12260,14361 12260,14307 12260,14260 12260,14206 12237,13507 11714,13042 10699,12809 10644,12809 10597,12809 10543,12809 9957,12824 9434,12770 8981,12654 Z"/></g><g style="stroke:none;fill:rgb(250,127,57)"><path d="M 10543,13740 L 10543,13740 C 10597,13740 10644,13740 10699,13740 10699,13686 10682,13655 10659,13631 10254,13267 9847,13360 9449,13895 9449,13950 9449,13996 9441,14051 9410,14633 9152,14997 8668,15137 8716,15401 8824,15595 9004,15719 9044,15742 9082,15758 9137,15758 9137,15704 9137,15657 9137,15603 9137,15502 9137,15393 9137,15292 9527,14749 9957,14245 10425,13779 10449,13756 10487,13740 10543,13740 Z"/></g><g style="stroke:none;fill:rgb(250,106,46)"><path d="M 10699,13740 L 10699,13740 C 10644,13740 10597,13740 10543,13740 11456,14012 11893,14477 11870,15137 L 11792,15137 11792,15137 C 11792,15191 11792,15238 11792,15292 11792,15347 11784,15393 11761,15432 11628,15649 11691,15859 11948,16068 11893,16068 11855,16076 11815,16099 11338,16394 10964,16542 10699,16534 10644,16534 10620,16534 10620,16526 10574,15618 10128,15362 9293,15758 9293,15812 9293,15859 9293,15913 9347,15913 9387,15929 9410,15952 9434,15975 9449,16014 9449,16068 10003,16596 10620,16782 11307,16619 11315,16612 11323,16588 11323,16534 11761,16573 12135,16487 12440,16262 12479,16239 12518,16224 12573,16224 12065,15789 11971,15440 12291,15176 12322,15153 12362,15137 12416,15137 12596,14865 12503,14633 12135,14454 12112,14446 12104,14415 12104,14361 12050,14361 12026,14353 12026,14345 11909,13794 11471,13593 10699,13740 Z"/></g><g style="stroke:none;fill:rgb(246,202,32)"><path d="M 10543,13740 L 10543,13740 C 10487,13740 10449,13756 10425,13779 9957,14245 9527,14749 9137,15292 9137,15393 9137,15502 9137,15603 9137,15657 9137,15704 9137,15758 9191,15758 9239,15758 9293,15758 10128,15362 10574,15618 10620,16526 10620,16534 10644,16534 10699,16534 10964,16542 11338,16394 11815,16099 11855,16076 11893,16068 11948,16068 11691,15859 11628,15649 11761,15432 11784,15393 11792,15347 11792,15292 11737,15292 11706,15300 11698,15323 11159,16278 10831,16324 10699,15447 11199,14811 11534,14695 11706,15106 11714,15129 11737,15137 11792,15137 L 11870,15137 11870,15137 C 11893,14477 11456,14012 10543,13740 Z"/></g><g style="stroke:none;fill:rgb(106,3,2)"><path d="M 9762,12483 L 9762,12483 C 9816,12491 9864,12498 9918,12498 9918,12444 9910,12413 9887,12405 9035,12009 8371,12297 7888,13274 7802,14291 7879,15114 8122,15758 L 8043,15758 8043,15758 C 8224,16278 8645,16487 9293,16387 9347,16379 9395,16379 9449,16379 9449,16324 9449,16278 9449,16224 9449,16169 9449,16123 9449,16068 9449,16014 9434,15975 9410,15952 9387,15929 9347,15913 9293,15913 9239,15913 9191,15913 9137,15921 8770,15975 8559,15867 8512,15603 8458,15603 8427,15595 8411,15572 8099,15036 7973,14322 8043,13430 8403,12661 8973,12343 9762,12483 Z"/></g><g style="stroke:none;fill:rgb(226,26,22)"><path d="M 9449,16224 L 9449,16224 C 9449,16278 9449,16324 9449,16379 9652,16387 9793,16441 9879,16557 9902,16596 9918,16635 9918,16689 10511,16976 11136,17085 11792,17007 11847,17000 11893,17000 11948,17000 12339,16821 12619,16519 12799,16099 12806,16076 12830,16068 12885,16068 13010,15222 12846,14664 12393,14392 12354,14369 12315,14361 12260,14361 12206,14361 12158,14361 12104,14361 12104,14415 12112,14446 12135,14454 12503,14633 12596,14865 12416,15137 12362,15137 12322,15153 12291,15176 11971,15440 12065,15789 12573,16224 12518,16224 12479,16239 12440,16262 12135,16487 11761,16573 11323,16534 11323,16588 11315,16612 11307,16619 10620,16782 10003,16596 9449,16068 9449,16123 9449,16169 9449,16224 Z"/></g><g style="stroke:none;fill:rgb(237,242,3)"><path d="M 11792,15292 L 11792,15292 C 11792,15238 11792,15191 11792,15137 11737,15137 11714,15129 11706,15106 11534,14695 11199,14811 10699,15447 10831,16324 11159,16278 11698,15323 11706,15300 11737,15292 11792,15292 Z"/></g></g></g></g></svg>