<?xml version="1.0" encoding="UTF-8"?>
<!DOCTYPE svg PUBLIC "-//W3C//DTD SVG 1.1//EN" "http://www.w3.org/Graphics/SVG/1.1/DTD/svg11.dtd"><svg version="1.1" viewBox="0 0 21000 29700" preserveAspectRatio="xMidYMid" fill-rule="evenodd" xmlns="http://www.w3.org/2000/svg" xmlns:xlink="http://www.w3.org/1999/xlink"><g visibility="visible" id="Default"><desc>Master slide</desc><g style="stroke:none;fill:none"><rect x="0" y="0" width="21000" height="29700"/></g></g><g visibility="visible" id="page1"><desc>Slide</desc><g><desc>Graphic</desc><g><g style="stroke:none;fill:rgb(131,2,1)"><path d="M 9695,11329 L 9695,11329 C 9647,11329 9620,11343 9599,11363 9481,11521 9371,11693 9281,11879 L 9281,11948 9281,11948 C 8962,11914 8685,11934 8450,12017 L 8381,12017 8381,12017 C 8484,12760 8277,13358 7758,13805 L 7688,13805 7688,13805 C 7688,14452 7571,14954 7342,15319 7342,15367 7336,15387 7322,15394 7010,15525 6782,15725 6650,16007 6650,16055 6644,16096 6637,16144 6533,16722 6402,17272 6236,17795 6353,17995 6539,18132 6796,18194 6837,18201 6879,18208 6928,18208 6928,18160 6914,18125 6893,18091 6727,17850 6644,17527 6650,17107 6650,17059 6650,17018 6650,16970 6650,16921 6650,16880 6650,16832 7142,16674 7565,16461 7924,16179 7952,16158 7986,16144 8034,16144 8097,15614 8373,15298 8865,15195 8914,15188 8955,15181 9003,15181 8941,15442 8941,15807 8997,16282 9003,16330 9003,16371 9003,16419 9294,16633 9515,16915 9668,17259 9688,17293 9695,17334 9695,17382 9695,17431 9695,17472 9695,17520 9695,17568 9695,17609 9695,17658 10409,17376 10859,17561 11059,18215 L 11059,18215 C 11073,18256 11080,18297 11080,18345 11198,18545 11426,18641 11772,18628 11820,18621 11862,18621 11911,18621 11911,18572 11911,18531 11911,18483 11862,18483 11827,18469 11806,18449 11786,18428 11772,18394 11772,18345 11724,18345 11703,18339 11696,18325 11565,17967 11364,17699 11080,17520 11080,17472 11087,17431 11101,17389 11163,17217 11156,16894 11080,16419 11440,16000 11938,15704 12582,15532 12596,15525 12603,15504 12603,15456 12554,15456 12513,15449 12471,15442 12104,15353 11917,15085 11911,14631 12056,14500 12181,14356 12291,14197 12312,14163 12325,14129 12325,14080 L 12325,14012 12325,14012 C 11917,14528 11315,14686 10527,14493 10478,14493 10436,14486 10402,14466 9945,14239 9385,14115 8727,14080 8727,14032 8734,13991 8741,13943 8844,13475 8789,12973 8589,12429 9197,12553 9565,12533 9695,12361 L 9695,12429 9695,12429 C 9848,12443 9897,12347 9848,12147 9841,12106 9834,12065 9834,12017 9834,11969 9820,11934 9799,11900 9710,11769 9675,11576 9695,11329 Z"/></g><g style="stroke:none;fill:rgb(118,1,2)"><path d="M 9695,11191 L 9695,11191 C 9695,11239 9695,11281 9695,11329 10284,11184 10976,11157 11765,11260 11772,11260 11772,11281 11772,11329 11876,11680 11966,12051 12035,12429 12042,12478 12049,12519 12049,12567 12291,12918 12430,13379 12457,13943 12464,13991 12464,14032 12464,14080 12513,14080 12534,14074 12534,14067 12630,13551 12928,13234 13433,13117 13433,13069 13419,13042 13399,13021 12942,12643 12630,12127 12464,11466 12416,11466 12381,11453 12361,11432 12159,11219 11917,11047 11633,10916 11585,10916 11544,10916 11495,10916 11219,10916 10942,10916 10664,10916 10616,10916 10582,10902 10554,10882 10132,10510 9848,10613 9695,11191 Z"/></g><g style="stroke:none;fill:rgb(235,147,0)"><path d="M 9695,12429 L 9695,12429 C 9695,12478 9695,12519 9688,12567 9668,12725 9529,12767 9281,12705 9405,13317 9786,13853 10416,14321 10443,14342 10478,14356 10527,14356 10527,14307 10527,14266 10527,14218 10900,14039 11108,13675 11149,13124 11149,13117 11170,13117 11219,13117 11717,13344 11904,13166 11786,12567 11779,12519 11772,12478 11772,12429 11772,12381 11765,12340 11758,12299 11516,11329 10880,11232 9834,12017 9834,12065 9841,12106 9848,12147 9897,12347 9848,12443 9695,12429 Z"/></g><g style="stroke:none;fill:rgb(217,24,4)"><path d="M 9688,12567 L 9688,12567 C 9695,12519 9695,12478 9695,12429 L 9695,12361 9695,12361 C 9565,12533 9197,12553 8589,12429 8789,12973 8844,13475 8741,13943 8734,13991 8727,14032 8727,14080 9385,14115 9945,14239 10402,14466 10436,14486 10478,14493 10527,14493 10527,14445 10527,14404 10527,14356 10478,14356 10443,14342 10416,14321 9786,13853 9405,13317 9281,12705 9529,12767 9668,12725 9688,12567 Z"/></g><g style="stroke:none;fill:rgb(217,44,18)"><path d="M 9799,11900 L 9799,11900 C 9820,11934 9834,11969 9834,12017 10880,11232 11516,11329 11758,12299 11765,12340 11772,12381 11772,12429 11820,12478 11869,12512 11924,12540 11959,12560 12000,12567 12049,12567 12049,12519 12042,12478 12035,12429 11966,12051 11876,11680 11772,11329 11772,11281 11772,11260 11765,11260 10976,11157 10284,11184 9695,11329 9675,11576 9710,11769 9799,11900 Z"/></g><g style="stroke:none;fill:rgb(229,20,6)"><path d="M 12049,12567 L 12049,12567 C 12000,12567 11959,12560 11924,12540 11869,12512 11820,12478 11772,12429 11772,12478 11779,12519 11786,12567 11904,13166 11717,13344 11219,13117 11170,13117 11149,13117 11149,13124 11108,13675 10900,14039 10527,14218 10527,14266 10527,14307 10527,14356 10527,14404 10527,14445 10527,14493 11315,14686 11917,14528 12325,14012 L 12325,14080 12325,14080 C 12374,14080 12416,14080 12464,14080 12464,14032 12464,13991 12457,13943 12430,13379 12291,12918 12049,12567 Z"/></g><g style="stroke:none;fill:rgb(234,131,3)"><path d="M 13572,15869 L 13572,15869 C 13523,15869 13481,15862 13440,15855 12693,15676 12368,15910 12464,16557 12464,16605 12457,16633 12436,16639 12159,16798 11800,16860 11357,16832 11392,17396 11516,17864 11745,18229 11765,18263 11772,18297 11772,18345 11772,18394 11786,18428 11806,18449 11827,18469 11862,18483 11911,18483 12361,18683 12859,18662 13405,18428 13426,18421 13433,18394 13433,18345 13385,18345 13344,18339 13294,18332 12741,18242 12374,17974 12188,17520 12561,17658 12893,17830 13177,18036 13212,18057 13246,18070 13294,18070 13488,17623 13606,17073 13640,16426 13640,16419 13662,16419 13710,16419 13897,16921 13856,17520 13592,18215 13578,18256 13572,18297 13572,18345 13620,18345 13662,18345 13710,18345 13710,18297 13724,18270 13745,18249 14104,17940 14229,17286 14125,16282 L 14125,16213 14125,16213 C 13806,16399 13620,16282 13572,15869 Z"/></g><g style="stroke:none;fill:rgb(219,26,2)"><path d="M 13440,15855 L 13440,15855 C 13481,15862 13523,15869 13572,15869 13620,16282 13806,16399 14125,16213 L 14125,16282 14125,16282 C 14229,17286 14104,17940 13745,18249 13724,18270 13710,18297 13710,18345 14222,18394 14478,18297 14471,18070 L 14541,18070 14541,18070 C 14541,18022 14541,17981 14541,17933 14541,17885 14541,17843 14541,17795 14554,17059 14368,16371 13987,15731 13938,15731 13904,15718 13876,15697 13606,15463 13184,15381 12603,15456 12603,15504 12596,15525 12582,15532 11938,15704 11440,16000 11080,16419 11156,16894 11163,17217 11101,17389 11087,17431 11080,17472 11080,17520 11364,17699 11565,17967 11696,18325 11703,18339 11724,18345 11772,18345 11772,18297 11765,18263 11745,18229 11516,17864 11392,17396 11357,16832 11800,16860 12159,16798 12436,16639 12457,16633 12464,16605 12464,16557 12368,15910 12693,15676 13440,15855 Z"/></g><g style="stroke:none;fill:rgb(245,141,29)"><path d="M 13710,16419 L 13710,16419 C 13662,16419 13640,16419 13640,16426 13606,17073 13488,17623 13294,18070 13246,18070 13212,18057 13177,18036 12893,17830 12561,17658 12188,17520 12374,17974 12741,18242 13294,18332 13344,18339 13385,18345 13433,18345 13481,18345 13523,18345 13572,18345 13572,18297 13578,18256 13592,18215 13856,17520 13897,16921 13710,16419 Z"/></g><g style="stroke:none;fill:rgb(108,0,1)"><path d="M 14748,16688 L 14748,16688 C 14686,16158 14430,15841 13987,15731 14368,16371 14554,17059 14541,17795 14541,17843 14541,17885 14541,17933 14589,17933 14609,17926 14616,17912 14721,17534 14789,17128 14818,16694 14769,16694 14748,16694 14748,16688 Z"/></g><g style="stroke:none;fill:rgb(136,20,4)"><path d="M 11911,18483 L 11911,18483 C 11911,18531 11911,18572 11911,18621 12250,18903 12664,19040 13156,19033 13205,19033 13246,19033 13294,19033 13820,18868 14222,18586 14506,18187 14527,18153 14541,18118 14541,18070 L 14471,18070 14471,18070 C 14478,18297 14222,18394 13710,18345 13662,18345 13620,18345 13572,18345 13523,18345 13481,18345 13433,18345 13433,18394 13426,18421 13405,18428 12859,18662 12361,18683 11911,18483 Z"/></g><g style="stroke:none;fill:rgb(219,34,1)"><path d="M 9003,15181 L 9003,15181 C 8955,15181 8914,15188 8865,15195 8373,15298 8097,15614 8034,16144 7986,16144 7952,16158 7924,16179 7565,16461 7142,16674 6650,16832 6650,16880 6650,16921 6650,16970 6650,17018 6650,17059 6650,17107 7267,17169 7633,16983 7744,16550 7751,16509 7758,16467 7758,16419 8250,15938 8526,15938 8582,16419 8589,16467 8589,16509 8589,16557 8637,17334 8962,17616 9565,17403 9606,17389 9647,17382 9695,17382 9695,17334 9688,17293 9668,17259 9515,16915 9294,16633 9003,16419 9003,16371 9003,16330 8997,16282 8941,15807 8941,15442 9003,15181 Z"/></g><g style="stroke:none;fill:rgb(234,141,2)"><path d="M 8450,16557 L 8450,16557 C 8498,16557 8539,16557 8589,16557 8589,16509 8589,16467 8582,16419 8526,15938 8250,15938 7758,16419 7758,16467 7751,16509 7744,16550 7633,16983 7267,17169 6650,17107 6644,17527 6727,17850 6893,18091 6914,18125 6928,18160 6928,18208 7363,18414 7917,18504 8589,18483 8637,18483 8678,18483 8727,18483 8727,18435 8734,18401 8755,18366 8935,18070 8830,17465 8450,16557 Z"/></g><g style="stroke:none;fill:rgb(234,64,5)"><path d="M 8589,16557 L 8589,16557 C 8539,16557 8498,16557 8450,16557 8830,17465 8935,18070 8755,18366 8734,18401 8727,18435 8727,18483 9135,18146 9419,17878 9592,17692 9613,17671 9647,17658 9695,17658 9695,17609 9695,17568 9695,17520 9695,17472 9695,17431 9695,17382 9647,17382 9606,17389 9565,17403 8962,17616 8637,17334 8589,16557 Z"/></g><g style="stroke:none;fill:rgb(150,13,0)"><path d="M 9695,17658 L 9695,17658 C 9647,17658 9613,17671 9592,17692 9419,17878 9135,18146 8727,18483 8678,18483 8637,18483 8589,18483 7917,18504 7363,18414 6928,18208 7059,18490 7280,18696 7599,18820 7613,18827 7620,18848 7620,18896 8056,18923 8471,18965 8865,19026 8914,19033 8955,19033 9003,19033 9315,18696 9537,18284 9675,17788 9688,17747 9695,17706 9695,17658 Z"/></g></g></g></g></svg>