<?xml version="1.0" encoding="UTF-8"?>
<!DOCTYPE svg PUBLIC "-//W3C//DTD SVG 1.1//EN" "http://www.w3.org/Graphics/SVG/1.1/DTD/svg11.dtd"><svg version="1.1" viewBox="0 0 21000 29700" preserveAspectRatio="xMidYMid" fill-rule="evenodd" xmlns="http://www.w3.org/2000/svg" xmlns:xlink="http://www.w3.org/1999/xlink"><g visibility="visible" id="Default"><desc>Master slide</desc><g style="stroke:none;fill:none"><rect x="0" y="0" width="21000" height="29700"/></g></g><g visibility="visible" id="page1"><desc>Slide</desc><g><desc>Graphic</desc><g><g style="stroke:none;fill:rgb(225,27,20)"><path d="M 11918,10921 L 11918,10921 C 11964,10925 12011,10927 12057,10928 12587,12299 12506,13498 11813,14525 11790,14557 11780,14596 11780,14643 11778,14781 11799,14911 11843,15035 11846,15049 11871,15056 11918,15056 11918,15008 11918,14962 11918,14918 11918,14781 11918,14643 11918,14506 11962,14458 12015,14421 12069,14394 12106,14375 12147,14366 12196,14368 12196,14322 12206,14290 12229,14271 12414,14128 12587,13978 12749,13818 12749,13772 12751,13726 12756,13680 12825,12437 12591,11336 12057,10378 12011,10378 11964,10378 11918,10378 11088,10378 10257,10378 9427,10378 9427,10424 9427,10470 9427,10516 9427,10560 9427,10606 9427,10653 9473,10697 9510,10749 9537,10803 9557,10840 9565,10881 9565,10928 10362,10863 11146,10861 11918,10921 Z"/></g><g style="stroke:none;fill:rgb(250,132,58)"><path d="M 12057,10928 L 12057,10928 C 12011,10927 11964,10925 11918,10921 11146,10861 10362,10863 9565,10928 9564,10974 9569,11020 9578,11066 9661,11611 9471,11932 9011,12029 8964,12027 8923,12036 8886,12056 8830,12082 8779,12119 8735,12167 8735,12578 8735,12990 8735,13405 8735,13451 8735,13497 8735,13542 8781,13542 8827,13542 8874,13542 8918,13542 8964,13542 9011,13542 9011,13497 9011,13451 9011,13405 9011,13313 9011,13221 9011,13130 9532,12775 9806,12408 9835,12029 9838,11983 9840,11937 9842,11891 9869,11643 10000,11486 10236,11417 10249,11412 10256,11387 10257,11341 10774,11286 11191,11322 11510,11451 11551,11470 11595,11479 11641,11479 11977,12428 11874,13149 11329,13645 11306,13668 11272,13680 11226,13680 11051,13904 11132,14107 11474,14285 11494,14294 11503,14320 11503,14368 L 11503,14368 C 11549,14414 11587,14465 11613,14520 11632,14557 11641,14597 11641,14643 11686,14643 11732,14643 11780,14643 11780,14596 11790,14557 11813,14525 12506,13498 12587,12299 12057,10928 Z"/></g><g style="stroke:none;fill:rgb(105,5,6)"><path d="M 12333,10378 L 12333,10378 C 12286,10378 12240,10378 12196,10378 12149,10378 12103,10378 12057,10378 12591,11336 12825,12437 12756,13680 12751,13726 12749,13772 12749,13818 12587,13978 12414,14128 12229,14271 12206,14290 12196,14322 12196,14368 12129,14615 12176,14751 12333,14774 12378,14777 12424,14779 12472,14781 12470,14735 12479,14694 12498,14657 13125,13336 13070,11909 12333,10378 Z"/></g><g style="stroke:none;fill:rgb(245,68,20)"><path d="M 13857,15056 L 13857,15056 C 13810,15056 13764,15056 13718,15056 13116,15056 12517,15056 11918,15056 11871,15056 11846,15049 11843,15035 11799,14911 11778,14781 11780,14643 11732,14643 11686,14643 11641,14643 11639,14689 11645,14735 11654,14781 11729,15139 11587,15276 11226,15193 11226,15239 11226,15285 11226,15331 11226,15377 11237,15410 11260,15433 11444,15622 11388,15770 11088,15881 11088,15927 11076,15961 11053,15984 10983,16052 10902,16109 10811,16157 10834,16500 10900,16814 11011,17098 11015,17113 11040,17120 11088,17120 11088,17074 11088,17028 11088,16982 11088,16707 11088,16432 11088,16157 11132,16157 11178,16157 11226,16157 11226,16109 11226,16063 11226,16019 11527,15904 11730,15680 11843,15350 11846,15336 11871,15329 11918,15331 12287,15331 12656,15331 13026,15331 13072,15331 13118,15331 13165,15331 L 13165,15331 C 13546,15317 13797,15446 13918,15716 13922,15735 13946,15744 13995,15744 14087,15744 14180,15744 14271,15744 14318,15744 14364,15744 14410,15744 L 14410,15675 14410,15675 C 14142,15666 14050,15506 14133,15193 14133,15146 14124,15119 14104,15111 14032,15074 13948,15054 13857,15056 Z"/></g><g style="stroke:none;fill:rgb(188,1,12)"><path d="M 13718,15056 L 13718,15056 C 13764,15056 13810,15056 13857,15056 13857,15008 13848,14982 13828,14973 13511,14812 13104,14747 12610,14781 12564,14781 12519,14781 12472,14781 12424,14779 12378,14777 12333,14774 12176,14751 12129,14615 12196,14368 12147,14366 12106,14375 12069,14394 12015,14421 11962,14458 11918,14506 11918,14643 11918,14781 11918,14918 11918,14962 11918,15008 11918,15056 12517,15056 13116,15056 13718,15056 Z"/></g><g style="stroke:none;fill:rgb(240,222,6)"><path d="M 11918,15331 L 11918,15331 C 11871,15329 11846,15336 11843,15350 11730,15680 11527,15904 11226,16019 11226,16063 11226,16109 11226,16157 11244,17068 11530,17310 12083,16878 12110,16855 12147,16843 12196,16844 12196,16799 12196,16753 12196,16707 12196,16659 12196,16613 12196,16569 12378,16435 12654,16388 13026,16425 13072,16428 13118,16430 13165,16432 13165,16384 13175,16347 13198,16321 13480,15991 13467,15661 13165,15331 13118,15331 13072,15331 13026,15331 12656,15331 12287,15331 11918,15331 Z"/></g><g style="stroke:none;fill:rgb(240,44,22)"><path d="M 13026,16425 L 13026,16425 C 12654,16388 12378,16435 12196,16569 12196,16613 12196,16659 12196,16707 12196,16753 12196,16799 12196,16844 12463,17083 12745,17300 13045,17497 13077,17520 13116,17532 13165,17532 13325,17280 13351,16917 13240,16446 13235,16437 13210,16432 13165,16432 13118,16430 13072,16428 13026,16425 Z"/></g><g style="stroke:none;fill:rgb(251,160,56)"><path d="M 12196,16844 L 12196,16844 C 12147,16843 12110,16855 12083,16878 11530,17310 11244,17068 11226,16157 11178,16157 11132,16157 11088,16157 11088,16432 11088,16707 11088,16982 11088,17028 11088,17074 11088,17120 11088,17164 11088,17210 11088,17257 11004,18074 11327,18487 12057,18495 12103,18495 12149,18495 12196,18495 12194,18448 12187,18423 12174,18420 11810,18294 11587,18046 11503,17670 12222,17605 12633,17834 12735,18358 12744,18404 12747,18450 12749,18495 13058,18462 13288,18485 13441,18564 L 13441,18495 13441,18495 C 13762,18310 14074,18111 14375,17896 14398,17882 14410,17852 14410,17808 14585,16853 14457,16197 14029,15839 14006,15820 13995,15788 13995,15744 13946,15744 13922,15735 13918,15716 13797,15446 13546,15317 13165,15331 13467,15661 13480,15991 13198,16321 13175,16347 13165,16384 13165,16432 13210,16432 13235,16437 13240,16446 13351,16917 13325,17280 13165,17532 13116,17532 13077,17520 13045,17497 12745,17300 12463,17083 12196,16844 Z"/></g><g style="stroke:none;fill:rgb(227,73,22)"><path d="M 13995,15744 L 13995,15744 C 13995,15788 14006,15820 14029,15839 14457,16197 14585,16853 14410,17808 14410,17852 14398,17882 14375,17896 14074,18111 13762,18310 13441,18495 L 13441,18564 13441,18564 C 13288,18485 13058,18462 12749,18495 12703,18495 12656,18495 12610,18495 12472,18495 12333,18495 12196,18495 12149,18495 12103,18495 12057,18495 11327,18487 11004,18074 11088,17257 11042,17257 10995,17257 10949,17257 10895,18003 11114,18483 11613,18695 11632,18698 11641,18723 11641,18771 12199,18945 12800,18949 13448,18785 13488,18776 13534,18771 13579,18771 13990,18628 14301,18391 14513,18062 14536,18030 14548,17991 14548,17945 14547,17899 14554,17855 14568,17815 14819,16998 14765,16306 14410,15744 14364,15744 14318,15744 14271,15744 14180,15744 14087,15744 13995,15744 Z"/></g><g style="stroke:none;fill:rgb(184,14,7)"><path d="M 14410,15675 L 14410,15744 14410,15744 C 14765,16306 14819,16998 14568,17815 14554,17855 14547,17899 14548,17945 14593,17945 14638,17945 14687,17945 14733,17945 14779,17945 14826,17945 14826,17899 14831,17855 14840,17815 14977,17262 15019,16619 14963,15881 14917,15881 14886,15869 14866,15846 14668,15580 14422,15363 14133,15193 14050,15506 14142,15666 14410,15675 Z"/></g><g style="stroke:none;fill:rgb(240,226,9)"><path d="M 11641,11479 L 11641,11479 C 11595,11479 11551,11470 11510,11451 11191,11322 10774,11286 10257,11341 10256,11387 10249,11412 10236,11417 10000,11486 9869,11643 9842,11891 9840,11937 9838,11983 9835,12029 9806,12408 9532,12775 9011,13130 9011,13221 9011,13313 9011,13405 9011,13451 9011,13497 9011,13542 9056,13541 9093,13553 9122,13576 9411,13786 9560,14142 9565,14643 9517,14641 9480,14654 9453,14677 9204,14883 8872,15010 8458,15056 8456,15102 8454,15148 8451,15193 8377,15940 7824,16215 6797,16019 6523,17114 6893,17596 7905,17464 L 7905,17532 7905,17532 C 8424,17728 8813,17554 9067,17008 9076,16989 9102,16980 9150,16982 9311,17143 9462,17314 9606,17497 9625,17520 9657,17532 9704,17532 9702,17486 9711,17446 9731,17409 10027,16747 9880,16102 9288,15469 9334,15469 9369,15456 9392,15433 9415,15410 9427,15377 9427,15331 9427,15285 9427,15239 9427,15193 9427,15148 9427,15102 9427,15056 10257,14945 10940,14744 11474,14451 11494,14442 11503,14414 11503,14368 11503,14320 11494,14294 11474,14285 11132,14107 11051,13904 11226,13680 11272,13680 11306,13668 11329,13645 11874,13149 11977,12428 11641,11479 Z M 9828,12855 L 9828,12855 C 9836,12807 9840,12761 9842,12717 10612,12184 11068,12368 11212,13267 11221,13311 11225,13357 11226,13405 11086,13772 10723,13888 10131,13756 10122,13751 10117,13726 10119,13680 9850,13580 9753,13304 9828,12855 Z"/></g><g style="stroke:none;fill:rgb(237,148,6)"><path d="M 9842,12717 L 9842,12717 C 9840,12761 9836,12807 9828,12855 9753,13304 9850,13580 10119,13680 10117,13726 10122,13751 10131,13756 10723,13888 11086,13772 11226,13405 11225,13357 11221,13311 11212,13267 11068,12368 10612,12184 9842,12717 Z M 9987,12992 L 9987,12992 C 9982,12946 9980,12900 9980,12855 10797,12408 11098,12634 10888,13528 10882,13537 10858,13541 10811,13542 10307,13809 10032,13625 9987,12992 Z"/></g><g style="stroke:none;fill:rgb(237,37,15)"><path d="M 9980,12855 L 9980,12855 C 9980,12900 9982,12946 9987,12992 10032,13625 10307,13809 10811,13542 10858,13541 10882,13537 10888,13528 11098,12634 10797,12408 9980,12855 Z"/></g><g style="stroke:none;fill:rgb(141,28,18)"><path d="M 9427,10653 L 9427,10653 C 9427,10697 9415,10729 9392,10749 9095,11010 8739,11207 8319,11341 8319,11387 8319,11433 8319,11479 8319,11525 8319,11570 8319,11616 8319,12211 8342,12805 8389,13398 8387,13401 8410,13403 8458,13405 8458,13357 8458,13311 8458,13267 8458,12763 8458,12258 8458,11754 8712,11735 8884,11789 8976,11918 8999,11944 9011,11981 9011,12029 9471,11932 9661,11611 9578,11066 9569,11020 9564,10974 9565,10928 9565,10881 9557,10840 9537,10803 9510,10749 9473,10697 9427,10653 Z"/></g><g style="stroke:none;fill:rgb(236,20,17)"><path d="M 8886,12056 L 8886,12056 C 8923,12036 8964,12027 9011,12029 9011,11981 8999,11944 8976,11918 8884,11789 8712,11735 8458,11754 8458,12258 8458,12763 8458,13267 8458,13311 8458,13357 8458,13405 8502,13451 8554,13488 8609,13514 8646,13534 8686,13542 8735,13542 8735,13497 8735,13451 8735,13405 8735,12990 8735,12578 8735,12167 8779,12119 8830,12082 8886,12056 Z"/></g><g style="stroke:none;fill:rgb(186,156,1)"><path d="M 9011,13542 L 9011,13542 C 8964,13542 8918,13542 8874,13542 8874,13588 8884,13625 8907,13652 9526,14363 9329,14738 8319,14781 8319,14827 8319,14872 8319,14918 8319,14962 8319,15008 8319,15056 8363,15056 8410,15056 8458,15056 8872,15010 9204,14883 9453,14677 9480,14654 9517,14641 9565,14643 9560,14142 9411,13786 9122,13576 9093,13553 9056,13541 9011,13542 Z"/></g><g style="stroke:none;fill:rgb(124,22,5)"><path d="M 8907,13652 L 8907,13652 C 8884,13625 8874,13588 8874,13542 8827,13542 8781,13542 8735,13542 8686,13542 8646,13534 8609,13514 8554,13488 8502,13451 8458,13405 8410,13403 8387,13401 8389,13398 8342,12805 8319,12211 8319,11616 8273,11616 8250,11618 8250,11623 8202,12260 8179,12900 8181,13542 8226,13541 8268,13550 8305,13569 8679,13738 8914,14050 9011,14506 8964,14506 8918,14506 8874,14506 7866,14514 7036,14698 6381,15056 6381,15102 6381,15148 6381,15193 6428,15193 6474,15193 6520,15193 6567,15193 6612,15193 6658,15193 7178,15114 7686,15028 8181,14932 8228,14924 8273,14918 8319,14918 8319,14872 8319,14827 8319,14781 9329,14738 9526,14363 8907,13652 Z"/></g><g style="stroke:none;fill:rgb(249,147,52)"><path d="M 8319,14918 L 8319,14918 C 8273,14918 8228,14924 8181,14932 7686,15028 7178,15114 6658,15193 6658,15239 6646,15278 6623,15310 6550,15410 6423,15463 6244,15469 6244,16017 6244,16568 6244,17120 6244,17164 6244,17210 6244,17257 6497,17647 6762,18023 7038,18384 7062,18411 7074,18448 7074,18495 7553,18545 8061,18589 8596,18626 8642,18629 8688,18631 8735,18633 8983,18238 9294,17903 9668,17628 9691,17608 9704,17576 9704,17532 9657,17532 9625,17520 9606,17497 9462,17314 9311,17143 9150,16982 9102,16980 9076,16989 9067,17008 8813,17554 8424,17728 7905,17532 7856,17532 7810,17538 7766,17546 7336,17633 6967,17629 6658,17532 6657,17486 6649,17442 6637,17402 6504,17044 6465,16582 6520,16019 7327,15950 7915,15664 8284,15165 8307,15139 8319,15102 8319,15056 L 8319,15056 C 8319,15008 8319,14962 8319,14918 Z"/></g><g style="stroke:none;fill:rgb(250,209,36)"><path d="M 8451,15193 L 8451,15193 C 8454,15148 8456,15102 8458,15056 8410,15056 8363,15056 8319,15056 8319,15102 8307,15139 8284,15165 7915,15664 7327,15950 6520,16019 6465,16582 6504,17044 6637,17402 6649,17442 6657,17486 6658,17532 6967,17629 7336,17633 7766,17546 7810,17538 7856,17532 7905,17532 L 7905,17464 7905,17464 C 6893,17596 6523,17114 6797,16019 7824,16215 8377,15940 8451,15193 Z"/></g><g style="stroke:none;fill:rgb(244,154,56)"><path d="M 11503,14368 L 11503,14368 C 11503,14414 11494,14442 11474,14451 10940,14744 10257,14945 9427,15056 9427,15102 9427,15148 9427,15193 9427,15239 9427,15285 9427,15331 9866,15216 10370,15193 10942,15262 10946,15262 10948,15285 10949,15331 10995,15331 11042,15331 11088,15331 11132,15331 11178,15331 11226,15331 11226,15285 11226,15239 11226,15193 11587,15276 11729,15139 11654,14781 11645,14735 11639,14689 11641,14643 11641,14597 11632,14557 11613,14520 11587,14465 11549,14414 11503,14368 Z"/></g><g style="stroke:none;fill:rgb(172,117,10)"><path d="M 10949,15331 L 10949,15331 C 10948,15285 10946,15262 10942,15262 10370,15193 9866,15216 9427,15331 9427,15377 9415,15410 9392,15433 9369,15456 9334,15469 9288,15469 9880,16102 10027,16747 9731,17409 9711,17446 9702,17486 9704,17532 9750,17532 9796,17532 9842,17532 9889,17532 9934,17532 9980,17532 10024,17532 10061,17520 10084,17497 10106,17474 10119,17441 10119,17395 10119,17349 10119,17303 10119,17257 10119,17120 10119,16982 10119,16844 10163,16844 10210,16844 10257,16844 10257,16799 10259,16753 10264,16707 10319,16312 10177,15899 9842,15469 10105,15363 10428,15317 10811,15331 10858,15331 10903,15331 10949,15331 Z"/></g><g style="stroke:none;fill:rgb(213,14,11)"><path d="M 10119,16844 L 10119,16844 C 10119,16982 10119,17120 10119,17257 10119,17303 10119,17349 10119,17395 10428,17427 10665,17391 10830,17291 10863,17268 10902,17257 10949,17257 10995,17257 11042,17257 11088,17257 11088,17210 11088,17164 11088,17120 11040,17120 11015,17113 11011,17098 10900,16814 10834,16500 10811,16157 10902,16109 10983,16052 11053,15984 11076,15961 11088,15927 11088,15881 11040,15881 11002,15892 10976,15915 10672,16164 10433,16472 10257,16844 10210,16844 10163,16844 10119,16844 Z"/></g><g style="stroke:none;fill:rgb(112,11,6)"><path d="M 10949,17257 L 10949,17257 C 10902,17257 10863,17268 10830,17291 10665,17391 10428,17427 10119,17395 10119,17441 10106,17474 10084,17497 10061,17520 10024,17532 9980,17532 9980,17576 9971,17619 9952,17656 9670,18284 9220,18748 8596,19046 8549,19046 8502,19040 8458,19032 7936,18940 7475,18762 7074,18495 7025,18495 6981,18488 6941,18474 6843,18443 6749,18404 6658,18358 6713,18719 6941,18926 7343,18977 7347,18977 7348,19000 7350,19046 7824,18986 8161,19065 8360,19286 8378,19309 8410,19321 8458,19321 9325,19129 9873,18621 10098,17800 10110,17758 10117,17714 10119,17670 10584,17532 10854,17580 10928,17815 10940,17855 10948,17899 10949,17945 10820,18532 11004,18809 11503,18778 11549,18772 11595,18771 11641,18771 11641,18723 11632,18698 11613,18695 11114,18483 10895,18003 10949,17257 Z"/></g><g style="stroke:none;fill:rgb(211,46,13)"><path d="M 9952,17656 L 9952,17656 C 9971,17619 9980,17576 9980,17532 9934,17532 9889,17532 9842,17532 9796,17532 9750,17532 9704,17532 9704,17576 9691,17608 9668,17628 9294,17903 8983,18238 8735,18633 8688,18631 8642,18629 8596,18626 8061,18589 7553,18545 7074,18495 7475,18762 7936,18940 8458,19032 8502,19040 8549,19046 8596,19046 9220,18748 9670,18284 9952,17656 Z"/></g><g style="stroke:none;fill:rgb(89,25,2)"><path d="M 14250,18735 L 14250,18735 C 14318,18688 14382,18638 14440,18587 14353,18617 14250,18631 14133,18633 14133,18679 14133,18725 14133,18771 14180,18771 14218,18758 14250,18735 Z"/></g><g style="stroke:none;fill:rgb(247,218,25)"><path d="M 12196,18495 L 12196,18495 C 12333,18495 12472,18495 12610,18495 12656,18495 12703,18495 12749,18495 12747,18450 12744,18404 12735,18358 12633,17834 12222,17605 11503,17670 11587,18046 11810,18294 12174,18420 12187,18423 12194,18448 12196,18495 Z"/></g><g style="stroke:none;fill:rgb(152,49,28)"><path d="M 6360,15269 L 6360,15269 C 6252,15305 6138,15324 6019,15329 L 6019,17414 6019,17414 C 6131,17783 6309,18084 6553,18323 6577,18345 6612,18358 6658,18358 6749,18404 6843,18443 6941,18474 6981,18488 7025,18495 7074,18495 7074,18448 7062,18411 7038,18384 6762,18023 6497,17647 6244,17257 6244,17210 6244,17164 6244,17120 6244,16568 6244,16017 6244,15469 6423,15463 6550,15410 6623,15310 6646,15278 6658,15239 6658,15193 6612,15193 6567,15193 6520,15193 6474,15193 6428,15193 6381,15193 6379,15239 6372,15264 6360,15269 Z"/></g><g style="stroke:none;fill:rgb(151,10,3)"><path d="M 14800,18189 L 14800,18189 C 14807,18155 14813,18120 14819,18083 14822,18037 14824,17991 14826,17945 14779,17945 14733,17945 14687,17945 14638,17945 14593,17945 14548,17945 14548,17991 14536,18030 14513,18062 14301,18391 13990,18628 13579,18771 13534,18771 13488,18776 13448,18785 12800,18949 12199,18945 11641,18771 12412,19413 13205,19423 14022,18804 14048,18781 14085,18771 14133,18771 14133,18725 14133,18679 14133,18633 14250,18631 14353,18617 14440,18587 14633,18525 14752,18391 14800,18189 Z"/></g><g style="stroke:none;fill:rgb(89,25,2)"><path d="M 13828,14973 L 13828,14973 C 13848,14982 13857,15008 13857,15056 13948,15054 14032,15074 14104,15111 14124,15119 14133,15146 14133,15193 14422,15363 14668,15580 14866,15846 14886,15869 14917,15881 14963,15881 15019,16619 14977,17262 14840,17815 14831,17855 14826,17899 14826,17945 14824,17991 14822,18037 14819,18083 14813,18120 14807,18155 14800,18189 14898,18047 14977,17894 15035,17730 L 15035,15738 15035,15738 C 15014,15650 14991,15560 14963,15469 14963,15423 14954,15393 14935,15379 14575,15172 14262,14927 13995,14643 13946,14643 13901,14643 13857,14643 13441,14643 13026,14643 12610,14643 12610,14689 12610,14735 12610,14781 13104,14747 13511,14812 13828,14973 Z"/></g></g></g></g></svg>