<?xml version="1.0" encoding="UTF-8"?>
<!DOCTYPE svg PUBLIC "-//W3C//DTD SVG 1.1//EN" "http://www.w3.org/Graphics/SVG/1.1/DTD/svg11.dtd"><svg version="1.1" viewBox="0 0 21000 29700" preserveAspectRatio="xMidYMid" fill-rule="evenodd" xmlns="http://www.w3.org/2000/svg" xmlns:xlink="http://www.w3.org/1999/xlink"><g visibility="visible" id="Default"><desc>Master slide</desc><g style="stroke:none;fill:none"><rect x="0" y="0" width="21000" height="29700"/></g></g><g visibility="visible" id="page1"><desc>Slide</desc><g><desc>Graphic</desc><g><g style="stroke:none;fill:rgb(222,123,0)"><path d="M 12089,11939 L 12089,11939 C 12089,11886 12076,11842 12050,11807 11716,11320 11260,10950 10683,10697 10683,10749 10672,10794 10653,10837 10559,11043 10361,11152 10059,11163 10038,11447 10076,11660 10175,11807 10203,11842 10215,11886 10215,11939 10215,11990 10219,12017 10224,12017 10598,12052 10802,12234 10839,12560 10839,12611 10828,12657 10809,12699 10658,13056 10408,13320 10059,13491 10106,13906 10224,14022 10410,13841 10437,13814 10475,13802 10528,13802 10528,13751 10528,13698 10528,13647 10844,12927 11322,12368 11957,11969 11992,11948 12038,11937 12089,11939 Z"/></g><g style="stroke:none;fill:rgb(229,35,0)"><path d="M 12089,11939 L 12089,11939 C 12038,11937 11992,11948 11957,11969 11322,12368 10844,12927 10528,13647 10528,13698 10528,13751 10528,13802 10788,13802 11047,13802 11308,13802 11360,13802 11413,13802 11464,13802 11464,13751 11464,13698 11464,13647 11413,13647 11384,13641 11379,13631 11331,13435 11308,13232 11308,13026 11876,12900 12138,12590 12098,12094 12092,12041 12089,11990 12089,11939 Z"/></g><g style="stroke:none;fill:rgb(220,7,0)"><path d="M 12401,15199 L 12401,15199 C 12401,15146 12401,15095 12401,15044 12350,15044 12321,15051 12315,15066 12023,15791 11532,16301 10839,16596 10990,16802 11189,16977 11434,17116 11453,17132 11464,17165 11464,17217 11720,17056 11943,16862 12136,16635 12156,16608 12194,16596 12245,16596 12361,16538 12673,16536 13182,16587 13233,16592 13286,16594 13338,16596 13390,16596 13439,16590 13487,16580 13851,16481 14062,16227 14119,15820 14119,15768 14117,15742 14112,15742 13414,15664 12843,15483 12401,15199 Z"/></g><g style="stroke:none;fill:rgb(220,102,0)"><path d="M 12245,16596 L 12245,16596 C 12194,16596 12156,16608 12136,16635 11943,16862 11720,17056 11464,17217 11464,17435 11481,17651 11520,17864 11527,17901 11534,17940 11542,17977 11542,17987 11569,17993 11620,17993 11620,17986 11620,17979 11620,17973 11624,17933 11636,17905 11659,17892 11759,17823 11746,17651 11620,17372 12495,16993 13127,16929 13519,17178 13555,17204 13599,17217 13650,17217 13650,17165 13639,17118 13620,17077 13537,16911 13443,16751 13338,16596 13286,16594 13233,16592 13182,16587 12673,16536 12361,16538 12245,16596 Z"/></g><g style="stroke:none;fill:rgb(225,137,5)"><path d="M 13650,17217 L 13650,17217 C 13599,17217 13555,17204 13519,17178 13127,16929 12495,16993 11620,17372 11746,17651 11759,17823 11659,17892 11636,17905 11624,17933 11620,17973 11620,17979 11620,17986 11620,17993 11625,17991 11629,17991 11632,17989 11848,17933 11950,17986 11941,18148 11936,18199 11932,18250 11932,18303 12000,18545 12156,18695 12401,18753 12452,18764 12506,18769 12557,18769 13082,18164 13555,17945 13971,18116 14018,18137 14067,18148 14119,18148 14119,18097 14119,18044 14119,17993 14119,17942 14119,17889 14119,17838 14119,17786 14129,17755 14150,17744 14619,17531 14608,17356 14119,17217 14067,17217 14015,17217 13962,17217 13858,17217 13755,17217 13650,17217 Z"/></g><g style="stroke:none;fill:rgb(225,14,0)"><path d="M 10215,11939 L 10215,11939 C 10163,11937 10131,11948 10122,11969 9778,12585 9237,12678 8497,12250 8949,12756 9460,13139 10029,13398 10048,13408 10059,13440 10059,13491 10408,13320 10658,13056 10809,12699 10828,12657 10839,12611 10839,12560 10802,12234 10598,12052 10224,12017 10219,12017 10215,11990 10215,11939 Z"/></g><g style="stroke:none;fill:rgb(226,29,0)"><path d="M 8340,14888 L 8340,14888 C 8289,14887 8245,14897 8207,14918 7624,15266 7199,15772 6935,16441 6935,16492 6935,16545 6935,16596 6935,16647 6935,16698 6935,16751 7159,17402 7578,17617 8193,17395 8240,17379 8289,17372 8340,17372 8340,17321 8340,17268 8340,17217 8351,16915 8663,16657 9278,16441 9227,16441 9187,16428 9160,16402 8740,15941 8779,15437 9278,14888 9227,14888 9173,14890 9122,14895 8737,14925 8475,14924 8340,14888 Z"/></g><g style="stroke:none;fill:rgb(208,125,0)"><path d="M 6935,16751 L 6935,16751 C 6935,16802 6930,16855 6920,16906 6882,17169 6679,17273 6311,17217 6300,17388 6405,17465 6623,17449 L 6623,17527 6623,17527 C 6674,17527 6713,17539 6740,17566 6767,17592 6779,17631 6779,17682 7040,18049 7508,18159 8184,18009 8236,17998 8289,17993 8340,17993 8340,17942 8340,17889 8340,17838 8340,17785 8340,17733 8340,17682 8393,17682 8445,17682 8497,17682 8497,17631 8497,17578 8497,17527 8445,17527 8407,17515 8380,17488 8353,17462 8340,17423 8340,17372 8289,17372 8240,17379 8193,17395 7578,17617 7159,17402 6935,16751 Z"/></g><g style="stroke:none;fill:rgb(130,5,0)"><path d="M 11932,18303 L 11932,18303 C 11932,18250 11936,18199 11941,18148 11950,17986 11848,17933 11632,17989 11704,18072 11769,18167 11831,18271 11848,18293 11881,18303 11932,18303 Z"/></g><g style="stroke:none;fill:rgb(121,8,1)"><path d="M 13338,11784 L 13338,11784 C 13338,11731 13337,11680 13331,11629 13283,11168 13026,10909 12557,10853 12557,10904 12550,10932 12534,10937 12300,11025 11892,10997 11308,10853 11308,10800 11295,10757 11269,10727 11164,10592 11042,10473 10902,10369 L 10683,10369 10683,10369 C 10683,10427 10683,10484 10683,10542 10683,10593 10683,10646 10683,10697 11260,10950 11716,11320 12050,11807 12076,11842 12089,11886 12089,11939 12089,11990 12092,12041 12098,12094 12138,12590 11876,12900 11308,13026 11308,13232 11331,13435 11379,13631 11384,13641 11413,13647 11464,13647 11464,13594 11476,13551 11503,13521 12001,12863 12406,12957 12714,13802 12765,13800 12791,13798 12791,13793 12843,13146 13026,12477 13338,11784 Z"/></g><g style="stroke:none;fill:rgb(130,5,0)"><path d="M 12315,15066 L 12315,15066 C 12321,15051 12350,15044 12401,15044 12401,14992 12396,14939 12387,14888 12293,14319 11984,13955 11464,13802 11413,13802 11360,13802 11308,13802 11047,13802 10788,13802 10528,13802 10475,13802 10437,13814 10410,13841 10224,14022 10106,13906 10059,13491 10059,13440 10048,13408 10029,13398 9460,13139 8949,12756 8497,12250 9237,12678 9778,12585 10122,11969 10131,11948 10163,11937 10215,11939 10215,11886 10203,11842 10175,11807 10076,11660 10038,11447 10059,11163 10361,11152 10559,11043 10653,10837 10672,10794 10683,10749 10683,10697 10632,10697 10579,10697 10528,10697 9854,10727 9543,11038 9590,11629 9590,11680 9578,11713 9551,11729 9202,11946 8798,11964 8340,11784 8340,11835 8328,11874 8302,11900 8094,12107 8002,12429 8028,12870 8080,12869 8114,12879 8130,12900 L 8130,12900 C 8509,13532 8215,13781 7248,13647 7196,13645 7162,13655 7146,13677 6942,14008 6873,14463 6935,15044 6935,15095 6925,15126 6905,15137 6639,15255 6493,15483 6467,15820 L 6388,15820 6388,15820 C 6839,16534 6716,16980 6019,17157 L 6019,17626 6019,17626 C 6140,17643 6293,17619 6476,17550 6521,17534 6572,17527 6623,17527 L 6623,17449 6623,17449 C 6405,17465 6300,17388 6311,17217 6679,17273 6882,17169 6920,16906 6930,16855 6935,16802 6935,16751 6935,16698 6935,16647 6935,16596 6935,16545 6935,16492 6935,16441 7199,15772 7624,15266 8207,14918 8245,14897 8289,14887 8340,14888 8475,14924 8737,14925 9122,14895 9173,14890 9227,14888 9278,14888 8779,15437 8740,15941 9160,16402 9187,16428 9227,16441 9278,16441 8663,16657 8351,16915 8340,17217 8340,17268 8340,17321 8340,17372 8340,17423 8353,17462 8380,17488 8407,17515 8445,17527 8497,17527 8497,17474 8497,17423 8497,17372 8497,17321 8497,17268 8497,17217 9111,16936 9618,17001 10019,17411 10046,17435 10059,17474 10059,17527 10660,17384 11146,17495 11520,17864 11481,17651 11464,17435 11464,17217 11464,17165 11453,17132 11434,17116 L 11434,17116 C 11189,16977 10990,16802 10839,16596 11532,16301 12023,15791 12315,15066 Z"/></g><g style="stroke:none;fill:rgb(137,30,0)"><path d="M 8340,17993 L 8340,17993 C 8289,17993 8236,17998 8184,18009 7508,18159 7040,18049 6779,17682 6846,18137 6971,18541 7153,18892 7164,18913 7196,18924 7248,18924 7248,18873 7248,18820 7248,18769 7248,18718 7248,18665 7248,18614 7538,18386 7896,18206 8317,18077 8333,18072 8340,18044 8340,17993 Z"/></g><g style="stroke:none;fill:rgb(99,3,0)"><path d="M 8497,17682 L 8497,17682 C 8445,17682 8393,17682 8340,17682 8340,17733 8340,17785 8340,17838 8340,17889 8340,17942 8340,17993 8340,18044 8333,18072 8317,18077 7896,18206 7538,18386 7248,18614 7248,18665 7248,18718 7248,18769 7248,18820 7248,18873 7248,18924 7271,19104 7324,19240 7411,19330 L 8303,19330 8303,19330 C 8305,19328 8309,19328 8310,19328 8330,19317 8340,19286 8340,19234 8918,18876 8983,18400 8535,17806 8509,17776 8497,17733 8497,17682 Z"/></g><g style="stroke:none;fill:rgb(132,19,6)"><path d="M 14119,18303 L 14119,18303 C 14119,18250 14119,18199 14119,18148 14067,18148 14018,18137 13971,18116 13555,17945 13082,18164 12557,18769 12953,19270 13460,19205 14080,18575 14106,18548 14119,18510 14119,18458 14119,18407 14119,18354 14119,18303 Z"/></g><g style="stroke:none;fill:rgb(126,19,0)"><path d="M 14112,15742 L 14112,15742 C 14117,15742 14119,15768 14119,15820 14062,16227 13851,16481 13487,16580 13439,16590 13390,16596 13338,16596 13443,16751 13537,16911 13620,17077 13639,17118 13650,17165 13650,17217 13755,17217 13858,17217 13962,17217 14015,17217 14067,17217 14119,17217 14119,17165 14119,17113 14119,17061 14513,16993 14819,16830 15035,16576 L 15035,16167 15035,16167 C 14820,16052 14566,15936 14275,15820 14275,15768 14262,15724 14236,15687 13975,15315 13365,15151 12401,15199 12843,15483 13414,15664 14112,15742 Z"/></g><g style="stroke:none;fill:rgb(218,27,6)"><path d="M 14119,17061 L 14119,17061 C 14119,17113 14119,17165 14119,17217 14608,17356 14619,17531 14150,17744 14129,17755 14119,17786 14119,17838 14348,17755 14608,17705 14900,17689 14944,17684 14991,17682 15035,17682 L 15035,17525 15035,17525 C 15012,17322 15012,17144 15035,16989 L 15035,16576 15035,16576 C 14819,16830 14513,16993 14119,17061 Z"/></g><g style="stroke:none;fill:rgb(118,1,0)"><path d="M 15035,18032 L 15035,17682 15035,17682 C 14991,17682 14944,17684 14900,17689 14608,17705 14348,17755 14119,17838 14119,17889 14119,17942 14119,17993 14119,18044 14119,18097 14119,18148 14119,18199 14119,18250 14119,18303 14119,18354 14119,18407 14119,18458 14334,18114 14638,17972 15035,18032 Z"/><path d="M 15035,17525 L 15035,16989 15035,16989 C 15012,17144 15012,17322 15035,17525 Z"/></g></g></g></g></svg>