<?xml version="1.0" encoding="UTF-8"?>
<!DOCTYPE svg PUBLIC "-//W3C//DTD SVG 1.1//EN" "http://www.w3.org/Graphics/SVG/1.1/DTD/svg11.dtd"><svg version="1.1" viewBox="0 0 21000 29700" preserveAspectRatio="xMidYMid" fill-rule="evenodd" xmlns="http://www.w3.org/2000/svg" xmlns:xlink="http://www.w3.org/1999/xlink"><g visibility="visible" id="Default"><desc>Master slide</desc><g style="stroke:none;fill:none"><rect x="0" y="0" width="21000" height="29700"/></g></g><g visibility="visible" id="page1"><desc>Slide</desc><g><desc>Graphic</desc><g><g style="stroke:none;fill:rgb(132,4,3)"><path d="M 14696,11592 L 14696,11592 C 14673,11554 14665,11507 14665,11453 14360,11616 14141,11624 14001,11492 13977,11468 13938,11453 13884,11453 13743,11181 13533,10979 13244,10863 13205,10840 13157,10832 13103,10832 12190,11057 11362,11391 10635,11818 10612,11833 10604,11864 10604,11918 10604,11973 10597,11996 10589,12004 9847,12175 9331,12097 9043,11763 8988,11763 8941,11763 8887,11755 8332,11724 8019,11934 7950,12384 L 7950,12462 7950,12462 C 7122,12260 6551,12392 6232,12850 6232,13727 6232,14611 6232,15488 6232,15543 6232,15589 6232,15644 7020,16001 7036,16435 6271,16940 6248,16955 6232,16986 6232,17041 6325,17359 6489,17607 6732,17778 6763,17801 6802,17817 6856,17817 6802,18228 6872,18523 7051,18709 7075,18733 7114,18748 7169,18748 7863,18911 8488,18919 9051,18771 9097,18756 9144,18748 9198,18748 9254,18213 9503,18073 9948,18337 9972,18352 9979,18383 9979,18438 10394,18383 10815,18360 11229,18360 L 11229,18438 11229,18438 C 11838,18779 12721,18934 13884,18903 13938,18903 13985,18903 14040,18903 14353,18539 14650,18166 14938,17786 14961,17755 14978,17716 14978,17662 14837,17235 14586,16901 14235,16676 14212,16660 14196,16629 14196,16575 14517,16218 14618,15651 14517,14868 14509,14813 14509,14767 14509,14712 14297,14503 14196,14192 14196,13781 14196,13727 14196,13680 14196,13626 14945,13052 15109,12376 14696,11592 Z M 13103,11918 L 13103,11918 C 13103,11864 13103,11818 13103,11763 14158,11880 14517,12314 14189,13067 14189,13098 14189,13129 14196,13160 14173,13160 14158,13160 14141,13160 14102,13246 14048,13331 13985,13432 13969,13455 13938,13471 13884,13471 13830,13471 13782,13478 13743,13502 13681,13533 13626,13572 13572,13626 13666,13991 13681,14216 13610,14286 13587,14309 13572,14348 13572,14402 13626,14402 13666,14410 13704,14433 14158,14705 14322,15263 14196,16109 14196,16164 14189,16187 14181,16195 13861,16272 13759,16552 13884,17041 13938,17041 13962,17048 13969,17064 14189,17623 13798,18081 12790,18438 12736,18438 12690,18430 12650,18407 12190,18197 11877,17848 11698,17351 L 11698,17274 11698,17274 C 10925,17491 10354,17669 9979,17817 9925,17817 9886,17801 9854,17778 9362,17336 8988,17452 8731,18127 8731,18182 8723,18205 8715,18205 8098,18306 7629,17972 7325,17196 7583,16885 7848,16823 8129,17002 8168,17025 8207,17041 8262,17041 8316,17041 8363,17033 8411,17017 8863,16854 8762,16552 8106,16109 8051,16109 8012,16094 7973,16071 7575,15807 7099,15613 6544,15488 6489,15488 6466,15488 6466,15481 6412,14658 6387,13835 6387,13005 6794,12811 7317,12710 7950,12695 8004,12695 8051,12695 8106,12695 8106,12640 8106,12594 8106,12539 8106,12485 8106,12438 8106,12384 9175,12159 10315,12105 11542,12221 11596,12229 11643,12229 11698,12229 11799,12749 11994,12889 12283,12648 12306,12625 12322,12594 12322,12539 12322,12485 12322,12438 12322,12384 L 12322,12384 C 12447,12198 12611,12050 12806,11949 12846,11926 12892,11918 12947,11918 13002,11918 13049,11918 13103,11918 Z"/></g><g style="stroke:none;fill:rgb(218,65,29)"><path d="M 13103,11918 L 13103,11918 C 13157,11918 13205,11926 13251,11934 13790,12081 14102,12462 14189,13067 14517,12314 14158,11880 13103,11763 13103,11818 13103,11864 13103,11918 Z"/></g><g style="stroke:none;fill:rgb(245,157,31)"><path d="M 13251,11934 L 13251,11934 C 13205,11926 13157,11918 13103,11918 13049,11918 13002,11918 12947,11918 12947,11973 12947,12019 12954,12074 12962,12244 12861,12299 12634,12229 13049,12594 13525,12896 14056,13129 14079,13145 14110,13152 14141,13160 14158,13160 14173,13160 14196,13160 14189,13129 14189,13098 14189,13067 14102,12462 13790,12081 13251,11934 Z"/></g><g style="stroke:none;fill:rgb(218,65,29)"><path d="M 12954,12074 L 12954,12074 C 12947,12019 12947,11973 12947,11918 12892,11918 12846,11926 12806,11949 12611,12050 12447,12198 12322,12384 12322,12438 12322,12485 12322,12539 12892,12749 13400,13020 13845,13362 13868,13385 13884,13416 13884,13471 13938,13471 13969,13455 13985,13432 14048,13331 14102,13246 14141,13160 14110,13152 14079,13145 14056,13129 13525,12896 13049,12594 12634,12229 12861,12299 12962,12244 12954,12074 Z"/></g><g style="stroke:none;fill:rgb(238,27,18)"><path d="M 12322,12539 L 12322,12539 C 12322,12594 12306,12625 12283,12648 11994,12889 11799,12749 11698,12229 11643,12229 11596,12229 11542,12221 10315,12105 9175,12159 8106,12384 8106,12438 8106,12485 8106,12539 8106,12594 8106,12640 8106,12695 8106,12749 8106,12795 8106,12850 8777,12407 9300,12532 9667,13238 L 9667,13160 9667,13160 C 10128,12477 10620,12516 11127,13277 11143,13300 11174,13315 11229,13315 12533,13052 13236,13409 13338,14394 13338,14402 13361,14402 13415,14402 13470,14402 13517,14402 13572,14402 13572,14348 13587,14309 13610,14286 13681,14216 13666,13991 13572,13626 13626,13572 13681,13533 13743,13502 13782,13478 13830,13471 13884,13471 13884,13416 13868,13385 13845,13362 13400,13020 12892,12749 12322,12539 Z"/></g><g style="stroke:none;fill:rgb(250,122,58)"><path d="M 9667,13160 L 9667,13238 9667,13238 C 9300,12532 8777,12407 8106,12850 8106,12904 8090,12943 8067,12966 7653,13377 7247,13804 6856,14247 6896,14829 7091,15256 7442,15535 7465,15558 7481,15589 7481,15644 7786,15651 7981,15760 8075,15970 8098,16008 8106,16055 8106,16109 8207,16164 8316,16203 8426,16241 8473,16257 8519,16265 8574,16265 8731,16055 8902,15861 9082,15683 9105,15659 9144,15644 9198,15644 9198,15589 9198,15543 9198,15488 9198,15232 9198,14969 9198,14712 9410,14658 9574,14573 9707,14441 9730,14417 9769,14402 9823,14402 9823,14348 9823,14301 9823,14247 9769,14247 9722,14247 9667,14239 9441,14216 9331,14060 9355,13781 9972,13253 10597,13121 11229,13393 L 11229,13315 11229,13315 C 11174,13315 11143,13300 11127,13277 10620,12516 10128,12477 9667,13160 Z M 7504,13975 L 7504,13975 C 7543,13952 7583,13936 7637,13936 7637,13882 7637,13835 7637,13781 7863,13696 8035,13548 8160,13346 8176,13323 8207,13315 8262,13315 L 8262,13238 8262,13238 C 9011,13215 9223,13812 8887,15023 8832,15023 8785,15023 8731,15023 7926,15000 7411,14736 7169,14247 7270,14146 7388,14053 7504,13975 Z"/></g><g style="stroke:none;fill:rgb(251,188,57)"><path d="M 7637,13936 L 7637,13936 C 7583,13936 7543,13952 7504,13975 7388,14053 7270,14146 7169,14247 7411,14736 7926,15000 8731,15023 8785,15023 8832,15023 8887,15023 9223,13812 9011,13215 8262,13238 L 8262,13315 8262,13315 C 8316,13315 8340,13323 8347,13339 8777,14511 8488,14759 7481,14092 7535,14092 7575,14076 7598,14053 7622,14029 7637,13991 7637,13936 Z"/></g><g style="stroke:none;fill:rgb(241,228,16)"><path d="M 7637,13781 L 7637,13781 C 7637,13835 7637,13882 7637,13936 7637,13991 7622,14029 7598,14053 7575,14076 7535,14092 7481,14092 8488,14759 8777,14511 8347,13339 8340,13323 8316,13315 8262,13315 8207,13315 8176,13323 8160,13346 8035,13548 7863,13696 7637,13781 Z"/></g><g style="stroke:none;fill:rgb(250,164,54)"><path d="M 11229,13315 L 11229,13393 11229,13393 C 10597,13121 9972,13253 9355,13781 9331,14060 9441,14216 9667,14239 9722,14247 9769,14247 9823,14247 9823,14192 9823,14146 9823,14092 9823,13991 9823,13882 9823,13781 10269,13587 10737,13525 11229,13610 11284,13618 11330,13626 11385,13626 11846,13478 11955,13688 11721,14254 11706,14301 11698,14348 11698,14402 10909,14549 10417,15007 10222,15783 10214,15791 10190,15799 10136,15799 L 10058,15799 10058,15799 C 10174,16032 10097,16241 9823,16420 10112,16660 10174,16971 10011,17367 9987,17405 9979,17452 9979,17506 10331,17669 10581,17506 10737,17033 10753,16986 10761,16940 10761,16885 10706,16885 10666,16870 10628,16847 10510,16761 10456,16622 10448,16420 10698,15799 11112,15776 11698,16342 L 11698,16265 11698,16265 C 12080,14992 12588,14596 13220,15069 13244,15093 13259,15124 13259,15178 13618,15023 13681,14806 13454,14526 13431,14495 13415,14456 13415,14402 13361,14402 13338,14402 13338,14394 13236,13409 12533,13052 11229,13315 Z"/></g><g style="stroke:none;fill:rgb(240,230,11)"><path d="M 11385,13626 L 11385,13626 C 11330,13626 11284,13618 11229,13610 10737,13525 10269,13587 9823,13781 9823,13882 9823,13991 9823,14092 9823,14146 9823,14192 9823,14247 9823,14301 9823,14348 9823,14402 10143,14596 10253,15015 10151,15644 10143,15698 10136,15745 10136,15799 10190,15799 10214,15791 10222,15783 10417,15007 10909,14549 11698,14402 11698,14348 11706,14301 11721,14254 11955,13688 11846,13478 11385,13626 Z"/></g><g style="stroke:none;fill:rgb(150,41,19)"><path d="M 9854,14542 L 9854,14542 C 9831,14503 9823,14456 9823,14402 9769,14402 9730,14417 9707,14441 9574,14573 9410,14658 9198,14712 9198,14969 9198,15232 9198,15488 9198,15543 9198,15589 9198,15644 9979,15644 10199,15279 9854,14542 Z"/></g><g style="stroke:none;fill:rgb(218,181,12)"><path d="M 9823,14402 L 9823,14402 C 9823,14456 9831,14503 9854,14542 10199,15279 9979,15644 9198,15644 9144,15644 9105,15659 9082,15683 8902,15861 8731,16055 8574,16265 8808,16443 9175,16497 9667,16428 9722,16420 9769,16420 9823,16420 10097,16241 10174,16032 10058,15799 L 10136,15799 10136,15799 C 10136,15745 10143,15698 10151,15644 10253,15015 10143,14596 9823,14402 Z"/></g><g style="stroke:none;fill:rgb(231,42,22)"><path d="M 9823,16420 L 9823,16420 C 9769,16420 9722,16420 9667,16428 9175,16497 8808,16443 8574,16265 8519,16265 8473,16257 8426,16241 8316,16203 8207,16164 8106,16109 8762,16552 8863,16854 8411,17017 8363,17033 8316,17041 8262,17041 8660,17118 8816,17429 8738,17972 8731,18026 8731,18073 8731,18127 8988,17452 9362,17336 9854,17778 9886,17801 9925,17817 9979,17817 9979,17762 9979,17716 9979,17662 9979,17607 9979,17561 9979,17506 9979,17452 9987,17405 10011,17367 10174,16971 10112,16660 9823,16420 Z"/></g><g style="stroke:none;fill:rgb(213,61,23)"><path d="M 9979,17506 L 9979,17506 C 9979,17561 9979,17607 9979,17662 9979,17716 9979,17762 9979,17817 10354,17669 10925,17491 11698,17274 L 11698,17351 11698,17351 C 11877,17848 12190,18197 12650,18407 12690,18430 12736,18438 12790,18438 13798,18081 14189,17623 13969,17064 13962,17048 13938,17041 13884,17041 13759,16552 13861,16272 14181,16195 14189,16187 14196,16164 14196,16109 14322,15263 14158,14705 13704,14433 13666,14410 13626,14402 13572,14402 13517,14402 13470,14402 13415,14402 13415,14456 13431,14495 13454,14526 13681,14806 13618,15023 13259,15178 13205,15178 13174,15194 13149,15217 12923,15520 12650,15760 12322,15954 12322,16008 12322,16055 12322,16109 12322,16164 12322,16210 12322,16265 12377,16265 12424,16272 12462,16296 12892,16482 13313,16676 13728,16885 13728,16940 13720,16986 13697,17025 13509,17452 13259,17825 12947,18127 12892,18127 12846,18119 12798,18112 12221,17964 11908,17561 11854,16885 11799,16885 11752,16885 11698,16885 L 11698,16885 C 11385,16885 11073,16885 10761,16885 10761,16940 10753,16986 10737,17033 10581,17506 10331,17669 9979,17506 Z M 13494,16249 L 13494,16249 C 13494,16257 13470,16265 13415,16265 13087,16536 12838,16482 12665,16094 12642,16055 12634,16008 12634,15954 13408,15186 13697,15279 13494,16249 Z"/></g><g style="stroke:none;fill:rgb(125,17,5)"><path d="M 13415,16265 L 13415,16265 C 13470,16265 13494,16257 13494,16249 13697,15279 13408,15186 12634,15954 12634,16008 12642,16055 12665,16094 12838,16482 13087,16536 13415,16265 Z"/></g><g style="stroke:none;fill:rgb(242,228,13)"><path d="M 10628,16847 L 10628,16847 C 10666,16870 10706,16885 10761,16885 11073,16885 11385,16885 11698,16885 11752,16885 11799,16885 11854,16885 12018,16738 12158,16575 12283,16397 12306,16358 12322,16319 12322,16265 12322,16210 12322,16164 12322,16109 12322,16055 12322,16008 12322,15954 12650,15760 12923,15520 13149,15217 13174,15194 13205,15178 13259,15178 13259,15124 13244,15093 13220,15069 12588,14596 12080,14992 11698,16265 L 11698,16342 11698,16342 C 11112,15776 10698,15799 10448,16420 10456,16622 10510,16761 10628,16847 Z"/></g><g style="stroke:none;fill:rgb(247,143,60)"><path d="M 12322,16265 L 12322,16265 C 12322,16319 12306,16358 12283,16397 12158,16575 12018,16738 11854,16885 11908,17561 12221,17964 12798,18112 12846,18119 12892,18127 12947,18127 13259,17825 13509,17452 13697,17025 13720,16986 13728,16940 13728,16885 13313,16676 12892,16482 12462,16296 12424,16272 12377,16265 12322,16265 Z M 12198,17180 L 12198,17180 C 12174,17142 12166,17095 12166,17041 13244,16614 13540,16808 13049,17631 13033,17654 13002,17662 12947,17662 12650,17801 12400,17638 12198,17180 Z"/></g><g style="stroke:none;fill:rgb(252,211,42)"><path d="M 12166,17041 L 12166,17041 C 12166,17095 12174,17142 12198,17180 12400,17638 12650,17801 12947,17662 13002,17662 13033,17654 13049,17631 13540,16808 13244,16614 12166,17041 Z"/></g><g style="stroke:none;fill:rgb(239,29,23)"><path d="M 8106,12850 L 8106,12850 C 8106,12795 8106,12749 8106,12695 8051,12695 8004,12695 7950,12695 7317,12710 6794,12811 6387,13005 6387,13835 6412,14658 6466,15481 6466,15488 6489,15488 6544,15488 7099,15613 7575,15807 7973,16071 8012,16094 8051,16109 8106,16109 8106,16055 8098,16008 8075,15970 7981,15760 7786,15651 7481,15644 7481,15589 7465,15558 7442,15535 7091,15256 6896,14829 6856,14247 7247,13804 7653,13377 8067,12966 8090,12943 8106,12904 8106,12850 Z"/></g><g style="stroke:none;fill:rgb(221,118,52)"><path d="M 8262,17041 L 8262,17041 C 8207,17041 8168,17025 8129,17002 7848,16823 7583,16885 7325,17196 7629,17972 8098,18306 8715,18205 8723,18205 8731,18182 8731,18127 8731,18073 8731,18026 8738,17972 8816,17429 8660,17118 8262,17041 Z"/></g><g style="stroke:none;fill:rgb(108,0,1)"><path d="M 10604,11918 L 10604,11918 C 10550,11918 10502,11918 10448,11926 9925,11981 9503,11926 9198,11763 9198,11709 9207,11662 9230,11624 9394,11329 9331,11065 9043,10832 8988,10832 8941,10832 8887,10824 8137,10708 7668,10871 7481,11298 7481,11352 7473,11398 7450,11437 7184,12043 6723,12462 6076,12695 6076,13680 6099,14658 6154,15636 6154,15644 6177,15644 6232,15644 6232,15589 6232,15543 6232,15488 6232,14611 6232,13727 6232,12850 6551,12392 7122,12260 7950,12462 L 7950,12384 7950,12384 C 8019,11934 8332,11724 8887,11755 8941,11763 8988,11763 9043,11763 9331,12097 9847,12175 10589,12004 10597,11996 10604,11973 10604,11918 Z"/></g></g></g></g></svg>