<?xml version="1.0" encoding="UTF-8"?>
<!DOCTYPE svg PUBLIC "-//W3C//DTD SVG 1.1//EN" "http://www.w3.org/Graphics/SVG/1.1/DTD/svg11.dtd"><svg version="1.1" viewBox="0 0 21000 29700" preserveAspectRatio="xMidYMid" fill-rule="evenodd" xmlns="http://www.w3.org/2000/svg" xmlns:xlink="http://www.w3.org/1999/xlink"><g visibility="visible" id="Default"><desc>Master slide</desc><g style="stroke:none;fill:none"><rect x="0" y="0" width="21000" height="29700"/></g></g><g visibility="visible" id="page1"><desc>Slide</desc><g><desc>Graphic</desc><g><g style="stroke:none;fill:rgb(250,151,45)"><path d="M 11966,12362 L 11966,12285 11966,12285 C 11964,12234 11959,12181 11950,12130 11820,11354 11460,10992 10873,11043 11039,11705 11404,12145 11966,12362 Z"/></g><g style="stroke:none;fill:rgb(239,51,28)"><path d="M 11966,12285 L 11966,12362 11966,12362 C 11404,12145 11039,11705 10873,11043 10873,10992 10861,10953 10834,10927 10807,10900 10768,10888 10717,10888 10717,10939 10707,10987 10684,11027 10655,11089 10612,11147 10561,11198 10570,11498 10662,11720 10834,11867 10861,11886 10873,11923 10873,11974 11767,12818 12187,12973 12129,12440 12124,12389 12122,12336 12122,12285 12071,12285 12018,12285 11966,12285 Z"/></g><g style="stroke:none;fill:rgb(222,123,4)"><path d="M 12412,15848 L 12412,15848 C 12428,15800 12435,15751 12435,15700 12384,15700 12357,15694 12357,15684 12201,14712 11759,14043 11030,13682 11030,13733 11030,13786 11030,13837 11336,14324 11518,14841 11576,15389 L 11497,15389 11497,15389 C 11627,15523 11655,15723 11583,15987 11578,16003 11549,16010 11497,16010 11446,16010 11420,16015 11420,16026 11383,16187 11253,16232 11030,16165 11030,16217 11030,16269 11030,16321 11836,16321 12296,16164 12412,15848 Z"/></g><g style="stroke:none;fill:rgb(229,140,0)"><path d="M 12435,15700 L 12435,15700 C 12435,15751 12428,15800 12412,15848 12296,16164 11836,16321 11030,16321 11030,16372 11017,16411 10990,16437 10918,16515 10825,16580 10717,16631 10717,16682 10717,16735 10717,16786 10717,16837 10705,16876 10677,16903 10651,16929 10612,16941 10561,16941 10488,17220 10529,17397 10684,17469 10707,17479 10717,17511 10717,17562 11404,17455 12043,17053 12637,16359 12658,16333 12696,16321 12747,16321 12747,16269 12747,16217 12747,16165 12798,16165 12852,16165 12903,16165 12954,16165 13008,16165 13060,16165 13111,16165 13155,16153 13193,16127 14092,15511 13841,15368 12435,15700 Z"/></g><g style="stroke:none;fill:rgb(91,41,1)"><path d="M 9858,11819 L 9858,11819 C 9856,11869 9856,11916 9854,11964 9871,11957 9885,11948 9897,11936 9924,11909 9936,11870 9936,11819 L 9858,11819 Z"/><path d="M 9689,12860 L 9689,12860 C 9574,13202 9395,13475 9155,13682 9104,13682 9051,13685 8999,13691 8509,13758 8302,13548 8374,13061 8321,13061 8293,13054 8288,13038 8247,12899 8224,12751 8219,12595 8421,12440 8616,12272 8804,12091 8830,12064 8843,12026 8843,11974 8791,11974 8747,11987 8710,12013 8435,12195 8167,12389 7906,12595 7973,13050 8117,13423 8335,13714 8362,13744 8374,13786 8374,13837 8911,13925 9267,14186 9445,14622 9460,14668 9467,14717 9467,14768 9573,14354 9936,14174 10561,14225 L 10561,14147 10561,14147 C 10509,14147 10461,14137 10421,14118 9952,13925 9709,13505 9689,12860 Z"/></g><g style="stroke:none;fill:rgb(228,116,6)"><path d="M 9155,13682 L 9155,13682 C 9155,13631 9167,13587 9194,13550 9532,13017 9362,12751 8686,12751 8635,12751 8582,12751 8530,12751 8479,12751 8426,12751 8374,12751 8374,12802 8374,12855 8374,12906 8374,12957 8374,13010 8374,13061 8302,13548 8509,13758 8999,13691 9051,13685 9104,13682 9155,13682 Z"/></g><g style="stroke:none;fill:rgb(156,118,9)"><path d="M 11030,13682 L 11030,13682 C 10978,13682 10951,13685 10951,13691 10919,13964 10790,14118 10561,14147 L 10561,14225 10561,14225 C 9936,14174 9573,14354 9467,14768 9467,14820 9455,14858 9429,14885 9402,14911 9362,14924 9311,14924 9708,15342 10238,15638 10903,15816 10997,15806 11091,15793 11186,15777 L 11186,15855 11186,15855 C 11180,15862 11176,15869 11173,15878 11276,15897 11381,15917 11489,15933 11494,15933 11496,15959 11497,16010 11549,16010 11578,16003 11583,15987 11655,15723 11627,15523 11497,15389 11446,15389 11393,15393 11341,15398 10373,15527 9852,15213 9780,14458 10456,14562 10866,14403 11006,13985 11023,13938 11030,13888 11030,13837 11030,13786 11030,13733 11030,13682 Z"/></g><g style="stroke:none;fill:rgb(158,13,6)"><path d="M 8843,16631 L 8843,16631 C 8841,16682 8839,16709 8834,16709 8215,16781 8061,17067 8374,17562 8374,17613 8363,17645 8342,17656 7912,17867 7350,17940 6660,17873 6725,17966 6792,18056 6859,18144 6880,18171 6918,18183 6969,18183 7364,18277 7731,18282 8070,18199 8117,18189 8167,18183 8219,18183 8219,18132 8219,18079 8219,18028 8426,17666 8653,17317 8898,16980 8914,16954 8948,16941 8999,16941 9051,16890 9093,16832 9123,16770 9144,16730 9155,16682 9155,16631 9104,16631 9051,16631 8999,16631 8948,16631 8895,16631 8843,16631 Z"/></g><g style="stroke:none;fill:rgb(86,56,1)"><path d="M 8820,16546 L 8820,16546 C 8836,16552 8843,16580 8843,16631 8895,16631 8948,16631 8999,16631 9051,16631 9104,16631 9155,16631 9155,16580 9155,16527 9155,16476 9155,16425 9155,16372 9155,16321 9503,16806 9973,16970 10568,16809 10616,16793 10665,16786 10717,16786 10717,16735 10717,16682 10717,16631 10825,16580 10918,16515 10990,16437 11017,16411 11030,16372 11030,16321 11030,16269 11030,16217 11030,16165 11253,16232 11383,16187 11420,16026 11420,16015 11446,16010 11497,16010 11496,15959 11494,15933 11489,15933 11381,15917 11276,15897 11173,15878 10969,16284 10609,16529 10092,16615 10041,16626 9987,16631 9936,16631 9732,16372 9537,16105 9350,15832 9324,15795 9311,15751 9311,15700 9828,15832 10359,15871 10903,15816 10238,15638 9708,15342 9311,14924 9260,14924 9227,14936 9211,14962 L 9211,14962 C 8985,15268 8655,15462 8219,15544 8186,16098 8387,16432 8820,16546 Z"/></g><g style="stroke:none;fill:rgb(242,200,15)"><path d="M 11576,15389 L 11576,15389 C 11518,14841 11336,14324 11030,13837 11030,13888 11023,13938 11006,13985 10866,14403 10456,14562 9780,14458 9852,15213 10373,15527 11341,15398 11393,15393 11446,15389 11497,15389 L 11576,15389 Z"/></g><g style="stroke:none;fill:rgb(133,57,0)"><path d="M 9155,16631 L 9155,16631 C 9155,16682 9144,16730 9123,16770 9093,16832 9051,16890 8999,16941 9492,17319 9558,17695 9194,18067 9167,18093 9155,18132 9155,18183 9467,17977 9785,17779 10108,17594 10149,17573 10197,17562 10249,17562 10300,17613 10359,17656 10421,17688 10461,17707 10509,17718 10561,17718 10561,17666 10561,17613 10561,17562 10612,17562 10665,17562 10717,17562 10717,17511 10707,17479 10684,17469 10529,17397 10488,17220 10561,16941 10612,16941 10651,16929 10677,16903 10705,16876 10717,16837 10717,16786 10665,16786 10616,16793 10568,16809 9973,16970 9503,16806 9155,16321 9155,16372 9155,16425 9155,16476 9155,16527 9155,16580 9155,16631 Z"/></g><g style="stroke:none;fill:rgb(231,49,0)"><path d="M 8999,16941 L 8999,16941 C 8948,16941 8914,16954 8898,16980 8653,17317 8426,17666 8219,18028 8219,18079 8219,18132 8219,18183 8270,18234 8312,18293 8342,18354 8363,18395 8374,18443 8374,18494 8707,18515 8934,18421 9054,18215 9070,18194 9104,18183 9155,18183 9155,18132 9167,18093 9194,18067 9558,17695 9492,17319 8999,16941 Z"/></g><g style="stroke:none;fill:rgb(246,21,3)"><path d="M 13528,17718 L 13528,17718 C 13534,17873 13534,18028 13528,18183 13528,18234 13528,18287 13528,18338 13615,18561 13760,18734 13964,18859 13985,18875 13997,18908 13997,18959 L 14074,18959 14074,18959 C 13997,18571 13969,18365 13997,18338 13995,18287 14004,18238 14020,18192 14394,17114 14229,16957 13528,17718 Z"/></g><g style="stroke:none;fill:rgb(232,144,12)"><path d="M 13528,18338 L 13528,18338 C 13476,18338 13437,18326 13411,18300 13338,18222 13272,18132 13216,18028 13165,18028 13111,18028 13060,18028 12798,18028 12540,18028 12278,18028 12227,18028 12174,18028 12122,18028 12018,18028 11915,18028 11810,18028 12324,18756 13001,19070 13841,18968 13892,18963 13945,18959 13997,18959 13997,18908 13985,18875 13964,18859 13760,18734 13615,18561 13528,18338 Z"/></g><g style="stroke:none;fill:rgb(148,10,6)"><path d="M 8999,10888 L 8999,10888 C 8999,10837 8992,10808 8976,10803 8505,10653 8047,10784 7594,11198 7812,12186 8094,12246 8444,11376 8449,11361 8477,11354 8530,11354 8530,11302 8530,11249 8530,11198 8811,11271 8964,11219 8990,11043 8995,10992 8997,10939 8999,10888 Z"/></g><g style="stroke:none;fill:rgb(139,27,9)"><path d="M 12520,11796 L 12520,11796 C 12710,11191 12640,10715 12314,10369 L 11437,10369 11437,10369 C 11615,10833 12000,11031 12591,10965 L 12591,11043 12591,11043 C 12357,11327 12206,11690 12138,12130 12128,12181 12122,12234 12122,12285 12122,12336 12124,12389 12129,12440 12187,12973 11767,12818 10873,11974 11102,12368 11349,12740 11615,13093 11641,13123 11654,13165 11654,13216 11815,13216 11971,13216 12122,13216 12174,13216 12227,13216 12278,13216 12330,13216 12364,13206 12380,13186 12654,12726 12675,12269 12435,11819 12486,11819 12515,11812 12520,11796 Z"/></g><g style="stroke:none;fill:rgb(226,117,7)"><path d="M 12591,11043 L 12591,10965 12591,10965 C 12000,11031 11615,10833 11437,10369 L 10431,10369 10431,10369 C 10472,10544 10554,10681 10677,10780 10705,10800 10717,10837 10717,10888 10768,10888 10807,10900 10834,10927 10861,10953 10873,10992 10873,11043 11460,10992 11820,11354 11950,12130 11959,12181 11964,12234 11966,12285 12018,12285 12071,12285 12122,12285 12122,12234 12128,12181 12138,12130 12206,11690 12357,11327 12591,11043 Z"/></g><g style="stroke:none;fill:rgb(225,18,4)"><path d="M 10717,10888 L 10717,10888 C 10717,10837 10705,10800 10677,10780 10554,10681 10472,10544 10431,10369 L 9936,10369 9936,10369 C 9936,10593 9936,10819 9936,11043 9885,11043 9845,11055 9819,11082 9413,11507 9034,11959 8686,12440 8686,12491 8686,12544 8686,12595 8686,12646 8686,12699 8686,12751 9362,12751 9532,13017 9194,13550 9167,13587 9155,13631 9155,13682 9395,13475 9574,13202 9689,12860 9684,12601 9715,12306 9780,11974 9806,11974 9831,11971 9854,11964 9856,11916 9856,11869 9858,11819 L 9936,11819 9936,11819 C 10284,11782 10552,11821 10740,11936 10775,11962 10820,11974 10873,11974 10873,11923 10861,11886 10834,11867 10662,11720 10570,11498 10561,11198 10612,11147 10655,11089 10684,11027 10707,10987 10717,10939 10717,10888 Z"/></g><g style="stroke:none;fill:rgb(160,8,0)"><path d="M 9936,10369 L 9625,10369 9625,10369 C 9611,11108 9402,11281 8999,10888 8997,10939 8995,10992 8990,11043 8964,11219 8811,11271 8530,11198 8530,11249 8530,11302 8530,11354 9015,11327 9132,11491 8882,11842 8855,11879 8843,11923 8843,11974 8843,12026 8830,12064 8804,12091 8616,12272 8421,12440 8219,12595 8224,12751 8247,12899 8288,13038 8293,13054 8321,13061 8374,13061 8374,13010 8374,12957 8374,12906 8374,12855 8374,12802 8374,12751 8426,12751 8479,12751 8530,12751 8582,12751 8635,12751 8686,12751 8686,12699 8686,12646 8686,12595 8686,12544 8686,12491 8686,12440 9034,11959 9413,11507 9819,11082 9845,11055 9885,11043 9936,11043 9936,10819 9936,10593 9936,10369 Z"/></g><g style="stroke:none;fill:rgb(158,13,6)"><path d="M 7750,15544 L 7750,15544 C 7698,15544 7650,15534 7610,15514 7104,15306 6579,15317 6032,15544 6032,15596 6032,15649 6032,15700 6032,15751 6037,15804 6047,15855 6087,16067 6078,16227 6019,16338 L 6019,16844 6019,16844 C 6023,16825 6026,16806 6032,16786 6214,17171 6423,17532 6657,17869 6657,17818 6658,17769 6664,17718 6690,17222 6635,16807 6500,16476 6500,16425 6502,16398 6507,16398 6976,16347 7234,16527 7281,16941 7333,16941 7380,16931 7422,16911 7927,16687 8035,16232 7750,15544 Z"/></g><g style="stroke:none;fill:rgb(112,29,0)"><path d="M 6019,15700 L 6019,16338 6019,16338 C 6078,16227 6087,16067 6047,15855 6037,15804 6032,15751 6032,15700 L 6019,15700 Z"/></g><g style="stroke:none;fill:rgb(240,53,8)"><path d="M 6032,16786 L 6032,16786 C 6026,16806 6023,16825 6019,16844 L 6019,17982 6019,17982 C 6100,18241 6249,18432 6469,18555 6490,18566 6500,18598 6500,18649 7134,19307 7747,19296 8335,18619 8362,18587 8374,18545 8374,18494 8374,18443 8363,18395 8342,18354 8312,18293 8270,18234 8219,18183 8167,18183 8117,18189 8070,18199 7731,18282 7364,18277 6969,18183 6918,18183 6880,18171 6859,18144 6792,18056 6725,17966 6660,17873 L 6660,17873 6657,17873 6657,17869 6657,17869 C 6423,17532 6214,17171 6032,16786 Z"/></g><g style="stroke:none;fill:rgb(158,13,6)"><path d="M 6367,18610 L 6367,18610 C 6405,18637 6449,18649 6500,18649 6500,18598 6490,18566 6469,18555 6249,18432 6100,18241 6019,17982 L 6019,18248 6019,18248 C 6110,18395 6225,18517 6367,18610 Z"/></g><g style="stroke:none;fill:rgb(207,14,2)"><path d="M 12122,16941 L 12122,16941 C 12324,16786 12520,16619 12708,16437 12735,16411 12747,16372 12747,16321 12696,16321 12658,16333 12637,16359 12043,17053 11404,17455 10717,17562 10665,17562 10612,17562 10561,17562 10561,17613 10561,17666 10561,17718 11107,17956 11290,18368 11107,18959 L 11186,18959 11186,18959 C 11285,19123 11384,19259 11483,19365 L 12587,19365 12587,19365 C 12603,19347 12621,19328 12637,19309 12658,19282 12696,19270 12747,19270 12747,19219 12737,19187 12715,19176 12117,18924 11711,18488 11497,17873 11659,17873 11815,17873 11966,17873 12018,17873 12071,17873 12122,17873 12122,17822 12122,17769 12122,17718 12122,17458 12122,17201 12122,16941 Z"/></g><g style="stroke:none;fill:rgb(112,29,0)"><path d="M 9155,18183 L 9155,18183 C 9104,18183 9070,18194 9054,18215 8934,18421 8707,18515 8374,18494 8374,18545 8362,18587 8335,18619 7747,19296 7134,19307 6500,18649 6449,18649 6405,18637 6367,18610 6225,18517 6110,18395 6019,18248 L 6019,18695 6019,18695 C 6341,18816 6572,19039 6711,19365 L 7262,19365 7262,19365 C 7394,19356 7515,19356 7631,19365 L 8763,19365 8763,19365 C 8710,19319 8646,19270 8570,19215 8544,19199 8530,19166 8530,19115 8739,18852 8934,18585 9116,18316 9143,18278 9155,18234 9155,18183 Z"/></g><g style="stroke:none;fill:rgb(124,34,3)"><path d="M 12278,13216 L 12278,13216 C 12227,13216 12174,13216 12122,13216 11971,13216 11815,13216 11654,13216 11654,13267 11641,13311 11615,13348 11510,13488 11315,13548 11030,13527 11030,13578 11030,13631 11030,13682 11759,14043 12201,14712 12357,15684 12357,15694 12384,15700 12435,15700 13841,15368 14092,15511 13193,16127 13155,16153 13111,16165 13060,16165 13590,16259 13808,16419 13714,16647 13693,16687 13683,16735 13684,16786 13975,16326 14236,16072 14465,16026 14517,16015 14570,16010 14621,16010 14621,15959 14614,15910 14598,15864 14555,15744 14563,15430 14621,14924 14568,14924 14524,14936 14488,14962 14087,15222 13767,15312 13528,15234 13528,15183 13516,15144 13488,15118 13093,14730 12742,14820 12435,15389 12384,15389 12357,15387 12357,15382 12284,14797 12206,14126 12122,13371 12174,13371 12213,13359 12240,13333 L 12240,13333 C 12266,13306 12278,13267 12278,13216 Z"/></g><g style="stroke:none;fill:rgb(211,100,16)"><path d="M 13997,18959 L 13997,18959 C 13945,18959 13892,18963 13841,18968 13001,19070 12324,18756 11810,18028 11915,18028 12018,18028 12122,18028 12174,18028 12227,18028 12278,18028 12278,17977 12266,17938 12240,17912 12213,17885 12174,17873 12122,17873 12071,17873 12018,17873 11966,17873 11815,17873 11659,17873 11497,17873 11711,18488 12117,18924 12715,19176 12737,19187 12747,19219 12747,19270 12798,19270 12852,19270 12903,19270 13262,19270 13623,19243 13988,19192 13993,19192 13995,19166 13997,19115 13997,19063 13997,19010 13997,18959 Z"/></g><g style="stroke:none;fill:rgb(210,13,6)"><path d="M 13684,16786 L 13684,16786 C 13684,16837 13672,16880 13645,16911 13427,17206 13283,17578 13216,18028 13272,18132 13338,18222 13411,18300 13437,18326 13476,18338 13528,18338 13528,18287 13528,18234 13528,18183 13534,18028 13534,17873 13528,17718 14229,16957 14394,17114 14020,18192 14004,18238 13995,18287 13997,18338 13969,18365 13997,18571 14074,18959 L 13997,18959 13997,18959 C 13997,19010 13997,19063 13997,19115 14494,19014 14852,18774 15070,18395 L 15070,16273 15070,16273 C 14916,16194 14765,16107 14621,16010 14570,16010 14517,16015 14465,16026 14236,16072 13975,16326 13684,16786 Z"/></g><g style="stroke:none;fill:rgb(98,17,3)"><path d="M 15070,19194 L 15070,18395 15070,18395 C 14852,18774 14494,19014 13997,19115 13995,19166 13993,19192 13988,19192 13623,19243 13262,19270 12903,19270 12903,19302 12903,19333 12903,19365 L 14048,19365 14048,19365 C 14401,19326 14742,19270 15070,19194 Z"/></g></g></g></g></svg>