<?xml version="1.0" encoding="UTF-8"?>
<!DOCTYPE svg PUBLIC "-//W3C//DTD SVG 1.1//EN" "http://www.w3.org/Graphics/SVG/1.1/DTD/svg11.dtd"><svg version="1.1" viewBox="0 0 21000 29700" preserveAspectRatio="xMidYMid" fill-rule="evenodd" xmlns="http://www.w3.org/2000/svg" xmlns:xlink="http://www.w3.org/1999/xlink"><g visibility="visible" id="Default"><desc>Master slide</desc><g style="stroke:none;fill:none"><rect x="0" y="0" width="21000" height="29700"/></g></g><g visibility="visible" id="page1"><desc>Slide</desc><g><desc>Graphic</desc><g><g style="stroke:none;fill:rgb(226,15,15)"><path d="M 12586,11955 L 12586,11955 C 12538,11955 12491,11955 12443,11955 12443,12003 12443,12048 12443,12096 12443,12144 12443,12190 12443,12237 12443,12661 12443,13084 12443,13507 12396,13507 12354,13516 12315,13535 11984,13714 11743,13987 11592,14354 11544,14354 11497,14359 11450,14368 10632,14514 10110,14368 9889,13931 9840,13931 9794,13931 9746,13931 9652,13931 9557,13931 9462,13931 9576,14289 9753,14581 9994,14812 10017,14835 10031,14871 10031,14918 10805,14585 11363,14685 11699,15222 11722,15255 11734,15294 11734,15342 11938,15403 12055,15361 12089,15215 12089,15206 12112,15201 12159,15201 12159,15153 12159,15107 12159,15059 12677,15206 13288,15229 13999,15130 14004,15130 14006,15107 14006,15059 13957,15059 13922,15047 13899,15024 13876,15001 13864,14966 13864,14918 13815,14918 13769,14924 13721,14932 L 13721,14932 C 12842,15093 12321,14899 12159,14354 13045,13959 13216,13169 12671,11983 12661,11964 12633,11955 12586,11955 Z"/></g><g style="stroke:none;fill:rgb(247,111,47)"><path d="M 12159,10826 L 12159,10826 C 12112,10826 12068,10819 12025,10805 11221,10588 10414,10595 9604,10826 9604,10874 9604,10920 9604,10967 9618,11498 9429,11828 9037,11955 8988,11955 8946,11964 8909,11983 8851,12011 8800,12048 8753,12096 8753,12613 8753,13131 8753,13648 8753,13696 8753,13742 8753,13789 9067,13886 9443,13911 9878,13860 9553,13694 9272,13483 9037,13225 9462,12895 9741,12426 9874,11814 9883,11766 9889,11720 9889,11673 9840,11673 9815,11667 9810,11659 9768,11481 9746,11297 9746,11108 10456,11108 11166,11108 11876,11108 11924,11108 11970,11108 12018,11108 12018,11673 11994,12235 11947,12795 11947,12800 11924,12802 11876,12802 11876,12849 11871,12872 11862,12872 11512,12937 11232,13056 11024,13225 11024,13273 11037,13310 11060,13338 11343,13705 11331,13996 11024,14213 L 11024,14213 C 10976,14213 10930,14207 10882,14199 10514,14126 10182,14015 9889,13867 L 9889,13931 9889,13931 C 10110,14368 10632,14514 11450,14368 11497,14359 11544,14354 11592,14354 11743,13987 11984,13714 12315,13535 12354,13516 12396,13507 12443,13507 12443,13084 12443,12661 12443,12237 12443,12190 12443,12144 12443,12096 L 12373,12096 12373,12096 C 12438,11481 12368,11057 12159,10826 Z"/></g><g style="stroke:none;fill:rgb(254,181,66)"><path d="M 12018,11108 L 12018,11108 C 11970,11108 11924,11108 11876,11108 11166,11108 10456,11108 9746,11108 9746,11297 9768,11481 9810,11659 9815,11667 9840,11673 9889,11673 10300,11198 10870,11096 11599,11369 11641,11384 11686,11391 11734,11391 11862,11735 11911,12158 11883,12661 11878,12708 11876,12754 11876,12802 11924,12802 11947,12800 11947,12795 11994,12235 12018,11673 12018,11108 Z"/></g><g style="stroke:none;fill:rgb(242,219,17)"><path d="M 11876,12802 L 11876,12802 C 11876,12754 11878,12708 11883,12661 11911,12158 11862,11735 11734,11391 11686,11391 11641,11384 11599,11369 10870,11096 10300,11198 9889,11673 9889,11720 9883,11766 9874,11814 9741,12426 9462,12895 9037,13225 9272,13483 9553,13694 9878,13860 9881,13860 9885,13860 9889,13860 L 9889,13867 9889,13867 C 10182,14015 10514,14126 10882,14199 10930,14207 10976,14213 11024,14213 11331,13996 11343,13705 11060,13338 11037,13310 11024,13273 11024,13225 11232,13056 11512,12937 11862,12872 11871,12872 11876,12849 11876,12802 Z"/></g><g style="stroke:none;fill:rgb(241,151,10)"><path d="M 13437,15342 L 13437,15342 C 13390,15342 13344,15343 13295,15349 12818,15396 12438,15347 12159,15201 12112,15201 12089,15206 12089,15215 12055,15361 11938,15403 11734,15342 11734,15389 11727,15433 11713,15476 11585,15809 11356,16047 11024,16188 11009,16578 11051,16910 11144,17183 11158,17225 11166,17270 11166,17317 11166,17506 11188,17689 11230,17867 11235,17876 11260,17882 11308,17882 11308,17834 11313,17790 11322,17748 11399,17418 11393,17134 11308,16894 11308,16846 11308,16800 11308,16753 11308,16564 11308,16377 11308,16188 11838,16846 12254,16843 12557,16174 12577,16137 12586,16095 12586,16047 12301,15954 12136,15765 12089,15483 L 12159,15483 12159,15483 C 12466,15604 12847,15654 13295,15631 13344,15626 13390,15624 13437,15624 13437,15576 13437,15530 13437,15483 13437,15435 13437,15389 13437,15342 Z"/></g><g style="stroke:none;fill:rgb(238,57,17)"><path d="M 13295,15349 L 13295,15349 C 13344,15343 13390,15342 13437,15342 13811,15582 14231,15791 14694,15970 14708,15975 14715,16000 14715,16047 14772,17091 14547,17855 14041,18340 14018,18363 14006,18398 14006,18446 14053,18446 14089,18458 14112,18481 14134,18504 14147,18540 14147,18587 14863,18215 15104,17368 14871,16047 14863,16000 14857,15954 14857,15906 14857,15858 14845,15821 14822,15793 14594,15506 14323,15262 14006,15059 14006,15107 14004,15130 13999,15130 13288,15229 12677,15206 12159,15059 12159,15107 12159,15153 12159,15201 12438,15347 12818,15396 13295,15349 Z"/></g><g style="stroke:none;fill:rgb(251,165,55)"><path d="M 13437,15342 L 13437,15342 C 13437,15389 13437,15435 13437,15483 13437,15530 13437,15576 13437,15624 13437,15671 13430,15716 13416,15758 13269,16209 13276,16682 13437,17176 13437,17224 13425,17262 13402,17296 13237,17541 13060,17548 12870,17317 12870,17270 12861,17241 12842,17232 12449,17040 11938,16927 11308,16894 11393,17134 11399,17418 11322,17748 11313,17790 11308,17834 11308,17882 11336,18042 11430,18134 11592,18157 11639,18162 11686,18164 11734,18164 11734,18116 11725,18088 11706,18079 11564,18014 11527,17853 11592,17599 12449,17684 12875,17966 12870,18446 12870,18494 12870,18540 12870,18587 13353,18723 13695,18688 13899,18481 13922,18458 13957,18446 14006,18446 14006,18398 14018,18363 14041,18340 14547,17855 14772,17091 14715,16047 14715,16000 14708,15975 14694,15970 14231,15791 13811,15582 13437,15342 Z"/></g><g style="stroke:none;fill:rgb(238,240,5)"><path d="M 12159,15483 L 12089,15483 12089,15483 C 12136,15765 12301,15954 12586,16047 12586,16095 12577,16137 12557,16174 12254,16843 11838,16846 11308,16188 11308,16377 11308,16564 11308,16753 11308,16800 11308,16846 11308,16894 11938,16927 12449,17040 12842,17232 12861,17241 12870,17270 12870,17317 13060,17548 13237,17541 13402,17296 13425,17262 13437,17224 13437,17176 13276,16682 13269,16209 13416,15758 13430,15716 13437,15671 13437,15624 13390,15624 13344,15626 13295,15631 12847,15654 12466,15604 12159,15483 Z"/></g><g style="stroke:none;fill:rgb(237,17,17)"><path d="M 8909,11983 L 8909,11983 C 8946,11964 8988,11955 9037,11955 9037,11907 9024,11876 9001,11856 8731,11645 8505,11583 8326,11673 8483,12458 8532,13352 8475,14354 8470,14401 8468,14447 8468,14495 8761,14504 8860,14313 8767,13923 8758,13881 8753,13837 8753,13789 8753,13742 8753,13696 8753,13648 8753,13131 8753,12613 8753,12096 8800,12048 8851,12011 8909,11983 Z"/></g><g style="stroke:none;fill:rgb(205,62,14)"><path d="M 8468,14495 L 8468,14495 C 8468,14543 8456,14578 8433,14601 8362,14671 8279,14730 8184,14777 8184,14871 8184,14966 8184,15059 8184,15107 8184,15153 8184,15201 8233,15201 8279,15201 8326,15201 8326,15153 8326,15107 8326,15059 8326,15012 8326,14966 8326,14918 9212,14613 9682,14707 9739,15201 9745,15248 9746,15294 9746,15342 9996,15403 10096,15308 10045,15059 10036,15012 10031,14966 10031,14918 10031,14871 10017,14835 9994,14812 9753,14581 9576,14289 9462,13931 9557,13931 9652,13931 9746,13931 9794,13931 9840,13931 9889,13931 L 9889,13931 9889,13867 9889,13860 9889,13860 C 9885,13860 9881,13860 9878,13860 9443,13911 9067,13886 8753,13789 8753,13837 8758,13881 8767,13923 8860,14313 8761,14504 8468,14495 Z"/></g><g style="stroke:none;fill:rgb(247,162,60)"><path d="M 8298,15328 L 8298,15328 C 8317,15290 8326,15248 8326,15201 8279,15201 8233,15201 8184,15201 8184,15248 8175,15290 8156,15328 7806,16052 7153,16479 6197,16612 6197,16846 6197,17083 6197,17317 6197,17365 6197,17411 6197,17458 6291,17506 6388,17545 6488,17578 6530,17592 6575,17599 6623,17599 6623,17552 6616,17508 6602,17465 6568,17367 6529,17270 6481,17176 6623,17083 6770,16998 6921,16922 6958,16903 7001,16894 7048,16894 7048,16846 7048,16800 7048,16753 7594,16400 8009,15925 8298,15328 Z"/></g><g style="stroke:none;fill:rgb(240,217,14)"><path d="M 8326,15201 L 8326,15201 C 8326,15248 8317,15290 8298,15328 8009,15925 7594,16400 7048,16753 7048,16800 7048,16846 7048,16894 7048,16941 7036,16977 7013,17000 6942,17070 6859,17128 6765,17176 7281,17647 7980,17628 8866,17120 8886,17111 8895,17083 8895,17035 8895,16987 8895,16941 8895,16894 8895,16377 8895,15858 8895,15342 9130,15342 9369,15342 9604,15342 9652,15342 9699,15342 9746,15342 9746,15294 9745,15248 9739,15201 9682,14707 9212,14613 8326,14918 8326,14966 8326,15012 8326,15059 8326,15107 8326,15153 8326,15201 Z"/></g><g style="stroke:none;fill:rgb(212,77,43)"><path d="M 8156,15328 L 8156,15328 C 8175,15290 8184,15248 8184,15201 8137,15201 8107,15209 8092,15229 7979,15412 7821,15544 7617,15624 7617,15671 7604,15701 7581,15716 7118,16017 6609,16268 6055,16471 6055,16800 6055,17128 6055,17458 6055,17506 6055,17552 6055,17599 6103,17599 6149,17599 6197,17599 6197,17552 6197,17506 6197,17458 6197,17411 6197,17365 6197,17317 6197,17083 6197,16846 6197,16612 7153,16479 7806,16052 8156,15328 Z"/></g><g style="stroke:none;fill:rgb(247,178,39)"><path d="M 6765,17176 L 6765,17176 C 6859,17128 6942,17070 7013,17000 7036,16977 7048,16941 7048,16894 7001,16894 6958,16903 6921,16922 6770,16998 6623,17083 6481,17176 6529,17270 6568,17367 6602,17465 6616,17508 6623,17552 6623,17599 6983,18319 7550,18672 8326,18658 L 8326,18728 8326,18728 C 8904,18635 9439,18270 9931,17635 9950,17612 9982,17599 10031,17599 10031,17552 10039,17509 10059,17472 10158,17252 10149,16917 10031,16471 9982,16471 9950,16483 9931,16506 9595,16910 9250,17086 8895,17035 8895,17083 8886,17111 8866,17120 7980,17628 7281,17647 6765,17176 Z"/></g><g style="stroke:none;fill:rgb(144,13,5)"><path d="M 10045,15059 L 10045,15059 C 10096,15308 9996,15403 9746,15342 9746,15389 9738,15417 9718,15426 9641,15463 9557,15483 9462,15483 9462,15530 9462,15576 9462,15624 9866,15544 10280,15610 10712,15821 10731,15830 10740,15858 10740,15906 11189,15883 11492,15703 11648,15370 11657,15350 11686,15342 11734,15342 11734,15294 11722,15255 11699,15222 11363,14685 10805,14585 10031,14918 10031,14966 10036,15012 10045,15059 Z"/></g><g style="stroke:none;fill:rgb(238,79,15)"><path d="M 9718,15426 L 9718,15426 C 9738,15417 9746,15389 9746,15342 9699,15342 9652,15342 9604,15342 9369,15342 9130,15342 8895,15342 8895,15858 8895,16377 8895,16894 8895,16941 8895,16987 8895,17035 9250,17086 9595,16910 9931,16506 9950,16483 9982,16471 10031,16471 L 10031,16400 10031,16400 C 9505,16592 9173,16569 9037,16329 9130,16095 9242,15869 9370,15652 9385,15633 9415,15624 9462,15624 9462,15576 9462,15530 9462,15483 9557,15483 9641,15463 9718,15426 Z"/></g><g style="stroke:none;fill:rgb(215,21,12)"><path d="M 10031,16400 L 10031,16471 10031,16471 C 10149,16917 10158,17252 10059,17472 10039,17509 10031,17552 10031,17599 10451,17407 10735,17312 10882,17317 10930,17317 10976,17317 11024,17317 11072,17317 11118,17317 11166,17317 11166,17270 11158,17225 11144,17183 11051,16910 11009,16578 11024,16188 11356,16047 11585,15809 11713,15476 11727,15433 11734,15389 11734,15342 11686,15342 11657,15350 11648,15370 11492,15703 11189,15883 10740,15906 10740,15858 10731,15830 10712,15821 10280,15610 9866,15544 9462,15624 9415,15624 9385,15633 9370,15652 9242,15869 9130,16095 9037,16329 9173,16569 9505,16592 10031,16400 Z"/></g><g style="stroke:none;fill:rgb(199,83,29)"><path d="M 11166,17317 L 11166,17317 C 11118,17317 11072,17317 11024,17317 11076,18065 11400,18557 11996,18792 12011,18797 12018,18822 12018,18869 12793,18935 13458,18896 14013,18749 14055,18735 14099,18728 14147,18728 14147,18681 14147,18635 14147,18587 14147,18540 14134,18504 14112,18481 14089,18458 14053,18446 14006,18446 13957,18446 13922,18458 13899,18481 13695,18688 13353,18723 12870,18587 12821,18587 12775,18589 12728,18594 12194,18651 11862,18508 11734,18164 11686,18164 11639,18162 11592,18157 11430,18134 11336,18042 11308,17882 11260,17882 11235,17876 11230,17867 11188,17689 11166,17506 11166,17317 Z"/></g><g style="stroke:none;fill:rgb(248,212,30)"><path d="M 11592,17599 L 11592,17599 C 11527,17853 11564,18014 11706,18079 11725,18088 11734,18116 11734,18164 11862,18508 12194,18651 12728,18594 12775,18589 12821,18587 12870,18587 12870,18540 12870,18494 12870,18446 12875,17966 12449,17684 11592,17599 Z"/></g><g style="stroke:none;fill:rgb(216,33,15)"><path d="M 10031,17599 L 10031,17599 C 9982,17599 9950,17612 9931,17635 9439,18270 8904,18635 8326,18728 8279,18728 8233,18728 8184,18728 7994,18728 7806,18728 7617,18728 7617,18776 7617,18822 7617,18869 8161,19033 8588,19086 8895,19025 8942,19016 8988,19010 9037,19010 9187,18737 9385,18515 9625,18340 9659,18317 9699,18305 9746,18305 9794,18116 9859,17938 9945,17769 9954,17749 9982,17740 10031,17740 10031,17693 10031,17647 10031,17599 Z"/></g><g style="stroke:none;fill:rgb(233,104,32)"><path d="M 8184,18728 L 8184,18728 C 8233,18728 8279,18728 8326,18728 L 8326,18658 8326,18658 C 7550,18672 6983,18319 6623,17599 6575,17599 6530,17592 6488,17578 6388,17545 6291,17506 6197,17458 6197,17506 6197,17552 6197,17599 6575,18070 7008,18481 7496,18834 7529,18857 7569,18869 7617,18869 7617,18822 7617,18776 7617,18728 7806,18728 7994,18728 8184,18728 Z"/></g><g style="stroke:none;fill:rgb(230,27,20)"><path d="M 12323,10650 L 12323,10650 C 12240,10590 12190,10496 12170,10369 L 9727,10369 9727,10369 C 9725,10376 9722,10383 9718,10389 9689,10445 9652,10496 9604,10544 9604,10592 9604,10637 9604,10685 9604,10733 9604,10778 9604,10826 10414,10595 11221,10588 12025,10805 12068,10819 12112,10826 12159,10826 12368,11057 12438,11481 12373,12096 L 12443,12096 12443,12096 C 12443,12048 12443,12003 12443,11955 12491,11955 12538,11955 12586,11955 12586,11907 12593,11863 12607,11821 12715,11473 12661,11094 12443,10685 12396,10685 12357,10673 12323,10650 Z"/></g><g style="stroke:none;fill:rgb(191,13,12)"><path d="M 9718,10389 L 9718,10389 C 9722,10383 9725,10376 9727,10369 L 9453,10369 9453,10369 C 9452,10378 9450,10387 9448,10396 9357,10771 9315,11198 9320,11673 9272,11673 9234,11660 9199,11638 8858,11426 8568,11391 8326,11532 8279,11532 8256,11533 8256,11539 8179,12366 8156,13400 8184,14636 8137,14636 8107,14627 8092,14608 7680,13945 7333,14001 7048,14777 7011,15243 7197,15502 7610,15553 7615,15553 7617,15576 7617,15624 7821,15544 7979,15412 8092,15229 8107,15209 8137,15201 8184,15201 8184,15153 8184,15107 8184,15059 8184,14966 8184,14871 8184,14777 8279,14730 8362,14671 8433,14601 8456,14578 8468,14543 8468,14495 8468,14447 8470,14401 8475,14354 8532,13352 8483,12458 8326,11673 8505,11583 8731,11645 9001,11856 9024,11876 9037,11907 9037,11955 9429,11828 9618,11498 9604,10967 9604,10920 9604,10874 9604,10826 L 9604,10826 C 9604,10778 9604,10733 9604,10685 9604,10637 9604,10592 9604,10544 9652,10496 9689,10445 9718,10389 Z"/></g><g style="stroke:none;fill:rgb(116,5,3)"><path d="M 9453,10369 L 9301,10369 9301,10369 C 9299,10376 9295,10383 9292,10389 9013,10995 8549,11424 7901,11673 7901,11720 7903,11766 7908,11814 7936,12138 7887,12562 7759,13084 7710,13084 7666,13091 7624,13105 7241,13232 7097,13601 7190,14213 7143,14213 7118,14218 7113,14227 7050,14481 6983,14712 6907,14918 6859,14918 6823,14931 6800,14954 6446,15306 6184,15670 6019,16045 L 6019,17740 6019,17740 C 6021,17735 6025,17732 6026,17726 6046,17689 6055,17647 6055,17599 6055,17552 6055,17506 6055,17458 6055,17128 6055,16800 6055,16471 6609,16268 7118,16017 7581,15716 7604,15701 7617,15671 7617,15624 7617,15576 7615,15553 7610,15553 7197,15502 7011,15243 7048,14777 7333,14001 7680,13945 8092,14608 8107,14627 8137,14636 8184,14636 8156,13400 8179,12366 8256,11539 8256,11533 8279,11532 8326,11532 8568,11391 8858,11426 9199,11638 9234,11660 9272,11673 9320,11673 9315,11198 9357,10771 9448,10396 9450,10387 9452,10378 9453,10369 Z"/></g><g style="stroke:none;fill:rgb(133,7,5)"><path d="M 10031,17882 L 10031,17882 C 10031,17834 10031,17788 10031,17740 9982,17740 9954,17749 9945,17769 9859,17938 9794,18116 9746,18305 9699,18305 9659,18317 9625,18340 9385,18515 9187,18737 9037,19010 8988,19010 8942,19016 8895,19025 8588,19086 8161,19033 7617,18869 7569,18869 7529,18857 7496,18834 7008,18481 6575,18070 6197,17599 6149,17599 6103,17599 6055,17599 6055,17647 6046,17689 6026,17726 6025,17732 6021,17735 6019,17740 L 6019,18003 6019,18003 C 6319,18337 6649,18638 7013,18912 7036,18931 7048,18963 7048,19010 7505,19051 7896,19159 8217,19330 L 8867,19330 8867,19330 C 9476,19115 9858,18677 10016,18016 10024,17973 10031,17929 10031,17882 Z"/></g><g style="stroke:none;fill:rgb(121,1,2)"><path d="M 12443,10685 L 12443,10685 C 12661,11094 12715,11473 12607,11821 12593,11863 12586,11907 12586,11955 12633,11955 12661,11964 12671,11983 13216,13169 13045,13959 12159,14354 12321,14899 12842,15093 13721,14932 13769,14924 13815,14918 13864,14918 L 13934,14918 13934,14918 C 13887,14825 13815,14730 13721,14636 13674,14636 13627,14641 13579,14650 13077,14726 12699,14721 12443,14636 12443,14588 12456,14550 12479,14516 12649,14271 12921,14123 13295,14072 13295,14024 13295,13978 13295,13931 13330,13304 13565,12881 14006,12661 14006,12613 13997,12571 13976,12534 13588,11800 13077,11184 12443,10685 Z"/></g><g style="stroke:none;fill:rgb(126,9,5)"><path d="M 11024,17317 L 11024,17317 C 10976,17317 10930,17317 10882,17317 10735,17312 10451,17407 10031,17599 10031,17647 10031,17693 10031,17740 10031,17788 10031,17834 10031,17882 10528,17825 10905,18084 11166,18658 L 11166,18587 11166,18587 C 11521,18658 11776,18836 11932,19123 11941,19143 11970,19152 12018,19152 12833,19208 13535,19139 14126,18947 14140,18942 14147,18917 14147,18869 14147,18822 14147,18776 14147,18728 14099,18728 14055,18735 14013,18749 13458,18896 12793,18935 12018,18869 12018,18822 12011,18797 11996,18792 11400,18557 11076,18065 11024,17317 Z"/></g><g style="stroke:none;fill:rgb(107,43,1)"><path d="M 13899,15024 L 13899,15024 C 13922,15047 13957,15059 14006,15059 14323,15262 14594,15506 14822,15793 14845,15821 14857,15858 14857,15906 14905,15954 14956,15991 15014,16019 15021,16022 15028,16026 15035,16030 L 15035,15520 15035,15520 C 14834,14992 14396,14698 13721,14636 13815,14730 13887,14825 13934,14918 L 13864,14918 13864,14918 C 13864,14966 13876,15001 13899,15024 Z"/></g><g style="stroke:none;fill:rgb(154,2,6)"><path d="M 15035,16030 L 15035,16030 C 15028,16026 15021,16022 15014,16019 14956,15991 14905,15954 14857,15906 14857,15954 14863,16000 14871,16047 15104,17368 14863,18215 14147,18587 14147,18635 14147,18681 14147,18728 14147,18776 14147,18822 14147,18869 14582,18850 14877,18695 15035,18404 L 15035,16030 Z"/></g></g></g></g></svg>