<?xml version="1.0" encoding="UTF-8"?>
<!DOCTYPE svg PUBLIC "-//W3C//DTD SVG 1.1//EN" "http://www.w3.org/Graphics/SVG/1.1/DTD/svg11.dtd"><svg version="1.1" viewBox="0 0 21000 29700" preserveAspectRatio="xMidYMid" fill-rule="evenodd" xmlns="http://www.w3.org/2000/svg" xmlns:xlink="http://www.w3.org/1999/xlink"><g visibility="visible" id="Default"><desc>Master slide</desc><g style="stroke:none;fill:none"><rect x="0" y="0" width="21000" height="29700"/></g></g><g visibility="visible" id="page1"><desc>Slide</desc><g><desc>Graphic</desc><g><g style="stroke:none;fill:rgb(255,0,0)"><path d="M 11925,12218 L 11925,12218 C 12037,12659 11983,13082 11768,13488 L 11768,13488 11768,13484 11319,14308 12160,14308 12399,13871 12399,13867 12399,13867 C 12715,13276 12790,12661 12627,12019 12464,11361 12104,10865 11547,10528 L 11550,10528 11550,10528 C 11212,10318 10852,10209 10475,10200 L 10475,10200 10320,10193 10320,10967 10320,10967 C 10343,10971 10368,10973 10395,10973 10673,10971 10936,11045 11186,11198 L 11189,11198 11189,11198 C 11568,11429 11813,11768 11925,12218 Z"/></g><g style="stroke:none;fill:rgb(0,0,255)"><path d="M 12160,14308 L 12160,14308 11740,15081 12615,15081 12615,15081 C 12620,15081 12624,15081 12627,15081 13064,15081 13436,15245 13745,15573 14012,15855 14162,16188 14200,16575 L 14196,16559 14196,16559 C 14200,16624 14202,16689 14203,16754 14203,17042 14142,17305 14024,17543 14007,17562 13993,17585 13981,17608 13961,17645 13940,17682 13917,17719 L 14481,18215 14481,18215 C 14512,18171 14541,18125 14567,18077 14581,18061 14593,18042 14606,18023 14820,17645 14929,17222 14929,16754 14929,16673 14927,16592 14923,16513 14922,16507 14922,16502 14920,16497 14869,15929 14648,15439 14260,15026 13809,14548 13264,14308 12627,14308 12624,14308 12620,14308 12615,14308 L 12160,14308 Z"/></g><g style="stroke:none;fill:rgb(255,0,255)"><path d="M 11740,15081 L 11740,15081 12160,14308 11319,14308 10903,15081 11740,15081 Z"/></g><g style="stroke:none;fill:rgb(0,255,0)"><path d="M 9442,11295 L 9442,11295 C 9484,11262 9528,11232 9575,11205 9581,11202 9586,11198 9591,11195 9823,11048 10067,10973 10320,10967 L 10320,10193 10320,10193 C 9944,10195 9582,10306 9236,10523 9160,10563 9087,10611 9017,10664 8580,10996 8289,11445 8145,12013 7988,12639 8055,13234 8345,13800 8357,13839 8377,13878 8406,13918 L 8406,13918 8619,14308 9460,14308 9023,13507 9023,13507 C 9019,13498 9016,13491 9012,13484 8791,13082 8736,12659 8847,12213 8945,11826 9144,11521 9442,11295 Z"/></g><g style="stroke:none;fill:rgb(0,0,255)"><path d="M 8619,14308 L 8145,14308 8145,14308 C 7511,14308 6970,14546 6521,15024 L 6523,15026 6523,15026 C 6070,15500 5845,16075 5843,16754 5845,17187 5937,17578 6120,17931 L 6749,17541 6749,17541 C 6629,17305 6568,17042 6570,16754 6568,16291 6723,15895 7030,15573 L 7034,15573 7034,15573 C 7341,15245 7711,15081 8145,15081 L 8145,15081 9035,15081 8619,14308 Z"/><path d="M 10903,15081 L 10903,15081 11319,14308 9460,14308 9878,15081 10903,15081 Z"/></g><g style="stroke:none;fill:rgb(0,255,255)"><path d="M 9878,15081 L 9878,15081 9460,14308 8619,14308 9035,15081 9878,15081 Z"/></g><g style="stroke:none;fill:rgb(0,255,0)"><path d="M 9878,15081 L 9878,15081 9035,15081 9969,16797 10390,16021 9878,15081 Z"/></g><g style="stroke:none;fill:rgb(255,0,0)"><path d="M 10390,16021 L 10390,16021 10810,16797 11740,15081 10903,15081 10390,16021 Z"/></g><g style="stroke:none;fill:rgb(255,255,0)"><path d="M 10810,16797 L 10810,16797 10390,16021 9969,16797 10390,17569 10810,16797 Z"/></g><g style="stroke:none;fill:rgb(0,255,0)"><path d="M 10390,17569 L 10622,17998 10622,17998 C 10940,18584 11405,18963 12018,19137 12632,19310 13215,19229 13766,18892 L 13770,18892 13770,18892 C 14061,18711 14299,18485 14481,18215 L 13917,17719 13917,17719 C 13788,17922 13616,18090 13401,18222 L 13403,18222 13403,18222 C 13025,18453 12627,18508 12207,18389 11786,18271 11468,18012 11252,17612 L 11252,17612 10810,16797 10390,17569 Z"/></g><g style="stroke:none;fill:rgb(255,0,0)"><path d="M 9735,18569 L 9735,18569 C 9902,18402 10041,18211 10153,18001 10232,17857 10310,17712 10390,17569 L 10390,17569 9969,16797 9527,17612 9527,17612 C 9305,18009 8984,18268 8563,18389 L 8567,18389 8567,18389 C 8199,18494 7853,18467 7527,18310 L 7358,18217 7358,18217 C 7105,18053 6911,17846 6782,17596 6771,17576 6761,17557 6749,17541 L 6120,17931 6120,17931 C 6207,18097 6310,18252 6431,18395 6596,18591 6787,18755 7004,18889 7214,19021 7444,19116 7687,19178 7811,19208 7937,19224 8066,19227 8199,19233 8329,19226 8457,19204 8714,19164 8959,19084 9190,18966 9394,18862 9575,18730 9735,18569 Z"/></g></g></g></g></svg>