<?xml version="1.0" encoding="UTF-8"?>
<!DOCTYPE svg PUBLIC "-//W3C//DTD SVG 1.1//EN" "http://www.w3.org/Graphics/SVG/1.1/DTD/svg11.dtd"><svg version="1.1" viewBox="0 0 21000 29700" preserveAspectRatio="xMidYMid" fill-rule="evenodd" xmlns="http://www.w3.org/2000/svg" xmlns:xlink="http://www.w3.org/1999/xlink"><g visibility="visible" id="Default"><desc>Master slide</desc><g style="stroke:none;fill:none"><rect x="0" y="0" width="21000" height="29700"/></g></g><g visibility="visible" id="page1"><desc>Slide</desc><g><desc>Graphic</desc><g><g style="stroke:none;fill:rgb(119,119,119)"><path d="M 6805,10324 L 6805,10324 C 6744,10276 6679,10242 6606,10221 6551,10205 6494,10197 6436,10197 6125,10297 6103,10458 6363,10676 6431,10590 6468,10549 6477,10551 6482,10553 6507,10636 6547,10803 6553,10826 6560,10846 6568,10865 6684,10849 6737,10890 6728,10983 6793,10996 6872,10992 6970,10969 6981,10888 6982,10807 6975,10724 6972,10683 6967,10641 6961,10600 6949,10532 6924,10468 6886,10413 6863,10380 6837,10350 6805,10324 Z"/></g><g style="stroke:none;fill:rgb(187,187,187)"><path d="M 6728,10983 L 6728,10983 C 6737,10890 6684,10849 6568,10865 6535,10870 6494,10879 6448,10895 6127,10997 5990,10966 6036,10802 5971,10800 5906,10789 5843,10772 5843,10937 5901,11080 6017,11198 6133,11315 6324,11352 6591,11308 6592,11306 6592,11306 6594,11306 6592,11306 6592,11306 6591,11306 6673,11165 6719,11057 6728,10983 Z"/></g><g style="stroke:none;fill:rgb(102,102,102)"><path d="M 6954,11022 L 6954,11022 C 6959,11004 6965,10987 6970,10969 6872,10992 6793,10996 6728,10983 6719,11057 6673,11165 6591,11306 6601,11299 6622,11285 6652,11265 6714,11225 6764,11200 6801,11191 6839,11183 6872,11160 6902,11121 6924,11091 6942,11057 6954,11022 Z"/></g><g style="stroke:none;fill:rgb(187,187,187)"><path d="M 6111,10696 L 6111,10696 C 6124,10696 6136,10697 6152,10701 6283,10729 6358,10752 6373,10770 6389,10786 6393,10773 6384,10733 6379,10712 6372,10692 6363,10676 6059,10546 5941,10510 6006,10569 6070,10627 6106,10669 6111,10696 Z"/></g><g style="stroke:none;fill:rgb(102,102,102)"><path d="M 6152,10701 L 6152,10701 C 6136,10697 6124,10696 6111,10696 6125,10764 6117,10800 6084,10802 6068,10802 6052,10802 6036,10802 5990,10966 6127,10997 6448,10895 6494,10879 6535,10870 6568,10865 6560,10846 6553,10826 6547,10803 6507,10636 6482,10553 6477,10551 6468,10549 6431,10590 6363,10676 6372,10692 6379,10712 6384,10733 6393,10773 6389,10786 6373,10770 6358,10752 6283,10729 6152,10701 Z"/></g><g style="stroke:none;fill:rgb(255,255,255)"><path d="M 6036,10802 L 6036,10802 C 6052,10802 6068,10802 6084,10802 6117,10800 6125,10764 6111,10696 6106,10669 6070,10627 6006,10569 5941,10510 6059,10546 6363,10676 6103,10458 6125,10297 6436,10197 6273,10195 6133,10251 6017,10364 5901,10477 5843,10613 5843,10772 5906,10789 5971,10800 6036,10802 Z"/><path d="M 9100,10757 L 9100,10757 C 9100,10643 9058,10544 8977,10463 8896,10382 8798,10341 8682,10341 8567,10341 8469,10382 8387,10463 8306,10544 8266,10643 8266,10757 8266,10872 8306,10969 8387,11050 8469,11131 8567,11172 8682,11172 8798,11172 8896,11131 8977,11050 9058,10969 9100,10872 9100,10757 Z M 8773,10475 L 8773,10475 C 8810,10486 8844,10503 8874,10526 8889,10540 8903,10556 8913,10572 8933,10600 8945,10632 8950,10667 8952,10689 8956,10710 8958,10731 8961,10773 8959,10816 8954,10856 8952,10865 8949,10876 8947,10884 8942,10902 8933,10918 8922,10934 8906,10953 8889,10964 8870,10969 8851,10974 8826,10987 8796,11008 8780,11017 8771,11024 8766,11029 8633,11052 8538,11033 8480,10973 8422,10913 8393,10840 8393,10754 8425,10763 8457,10768 8491,10770 8498,10770 8505,10770 8514,10770 8529,10770 8535,10752 8528,10717 8524,10705 8507,10682 8475,10652 8441,10622 8501,10641 8652,10706 8522,10595 8535,10514 8689,10463 8717,10463 8747,10466 8773,10475 Z"/></g><g style="stroke:none;fill:rgb(119,119,119)"><path d="M 8874,10526 L 8874,10526 C 8844,10503 8810,10486 8773,10475 8747,10466 8717,10463 8689,10463 8535,10514 8522,10595 8652,10706 8686,10662 8703,10641 8709,10643 8710,10645 8723,10687 8743,10772 8747,10784 8750,10794 8755,10803 8812,10794 8838,10816 8833,10863 8865,10870 8906,10869 8954,10856 8959,10816 8961,10773 8958,10731 8956,10710 8952,10689 8950,10667 8945,10632 8933,10600 8913,10572 8903,10556 8889,10540 8874,10526 Z"/></g><g style="stroke:none;fill:rgb(102,102,102)"><path d="M 8755,10803 L 8755,10803 C 8750,10794 8747,10784 8743,10772 8723,10687 8710,10645 8709,10643 8703,10641 8686,10662 8652,10706 8657,10715 8661,10724 8663,10734 8668,10756 8666,10763 8657,10754 8649,10745 8613,10734 8547,10720 8540,10719 8533,10717 8528,10717 8535,10752 8529,10770 8514,10770 8505,10770 8498,10770 8491,10770 8468,10853 8535,10869 8694,10817 8717,10810 8738,10805 8755,10803 Z"/><path d="M 8796,11008 L 8796,11008 C 8826,10987 8851,10974 8870,10969 8889,10964 8906,10953 8922,10934 8933,10918 8942,10902 8947,10884 8949,10876 8952,10865 8954,10856 8906,10869 8865,10870 8833,10863 8830,10900 8807,10957 8766,11029 8771,11024 8780,11017 8796,11008 Z"/></g><g style="stroke:none;fill:rgb(187,187,187)"><path d="M 8766,11029 L 8766,11029 C 8807,10957 8830,10900 8833,10863 8838,10816 8812,10794 8755,10803 8738,10805 8717,10810 8694,10817 8535,10869 8468,10853 8491,10770 8457,10768 8425,10763 8393,10754 8393,10840 8422,10913 8480,10973 8538,11033 8633,11052 8766,11029 Z"/><path d="M 8663,10734 L 8663,10734 C 8661,10724 8657,10715 8652,10706 8501,10641 8441,10622 8475,10652 8507,10682 8524,10705 8528,10717 8533,10717 8540,10719 8547,10720 8613,10734 8649,10745 8657,10754 8666,10763 8668,10756 8663,10734 Z"/></g><g style="stroke:none;fill:rgb(153,153,153)"><path d="M 11236,11038 L 11236,11038 C 11312,10960 11351,10867 11351,10757 11351,10648 11312,10555 11236,10479 11158,10401 11064,10362 10954,10362 10843,10362 10750,10401 10671,10479 10594,10555 10555,10648 10557,10757 10555,10867 10594,10960 10671,11038 10750,11114 10843,11153 10954,11153 11064,11153 11158,11114 11236,11038 Z M 10954,10440 L 10954,10440 C 11041,10440 11117,10472 11179,10533 11242,10595 11272,10669 11272,10756 11272,10844 11242,10920 11179,10981 11117,11043 11041,11073 10954,11073 10866,11073 10791,11043 10729,10981 10666,10920 10636,10844 10636,10756 10636,10669 10666,10595 10729,10533 10791,10472 10866,10440 10954,10440 Z"/></g><g style="stroke:none;fill:rgb(255,255,255)"><path d="M 11179,10533 L 11179,10533 C 11117,10472 11041,10440 10954,10440 10866,10440 10791,10472 10729,10533 10666,10595 10636,10669 10636,10756 10636,10844 10666,10920 10729,10981 10791,11043 10866,11073 10954,11073 11041,11073 11117,11043 11179,10981 11242,10920 11272,10844 11272,10756 11272,10669 11242,10595 11179,10533 Z M 11099,10583 L 11099,10583 C 11112,10592 11121,10604 11129,10616 11144,10637 11152,10662 11158,10689 11159,10705 11161,10722 11163,10738 11166,10770 11166,10802 11161,10833 11159,10840 11158,10847 11156,10854 11151,10867 11145,10879 11136,10891 11124,10907 11112,10916 11098,10920 11084,10921 11064,10932 11041,10948 11028,10957 11021,10962 11017,10964 10917,10981 10843,10967 10799,10921 10755,10876 10734,10821 10734,10756 10757,10763 10782,10766 10806,10766 10812,10766 10819,10766 10826,10766 10838,10766 10840,10752 10835,10726 10833,10717 10821,10701 10796,10678 10771,10655 10815,10667 10931,10719 10831,10634 10840,10572 10959,10533 10982,10532 11003,10535 11023,10542 11050,10551 11077,10563 11099,10583 Z"/></g><g style="stroke:none;fill:rgb(119,119,119)"><path d="M 11129,10616 L 11129,10616 C 11121,10604 11112,10592 11099,10583 11077,10563 11050,10551 11023,10542 11003,10535 10982,10532 10959,10533 10840,10572 10831,10634 10931,10719 10957,10685 10971,10669 10973,10671 10975,10671 10986,10703 11001,10768 11003,10777 11005,10786 11008,10793 11054,10787 11073,10802 11069,10839 11094,10844 11124,10842 11161,10833 11166,10802 11166,10770 11163,10738 11161,10722 11159,10705 11158,10689 11152,10662 11144,10637 11129,10616 Z"/></g><g style="stroke:none;fill:rgb(102,102,102)"><path d="M 11161,10833 L 11161,10833 C 11124,10842 11094,10844 11069,10839 11068,10867 11050,10909 11017,10964 11021,10962 11028,10957 11041,10948 11064,10932 11084,10921 11098,10920 11112,10916 11124,10907 11136,10891 11145,10879 11151,10867 11156,10854 11158,10847 11159,10840 11161,10833 Z"/></g><g style="stroke:none;fill:rgb(187,187,187)"><path d="M 10936,10756 L 10936,10756 C 10941,10761 10943,10757 10940,10742 10938,10733 10934,10726 10931,10719 10815,10667 10771,10655 10796,10678 10821,10701 10833,10717 10835,10726 10840,10726 10845,10727 10851,10729 10901,10740 10929,10749 10936,10756 Z"/></g><g style="stroke:none;fill:rgb(102,102,102)"><path d="M 10940,10742 L 10940,10742 C 10943,10757 10941,10761 10936,10756 10929,10749 10901,10740 10851,10729 10845,10727 10840,10726 10835,10726 10840,10752 10838,10766 10826,10766 10819,10766 10812,10766 10806,10766 10789,10832 10840,10844 10963,10805 10980,10800 10996,10794 11008,10793 11005,10786 11003,10777 11001,10768 10986,10703 10975,10671 10973,10671 10971,10669 10957,10685 10931,10719 10934,10726 10938,10733 10940,10742 Z"/></g><g style="stroke:none;fill:rgb(187,187,187)"><path d="M 11008,10793 L 11008,10793 C 10996,10794 10980,10800 10963,10805 10840,10844 10789,10832 10806,10766 10782,10766 10757,10763 10734,10756 10734,10821 10755,10876 10799,10921 10843,10967 10917,10981 11017,10964 11050,10909 11068,10867 11069,10839 11073,10802 11054,10787 11008,10793 Z"/></g><g style="stroke:none;fill:rgb(153,153,153)"><path d="M 13436,10967 L 13436,10967 C 13495,10909 13524,10840 13524,10757 13524,10675 13495,10606 13436,10548 13378,10489 13308,10461 13226,10461 13142,10461 13073,10489 13014,10548 12955,10606 12927,10675 12927,10757 12927,10840 12955,10909 13014,10967 13073,11026 13142,11054 13226,11054 13308,11054 13378,11026 13436,10967 Z M 13057,10590 L 13057,10590 C 13103,10542 13159,10519 13226,10519 13291,10519 13347,10542 13394,10590 13440,10636 13463,10692 13465,10757 13463,10823 13440,10877 13394,10925 13347,10971 13291,10994 13226,10994 13159,10994 13103,10971 13057,10925 13010,10877 12987,10823 12987,10757 12987,10692 13010,10636 13057,10590 Z"/></g><g style="stroke:none;fill:rgb(255,255,255)"><path d="M 13226,10519 L 13226,10519 C 13159,10519 13103,10542 13057,10590 13010,10636 12987,10692 12987,10757 12987,10823 13010,10877 13057,10925 13103,10971 13159,10994 13226,10994 13291,10994 13347,10971 13394,10925 13440,10877 13463,10823 13465,10757 13463,10692 13440,10636 13394,10590 13347,10542 13291,10519 13226,10519 Z M 13277,10595 L 13277,10595 C 13296,10602 13315,10613 13333,10627 13342,10634 13352,10643 13357,10652 13368,10667 13375,10687 13378,10706 13380,10719 13382,10731 13383,10743 13385,10766 13383,10791 13382,10814 13380,10819 13378,10824 13376,10830 13373,10840 13368,10849 13362,10858 13354,10870 13344,10877 13333,10879 13321,10881 13307,10888 13291,10900 13282,10906 13275,10911 13273,10913 13197,10925 13143,10914 13110,10881 13076,10847 13060,10805 13060,10756 13078,10761 13096,10763 13115,10764 13120,10764 13124,10764 13129,10764 13138,10764 13142,10754 13136,10734 13135,10726 13126,10713 13106,10697 13087,10680 13120,10690 13208,10729 13133,10666 13140,10620 13229,10590 13245,10588 13261,10590 13277,10595 Z"/></g><g style="stroke:none;fill:rgb(119,119,119)"><path d="M 13333,10627 L 13333,10627 C 13315,10613 13296,10602 13277,10595 13261,10590 13245,10588 13229,10590 13140,10620 13133,10666 13208,10729 13227,10705 13240,10692 13241,10692 13243,10692 13248,10717 13261,10766 13263,10772 13264,10779 13266,10784 13300,10779 13314,10791 13312,10817 13330,10821 13354,10819 13382,10814 13383,10791 13385,10766 13383,10743 13382,10731 13380,10719 13378,10706 13375,10687 13368,10667 13357,10652 13352,10643 13342,10634 13333,10627 Z"/></g><g style="stroke:none;fill:rgb(102,102,102)"><path d="M 13266,10784 L 13266,10784 C 13264,10779 13263,10772 13261,10766 13248,10717 13243,10692 13241,10692 13240,10692 13227,10705 13208,10729 13210,10734 13213,10740 13215,10745 13217,10757 13217,10761 13211,10756 13206,10750 13184,10745 13147,10736 13143,10734 13140,10734 13136,10734 13142,10754 13138,10764 13129,10764 13124,10764 13120,10764 13115,10764 13103,10812 13142,10823 13233,10793 13245,10787 13257,10786 13266,10784 Z"/></g><g style="stroke:none;fill:rgb(187,187,187)"><path d="M 13211,10756 L 13211,10756 C 13217,10761 13217,10757 13215,10745 13213,10740 13210,10734 13208,10729 13120,10690 13087,10680 13106,10697 13126,10713 13135,10726 13136,10734 13140,10734 13143,10734 13147,10736 13184,10745 13206,10750 13211,10756 Z"/><path d="M 13266,10784 L 13266,10784 C 13257,10786 13245,10787 13233,10793 13142,10823 13103,10812 13115,10764 13096,10763 13078,10761 13060,10756 13060,10805 13076,10847 13110,10881 13143,10914 13197,10925 13273,10913 13296,10870 13310,10839 13312,10817 13314,10791 13300,10779 13266,10784 Z"/></g><g style="stroke:none;fill:rgb(102,102,102)"><path d="M 13376,10830 L 13376,10830 C 13378,10824 13380,10819 13382,10814 13354,10819 13330,10821 13312,10817 13310,10839 13296,10870 13273,10913 13275,10911 13282,10906 13291,10900 13307,10888 13321,10881 13333,10879 13344,10877 13354,10870 13362,10858 13368,10849 13373,10840 13376,10830 Z"/></g></g></g></g></svg>