<?xml version="1.0" encoding="UTF-8"?>
<!DOCTYPE svg PUBLIC "-//W3C//DTD SVG 1.1//EN" "http://www.w3.org/Graphics/SVG/1.1/DTD/svg11.dtd"><svg version="1.1" viewBox="0 0 21000 29700" preserveAspectRatio="xMidYMid" fill-rule="evenodd" xmlns="http://www.w3.org/2000/svg" xmlns:xlink="http://www.w3.org/1999/xlink"><g visibility="visible" id="Default"><desc>Master slide</desc><g style="stroke:none;fill:none"><rect x="0" y="0" width="21000" height="29700"/></g></g><g visibility="visible" id="page1"><desc>Slide</desc><g><desc>Graphic</desc><g><g style="stroke:none;fill:rgb(187,0,0)"><path d="M 14131,15696 L 14131,15696 C 14105,15720 14077,15745 14051,15771 14051,15771 14053,15771 14054,15771 14025,15798 13995,15826 13965,15853 L 13831,15971 13831,15971 C 13400,16343 12971,16653 12543,16904 12097,17163 11517,17431 10801,17710 L 10801,17712 10801,17712 C 10802,17715 10808,17721 10813,17728 10804,17729 10797,17733 10790,17735 10734,17750 10678,17765 10623,17780 10358,17851 10085,17906 9803,17946 9419,17994 9077,18019 8773,18024 8488,18027 7973,18004 7230,17957 7233,17962 7237,17966 7242,17971 7495,18221 7762,18437 8044,18617 8192,18710 8344,18793 8499,18869 8536,18886 8573,18904 8610,18920 9173,19169 9788,19294 10456,19294 11710,19294 12781,18853 13668,17971 13842,17796 14000,17616 14140,17429 14261,17267 14369,17100 14465,16927 14591,16699 14693,16465 14776,16221 14790,16177 14804,16135 14816,16091 14864,15927 14903,15757 14934,15585 14962,15415 14981,15242 14990,15068 14995,14972 14999,14875 14999,14778 14713,15110 14424,15415 14131,15696 Z"/></g><g style="stroke:none;fill:rgb(238,17,17)"><path d="M 14051,15771 L 14051,15771 C 14077,15745 14105,15720 14131,15696 14424,15415 14713,15110 14999,14778 14999,14660 14995,14546 14987,14431 14911,13332 14472,12383 13668,11584 12781,10702 11710,10261 10456,10263 9201,10261 8129,10702 7242,11584 6355,12466 5911,13531 5913,14778 5913,16018 6352,17078 7230,17957 7973,18004 8488,18027 8773,18024 9077,18019 9419,17994 9803,17946 10085,17906 10358,17851 10623,17780 10678,17765 10734,17750 10790,17735 10797,17733 10804,17729 10813,17728 10808,17721 10802,17715 10801,17712 L 10801,17710 10801,17710 C 11517,17431 12097,17163 12543,16904 12971,16653 13400,16343 13831,15971 L 13965,15853 13965,15853 C 13995,15826 14025,15798 14054,15771 14053,15771 14051,15771 14051,15771 Z"/></g><g style="stroke:none;fill:rgb(242,50,29)"><path d="M 9781,11850 L 9781,11850 C 9805,11873 9817,11909 9817,11956 10139,12159 10350,12484 10448,12930 10455,12939 10479,12944 10527,12944 10527,12896 10527,12851 10527,12803 10527,12755 10527,12709 10527,12662 10527,12614 10527,12568 10527,12521 L 10456,12521 10456,12521 C 10598,12120 10432,11838 9960,11674 9911,11674 9865,11674 9817,11674 9769,11674 9723,11674 9675,11674 9675,11722 9675,11768 9675,11815 9723,11815 9758,11828 9781,11850 Z"/></g><g style="stroke:none;fill:rgb(253,96,52)"><path d="M 9817,11956 L 9817,11956 C 9817,11909 9805,11873 9781,11850 9758,11828 9723,11815 9675,11815 9628,11815 9581,11815 9533,11815 9249,11815 8966,11815 8682,11815 8633,11815 8598,11828 8575,11850 8456,11969 8303,12050 8113,12097 8113,12145 8113,12191 8113,12239 L 9817,11956 Z"/></g><g style="stroke:none;fill:rgb(253,152,68)"><path d="M 10527,12944 L 10527,12944 C 10479,12944 10455,12939 10448,12930 10350,12484 10139,12159 9817,11956 L 8113,12239 8113,12239 C 8113,12286 8101,12325 8078,12358 7964,12519 7787,12619 7546,12662 7546,12709 7546,12755 7546,12803 7469,13076 7309,13293 7063,13452 7035,13471 7007,13489 6977,13508 L 6977,14496 6977,14496 C 6977,14544 6991,14579 7014,14602 7037,14625 7072,14637 7119,14637 7651,15225 8134,15285 8575,14814 8598,14791 8633,14778 8682,14778 L 8682,14778 8682,14496 10101,13791 10101,13791 C 10101,13768 10118,13738 10155,13702 10190,13667 10220,13650 10243,13650 10243,13602 10243,13556 10243,13508 10243,13392 10271,13293 10327,13210 10460,13064 10527,12976 10527,12944 Z M 9240,12881 L 9321,13085 9321,13085 C 9196,13598 8889,13974 8397,14214 8197,14240 8078,14163 8041,13985 8018,13877 7973,13810 7906,13784 L 7830,13085 7830,13085 C 8278,12441 8749,12374 9240,12881 Z"/></g><g style="stroke:none;fill:rgb(237,240,3)"><path d="M 9321,13085 L 9240,12881 9240,12881 C 8749,12374 8278,12441 7830,13085 L 7906,13784 7906,13784 C 7973,13810 8018,13877 8041,13985 8078,14163 8197,14240 8397,14214 8889,13974 9196,13598 9321,13085 Z"/></g><g style="stroke:none;fill:rgb(252,99,50)"><path d="M 6977,13508 L 6977,13508 C 7007,13489 7035,13471 7063,13452 7309,13293 7469,13076 7546,12803 7498,12803 7451,12803 7404,12803 7356,12803 7309,12803 7262,12803 7214,12803 7172,12812 7134,12831 7077,12859 7026,12896 6977,12944 6977,12992 6965,13027 6942,13050 6919,13073 6884,13085 6836,13085 6836,13508 6836,13932 6836,14355 6836,14403 6836,14449 6836,14496 6884,14496 6930,14496 6977,14496 L 6977,13508 Z"/></g><g style="stroke:none;fill:rgb(252,73,41)"><path d="M 7262,12521 L 7262,12521 C 7262,12568 7262,12614 7262,12662 7262,12709 7262,12755 7262,12803 7309,12803 7356,12803 7404,12803 7451,12803 7498,12803 7546,12803 7546,12755 7546,12709 7546,12662 7787,12619 7964,12519 8078,12358 8101,12325 8113,12286 8113,12239 8066,12239 8020,12239 7971,12239 7878,12239 7781,12239 7688,12239 7639,12239 7611,12247 7602,12267 7537,12408 7423,12492 7262,12521 Z"/></g><g style="stroke:none;fill:rgb(244,70,35)"><path d="M 8682,14496 L 8682,14778 8682,14778 C 9184,14618 9618,14396 9988,14108 10016,14085 10053,14073 10101,14073 10101,14025 10101,13979 10101,13932 10101,13884 10101,13838 10101,13791 L 8682,14496 Z"/></g><g style="stroke:none;fill:rgb(247,95,46)"><path d="M 8682,14778 L 8682,14778 C 8633,14778 8598,14791 8575,14814 8134,15285 7651,15225 7119,14637 7214,14778 7299,14925 7375,15075 7395,15112 7404,15154 7404,15202 7923,15690 8341,15592 8653,14905 8673,14868 8682,14826 8682,14778 Z"/></g><g style="stroke:none;fill:rgb(255,255,255)"><path d="M 13851,12074 L 13851,12074 C 13782,12060 13691,12067 13579,12097 13579,12145 13579,12191 13579,12238 13532,12238 13486,12238 13438,12238 13438,12332 13438,12427 13438,12521 13438,12568 13438,12614 13438,12662 13375,12910 13472,13029 13721,13014 13716,13014 13712,13014 13707,13014 13707,12967 13707,12921 13707,12873 13707,12819 13707,12766 13707,12713 13707,12672 13707,12632 13707,12591 13746,12584 13779,12570 13805,12551 13886,12489 13906,12360 13863,12168 13858,12136 13853,12104 13851,12074 Z"/></g><g style="stroke:none;fill:rgb(109,114,114)"><path d="M 13579,12097 L 13579,12097 C 13691,12067 13782,12060 13851,12074 13849,12058 13849,12043 13849,12027 13991,12060 14102,12111 14178,12177 14172,12150 14167,12124 14162,12097 14153,12050 14148,12004 14148,11956 14100,11956 14057,11947 14020,11928 13963,11900 13911,11863 13863,11815 13863,11863 13856,11887 13842,11893 13714,11935 13579,11956 13438,11956 13438,12004 13438,12050 13438,12097 13438,12145 13438,12191 13438,12238 13486,12238 13532,12238 13579,12238 13579,12191 13579,12145 13579,12097 Z"/></g><g style="stroke:none;fill:rgb(0,0,0)"><path d="M 13849,12027 L 13849,12027 C 13849,12043 13849,12058 13851,12074 13853,12104 13858,12136 13863,12168 13906,12360 13886,12489 13805,12551 13779,12570 13746,12584 13707,12591 13707,12632 13707,12672 13707,12713 13707,12766 13707,12819 13707,12873 13707,12921 13707,12967 13707,13014 13712,13014 13716,13014 13721,13014 13751,13014 13779,13014 13807,13014 13821,13014 13835,13014 13849,13014 13897,13014 13944,13014 13991,13014 14039,13014 14086,13014 14133,13014 14133,12990 14137,12967 14142,12944 14146,12925 14153,12905 14162,12887 14348,12565 14353,12328 14178,12177 14102,12111 13991,12060 13849,12027 Z"/></g><g style="stroke:none;fill:rgb(243,107,107)"><path d="M 13310,12267 L 13310,12267 C 13253,12295 13201,12332 13154,12380 13088,12916 13277,13175 13721,13156 L 13721,13014 13721,13014 C 13472,13029 13375,12910 13438,12662 13438,12614 13438,12568 13438,12521 13438,12427 13438,12332 13438,12238 13389,12238 13347,12247 13310,12267 Z"/></g><g style="stroke:none;fill:rgb(198,135,134)"><path d="M 10740,13367 L 10740,13367 C 10789,13367 10835,13367 10882,13367 10882,13320 10873,13281 10854,13247 10749,13073 10522,13020 10173,13085 10094,13085 10027,13127 9972,13210 9917,13293 9888,13392 9888,13508 9936,13461 9988,13424 10045,13395 10082,13376 10125,13367 10173,13367 10315,13231 10464,13219 10620,13332 10654,13355 10692,13367 10740,13367 Z"/></g><g style="stroke:none;fill:rgb(74,124,125)"><path d="M 10882,13367 L 10882,13367 C 10835,13367 10789,13367 10740,13367 10740,13415 10728,13450 10705,13473 10634,13544 10550,13602 10457,13649 10457,13743 10457,13838 10457,13932 10457,13979 10457,14025 10457,14073 10712,14045 10852,13903 10875,13649 10880,13602 10882,13556 10882,13508 10882,13461 10882,13415 10882,13367 Z"/></g><g style="stroke:none;fill:rgb(255,255,255)"><path d="M 10740,13367 L 10740,13367 C 10692,13367 10654,13355 10620,13332 10464,13219 10315,13231 10173,13367 10125,13367 10082,13376 10045,13395 9988,13424 9936,13461 9888,13508 9888,13556 9888,13602 9888,13649 9894,13833 9947,13962 10052,14038 10085,14060 10125,14073 10173,14073 10220,14073 10266,14073 10315,14073 10362,14073 10408,14073 10457,14073 10457,14025 10457,13979 10457,13932 10457,13838 10457,13743 10457,13649 10550,13602 10634,13544 10705,13473 10728,13450 10740,13415 10740,13367 Z"/></g><g style="stroke:none;fill:rgb(0,0,0)"><path d="M 10882,13508 L 10882,13508 C 10882,13556 10880,13602 10875,13649 10852,13903 10712,14045 10457,14073 10457,14120 10457,14166 10457,14214 10820,14406 11052,14265 11152,13791 11161,13743 11166,13697 11166,13649 11119,13649 11075,13641 11038,13621 10982,13593 10930,13556 10882,13508 Z"/></g><g style="stroke:none;fill:rgb(239,106,111)"><path d="M 10457,14214 L 10457,14214 C 10457,14166 10457,14120 10457,14073 10408,14073 10362,14073 10315,14073 10266,14073 10220,14073 10173,14073 10125,14073 10085,14060 10052,14038 9947,13962 9894,13833 9888,13649 9841,13649 9795,13649 9746,13649 9746,13697 9746,13743 9746,13791 9746,13838 9746,13884 9746,13932 9746,13979 9746,14025 9746,14073 9936,14350 10136,14410 10343,14249 10371,14226 10408,14214 10457,14214 Z"/></g><g style="stroke:none;fill:rgb(200,36,10)"><path d="M 12772,16348 L 12772,16348 C 12724,16348 12681,16357 12644,16376 12402,16503 12067,16541 11636,16489 11636,16537 11636,16583 11636,16630 11684,16630 11730,16630 11778,16630 12213,16814 12514,16779 12680,16525 12694,16502 12724,16489 12772,16489 12772,16442 12772,16396 12772,16348 Z"/></g><g style="stroke:none;fill:rgb(189,16,4)"><path d="M 12772,16207 L 12772,16207 C 12772,16255 12772,16301 12772,16348 12772,16396 12772,16442 12772,16489 13132,16470 13424,16389 13645,16242 13679,16219 13717,16207 13766,16207 13922,16080 14158,16031 14476,16059 14523,16064 14569,16066 14618,16066 14618,16018 14618,15973 14618,15925 14618,15831 14618,15736 14618,15643 14569,15643 14530,15652 14497,15671 14326,15779 14130,15863 13907,15925 13859,15925 13815,15934 13773,15953 13480,16071 13146,16156 12772,16207 Z"/></g><g style="stroke:none;fill:rgb(156,41,0)"><path d="M 12680,16525 L 12680,16525 C 12514,16779 12213,16814 11778,16630 11778,16678 11765,16713 11742,16736 11719,16759 11684,16772 11636,16772 11636,16865 11636,16960 11636,17054 11636,17101 11636,17147 11636,17195 11914,17341 12295,17391 12772,17343 12820,17338 12866,17336 12913,17336 13326,16918 13668,16858 13943,17160 13966,17183 14002,17195 14049,17195 14144,17195 14228,17175 14305,17138 14325,17130 14333,17101 14333,17054 14286,17054 14258,17045 14249,17026 14107,16729 13945,16456 13766,16207 13717,16207 13679,16219 13645,16242 13424,16389 13132,16470 12772,16489 12724,16489 12694,16502 12680,16525 Z"/></g><g style="stroke:none;fill:rgb(196,7,2)"><path d="M 11742,16736 L 11742,16736 C 11765,16713 11778,16678 11778,16630 11730,16630 11684,16630 11636,16630 11588,16630 11542,16630 11494,16630 11494,16678 11487,16703 11473,16708 11345,16750 11210,16772 11068,16772 11131,16992 11272,17130 11494,17181 11542,17190 11588,17195 11636,17195 11636,17147 11636,17101 11636,17054 11636,16960 11636,16865 11636,16772 11684,16772 11719,16759 11742,16736 Z"/></g><g style="stroke:none;fill:rgb(141,63,0)"><path d="M 14333,17054 L 14333,17054 C 14381,17101 14433,17138 14490,17167 14527,17186 14476,17147 14333,17054 Z"/><path d="M 14249,17026 L 14249,17026 C 14258,17045 14286,17054 14333,17054 14470,16967 14541,16837 14546,16666 14551,16495 14577,16294 14618,16066 14569,16066 14523,16064 14476,16059 14158,16031 13922,16080 13766,16207 13945,16456 14107,16729 14249,17026 Z"/></g><g style="stroke:none;fill:rgb(215,8,8)"><path d="M 7519,15502 L 7519,15502 C 7519,15549 7525,15595 7533,15643 7609,16029 7841,16264 8229,16348 8276,16348 8322,16341 8364,16327 8610,16242 8848,16391 9080,16772 9128,16772 9168,16784 9201,16807 9679,17123 10302,17299 11068,17336 L 11771,17830 11771,17830 C 11777,17830 11778,17807 11778,17759 11925,17590 11890,17433 11672,17287 11649,17272 11636,17243 11636,17195 11588,17195 11542,17190 11494,17181 11272,17130 11131,16992 11068,16772 11210,16772 11345,16750 11473,16708 11487,16703 11494,16678 11494,16630 L 11494,16560 11494,16560 C 10841,16772 10367,16608 10074,16066 10027,16066 9981,16061 9932,16052 9407,15973 9029,15741 8796,15360 8749,15360 8703,15360 8655,15360 8158,15355 7780,15403 7519,15502 Z M 8122,15600 L 8122,15600 C 8099,15581 8087,15549 8087,15502 8683,16010 8696,16043 8122,15600 Z M 9095,16278 L 9095,16278 C 9086,16278 9080,16255 9080,16207 9918,16405 9923,16428 9095,16278 Z"/></g></g></g></g></svg>