<?xml version="1.0" encoding="UTF-8"?>
<!DOCTYPE svg PUBLIC "-//W3C//DTD SVG 1.1//EN" "http://www.w3.org/Graphics/SVG/1.1/DTD/svg11.dtd"><svg version="1.1" viewBox="0 0 21000 29700" preserveAspectRatio="xMidYMid" fill-rule="evenodd" xmlns="http://www.w3.org/2000/svg" xmlns:xlink="http://www.w3.org/1999/xlink"><g visibility="visible" id="Default"><desc>Master slide</desc><g style="stroke:none;fill:none"><rect x="0" y="0" width="21000" height="29700"/></g></g><g visibility="visible" id="page1"><desc>Slide</desc><g><desc>Graphic</desc><g><g style="stroke:none;fill:rgb(238,17,17)"><path d="M 14404,12524 L 14404,12524 C 14207,12191 13963,11877 13668,11584 12781,10702 11710,10261 10456,10263 9201,10261 8129,10702 7242,11584 6355,12466 5911,13531 5913,14778 5913,15861 6248,16807 6917,17615 9765,19211 12456,18151 14988,14438 14987,14436 14987,14433 14987,14431 14939,13734 14744,13099 14404,12524 Z"/></g><g style="stroke:none;fill:rgb(187,0,0)"><path d="M 14990,15068 L 14990,15068 C 14995,14972 14999,14875 14999,14778 14999,14664 14995,14551 14988,14440 L 14988,14438 14988,14438 C 12456,18151 9765,19211 6917,17615 7015,17731 7118,17846 7230,17957 7235,17957 7239,17957 7244,17959 L 7242,17971 7242,17971 C 7495,18221 7762,18437 8044,18617 8192,18710 8344,18793 8499,18869 8536,18886 8573,18904 8610,18920 9173,19169 9788,19294 10456,19294 11710,19294 12781,18853 13668,17971 13737,17900 13807,17828 13872,17756 13966,17648 14056,17541 14140,17429 14156,17407 14170,17385 14186,17366 14289,17223 14381,17077 14465,16927 14695,16509 14851,16063 14934,15585 14962,15415 14981,15242 14990,15068 Z"/></g><g style="stroke:none;fill:rgb(242,50,29)"><path d="M 10789,11717 L 10789,11717 C 10811,11704 10841,11702 10877,11712 11100,11509 11394,11415 11759,11430 11766,11428 11777,11410 11787,11373 11749,11363 11714,11354 11677,11344 11641,11334 11606,11325 11568,11315 11531,11305 11496,11296 11460,11286 L 11446,11340 11446,11340 C 11165,11150 10913,11218 10689,11545 10679,11582 10670,11617 10660,11654 10650,11690 10641,11725 10631,11762 10667,11772 10703,11781 10739,11791 10749,11754 10766,11730 10789,11717 Z"/></g><g style="stroke:none;fill:rgb(253,96,52)"><path d="M 10877,11712 L 10877,11712 C 10841,11702 10811,11704 10789,11717 10766,11730 10749,11754 10739,11791 10729,11828 10720,11863 10710,11899 10652,12116 10593,12332 10535,12549 10525,12586 10528,12616 10540,12637 10607,12753 10639,12885 10637,13040 10673,13050 10709,13059 10745,13069 L 10877,11712 Z"/></g><g style="stroke:none;fill:rgb(253,152,68)"><path d="M 12273,11735 L 12273,11735 C 12235,11726 12200,11716 12164,11706 12073,11682 12004,11640 11951,11581 11865,11450 11811,11380 11787,11373 11777,11410 11766,11428 11759,11430 11394,11415 11100,11509 10877,11712 L 10745,13069 10745,13069 C 10783,13079 10809,13097 10830,13121 10930,13241 10972,13397 10956,13589 10993,13599 11028,13608 11064,13618 11259,13733 11394,13899 11466,14121 11475,14146 11483,14171 11493,14197 L 12255,14400 12255,14400 C 12292,14410 12321,14407 12344,14395 12367,14382 12383,14357 12393,14320 12956,14037 13102,13680 12828,13247 12816,13225 12813,13195 12823,13158 L 12823,13158 12606,13100 12352,11872 12352,11872 C 12335,11868 12316,11848 12296,11814 12276,11779 12268,11752 12273,11735 Z M 11473,12342 L 11647,12323 11647,12323 C 12018,12523 12244,12835 12329,13259 12308,13418 12223,13492 12078,13484 11991,13479 11929,13499 11895,13546 L 11341,13460 11341,13460 C 10935,12985 10981,12613 11473,12342 Z"/></g><g style="stroke:none;fill:rgb(244,70,35)"><path d="M 12462,11901 L 12462,11901 C 12424,11892 12389,11882 12352,11872 L 12352,11872 12606,13100 12823,13158 12823,13158 C 12802,12742 12720,12365 12574,12025 12562,11998 12560,11967 12570,11930 12533,11921 12498,11911 12462,11901 Z"/></g><g style="stroke:none;fill:rgb(252,99,50)"><path d="M 11493,14197 L 11493,14197 C 11483,14171 11475,14146 11466,14121 11394,13899 11259,13733 11064,13618 11054,13655 11044,13690 11035,13727 11025,13763 11015,13798 11006,13835 10996,13872 10994,13906 11002,13938 11012,13988 11029,14034 11057,14081 11093,14091 11118,14107 11131,14130 11144,14152 11146,14181 11137,14218 11464,14305 11791,14392 12117,14479 12154,14489 12189,14499 12226,14508 12235,14471 12245,14436 12255,14400 L 11493,14197 Z"/></g><g style="stroke:none;fill:rgb(252,73,41)"><path d="M 10789,13777 L 10789,13777 C 10825,13787 10860,13796 10897,13806 10934,13816 10970,13825 11006,13835 11015,13798 11025,13763 11035,13727 11044,13690 11054,13655 11064,13618 11028,13608 10993,13599 10956,13589 10972,13397 10930,13241 10830,13121 10809,13097 10783,13079 10745,13069 10735,13106 10726,13141 10716,13178 10696,13249 10677,13322 10658,13394 10648,13431 10649,13454 10662,13465 10757,13544 10800,13648 10789,13777 Z"/></g><g style="stroke:none;fill:rgb(247,95,46)"><path d="M 12823,13158 L 12823,13158 C 12813,13195 12816,13225 12828,13247 13102,13680 12956,14037 12393,14320 12521,14278 12652,14244 12784,14215 12816,14208 12851,14211 12887,14221 13371,13924 13380,13586 12915,13207 12890,13184 12860,13168 12823,13158 Z"/></g><g style="stroke:none;fill:rgb(237,240,3)"><path d="M 11647,12323 L 11473,12342 11473,12342 C 10981,12613 10935,12985 11341,13460 L 11895,13546 11895,13546 C 11929,13499 11991,13479 12078,13484 12223,13492 12308,13418 12329,13259 12244,12835 12018,12523 11647,12323 Z"/></g><g style="stroke:none;fill:rgb(0,0,0)"><path d="M 13774,12630 L 13774,12630 C 13746,12589 13717,12554 13683,12520 13650,12553 13614,12577 13573,12589 13513,12609 13450,12620 13382,12619 13416,12653 13449,12687 13478,12724 13643,12920 13644,13119 13483,13319 13516,13352 13549,13385 13582,13418 13977,13298 14041,13034 13774,12630 Z"/></g><g style="stroke:none;fill:rgb(198,135,134)"><path d="M 13177,12455 L 13177,12455 C 12978,12405 12781,12527 12579,12819 12524,12874 12507,12951 12527,13049 12546,13146 12597,13236 12679,13318 12680,13251 12690,13189 12710,13129 12722,13089 12746,13053 12781,13019 12785,12823 12880,12710 13071,12680 13112,12672 13148,12654 13182,12620 13216,12586 13248,12554 13283,12520 13248,12486 13215,12465 13177,12455 Z"/></g><g style="stroke:none;fill:rgb(74,124,125)"><path d="M 13283,12520 L 13283,12520 C 13248,12554 13216,12586 13182,12620 13215,12653 13231,12687 13231,12719 13231,12819 13215,12919 13181,13019 13247,13085 13316,13153 13382,13219 13415,13252 13449,13285 13483,13319 13644,13119 13643,12920 13478,12724 13449,12687 13416,12653 13382,12619 13349,12586 13316,12553 13283,12520 Z"/></g><g style="stroke:none;fill:rgb(255,255,255)"><path d="M 13231,12719 L 13231,12719 C 13231,12687 13215,12653 13182,12620 13148,12654 13112,12672 13071,12680 12880,12710 12785,12823 12781,13019 12746,13053 12722,13089 12710,13129 12690,13189 12680,13251 12679,13318 12713,13352 12746,13385 12780,13418 12914,13544 13043,13598 13172,13578 13212,13570 13248,13552 13283,13518 13317,13484 13349,13452 13383,13418 13416,13385 13450,13352 13483,13319 13449,13285 13415,13252 13382,13219 13316,13153 13247,13085 13181,13019 13215,12919 13231,12819 13231,12719 Z"/></g><g style="stroke:none;fill:rgb(239,106,111)"><path d="M 13483,13319 L 13483,13319 C 13450,13352 13416,13385 13383,13418 13349,13452 13317,13484 13283,13518 13248,13552 13212,13570 13172,13578 13043,13598 12914,13544 12780,13418 12746,13451 12713,13484 12680,13517 12714,13551 12746,13583 12781,13617 12815,13651 12847,13683 12881,13717 12914,13750 12948,13783 12982,13817 13312,13879 13496,13782 13528,13522 13532,13486 13549,13451 13582,13418 13549,13385 13516,13352 13483,13319 Z"/></g><g style="stroke:none;fill:rgb(189,16,4)"><path d="M 14429,15170 L 14429,15170 C 14394,15193 14359,15216 14322,15239 14319,15241 14315,15244 14310,15248 14236,15292 14162,15336 14087,15378 14104,15422 14122,15467 14138,15511 14154,15555 14171,15597 14189,15641 14229,15622 14271,15604 14310,15585 14350,15564 14391,15542 14429,15519 14572,15435 14694,15341 14792,15239 14801,15230 14810,15220 14819,15211 14831,15197 14843,15183 14856,15168 14875,15146 14894,15121 14913,15096 14931,15068 14955,15047 14989,15031 14994,14948 14996,14863 14996,14780 14996,14763 14996,14745 14996,14729 14969,14743 14946,14761 14925,14782 14891,14814 14856,14846 14819,14877 14762,14925 14703,14973 14641,15020 14573,15071 14503,15121 14429,15170 Z"/></g><g style="stroke:none;fill:rgb(196,7,2)"><path d="M 13052,16234 L 13052,16234 C 13068,16278 13072,16304 13061,16315 12957,16400 12840,16468 12706,16520 12845,16703 13027,16779 13252,16747 13274,16742 13296,16738 13317,16733 13341,16726 13366,16717 13389,16708 13373,16664 13356,16622 13338,16578 13331,16558 13324,16541 13317,16523 13290,16454 13262,16384 13235,16315 13276,16299 13303,16278 13317,16251 13319,16250 13320,16246 13322,16243 13334,16213 13333,16177 13317,16135 13317,16133 13317,16133 13317,16132 13273,16149 13228,16167 13184,16183 13140,16200 13097,16218 13052,16234 Z"/></g><g style="stroke:none;fill:rgb(156,41,0)"><path d="M 14117,15708 L 14117,15708 C 14090,15832 14029,15929 13932,15997 13796,16094 13592,16140 13317,16132 13317,16133 13317,16133 13317,16135 13333,16177 13334,16213 13322,16243 13320,16246 13319,16250 13317,16251 13303,16278 13276,16299 13235,16315 13262,16384 13290,16454 13317,16523 13324,16541 13331,16558 13338,16578 13356,16622 13373,16664 13389,16708 13554,16728 13735,16710 13932,16659 14052,16629 14178,16585 14310,16527 14349,16511 14387,16493 14429,16474 14452,16461 14476,16449 14501,16437 14543,16416 14587,16396 14631,16378 14689,16243 14752,16130 14819,16040 14824,16033 14827,16026 14833,16020 14864,15906 14891,15788 14915,15669 14920,15641 14925,15613 14931,15587 14959,15419 14978,15246 14987,15071 14987,15070 14987,15070 14987,15070 14989,15056 14989,15043 14989,15031 14955,15047 14931,15068 14913,15096 L 14913,15096 C 14894,15121 14875,15146 14856,15168 14843,15183 14831,15197 14819,15211 14810,15220 14801,15230 14792,15239 14694,15341 14572,15435 14429,15519 14391,15542 14350,15564 14310,15585 14271,15604 14229,15622 14189,15641 14145,15659 14122,15682 14117,15708 Z"/></g><g style="stroke:none;fill:rgb(200,36,10)"><path d="M 13932,15997 L 13932,15997 C 14029,15929 14090,15832 14117,15708 14122,15682 14145,15659 14189,15641 14171,15597 14154,15555 14138,15511 14094,15527 14057,15551 14029,15583 13999,15616 13968,15648 13932,15680 13783,15809 13577,15916 13317,15999 13259,16019 13196,16036 13132,16052 13148,16096 13166,16139 13184,16183 13228,16167 13273,16149 13317,16132 13592,16140 13796,16094 13932,15997 Z"/></g></g></g></g></svg>