<?xml version="1.0" encoding="UTF-8"?>
<!DOCTYPE svg PUBLIC "-//W3C//DTD SVG 1.1//EN" "http://www.w3.org/Graphics/SVG/1.1/DTD/svg11.dtd"><svg version="1.1" viewBox="0 0 21000 29700" preserveAspectRatio="xMidYMid" fill-rule="evenodd" xmlns="http://www.w3.org/2000/svg" xmlns:xlink="http://www.w3.org/1999/xlink"><g visibility="visible" id="Default"><desc>Master slide</desc><g style="stroke:none;fill:none"><rect x="0" y="0" width="21000" height="29700"/></g></g><g visibility="visible" id="page1"><desc>Slide</desc><g><desc>Graphic</desc><g><g style="stroke:none;fill:rgb(238,17,17)"><path d="M 11315,14557 L 11315,14557 C 11276,14491 11226,14428 11168,14369 10990,14193 10775,14105 10525,14105 10274,14105 10060,14193 9882,14369 9705,14546 9616,14759 9616,15008 9616,15225 9684,15414 9818,15575 10387,15895 10925,15683 11431,14940 11431,14940 11431,14939 11431,14939 11421,14799 11382,14672 11315,14557 Z"/></g><g style="stroke:none;fill:rgb(187,0,0)"><path d="M 11431,15066 L 11431,15066 C 11432,15047 11433,15027 11433,15008 11433,14985 11432,14963 11431,14940 L 11431,14940 11431,14940 C 10925,15683 10387,15895 9818,15575 9837,15599 9858,15622 9880,15644 9881,15644 9882,15644 9883,15644 L 9882,15647 9882,15647 C 9932,15697 9987,15740 10043,15776 10072,15794 10102,15811 10134,15826 10141,15830 10149,15833 10156,15836 10268,15886 10391,15911 10525,15911 10775,15911 10990,15823 11168,15647 11181,15632 11195,15618 11208,15604 11227,15582 11245,15561 11261,15538 11265,15534 11267,15529 11271,15526 11292,15497 11310,15468 11327,15438 11373,15354 11404,15265 11420,15169 11426,15135 11430,15101 11431,15066 Z"/></g></g></g></g></svg>