<?xml version="1.0" encoding="UTF-8"?>
<!DOCTYPE svg PUBLIC "-//W3C//DTD SVG 1.1//EN" "http://www.w3.org/Graphics/SVG/1.1/DTD/svg11.dtd"><svg version="1.1" viewBox="0 0 21000 29700" preserveAspectRatio="xMidYMid" fill-rule="evenodd" xmlns="http://www.w3.org/2000/svg" xmlns:xlink="http://www.w3.org/1999/xlink"><g visibility="visible" id="Default"><desc>Master slide</desc><g style="stroke:none;fill:none"><rect x="0" y="0" width="21000" height="29700"/></g></g><g visibility="visible" id="page1"><desc>Slide</desc><g><desc>Graphic</desc><g><g style="stroke:none;fill:rgb(238,17,17)"><path d="M 12500,13881 L 12500,13881 C 12401,13714 12279,13557 12132,13411 11688,12970 11153,12749 10526,12750 9898,12749 9363,12970 8919,13411 8476,13852 8253,14384 8254,15008 8254,15549 8422,16022 8756,16426 10181,17224 11526,16694 12792,14838 12791,14837 12791,14835 12791,14834 12767,14486 12669,14168 12500,13881 Z"/></g><g style="stroke:none;fill:rgb(187,0,0)"><path d="M 12793,15152 L 12793,15152 C 12796,15105 12797,15056 12797,15008 12797,14950 12796,14894 12792,14838 L 12792,14838 12792,14838 C 11526,16694 10181,17224 8756,16426 8806,16484 8857,16541 8912,16597 8915,16597 8917,16597 8919,16598 L 8919,16604 8919,16604 C 9045,16729 9179,16837 9320,16927 9393,16974 9470,17015 9547,17053 9565,17062 9584,17071 9603,17079 9884,17203 10192,17265 10526,17265 11153,17265 11688,17045 12132,16604 12166,16569 12201,16533 12233,16496 12281,16443 12326,16389 12368,16333 12376,16322 12383,16311 12391,16302 12443,16230 12489,16157 12530,16082 12646,15873 12723,15650 12765,15411 12779,15326 12789,15240 12793,15152 Z"/></g></g></g></g></svg>