<?xml version="1.0" encoding="UTF-8"?>
<!DOCTYPE svg PUBLIC "-//W3C//DTD SVG 1.1//EN" "http://www.w3.org/Graphics/SVG/1.1/DTD/svg11.dtd"><svg version="1.1" viewBox="0 0 21000 29700" preserveAspectRatio="xMidYMid" fill-rule="evenodd" xmlns="http://www.w3.org/2000/svg" xmlns:xlink="http://www.w3.org/1999/xlink"><g visibility="visible" id="Default"><desc>Master slide</desc><g style="stroke:none;fill:none"><rect x="0" y="0" width="21000" height="29700"/></g></g><g visibility="visible" id="page1"><desc>Slide</desc><g><desc>Graphic</desc><g><g style="stroke:none;fill:rgb(238,17,17)"><path d="M 14010,12750 L 14010,12750 C 13833,12450 13613,12168 13347,11904 12548,11110 11585,10713 10457,10715 9328,10713 8363,11110 7564,11904 6765,12698 6366,13657 6368,14779 6368,15754 6670,16604 7271,17331 9835,18768 12256,17814 14535,14472 14534,14471 14534,14468 14534,14466 14491,13839 14315,13268 14010,12750 Z"/></g><g style="stroke:none;fill:rgb(187,0,0)"><path d="M 14537,15039 L 14537,15039 C 14542,14953 14545,14866 14545,14779 14545,14676 14542,14574 14535,14474 L 14535,14472 14535,14472 C 12256,17814 9835,18768 7271,17331 7360,17436 7452,17539 7553,17639 7558,17639 7561,17639 7566,17641 L 7564,17652 7564,17652 C 7790,17878 8032,18071 8286,18233 8418,18317 8556,18392 8695,18460 8728,18476 8762,18492 8795,18506 9302,18730 9856,18843 10457,18843 11585,18843 12548,18446 13347,17652 13409,17589 13472,17524 13531,17458 13616,17362 13697,17265 13772,17165 13787,17144 13799,17125 13814,17108 13906,16979 13989,16847 14064,16712 14272,16336 14413,15935 14486,15504 14511,15352 14529,15196 14537,15039 Z"/></g><g style="stroke:none;fill:rgb(253,96,52)"><path d="M 12031,12443 L 12031,12443 C 12032,12472 12033,12500 12034,12530 12040,12703 12047,12877 12053,13051 12054,13080 12062,13102 12075,13117 12142,13192 12189,13288 12218,13405 12244,13406 12269,13407 12295,13408 L 12104,12359 12104,12359 C 12077,12358 12060,12365 12047,12379 12036,12392 12029,12413 12031,12443 Z"/></g><g style="stroke:none;fill:rgb(242,50,29)"><path d="M 11956,12440 L 11956,12440 C 11981,12441 12006,12442 12031,12443 12029,12413 12036,12392 12047,12379 12060,12365 12077,12358 12104,12359 12205,12167 12375,12046 12614,11995 12619,11992 12621,11977 12620,11948 12593,11947 12569,11946 12543,11945 12518,11944 12493,11943 12468,11942 12442,11941 12417,11940 12391,11938 L 12393,11981 12393,11981 C 12174,11885 12026,11980 11949,12266 11950,12295 11951,12324 11952,12353 11953,12382 11954,12410 11956,12440 Z"/></g><g style="stroke:none;fill:rgb(244,70,35)"><path d="M 13161,12231 L 13161,12231 C 13136,12230 13111,12229 13085,12228 L 13085,12228 13497,13113 13650,13120 13650,13120 C 13552,12808 13423,12537 13259,12305 13245,12287 13238,12263 13237,12234 13211,12233 13187,12232 13161,12231 Z"/></g><g style="stroke:none;fill:rgb(253,152,68)"><path d="M 13085,12228 L 13085,12228 C 13073,12227 13055,12216 13037,12194 13017,12171 13006,12152 13005,12138 12980,12137 12955,12135 12930,12134 12866,12132 12814,12112 12768,12076 12685,11992 12637,11949 12620,11948 12621,11977 12619,11992 12614,11995 12375,12046 12205,12167 12104,12359 L 12295,13408 12295,13408 C 12320,13409 12342,13418 12360,13433 12450,13505 12508,13617 12536,13765 12561,13766 12586,13767 12612,13768 12761,13821 12882,13924 12974,14079 12984,14096 12994,14114 13006,14132 L 13537,14155 13537,14155 C 13563,14156 13581,14149 13594,14136 13605,14122 13611,14100 13610,14071 13913,13760 13936,13465 13671,13186 13658,13171 13651,13149 13650,13120 L 13650,13120 13497,13113 13085,12228 Z M 12616,12734 L 12723,12690 12723,12690 C 13003,12777 13212,12974 13352,13280 13372,13403 13332,13474 13237,13492 13180,13505 13145,13530 13132,13571 L 12757,13602 12757,13602 C 12401,13312 12354,13022 12616,12734 Z"/></g><g style="stroke:none;fill:rgb(252,73,41)"><path d="M 12619,13942 L 12619,13942 C 12618,13913 12617,13884 12616,13855 12615,13826 12614,13798 12612,13768 12586,13767 12561,13766 12536,13765 12508,13617 12450,13505 12360,13433 12342,13418 12320,13409 12295,13408 12297,13437 12298,13465 12299,13495 12301,13552 12303,13611 12305,13668 12306,13698 12312,13715 12322,13722 12400,13765 12448,13836 12467,13935 12493,13937 12517,13938 12543,13939 12568,13940 12593,13941 12619,13942 Z"/></g><g style="stroke:none;fill:rgb(252,99,50)"><path d="M 12616,13855 L 12616,13855 C 12617,13884 12618,13913 12619,13942 12620,13971 12626,13997 12637,14021 12653,14056 12674,14088 12702,14119 12727,14120 12746,14128 12758,14143 12773,14158 12780,14180 12781,14210 13009,14219 13236,14229 13465,14239 13490,14240 13515,14241 13540,14242 13539,14212 13538,14184 13537,14155 L 13006,14132 13006,14132 C 12994,14114 12984,14096 12974,14079 12882,13924 12761,13821 12612,13768 12614,13798 12615,13826 12616,13855 Z"/></g><g style="stroke:none;fill:rgb(247,95,46)"><path d="M 13650,13120 L 13650,13120 C 13651,13149 13658,13171 13671,13186 13936,13465 13913,13760 13610,14071 13684,14017 13761,13968 13839,13926 13859,13914 13882,13909 13907,13911 14159,13604 14096,13347 13719,13140 13699,13127 13675,13121 13650,13120 Z"/></g><g style="stroke:none;fill:rgb(237,240,3)"><path d="M 12723,12690 L 12616,12734 12616,12734 C 12354,13022 12401,13312 12757,13602 L 13132,13571 13132,13571 C 13145,13530 13180,13505 13237,13492 13332,13474 13372,13403 13352,13280 13212,12974 13003,12777 12723,12690 Z"/></g></g></g></g></svg>