<?xml version="1.0" encoding="UTF-8"?>
<!DOCTYPE svg PUBLIC "-//W3C//DTD SVG 1.1//EN" "http://www.w3.org/Graphics/SVG/1.1/DTD/svg11.dtd"><svg version="1.1" viewBox="0 0 21000 29700" preserveAspectRatio="xMidYMid" fill-rule="evenodd" xmlns="http://www.w3.org/2000/svg" xmlns:xlink="http://www.w3.org/1999/xlink"><g visibility="visible" id="Default"><desc>Master slide</desc><g style="stroke:none;fill:none"><rect x="0" y="0" width="21000" height="29700"/></g></g><g visibility="visible" id="page1"><desc>Slide</desc><g><desc>Graphic</desc><g><g style="stroke:none;fill:rgb(238,17,17)"><path d="M 14404,12524 L 14404,12524 C 14207,12191 13963,11877 13668,11584 12781,10702 11710,10261 10456,10263 9201,10261 8129,10702 7242,11584 6355,12466 5911,13531 5913,14778 5913,15861 6248,16807 6917,17615 9765,19211 12456,18151 14988,14438 14987,14436 14987,14433 14987,14431 14939,13734 14744,13099 14404,12524 Z"/></g><g style="stroke:none;fill:rgb(187,0,0)"><path d="M 14990,15068 L 14990,15068 C 14995,14972 14999,14875 14999,14778 14999,14664 14995,14551 14988,14440 L 14988,14438 14988,14438 C 12456,18151 9765,19211 6917,17615 7015,17731 7118,17846 7230,17957 7235,17957 7239,17957 7244,17959 L 7242,17971 7242,17971 C 7495,18221 7762,18437 8044,18617 8192,18710 8344,18793 8499,18869 8536,18886 8573,18904 8610,18920 9173,19169 9788,19294 10456,19294 11710,19294 12781,18853 13668,17971 13737,17900 13807,17828 13872,17756 13966,17648 14056,17541 14140,17429 14156,17407 14170,17385 14186,17366 14289,17223 14381,17077 14465,16927 14695,16509 14851,16063 14934,15585 14962,15415 14981,15242 14990,15068 Z"/></g><g style="stroke:none;fill:rgb(253,96,52)"><path d="M 10279,11427 L 10279,11427 C 10238,11451 10198,11474 10157,11498 9911,11639 9665,11780 9419,11921 9378,11945 9353,11974 9345,12005 9302,12166 9210,12312 9069,12448 9093,12489 9116,12529 9141,12570 L 10475,11479 10475,11479 C 10451,11438 10421,11414 10390,11405 10358,11397 10322,11404 10279,11427 Z"/></g><g style="stroke:none;fill:rgb(242,50,29)"><path d="M 10209,11305 L 10209,11305 C 10232,11346 10255,11386 10279,11427 10322,11404 10358,11397 10390,11405 10421,11414 10451,11438 10475,11479 10854,11495 11200,11671 11510,12009 11520,12013 11544,12006 11586,11982 11562,11941 11539,11901 11515,11860 11491,11818 11468,11779 11444,11737 11420,11696 11397,11656 11373,11615 L 11311,11650 11311,11650 C 11233,11233 10949,11071 10456,11164 10414,11188 10374,11211 10333,11235 10291,11259 10251,11282 10209,11305 Z"/></g><g style="stroke:none;fill:rgb(253,152,68)"><path d="M 11694,12734 L 11694,12734 C 11670,12693 11648,12653 11624,12612 11565,12511 11540,12411 11546,12312 11588,12120 11601,12009 11586,11982 11544,12006 11520,12013 11510,12009 11200,11671 10854,11495 10475,11479 L 9141,12570 9141,12570 C 9165,12611 9173,12652 9171,12692 9153,12888 9049,13063 8861,13219 8885,13261 8908,13300 8932,13342 9005,13616 8975,13883 8842,14144 8826,14175 8811,14204 8796,14235 L 9293,15090 9293,15090 C 9317,15131 9345,15156 9377,15164 9408,15173 9444,15165 9487,15141 10241,15387 10691,15198 10835,14571 10844,14540 10869,14511 10910,14487 L 10910,14487 10768,14243 11643,12927 11643,12927 C 11631,12907 11631,12872 11645,12824 11657,12776 11674,12746 11694,12734 Z M 10439,12566 L 10611,12704 10611,12704 C 10762,13210 10686,13688 10381,14140 10220,14263 10078,14254 9957,14119 9882,14037 9810,14001 9737,14012 L 9321,13445 9321,13445 C 9385,12663 9759,12372 10439,12566 Z"/></g><g style="stroke:none;fill:rgb(237,240,3)"><path d="M 10611,12704 L 10439,12566 10439,12566 C 9759,12372 9385,12663 9321,13445 L 9737,14012 9737,14012 C 9810,14001 9882,14037 9957,14119 10078,14254 10220,14263 10381,14140 10686,13688 10762,13210 10611,12704 Z"/></g><g style="stroke:none;fill:rgb(252,99,50)"><path d="M 8796,14235 L 8796,14235 C 8811,14204 8826,14175 8842,14144 8975,13883 9005,13616 8932,13342 8891,13365 8851,13388 8810,13412 8768,13436 8728,13459 8687,13483 8646,13507 8612,13535 8590,13570 8555,13623 8530,13681 8513,13746 8536,13787 8543,13824 8534,13854 8526,13886 8502,13915 8459,13938 8673,14305 8885,14671 9098,15038 9122,15079 9146,15119 9170,15160 9212,15137 9251,15114 9293,15090 L 8796,14235 Z"/></g><g style="stroke:none;fill:rgb(252,73,41)"><path d="M 8545,13238 L 8545,13238 C 8569,13279 8592,13319 8615,13360 8640,13402 8663,13441 8687,13483 8728,13459 8768,13436 8810,13412 8851,13388 8891,13365 8932,13342 8908,13300 8885,13261 8861,13219 9049,13063 9153,12888 9171,12692 9173,12652 9165,12611 9141,12570 9099,12594 9059,12617 9018,12641 8936,12688 8853,12735 8772,12782 8730,12806 8710,12827 8712,12848 8726,13003 8671,13133 8545,13238 Z"/></g><g style="stroke:none;fill:rgb(247,95,46)"><path d="M 10910,14487 L 10910,14487 C 10869,14511 10844,14540 10835,14571 10691,15198 10241,15387 9487,15141 9640,15217 9786,15301 9928,15393 9963,15416 9993,15448 10016,15489 10713,15654 11024,15362 10950,14611 10948,14570 10934,14529 10910,14487 Z"/></g><g style="stroke:none;fill:rgb(244,70,35)"><path d="M 10768,14243 L 10910,14487 10910,14487 C 11263,14099 11528,13691 11704,13258 11717,13224 11743,13194 11785,13171 11760,13130 11737,13090 11713,13049 11690,13008 11667,12968 11643,12927 L 10768,14243 Z"/></g><g style="stroke:none;fill:rgb(0,0,0)"><path d="M 12180,13361 L 12180,13361 C 12163,13315 12145,13273 12121,13232 12079,13256 12038,13269 11996,13271 11932,13275 11870,13269 11804,13251 11828,13293 11850,13332 11868,13377 11976,13608 11926,13800 11719,13951 11743,13992 11766,14032 11791,14073 12202,14059 12332,13822 12180,13361 Z"/></g><g style="stroke:none;fill:rgb(198,135,134)"><path d="M 10976,13237 L 10976,13237 C 10908,13276 10871,13346 10866,13445 10859,13544 10885,13644 10943,13744 10961,13680 10988,13622 11021,13570 11045,13534 11076,13505 11118,13481 11173,13294 11296,13209 11488,13229 11528,13231 11568,13223 11610,13199 11651,13175 11691,13152 11732,13129 11709,13088 11682,13058 11648,13039 11470,12940 11246,13007 10976,13237 Z"/></g><g style="stroke:none;fill:rgb(74,124,125)"><path d="M 11732,13129 L 11732,13129 C 11691,13152 11651,13175 11610,13199 11634,13240 11642,13277 11633,13309 11608,13405 11564,13496 11506,13585 11553,13665 11601,13748 11649,13829 11672,13870 11695,13910 11719,13951 11926,13800 11976,13608 11868,13377 11850,13332 11828,13293 11804,13251 11780,13210 11756,13170 11732,13129 Z"/></g><g style="stroke:none;fill:rgb(255,255,255)"><path d="M 11633,13309 L 11633,13309 C 11642,13277 11634,13240 11610,13199 11568,13223 11528,13231 11488,13229 11296,13209 11173,13294 11118,13481 11076,13505 11045,13534 11021,13570 10988,13622 10961,13680 10943,13744 10968,13786 10991,13825 11014,13867 11112,14023 11222,14108 11352,14122 11392,14125 11431,14116 11473,14092 11515,14068 11554,14046 11596,14022 11638,13998 11678,13975 11719,13951 11695,13910 11672,13870 11649,13829 11601,13748 11553,13665 11506,13585 11564,13496 11608,13405 11633,13309 Z"/></g><g style="stroke:none;fill:rgb(239,106,111)"><path d="M 11719,13951 L 11719,13951 C 11678,13975 11638,13998 11596,14022 11554,14046 11515,14068 11473,14092 11431,14116 11392,14125 11352,14122 11222,14108 11112,14023 11014,13867 10973,13891 10932,13914 10891,13938 10915,13979 10938,14018 10963,14060 10987,14101 11010,14141 11034,14182 11057,14223 11080,14263 11104,14304 11408,14450 11611,14403 11709,14161 11723,14127 11749,14097 11791,14073 11766,14032 11743,13992 11719,13951 Z"/></g><g style="stroke:none;fill:rgb(156,41,0)"><path d="M 12858,16520 L 12858,16520 C 12858,16521 12858,16521 12858,16523 12874,16565 12875,16601 12863,16631 12861,16634 12860,16638 12858,16640 12844,16666 12817,16687 12777,16703 12803,16772 12831,16842 12858,16911 12865,16929 12872,16946 12879,16966 12897,17010 12914,17052 12931,17096 13197,17126 13504,17065 13851,16915 13913,16888 13977,16858 14043,16825 14086,16804 14128,16784 14172,16767 14343,16370 14550,16169 14795,16163 14844,16003 14885,15837 14918,15669 14799,15576 14676,15488 14553,15408 14509,15424 14476,15451 14455,15484 14320,15673 14119,15835 13851,15973 13812,15992 13772,16010 13730,16029 13686,16047 13663,16070 13658,16096 13596,16391 13330,16532 12858,16520 Z"/></g><g style="stroke:none;fill:rgb(200,36,10)"><path d="M 12858,16520 L 12858,16520 C 13330,16532 13596,16391 13658,16096 13663,16070 13686,16047 13730,16029 13713,15985 13695,15943 13679,15899 13635,15915 13600,15939 13571,15971 13421,16144 13183,16283 12858,16387 12800,16407 12737,16424 12674,16440 12689,16484 12707,16527 12725,16571 12770,16555 12814,16537 12858,16520 Z"/></g><g style="stroke:none;fill:rgb(196,7,2)"><path d="M 12777,16703 L 12777,16703 C 12817,16687 12844,16666 12858,16640 12860,16638 12861,16634 12863,16631 12875,16601 12874,16565 12858,16523 12858,16521 12858,16521 12858,16520 12814,16537 12770,16555 12725,16571 12681,16588 12638,16606 12593,16622 12610,16666 12614,16692 12603,16703 12498,16788 12381,16856 12247,16908 12386,17091 12568,17167 12794,17135 12816,17130 12837,17126 12858,17121 12883,17114 12907,17105 12931,17096 12914,17052 12897,17010 12879,16966 12872,16946 12865,16929 12858,16911 12831,16842 12803,16772 12777,16703 Z"/></g><g style="stroke:none;fill:rgb(215,8,8)"><path d="M 12593,16622 L 12567,16557 12567,16557 C 12136,16908 11724,16985 11333,16788 L 11013,17220 11013,17220 C 11450,17536 11930,17606 12454,17433 L 13289,17640 13289,17640 C 13293,17638 13286,17615 13270,17571 13344,17361 13253,17227 12998,17169 12972,17163 12949,17140 12931,17096 12907,17105 12883,17114 12858,17121 12837,17126 12816,17130 12794,17135 12568,17167 12386,17091 12247,16908 12381,16856 12498,16788 12603,16703 12614,16692 12610,16666 12593,16622 Z"/></g><g style="stroke:none;fill:rgb(189,16,4)"><path d="M 13679,15899 L 13679,15899 C 13695,15943 13713,15985 13730,16029 13772,16010 13812,15992 13851,15973 14119,15835 14320,15673 14455,15484 14476,15451 14509,15424 14553,15408 14634,15269 14779,15156 14990,15071 14990,15070 14990,15070 14990,15070 14995,14974 14999,14877 14999,14780 14999,14752 14999,14724 14997,14698 14885,14840 14748,14973 14583,15094 14537,15112 14500,15137 14467,15170 14291,15334 14086,15489 13851,15636 13779,15680 13704,15724 13628,15766 13646,15811 13663,15855 13679,15899 Z"/></g><g style="stroke:none;fill:rgb(141,63,0)"><path d="M 14990,15071 L 14990,15071 C 14779,15156 14634,15269 14553,15408 14676,15488 14799,15576 14918,15669 14923,15641 14928,15613 14934,15587 14962,15419 14981,15246 14990,15071 Z"/></g></g></g></g></svg>