<?xml version="1.0" encoding="UTF-8"?>
<!DOCTYPE svg PUBLIC "-//W3C//DTD SVG 1.1//EN" "http://www.w3.org/Graphics/SVG/1.1/DTD/svg11.dtd"><svg version="1.1" viewBox="0 0 21000 29700" preserveAspectRatio="xMidYMid" fill-rule="evenodd" xmlns="http://www.w3.org/2000/svg" xmlns:xlink="http://www.w3.org/1999/xlink"><g visibility="visible" id="Default"><desc>Master slide</desc><g style="stroke:none;fill:none"><rect x="0" y="0" width="21000" height="29700"/></g></g><g visibility="visible" id="page1"><desc>Slide</desc><g><desc>Graphic</desc><g><g style="stroke:none;fill:rgb(238,17,17)"><path d="M 13289,13430 L 13289,13430 C 13151,13197 12980,12977 12774,12772 12152,12154 11403,11846 10525,11847 9647,11846 8896,12154 8275,12772 7654,13389 7344,14135 7345,15008 7345,15766 7579,16428 8048,16993 10041,18111 11924,17368 13697,14769 13696,14768 13696,14766 13696,14765 13663,14277 13526,13832 13289,13430 Z"/></g><g style="stroke:none;fill:rgb(187,0,0)"><path d="M 13698,15210 L 13698,15210 C 13702,15144 13705,15076 13705,15008 13705,14928 13702,14849 13697,14771 L 13697,14769 13697,14769 C 11924,17368 10041,18111 8048,16993 8116,17075 8188,17155 8266,17233 8270,17233 8272,17233 8276,17234 L 8275,17243 8275,17243 C 8451,17418 8640,17569 8837,17694 8939,17760 9047,17818 9155,17871 9181,17883 9207,17896 9233,17907 9627,18081 10058,18169 10525,18169 11403,18169 12152,17860 12774,17243 12822,17193 12870,17143 12916,17092 12982,17017 13045,16941 13104,16864 13115,16847 13125,16833 13136,16819 13208,16719 13273,16617 13331,16512 13492,16219 13602,15907 13659,15572 13679,15454 13692,15333 13698,15210 Z"/></g></g></g></g></svg>