<?xml version="1.0" encoding="UTF-8"?>
<!DOCTYPE svg PUBLIC "-//W3C//DTD SVG 1.1//EN" "http://www.w3.org/Graphics/SVG/1.1/DTD/svg11.dtd"><svg version="1.1" viewBox="0 0 21000 29700" preserveAspectRatio="xMidYMid" fill-rule="evenodd" xmlns="http://www.w3.org/2000/svg" xmlns:xlink="http://www.w3.org/1999/xlink"><g visibility="visible" id="Default"><desc>Master slide</desc><g style="stroke:none;fill:none"><rect x="0" y="0" width="21000" height="29700"/></g></g><g visibility="visible" id="page1"><desc>Slide</desc><g><desc>Graphic</desc><g><g style="stroke:none;fill:rgb(238,17,17)"><path d="M 12894,13655 L 12894,13655 C 12776,13455 12629,13266 12453,13091 11920,12562 11278,12297 10525,12298 9772,12297 9129,12562 8597,13091 8065,13620 7798,14259 7799,15007 7799,15657 8001,16224 8402,16709 10111,17667 11725,17031 13244,14803 13243,14802 13243,14800 13243,14799 13214,14381 13098,14000 12894,13655 Z"/></g><g style="stroke:none;fill:rgb(187,0,0)"><path d="M 13245,15181 L 13245,15181 C 13248,15124 13250,15065 13250,15007 13250,14938 13248,14871 13244,14804 L 13244,14803 13244,14803 C 11725,17031 10111,17667 8402,16709 8460,16779 8523,16848 8589,16914 8592,16914 8595,16914 8598,16915 L 8597,16923 8597,16923 C 8748,17073 8909,17202 9078,17310 9167,17366 9258,17416 9351,17461 9373,17472 9395,17483 9418,17492 9755,17641 10125,17716 10525,17716 11278,17716 11920,17452 12453,16923 12494,16880 12535,16837 12574,16794 12632,16729 12685,16664 12735,16598 12745,16584 12753,16571 12764,16560 12825,16474 12880,16386 12931,16296 13068,16045 13163,15778 13211,15491 13228,15389 13240,15286 13245,15181 Z"/></g></g></g></g></svg>