<?xml version="1.0" encoding="UTF-8"?>
<!DOCTYPE svg PUBLIC "-//W3C//DTD SVG 1.1//EN" "http://www.w3.org/Graphics/SVG/1.1/DTD/svg11.dtd"><svg version="1.1" viewBox="0 0 21000 29700" preserveAspectRatio="xMidYMid" fill-rule="evenodd" xmlns="http://www.w3.org/2000/svg" xmlns:xlink="http://www.w3.org/1999/xlink"><g visibility="visible" id="Default"><desc>Master slide</desc><g style="stroke:none;fill:none"><rect x="0" y="0" width="21000" height="29700"/></g></g><g visibility="visible" id="page1"><desc>Slide</desc><g><desc>Graphic</desc><g><g style="stroke:none;fill:rgb(238,17,17)"><path d="M 12105,14106 L 12105,14106 C 12026,13973 11927,13848 11810,13730 11455,13378 11027,13201 10525,13202 10023,13201 9594,13378 9239,13730 8885,14083 8707,14509 8708,15008 8708,15441 8842,15819 9109,16143 10249,16781 11325,16357 12338,14872 12337,14871 12337,14870 12337,14869 12318,14590 12240,14336 12105,14106 Z"/></g><g style="stroke:none;fill:rgb(187,0,0)"><path d="M 12339,15124 L 12339,15124 C 12341,15086 12342,15047 12342,15008 12342,14962 12341,14917 12338,14873 L 12338,14872 12338,14872 C 11325,16357 10249,16781 9109,16143 9149,16189 9190,16235 9234,16279 9237,16279 9238,16279 9240,16280 L 9239,16285 9239,16285 C 9341,16385 9447,16471 9560,16543 9619,16581 9681,16614 9742,16644 9757,16651 9772,16658 9786,16665 10012,16764 10258,16814 10525,16814 11027,16814 11455,16638 11810,16285 11838,16257 11865,16228 11891,16199 11929,16156 11966,16113 11999,16069 12005,16059 12011,16051 12017,16043 12058,15986 12095,15927 12129,15867 12221,15700 12284,15522 12316,15331 12327,15263 12335,15194 12339,15124 Z"/></g></g></g></g></svg>