<?xml version="1.0" encoding="UTF-8"?>
<!DOCTYPE svg PUBLIC "-//W3C//DTD SVG 1.1//EN" "http://www.w3.org/Graphics/SVG/1.1/DTD/svg11.dtd"><svg version="1.1" viewBox="0 0 21000 29700" preserveAspectRatio="xMidYMid" fill-rule="evenodd" xmlns="http://www.w3.org/2000/svg" xmlns:xlink="http://www.w3.org/1999/xlink"><g visibility="visible" id="Default"><desc>Master slide</desc><g style="stroke:none;fill:none"><rect x="0" y="0" width="21000" height="29700"/></g></g><g visibility="visible" id="page1"><desc>Slide</desc><g><desc>Graphic</desc><g><g style="stroke:none;fill:rgb(238,17,17)"><path d="M 14475,12553 L 14475,12553 C 14276,12216 14029,11898 13732,11601 12837,10708 11758,10261 10493,10263 9228,10261 8148,10708 7253,11601 6358,12494 5911,13573 5913,14836 5913,15933 6251,16891 6925,17709 9797,19326 12510,18252 15063,14492 15062,14490 15062,14486 15062,14484 15013,13779 14817,13135 14475,12553 Z"/></g><g style="stroke:none;fill:rgb(187,0,0)"><path d="M 15063,14494 L 15063,14492 15063,14492 C 12510,18252 9797,19326 6925,17709 7024,17827 7128,17943 7241,18056 7246,18056 7250,18056 7255,18058 L 7253,18070 7253,18070 C 7508,18323 7778,18542 8062,18724 8211,18818 8364,18902 8520,18979 8558,18997 8595,19015 8633,19031 9200,19283 9821,19410 10493,19410 11758,19410 12837,18963 13732,18070 13802,17998 13872,17925 13938,17852 14032,17743 14124,17634 14208,17521 14224,17499 14238,17476 14255,17457 14358,17312 14451,17164 14536,17012 14768,16589 14925,16137 15008,15653 15037,15481 15056,15306 15065,15130 15070,15032 15074,14934 15074,14836 15074,14720 15070,14606 15063,14494 Z"/></g><g style="stroke:none;fill:rgb(0,0,0)"><path d="M 14223,12273 L 12528,13566 12528,13566 C 13487,14476 14059,15043 14240,15266 14535,15632 14714,15936 14777,16177 L 14778,16179 14778,16179 C 14794,16246 14802,16308 14803,16365 L 14785,16483 14785,16483 C 14783,16493 14779,16502 14777,16511 14763,16554 14742,16592 14714,16628 14878,16656 14970,16595 14989,16449 14994,16403 14994,16334 14987,16246 14979,16138 14973,16072 14975,16045 15084,15783 15247,15405 15462,14912 15910,13875 15497,12996 14223,12273 Z"/></g><g style="stroke:none;fill:rgb(102,102,102)"><path d="M 14240,15266 L 14240,15266 C 14059,15043 13487,14476 12528,13566 L 12528,13566 10566,15019 10596,15058 10596,15058 C 10745,15221 10902,15371 11069,15508 13398,16172 14456,16092 14240,15266 Z"/></g><g style="stroke:none;fill:rgb(119,119,119)"><path d="M 14778,16179 L 14777,16177 14777,16177 C 14714,15936 14535,15632 14240,15266 14456,16092 13398,16172 11069,15508 11395,15778 11757,16006 12157,16192 12217,16221 12262,16241 12295,16255 12485,16335 12694,16404 12922,16459 13024,16486 13108,16506 13175,16521 13407,16578 13619,16617 13815,16644 14125,16684 14386,16685 14603,16650 14608,16649 14615,16647 14621,16648 14652,16643 14683,16636 14714,16628 14742,16592 14763,16554 14777,16511 14779,16502 14783,16493 14785,16483 L 14803,16365 14803,16365 C 14802,16308 14794,16246 14778,16179 Z"/></g><g style="stroke:rgb(0,255,0);stroke-width:2;stroke-linejoin:round;fill:rgb(255,255,255)"><path style="fill:none" d="M 14778,16179 L 14777,16177"/></g><g style="stroke:none;fill:rgb(187,0,0)"><path d="M 14930,13603 L 14930,13603 C 14852,13295 14743,13016 14603,12768 14811,13475 14884,14175 14819,14868 14847,14856 14876,14843 14904,14829 14932,14814 14962,14799 14992,14785 15024,14767 15056,14749 15087,14732 15059,14285 15008,13910 14930,13603 Z"/></g><g style="stroke:none;fill:rgb(238,17,17)"><path d="M 14603,12768 L 14603,12768 C 14432,12439 14199,12108 13905,11778 13548,11380 13162,11065 12745,10835 L 10464,14455 10464,14455 C 10282,14746 10329,14946 10601,15055 10804,15087 11077,15113 11423,15138 11794,15162 12231,15180 12735,15193 12951,15199 13169,15197 13384,15185 13946,15151 14425,15046 14819,14868 14884,14175 14811,13475 14603,12768 Z"/></g><g style="stroke:none;fill:rgb(255,255,255)"><path d="M 13101,13510 L 13101,13510 C 13141,13255 13078,13028 12915,12828 12648,12502 12301,12360 11873,12399 11692,12416 11576,12506 11519,12666 11382,13063 11481,13395 11815,13660 12153,13928 12518,13984 12910,13828 12761,13853 12621,13826 12492,13748 12290,13631 12197,13455 12214,13224 12227,13043 12326,12975 12517,13022 12781,13080 12975,13244 13101,13510 Z"/></g><g style="stroke:none;fill:rgb(0,0,0)"><path d="M 12517,13022 L 12517,13022 C 12326,12975 12227,13043 12214,13224 12197,13455 12290,13631 12492,13748 12621,13826 12761,13853 12910,13828 13018,13768 13081,13679 13096,13559 13098,13543 13099,13525 13101,13510 12975,13244 12781,13080 12517,13022 Z"/></g><g style="stroke:none;fill:rgb(255,153,68)"><path d="M 9601,12034 L 9601,12034 C 9304,11783 8936,11701 8497,11788 8059,11875 7676,12105 7349,12478 7024,12851 6850,13258 6830,13698 6810,14141 6947,14486 7244,14738 7541,14989 7908,15071 8348,14984 8787,14898 9169,14669 9495,14296 9821,13921 9993,13514 10013,13074 10034,12631 9897,12286 9601,12034 Z"/></g><g style="stroke:none;fill:rgb(238,238,0)"><path d="M 9109,12884 L 9109,12884 C 9100,12657 9011,12498 8841,12406 8669,12315 8467,12317 8234,12413 8002,12510 7806,12674 7647,12900 7487,13129 7413,13357 7422,13583 7431,13809 7521,13968 7692,14060 7863,14151 8065,14149 8298,14053 8531,13957 8726,13793 8884,13566 9044,13337 9118,13109 9109,12884 Z"/></g></g></g></g></svg>