<?xml version="1.0" encoding="UTF-8"?>
<!DOCTYPE svg PUBLIC "-//W3C//DTD SVG 1.1//EN" "http://www.w3.org/Graphics/SVG/1.1/DTD/svg11.dtd"><svg version="1.1" viewBox="0 0 21000 29700" preserveAspectRatio="xMidYMid" fill-rule="evenodd" xmlns="http://www.w3.org/2000/svg" xmlns:xlink="http://www.w3.org/1999/xlink"><g visibility="visible" id="Default"><desc>Master slide</desc><g style="stroke:none;fill:none"><rect x="0" y="0" width="21000" height="29700"/></g></g><g visibility="visible" id="page1"><desc>Slide</desc><g><desc>Graphic</desc><g><g style="stroke:none;fill:rgb(238,17,17)"><path d="M 14475,12553 L 14475,12553 C 14276,12216 14029,11898 13732,11601 12837,10708 11758,10261 10493,10263 9228,10261 8148,10708 7253,11601 6358,12494 5911,13573 5913,14836 5913,15933 6251,16891 6925,17709 9797,19326 12510,18252 15063,14492 15062,14490 15062,14486 15062,14484 15013,13779 14817,13135 14475,12553 Z"/></g><g style="stroke:none;fill:rgb(187,0,0)"><path d="M 15063,14494 L 15063,14492 15063,14492 C 12510,18252 9797,19326 6925,17709 7024,17827 7128,17943 7241,18056 7246,18056 7250,18056 7255,18058 L 7253,18070 7253,18070 C 7508,18323 7778,18542 8062,18724 8211,18818 8364,18902 8520,18979 8558,18997 8595,19015 8633,19031 9200,19283 9821,19410 10493,19410 11758,19410 12837,18963 13732,18070 13802,17998 13872,17925 13938,17852 14032,17743 14124,17634 14208,17521 14224,17499 14238,17476 14255,17457 14358,17312 14451,17164 14536,17012 14768,16589 14925,16137 15008,15653 15037,15481 15056,15306 15065,15130 15070,15032 15074,14934 15074,14836 15074,14720 15070,14606 15063,14494 Z"/></g><g style="stroke:none;fill:rgb(0,0,0)"><path d="M 14144,12163 L 12484,13507 12484,13507 C 13472,14389 14062,14940 14252,15157 14557,15513 14746,15812 14816,16053 L 14817,16054 14817,16054 C 14835,16121 14845,16184 14846,16242 L 14833,16359 14833,16359 C 14831,16368 14828,16378 14826,16389 14813,16431 14793,16470 14766,16506 14931,16528 15022,16466 15036,16319 15040,16272 15038,16203 15027,16115 15016,16008 15009,15942 15008,15916 15112,15649 15262,15267 15462,14766 15880,13715 15439,12847 14144,12163 Z"/></g><g style="stroke:none;fill:rgb(102,102,102)"><path d="M 14252,15157 L 14252,15157 C 14062,14940 13472,14389 12484,13507 L 12484,13507 10566,15021 10597,15060 10597,15060 C 10751,15218 10913,15364 11085,15496 13436,16090 14492,15977 14252,15157 Z"/></g><g style="stroke:none;fill:rgb(119,119,119)"><path d="M 14817,16054 L 14816,16053 14816,16053 C 14746,15812 14557,15513 14252,15157 14492,15977 13436,16090 11085,15496 11418,15757 11789,15972 12193,16147 12254,16175 12301,16193 12333,16205 12526,16280 12739,16343 12966,16392 13070,16416 13156,16433 13223,16446 13455,16496 13670,16528 13868,16549 14179,16580 14440,16573 14654,16530 14660,16530 14667,16528 14674,16528 14704,16523 14736,16515 14766,16506 14793,16470 14813,16431 14826,16389 14828,16378 14831,16368 14833,16359 L 14846,16242 14846,16242 C 14845,16184 14835,16121 14817,16054 Z"/></g><g style="stroke:rgb(0,255,0);stroke-width:2;stroke-linejoin:round;fill:rgb(255,255,255)"><path style="fill:none" d="M 14817,16054 L 14816,16053"/></g><g style="stroke:none;fill:rgb(187,0,0)"><path d="M 14937,13625 L 14937,13625 C 14860,13316 14753,13037 14613,12789 14818,13497 14887,14196 14821,14890 14848,14876 14876,14863 14905,14850 14934,14835 14964,14821 14993,14807 15025,14788 15058,14771 15089,14753 15062,14307 15012,13931 14937,13625 Z"/></g><g style="stroke:none;fill:rgb(238,17,17)"><path d="M 14613,12789 L 14613,12789 C 14444,12458 14212,12127 13919,11795 13565,11396 13179,11079 12764,10847 L 10467,14457 10467,14457 C 10283,14746 10330,14945 10601,15057 10803,15090 11077,15117 11423,15143 11793,15169 12230,15188 12734,15206 12950,15213 13167,15211 13384,15199 13945,15168 14425,15065 14821,14890 14887,14196 14818,13497 14613,12789 Z"/></g><g style="stroke:none;fill:rgb(255,255,255)"><path d="M 13101,13510 L 13101,13510 C 13141,13255 13078,13028 12915,12828 12648,12502 12301,12360 11873,12399 11692,12416 11576,12506 11519,12666 11382,13063 11481,13395 11815,13660 12153,13928 12518,13984 12910,13828 12761,13853 12621,13826 12492,13748 12290,13631 12197,13455 12214,13224 12227,13043 12326,12975 12517,13022 12781,13080 12975,13244 13101,13510 Z"/></g><g style="stroke:none;fill:rgb(0,0,0)"><path d="M 12517,13022 L 12517,13022 C 12326,12975 12227,13043 12214,13224 12197,13455 12290,13631 12492,13748 12621,13826 12761,13853 12910,13828 13018,13768 13081,13679 13096,13559 13098,13543 13099,13525 13101,13510 12975,13244 12781,13080 12517,13022 Z"/></g><g style="stroke:none;fill:rgb(255,153,68)"><path d="M 9601,12034 L 9601,12034 C 9304,11783 8936,11701 8497,11788 8059,11875 7676,12105 7349,12478 7024,12851 6850,13258 6830,13698 6810,14141 6947,14486 7244,14738 7541,14989 7908,15071 8348,14984 8787,14898 9169,14669 9495,14296 9821,13921 9993,13514 10013,13074 10034,12631 9897,12286 9601,12034 Z"/></g><g style="stroke:none;fill:rgb(238,238,0)"><path d="M 9109,12884 L 9109,12884 C 9100,12657 9011,12498 8841,12406 8669,12315 8467,12317 8234,12413 8002,12510 7806,12674 7647,12900 7487,13129 7413,13357 7422,13583 7431,13809 7521,13968 7692,14060 7863,14151 8065,14149 8298,14053 8531,13957 8726,13793 8884,13566 9044,13337 9118,13109 9109,12884 Z"/></g></g></g></g></svg>