<?xml version="1.0" encoding="UTF-8"?>
<!DOCTYPE svg PUBLIC "-//W3C//DTD SVG 1.1//EN" "http://www.w3.org/Graphics/SVG/1.1/DTD/svg11.dtd"><svg version="1.1" viewBox="0 0 21000 29700" preserveAspectRatio="xMidYMid" fill-rule="evenodd" xmlns="http://www.w3.org/2000/svg" xmlns:xlink="http://www.w3.org/1999/xlink"><g visibility="visible" id="Default"><desc>Master slide</desc><g style="stroke:none;fill:none"><rect x="0" y="0" width="21000" height="29700"/></g></g><g visibility="visible" id="page1"><desc>Slide</desc><g><desc>Graphic</desc><g><g style="stroke:none;fill:rgb(238,17,17)"><path d="M 14475,12553 L 14475,12553 C 14276,12216 14029,11898 13732,11601 12837,10708 11758,10261 10493,10263 9228,10261 8148,10708 7253,11601 6358,12494 5911,13573 5913,14836 5913,15933 6251,16891 6925,17709 9797,19326 12510,18252 15063,14492 15062,14490 15062,14486 15062,14484 15013,13779 14817,13135 14475,12553 Z"/></g><g style="stroke:none;fill:rgb(187,0,0)"><path d="M 15063,14494 L 15063,14492 15063,14492 C 12510,18252 9797,19326 6925,17709 7024,17827 7128,17943 7241,18056 7246,18056 7250,18056 7255,18058 L 7253,18070 7253,18070 C 7508,18323 7778,18542 8062,18724 8211,18818 8364,18902 8520,18979 8558,18997 8595,19015 8633,19031 9200,19283 9821,19410 10493,19410 11758,19410 12837,18963 13732,18070 13802,17998 13872,17925 13938,17852 14032,17743 14124,17634 14208,17521 14224,17499 14238,17476 14255,17457 14358,17312 14451,17164 14536,17012 14768,16589 14925,16137 15008,15653 15037,15481 15056,15306 15065,15130 15070,15032 15074,14934 15074,14836 15074,14720 15070,14606 15063,14494 Z"/></g><g style="stroke:none;fill:rgb(0,0,0)"><path d="M 14860,13570 L 12870,14255 12870,14255 C 13487,15406 13846,16113 13947,16378 14110,16813 14184,17152 14167,17398 L 14167,17400 14167,17400 C 14162,17468 14150,17529 14133,17584 L 14080,17688 14080,17688 C 14075,17697 14068,17703 14063,17712 14037,17747 14005,17777 13969,17801 14114,17878 14218,17850 14281,17719 14300,17678 14321,17613 14342,17528 14368,17425 14383,17360 14393,17336 14578,17125 14847,16821 15201,16426 15944,15592 15830,14640 14860,13570 Z"/></g><g style="stroke:none;fill:rgb(102,102,102)"><path d="M 13947,16378 L 13947,16378 C 13846,16113 13487,15406 12870,14255 L 12870,14255 10580,15010 10597,15056 10597,15056 C 10686,15254 10786,15444 10900,15624 12877,16968 13893,17219 13947,16378 Z"/></g><g style="stroke:none;fill:rgb(119,119,119)"><path d="M 14167,17400 L 14167,17398 14167,17398 C 14184,17152 14110,16813 13947,16378 13893,17219 12877,16968 10900,15624 11122,15977 11391,16303 11707,16601 11754,16647 11791,16680 11817,16703 11970,16837 12146,16966 12340,17088 12428,17146 12502,17191 12560,17226 12758,17350 12945,17453 13121,17538 13399,17672 13644,17754 13857,17787 13862,17789 13869,17789 13874,17790 13906,17796 13937,17799 13969,17801 14005,17777 14037,17747 14063,17712 14068,17703 14075,17697 14080,17688 L 14133,17584 14133,17584 C 14150,17529 14162,17468 14167,17400 Z"/></g><g style="stroke:rgb(0,255,0);stroke-width:2;stroke-linejoin:round;fill:rgb(255,255,255)"><path style="fill:none" d="M 14167,17400 L 14167,17398"/></g><g style="stroke:none;fill:rgb(187,0,0)"><path d="M 14847,13371 L 14847,13371 C 14752,13068 14629,12794 14475,12553 14720,13250 14829,13947 14802,14644 14829,14630 14857,14616 14885,14600 14913,14584 14941,14569 14971,14552 15001,14532 15033,14513 15063,14493 15011,14048 14940,13675 14847,13371 Z"/></g><g style="stroke:none;fill:rgb(238,17,17)"><path d="M 14475,12553 L 14475,12553 C 14287,12231 14037,11913 13725,11599 13348,11218 12945,10923 12517,10715 L 10429,14461 10429,14461 C 10263,14761 10320,14959 10598,15054 10802,15075 11076,15088 11424,15093 11795,15098 12233,15093 12737,15081 12954,15075 13170,15061 13385,15037 13945,14974 14418,14843 14802,14644 14829,13947 14720,13250 14475,12553 Z"/></g><g style="stroke:none;fill:rgb(255,255,255)"><path d="M 13101,13510 L 13101,13510 C 13141,13255 13078,13028 12915,12828 12648,12502 12301,12360 11873,12399 11692,12416 11576,12506 11519,12666 11382,13063 11481,13395 11815,13660 12153,13928 12518,13984 12910,13828 12761,13853 12621,13826 12492,13748 12290,13631 12197,13455 12214,13224 12227,13043 12326,12975 12517,13022 12781,13080 12975,13244 13101,13510 Z"/></g><g style="stroke:none;fill:rgb(0,0,0)"><path d="M 12517,13022 L 12517,13022 C 12326,12975 12227,13043 12214,13224 12197,13455 12290,13631 12492,13748 12621,13826 12761,13853 12910,13828 13018,13768 13081,13679 13096,13559 13098,13543 13099,13525 13101,13510 12975,13244 12781,13080 12517,13022 Z"/></g><g style="stroke:none;fill:rgb(255,153,68)"><path d="M 9601,12034 L 9601,12034 C 9304,11783 8936,11701 8497,11788 8059,11875 7676,12105 7349,12478 7024,12851 6850,13258 6830,13698 6810,14141 6947,14486 7244,14738 7541,14989 7908,15071 8348,14984 8787,14898 9169,14669 9495,14296 9821,13921 9993,13514 10013,13074 10034,12631 9897,12286 9601,12034 Z"/></g><g style="stroke:none;fill:rgb(238,238,0)"><path d="M 9109,12884 L 9109,12884 C 9100,12657 9011,12498 8841,12406 8669,12315 8467,12317 8234,12413 8002,12510 7806,12674 7647,12900 7487,13129 7413,13357 7422,13583 7431,13809 7521,13968 7692,14060 7863,14151 8065,14149 8298,14053 8531,13957 8726,13793 8884,13566 9044,13337 9118,13109 9109,12884 Z"/></g></g></g></g></svg>