<?xml version="1.0" encoding="UTF-8"?>
<!DOCTYPE svg PUBLIC "-//W3C//DTD SVG 1.1//EN" "http://www.w3.org/Graphics/SVG/1.1/DTD/svg11.dtd"><svg version="1.1" viewBox="0 0 21000 29700" preserveAspectRatio="xMidYMid" fill-rule="evenodd" xmlns="http://www.w3.org/2000/svg" xmlns:xlink="http://www.w3.org/1999/xlink"><g visibility="visible" id="Default"><desc>Master slide</desc><g style="stroke:none;fill:none"><rect x="0" y="0" width="21000" height="29700"/></g></g><g visibility="visible" id="page1"><desc>Slide</desc><g><desc>Graphic</desc><g><g style="stroke:none;fill:rgb(238,17,17)"><path d="M 14475,12553 L 14475,12553 C 14276,12216 14029,11898 13732,11601 12837,10708 11758,10261 10493,10263 9228,10261 8148,10708 7253,11601 6358,12494 5911,13573 5913,14836 5913,15933 6251,16891 6925,17709 9797,19326 12510,18252 15063,14492 15062,14490 15062,14486 15062,14484 15013,13779 14817,13135 14475,12553 Z"/></g><g style="stroke:none;fill:rgb(187,0,0)"><path d="M 15063,14494 L 15063,14492 15063,14492 C 12510,18252 9797,19326 6925,17709 7024,17827 7128,17943 7241,18056 7246,18056 7250,18056 7255,18058 L 7253,18070 7253,18070 C 7508,18323 7778,18542 8062,18724 8211,18818 8364,18902 8520,18979 8558,18997 8595,19015 8633,19031 9200,19283 9821,19410 10493,19410 11758,19410 12837,18963 13732,18070 13802,17998 13872,17925 13938,17852 14032,17743 14124,17634 14208,17521 14224,17499 14238,17476 14255,17457 14358,17312 14451,17164 14536,17012 14768,16589 14925,16137 15008,15653 15037,15481 15056,15306 15065,15130 15070,15032 15074,14934 15074,14836 15074,14720 15070,14606 15063,14494 Z"/></g><g style="stroke:none;fill:rgb(0,0,0)"><path d="M 14778,13326 L 12825,14125 12825,14125 C 13508,15242 13909,15929 14025,16189 14212,16613 14306,16950 14304,17197 L 14304,17199 14304,17199 C 14302,17267 14294,17328 14280,17383 L 14233,17492 14233,17492 C 14228,17500 14222,17508 14217,17517 14193,17553 14163,17585 14128,17611 14278,17680 14380,17645 14436,17512 14452,17469 14471,17402 14487,17315 14506,17212 14518,17146 14526,17121 14699,16899 14950,16581 15282,16165 15977,15288 15810,14342 14778,13326 Z"/></g><g style="stroke:none;fill:rgb(102,102,102)"><path d="M 14025,16189 L 14025,16189 C 13909,15929 13508,15242 12825,14125 L 12825,14125 10577,15012 10596,15057 10596,15057 C 10696,15250 10809,15434 10932,15608 12988,16839 14019,17033 14025,16189 Z"/></g><g style="stroke:none;fill:rgb(119,119,119)"><path d="M 14304,17199 L 14304,17197 14304,17197 C 14306,16950 14212,16613 14025,16189 14019,17033 12988,16839 10932,15608 11175,15949 11463,16260 11796,16540 11846,16582 11885,16613 11912,16636 12074,16760 12255,16880 12458,16990 12549,17043 12625,17084 12685,17116 12891,17229 13084,17320 13265,17396 13551,17515 13801,17583 14015,17604 14021,17605 14028,17605 14033,17606 14065,17610 14096,17611 14128,17611 14163,17585 14193,17553 14217,17517 14222,17508 14228,17500 14233,17492 L 14280,17383 14280,17383 C 14294,17328 14302,17267 14304,17199 Z"/></g><g style="stroke:rgb(0,255,0);stroke-width:2;stroke-linejoin:round;fill:rgb(255,255,255)"><path style="fill:none" d="M 14304,17199 L 14304,17197"/></g><g style="stroke:none;fill:rgb(187,0,0)"><path d="M 14860,13410 L 14860,13410 C 14768,13105 14646,12832 14495,12589 14733,13287 14837,13985 14803,14683 14831,14669 14859,14655 14887,14638 14915,14622 14943,14607 14973,14591 15003,14572 15036,14552 15066,14533 15018,14087 14949,13715 14860,13410 Z"/></g><g style="stroke:none;fill:rgb(238,17,17)"><path d="M 14495,12589 L 14495,12589 C 14310,12265 14063,11946 13754,11628 13380,11245 12980,10947 12554,10734 L 10432,14459 10432,14459 C 10264,14757 10320,14956 10596,15054 10799,15077 11075,15091 11422,15100 11793,15109 12231,15107 12735,15099 12952,15096 13168,15084 13383,15063 13944,15003 14417,14877 14803,14683 14837,13985 14733,13287 14495,12589 Z"/></g><g style="stroke:none;fill:rgb(255,255,255)"><path d="M 13101,13510 L 13101,13510 C 13141,13255 13078,13028 12915,12828 12648,12502 12301,12360 11873,12399 11692,12416 11576,12506 11519,12666 11382,13063 11481,13395 11815,13660 12153,13928 12518,13984 12910,13828 12761,13853 12621,13826 12492,13748 12290,13631 12197,13455 12214,13224 12227,13043 12326,12975 12517,13022 12781,13080 12975,13244 13101,13510 Z"/></g><g style="stroke:none;fill:rgb(0,0,0)"><path d="M 12517,13022 L 12517,13022 C 12326,12975 12227,13043 12214,13224 12197,13455 12290,13631 12492,13748 12621,13826 12761,13853 12910,13828 13018,13768 13081,13679 13096,13559 13098,13543 13099,13525 13101,13510 12975,13244 12781,13080 12517,13022 Z"/></g><g style="stroke:none;fill:rgb(255,153,68)"><path d="M 9601,12034 L 9601,12034 C 9304,11783 8936,11701 8497,11788 8059,11875 7676,12105 7349,12478 7024,12851 6850,13258 6830,13698 6810,14141 6947,14486 7244,14738 7541,14989 7908,15071 8348,14984 8787,14898 9169,14669 9495,14296 9821,13921 9993,13514 10013,13074 10034,12631 9897,12286 9601,12034 Z"/></g><g style="stroke:none;fill:rgb(238,238,0)"><path d="M 9109,12884 L 9109,12884 C 9100,12657 9011,12498 8841,12406 8669,12315 8467,12317 8234,12413 8002,12510 7806,12674 7647,12900 7487,13129 7413,13357 7422,13583 7431,13809 7521,13968 7692,14060 7863,14151 8065,14149 8298,14053 8531,13957 8726,13793 8884,13566 9044,13337 9118,13109 9109,12884 Z"/></g></g></g></g></svg>