<?xml version="1.0" encoding="UTF-8"?>
<!DOCTYPE svg PUBLIC "-//W3C//DTD SVG 1.1//EN" "http://www.w3.org/Graphics/SVG/1.1/DTD/svg11.dtd"><svg version="1.1" viewBox="0 0 21000 29700" preserveAspectRatio="xMidYMid" fill-rule="evenodd" xmlns="http://www.w3.org/2000/svg" xmlns:xlink="http://www.w3.org/1999/xlink"><g visibility="visible" id="Default"><desc>Master slide</desc><g style="stroke:none;fill:none"><rect x="0" y="0" width="21000" height="29700"/></g></g><g visibility="visible" id="page1"><desc>Slide</desc><g><desc>Graphic</desc><g><g style="stroke:none;fill:rgb(238,17,17)"><path d="M 14475,12553 L 14475,12553 C 14276,12216 14029,11898 13732,11601 12837,10708 11758,10261 10493,10263 9228,10261 8148,10708 7253,11601 6358,12494 5911,13573 5913,14836 5913,15933 6251,16891 6925,17709 9797,19326 12510,18252 15063,14492 15062,14490 15062,14486 15062,14484 15013,13779 14817,13135 14475,12553 Z"/></g><g style="stroke:none;fill:rgb(187,0,0)"><path d="M 15063,14494 L 15063,14492 15063,14492 C 12510,18252 9797,19326 6925,17709 7024,17827 7128,17943 7241,18056 7246,18056 7250,18056 7255,18058 L 7253,18070 7253,18070 C 7508,18323 7778,18542 8062,18724 8211,18818 8364,18902 8520,18979 8558,18997 8595,19015 8633,19031 9200,19283 9821,19410 10493,19410 11758,19410 12837,18963 13732,18070 13802,17998 13872,17925 13938,17852 14032,17743 14124,17634 14208,17521 14224,17499 14238,17476 14255,17457 14358,17312 14451,17164 14536,17012 14768,16589 14925,16137 15008,15653 15037,15481 15056,15306 15065,15130 15070,15032 15074,14934 15074,14836 15074,14720 15070,14606 15063,14494 Z"/></g><g style="stroke:none;fill:rgb(0,0,0)"><path d="M 14682,13086 L 12773,13997 12773,13997 C 13521,15075 13961,15740 14092,15994 14304,16409 14416,16739 14429,16986 L 14429,16988 14429,16988 C 14432,17057 14427,17119 14416,17176 L 14375,17286 14375,17286 C 14371,17295 14365,17302 14361,17312 14339,17350 14310,17382 14277,17411 14430,17471 14532,17432 14579,17294 14593,17249 14607,17184 14619,17095 14633,16989 14641,16924 14647,16899 14807,16667 15041,16333 15349,15897 15994,14980 15772,14043 14682,13086 Z"/></g><g style="stroke:none;fill:rgb(102,102,102)"><path d="M 14092,15994 L 14092,15994 C 13961,15740 13521,15075 12773,13997 L 12773,13997 10574,15012 10596,15057 10596,15057 C 10706,15245 10830,15422 10964,15588 13091,16705 14135,16838 14092,15994 Z"/></g><g style="stroke:none;fill:rgb(119,119,119)"><path d="M 14429,16988 L 14429,16986 14429,16986 C 14416,16739 14304,16409 14092,15994 14135,16838 13091,16705 10964,15588 11226,15917 11532,16211 11882,16473 11934,16513 11974,16541 12003,16562 12172,16677 12361,16787 12570,16887 12663,16933 12743,16970 12804,16998 13017,17099 13215,17181 13401,17245 13694,17348 13946,17401 14163,17410 14168,17411 14175,17410 14182,17411 14213,17414 14244,17414 14277,17411 14310,17382 14339,17350 14361,17312 14365,17302 14371,17295 14375,17286 L 14416,17176 14416,17176 C 14427,17119 14432,17057 14429,16988 Z"/></g><g style="stroke:rgb(0,255,0);stroke-width:2;stroke-linejoin:round;fill:rgb(255,255,255)"><path style="fill:none" d="M 14429,16988 L 14429,16986"/></g><g style="stroke:none;fill:rgb(187,0,0)"><path d="M 14875,13451 L 14875,13451 C 14786,13147 14667,12871 14518,12627 14751,13328 14848,14026 14807,14722 14836,14708 14864,14695 14891,14679 14919,14664 14949,14649 14978,14633 15008,14613 15042,14595 15072,14577 15028,14131 14964,13756 14875,13451 Z"/></g><g style="stroke:none;fill:rgb(238,17,17)"><path d="M 14518,12627 L 14518,12627 C 14336,12303 14091,11981 13786,11662 13416,11274 13018,10973 12594,10756 L 10440,14460 10440,14460 C 10268,14757 10322,14955 10597,15056 10800,15081 11076,15098 11422,15110 11793,15123 12231,15125 12736,15120 12953,15119 13169,15109 13384,15090 13946,15036 14420,14914 14807,14722 14848,14026 14751,13328 14518,12627 Z"/></g><g style="stroke:none;fill:rgb(255,255,255)"><path d="M 13101,13510 L 13101,13510 C 13141,13255 13078,13028 12915,12828 12648,12502 12301,12360 11873,12399 11692,12416 11576,12506 11519,12666 11382,13063 11481,13395 11815,13660 12153,13928 12518,13984 12910,13828 12761,13853 12621,13826 12492,13748 12290,13631 12197,13455 12214,13224 12227,13043 12326,12975 12517,13022 12781,13080 12975,13244 13101,13510 Z"/></g><g style="stroke:none;fill:rgb(0,0,0)"><path d="M 12517,13022 L 12517,13022 C 12326,12975 12227,13043 12214,13224 12197,13455 12290,13631 12492,13748 12621,13826 12761,13853 12910,13828 13018,13768 13081,13679 13096,13559 13098,13543 13099,13525 13101,13510 12975,13244 12781,13080 12517,13022 Z"/></g><g style="stroke:none;fill:rgb(255,153,68)"><path d="M 9601,12034 L 9601,12034 C 9304,11783 8936,11701 8497,11788 8059,11875 7676,12105 7349,12478 7024,12851 6850,13258 6830,13698 6810,14141 6947,14486 7244,14738 7541,14989 7908,15071 8348,14984 8787,14898 9169,14669 9495,14296 9821,13921 9993,13514 10013,13074 10034,12631 9897,12286 9601,12034 Z"/></g><g style="stroke:none;fill:rgb(238,238,0)"><path d="M 9109,12884 L 9109,12884 C 9100,12657 9011,12498 8841,12406 8669,12315 8467,12317 8234,12413 8002,12510 7806,12674 7647,12900 7487,13129 7413,13357 7422,13583 7431,13809 7521,13968 7692,14060 7863,14151 8065,14149 8298,14053 8531,13957 8726,13793 8884,13566 9044,13337 9118,13109 9109,12884 Z"/></g></g></g></g></svg>