<?xml version="1.0" encoding="UTF-8"?>
<!DOCTYPE svg PUBLIC "-//W3C//DTD SVG 1.1//EN" "http://www.w3.org/Graphics/SVG/1.1/DTD/svg11.dtd"><svg version="1.1" viewBox="0 0 21000 29700" preserveAspectRatio="xMidYMid" fill-rule="evenodd" xmlns="http://www.w3.org/2000/svg" xmlns:xlink="http://www.w3.org/1999/xlink"><g visibility="visible" id="Default"><desc>Master slide</desc><g style="stroke:none;fill:none"><rect x="0" y="0" width="21000" height="29700"/></g></g><g visibility="visible" id="page1"><desc>Slide</desc><g><desc>Graphic</desc><g><g style="stroke:none;fill:rgb(238,17,17)"><path d="M 14475,12553 L 14475,12553 C 14276,12216 14029,11898 13732,11601 12837,10708 11758,10261 10493,10263 9228,10261 8148,10708 7253,11601 6358,12494 5911,13573 5913,14836 5913,15933 6251,16891 6925,17709 9797,19326 12510,18252 15063,14492 15062,14490 15062,14486 15062,14484 15013,13779 14817,13135 14475,12553 Z"/></g><g style="stroke:none;fill:rgb(187,0,0)"><path d="M 15063,14494 L 15063,14492 15063,14492 C 12510,18252 9797,19326 6925,17709 7024,17827 7128,17943 7241,18056 7246,18056 7250,18056 7255,18058 L 7253,18070 7253,18070 C 7508,18323 7778,18542 8062,18724 8211,18818 8364,18902 8520,18979 8558,18997 8595,19015 8633,19031 9200,19283 9821,19410 10493,19410 11758,19410 12837,18963 13732,18070 13802,17998 13872,17925 13938,17852 14032,17743 14124,17634 14208,17521 14224,17499 14238,17476 14255,17457 14358,17312 14451,17164 14536,17012 14768,16589 14925,16137 15008,15653 15037,15481 15056,15306 15065,15130 15070,15032 15074,14934 15074,14836 15074,14720 15070,14606 15063,14494 Z"/></g><g style="stroke:none;fill:rgb(0,0,0)"><path d="M 13507,11466 L 12145,13136 12145,13136 C 13303,13807 13999,14228 14231,14404 14607,14695 14854,14952 14973,15174 L 14974,15175 14974,15175 C 15006,15238 15029,15298 15043,15354 L 15054,15474 15054,15474 C 15054,15484 15052,15493 15052,15504 15048,15549 15037,15591 15018,15632 15186,15621 15262,15540 15246,15393 15240,15346 15222,15278 15195,15192 15163,15089 15141,15024 15136,14998 15183,14715 15254,14306 15348,13769 15543,12644 14929,11877 13507,11466 Z"/></g><g style="stroke:none;fill:rgb(102,102,102)"><path d="M 14231,14404 L 14231,14404 C 13999,14228 13303,13807 12145,13136 L 12145,13136 10559,15027 10597,15059 10597,15059 C 10781,15183 10972,15295 11169,15390 13618,15495 14637,15166 14231,14404 Z"/></g><g style="stroke:none;fill:rgb(119,119,119)"><path d="M 14974,15175 L 14973,15174 14973,15174 C 14854,14952 14607,14695 14231,14404 14637,15166 13618,15495 11169,15390 11553,15578 11964,15718 12400,15807 12466,15821 12515,15829 12550,15836 12757,15869 12979,15887 13216,15888 13321,15892 13411,15892 13480,15891 13720,15891 13938,15880 14139,15860 14452,15826 14710,15767 14913,15681 14918,15680 14924,15676 14930,15673 14961,15662 14990,15648 15018,15632 15037,15591 15048,15549 15052,15504 15052,15493 15054,15484 15054,15474 L 15043,15354 15043,15354 C 15029,15298 15006,15238 14974,15175 Z"/></g><g style="stroke:rgb(0,255,0);stroke-linejoin:round;fill:rgb(255,255,255)"><path style="fill:none" d="M 14974,15175 L 14973,15174"/></g><g style="stroke:none;fill:rgb(187,0,0)"><path d="M 14988,13785 L 14988,13785 C 14922,13475 14825,13192 14694,12939 14873,13652 14918,14353 14826,15043 14854,15030 14884,15019 14912,15005 14941,14993 14972,14980 15001,14966 15034,14949 15068,14933 15101,14917 15089,14470 15053,14093 14988,13785 Z"/></g><g style="stroke:none;fill:rgb(238,17,17)"><path d="M 14694,12939 L 14694,12939 C 14538,12603 14317,12264 14037,11924 13696,11511 13322,11183 12917,10935 L 10491,14454 10491,14454 C 10297,14737 10336,14938 10603,15057 10805,15097 11077,15136 11422,15173 11791,15213 12228,15248 12731,15283 12946,15297 13163,15303 13379,15301 13943,15289 14425,15204 14826,15043 14918,14353 14873,13652 14694,12939 Z"/></g><g style="stroke:none;fill:rgb(255,255,255)"><path d="M 13101,13510 L 13101,13510 C 13141,13255 13078,13028 12915,12828 12648,12502 12301,12360 11873,12399 11692,12416 11576,12506 11519,12666 11382,13063 11481,13395 11815,13660 12153,13928 12518,13984 12910,13828 12761,13853 12621,13826 12492,13748 12290,13631 12197,13455 12214,13224 12227,13043 12326,12975 12517,13022 12781,13080 12975,13244 13101,13510 Z"/></g><g style="stroke:none;fill:rgb(0,0,0)"><path d="M 12517,13022 L 12517,13022 C 12326,12975 12227,13043 12214,13224 12197,13455 12290,13631 12492,13748 12621,13826 12761,13853 12910,13828 13018,13768 13081,13679 13096,13559 13098,13543 13099,13525 13101,13510 12975,13244 12781,13080 12517,13022 Z"/></g><g style="stroke:none;fill:rgb(255,153,68)"><path d="M 9601,12034 L 9601,12034 C 9304,11783 8936,11701 8497,11788 8059,11875 7676,12105 7349,12478 7024,12851 6850,13258 6830,13698 6810,14141 6947,14486 7244,14738 7541,14989 7908,15071 8348,14984 8787,14898 9169,14669 9495,14296 9821,13921 9993,13514 10013,13074 10034,12631 9897,12286 9601,12034 Z"/></g><g style="stroke:none;fill:rgb(238,238,0)"><path d="M 9109,12884 L 9109,12884 C 9100,12657 9011,12498 8841,12406 8669,12315 8467,12317 8234,12413 8002,12510 7806,12674 7647,12900 7487,13129 7413,13357 7422,13583 7431,13809 7521,13968 7692,14060 7863,14151 8065,14149 8298,14053 8531,13957 8726,13793 8884,13566 9044,13337 9118,13109 9109,12884 Z"/></g></g></g></g></svg>