<?xml version="1.0" encoding="UTF-8"?>
<!DOCTYPE svg PUBLIC "-//W3C//DTD SVG 1.1//EN" "http://www.w3.org/Graphics/SVG/1.1/DTD/svg11.dtd"><svg version="1.1" viewBox="0 0 21000 29700" preserveAspectRatio="xMidYMid" fill-rule="evenodd" xmlns="http://www.w3.org/2000/svg" xmlns:xlink="http://www.w3.org/1999/xlink"><g visibility="visible" id="Default"><desc>Master slide</desc><g style="stroke:none;fill:none"><rect x="0" y="0" width="21000" height="29700"/></g></g><g visibility="visible" id="page1"><desc>Slide</desc><g><desc>Graphic</desc><g><g style="stroke:none;fill:rgb(238,17,17)"><path d="M 14475,12553 L 14475,12553 C 14276,12216 14029,11898 13732,11601 12837,10708 11758,10261 10493,10263 9228,10261 8148,10708 7253,11601 6358,12494 5911,13573 5913,14836 5913,15933 6251,16891 6925,17709 9797,19326 12510,18252 15063,14492 15062,14490 15062,14486 15062,14484 15013,13779 14817,13135 14475,12553 Z"/></g><g style="stroke:none;fill:rgb(187,0,0)"><path d="M 15063,14494 L 15063,14492 15063,14492 C 12510,18252 9797,19326 6925,17709 7024,17827 7128,17943 7241,18056 7246,18056 7250,18056 7255,18058 L 7253,18070 7253,18070 C 7508,18323 7778,18542 8062,18724 8211,18818 8364,18902 8520,18979 8558,18997 8595,19015 8633,19031 9200,19283 9821,19410 10493,19410 11758,19410 12837,18963 13732,18070 13802,17998 13872,17925 13938,17852 14032,17743 14124,17634 14208,17521 14224,17499 14238,17476 14255,17457 14358,17312 14451,17164 14536,17012 14768,16589 14925,16137 15008,15653 15037,15481 15056,15306 15065,15130 15070,15032 15074,14934 15074,14836 15074,14720 15070,14606 15063,14494 Z"/></g><g style="stroke:none;fill:rgb(0,0,0)"><path d="M 14302,12385 L 12571,13625 12571,13625 C 13501,14562 14055,15145 14229,15373 14512,15747 14682,16056 14737,16299 L 14737,16301 14737,16301 C 14753,16368 14758,16431 14757,16489 L 14736,16604 14736,16604 C 14734,16615 14729,16624 14726,16634 14711,16675 14690,16713 14661,16747 14823,16779 14917,16723 14940,16577 14946,16531 14948,16462 14944,16374 14939,16266 14936,16199 14938,16174 15057,15916 15229,15543 15459,15057 15938,14035 15553,13145 14302,12385 Z"/></g><g style="stroke:none;fill:rgb(102,102,102)"><path d="M 14229,15373 L 14229,15373 C 14055,15145 13501,14562 12571,13625 L 12571,13625 10567,15016 10597,15056 10597,15056 C 10741,15223 10894,15378 11055,15519 13361,16254 14420,16204 14229,15373 Z"/></g><g style="stroke:none;fill:rgb(119,119,119)"><path d="M 14737,16301 L 14737,16299 14737,16299 C 14682,16056 14512,15747 14229,15373 14420,16204 13361,16254 11055,15519 11373,15798 11728,16037 12120,16236 12180,16265 12225,16287 12256,16302 12445,16388 12652,16462 12876,16524 12977,16556 13062,16578 13128,16595 13357,16658 13567,16704 13764,16736 14071,16786 14332,16796 14549,16765 14554,16766 14561,16764 14567,16764 14598,16760 14630,16754 14661,16747 14690,16713 14711,16675 14726,16634 14729,16624 14734,16615 14736,16604 L 14757,16489 14757,16489 C 14758,16431 14753,16368 14737,16301 Z"/></g><g style="stroke:rgb(0,255,0);stroke-width:2;stroke-linejoin:round;fill:rgb(255,255,255)"><path style="fill:none" d="M 14737,16301 L 14737,16299"/></g><g style="stroke:none;fill:rgb(187,0,0)"><path d="M 14924,13584 L 14924,13584 C 14844,13277 14734,12999 14591,12752 14803,13457 14878,14156 14819,14851 14846,14838 14874,14825 14903,14811 14932,14796 14962,14781 14990,14767 15022,14749 15055,14731 15086,14712 15056,14267 15002,13891 14924,13584 Z"/></g><g style="stroke:none;fill:rgb(238,17,17)"><path d="M 14591,12752 L 14591,12752 C 14420,12421 14186,12093 13890,11765 13531,11368 13144,11054 12727,10825 L 10462,14457 10462,14457 C 10280,14749 10328,14949 10601,15057 10803,15088 11077,15113 11424,15135 11793,15159 12232,15174 12735,15186 12952,15191 13169,15187 13384,15174 13946,15138 14425,15029 14819,14851 14878,14156 14803,13457 14591,12752 Z"/></g><g style="stroke:none;fill:rgb(255,255,255)"><path d="M 13101,13510 L 13101,13510 C 13141,13255 13078,13028 12915,12828 12648,12502 12301,12360 11873,12399 11692,12416 11576,12506 11519,12666 11382,13063 11481,13395 11815,13660 12153,13928 12518,13984 12910,13828 12761,13853 12621,13826 12492,13748 12290,13631 12197,13455 12214,13224 12227,13043 12326,12975 12517,13022 12781,13080 12975,13244 13101,13510 Z"/></g><g style="stroke:none;fill:rgb(0,0,0)"><path d="M 12517,13022 L 12517,13022 C 12326,12975 12227,13043 12214,13224 12197,13455 12290,13631 12492,13748 12621,13826 12761,13853 12910,13828 13018,13768 13081,13679 13096,13559 13098,13543 13099,13525 13101,13510 12975,13244 12781,13080 12517,13022 Z"/></g><g style="stroke:none;fill:rgb(255,153,68)"><path d="M 9601,12034 L 9601,12034 C 9304,11783 8936,11701 8497,11788 8059,11875 7676,12105 7349,12478 7024,12851 6850,13258 6830,13698 6810,14141 6947,14486 7244,14738 7541,14989 7908,15071 8348,14984 8787,14898 9169,14669 9495,14296 9821,13921 9993,13514 10013,13074 10034,12631 9897,12286 9601,12034 Z"/></g><g style="stroke:none;fill:rgb(238,238,0)"><path d="M 9109,12884 L 9109,12884 C 9100,12657 9011,12498 8841,12406 8669,12315 8467,12317 8234,12413 8002,12510 7806,12674 7647,12900 7487,13129 7413,13357 7422,13583 7431,13809 7521,13968 7692,14060 7863,14151 8065,14149 8298,14053 8531,13957 8726,13793 8884,13566 9044,13337 9118,13109 9109,12884 Z"/></g></g></g></g></svg>