<?xml version="1.0" encoding="UTF-8"?>
<!DOCTYPE svg PUBLIC "-//W3C//DTD SVG 1.1//EN" "http://www.w3.org/Graphics/SVG/1.1/DTD/svg11.dtd"><svg version="1.1" viewBox="0 0 21000 29700" preserveAspectRatio="xMidYMid" fill-rule="evenodd" xmlns="http://www.w3.org/2000/svg" xmlns:xlink="http://www.w3.org/1999/xlink"><g visibility="visible" id="Default"><desc>Master slide</desc><g style="stroke:none;fill:none"><rect x="0" y="0" width="21000" height="29700"/></g></g><g visibility="visible" id="page1"><desc>Slide</desc><g><desc>Graphic</desc><g><g style="stroke:none;fill:rgb(238,17,17)"><path d="M 14475,12553 L 14475,12553 C 14276,12216 14029,11898 13732,11601 12837,10708 11758,10261 10493,10263 9228,10261 8148,10708 7253,11601 6358,12494 5911,13573 5913,14836 5913,15933 6251,16891 6925,17709 9797,19326 12510,18252 15063,14492 15062,14490 15062,14486 15062,14484 15013,13779 14817,13135 14475,12553 Z"/></g><g style="stroke:none;fill:rgb(187,0,0)"><path d="M 15063,14494 L 15063,14492 15063,14492 C 12510,18252 9797,19326 6925,17709 7024,17827 7128,17943 7241,18056 7246,18056 7250,18056 7255,18058 L 7253,18070 7253,18070 C 7508,18323 7778,18542 8062,18724 8211,18818 8364,18902 8520,18979 8558,18997 8595,19015 8633,19031 9200,19283 9821,19410 10493,19410 11758,19410 12837,18963 13732,18070 13802,17998 13872,17925 13938,17852 14032,17743 14124,17634 14208,17521 14224,17499 14238,17476 14255,17457 14358,17312 14451,17164 14536,17012 14768,16589 14925,16137 15008,15653 15037,15481 15056,15306 15065,15130 15070,15032 15074,14934 15074,14836 15074,14720 15070,14606 15063,14494 Z"/></g><g style="stroke:none;fill:rgb(0,0,0)"><path d="M 13791,11751 L 12296,13288 12296,13288 C 13385,14052 14039,14530 14254,14725 14602,15047 14824,15322 14922,15553 L 14923,15554 14923,15554 C 14950,15618 14968,15680 14976,15737 L 14977,15856 14977,15856 C 14976,15867 14973,15876 14972,15886 14965,15930 14949,15971 14927,16011 15095,16014 15177,15940 15174,15792 15172,15745 15161,15677 15141,15590 15117,15484 15103,15418 15099,15392 15170,15115 15276,14715 15416,14194 15707,13094 15166,12281 13791,11751 Z"/></g><g style="stroke:none;fill:rgb(102,102,102)"><path d="M 14254,14725 L 14254,14725 C 14039,14530 13385,14052 12296,13288 L 12296,13288 10560,15025 10595,15059 10595,15059 C 10767,15198 10948,15325 11133,15436 13551,15752 14590,15514 14254,14725 Z"/></g><g style="stroke:none;fill:rgb(119,119,119)"><path d="M 14923,15554 L 14922,15553 14922,15553 C 14824,15322 14602,15047 14254,14725 14590,15514 13551,15752 11133,15436 11498,15656 11893,15829 12317,15956 12381,15976 12430,15989 12464,15998 12666,16049 12884,16087 13118,16108 13224,16121 13311,16127 13380,16133 13618,16155 13836,16163 14035,16160 14350,16155 14610,16116 14819,16049 14825,16048 14831,16045 14836,16044 14867,16034 14898,16023 14927,16011 14949,15971 14965,15930 14972,15886 14973,15876 14976,15867 14977,15856 L 14976,15737 14976,15737 C 14968,15680 14950,15618 14923,15554 Z"/></g><g style="stroke:rgb(0,255,0);stroke-width:2;stroke-linejoin:round;fill:rgb(255,255,255)"><path style="fill:none" d="M 14923,15554 L 14922,15553"/></g><g style="stroke:none;fill:rgb(187,0,0)"><path d="M 14964,13704 L 14964,13704 C 14893,13395 14789,13114 14654,12864 14846,13574 14903,14274 14824,14966 14851,14953 14881,14941 14910,14927 14939,14913 14969,14899 14998,14887 15031,14868 15064,14851 15096,14834 15077,14389 15034,14012 14964,13704 Z"/></g><g style="stroke:none;fill:rgb(238,17,17)"><path d="M 14654,12864 L 14654,12864 C 14492,12530 14266,12195 13979,11859 13632,11453 13251,11130 12842,10891 L 10480,14454 10480,14454 C 10292,14741 10334,14941 10603,15057 10805,15093 11078,15126 11424,15157 11793,15190 12230,15218 12734,15243 12949,15254 13166,15256 13382,15249 13945,15228 14426,15134 14824,14966 14903,14274 14846,13574 14654,12864 Z"/></g><g style="stroke:none;fill:rgb(255,255,255)"><path d="M 13101,13510 L 13101,13510 C 13141,13255 13078,13028 12915,12828 12648,12502 12301,12360 11873,12399 11692,12416 11576,12506 11519,12666 11382,13063 11481,13395 11815,13660 12153,13928 12518,13984 12910,13828 12761,13853 12621,13826 12492,13748 12290,13631 12197,13455 12214,13224 12227,13043 12326,12975 12517,13022 12781,13080 12975,13244 13101,13510 Z"/></g><g style="stroke:none;fill:rgb(0,0,0)"><path d="M 12517,13022 L 12517,13022 C 12326,12975 12227,13043 12214,13224 12197,13455 12290,13631 12492,13748 12621,13826 12761,13853 12910,13828 13018,13768 13081,13679 13096,13559 13098,13543 13099,13525 13101,13510 12975,13244 12781,13080 12517,13022 Z"/></g><g style="stroke:none;fill:rgb(255,153,68)"><path d="M 9601,12034 L 9601,12034 C 9304,11783 8936,11701 8497,11788 8059,11875 7676,12105 7349,12478 7024,12851 6850,13258 6830,13698 6810,14141 6947,14486 7244,14738 7541,14989 7908,15071 8348,14984 8787,14898 9169,14669 9495,14296 9821,13921 9993,13514 10013,13074 10034,12631 9897,12286 9601,12034 Z"/></g><g style="stroke:none;fill:rgb(238,238,0)"><path d="M 9109,12884 L 9109,12884 C 9100,12657 9011,12498 8841,12406 8669,12315 8467,12317 8234,12413 8002,12510 7806,12674 7647,12900 7487,13129 7413,13357 7422,13583 7431,13809 7521,13968 7692,14060 7863,14151 8065,14149 8298,14053 8531,13957 8726,13793 8884,13566 9044,13337 9118,13109 9109,12884 Z"/></g></g></g></g></svg>