<?xml version="1.0" encoding="UTF-8"?>
<!DOCTYPE svg PUBLIC "-//W3C//DTD SVG 1.1//EN" "http://www.w3.org/Graphics/SVG/1.1/DTD/svg11.dtd"><svg version="1.1" viewBox="0 0 21000 29700" preserveAspectRatio="xMidYMid" fill-rule="evenodd" xmlns="http://www.w3.org/2000/svg" xmlns:xlink="http://www.w3.org/1999/xlink"><g visibility="visible" id="Default"><desc>Master slide</desc><g style="stroke:none;fill:none"><rect x="0" y="0" width="21000" height="29700"/></g></g><g visibility="visible" id="page1"><desc>Slide</desc><g><desc>Graphic</desc><g><g style="stroke:none;fill:rgb(238,17,17)"><path d="M 14475,12553 L 14475,12553 C 14276,12216 14029,11898 13732,11601 12837,10708 11758,10261 10493,10263 9228,10261 8148,10708 7253,11601 6358,12494 5911,13573 5913,14836 5913,15933 6251,16891 6925,17709 9797,19326 12510,18252 15063,14492 15062,14490 15062,14486 15062,14484 15013,13779 14817,13135 14475,12553 Z"/></g><g style="stroke:none;fill:rgb(187,0,0)"><path d="M 15063,14494 L 15063,14492 15063,14492 C 12510,18252 9797,19326 6925,17709 7024,17827 7128,17943 7241,18056 7246,18056 7250,18056 7255,18058 L 7253,18070 7253,18070 C 7508,18323 7778,18542 8062,18724 8211,18818 8364,18902 8520,18979 8558,18997 8595,19015 8633,19031 9200,19283 9821,19410 10493,19410 11758,19410 12837,18963 13732,18070 13802,17998 13872,17925 13938,17852 14032,17743 14124,17634 14208,17521 14224,17499 14238,17476 14255,17457 14358,17312 14451,17164 14536,17012 14768,16589 14925,16137 15008,15653 15037,15481 15056,15306 15065,15130 15070,15032 15074,14934 15074,14836 15074,14720 15070,14606 15063,14494 Z"/></g><g style="stroke:none;fill:rgb(0,0,0)"><path d="M 14440,12608 L 12644,13743 12644,13743 C 13517,14731 14034,15343 14196,15580 14456,15968 14608,16286 14649,16530 L 14649,16532 14649,16532 C 14660,16600 14662,16663 14657,16721 L 14631,16835 14631,16835 C 14628,16844 14623,16853 14620,16864 14602,16903 14578,16940 14547,16973 14708,17014 14804,16963 14836,16819 14845,16774 14850,16706 14851,16616 14853,16510 14853,16443 14856,16417 14989,16167 15183,15806 15439,15335 15974,14345 15641,13436 14440,12608 Z"/></g><g style="stroke:none;fill:rgb(102,102,102)"><path d="M 14196,15580 L 14196,15580 C 14034,15343 13517,14731 12644,13743 L 12644,13743 10569,15015 10596,15056 10596,15056 C 10729,15231 10874,15394 11027,15544 13281,16406 14339,16418 14196,15580 Z"/></g><g style="stroke:none;fill:rgb(119,119,119)"><path d="M 14649,16532 L 14649,16530 14649,16530 C 14608,16286 14456,15968 14196,15580 14339,16418 13281,16406 11027,15544 11327,15841 11667,16099 12046,16318 12104,16351 12147,16375 12179,16392 12361,16489 12563,16575 12783,16649 12882,16685 12964,16713 13029,16734 13253,16810 13460,16868 13654,16911 13958,16978 14218,17001 14434,16984 14440,16985 14447,16983 14452,16984 14485,16982 14516,16978 14547,16973 14578,16940 14602,16903 14620,16864 14623,16853 14628,16844 14631,16835 L 14657,16721 14657,16721 C 14662,16663 14660,16600 14649,16532 Z"/></g><g style="stroke:rgb(0,255,0);stroke-width:2;stroke-linejoin:round;fill:rgb(255,255,255)"><path style="fill:none" d="M 14649,16532 L 14649,16530"/></g><g style="stroke:none;fill:rgb(187,0,0)"><path d="M 14907,13528 L 14907,13528 C 14823,13222 14709,12946 14564,12699 14784,13403 14868,14102 14817,14797 14843,14784 14872,14771 14900,14756 14929,14741 14959,14727 14987,14711 15018,14692 15052,14674 15082,14656 15047,14210 14988,13835 14907,13528 Z"/></g><g style="stroke:none;fill:rgb(238,17,17)"><path d="M 14564,12699 L 14564,12699 C 14387,12373 14150,12047 13850,11721 13486,11327 13095,11020 12675,10796 L 10454,14457 10454,14457 C 10277,14750 10328,14950 10601,15055 10805,15083 11078,15105 11425,15124 11796,15142 12233,15153 12737,15158 12955,15160 13171,15154 13386,15139 13948,15095 14425,14981 14817,14797 14868,14102 14784,13403 14564,12699 Z"/></g><g style="stroke:none;fill:rgb(255,255,255)"><path d="M 13101,13510 L 13101,13510 C 13141,13255 13078,13028 12915,12828 12648,12502 12301,12360 11873,12399 11692,12416 11576,12506 11519,12666 11382,13063 11481,13395 11815,13660 12153,13928 12518,13984 12910,13828 12761,13853 12621,13826 12492,13748 12290,13631 12197,13455 12214,13224 12227,13043 12326,12975 12517,13022 12781,13080 12975,13244 13101,13510 Z"/></g><g style="stroke:none;fill:rgb(0,0,0)"><path d="M 12517,13022 L 12517,13022 C 12326,12975 12227,13043 12214,13224 12197,13455 12290,13631 12492,13748 12621,13826 12761,13853 12910,13828 13018,13768 13081,13679 13096,13559 13098,13543 13099,13525 13101,13510 12975,13244 12781,13080 12517,13022 Z"/></g><g style="stroke:none;fill:rgb(255,153,68)"><path d="M 9601,12034 L 9601,12034 C 9304,11783 8936,11701 8497,11788 8059,11875 7676,12105 7349,12478 7024,12851 6850,13258 6830,13698 6810,14141 6947,14486 7244,14738 7541,14989 7908,15071 8348,14984 8787,14898 9169,14669 9495,14296 9821,13921 9993,13514 10013,13074 10034,12631 9897,12286 9601,12034 Z"/></g><g style="stroke:none;fill:rgb(238,238,0)"><path d="M 9109,12884 L 9109,12884 C 9100,12657 9011,12498 8841,12406 8669,12315 8467,12317 8234,12413 8002,12510 7806,12674 7647,12900 7487,13129 7413,13357 7422,13583 7431,13809 7521,13968 7692,14060 7863,14151 8065,14149 8298,14053 8531,13957 8726,13793 8884,13566 9044,13337 9118,13109 9109,12884 Z"/></g></g></g></g></svg>