<?xml version="1.0" encoding="UTF-8"?>
<!DOCTYPE svg PUBLIC "-//W3C//DTD SVG 1.1//EN" "http://www.w3.org/Graphics/SVG/1.1/DTD/svg11.dtd"><svg version="1.1" viewBox="0 0 21000 29700" preserveAspectRatio="xMidYMid" fill-rule="evenodd" xmlns="http://www.w3.org/2000/svg" xmlns:xlink="http://www.w3.org/1999/xlink"><g visibility="visible" id="Default"><desc>Master slide</desc><g style="stroke:none;fill:none"><rect x="0" y="0" width="21000" height="29700"/></g></g><g visibility="visible" id="page1"><desc>Slide</desc><g><desc>Graphic</desc><g><g style="stroke:none;fill:rgb(238,17,17)"><path d="M 14475,12553 L 14475,12553 C 14276,12216 14029,11898 13732,11601 12837,10708 11758,10261 10493,10263 9228,10261 8148,10708 7253,11601 6358,12494 5911,13573 5913,14836 5913,15933 6251,16891 6925,17709 9797,19326 12510,18252 15063,14492 15062,14490 15062,14486 15062,14484 15013,13779 14817,13135 14475,12553 Z"/></g><g style="stroke:none;fill:rgb(187,0,0)"><path d="M 15063,14494 L 15063,14492 15063,14492 C 12510,18252 9797,19326 6925,17709 7024,17827 7128,17943 7241,18056 7246,18056 7250,18056 7255,18058 L 7253,18070 7253,18070 C 7508,18323 7778,18542 8062,18724 8211,18818 8364,18902 8520,18979 8558,18997 8595,19015 8633,19031 9200,19283 9821,19410 10493,19410 11758,19410 12837,18963 13732,18070 13802,17998 13872,17925 13938,17852 14032,17743 14124,17634 14208,17521 14224,17499 14238,17476 14255,17457 14358,17312 14451,17164 14536,17012 14768,16589 14925,16137 15008,15653 15037,15481 15056,15306 15065,15130 15070,15032 15074,14934 15074,14836 15074,14720 15070,14606 15063,14494 Z"/></g><g style="stroke:none;fill:rgb(0,0,0)"><path d="M 13604,11565 L 12196,13190 12196,13190 C 13331,13892 14013,14334 14238,14517 14605,14818 14844,15080 14956,15306 L 14957,15307 14957,15307 C 14988,15371 15007,15430 15020,15487 L 15028,15607 15028,15607 C 15027,15617 15025,15626 15025,15637 15019,15681 15007,15723 14987,15765 15154,15759 15233,15680 15221,15532 15216,15484 15202,15417 15177,15331 15147,15227 15128,15161 15123,15135 15179,14854 15261,14448 15370,13917 15600,12801 15011,12017 13604,11565 Z"/></g><g style="stroke:none;fill:rgb(102,102,102)"><path d="M 14238,14517 L 14238,14517 C 14013,14334 13331,13892 12196,13190 L 12196,13190 10560,15028 10597,15060 10597,15060 C 10777,15190 10964,15307 11157,15407 13594,15585 14622,15288 14238,14517 Z"/></g><g style="stroke:none;fill:rgb(119,119,119)"><path d="M 14957,15307 L 14956,15306 14956,15306 C 14844,15080 14605,14818 14238,14517 14622,15288 13594,15585 11157,15407 11535,15607 11940,15758 12371,15859 12437,15875 12486,15886 12521,15893 12725,15933 12947,15957 13181,15965 13288,15971 13376,15974 13445,15975 13686,15983 13904,15978 14102,15964 14417,15941 14675,15888 14881,15808 14887,15807 14893,15804 14898,15802 14928,15791 14958,15779 14987,15765 15007,15723 15019,15681 15025,15637 15025,15626 15027,15617 15028,15607 L 15020,15487 15020,15487 C 15007,15430 14988,15371 14957,15307 Z"/></g><g style="stroke:rgb(0,255,0);stroke-width:2;stroke-linejoin:round;fill:rgb(255,255,255)"><path style="fill:none" d="M 14957,15307 L 14956,15306"/></g><g style="stroke:none;fill:rgb(187,0,0)"><path d="M 14979,13758 L 14979,13758 C 14911,13448 14811,13167 14679,12915 14862,13627 14910,14326 14823,15016 14851,15004 14881,14993 14909,14980 14939,14966 14969,14952 14998,14939 15031,14922 15064,14906 15096,14889 15083,14443 15045,14067 14979,13758 Z"/></g><g style="stroke:none;fill:rgb(238,17,17)"><path d="M 14679,12915 L 14679,12915 C 14520,12578 14298,12241 14016,11903 13673,11493 13298,11165 12891,10920 L 10486,14452 10486,14452 C 10294,14736 10334,14937 10602,15056 10803,15094 11075,15131 11421,15166 11789,15205 12227,15237 12730,15268 12945,15283 13163,15287 13378,15283 13941,15267 14422,15180 14823,15016 14910,14326 14862,13627 14679,12915 Z"/></g><g style="stroke:none;fill:rgb(255,255,255)"><path d="M 13101,13510 L 13101,13510 C 13141,13255 13078,13028 12915,12828 12648,12502 12301,12360 11873,12399 11692,12416 11576,12506 11519,12666 11382,13063 11481,13395 11815,13660 12153,13928 12518,13984 12910,13828 12761,13853 12621,13826 12492,13748 12290,13631 12197,13455 12214,13224 12227,13043 12326,12975 12517,13022 12781,13080 12975,13244 13101,13510 Z"/></g><g style="stroke:none;fill:rgb(0,0,0)"><path d="M 12517,13022 L 12517,13022 C 12326,12975 12227,13043 12214,13224 12197,13455 12290,13631 12492,13748 12621,13826 12761,13853 12910,13828 13018,13768 13081,13679 13096,13559 13098,13543 13099,13525 13101,13510 12975,13244 12781,13080 12517,13022 Z"/></g><g style="stroke:none;fill:rgb(255,153,68)"><path d="M 9601,12034 L 9601,12034 C 9304,11783 8936,11701 8497,11788 8059,11875 7676,12105 7349,12478 7024,12851 6850,13258 6830,13698 6810,14141 6947,14486 7244,14738 7541,14989 7908,15071 8348,14984 8787,14898 9169,14669 9495,14296 9821,13921 9993,13514 10013,13074 10034,12631 9897,12286 9601,12034 Z"/></g><g style="stroke:none;fill:rgb(238,238,0)"><path d="M 9109,12884 L 9109,12884 C 9100,12657 9011,12498 8841,12406 8669,12315 8467,12317 8234,12413 8002,12510 7806,12674 7647,12900 7487,13129 7413,13357 7422,13583 7431,13809 7521,13968 7692,14060 7863,14151 8065,14149 8298,14053 8531,13957 8726,13793 8884,13566 9044,13337 9118,13109 9109,12884 Z"/></g></g></g></g></svg>