<?xml version="1.0" encoding="UTF-8"?>
<!DOCTYPE svg PUBLIC "-//W3C//DTD SVG 1.1//EN" "http://www.w3.org/Graphics/SVG/1.1/DTD/svg11.dtd"><svg version="1.1" viewBox="0 0 21000 29700" preserveAspectRatio="xMidYMid" fill-rule="evenodd" xmlns="http://www.w3.org/2000/svg" xmlns:xlink="http://www.w3.org/1999/xlink"><g visibility="visible" id="Default"><desc>Master slide</desc><g style="stroke:none;fill:none"><rect x="0" y="0" width="21000" height="29700"/></g></g><g visibility="visible" id="page1"><desc>Slide</desc><g><desc>Graphic</desc><g><g style="stroke:none;fill:rgb(238,17,17)"><path d="M 14475,12553 L 14475,12553 C 14276,12216 14029,11898 13732,11601 12837,10708 11758,10261 10493,10263 9228,10261 8148,10708 7253,11601 6358,12494 5911,13573 5913,14836 5913,15933 6251,16891 6925,17709 9797,19326 12510,18252 15063,14492 15062,14490 15062,14486 15062,14484 15013,13779 14817,13135 14475,12553 Z"/></g><g style="stroke:none;fill:rgb(187,0,0)"><path d="M 15063,14494 L 15063,14492 15063,14492 C 12510,18252 9797,19326 6925,17709 7024,17827 7128,17943 7241,18056 7246,18056 7250,18056 7255,18058 L 7253,18070 7253,18070 C 7508,18323 7778,18542 8062,18724 8211,18818 8364,18902 8520,18979 8558,18997 8595,19015 8633,19031 9200,19283 9821,19410 10493,19410 11758,19410 12837,18963 13732,18070 13802,17998 13872,17925 13938,17852 14032,17743 14124,17634 14208,17521 14224,17499 14238,17476 14255,17457 14358,17312 14451,17164 14536,17012 14768,16589 14925,16137 15008,15653 15037,15481 15056,15306 15065,15130 15070,15032 15074,14934 15074,14836 15074,14720 15070,14606 15063,14494 Z"/></g><g style="stroke:none;fill:rgb(0,0,0)"><path d="M 14626,12961 L 12744,13930 12744,13930 C 13524,14987 13986,15640 14125,15888 14350,16297 14471,16626 14491,16873 L 14492,16875 14492,16875 C 14496,16943 14493,17004 14484,17061 L 14446,17172 14446,17172 C 14442,17183 14436,17191 14432,17200 14412,17238 14385,17273 14352,17302 14507,17358 14608,17315 14650,17176 14663,17131 14676,17064 14684,16976 14695,16869 14702,16803 14706,16777 14860,16540 15084,16200 15380,15755 15997,14817 15746,13886 14626,12961 Z"/></g><g style="stroke:none;fill:rgb(102,102,102)"><path d="M 14125,15888 L 14125,15888 C 13986,15640 13524,14987 12744,13930 L 12744,13930 10574,15013 10597,15057 10597,15057 C 10714,15241 10842,15416 10981,15578 13145,16631 14193,16733 14125,15888 Z"/></g><g style="stroke:none;fill:rgb(119,119,119)"><path d="M 14492,16875 L 14491,16873 14491,16873 C 14471,16626 14350,16297 14125,15888 14193,16733 13145,16631 10981,15578 11253,15898 11568,16184 11927,16435 11980,16474 12022,16501 12050,16520 12223,16632 12416,16735 12628,16828 12723,16872 12803,16907 12866,16933 13081,17028 13283,17103 13470,17162 13767,17257 14021,17302 14238,17304 14243,17305 14251,17304 14257,17305 14288,17305 14321,17305 14352,17302 14385,17273 14412,17238 14432,17200 14436,17191 14442,17183 14446,17172 L 14484,17061 14484,17061 C 14493,17004 14496,16943 14492,16875 Z"/></g><g style="stroke:rgb(0,255,0);stroke-width:2;stroke-linejoin:round;fill:rgb(255,255,255)"><path style="fill:none" d="M 14492,16875 L 14491,16873"/></g><g style="stroke:none;fill:rgb(187,0,0)"><path d="M 14886,13469 L 14886,13469 C 14797,13164 14681,12888 14532,12643 14762,13345 14854,14043 14813,14740 14839,14725 14867,14712 14896,14697 14924,14681 14953,14666 14983,14651 15013,14631 15046,14613 15076,14594 15035,14148 14972,13774 14886,13469 Z"/></g><g style="stroke:none;fill:rgb(238,17,17)"><path d="M 14532,12643 L 14532,12643 C 14351,12318 14108,11995 13804,11674 13436,11285 13039,10983 12616,10764 L 10445,14458 10445,14458 C 10272,14754 10326,14952 10601,15053 10804,15080 11078,15098 11425,15111 11796,15125 12234,15130 12738,15129 12955,15129 13172,15118 13387,15100 13947,15049 14423,14929 14813,14740 14854,14043 14762,13345 14532,12643 Z"/></g><g style="stroke:none;fill:rgb(255,255,255)"><path d="M 13101,13510 L 13101,13510 C 13141,13255 13078,13028 12915,12828 12648,12502 12301,12360 11873,12399 11692,12416 11576,12506 11519,12666 11382,13063 11481,13395 11815,13660 12153,13928 12518,13984 12910,13828 12761,13853 12621,13826 12492,13748 12290,13631 12197,13455 12214,13224 12227,13043 12326,12975 12517,13022 12781,13080 12975,13244 13101,13510 Z"/></g><g style="stroke:none;fill:rgb(0,0,0)"><path d="M 12517,13022 L 12517,13022 C 12326,12975 12227,13043 12214,13224 12197,13455 12290,13631 12492,13748 12621,13826 12761,13853 12910,13828 13018,13768 13081,13679 13096,13559 13098,13543 13099,13525 13101,13510 12975,13244 12781,13080 12517,13022 Z"/></g><g style="stroke:none;fill:rgb(255,153,68)"><path d="M 9601,12034 L 9601,12034 C 9304,11783 8936,11701 8497,11788 8059,11875 7676,12105 7349,12478 7024,12851 6850,13258 6830,13698 6810,14141 6947,14486 7244,14738 7541,14989 7908,15071 8348,14984 8787,14898 9169,14669 9495,14296 9821,13921 9993,13514 10013,13074 10034,12631 9897,12286 9601,12034 Z"/></g><g style="stroke:none;fill:rgb(238,238,0)"><path d="M 9109,12884 L 9109,12884 C 9100,12657 9011,12498 8841,12406 8669,12315 8467,12317 8234,12413 8002,12510 7806,12674 7647,12900 7487,13129 7413,13357 7422,13583 7431,13809 7521,13968 7692,14060 7863,14151 8065,14149 8298,14053 8531,13957 8726,13793 8884,13566 9044,13337 9118,13109 9109,12884 Z"/></g></g></g></g></svg>