<?xml version="1.0" encoding="UTF-8"?>
<!DOCTYPE svg PUBLIC "-//W3C//DTD SVG 1.1//EN" "http://www.w3.org/Graphics/SVG/1.1/DTD/svg11.dtd"><svg version="1.1" viewBox="0 0 21000 29700" preserveAspectRatio="xMidYMid" fill-rule="evenodd" xmlns="http://www.w3.org/2000/svg" xmlns:xlink="http://www.w3.org/1999/xlink"><g visibility="visible" id="Default"><desc>Master slide</desc><g style="stroke:none;fill:none"><rect x="0" y="0" width="21000" height="29700"/></g></g><g visibility="visible" id="page1"><desc>Slide</desc><g><desc>Graphic</desc><g><g style="stroke:none;fill:rgb(238,17,17)"><path d="M 14475,12553 L 14475,12553 C 14276,12216 14029,11898 13732,11601 12837,10708 11758,10261 10493,10263 9228,10261 8148,10708 7253,11601 6358,12494 5911,13573 5913,14836 5913,15933 6251,16891 6925,17709 9797,19326 12510,18252 15063,14492 15062,14490 15062,14486 15062,14484 15013,13779 14817,13135 14475,12553 Z"/></g><g style="stroke:none;fill:rgb(187,0,0)"><path d="M 15063,14494 L 15063,14492 15063,14492 C 12510,18252 9797,19326 6925,17709 7024,17827 7128,17943 7241,18056 7246,18056 7250,18056 7255,18058 L 7253,18070 7253,18070 C 7508,18323 7778,18542 8062,18724 8211,18818 8364,18902 8520,18979 8558,18997 8595,19015 8633,19031 9200,19283 9821,19410 10493,19410 11758,19410 12837,18963 13732,18070 13802,17998 13872,17925 13938,17852 14032,17743 14124,17634 14208,17521 14224,17499 14238,17476 14255,17457 14358,17312 14451,17164 14536,17012 14768,16589 14925,16137 15008,15653 15037,15481 15056,15306 15065,15130 15070,15032 15074,14934 15074,14836 15074,14720 15070,14606 15063,14494 Z"/></g><g style="stroke:none;fill:rgb(0,0,0)"><path d="M 13705,11663 L 12249,13241 12249,13241 C 13361,13976 14027,14438 14248,14627 14604,14938 14835,15209 14940,15438 L 14940,15439 14940,15439 C 14969,15501 14987,15563 14998,15619 L 15001,15739 15001,15739 C 15001,15749 14999,15759 14998,15770 14991,15813 14978,15855 14957,15895 15124,15894 15205,15818 15197,15670 15194,15623 15182,15555 15158,15468 15133,15364 15116,15298 15112,15271 15176,14993 15269,14590 15396,14063 15658,12956 15095,12155 13705,11663 Z"/></g><g style="stroke:none;fill:rgb(102,102,102)"><path d="M 14248,14627 L 14248,14627 C 14027,14438 13361,13976 12249,13241 L 12249,13241 10559,15026 10596,15059 10596,15059 C 10772,15195 10955,15316 11144,15422 13572,15675 14607,15408 14248,14627 Z"/></g><g style="stroke:none;fill:rgb(119,119,119)"><path d="M 14940,15439 L 14940,15438 14940,15438 C 14835,15209 14604,14938 14248,14627 14607,15408 13572,15675 11144,15422 11515,15633 11914,15796 12342,15912 12407,15929 12456,15941 12492,15949 12694,15996 12914,16027 13148,16041 13255,16050 13343,16056 13412,16059 13650,16075 13867,16077 14068,16067 14382,16054 14642,16010 14850,15936 14854,15936 14860,15932 14866,15931 14898,15921 14927,15908 14957,15895 14978,15855 14991,15813 14998,15770 14999,15759 15001,15749 15001,15739 L 14998,15619 14998,15619 C 14987,15563 14969,15501 14940,15439 Z"/></g><g style="stroke:rgb(0,255,0);stroke-width:2;stroke-linejoin:round;fill:rgb(255,255,255)"><path style="fill:none" d="M 14940,15439 L 14940,15438"/></g><g style="stroke:none;fill:rgb(187,0,0)"><path d="M 14974,13738 L 14974,13738 C 14904,13429 14803,13148 14671,12895 14857,13606 14908,14307 14824,14998 14851,14986 14881,14975 14909,14960 14938,14946 14969,14934 14999,14920 15031,14903 15064,14886 15096,14868 15081,14423 15041,14047 14974,13738 Z"/></g><g style="stroke:none;fill:rgb(238,17,17)"><path d="M 14671,12895 L 14671,12895 C 14510,12561 14287,12225 14002,11887 13658,11478 13281,11152 12873,10909 L 10484,14454 10484,14454 C 10294,14738 10334,14939 10603,15057 10804,15094 11077,15130 11421,15163 11791,15198 12227,15230 12731,15259 12947,15272 13164,15276 13379,15270 13942,15253 14424,15163 14824,14998 14908,14307 14857,13606 14671,12895 Z"/></g><g style="stroke:none;fill:rgb(255,255,255)"><path d="M 13101,13510 L 13101,13510 C 13141,13255 13078,13028 12915,12828 12648,12502 12301,12360 11873,12399 11692,12416 11576,12506 11519,12666 11382,13063 11481,13395 11815,13660 12153,13928 12518,13984 12910,13828 12761,13853 12621,13826 12492,13748 12290,13631 12197,13455 12214,13224 12227,13043 12326,12975 12517,13022 12781,13080 12975,13244 13101,13510 Z"/></g><g style="stroke:none;fill:rgb(0,0,0)"><path d="M 12517,13022 L 12517,13022 C 12326,12975 12227,13043 12214,13224 12197,13455 12290,13631 12492,13748 12621,13826 12761,13853 12910,13828 13018,13768 13081,13679 13096,13559 13098,13543 13099,13525 13101,13510 12975,13244 12781,13080 12517,13022 Z"/></g><g style="stroke:none;fill:rgb(255,153,68)"><path d="M 9601,12034 L 9601,12034 C 9304,11783 8936,11701 8497,11788 8059,11875 7676,12105 7349,12478 7024,12851 6850,13258 6830,13698 6810,14141 6947,14486 7244,14738 7541,14989 7908,15071 8348,14984 8787,14898 9169,14669 9495,14296 9821,13921 9993,13514 10013,13074 10034,12631 9897,12286 9601,12034 Z"/></g><g style="stroke:none;fill:rgb(238,238,0)"><path d="M 9109,12884 L 9109,12884 C 9100,12657 9011,12498 8841,12406 8669,12315 8467,12317 8234,12413 8002,12510 7806,12674 7647,12900 7487,13129 7413,13357 7422,13583 7431,13809 7521,13968 7692,14060 7863,14151 8065,14149 8298,14053 8531,13957 8726,13793 8884,13566 9044,13337 9118,13109 9109,12884 Z"/></g></g></g></g></svg>