<?xml version="1.0" encoding="UTF-8"?>
<!DOCTYPE svg PUBLIC "-//W3C//DTD SVG 1.1//EN" "http://www.w3.org/Graphics/SVG/1.1/DTD/svg11.dtd"><svg version="1.1" viewBox="0 0 21000 29700" preserveAspectRatio="xMidYMid" fill-rule="evenodd" xmlns="http://www.w3.org/2000/svg" xmlns:xlink="http://www.w3.org/1999/xlink"><g visibility="visible" id="Default"><desc>Master slide</desc><g style="stroke:none;fill:none"><rect x="0" y="0" width="21000" height="29700"/></g></g><g visibility="visible" id="page1"><desc>Slide</desc><g><desc>Graphic</desc><g><g style="stroke:none;fill:rgb(238,17,17)"><path d="M 14475,12553 L 14475,12553 C 14276,12216 14029,11898 13732,11601 12837,10708 11758,10261 10493,10263 9228,10261 8148,10708 7253,11601 6358,12494 5911,13573 5913,14836 5913,15933 6251,16891 6925,17709 9797,19326 12510,18252 15063,14492 15062,14490 15062,14486 15062,14484 15013,13779 14817,13135 14475,12553 Z"/></g><g style="stroke:none;fill:rgb(187,0,0)"><path d="M 15063,14494 L 15063,14492 15063,14492 C 12510,18252 9797,19326 6925,17709 7024,17827 7128,17943 7241,18056 7246,18056 7250,18056 7255,18058 L 7253,18070 7253,18070 C 7508,18323 7778,18542 8062,18724 8211,18818 8364,18902 8520,18979 8558,18997 8595,19015 8633,19031 9200,19283 9821,19410 10493,19410 11758,19410 12837,18963 13732,18070 13802,17998 13872,17925 13938,17852 14032,17743 14124,17634 14208,17521 14224,17499 14238,17476 14255,17457 14358,17312 14451,17164 14536,17012 14768,16589 14925,16137 15008,15653 15037,15481 15056,15306 15065,15130 15070,15032 15074,14934 15074,14836 15074,14720 15070,14606 15063,14494 Z"/></g><g style="stroke:none;fill:rgb(0,0,0)"><path d="M 14508,12730 L 12680,13809 12680,13809 C 13522,14822 14020,15448 14173,15690 14423,16086 14564,16407 14598,16652 L 14598,16654 14598,16654 C 14608,16722 14608,16786 14602,16842 L 14571,16956 14571,16956 C 14567,16966 14562,16974 14558,16984 14539,17024 14514,17059 14483,17090 14642,17137 14739,17088 14775,16946 14786,16902 14793,16833 14797,16744 14801,16638 14804,16571 14807,16545 14947,16298 15152,15946 15423,15483 15986,14510 15682,13592 14508,12730 Z"/></g><g style="stroke:none;fill:rgb(102,102,102)"><path d="M 14173,15690 L 14173,15690 C 14020,15448 13522,14822 12680,13809 L 12680,13809 10571,15017 10596,15059 10596,15059 C 10724,15237 10862,15404 11011,15558 13236,16487 14291,16530 14173,15690 Z"/></g><g style="stroke:none;fill:rgb(119,119,119)"><path d="M 14598,16654 L 14598,16652 14598,16652 C 14564,16407 14423,16086 14173,15690 14291,16530 13236,16487 11011,15558 11302,15863 11633,16130 12007,16361 12061,16397 12105,16423 12135,16439 12314,16541 12513,16634 12731,16715 12828,16754 12909,16784 12973,16807 13196,16889 13401,16953 13593,17001 13893,17077 14153,17109 14369,17100 14375,17100 14382,17099 14387,17100 14420,17098 14451,17095 14483,17090 14514,17059 14539,17024 14558,16984 14562,16974 14567,16966 14571,16956 L 14602,16842 14602,16842 C 14608,16786 14608,16722 14598,16654 Z"/></g><g style="stroke:rgb(0,255,0);stroke-width:2;stroke-linejoin:round;fill:rgb(255,255,255)"><path style="fill:none" d="M 14598,16654 L 14598,16652"/></g><g style="stroke:none;fill:rgb(187,0,0)"><path d="M 14901,13512 L 14901,13512 C 14816,13206 14701,12929 14555,12684 14778,13387 14865,14084 14816,14780 14844,14767 14872,14754 14900,14739 14928,14724 14959,14709 14987,14693 15018,14675 15052,14656 15082,14637 15044,14193 14985,13818 14901,13512 Z"/></g><g style="stroke:none;fill:rgb(238,17,17)"><path d="M 14555,12684 L 14555,12684 C 14377,12357 14137,12031 13836,11708 13470,11316 13078,11010 12657,10788 L 10453,14459 10453,14459 C 10277,14754 10328,14953 10602,15057 10805,15085 11080,15106 11427,15122 11797,15139 12235,15147 12739,15151 12956,15153 13173,15146 13387,15129 13949,15082 14425,14967 14816,14780 14865,14084 14778,13387 14555,12684 Z"/></g><g style="stroke:none;fill:rgb(255,255,255)"><path d="M 13101,13510 L 13101,13510 C 13141,13255 13078,13028 12915,12828 12648,12502 12301,12360 11873,12399 11692,12416 11576,12506 11519,12666 11382,13063 11481,13395 11815,13660 12153,13928 12518,13984 12910,13828 12761,13853 12621,13826 12492,13748 12290,13631 12197,13455 12214,13224 12227,13043 12326,12975 12517,13022 12781,13080 12975,13244 13101,13510 Z"/></g><g style="stroke:none;fill:rgb(0,0,0)"><path d="M 12517,13022 L 12517,13022 C 12326,12975 12227,13043 12214,13224 12197,13455 12290,13631 12492,13748 12621,13826 12761,13853 12910,13828 13018,13768 13081,13679 13096,13559 13098,13543 13099,13525 13101,13510 12975,13244 12781,13080 12517,13022 Z"/></g><g style="stroke:none;fill:rgb(255,153,68)"><path d="M 9601,12034 L 9601,12034 C 9304,11783 8936,11701 8497,11788 8059,11875 7676,12105 7349,12478 7024,12851 6850,13258 6830,13698 6810,14141 6947,14486 7244,14738 7541,14989 7908,15071 8348,14984 8787,14898 9169,14669 9495,14296 9821,13921 9993,13514 10013,13074 10034,12631 9897,12286 9601,12034 Z"/></g><g style="stroke:none;fill:rgb(238,238,0)"><path d="M 9109,12884 L 9109,12884 C 9100,12657 9011,12498 8841,12406 8669,12315 8467,12317 8234,12413 8002,12510 7806,12674 7647,12900 7487,13129 7413,13357 7422,13583 7431,13809 7521,13968 7692,14060 7863,14151 8065,14149 8298,14053 8531,13957 8726,13793 8884,13566 9044,13337 9118,13109 9109,12884 Z"/></g></g></g></g></svg>