<?xml version="1.0" encoding="UTF-8"?>
<!DOCTYPE svg PUBLIC "-//W3C//DTD SVG 1.1//EN" "http://www.w3.org/Graphics/SVG/1.1/DTD/svg11.dtd"><svg version="1.1" viewBox="0 0 21000 29700" preserveAspectRatio="xMidYMid" fill-rule="evenodd" xmlns="http://www.w3.org/2000/svg" xmlns:xlink="http://www.w3.org/1999/xlink"><g visibility="visible" id="Default"><desc>Master slide</desc><g style="stroke:none;fill:none"><rect x="0" y="0" width="21000" height="29700"/></g></g><g visibility="visible" id="page1"><desc>Slide</desc><g><desc>Graphic</desc><g><g style="stroke:none;fill:rgb(238,17,17)"><path d="M 14475,12553 L 14475,12553 C 14276,12216 14029,11898 13732,11601 12837,10708 11758,10261 10493,10263 9228,10261 8148,10708 7253,11601 6358,12494 5911,13573 5913,14836 5913,15933 6251,16891 6925,17709 9797,19326 12510,18252 15063,14492 15062,14490 15062,14486 15062,14484 15013,13779 14817,13135 14475,12553 Z"/></g><g style="stroke:none;fill:rgb(187,0,0)"><path d="M 15063,14494 L 15063,14492 15063,14492 C 12510,18252 9797,19326 6925,17709 7024,17827 7128,17943 7241,18056 7246,18056 7250,18056 7255,18058 L 7253,18070 7253,18070 C 7508,18323 7778,18542 8062,18724 8211,18818 8364,18902 8520,18979 8558,18997 8595,19015 8633,19031 9200,19283 9821,19410 10493,19410 11758,19410 12837,18963 13732,18070 13802,17998 13872,17925 13938,17852 14032,17743 14124,17634 14208,17521 14224,17499 14238,17476 14255,17457 14358,17312 14451,17164 14536,17012 14768,16589 14925,16137 15008,15653 15037,15481 15056,15306 15065,15130 15070,15032 15074,14934 15074,14836 15074,14720 15070,14606 15063,14494 Z"/></g><g style="stroke:none;fill:rgb(0,0,0)"><path d="M 14368,12492 L 12606,13682 12606,13682 C 13509,14643 14046,15241 14214,15473 14487,15854 14647,16167 14697,16411 L 14697,16413 14697,16413 C 14710,16481 14714,16544 14711,16600 L 14688,16717 14688,16717 C 14685,16726 14680,16735 14677,16746 14660,16786 14638,16823 14609,16856 14770,16893 14865,16838 14892,16694 14900,16649 14903,16581 14901,16491 14900,16384 14898,16318 14901,16291 15026,16036 15209,15670 15451,15190 15957,14184 15596,13284 14368,12492 Z"/></g><g style="stroke:none;fill:rgb(102,102,102)"><path d="M 14214,15473 L 14214,15473 C 14046,15241 13509,14643 12606,13682 L 12606,13682 10568,15018 10597,15059 10597,15059 C 10735,15229 10884,15388 11042,15534 13324,16329 14382,16308 14214,15473 Z"/></g><g style="stroke:none;fill:rgb(119,119,119)"><path d="M 14697,16413 L 14697,16411 14697,16411 C 14647,16167 14487,15854 14214,15473 14382,16308 13324,16329 11042,15534 11350,15821 11699,16070 12086,16277 12145,16310 12188,16332 12220,16348 12405,16438 12609,16518 12832,16586 12933,16619 13016,16645 13081,16664 13308,16733 13518,16784 13713,16822 14019,16880 14279,16896 14496,16873 14501,16873 14508,16872 14514,16871 14546,16868 14577,16864 14609,16856 14638,16823 14660,16786 14677,16746 14680,16735 14685,16726 14688,16717 L 14711,16600 14711,16600 C 14714,16544 14710,16481 14697,16413 Z"/></g><g style="stroke:rgb(0,255,0);stroke-width:2;stroke-linejoin:round;fill:rgb(255,255,255)"><path style="fill:none" d="M 14697,16413 L 14697,16411"/></g><g style="stroke:none;fill:rgb(187,0,0)"><path d="M 14919,13564 L 14919,13564 C 14839,13257 14726,12979 14584,12732 14798,13437 14876,14136 14820,14832 14846,14819 14876,14806 14904,14791 14932,14776 14962,14761 14992,14746 15023,14729 15055,14710 15086,14691 15054,14246 14999,13871 14919,13564 Z"/></g><g style="stroke:none;fill:rgb(238,17,17)"><path d="M 14584,12732 L 14584,12732 C 14411,12404 14173,12076 13877,11749 13516,11353 13128,11042 12710,10815 L 10461,14457 10461,14457 C 10281,14749 10330,14949 10603,15056 10806,15086 11079,15110 11426,15131 11796,15152 12234,15166 12738,15176 12955,15179 13172,15175 13387,15161 13948,15122 14426,15012 14820,14832 14876,14136 14798,13437 14584,12732 Z"/></g><g style="stroke:none;fill:rgb(255,255,255)"><path d="M 13101,13510 L 13101,13510 C 13141,13255 13078,13028 12915,12828 12648,12502 12301,12360 11873,12399 11692,12416 11576,12506 11519,12666 11382,13063 11481,13395 11815,13660 12153,13928 12518,13984 12910,13828 12761,13853 12621,13826 12492,13748 12290,13631 12197,13455 12214,13224 12227,13043 12326,12975 12517,13022 12781,13080 12975,13244 13101,13510 Z"/></g><g style="stroke:none;fill:rgb(0,0,0)"><path d="M 12517,13022 L 12517,13022 C 12326,12975 12227,13043 12214,13224 12197,13455 12290,13631 12492,13748 12621,13826 12761,13853 12910,13828 13018,13768 13081,13679 13096,13559 13098,13543 13099,13525 13101,13510 12975,13244 12781,13080 12517,13022 Z"/></g><g style="stroke:none;fill:rgb(255,153,68)"><path d="M 9601,12034 L 9601,12034 C 9304,11783 8936,11701 8497,11788 8059,11875 7676,12105 7349,12478 7024,12851 6850,13258 6830,13698 6810,14141 6947,14486 7244,14738 7541,14989 7908,15071 8348,14984 8787,14898 9169,14669 9495,14296 9821,13921 9993,13514 10013,13074 10034,12631 9897,12286 9601,12034 Z"/></g><g style="stroke:none;fill:rgb(238,238,0)"><path d="M 9109,12884 L 9109,12884 C 9100,12657 9011,12498 8841,12406 8669,12315 8467,12317 8234,12413 8002,12510 7806,12674 7647,12900 7487,13129 7413,13357 7422,13583 7431,13809 7521,13968 7692,14060 7863,14151 8065,14149 8298,14053 8531,13957 8726,13793 8884,13566 9044,13337 9118,13109 9109,12884 Z"/></g></g></g></g></svg>