<?xml version="1.0" encoding="UTF-8"?>
<!DOCTYPE svg PUBLIC "-//W3C//DTD SVG 1.1//EN" "http://www.w3.org/Graphics/SVG/1.1/DTD/svg11.dtd"><svg version="1.1" viewBox="0 0 21000 29700" preserveAspectRatio="xMidYMid" fill-rule="evenodd" xmlns="http://www.w3.org/2000/svg" xmlns:xlink="http://www.w3.org/1999/xlink"><g visibility="visible" id="Default"><desc>Master slide</desc><g style="stroke:none;fill:none"><rect x="0" y="0" width="21000" height="29700"/></g></g><g visibility="visible" id="page1"><desc>Slide</desc><g><desc>Graphic</desc><g><g style="stroke:none;fill:rgb(238,17,17)"><path d="M 14475,12553 L 14475,12553 C 14276,12216 14029,11898 13732,11601 12837,10708 11758,10261 10493,10263 9228,10261 8148,10708 7253,11601 6358,12494 5911,13573 5913,14836 5913,15933 6251,16891 6925,17709 9797,19326 12510,18252 15063,14492 15062,14490 15062,14486 15062,14484 15013,13779 14817,13135 14475,12553 Z"/></g><g style="stroke:none;fill:rgb(187,0,0)"><path d="M 15063,14494 L 15063,14492 15063,14492 C 12510,18252 9797,19326 6925,17709 7024,17827 7128,17943 7241,18056 7246,18056 7250,18056 7255,18058 L 7253,18070 7253,18070 C 7508,18323 7778,18542 8062,18724 8211,18818 8364,18902 8520,18979 8558,18997 8595,19015 8633,19031 9200,19283 9821,19410 10493,19410 11758,19410 12837,18963 13732,18070 13802,17998 13872,17925 13938,17852 14032,17743 14124,17634 14208,17521 14224,17499 14238,17476 14255,17457 14358,17312 14451,17164 14536,17012 14768,16589 14925,16137 15008,15653 15037,15481 15056,15306 15065,15130 15070,15032 15074,14934 15074,14836 15074,14720 15070,14606 15063,14494 Z"/></g><g style="stroke:none;fill:rgb(0,0,0)"><path d="M 13979,11957 L 12396,13398 12396,13398 C 13435,14224 14057,14741 14259,14947 14584,15288 14790,15575 14874,15811 L 14875,15813 14875,15813 C 14899,15878 14911,15941 14917,15998 L 14910,16117 14910,16117 C 14909,16127 14905,16135 14904,16146 14894,16189 14876,16230 14851,16267 15018,16280 15105,16212 15111,16065 15112,16018 15105,15950 15089,15862 15073,15755 15062,15689 15060,15662 15147,15391 15277,14999 15448,14487 15805,13411 15316,12567 13979,11957 Z"/></g><g style="stroke:none;fill:rgb(102,102,102)"><path d="M 14259,14947 L 14259,14947 C 14057,14741 13435,14224 12396,13398 L 12396,13398 10563,15023 10596,15059 10596,15059 C 10759,15209 10929,15345 11109,15468 13497,15928 14547,15754 14259,14947 Z"/></g><g style="stroke:none;fill:rgb(119,119,119)"><path d="M 14875,15813 L 14874,15811 14874,15811 C 14790,15575 14584,15288 14259,14947 14547,15754 13497,15928 11109,15468 11458,15709 11841,15905 12256,16056 12318,16080 12367,16096 12400,16107 12597,16170 12812,16220 13044,16256 13149,16274 13236,16287 13304,16296 13539,16332 13756,16353 13955,16362 14268,16375 14530,16354 14742,16298 14747,16298 14754,16295 14759,16295 14790,16287 14822,16278 14851,16267 14876,16230 14894,16189 14904,16146 14905,16135 14909,16127 14910,16117 L 14917,15998 14917,15998 C 14911,15941 14899,15878 14875,15813 Z"/></g><g style="stroke:rgb(0,255,0);stroke-width:2;stroke-linejoin:round;fill:rgb(255,255,255)"><path style="fill:none" d="M 14875,15813 L 14874,15811"/></g><g style="stroke:none;fill:rgb(187,0,0)"><path d="M 14948,13663 L 14948,13663 C 14874,13354 14770,13075 14632,12824 14830,13533 14894,14233 14820,14927 14848,14914 14877,14902 14905,14888 14934,14873 14964,14859 14995,14845 15027,14828 15059,14811 15090,14793 15068,14347 15023,13971 14948,13663 Z"/></g><g style="stroke:none;fill:rgb(238,17,17)"><path d="M 14632,12824 L 14632,12824 C 14467,12493 14236,12160 13947,11827 13596,11424 13215,11104 12801,10869 L 10472,14454 10472,14454 C 10286,14742 10330,14942 10601,15055 10802,15090 11076,15122 11422,15149 11792,15178 12229,15203 12733,15224 12948,15232 13165,15232 13381,15223 13944,15196 14424,15098 14820,14927 14894,14233 14830,13533 14632,12824 Z"/></g><g style="stroke:none;fill:rgb(255,255,255)"><path d="M 13101,13510 L 13101,13510 C 13141,13255 13078,13028 12915,12828 12648,12502 12301,12360 11873,12399 11692,12416 11576,12506 11519,12666 11382,13063 11481,13395 11815,13660 12153,13928 12518,13984 12910,13828 12761,13853 12621,13826 12492,13748 12290,13631 12197,13455 12214,13224 12227,13043 12326,12975 12517,13022 12781,13080 12975,13244 13101,13510 Z"/></g><g style="stroke:none;fill:rgb(0,0,0)"><path d="M 12517,13022 L 12517,13022 C 12326,12975 12227,13043 12214,13224 12197,13455 12290,13631 12492,13748 12621,13826 12761,13853 12910,13828 13018,13768 13081,13679 13096,13559 13098,13543 13099,13525 13101,13510 12975,13244 12781,13080 12517,13022 Z"/></g><g style="stroke:none;fill:rgb(255,153,68)"><path d="M 9601,12034 L 9601,12034 C 9304,11783 8936,11701 8497,11788 8059,11875 7676,12105 7349,12478 7024,12851 6850,13258 6830,13698 6810,14141 6947,14486 7244,14738 7541,14989 7908,15071 8348,14984 8787,14898 9169,14669 9495,14296 9821,13921 9993,13514 10013,13074 10034,12631 9897,12286 9601,12034 Z"/></g><g style="stroke:none;fill:rgb(238,238,0)"><path d="M 9109,12884 L 9109,12884 C 9100,12657 9011,12498 8841,12406 8669,12315 8467,12317 8234,12413 8002,12510 7806,12674 7647,12900 7487,13129 7413,13357 7422,13583 7431,13809 7521,13968 7692,14060 7863,14151 8065,14149 8298,14053 8531,13957 8726,13793 8884,13566 9044,13337 9118,13109 9109,12884 Z"/></g></g></g></g></svg>