<?xml version="1.0" encoding="UTF-8"?>
<!DOCTYPE svg PUBLIC "-//W3C//DTD SVG 1.1//EN" "http://www.w3.org/Graphics/SVG/1.1/DTD/svg11.dtd"><svg version="1.1" viewBox="0 0 21000 29700" preserveAspectRatio="xMidYMid" fill-rule="evenodd" xmlns="http://www.w3.org/2000/svg" xmlns:xlink="http://www.w3.org/1999/xlink"><g visibility="visible" id="Default"><desc>Master slide</desc><g style="stroke:none;fill:none"><rect x="0" y="0" width="21000" height="29700"/></g></g><g visibility="visible" id="page1"><desc>Slide</desc><g><desc>Graphic</desc><g><g style="stroke:none;fill:rgb(238,17,17)"><path d="M 14475,12553 L 14475,12553 C 14276,12216 14029,11898 13732,11601 12837,10708 11758,10261 10493,10263 9228,10261 8148,10708 7253,11601 6358,12494 5911,13573 5913,14836 5913,15933 6251,16891 6925,17709 9797,19326 12510,18252 15063,14492 15062,14490 15062,14486 15062,14484 15013,13779 14817,13135 14475,12553 Z"/></g><g style="stroke:none;fill:rgb(187,0,0)"><path d="M 15063,14494 L 15063,14492 15063,14492 C 12510,18252 9797,19326 6925,17709 7024,17827 7128,17943 7241,18056 7246,18056 7250,18056 7255,18058 L 7253,18070 7253,18070 C 7508,18323 7778,18542 8062,18724 8211,18818 8364,18902 8520,18979 8558,18997 8595,19015 8633,19031 9200,19283 9821,19410 10493,19410 11758,19410 12837,18963 13732,18070 13802,17998 13872,17925 13938,17852 14032,17743 14124,17634 14208,17521 14224,17499 14238,17476 14255,17457 14358,17312 14451,17164 14536,17012 14768,16589 14925,16137 15008,15653 15037,15481 15056,15306 15065,15130 15070,15032 15074,14934 15074,14836 15074,14720 15070,14606 15063,14494 Z"/></g><g style="stroke:none;fill:rgb(0,0,0)"><path d="M 14824,13456 L 12850,14196 12850,14196 C 13499,15331 13877,16029 13986,16291 14161,16722 14243,17060 14233,17307 L 14233,17309 14233,17309 C 14230,17377 14220,17438 14204,17493 L 14154,17599 14154,17599 C 14149,17608 14142,17614 14137,17623 14112,17660 14081,17690 14046,17715 14193,17788 14296,17757 14356,17624 14374,17583 14394,17517 14413,17431 14436,17327 14449,17263 14457,17238 14637,17022 14899,16711 15242,16305 15963,15451 15824,14501 14824,13456 Z"/></g><g style="stroke:none;fill:rgb(102,102,102)"><path d="M 13986,16291 L 13986,16291 C 13877,16029 13499,15331 12850,14196 L 12850,14196 10580,15013 10597,15057 10597,15057 C 10691,15254 10797,15442 10916,15618 12931,16910 13954,17135 13986,16291 Z"/></g><g style="stroke:none;fill:rgb(119,119,119)"><path d="M 14233,17309 L 14233,17307 14233,17307 C 14243,17060 14161,16722 13986,16291 13954,17135 12931,16910 10916,15618 11147,15966 11425,16285 11750,16576 11798,16619 11836,16652 11864,16674 12020,16804 12198,16928 12397,17045 12486,17101 12562,17144 12620,17177 12822,17296 13012,17393 13190,17474 13471,17601 13720,17676 13933,17704 13939,17706 13946,17705 13951,17707 13983,17711 14014,17714 14046,17715 14081,17690 14112,17660 14137,17623 14142,17614 14149,17608 14154,17599 L 14204,17493 14204,17493 C 14220,17438 14230,17377 14233,17309 Z"/></g><g style="stroke:rgb(0,255,0);stroke-width:2;stroke-linejoin:round;fill:rgb(255,255,255)"><path style="fill:none" d="M 14233,17309 L 14233,17307"/></g><g style="stroke:none;fill:rgb(187,0,0)"><path d="M 14854,13392 L 14854,13392 C 14760,13088 14639,12813 14486,12571 14728,13269 14833,13967 14803,14665 14830,14651 14858,14636 14887,14620 14915,14604 14943,14588 14972,14572 15002,14553 15035,14534 15065,14514 15015,14069 14945,13695 14854,13392 Z"/></g><g style="stroke:none;fill:rgb(238,17,17)"><path d="M 14486,12571 L 14486,12571 C 14299,12249 14050,11930 13740,11615 13365,11232 12963,10937 12536,10726 L 10431,14461 10431,14461 C 10264,14761 10320,14958 10598,15055 10800,15077 11076,15090 11423,15098 11794,15104 12232,15101 12736,15091 12953,15087 13170,15074 13385,15051 13945,14990 14417,14861 14803,14665 14833,13967 14728,13269 14486,12571 Z"/></g><g style="stroke:none;fill:rgb(255,255,255)"><path d="M 13101,13510 L 13101,13510 C 13141,13255 13078,13028 12915,12828 12648,12502 12301,12360 11873,12399 11692,12416 11576,12506 11519,12666 11382,13063 11481,13395 11815,13660 12153,13928 12518,13984 12910,13828 12761,13853 12621,13826 12492,13748 12290,13631 12197,13455 12214,13224 12227,13043 12326,12975 12517,13022 12781,13080 12975,13244 13101,13510 Z"/></g><g style="stroke:none;fill:rgb(0,0,0)"><path d="M 12517,13022 L 12517,13022 C 12326,12975 12227,13043 12214,13224 12197,13455 12290,13631 12492,13748 12621,13826 12761,13853 12910,13828 13018,13768 13081,13679 13096,13559 13098,13543 13099,13525 13101,13510 12975,13244 12781,13080 12517,13022 Z"/></g><g style="stroke:none;fill:rgb(255,153,68)"><path d="M 9601,12034 L 9601,12034 C 9304,11783 8936,11701 8497,11788 8059,11875 7676,12105 7349,12478 7024,12851 6850,13258 6830,13698 6810,14141 6947,14486 7244,14738 7541,14989 7908,15071 8348,14984 8787,14898 9169,14669 9495,14296 9821,13921 9993,13514 10013,13074 10034,12631 9897,12286 9601,12034 Z"/></g><g style="stroke:none;fill:rgb(238,238,0)"><path d="M 9109,12884 L 9109,12884 C 9100,12657 9011,12498 8841,12406 8669,12315 8467,12317 8234,12413 8002,12510 7806,12674 7647,12900 7487,13129 7413,13357 7422,13583 7431,13809 7521,13968 7692,14060 7863,14151 8065,14149 8298,14053 8531,13957 8726,13793 8884,13566 9044,13337 9118,13109 9109,12884 Z"/></g></g></g></g></svg>