<?xml version="1.0" encoding="UTF-8"?>
<!DOCTYPE svg PUBLIC "-//W3C//DTD SVG 1.1//EN" "http://www.w3.org/Graphics/SVG/1.1/DTD/svg11.dtd"><svg version="1.1" viewBox="0 0 21000 29700" preserveAspectRatio="xMidYMid" fill-rule="evenodd" xmlns="http://www.w3.org/2000/svg" xmlns:xlink="http://www.w3.org/1999/xlink"><g visibility="visible" id="Default"><desc>Master slide</desc><g style="stroke:none;fill:none"><rect x="0" y="0" width="21000" height="29700"/></g></g><g visibility="visible" id="page1"><desc>Slide</desc><g><desc>Graphic</desc><g><g style="stroke:none;fill:rgb(238,17,17)"><path d="M 14475,12553 L 14475,12553 C 14276,12216 14029,11898 13732,11601 12837,10708 11758,10261 10493,10263 9228,10261 8148,10708 7253,11601 6358,12494 5911,13573 5913,14836 5913,15933 6251,16891 6925,17709 9797,19326 12510,18252 15063,14492 15062,14490 15062,14486 15062,14484 15013,13779 14817,13135 14475,12553 Z"/></g><g style="stroke:none;fill:rgb(187,0,0)"><path d="M 15063,14494 L 15063,14492 15063,14492 C 12510,18252 9797,19326 6925,17709 7024,17827 7128,17943 7241,18056 7246,18056 7250,18056 7255,18058 L 7253,18070 7253,18070 C 7508,18323 7778,18542 8062,18724 8211,18818 8364,18902 8520,18979 8558,18997 8595,19015 8633,19031 9200,19283 9821,19410 10493,19410 11758,19410 12837,18963 13732,18070 13802,17998 13872,17925 13938,17852 14032,17743 14124,17634 14208,17521 14224,17499 14238,17476 14255,17457 14358,17312 14451,17164 14536,17012 14768,16589 14925,16137 15008,15653 15037,15481 15056,15306 15065,15130 15070,15032 15074,14934 15074,14836 15074,14720 15070,14606 15063,14494 Z"/></g><g style="stroke:none;fill:rgb(0,0,0)"><path d="M 14564,12838 L 12710,13866 12710,13866 C 13523,14899 14004,15538 14150,15783 14387,16185 14520,16510 14549,16756 L 14549,16758 14549,16758 C 14555,16826 14554,16889 14546,16946 L 14512,17059 14512,17059 C 14508,17068 14503,17076 14499,17086 14480,17125 14453,17160 14421,17191 14579,17241 14678,17195 14717,17054 14728,17009 14738,16942 14744,16853 14752,16747 14756,16680 14761,16655 14907,16413 15121,16064 15403,15611 15992,14654 15713,13729 14564,12838 Z"/></g><g style="stroke:none;fill:rgb(102,102,102)"><path d="M 14150,15783 L 14150,15783 C 14004,15538 13523,14899 12710,13866 L 12710,13866 10572,15014 10595,15057 10595,15057 C 10718,15238 10852,15408 10996,15567 13193,16555 14245,16626 14150,15783 Z"/></g><g style="stroke:none;fill:rgb(119,119,119)"><path d="M 14549,16758 L 14549,16756 14549,16756 C 14520,16510 14387,16185 14150,15783 14245,16626 13193,16555 10996,15567 11278,15879 11602,16156 11968,16396 12023,16432 12065,16459 12095,16477 12271,16583 12467,16681 12682,16767 12779,16810 12860,16841 12923,16866 13142,16954 13345,17024 13535,17077 13834,17161 14090,17201 14308,17196 14313,17197 14321,17196 14327,17196 14359,17197 14390,17194 14421,17191 14453,17160 14480,17125 14499,17086 14503,17076 14508,17068 14512,17059 L 14546,16946 14546,16946 C 14554,16889 14555,16826 14549,16758 Z"/></g><g style="stroke:rgb(0,255,0);stroke-width:2;stroke-linejoin:round;fill:rgb(255,255,255)"><path style="fill:none" d="M 14549,16758 L 14549,16756"/></g><g style="stroke:none;fill:rgb(187,0,0)"><path d="M 14892,13491 L 14892,13491 C 14804,13184 14689,12908 14542,12663 14767,13365 14858,14063 14813,14760 14840,14747 14868,14734 14896,14718 14925,14702 14954,14687 14983,14672 15013,14654 15047,14635 15077,14615 15038,14170 14976,13796 14892,13491 Z"/></g><g style="stroke:none;fill:rgb(238,17,17)"><path d="M 14542,12663 L 14542,12663 C 14362,12337 14121,12013 13817,11691 13450,11301 13057,10996 12636,10777 L 10446,14458 10446,14458 C 10272,14754 10325,14953 10599,15056 10803,15082 11077,15101 11423,15117 11794,15132 12232,15139 12737,15140 12954,15140 13170,15132 13385,15114 13946,15066 14423,14947 14813,14760 14858,14063 14767,13365 14542,12663 Z"/></g><g style="stroke:none;fill:rgb(255,255,255)"><path d="M 13101,13510 L 13101,13510 C 13141,13255 13078,13028 12915,12828 12648,12502 12301,12360 11873,12399 11692,12416 11576,12506 11519,12666 11382,13063 11481,13395 11815,13660 12153,13928 12518,13984 12910,13828 12761,13853 12621,13826 12492,13748 12290,13631 12197,13455 12214,13224 12227,13043 12326,12975 12517,13022 12781,13080 12975,13244 13101,13510 Z"/></g><g style="stroke:none;fill:rgb(0,0,0)"><path d="M 12517,13022 L 12517,13022 C 12326,12975 12227,13043 12214,13224 12197,13455 12290,13631 12492,13748 12621,13826 12761,13853 12910,13828 13018,13768 13081,13679 13096,13559 13098,13543 13099,13525 13101,13510 12975,13244 12781,13080 12517,13022 Z"/></g><g style="stroke:none;fill:rgb(255,153,68)"><path d="M 9601,12034 L 9601,12034 C 9304,11783 8936,11701 8497,11788 8059,11875 7676,12105 7349,12478 7024,12851 6850,13258 6830,13698 6810,14141 6947,14486 7244,14738 7541,14989 7908,15071 8348,14984 8787,14898 9169,14669 9495,14296 9821,13921 9993,13514 10013,13074 10034,12631 9897,12286 9601,12034 Z"/></g><g style="stroke:none;fill:rgb(238,238,0)"><path d="M 9109,12884 L 9109,12884 C 9100,12657 9011,12498 8841,12406 8669,12315 8467,12317 8234,12413 8002,12510 7806,12674 7647,12900 7487,13129 7413,13357 7422,13583 7431,13809 7521,13968 7692,14060 7863,14151 8065,14149 8298,14053 8531,13957 8726,13793 8884,13566 9044,13337 9118,13109 9109,12884 Z"/></g></g></g></g></svg>