<?xml version="1.0" encoding="UTF-8"?>
<!DOCTYPE svg PUBLIC "-//W3C//DTD SVG 1.1//EN" "http://www.w3.org/Graphics/SVG/1.1/DTD/svg11.dtd"><svg version="1.1" viewBox="0 0 21000 29700" preserveAspectRatio="xMidYMid" fill-rule="evenodd" xmlns="http://www.w3.org/2000/svg" xmlns:xlink="http://www.w3.org/1999/xlink"><g visibility="visible" id="Default"><desc>Master slide</desc><g style="stroke:none;fill:none"><rect x="0" y="0" width="21000" height="29700"/></g></g><g visibility="visible" id="page1"><desc>Slide</desc><g><desc>Graphic</desc><g><g style="stroke:none;fill:rgb(238,17,17)"><path d="M 14475,12553 L 14475,12553 C 14276,12216 14029,11898 13732,11601 12837,10708 11758,10261 10493,10263 9228,10261 8148,10708 7253,11601 6358,12494 5911,13573 5913,14836 5913,15933 6251,16891 6925,17709 9797,19326 12510,18252 15063,14492 15062,14490 15062,14486 15062,14484 15013,13779 14817,13135 14475,12553 Z"/></g><g style="stroke:none;fill:rgb(187,0,0)"><path d="M 15063,14494 L 15063,14492 15063,14492 C 12510,18252 9797,19326 6925,17709 7024,17827 7128,17943 7241,18056 7246,18056 7250,18056 7255,18058 L 7253,18070 7253,18070 C 7508,18323 7778,18542 8062,18724 8211,18818 8364,18902 8520,18979 8558,18997 8595,19015 8633,19031 9200,19283 9821,19410 10493,19410 11758,19410 12837,18963 13732,18070 13802,17998 13872,17925 13938,17852 14032,17743 14124,17634 14208,17521 14224,17499 14238,17476 14255,17457 14358,17312 14451,17164 14536,17012 14768,16589 14925,16137 15008,15653 15037,15481 15056,15306 15065,15130 15070,15032 15074,14934 15074,14836 15074,14720 15070,14606 15063,14494 Z"/></g><g style="stroke:none;fill:rgb(0,0,0)"><path d="M 13886,11852 L 12347,13341 12347,13341 C 13412,14137 14050,14635 14258,14836 14595,15166 14808,15449 14901,15683 L 14902,15684 14902,15684 C 14926,15748 14941,15810 14948,15867 L 14945,15986 14945,15986 C 14944,15997 14941,16007 14940,16017 14930,16059 14914,16101 14891,16139 15058,16147 15142,16077 15143,15929 15144,15882 15135,15813 15118,15725 15098,15620 15084,15554 15081,15528 15160,15253 15278,14857 15434,14340 15759,13252 15243,12422 13886,11852 Z"/></g><g style="stroke:none;fill:rgb(102,102,102)"><path d="M 14258,14836 L 14258,14836 C 14050,14635 13412,14137 12347,13341 L 12347,13341 10561,15023 10595,15059 10595,15059 C 10763,15204 10939,15335 11121,15452 13525,15841 14570,15634 14258,14836 Z"/></g><g style="stroke:none;fill:rgb(119,119,119)"><path d="M 14902,15684 L 14901,15683 14901,15683 C 14808,15449 14595,15166 14258,14836 14570,15634 13525,15841 11121,15452 11478,15683 11868,15868 12288,16007 12351,16028 12398,16043 12433,16052 12633,16110 12850,16154 13082,16182 13187,16198 13276,16208 13343,16215 13580,16244 13797,16258 13996,16261 14310,16265 14571,16236 14782,16175 14787,16174 14794,16171 14799,16170 14831,16162 14862,16152 14891,16139 14914,16101 14930,16059 14940,16017 14941,16007 14944,15997 14945,15986 L 14948,15867 14948,15867 C 14941,15810 14926,15748 14902,15684 Z"/></g><g style="stroke:rgb(0,255,0);stroke-width:2;stroke-linejoin:round;fill:rgb(255,255,255)"><path style="fill:none" d="M 14902,15684 L 14901,15683"/></g><g style="stroke:none;fill:rgb(187,0,0)"><path d="M 14957,13683 L 14957,13683 C 14884,13375 14780,13095 14643,12845 14839,13554 14898,14254 14823,14945 14850,14933 14879,14921 14907,14907 14937,14894 14967,14879 14996,14865 15029,14848 15061,14830 15093,14814 15072,14368 15028,13992 14957,13683 Z"/></g><g style="stroke:none;fill:rgb(238,17,17)"><path d="M 14643,12845 L 14643,12845 C 14479,12510 14252,12178 13963,11843 13613,11439 13234,11118 12821,10880 L 10476,14455 10476,14455 C 10289,14741 10332,14942 10602,15056 10804,15092 11077,15124 11423,15153 11792,15184 12230,15210 12734,15234 12949,15244 13166,15245 13382,15237 13944,15213 14425,15116 14823,14945 14898,14254 14839,13554 14643,12845 Z"/></g><g style="stroke:none;fill:rgb(255,255,255)"><path d="M 13101,13510 L 13101,13510 C 13141,13255 13078,13028 12915,12828 12648,12502 12301,12360 11873,12399 11692,12416 11576,12506 11519,12666 11382,13063 11481,13395 11815,13660 12153,13928 12518,13984 12910,13828 12761,13853 12621,13826 12492,13748 12290,13631 12197,13455 12214,13224 12227,13043 12326,12975 12517,13022 12781,13080 12975,13244 13101,13510 Z"/></g><g style="stroke:none;fill:rgb(0,0,0)"><path d="M 12517,13022 L 12517,13022 C 12326,12975 12227,13043 12214,13224 12197,13455 12290,13631 12492,13748 12621,13826 12761,13853 12910,13828 13018,13768 13081,13679 13096,13559 13098,13543 13099,13525 13101,13510 12975,13244 12781,13080 12517,13022 Z"/></g><g style="stroke:none;fill:rgb(255,153,68)"><path d="M 9601,12034 L 9601,12034 C 9304,11783 8936,11701 8497,11788 8059,11875 7676,12105 7349,12478 7024,12851 6850,13258 6830,13698 6810,14141 6947,14486 7244,14738 7541,14989 7908,15071 8348,14984 8787,14898 9169,14669 9495,14296 9821,13921 9993,13514 10013,13074 10034,12631 9897,12286 9601,12034 Z"/></g><g style="stroke:none;fill:rgb(238,238,0)"><path d="M 9109,12884 L 9109,12884 C 9100,12657 9011,12498 8841,12406 8669,12315 8467,12317 8234,12413 8002,12510 7806,12674 7647,12900 7487,13129 7413,13357 7422,13583 7431,13809 7521,13968 7692,14060 7863,14151 8065,14149 8298,14053 8531,13957 8726,13793 8884,13566 9044,13337 9118,13109 9109,12884 Z"/></g></g></g></g></svg>