<?xml version="1.0" encoding="UTF-8"?>
<!DOCTYPE svg PUBLIC "-//W3C//DTD SVG 1.1//EN" "http://www.w3.org/Graphics/SVG/1.1/DTD/svg11.dtd"><svg version="1.1" viewBox="0 0 21000 29700" preserveAspectRatio="xMidYMid" fill-rule="evenodd" xmlns="http://www.w3.org/2000/svg" xmlns:xlink="http://www.w3.org/1999/xlink"><g visibility="visible" id="Default"><desc>Master slide</desc><g style="stroke:none;fill:none"><rect x="0" y="0" width="21000" height="29700"/></g></g><g visibility="visible" id="page1"><desc>Slide</desc><g><desc>Graphic</desc><g><g style="stroke:none;fill:rgb(238,17,17)"><path d="M 14475,12553 L 14475,12553 C 14276,12216 14029,11898 13732,11601 12837,10708 11758,10261 10493,10263 9228,10261 8148,10708 7253,11601 6358,12494 5911,13573 5913,14836 5913,15933 6251,16891 6925,17709 9797,19326 12510,18252 15063,14492 15062,14490 15062,14486 15062,14484 15013,13779 14817,13135 14475,12553 Z"/></g><g style="stroke:none;fill:rgb(187,0,0)"><path d="M 15063,14494 L 15063,14492 15063,14492 C 12510,18252 9797,19326 6925,17709 7024,17827 7128,17943 7241,18056 7246,18056 7250,18056 7255,18058 L 7253,18070 7253,18070 C 7508,18323 7778,18542 8062,18724 8211,18818 8364,18902 8520,18979 8558,18997 8595,19015 8633,19031 9200,19283 9821,19410 10493,19410 11758,19410 12837,18963 13732,18070 13802,17998 13872,17925 13938,17852 14032,17743 14124,17634 14208,17521 14224,17499 14238,17476 14255,17457 14358,17312 14451,17164 14536,17012 14768,16589 14925,16137 15008,15653 15037,15481 15056,15306 15065,15130 15070,15032 15074,14934 15074,14836 15074,14720 15070,14606 15063,14494 Z"/></g><g style="stroke:none;fill:rgb(0,0,0)"><path d="M 14728,13200 L 12798,14059 12798,14059 C 13515,15156 13937,15833 14062,16088 14262,16508 14365,16840 14371,17088 L 14371,17090 14371,17090 C 14371,17158 14364,17220 14352,17276 L 14309,17385 14309,17385 C 14304,17394 14297,17401 14293,17411 14271,17448 14242,17480 14207,17508 14358,17572 14462,17535 14512,17399 14527,17355 14543,17289 14557,17202 14574,17097 14584,17031 14590,17005 14757,16778 14999,16451 15319,16026 15988,15127 15790,14185 14728,13200 Z"/></g><g style="stroke:none;fill:rgb(102,102,102)"><path d="M 14062,16088 L 14062,16088 C 13937,15833 13515,15156 12798,14059 L 12798,14059 10575,15013 10595,15058 10595,15058 C 10701,15248 10820,15430 10949,15600 13043,16770 14080,16932 14062,16088 Z"/></g><g style="stroke:none;fill:rgb(119,119,119)"><path d="M 14371,17090 L 14371,17088 14371,17088 C 14365,16840 14262,16508 14062,16088 14080,16932 13043,16770 10949,15600 11201,15934 11498,16236 11841,16506 11892,16548 11932,16578 11960,16598 12125,16719 12311,16832 12517,16937 12609,16987 12687,17027 12748,17057 12958,17162 13154,17248 13338,17319 13627,17429 13878,17489 14094,17505 14099,17505 14106,17505 14112,17506 14143,17508 14175,17510 14207,17508 14242,17480 14271,17448 14293,17411 14297,17401 14304,17394 14309,17385 L 14352,17276 14352,17276 C 14364,17220 14371,17158 14371,17090 Z"/></g><g style="stroke:rgb(0,255,0);stroke-width:2;stroke-linejoin:round;fill:rgb(255,255,255)"><path style="fill:none" d="M 14371,17090 L 14371,17088"/></g><g style="stroke:none;fill:rgb(187,0,0)"><path d="M 14866,13430 L 14866,13430 C 14776,13126 14656,12851 14506,12608 14742,13307 14841,14005 14804,14702 14832,14689 14860,14674 14888,14659 14917,14643 14945,14627 14974,14611 15005,14593 15038,14573 15068,14554 15023,14109 14956,13735 14866,13430 Z"/></g><g style="stroke:none;fill:rgb(238,17,17)"><path d="M 14506,12608 L 14506,12608 C 14322,12284 14076,11963 13770,11644 13397,11260 12999,10960 12573,10745 L 10435,14459 10435,14459 C 10265,14757 10320,14956 10596,15054 10798,15078 11074,15095 11421,15104 11792,15114 12230,15115 12734,15110 12951,15107 13168,15096 13383,15075 13944,15019 14417,14895 14804,14702 14841,14005 14742,13307 14506,12608 Z"/></g><g style="stroke:none;fill:rgb(255,255,255)"><path d="M 13101,13510 L 13101,13510 C 13141,13255 13078,13028 12915,12828 12648,12502 12301,12360 11873,12399 11692,12416 11576,12506 11519,12666 11382,13063 11481,13395 11815,13660 12153,13928 12518,13984 12910,13828 12761,13853 12621,13826 12492,13748 12290,13631 12197,13455 12214,13224 12227,13043 12326,12975 12517,13022 12781,13080 12975,13244 13101,13510 Z"/></g><g style="stroke:none;fill:rgb(0,0,0)"><path d="M 12517,13022 L 12517,13022 C 12326,12975 12227,13043 12214,13224 12197,13455 12290,13631 12492,13748 12621,13826 12761,13853 12910,13828 13018,13768 13081,13679 13096,13559 13098,13543 13099,13525 13101,13510 12975,13244 12781,13080 12517,13022 Z"/></g><g style="stroke:none;fill:rgb(255,153,68)"><path d="M 9601,12034 L 9601,12034 C 9304,11783 8936,11701 8497,11788 8059,11875 7676,12105 7349,12478 7024,12851 6850,13258 6830,13698 6810,14141 6947,14486 7244,14738 7541,14989 7908,15071 8348,14984 8787,14898 9169,14669 9495,14296 9821,13921 9993,13514 10013,13074 10034,12631 9897,12286 9601,12034 Z"/></g><g style="stroke:none;fill:rgb(238,238,0)"><path d="M 9109,12884 L 9109,12884 C 9100,12657 9011,12498 8841,12406 8669,12315 8467,12317 8234,12413 8002,12510 7806,12674 7647,12900 7487,13129 7413,13357 7422,13583 7431,13809 7521,13968 7692,14060 7863,14151 8065,14149 8298,14053 8531,13957 8726,13793 8884,13566 9044,13337 9118,13109 9109,12884 Z"/></g></g></g></g></svg>