<?xml version="1.0" encoding="UTF-8"?>
<!DOCTYPE svg PUBLIC "-//W3C//DTD SVG 1.1//EN" "http://www.w3.org/Graphics/SVG/1.1/DTD/svg11.dtd"><svg version="1.1" viewBox="0 0 21000 29700" preserveAspectRatio="xMidYMid" fill-rule="evenodd" xmlns="http://www.w3.org/2000/svg" xmlns:xlink="http://www.w3.org/1999/xlink"><g visibility="visible" id="Default"><desc>Master slide</desc><g style="stroke:none;fill:none"><rect x="0" y="0" width="21000" height="29700"/></g></g><g visibility="visible" id="page1"><desc>Slide</desc><g><desc>Graphic</desc><g><g style="stroke:none;fill:rgb(238,17,17)"><path d="M 14475,12553 L 14475,12553 C 14276,12216 14029,11898 13732,11601 12837,10708 11758,10261 10493,10263 9228,10261 8148,10708 7253,11601 6358,12494 5911,13573 5913,14836 5913,15933 6251,16891 6925,17709 9797,19326 12510,18252 15063,14492 15062,14490 15062,14486 15062,14484 15013,13779 14817,13135 14475,12553 Z"/></g><g style="stroke:none;fill:rgb(187,0,0)"><path d="M 15063,14494 L 15063,14492 15063,14492 C 12510,18252 9797,19326 6925,17709 7024,17827 7128,17943 7241,18056 7246,18056 7250,18056 7255,18058 L 7253,18070 7253,18070 C 7508,18323 7778,18542 8062,18724 8211,18818 8364,18902 8520,18979 8558,18997 8595,19015 8633,19031 9200,19283 9821,19410 10493,19410 11758,19410 12837,18963 13732,18070 13802,17998 13872,17925 13938,17852 14032,17743 14124,17634 14208,17521 14224,17499 14238,17476 14255,17457 14358,17312 14451,17164 14536,17012 14768,16589 14925,16137 15008,15653 15037,15481 15056,15306 15065,15130 15070,15032 15074,14934 15074,14836 15074,14720 15070,14606 15063,14494 Z"/></g><g style="stroke:none;fill:rgb(0,0,0)"><path d="M 14059,12053 L 12441,13447 12441,13447 C 13456,14300 14062,14833 14258,15045 14574,15394 14773,15687 14850,15924 L 14851,15926 14851,15926 C 14871,15992 14884,16054 14887,16111 L 14877,16231 14877,16231 C 14875,16241 14871,16249 14870,16259 14858,16302 14840,16342 14815,16378 14981,16398 15068,16332 15078,16184 15080,16137 15076,16068 15063,15980 15050,15873 15040,15806 15039,15781 15133,15511 15272,15125 15458,14617 15843,13553 15378,12698 14059,12053 Z"/></g><g style="stroke:none;fill:rgb(102,102,102)"><path d="M 14258,15045 L 14258,15045 C 14062,14833 13456,14300 12441,13447 L 12441,13447 10566,15021 10598,15058 10598,15058 C 10757,15212 10924,15352 11099,15479 13470,16004 14523,15858 14258,15045 Z"/></g><g style="stroke:none;fill:rgb(119,119,119)"><path d="M 14851,15926 L 14850,15924 14850,15924 C 14773,15687 14574,15394 14258,15045 14523,15858 13470,16004 11099,15479 11442,15730 11818,15936 12229,16098 12291,16123 12337,16140 12371,16153 12566,16220 12780,16277 13011,16319 13114,16340 13201,16355 13269,16366 13503,16409 13717,16434 13916,16449 14229,16472 14491,16456 14704,16408 14709,16408 14715,16405 14721,16404 14753,16398 14784,16389 14815,16378 14840,16342 14858,16302 14870,16259 14871,16249 14875,16241 14877,16231 L 14887,16111 14887,16111 C 14884,16054 14871,15992 14851,15926 Z"/></g><g style="stroke:rgb(0,255,0);stroke-width:2;stroke-linejoin:round;fill:rgb(255,255,255)"><path style="fill:none" d="M 14851,15926 L 14850,15924"/></g><g style="stroke:none;fill:rgb(187,0,0)"><path d="M 14944,13645 L 14944,13645 C 14869,13337 14763,13056 14624,12808 14826,13516 14892,14216 14822,14909 14849,14897 14878,14883 14907,14869 14936,14855 14966,14841 14995,14827 15027,14810 15060,14791 15092,14774 15067,14328 15018,13952 14944,13645 Z"/></g><g style="stroke:none;fill:rgb(238,17,17)"><path d="M 14624,12808 L 14624,12808 C 14456,12477 14226,12144 13935,11813 13581,11411 13199,11093 12785,10859 L 10471,14456 10471,14456 C 10286,14745 10331,14945 10602,15057 10805,15091 11078,15119 11424,15146 11794,15175 12231,15196 12736,15215 12951,15224 13168,15223 13383,15213 13946,15183 14426,15083 14822,14909 14892,14216 14826,13516 14624,12808 Z"/></g><g style="stroke:none;fill:rgb(255,255,255)"><path d="M 13101,13510 L 13101,13510 C 13141,13255 13078,13028 12915,12828 12648,12502 12301,12360 11873,12399 11692,12416 11576,12506 11519,12666 11382,13063 11481,13395 11815,13660 12153,13928 12518,13984 12910,13828 12761,13853 12621,13826 12492,13748 12290,13631 12197,13455 12214,13224 12227,13043 12326,12975 12517,13022 12781,13080 12975,13244 13101,13510 Z"/></g><g style="stroke:none;fill:rgb(0,0,0)"><path d="M 12517,13022 L 12517,13022 C 12326,12975 12227,13043 12214,13224 12197,13455 12290,13631 12492,13748 12621,13826 12761,13853 12910,13828 13018,13768 13081,13679 13096,13559 13098,13543 13099,13525 13101,13510 12975,13244 12781,13080 12517,13022 Z"/></g><g style="stroke:none;fill:rgb(255,153,68)"><path d="M 9601,12034 L 9601,12034 C 9304,11783 8936,11701 8497,11788 8059,11875 7676,12105 7349,12478 7024,12851 6850,13258 6830,13698 6810,14141 6947,14486 7244,14738 7541,14989 7908,15071 8348,14984 8787,14898 9169,14669 9495,14296 9821,13921 9993,13514 10013,13074 10034,12631 9897,12286 9601,12034 Z"/></g><g style="stroke:none;fill:rgb(238,238,0)"><path d="M 9109,12884 L 9109,12884 C 9100,12657 9011,12498 8841,12406 8669,12315 8467,12317 8234,12413 8002,12510 7806,12674 7647,12900 7487,13129 7413,13357 7422,13583 7431,13809 7521,13968 7692,14060 7863,14151 8065,14149 8298,14053 8531,13957 8726,13793 8884,13566 9044,13337 9118,13109 9109,12884 Z"/></g></g></g></g></svg>