<?xml version="1.0" encoding="UTF-8"?>
<!DOCTYPE svg PUBLIC "-//W3C//DTD SVG 1.1//EN" "http://www.w3.org/Graphics/SVG/1.1/DTD/svg11.dtd"><svg version="1.1" viewBox="0 0 21000 29700" preserveAspectRatio="xMidYMid" fill-rule="evenodd" xmlns="http://www.w3.org/2000/svg" xmlns:xlink="http://www.w3.org/1999/xlink"><g visibility="visible" id="Default"><desc>Master slide</desc><g style="stroke:none;fill:none"><rect x="0" y="0" width="21000" height="29700"/></g></g><g visibility="visible" id="page1"><desc>Slide</desc><g><desc>Graphic</desc><g><g style="stroke:none;fill:rgb(51,51,51)"><path d="M 9216,10769 L 9216,10769 C 9230,10740 9246,10711 9262,10683 9312,10599 9371,10533 9443,10480 L 9443,10480 10409,13966 10416,13988 10416,13988 C 10468,14214 10529,14478 10601,14780 L 10601,14780 10698,14815 10427,13759 10427,13759 C 10145,12593 9828,11442 9480,10303 9028,10706 8777,11328 8732,12166 8694,12846 8905,13571 9363,14337 L 9560,14407 9560,14407 C 9311,14012 9137,13645 9033,13311 8882,12820 8816,12553 8831,12510 8847,12465 8869,12389 8898,12283 8902,12267 8905,12249 8910,12230 8933,12118 8952,11947 8970,11717 8971,11699 8974,11681 8975,11663 8986,11545 9003,11428 9026,11314 9031,11284 9036,11257 9045,11231 9083,11069 9139,10915 9216,10769 Z"/><path d="M 11214,16758 L 11214,16758 C 11204,16750 11198,16746 11198,16740 11158,16547 11117,16393 11074,16278 11052,16216 11029,16166 11007,16127 11004,16102 10999,16077 10994,16052 10989,16024 10983,15996 10980,15968 L 10974,15933 10974,15933 C 10959,15865 10943,15795 10928,15726 10926,15713 10922,15700 10921,15688 L 10921,15688 10698,14815 10601,14780 10601,14780 C 10641,14947 10684,15124 10730,15314 10725,15342 10737,15439 10763,15601 10792,15776 10818,15887 10837,15931 10848,15956 10859,15981 10863,16005 10873,16060 10868,16112 10844,16162 10838,16172 10833,16180 10828,16189 10818,16207 10806,16225 10791,16241 10770,16233 10750,16226 10731,16220 10692,16208 10651,16197 10611,16185 10609,16184 10607,16183 10610,16183 L 10610,16183 10534,16040 10494,15990 10494,15990 C 10473,15960 10451,15920 10433,15870 10416,15820 10409,15792 10417,15787 10356,15642 10287,15501 10207,15363 10132,15230 10046,15101 9952,14976 9806,14779 9675,14590 9560,14407 L 9363,14337 9363,14337 C 9469,14510 9585,14689 9717,14868 L 9717,14868 10327,15947 10345,15964 10345,15964 C 10386,16038 10429,16126 10475,16225 10491,16258 10506,16295 10521,16332 10573,16451 10626,16586 10682,16737 10684,16746 10689,16756 10691,16765 10700,16797 10707,16829 10715,16859 L 10852,16908 10852,16908 C 10824,16794 10795,16678 10765,16560 10763,16551 10758,16542 10756,16533 10736,16468 10718,16406 10698,16342 10696,16335 10697,16330 10700,16324 10745,16317 10792,16311 10838,16306 10844,16305 10850,16304 10856,16305 L 10856,16304 10856,16304 C 10856,16304 10856,16304 10858,16304 10878,16299 10900,16296 10921,16295 10926,16292 10935,16293 10947,16300 10988,16536 11036,16766 11088,16992 L 11180,17025 11180,17025 C 11157,16961 11189,16903 11278,16849 11283,16846 11289,16838 11296,16826 11346,16807 11394,16788 11444,16771 11650,16701 11851,16663 12048,16660 12388,16653 12714,16744 13031,16931 13039,16933 13051,16937 13064,16943 13113,17058 13135,17224 13130,17440 13120,17551 13112,17643 13104,17715 L 13281,17778 13281,17778 C 13284,17749 13285,17721 13284,17693 13317,17284 13256,17007 13102,16862 13084,16856 13072,16851 13064,16848 12730,16685 12400,16599 12073,16592 11873,16587 11677,16612 11482,16667 11391,16690 11304,16720 11214,16758 Z M 10866,15825 L 10866,15825 C 10864,15820 10861,15816 10860,15811 10860,15809 10860,15809 10862,15810 10862,15815 10865,15819 10866,15825 Z"/><path d="M 11873,17143 L 11873,17143 C 11909,17137 11945,17134 11979,17132 12253,17024 12504,17033 12728,17157 12738,17310 12736,17451 12722,17578 L 12790,17602 12790,17602 C 12808,17466 12815,17321 12809,17165 12807,17163 12802,17161 12793,17156 12640,17013 12477,16933 12305,16919 12187,16908 12062,16929 11931,16981 11866,17008 11799,17042 11728,17086 11715,17086 11703,17088 11690,17089 11639,17122 11585,17141 11528,17150 L 11632,17187 11632,17187 C 11716,17168 11797,17153 11873,17143 Z"/><path d="M 10852,16908 L 10715,16859 10715,16859 C 10787,17129 10857,17392 10922,17651 10957,17781 10991,17910 11025,18039 11106,18350 11183,18651 11258,18944 11279,18984 11299,19023 11321,19059 L 11484,19171 11484,19171 C 11517,19181 11586,19196 11693,19219 11699,19217 11708,19219 11720,19226 11851,19219 11964,19184 12058,19123 12416,18911 12748,18629 13054,18277 13189,18101 13265,17935 13281,17778 L 13104,17715 13104,17715 C 13096,17784 13087,17835 13078,17868 13001,18088 12881,18278 12722,18439 12422,18717 12081,18946 11701,19126 11693,19131 11687,19136 11686,19143 11589,19130 11527,19105 11496,19072 11492,19069 11485,19067 11474,19064 11443,19010 11414,18959 11385,18909 11382,18902 11375,18900 11366,18901 11295,18633 11224,18361 11154,18085 11119,17956 11087,17827 11053,17697 10999,17493 10947,17285 10894,17075 10878,17019 10866,16963 10852,16908 Z"/><path d="M 12790,17602 L 12722,17578 12722,17578 C 12692,17848 12606,18056 12462,18202 12300,18353 12086,18501 11825,18647 11708,18530 11651,18404 11652,18272 11664,18127 11652,17986 11618,17849 11568,17648 11472,17455 11330,17270 11434,17236 11535,17209 11632,17187 L 11528,17150 11528,17150 C 11461,17161 11388,17156 11312,17136 11284,17126 11254,17116 11225,17104 L 11223,17104 11223,17104 C 11218,17097 11218,17092 11220,17090 11221,17089 11221,17089 11223,17089 11213,17079 11206,17071 11200,17064 11199,17062 11199,17062 11197,17062 L 11199,17062 11199,17062 C 11191,17049 11184,17037 11180,17025 L 11088,16992 11088,16992 C 11092,17016 11099,17041 11104,17066 L 11106,17067 11106,17067 C 11151,17159 11192,17255 11234,17350 11341,17601 11434,17858 11518,18123 11573,18300 11624,18480 11668,18663 11666,18664 11673,18672 11688,18682 11775,18709 11849,18710 11909,18684 11913,18677 11920,18678 11934,18688 12239,18576 12466,18397 12611,18145 12634,18105 12654,18065 12674,18025 12728,17899 12769,17757 12790,17602 Z"/></g><g style="stroke:none;fill:rgb(255,0,0)"><path d="M 13064,16943 L 13064,16943 C 13051,16937 13039,16933 13031,16931 12714,16744 12388,16653 12048,16660 11851,16663 11650,16701 11444,16771 11394,16788 11346,16807 11296,16826 11289,16838 11283,16846 11278,16849 11174,16913 11146,16984 11199,17062 11199,17062 11199,17062 11200,17064 11206,17071 11213,17079 11223,17089 11221,17089 11221,17089 11220,17090 11222,17091 11224,17094 11228,17096 11225,17099 11224,17102 11225,17104 11254,17116 11284,17126 11312,17136 11454,17174 11579,17159 11690,17089 11703,17088 11715,17086 11728,17086 11799,17042 11866,17008 11931,16981 12062,16929 12187,16908 12305,16919 12477,16933 12640,17013 12793,17156 12802,17161 12807,17163 12809,17165 12823,17503 12778,17790 12674,18025 12654,18065 12634,18105 12611,18145 12466,18397 12239,18576 11934,18688 11920,18678 11913,18677 11909,18684 L 11909,18684 C 11849,18710 11775,18709 11688,18682 11673,18672 11666,18664 11668,18663 11624,18480 11573,18300 11518,18123 11434,17858 11341,17601 11234,17350 11192,17255 11151,17159 11106,17067 L 11104,17066 11104,17066 C 11046,16817 10993,16560 10947,16300 10935,16293 10926,16292 10921,16295 10900,16296 10878,16299 10858,16304 10856,16304 10856,16304 10856,16304 L 10856,16305 10856,16305 C 10850,16304 10844,16305 10838,16306 10792,16311 10745,16317 10700,16324 10697,16330 10696,16335 10698,16342 10718,16406 10736,16468 10756,16533 10758,16542 10763,16551 10765,16560 10808,16734 10851,16905 10894,17075 10947,17285 10999,17493 11053,17697 11087,17827 11119,17956 11154,18085 11224,18361 11295,18633 11366,18901 11375,18900 11382,18902 11385,18909 11414,18959 11443,19010 11474,19064 11485,19067 11492,19069 11496,19072 11527,19105 11589,19130 11686,19143 11687,19136 11693,19131 11701,19126 12081,18946 12422,18717 12722,18439 12881,18278 13001,18088 13078,17868 13095,17800 13112,17657 13130,17440 13135,17224 13113,17058 13064,16943 Z"/></g><g style="stroke:none;fill:rgb(255,255,255)"><path d="M 10862,15810 L 10862,15810 C 10860,15809 10860,15809 10860,15811 10861,15816 10864,15820 10866,15825 10865,15819 10862,15815 10862,15810 Z"/></g><g style="stroke:none;fill:rgb(202,202,202)"><path d="M 10863,16005 L 10863,16005 C 10859,15981 10848,15956 10837,15931 10818,15887 10792,15776 10763,15601 10737,15439 10725,15342 10730,15314 10601,14780 10496,14339 10416,13988 L 10416,13988 10410,13988 10407,13965 10409,13966 9443,10480 9443,10480 C 9371,10533 9312,10599 9262,10683 9246,10711 9230,10740 9216,10769 L 10844,16162 10844,16162 C 10868,16112 10873,16060 10863,16005 Z"/></g><g style="stroke:none;fill:rgb(130,130,130)"><path d="M 10416,13988 L 10416,13988 10409,13966 10407,13965 10416,13988 Z"/></g><g style="stroke:none;fill:rgb(156,156,156)"><path d="M 10433,15870 L 10433,15870 C 10451,15920 10473,15960 10494,15990 L 10494,15990 10534,16040 10610,16183 8975,11663 8975,11663 C 8974,11681 8971,11699 8970,11717 8952,11947 8933,12118 8910,12230 L 10207,15363 10207,15363 C 10287,15501 10356,15642 10417,15787 10409,15792 10416,15820 10433,15870 Z"/></g><g style="stroke:none;fill:rgb(124,124,124)"><path d="M 8910,12230 L 8910,12230 C 8905,12249 8902,12267 8898,12283 8869,12389 8847,12465 8831,12510 8816,12553 8882,12820 9033,13311 9183,13801 9491,14356 9952,14976 10046,15101 10132,15230 10207,15363 L 8910,12230 Z"/></g><g style="stroke:none;fill:rgb(184,184,184)"><path d="M 10564,15287 L 10564,15287 C 10581,15319 10582,15351 10571,15383 10559,15414 10538,15438 10505,15451 10495,15455 10483,15459 10473,15461 L 10731,16220 10731,16220 C 10750,16226 10770,16233 10791,16241 10806,16225 10818,16207 10828,16189 10833,16180 10838,16172 10844,16162 L 9216,10769 9216,10769 C 9139,10915 9083,11069 9045,11231 L 10392,15222 10392,15222 C 10423,15210 10455,15209 10488,15221 10523,15234 10547,15256 10564,15287 Z"/></g><g style="stroke:none;fill:rgb(255,255,255)"><path d="M 10571,15383 L 10571,15383 C 10582,15351 10581,15319 10564,15287 10547,15256 10523,15234 10488,15221 10455,15209 10423,15210 10392,15222 10390,15222 10390,15222 10387,15224 10354,15238 10333,15262 10322,15294 10310,15325 10311,15357 10328,15388 10345,15420 10369,15442 10404,15454 10427,15463 10452,15465 10473,15461 10483,15459 10495,15455 10505,15451 10538,15438 10559,15414 10571,15383 Z"/></g><g style="stroke:none;fill:rgb(166,166,166)"><path d="M 10610,16183 L 10610,16183 C 10607,16183 10609,16184 10611,16185 10651,16197 10692,16208 10731,16220 L 10473,15461 10473,15461 C 10452,15465 10427,15463 10404,15454 10369,15442 10345,15420 10328,15388 10311,15357 10310,15325 10322,15294 10333,15262 10354,15238 10387,15224 10390,15222 10390,15222 10392,15222 L 9045,11231 9045,11231 C 9036,11257 9031,11284 9026,11314 9003,11428 8986,11545 8975,11663 L 10610,16183 Z"/></g><g style="stroke:rgb(0,0,0);stroke-width:33;stroke-linejoin:round;fill:rgb(255,255,255)"><path style="fill:none" d="M 10564,15287 L 10564,15287 C 10547,15256 10523,15234 10488,15221 10455,15209 10423,15210 10392,15222 10390,15222 10390,15222 10387,15224 10354,15238 10333,15262 10322,15294 10310,15325 10311,15357 10328,15388 10345,15420 10369,15442 10404,15454 10427,15463 10452,15465 10473,15461 10483,15459 10495,15455 10505,15451 10538,15438 10559,15414 10571,15383 10582,15351 10581,15319 10564,15287"/></g><g style="stroke:none;fill:rgb(102,102,102)"><path d="M 11224,10321 L 11224,10321 C 11197,10431 11173,10541 11147,10651 11112,10802 11075,10953 11041,11107 11039,11112 11037,11119 11036,11126 10836,12026 10628,12923 10415,13822 10391,13927 10365,14034 10341,14140 L 10027,15458 10027,15458 C 10005,15536 9981,15619 9958,15706 9914,15875 9867,16060 9820,16260 9814,16258 9805,16258 9794,16256 9307,16065 8615,16266 7718,16860 7725,16867 7724,16879 7719,16894 7700,17200 7731,17492 7812,17768 7875,17949 7940,18144 8006,18356 8005,18360 8008,18369 8012,18381 8141,18675 8313,18896 8532,19048 8544,19044 8548,19050 8548,19066 8617,19070 8685,19078 8752,19091 8757,19089 8762,19094 8767,19105 8912,19085 9067,19049 9234,18997 9252,18984 9265,18979 9276,18982 9439,18819 9559,18663 9634,18512 9634,18502 9641,18496 9654,18495 9815,17679 10037,17023 10318,16529 10372,16410 10427,16290 10488,16172 L 10488,16172 10697,15791 10758,15620 10758,15620 C 10756,15620 10756,15620 10756,15618 10905,15337 10983,15194 10983,15190 11153,14800 11254,14577 11291,14524 11288,14517 11288,14508 11291,14502 11515,14043 11688,13652 11813,13331 11921,13051 11991,12824 12021,12651 12031,12599 12036,12546 12039,12491 12069,11944 11799,11221 11224,10321 Z M 10010,16004 L 10010,16004 C 10031,16015 10052,16027 10073,16038 10098,16052 10122,16067 10145,16080 10182,16102 10220,16122 10255,16144 10249,16142 10275,16159 10334,16195 10298,16195 10172,16487 9954,17069 9751,17614 9560,18161 9383,18707 9380,18715 9379,18723 9381,18734 9290,18843 9155,18944 8969,19040 8960,19042 8947,19047 8932,19057 8393,18863 8040,18404 7873,17682 7874,17670 7872,17663 7866,17657 7812,17443 7832,17194 7928,16910 L 7928,16910 7899,16918 7889,16905 7889,16905 C 8754,16316 9374,16135 9750,16363 9758,16361 9765,16362 9772,16365 9782,16517 9762,16654 9708,16776 9705,16778 9701,16782 9693,16786 9385,16619 8869,16663 8139,16918 L 8041,17238 8041,17238 C 8116,17747 8288,18200 8557,18596 8563,18601 8566,18608 8569,18619 8732,18653 8916,18655 9120,18621 9132,18617 9146,18612 9159,18608 9601,17587 9873,16741 9978,16071 9981,16048 9985,16028 9988,16007 9987,15996 9986,15989 9985,15989 9993,15993 10003,15998 10010,16004 Z M 11285,10603 L 11285,10603 C 11324,10678 11375,10777 11436,10898 11498,11018 11559,11157 11624,11314 11633,11337 11641,11360 11650,11383 11682,11467 11710,11549 11736,11628 11742,11647 11748,11664 11754,11684 11801,11837 11835,11983 11857,12125 11913,12490 11884,12813 11774,13091 11764,13112 11756,13131 11748,13150 11592,13535 11457,13860 11340,14122 11339,14125 11334,14128 11326,14131 11195,14490 11048,14833 10887,15162 10864,15209 10840,15257 10817,15305 10765,15401 10715,15496 10664,15590 10650,15616 10636,15641 10620,15668 10570,15757 10519,15846 10465,15933 L 10464,15933 10464,15933 C 10457,15944 10449,15956 10442,15969 10428,15993 10423,16033 10429,16091 10401,16055 10369,16027 10331,16008 10301,15993 10270,15983 10232,15978 L 10125,15979 10125,15979 C 10089,15977 10060,15950 10035,15904 10031,15900 10029,15895 10027,15890 10035,15825 10043,15763 10051,15706 10060,15642 10068,15578 10074,15516 L 10073,15525 10073,15525 C 10129,15423 10162,15350 10172,15305 10176,15291 10179,15277 10183,15262 10261,14919 10337,14605 10403,14318 10430,14207 10455,14102 10478,14000 10593,13519 10687,13133 10758,12841 10898,12273 11016,11773 11113,11342 11172,11072 11223,10828 11266,10610 11268,10600 11268,10590 11270,10581 11276,10589 11281,10597 11285,10603 Z M 9636,16845 L 9636,16845 C 9639,16848 9646,16848 9659,16847 9605,17329 9427,17890 9121,18533 9122,18537 9115,18543 9097,18551 8960,18576 8846,18573 8754,18543 8747,18537 8736,18537 8721,18548 8471,18387 8310,18109 8236,17716 8232,17706 8230,17699 8228,17694 8200,17493 8203,17267 8234,17016 8238,17002 8239,16991 8232,16984 8915,16743 9383,16697 9636,16845 Z"/></g><g style="stroke:none;fill:rgb(255,0,0)"><path d="M 10073,16038 L 10073,16038 C 10052,16027 10031,16015 10010,16004 10003,15998 9993,15993 9985,15989 9986,15989 9987,15996 9988,16007 9985,16028 9981,16048 9978,16071 9873,16741 9601,17587 9159,18608 9146,18612 9132,18617 9120,18621 8916,18655 8732,18653 8569,18619 8566,18608 8563,18601 8557,18596 8288,18200 8116,17747 8041,17238 L 8139,16918 8139,16918 C 8869,16663 9385,16619 9693,16786 9701,16782 9705,16778 9708,16776 9762,16654 9782,16517 9772,16365 9765,16362 9758,16361 9750,16363 9374,16135 8754,16316 7889,16905 L 7889,16905 7899,16918 7928,16910 7928,16910 C 7832,17194 7812,17443 7866,17657 7872,17663 7874,17670 7873,17682 8040,18404 8393,18863 8932,19057 8947,19047 8960,19042 8969,19040 9155,18944 9290,18843 9381,18734 9379,18723 9380,18715 9383,18707 9560,18161 9751,17614 9954,17069 10172,16487 10298,16195 10334,16195 10275,16159 10249,16142 10255,16144 10220,16122 10182,16102 10145,16080 10122,16067 10098,16052 10073,16038 Z"/></g><g style="stroke:none;fill:rgb(51,51,51)"><path d="M 10598,15193 L 10598,15193 C 10575,15131 10538,15105 10491,15113 10449,15119 10400,15151 10341,15207 10330,15218 10319,15230 10308,15242 10307,15243 10305,15243 10304,15245 10304,15247 10305,15248 10305,15250 10307,15255 10309,15261 10312,15269 10336,15332 10368,15375 10405,15400 10440,15422 10481,15426 10527,15413 10548,15408 10568,15397 10591,15384 10603,15376 10618,15369 10631,15359 10629,15352 10628,15344 10628,15336 10623,15276 10613,15229 10598,15193 Z M 10459,15357 L 10455,15345 10455,15345 C 10554,15318 10555,15323 10459,15357 Z M 10462,15211 L 10462,15211 C 10455,15213 10447,15212 10439,15212 10437,15212 10434,15208 10432,15200 10444,15201 10455,15201 10465,15202 10522,15204 10522,15207 10462,15211 Z"/></g><g style="stroke:none;fill:rgb(255,255,255)"><path d="M 10455,15345 L 10459,15357 10459,15357 C 10555,15323 10554,15318 10455,15345 Z"/></g><g style="stroke:none;fill:rgb(99,99,99)"><path d="M 10462,15211 L 10462,15211 C 10481,15210 10493,15209 10501,15207 10511,15206 10510,15205 10502,15204 10496,15203 10483,15203 10465,15202 L 10462,15211 Z"/></g><g style="stroke:none;fill:rgb(255,255,255)"><path d="M 10462,15211 L 10465,15202 10465,15202 C 10455,15201 10444,15201 10432,15200 10434,15208 10437,15212 10439,15212 10447,15212 10455,15213 10462,15211 Z"/></g><g style="stroke:none;fill:rgb(148,148,148)"><path d="M 11736,11628 L 11736,11628 C 11710,11549 11682,11467 11650,11383 11641,11360 11633,11337 11624,11314 L 10491,15113 10491,15113 C 10538,15105 10575,15131 10598,15193 L 11754,11684 11754,11684 C 11748,11664 11742,11647 11736,11628 Z"/></g><g style="stroke:none;fill:rgb(168,168,168)"><path d="M 11624,11314 L 11624,11314 C 11559,11157 11498,11018 11436,10898 L 10308,15242 10308,15242 C 10319,15230 10330,15218 10341,15207 10400,15151 10449,15119 10491,15113 L 11624,11314 Z"/></g><g style="stroke:none;fill:rgb(117,117,117)"><path d="M 11748,13150 L 11748,13150 C 11756,13131 11764,13112 11774,13091 11884,12813 11913,12490 11857,12125 L 10465,15933 10465,15933 C 10519,15846 10570,15757 10620,15668 10636,15641 10650,15616 10664,15590 10715,15496 10765,15401 10817,15305 10840,15257 10864,15209 10887,15162 11048,14833 11195,14490 11326,14131 11334,14128 11339,14125 11340,14122 11457,13860 11592,13535 11748,13150 Z"/></g><g style="stroke:none;fill:rgb(131,131,131)"><path d="M 11857,12125 L 11857,12125 C 11835,11983 11801,11837 11754,11684 L 10598,15193 10598,15193 C 10613,15229 10623,15276 10628,15336 10628,15344 10629,15352 10631,15359 10618,15369 10603,15376 10591,15384 10568,15397 10548,15408 10527,15413 L 10331,16008 10331,16008 C 10369,16027 10401,16055 10429,16091 10423,16033 10428,15993 10442,15969 10449,15956 10457,15944 10464,15933 L 10464,15933 10465,15933 11857,12125 Z"/></g><g style="stroke:none;fill:rgb(168,168,168)"><path d="M 10312,15269 L 10312,15269 C 10309,15261 10307,15255 10305,15250 L 10305,15250 10125,15979 10232,15978 10405,15400 10405,15400 C 10368,15375 10336,15332 10312,15269 Z"/></g><g style="stroke:none;fill:rgb(148,148,148)"><path d="M 10232,15978 L 10232,15978 C 10270,15983 10301,15993 10331,16008 L 10527,15413 10527,15413 C 10481,15426 10440,15422 10405,15400 L 10232,15978 Z"/></g><g style="stroke:none;fill:rgb(180,180,180)"><path d="M 11436,10898 L 11436,10898 C 11375,10777 11324,10678 11285,10603 11281,10597 11276,10589 11270,10581 11268,10590 11268,10600 11266,10610 11223,10828 11172,11072 11113,11342 11016,11773 10898,12273 10758,12841 10687,13133 10593,13519 10478,14000 10455,14102 10430,14207 10403,14318 10337,14605 10261,14919 10183,15262 10179,15277 10176,15291 10172,15305 10162,15350 10129,15423 10073,15525 L 10074,15516 10074,15516 C 10068,15578 10060,15642 10051,15706 10043,15763 10035,15825 10027,15890 10029,15895 10031,15900 10035,15904 10060,15950 10089,15977 10125,15979 L 10305,15250 10305,15250 C 10305,15248 10304,15247 10304,15245 10305,15243 10307,15243 10308,15242 L 11436,10898 Z"/></g></g></g></g></svg>