<?xml version="1.0" encoding="UTF-8"?>
<!DOCTYPE svg PUBLIC "-//W3C//DTD SVG 1.1//EN" "http://www.w3.org/Graphics/SVG/1.1/DTD/svg11.dtd"><svg version="1.1" viewBox="0 0 21000 29700" preserveAspectRatio="xMidYMid" fill-rule="evenodd" xmlns="http://www.w3.org/2000/svg" xmlns:xlink="http://www.w3.org/1999/xlink"><g visibility="visible" id="Default"><desc>Master slide</desc><g style="stroke:none;fill:none"><rect x="0" y="0" width="21000" height="29700"/></g></g><g visibility="visible" id="page1"><desc>Slide</desc><g><desc>Graphic</desc><g><g style="stroke:none;fill:rgb(51,51,51)"><path d="M 8467,10860 L 8467,10860 C 8478,10827 8489,10795 8500,10762 8534,10668 8582,10586 8645,10519 L 8645,10519 10181,13932 10192,13953 10192,13953 C 10280,14178 10384,14437 10507,14736 L 10507,14736 10608,14753 10165,13715 10165,13715 C 9690,12567 9186,11439 8651,10329 8271,10831 8129,11520 8223,12393 8299,13102 8629,13810 9210,14513 L 9416,14548 9416,14548 C 9102,14188 8870,13843 8712,13518 8482,13040 8371,12777 8379,12730 8388,12680 8396,12598 8407,12482 8408,12465 8408,12446 8410,12425 8414,12306 8404,12125 8384,11885 8381,11866 8381,11846 8379,11828 8370,11704 8368,11581 8371,11458 8371,11427 8373,11398 8376,11369 8387,11194 8416,11025 8467,10860 Z"/><path d="M 11444,16660 L 11444,16660 C 11431,16655 11425,16650 11424,16645 11352,16453 11284,16302 11224,16192 11191,16131 11160,16085 11132,16049 11124,16023 11116,15998 11107,15974 11095,15945 11086,15918 11078,15890 L 11067,15855 11067,15855 C 11041,15786 11013,15718 10988,15649 10983,15636 10978,15624 10975,15612 L 10975,15612 10608,14753 10507,14736 10507,14736 C 10573,14901 10646,15076 10723,15261 10722,15293 10750,15389 10804,15552 10861,15728 10904,15837 10931,15878 10948,15902 10962,15926 10970,15950 10990,16004 10992,16059 10976,16116 10974,16127 10970,16136 10966,16147 10959,16167 10951,16187 10937,16206 10916,16203 10895,16199 10874,16196 10835,16192 10792,16187 10751,16183 10749,16182 10748,16182 10749,16180 L 10749,16180 10650,16049 10602,16003 10602,16003 C 10576,15978 10549,15941 10523,15892 10497,15844 10487,15816 10493,15809 10409,15671 10317,15538 10215,15411 10116,15289 10012,15172 9898,15061 9720,14885 9559,14715 9416,14548 L 9210,14513 9210,14513 C 9343,14673 9489,14834 9647,14995 L 9647,14995 10430,15990 10452,16006 10452,16006 C 10504,16074 10562,16156 10623,16251 10644,16282 10665,16317 10685,16352 10758,16465 10832,16594 10913,16740 10917,16749 10922,16758 10926,16767 10940,16797 10954,16829 10966,16859 L 11108,16884 11108,16884 C 11062,16770 11014,16657 10966,16542 10962,16533 10956,16524 10953,16515 10921,16452 10893,16391 10863,16328 10859,16323 10859,16316 10862,16310 10905,16295 10950,16279 10996,16266 11001,16264 11007,16260 11012,16260 L 11013,16258 11013,16258 C 11013,16258 11013,16258 11015,16259 11034,16251 11055,16243 11076,16238 11080,16234 11089,16233 11101,16237 11182,16474 11267,16702 11357,16926 L 11453,16943 11453,16943 C 11419,16881 11442,16814 11520,16742 11525,16738 11530,16729 11534,16714 11580,16685 11625,16656 11671,16630 11863,16518 12056,16441 12249,16401 12584,16330 12921,16361 13266,16494 13275,16494 13287,16497 13301,16500 13368,16609 13417,16777 13449,17001 13458,17116 13464,17213 13469,17289 L 13654,17321 13654,17321 C 13653,17290 13648,17261 13643,17231 13608,16803 13501,16530 13324,16409 13306,16406 13294,16404 13286,16403 12928,16297 12587,16271 12262,16326 12065,16359 11874,16422 11691,16515 11607,16556 11524,16605 11444,16660 Z M 10943,15763 L 10943,15763 C 10939,15760 10937,15755 10934,15750 10934,15748 10934,15748 10936,15749 10937,15754 10940,15758 10943,15763 Z"/><path d="M 12158,16932 L 12158,16932 C 12193,16920 12226,16910 12260,16900 12513,16739 12763,16699 13005,16785 13041,16940 13062,17086 13068,17220 L 13139,17232 13139,17232 C 13135,17088 13117,16937 13084,16777 13084,16776 13079,16775 13068,16771 12893,16652 12718,16601 12546,16619 12427,16630 12309,16676 12188,16753 12128,16794 12067,16842 12005,16901 11993,16903 11980,16909 11968,16910 11922,16954 11873,16985 11818,17005 L 11925,17024 11925,17024 C 12006,16988 12083,16957 12158,16932 Z"/><path d="M 11108,16884 L 10966,16859 10966,16859 C 11081,17124 11195,17382 11304,17636 11359,17765 11413,17892 11469,18017 11601,18323 11727,18619 11850,18907 11878,18945 11903,18980 11932,19014 L 12113,19098 12113,19098 C 12145,19103 12217,19105 12326,19109 12332,19105 12341,19104 12354,19111 12482,19078 12586,19020 12671,18940 12990,18653 13270,18299 13514,17878 13619,17672 13665,17485 13654,17321 L 13469,17289 13469,17289 C 13472,17362 13472,17416 13469,17452 13429,17693 13342,17912 13213,18108 12964,18452 12665,18752 12319,19011 12311,19018 12307,19023 12306,19032 12209,19036 12143,19023 12107,18994 12102,18991 12094,18990 12083,18990 12044,18940 12007,18893 11971,18847 11967,18840 11960,18839 11950,18842 11836,18579 11719,18312 11603,18041 11548,17915 11495,17787 11441,17659 11353,17458 11266,17254 11180,17049 11155,16993 11132,16939 11108,16884 Z"/><path d="M 13139,17232 L 13068,17220 13068,17220 C 13084,17504 13033,17735 12916,17913 12781,18100 12596,18293 12360,18493 12227,18395 12149,18275 12128,18139 12115,17987 12079,17844 12022,17708 11941,17511 11814,17330 11642,17166 11739,17112 11835,17064 11925,17024 L 11818,17005 11818,17005 C 11753,17029 11681,17037 11601,17031 11571,17027 11542,17022 11511,17015 L 11509,17015 11509,17015 C 11503,17009 11502,17003 11504,17001 11504,16999 11504,16999 11506,16999 11496,16991 11487,16984 11479,16978 11477,16977 11477,16977 11476,16976 L 11477,16977 11477,16977 C 11467,16965 11459,16954 11453,16943 L 11357,16926 11357,16926 C 11366,16949 11376,16974 11385,16999 L 11387,16999 11387,16999 C 11446,17087 11504,17177 11560,17267 11707,17506 11845,17753 11970,18010 12055,18182 12134,18359 12209,18539 12207,18541 12214,18547 12231,18555 12321,18566 12395,18553 12451,18516 12454,18508 12461,18507 12476,18515 12758,18341 12952,18113 13053,17826 13068,17781 13081,17735 13096,17690 13129,17550 13145,17396 13139,17232 Z"/></g><g style="stroke:none;fill:rgb(255,0,0)"><path d="M 13301,16500 L 13301,16500 C 13287,16497 13275,16494 13266,16494 12921,16361 12584,16330 12249,16401 12056,16441 11863,16518 11671,16630 11625,16656 11580,16685 11534,16714 11530,16729 11525,16738 11520,16742 11428,16828 11412,16906 11477,16977 11477,16977 11477,16977 11479,16978 11487,16984 11496,16991 11506,16999 11504,16999 11504,16999 11504,17001 11506,17003 11509,17005 11512,17007 11510,17010 11509,17013 11511,17015 11542,17022 11571,17027 11601,17031 11748,17045 11870,17004 11968,16910 11980,16909 11993,16903 12005,16901 12067,16842 12128,16794 12188,16753 12309,16676 12427,16630 12546,16619 12718,16601 12893,16652 13068,16771 13079,16775 13084,16776 13084,16777 13156,17123 13159,17428 13096,17690 13081,17735 13068,17781 13053,17826 12952,18113 12758,18341 12476,18515 12461,18507 12454,18508 12451,18516 L 12451,18516 C 12395,18553 12321,18566 12231,18555 12214,18547 12207,18541 12209,18539 12134,18359 12055,18182 11970,18010 11845,17753 11707,17506 11560,17267 11504,17177 11446,17087 11387,16999 L 11385,16999 11385,16999 C 11286,16753 11190,16498 11101,16237 11089,16233 11080,16234 11076,16238 11055,16243 11034,16251 11015,16259 11013,16258 11013,16258 11013,16258 L 11012,16260 11012,16260 C 11007,16260 11001,16264 10996,16266 10950,16279 10905,16295 10862,16310 10859,16316 10859,16323 10863,16328 10893,16391 10921,16452 10953,16515 10956,16524 10962,16533 10966,16542 11036,16711 11107,16880 11180,17049 11266,17254 11353,17458 11441,17659 11495,17787 11548,17915 11603,18041 11719,18312 11836,18579 11950,18842 11960,18839 11967,18840 11971,18847 12007,18893 12044,18940 12083,18990 12094,18990 12102,18991 12107,18994 12143,19023 12209,19036 12306,19032 12307,19023 12311,19018 12319,19011 12665,18752 12964,18452 13213,18108 13342,17912 13429,17693 13469,17452 13474,17378 13468,17228 13449,17001 13417,16777 13368,16609 13301,16500 Z"/></g><g style="stroke:none;fill:rgb(255,255,255)"><path d="M 10936,15749 L 10936,15749 C 10934,15748 10934,15748 10934,15750 10937,15755 10939,15760 10943,15763 10940,15758 10937,15754 10936,15749 Z"/></g><g style="stroke:none;fill:rgb(202,202,202)"><path d="M 10970,15950 L 10970,15950 C 10962,15926 10948,15902 10931,15878 10904,15837 10861,15728 10804,15552 10750,15389 10722,15293 10723,15261 10507,14736 10329,14300 10192,13953 L 10192,13953 10186,13954 10179,13932 10181,13932 8645,10519 8645,10519 C 8582,10586 8534,10668 8500,10762 8489,10795 8478,10827 8467,10860 L 10976,16116 10976,16116 C 10992,16059 10990,16004 10970,15950 Z"/></g><g style="stroke:none;fill:rgb(130,130,130)"><path d="M 10192,13953 L 10192,13953 10181,13932 10179,13932 10192,13953 Z"/></g><g style="stroke:none;fill:rgb(156,156,156)"><path d="M 10523,15892 L 10523,15892 C 10549,15941 10576,15978 10602,16003 L 10602,16003 10650,16049 10749,16180 8379,11828 8379,11828 C 8381,11846 8381,11866 8384,11885 8404,12125 8414,12306 8410,12425 L 10215,15411 10215,15411 C 10317,15538 10409,15671 10493,15809 10487,15816 10497,15844 10523,15892 Z"/></g><g style="stroke:none;fill:rgb(124,124,124)"><path d="M 8410,12425 L 8410,12425 C 8408,12446 8408,12465 8407,12482 8396,12598 8388,12680 8379,12730 8371,12777 8482,13040 8712,13518 8942,13995 9338,14509 9898,15061 10012,15172 10116,15289 10215,15411 L 8410,12425 Z"/></g><g style="stroke:none;fill:rgb(184,184,184)"><path d="M 10555,15265 L 10555,15265 C 10577,15296 10583,15328 10577,15363 10571,15399 10554,15427 10524,15446 10513,15453 10503,15459 10494,15463 L 10874,16196 10874,16196 C 10895,16199 10916,16203 10937,16206 10951,16187 10959,16167 10966,16147 10970,16136 10974,16127 10976,16116 L 8467,10860 8467,10860 C 8416,11025 8387,11194 8376,11369 L 10374,15231 10374,15231 C 10401,15213 10433,15207 10469,15213 10505,15219 10533,15237 10555,15265 Z"/></g><g style="stroke:none;fill:rgb(255,255,255)"><path d="M 10577,15363 L 10577,15363 C 10583,15328 10577,15296 10555,15265 10533,15237 10505,15219 10469,15213 10433,15207 10401,15213 10374,15231 10371,15233 10371,15233 10370,15233 10340,15255 10321,15283 10315,15318 10309,15354 10317,15386 10339,15414 10360,15444 10387,15462 10424,15468 10448,15472 10472,15470 10494,15463 10503,15459 10513,15453 10524,15446 10554,15427 10571,15399 10577,15363 Z"/></g><g style="stroke:none;fill:rgb(166,166,166)"><path d="M 10749,16180 L 10749,16180 C 10748,16182 10749,16182 10751,16183 10792,16187 10835,16192 10874,16196 L 10494,15463 10494,15463 C 10472,15470 10448,15472 10424,15468 10387,15462 10360,15444 10339,15414 10317,15386 10309,15354 10315,15318 10321,15283 10340,15255 10370,15233 10371,15233 10371,15233 10374,15231 L 8376,11369 8376,11369 C 8373,11398 8371,11427 8371,11458 8368,11581 8370,11704 8379,11828 L 10749,16180 Z"/></g><g style="stroke:rgb(0,0,0);stroke-width:34;stroke-linejoin:round;fill:rgb(255,255,255)"><path style="fill:none" d="M 10555,15265 L 10555,15265 C 10533,15237 10505,15219 10469,15213 10433,15207 10401,15213 10374,15231 10371,15233 10371,15233 10370,15233 10340,15255 10321,15283 10315,15318 10309,15354 10317,15386 10339,15414 10360,15444 10387,15462 10424,15468 10448,15472 10472,15470 10494,15463 10503,15459 10513,15453 10524,15446 10554,15427 10571,15399 10577,15363 10583,15328 10577,15296 10555,15265"/></g><g style="stroke:none;fill:rgb(102,102,102)"><path d="M 12037,10334 L 12037,10334 C 11992,10442 11949,10550 11905,10659 11846,10806 11786,10955 11727,11106 11724,11111 11722,11118 11719,11124 11374,12011 11023,12894 10666,13776 10624,13878 10582,13984 10540,14088 L 10015,15381 10015,15381 C 9981,15457 9943,15539 9906,15624 9836,15789 9758,15970 9680,16166 9673,16162 9665,16161 9655,16157 9205,15873 8490,15953 7507,16398 7512,16407 7510,16419 7502,16433 7433,16744 7417,17049 7450,17346 7484,17543 7516,17755 7546,17984 7545,17989 7547,17999 7549,18012 7626,18335 7761,18594 7953,18789 7965,18787 7968,18795 7965,18811 8034,18828 8099,18848 8163,18874 8168,18873 8173,18878 8176,18891 8322,18897 8482,18888 8655,18865 8674,18855 8687,18853 8698,18857 8887,18720 9030,18582 9127,18441 9129,18431 9138,18426 9151,18427 9442,17620 9768,16988 10128,16533 10200,16420 10274,16308 10354,16198 L 10354,16198 10622,15846 10711,15681 10711,15681 C 10709,15681 10709,15681 10709,15679 10902,15419 11001,15286 11003,15283 11233,14912 11371,14703 11415,14655 11413,14647 11414,14638 11418,14632 11715,14202 11950,13833 12125,13527 12278,13260 12383,13039 12443,12868 12461,12816 12475,12763 12487,12706 12606,12153 12457,11361 12037,10334 Z M 9909,15939 L 9909,15939 C 9927,15953 9946,15970 9965,15985 9988,16004 10010,16023 10030,16041 10064,16069 10096,16099 10129,16126 10123,16123 10146,16146 10197,16193 10163,16188 9991,16463 9680,17020 9390,17542 9112,18067 8848,18596 8844,18603 8842,18611 8842,18623 8735,18718 8583,18796 8386,18861 8376,18861 8363,18865 8346,18872 7846,18575 7571,18040 7526,17270 7529,17257 7527,17250 7523,17243 7504,17014 7565,16761 7706,16487 L 7706,16487 7677,16491 7669,16476 7669,16476 C 8618,16030 9259,15957 9593,16259 9602,16259 9610,16261 9616,16265 9601,16423 9558,16560 9485,16675 9482,16676 9477,16679 9469,16683 9192,16455 8675,16406 7914,16535 L 7765,16844 7765,16844 C 7755,17380 7851,17876 8051,18331 8056,18337 8058,18345 8059,18356 8214,18422 8396,18456 8603,18460 8615,18458 8629,18455 8644,18453 9247,17486 9654,16669 9866,16002 9873,15979 9881,15958 9885,15938 9888,15926 9887,15919 9886,15918 9895,15925 9903,15932 9909,15939 Z M 12049,10635 L 12049,10635 C 12075,10718 12111,10829 12151,10965 12191,11098 12231,11252 12269,11424 12273,11450 12277,11475 12283,11500 12301,11592 12316,11681 12328,11767 12332,11787 12335,11807 12336,11828 12357,11993 12368,12149 12366,12299 12361,12684 12281,13009 12126,13274 12115,13294 12103,13312 12091,13330 11875,13697 11687,14005 11529,14251 11527,14254 11523,14257 11514,14259 11326,14603 11125,14928 10912,15235 10882,15279 10850,15324 10819,15369 10753,15458 10688,15546 10623,15633 10603,15658 10585,15680 10566,15705 10502,15788 10436,15868 10370,15948 L 10368,15949 10368,15949 C 10360,15958 10350,15969 10342,15981 10324,16003 10313,16044 10309,16104 10288,16062 10259,16027 10225,16000 10199,15980 10169,15963 10133,15952 L 10027,15934 10027,15934 C 9993,15925 9968,15893 9949,15841 9946,15836 9945,15830 9944,15825 9963,15759 9982,15698 9998,15641 10018,15577 10035,15512 10051,15449 L 10050,15459 10050,15459 C 10122,15366 10165,15296 10183,15252 10189,15238 10194,15224 10200,15210 10335,14872 10460,14564 10573,14282 10617,14173 10659,14069 10698,13970 10891,13498 11046,13118 11164,12832 11395,12276 11593,11785 11758,11360 11863,11094 11953,10854 12030,10638 12033,10628 12036,10617 12039,10608 12043,10618 12047,10627 12049,10635 Z M 9402,16733 L 9402,16733 C 9403,16736 9411,16738 9424,16738 9293,17223 9026,17766 8618,18369 8618,18374 8611,18378 8592,18383 8453,18383 8341,18360 8254,18312 8248,18305 8238,18304 8221,18311 8000,18101 7886,17787 7879,17371 7877,17360 7875,17352 7875,17348 7879,17135 7918,16903 7991,16653 7998,16638 7999,16627 7995,16619 8708,16497 9178,16535 9402,16733 Z"/></g><g style="stroke:none;fill:rgb(255,0,0)"><path d="M 9965,15985 L 9965,15985 C 9946,15970 9927,15953 9909,15939 9903,15932 9895,15925 9886,15918 9887,15919 9888,15926 9885,15938 9881,15958 9873,15979 9866,16002 9654,16669 9247,17486 8644,18453 8629,18455 8615,18458 8603,18460 8396,18456 8214,18422 8059,18356 8058,18345 8056,18337 8051,18331 7851,17876 7755,17380 7765,16844 L 7914,16535 7914,16535 C 8675,16406 9192,16455 9469,16683 9477,16679 9482,16676 9485,16675 9558,16560 9601,16423 9616,16265 9610,16261 9602,16259 9593,16259 9259,15957 8618,16030 7669,16476 L 7669,16476 7677,16491 7706,16487 7706,16487 C 7565,16761 7504,17014 7523,17243 7527,17250 7529,17257 7526,17270 7571,18040 7846,18575 8346,18872 8363,18865 8376,18861 8386,18861 8583,18796 8735,18718 8842,18623 8842,18611 8844,18603 8848,18596 9112,18067 9390,17542 9680,17020 9991,16463 10163,16188 10197,16193 10146,16146 10123,16123 10129,16126 10096,16099 10064,16069 10030,16041 10010,16023 9988,16004 9965,15985 Z"/></g><g style="stroke:none;fill:rgb(51,51,51)"><path d="M 10623,15214 L 10623,15214 C 10609,15147 10577,15113 10529,15113 10488,15111 10432,15135 10366,15182 10353,15191 10341,15202 10328,15212 10326,15212 10325,15213 10323,15214 10323,15216 10324,15217 10324,15219 10325,15225 10326,15232 10327,15240 10341,15310 10365,15359 10397,15392 10429,15420 10469,15431 10516,15427 10537,15425 10559,15418 10584,15409 10598,15404 10612,15398 10628,15390 10627,15382 10628,15374 10627,15366 10633,15304 10632,15254 10623,15214 Z M 10458,15357 L 10456,15344 10456,15344 C 10557,15335 10558,15340 10458,15357 Z M 10485,15209 L 10485,15209 C 10477,15208 10470,15206 10463,15205 10461,15204 10459,15200 10457,15192 10470,15195 10480,15196 10488,15200 10546,15212 10544,15215 10485,15209 Z"/></g><g style="stroke:none;fill:rgb(255,255,255)"><path d="M 10456,15344 L 10458,15357 10458,15357 C 10558,15340 10557,15335 10456,15344 Z"/></g><g style="stroke:none;fill:rgb(99,99,99)"><path d="M 10485,15209 L 10485,15209 C 10502,15211 10515,15212 10524,15211 10534,15212 10533,15210 10526,15208 10520,15206 10507,15203 10488,15200 L 10485,15209 Z"/></g><g style="stroke:none;fill:rgb(255,255,255)"><path d="M 10485,15209 L 10488,15200 10488,15200 C 10480,15196 10470,15195 10457,15192 10459,15200 10461,15204 10463,15205 10470,15206 10477,15208 10485,15209 Z"/></g><g style="stroke:none;fill:rgb(148,148,148)"><path d="M 12328,11767 L 12328,11767 C 12316,11681 12301,11592 12283,11500 12277,11475 12273,11450 12269,11424 L 10529,15113 10529,15113 C 10577,15113 10609,15147 10623,15214 L 12336,11828 12336,11828 C 12335,11807 12332,11787 12328,11767 Z"/></g><g style="stroke:none;fill:rgb(168,168,168)"><path d="M 12269,11424 L 12269,11424 C 12231,11252 12191,11098 12151,10965 L 10328,15212 10328,15212 C 10341,15202 10353,15191 10366,15182 10432,15135 10488,15111 10529,15113 L 12269,11424 Z"/></g><g style="stroke:none;fill:rgb(117,117,117)"><path d="M 12091,13330 L 12091,13330 C 12103,13312 12115,13294 12126,13274 12281,13009 12361,12684 12366,12299 L 10370,15948 10370,15948 C 10436,15868 10502,15788 10566,15705 10585,15680 10603,15658 10623,15633 10688,15546 10753,15458 10819,15369 10850,15324 10882,15279 10912,15235 11125,14928 11326,14603 11514,14259 11523,14257 11527,14254 11529,14251 11687,14005 11875,13697 12091,13330 Z"/></g><g style="stroke:none;fill:rgb(131,131,131)"><path d="M 12366,12299 L 12366,12299 C 12368,12149 12357,11993 12336,11828 L 10623,15214 10623,15214 C 10632,15254 10633,15304 10627,15366 10628,15374 10627,15382 10628,15390 10612,15398 10598,15404 10584,15409 10559,15418 10537,15425 10516,15427 L 10225,16000 10225,16000 C 10259,16027 10288,16062 10309,16104 10313,16044 10324,16003 10342,15981 10350,15969 10360,15958 10368,15949 L 10368,15949 10370,15948 12366,12299 Z"/></g><g style="stroke:none;fill:rgb(168,168,168)"><path d="M 10327,15240 L 10327,15240 C 10326,15232 10325,15225 10324,15219 L 10324,15219 10027,15934 10133,15952 10397,15392 10397,15392 C 10365,15359 10341,15310 10327,15240 Z"/></g><g style="stroke:none;fill:rgb(148,148,148)"><path d="M 10133,15952 L 10133,15952 C 10169,15963 10199,15980 10225,16000 L 10516,15427 10516,15427 C 10469,15431 10429,15420 10397,15392 L 10133,15952 Z"/></g><g style="stroke:none;fill:rgb(180,180,180)"><path d="M 12151,10965 L 12151,10965 C 12111,10829 12075,10718 12049,10635 12047,10627 12043,10618 12039,10608 12036,10617 12033,10628 12030,10638 11953,10854 11863,11094 11758,11360 11593,11785 11395,12276 11164,12832 11046,13118 10891,13498 10698,13970 10659,14069 10617,14173 10573,14282 10460,14564 10335,14872 10200,15210 10194,15224 10189,15238 10183,15252 10165,15296 10122,15366 10050,15459 L 10051,15449 10051,15449 C 10035,15512 10018,15577 9998,15641 9982,15698 9963,15759 9944,15825 9945,15830 9946,15836 9949,15841 9968,15893 9993,15925 10027,15934 L 10324,15219 10324,15219 C 10324,15217 10323,15216 10323,15214 10325,15213 10326,15212 10328,15212 L 12151,10965 Z"/></g></g></g></g></svg>