<?xml version="1.0" encoding="UTF-8"?>
<!DOCTYPE svg PUBLIC "-//W3C//DTD SVG 1.1//EN" "http://www.w3.org/Graphics/SVG/1.1/DTD/svg11.dtd"><svg version="1.1" viewBox="0 0 21000 29700" preserveAspectRatio="xMidYMid" fill-rule="evenodd" xmlns="http://www.w3.org/2000/svg" xmlns:xlink="http://www.w3.org/1999/xlink"><g visibility="visible" id="Default"><desc>Master slide</desc><g style="stroke:none;fill:none"><rect x="0" y="0" width="21000" height="29700"/></g></g><g visibility="visible" id="page1"><desc>Slide</desc><g><desc>Graphic</desc><g><g style="stroke:none;fill:rgb(51,51,51)"><path d="M 9482,10738 L 9482,10738 C 9498,10710 9516,10683 9533,10655 9586,10577 9651,10515 9725,10466 L 9725,10466 10489,13978 10495,14001 10495,14001 C 10533,14228 10579,14492 10634,14796 L 10634,14796 10728,14837 10520,13774 10520,13774 C 10304,12603 10054,11444 9771,10294 9299,10665 9013,11264 8919,12090 8843,12761 9012,13492 9424,14279 L 9616,14361 9616,14361 C 9390,13954 9238,13580 9154,13243 9032,12748 8981,12479 8999,12437 9018,12394 9044,12320 9079,12216 9083,12201 9087,12184 9093,12165 9123,12056 9153,11887 9183,11661 9184,11644 9189,11626 9190,11607 9208,11493 9232,11378 9261,11266 9268,11237 9275,11210 9285,11184 9332,11027 9396,10878 9482,10738 Z"/><path d="M 11133,16793 L 11133,16793 C 11123,16785 11117,16779 11118,16774 11087,16580 11054,16425 11020,16308 11001,16246 10981,16195 10962,16155 10960,16129 10956,16105 10954,16081 10948,16051 10944,16024 10943,15997 L 10939,15961 10939,15961 C 10928,15892 10916,15822 10906,15752 10904,15740 10902,15728 10901,15716 L 10901,15716 10728,14837 10634,14796 10634,14796 C 10664,14963 10697,15142 10731,15332 10725,15361 10732,15457 10748,15618 10767,15794 10786,15906 10804,15950 10814,15976 10822,16001 10825,16026 10832,16080 10823,16132 10797,16179 10791,16189 10785,16196 10779,16205 10767,16222 10756,16239 10740,16253 10720,16245 10701,16237 10680,16229 10643,16215 10601,16202 10563,16188 10563,16186 10561,16185 10563,16185 L 10563,16185 10496,16039 10458,15986 10458,15986 C 10438,15956 10419,15915 10405,15864 10390,15814 10384,15785 10392,15780 10341,15633 10280,15490 10208,15348 10140,15212 10062,15079 9976,14949 9841,14745 9722,14549 9616,14361 L 9424,14279 9424,14279 C 9519,14457 9627,14642 9746,14827 L 9746,14827 10295,15932 10312,15951 10312,15951 C 10348,16028 10386,16117 10424,16218 10438,16253 10453,16290 10465,16327 10510,16448 10556,16585 10602,16739 10604,16748 10607,16758 10609,16767 10618,16797 10623,16830 10629,16861 L 10762,16918 10762,16918 C 10740,16803 10718,16686 10695,16569 10693,16560 10690,16550 10688,16541 10673,16476 10657,16413 10641,16347 10640,16342 10640,16335 10645,16331 10690,16327 10736,16323 10784,16322 10790,16321 10796,16320 10802,16321 L 10802,16320 10802,16320 C 10802,16320 10802,16320 10803,16321 10823,16318 10846,16315 10867,16316 10872,16313 10880,16315 10892,16322 10919,16558 10955,16789 10993,17017 L 11082,17056 11082,17056 C 11062,16990 11098,16934 11191,16887 11195,16884 11202,16877 11210,16865 11260,16849 11310,16833 11360,16820 11570,16763 11773,16738 11970,16748 12308,16763 12629,16873 12934,17079 12942,17081 12953,17086 12966,17093 13008,17209 13021,17375 13003,17590 12988,17698 12974,17788 12962,17860 L 13134,17934 13134,17934 C 13139,17904 13141,17876 13142,17848 13198,17446 13153,17168 13008,17014 12991,17007 12980,17002 12972,16999 12648,16815 12324,16710 11999,16682 11800,16665 11601,16677 11404,16719 11313,16737 11223,16761 11133,16793 Z M 10839,15847 L 10839,15847 C 10837,15842 10834,15839 10833,15832 10834,15831 10834,15831 10836,15832 10835,15837 10838,15841 10839,15847 Z"/><path d="M 11767,17215 L 11767,17215 C 11804,17212 11839,17211 11873,17210 12153,17122 12402,17146 12620,17284 12621,17435 12611,17574 12589,17700 L 12654,17728 12654,17728 C 12681,17595 12695,17451 12698,17296 12697,17294 12692,17292 12684,17287 12538,17135 12380,17046 12210,17020 12092,17002 11968,17015 11836,17058 11767,17081 11698,17111 11626,17150 11613,17149 11600,17151 11587,17150 11534,17179 11481,17195 11422,17201 L 11524,17244 11524,17244 C 11609,17231 11690,17221 11767,17215 Z"/><path d="M 10762,16918 L 10629,16861 10629,16861 C 10685,17133 10739,17397 10792,17657 10817,17789 10844,17919 10870,18048 10933,18361 10993,18665 11050,18959 11069,19000 11087,19040 11108,19077 L 11263,19198 11263,19198 C 11295,19209 11364,19229 11468,19259 11475,19257 11484,19259 11495,19268 11626,19268 11740,19241 11839,19186 12207,19000 12554,18741 12881,18412 13025,18247 13110,18087 13134,17934 L 12962,17860 12962,17860 C 12950,17927 12938,17978 12928,18009 12837,18222 12707,18402 12540,18552 12225,18808 11871,19013 11483,19167 11474,19172 11467,19175 11466,19183 11371,19163 11309,19136 11281,19100 11276,19097 11269,19094 11259,19091 11230,19036 11205,18984 11180,18932 11177,18925 11170,18922 11161,18923 11105,18653 11051,18380 10996,18102 10969,17973 10943,17843 10918,17712 10876,17505 10836,17297 10796,17087 10783,17031 10772,16974 10762,16918 Z"/><path d="M 12654,17728 L 12589,17700 12589,17700 C 12543,17964 12445,18165 12295,18301 12124,18440 11902,18573 11634,18701 11524,18578 11474,18450 11482,18318 11502,18176 11498,18036 11473,17897 11434,17696 11349,17498 11219,17306 11325,17280 11426,17259 11524,17244 L 11422,17201 11422,17201 C 11354,17206 11283,17197 11208,17172 11179,17161 11152,17149 11123,17136 L 11122,17135 11122,17135 C 11117,17128 11117,17123 11120,17121 11120,17119 11120,17119 11122,17120 11114,17110 11106,17102 11100,17094 11099,17092 11099,17092 11097,17092 L 11099,17092 11099,17092 C 11092,17079 11085,17066 11082,17056 L 10993,17017 10993,17017 C 10997,17040 11001,17065 11006,17090 L 11007,17091 11007,17091 C 11046,17186 11082,17283 11118,17380 11209,17635 11290,17896 11357,18162 11402,18341 11443,18523 11476,18707 11474,18707 11481,18715 11495,18727 11578,18759 11654,18764 11715,18743 11719,18737 11727,18737 11739,18749 12051,18657 12287,18493 12446,18254 12470,18216 12492,18177 12515,18139 12577,18018 12625,17879 12654,17728 Z"/></g><g style="stroke:none;fill:rgb(255,0,0)"><path d="M 12966,17093 L 12966,17093 C 12953,17086 12942,17081 12934,17079 12629,16873 12308,16763 11970,16748 11773,16738 11570,16763 11360,16820 11310,16833 11260,16849 11210,16865 11202,16877 11195,16884 11191,16887 11082,16944 11051,17012 11099,17092 11099,17092 11099,17092 11100,17094 11106,17102 11114,17110 11122,17120 11120,17119 11120,17119 11120,17121 11121,17123 11123,17125 11126,17129 11124,17131 11122,17133 11123,17136 11152,17149 11179,17161 11208,17172 11347,17220 11473,17212 11587,17150 11600,17151 11613,17149 11626,17150 11698,17111 11767,17081 11836,17058 11968,17015 12092,17002 12210,17020 12380,17046 12538,17135 12684,17287 12692,17292 12697,17294 12698,17296 12694,17631 12632,17913 12515,18139 12492,18177 12470,18216 12446,18254 12287,18493 12051,18657 11739,18749 11727,18737 11719,18737 11715,18743 L 11715,18743 C 11654,18764 11578,18759 11495,18727 11481,18715 11474,18707 11476,18707 11443,18523 11402,18341 11357,18162 11290,17896 11209,17635 11118,17380 11082,17283 11046,17186 11007,17091 L 11006,17090 11006,17090 C 10962,16840 10923,16583 10892,16322 10880,16315 10872,16313 10867,16316 10846,16315 10823,16318 10803,16321 10802,16320 10802,16320 10802,16320 L 10802,16321 10802,16321 C 10796,16320 10790,16321 10784,16322 10736,16323 10690,16327 10645,16331 10640,16335 10640,16342 10641,16347 10657,16413 10673,16476 10688,16541 10690,16550 10693,16560 10695,16569 10728,16743 10761,16915 10796,17087 10836,17297 10876,17505 10918,17712 10943,17843 10969,17973 10996,18102 11051,18380 11105,18653 11161,18923 11170,18922 11177,18925 11180,18932 11205,18984 11230,19036 11259,19091 11269,19094 11276,19097 11281,19100 11309,19136 11371,19163 11466,19183 11467,19175 11474,19172 11483,19167 11871,19013 12225,18808 12540,18552 12707,18402 12837,18222 12928,18009 12947,17942 12973,17803 13003,17590 13021,17375 13008,17209 12966,17093 Z"/></g><g style="stroke:none;fill:rgb(255,255,255)"><path d="M 10836,15832 L 10836,15832 C 10834,15831 10834,15831 10833,15832 10834,15839 10837,15842 10839,15847 10838,15841 10835,15837 10836,15832 Z"/></g><g style="stroke:none;fill:rgb(202,202,202)"><path d="M 10825,16026 L 10825,16026 C 10822,16001 10814,15976 10804,15950 10786,15906 10767,15794 10748,15618 10732,15457 10725,15361 10731,15332 10634,14796 10554,14353 10495,14001 L 10495,14001 10489,14000 10487,13977 10489,13978 9725,10466 9725,10466 C 9651,10515 9586,10577 9533,10655 9516,10683 9498,10710 9482,10738 L 10797,16179 10797,16179 C 10823,16132 10832,16080 10825,16026 Z"/></g><g style="stroke:none;fill:rgb(130,130,130)"><path d="M 10495,14001 L 10495,14001 10489,13978 10487,13977 10495,14001 Z"/></g><g style="stroke:none;fill:rgb(156,156,156)"><path d="M 10405,15864 L 10405,15864 C 10419,15915 10438,15956 10458,15986 L 10458,15986 10496,16039 10563,16185 9190,11607 9190,11607 C 9189,11626 9184,11644 9183,11661 9153,11887 9123,12056 9093,12165 L 10208,15348 10208,15348 C 10280,15490 10341,15633 10392,15780 10384,15785 10390,15814 10405,15864 Z"/></g><g style="stroke:none;fill:rgb(124,124,124)"><path d="M 9093,12165 L 9093,12165 C 9087,12184 9083,12201 9079,12216 9044,12320 9018,12394 8999,12437 8981,12479 9032,12748 9154,13243 9276,13738 9550,14307 9976,14949 10062,15079 10140,15212 10208,15348 L 9093,12165 Z"/></g><g style="stroke:none;fill:rgb(184,184,184)"><path d="M 10568,15296 L 10568,15296 C 10582,15328 10583,15360 10570,15391 10556,15421 10533,15443 10500,15454 10489,15457 10478,15461 10468,15461 L 10680,16229 10680,16229 C 10701,16237 10720,16245 10740,16253 10756,16239 10767,16222 10779,16205 10785,16196 10791,16189 10797,16179 L 9482,10738 9482,10738 C 9396,10878 9332,11027 9285,11184 L 10400,15220 10400,15220 C 10431,15210 10464,15212 10496,15226 10530,15240 10553,15264 10568,15296 Z"/></g><g style="stroke:none;fill:rgb(255,255,255)"><path d="M 10570,15391 L 10570,15391 C 10583,15360 10582,15328 10568,15296 10553,15264 10530,15240 10496,15226 10464,15212 10431,15210 10400,15220 10398,15221 10398,15221 10396,15222 10361,15233 10339,15256 10326,15287 10312,15317 10312,15348 10328,15380 10342,15413 10364,15436 10398,15451 10421,15461 10445,15464 10468,15461 10478,15461 10489,15457 10500,15454 10533,15443 10556,15421 10570,15391 Z"/></g><g style="stroke:none;fill:rgb(166,166,166)"><path d="M 10563,16185 L 10563,16185 C 10561,16185 10563,16186 10563,16188 10601,16202 10643,16215 10680,16229 L 10468,15461 10468,15461 C 10445,15464 10421,15461 10398,15451 10364,15436 10342,15413 10328,15380 10312,15348 10312,15317 10326,15287 10339,15256 10361,15233 10396,15222 10398,15221 10398,15221 10400,15220 L 9285,11184 9285,11184 C 9275,11210 9268,11237 9261,11266 9232,11378 9208,11493 9190,11607 L 10563,16185 Z"/></g><g style="stroke:rgb(0,0,0);stroke-width:33;stroke-linejoin:round;fill:rgb(255,255,255)"><path style="fill:none" d="M 10568,15296 L 10568,15296 C 10553,15264 10530,15240 10496,15226 10464,15212 10431,15210 10400,15220 10398,15221 10398,15221 10396,15222 10361,15233 10339,15256 10326,15287 10312,15317 10312,15348 10328,15380 10342,15413 10364,15436 10398,15451 10421,15461 10445,15464 10468,15461 10478,15461 10489,15457 10500,15454 10533,15443 10556,15421 10570,15391 10583,15360 10582,15328 10568,15296"/></g><g style="stroke:none;fill:rgb(102,102,102)"><path d="M 10954,10312 L 10954,10312 C 10932,10422 10913,10533 10894,10644 10866,10795 10838,10948 10813,11102 10811,11107 10811,11115 10810,11122 10657,12027 10499,12931 10335,13834 10317,13940 10297,14048 10277,14154 L 10036,15481 10036,15481 C 10017,15560 9998,15644 9980,15732 9945,15902 9909,16089 9873,16289 9866,16287 9857,16288 9847,16287 9349,16127 8669,16367 7804,17009 7812,17017 7813,17027 7807,17043 7804,17348 7853,17637 7947,17905 8021,18081 8096,18271 8174,18477 8173,18482 8177,18491 8182,18502 8325,18785 8510,18995 8737,19132 8748,19127 8753,19134 8754,19151 8824,19151 8891,19154 8958,19163 8963,19161 8969,19165 8976,19176 9118,19148 9272,19103 9434,19041 9452,19027 9466,19022 9476,19024 9632,18851 9742,18690 9808,18536 9808,18527 9814,18520 9828,18519 9944,17699 10130,17035 10384,16528 10431,16406 10482,16283 10534,16163 L 10534,16163 10724,15773 10775,15598 10775,15598 C 10773,15599 10773,15599 10772,15598 10907,15310 10976,15163 10977,15160 11124,14762 11214,14535 11246,14479 11243,14472 11242,14464 11246,14458 11446,13988 11597,13590 11704,13265 11798,12980 11854,12750 11876,12578 11882,12524 11885,12472 11886,12417 11886,11874 11576,11172 10954,10312 Z M 10048,16025 L 10048,16025 C 10070,16034 10091,16045 10112,16054 10139,16067 10164,16080 10187,16092 10226,16111 10264,16130 10301,16148 10295,16147 10322,16163 10381,16194 10346,16197 10236,16494 10051,17084 9876,17638 9716,18192 9568,18745 9565,18753 9565,18761 9567,18772 9483,18884 9352,18993 9173,19099 9164,19101 9152,19108 9137,19118 8587,18958 8209,18523 8004,17817 8005,17805 8002,17798 7996,17792 7930,17583 7937,17334 8018,17046 L 8018,17046 7990,17056 7979,17044 7979,17044 C 8812,16408 9420,16192 9808,16397 9816,16394 9825,16395 9831,16397 9849,16547 9836,16684 9788,16808 9785,16811 9781,16814 9774,16820 9457,16672 8943,16746 8230,17042 L 8149,17365 8149,17365 C 8251,17866 8447,18306 8737,18683 8742,18688 8747,18694 8749,18705 8915,18729 9098,18720 9302,18675 9313,18671 9326,18665 9339,18660 9726,17619 9951,16764 10019,16093 10022,16071 10025,16050 10025,16029 10024,16018 10024,16011 10021,16011 10031,16015 10040,16020 10048,16025 Z M 11029,10589 L 11029,10589 C 11071,10661 11129,10756 11196,10872 11264,10987 11334,11122 11406,11273 11415,11295 11425,11318 11436,11341 11472,11422 11505,11501 11536,11579 11543,11597 11551,11614 11556,11633 11611,11782 11654,11926 11683,12065 11758,12424 11747,12746 11651,13029 11645,13050 11638,13070 11631,13089 11496,13481 11377,13810 11274,14077 11273,14081 11269,14084 11261,14087 11149,14451 11022,14801 10878,15137 10858,15185 10837,15234 10816,15283 10770,15381 10725,15478 10679,15575 10666,15602 10653,15627 10640,15654 10593,15747 10548,15837 10499,15927 L 10497,15927 10497,15927 C 10490,15938 10485,15951 10478,15963 10466,15988 10464,16029 10472,16086 10441,16052 10408,16026 10368,16008 10339,15996 10307,15988 10268,15985 L 10162,15993 10162,15993 C 10127,15992 10095,15969 10067,15923 10064,15920 10061,15915 10058,15910 10063,15845 10068,15783 10072,15727 10079,15663 10082,15598 10085,15536 L 10085,15545 10085,15545 C 10137,15441 10164,15366 10172,15322 10176,15307 10177,15293 10180,15278 10241,14932 10298,14616 10350,14327 10370,14216 10388,14110 10407,14007 10497,13524 10568,13134 10624,12840 10733,12268 10824,11765 10897,11331 10942,11060 10981,10815 11011,10596 11012,10586 11011,10576 11014,10567 11019,10575 11025,10582 11029,10589 Z M 9720,16882 L 9720,16882 C 9722,16883 9730,16884 9742,16882 9716,17364 9568,17931 9298,18587 9299,18591 9292,18597 9274,18607 9140,18639 9025,18643 8931,18618 8923,18613 8912,18614 8898,18625 8640,18481 8462,18215 8369,17829 8365,17819 8362,17812 8360,17808 8322,17610 8312,17384 8330,17134 8333,17119 8332,17108 8326,17102 8995,16823 9459,16749 9720,16882 Z"/></g><g style="stroke:none;fill:rgb(255,0,0)"><path d="M 10112,16054 L 10112,16054 C 10091,16045 10070,16034 10048,16025 10040,16020 10031,16015 10021,16011 10024,16011 10024,16018 10025,16029 10025,16050 10022,16071 10019,16093 9951,16764 9726,17619 9339,18660 9326,18665 9313,18671 9302,18675 9098,18720 8915,18729 8749,18705 8747,18694 8742,18688 8737,18683 8447,18306 8251,17866 8149,17365 L 8230,17042 8230,17042 C 8943,16746 9457,16672 9774,16820 9781,16814 9785,16811 9788,16808 9836,16684 9849,16547 9831,16397 9825,16395 9816,16394 9808,16397 9420,16192 8812,16408 7979,17044 L 7979,17044 7990,17056 8018,17046 8018,17046 C 7937,17334 7930,17583 7996,17792 8002,17798 8005,17805 8004,17817 8209,18523 8587,18958 9137,19118 9152,19108 9164,19101 9173,19099 9352,18993 9483,18884 9567,18772 9565,18761 9565,18753 9568,18745 9716,18192 9876,17638 10051,17084 10236,16494 10346,16197 10381,16194 10322,16163 10295,16147 10301,16148 10264,16130 10226,16111 10187,16092 10164,16080 10139,16067 10112,16054 Z"/></g><g style="stroke:none;fill:rgb(51,51,51)"><path d="M 10593,15185 L 10593,15185 C 10565,15124 10527,15100 10480,15112 10439,15120 10390,15155 10335,15215 10325,15225 10315,15238 10305,15251 10304,15251 10302,15252 10300,15254 10301,15255 10301,15257 10302,15258 10304,15264 10307,15270 10310,15277 10338,15338 10372,15379 10410,15402 10446,15421 10487,15423 10533,15408 10553,15400 10573,15389 10595,15375 10607,15366 10622,15358 10634,15347 10631,15340 10630,15332 10628,15325 10621,15266 10609,15220 10593,15185 Z M 10462,15355 L 10457,15344 10457,15344 C 10554,15312 10556,15316 10462,15355 Z M 10457,15211 L 10457,15211 C 10449,15212 10441,15212 10435,15214 10432,15212 10428,15209 10425,15202 10439,15201 10448,15201 10459,15201 10517,15200 10517,15203 10457,15211 Z"/></g><g style="stroke:none;fill:rgb(255,255,255)"><path d="M 10457,15344 L 10462,15355 10462,15355 C 10556,15316 10554,15312 10457,15344 Z"/></g><g style="stroke:none;fill:rgb(99,99,99)"><path d="M 10457,15211 L 10457,15211 C 10475,15209 10488,15207 10496,15205 10505,15202 10504,15201 10496,15201 10490,15200 10477,15201 10459,15201 L 10457,15211 Z"/></g><g style="stroke:none;fill:rgb(255,255,255)"><path d="M 10457,15211 L 10459,15201 10459,15201 C 10448,15201 10439,15201 10425,15202 10428,15209 10432,15212 10435,15214 10441,15212 10449,15212 10457,15211 Z"/></g><g style="stroke:none;fill:rgb(148,148,148)"><path d="M 11536,11579 L 11536,11579 C 11505,11501 11472,11422 11436,11341 11425,11318 11415,11295 11406,11273 L 10480,15112 10480,15112 C 10527,15100 10565,15124 10593,15185 L 11556,11633 11556,11633 C 11551,11614 11543,11597 11536,11579 Z"/></g><g style="stroke:none;fill:rgb(168,168,168)"><path d="M 11406,11273 L 11406,11273 C 11334,11122 11264,10987 11196,10872 L 10305,15251 10305,15251 C 10315,15238 10325,15225 10335,15215 10390,15155 10439,15120 10480,15112 L 11406,11273 Z"/></g><g style="stroke:none;fill:rgb(117,117,117)"><path d="M 11631,13089 L 11631,13089 C 11638,13070 11645,13050 11651,13029 11747,12746 11758,12424 11683,12065 L 10499,15927 10499,15927 C 10548,15837 10593,15747 10640,15654 10653,15627 10666,15602 10679,15575 10725,15478 10770,15381 10816,15283 10837,15234 10858,15185 10878,15137 11022,14801 11149,14451 11261,14087 11269,14084 11273,14081 11274,14077 11377,13810 11496,13481 11631,13089 Z"/></g><g style="stroke:none;fill:rgb(131,131,131)"><path d="M 11683,12065 L 11683,12065 C 11654,11926 11611,11782 11556,11633 L 10593,15185 10593,15185 C 10609,15220 10621,15266 10628,15325 10630,15332 10631,15340 10634,15347 10622,15358 10607,15366 10595,15375 10573,15389 10553,15400 10533,15408 L 10368,16008 10368,16008 C 10408,16026 10441,16052 10472,16086 10464,16029 10466,15988 10478,15963 10485,15951 10490,15938 10497,15927 L 10497,15927 10499,15927 11683,12065 Z"/></g><g style="stroke:none;fill:rgb(168,168,168)"><path d="M 10310,15277 L 10310,15277 C 10307,15270 10304,15264 10302,15258 L 10302,15258 10162,15993 10268,15985 10410,15402 10410,15402 C 10372,15379 10338,15338 10310,15277 Z"/></g><g style="stroke:none;fill:rgb(148,148,148)"><path d="M 10268,15985 L 10268,15985 C 10307,15988 10339,15996 10368,16008 L 10533,15408 10533,15408 C 10487,15423 10446,15421 10410,15402 L 10268,15985 Z"/></g><g style="stroke:none;fill:rgb(180,180,180)"><path d="M 11196,10872 L 11196,10872 C 11129,10756 11071,10661 11029,10589 11025,10582 11019,10575 11014,10567 11011,10576 11012,10586 11011,10596 10981,10815 10942,11060 10897,11331 10824,11765 10733,12268 10624,12840 10568,13134 10497,13524 10407,14007 10388,14110 10370,14216 10350,14327 10298,14616 10241,14932 10180,15278 10177,15293 10176,15307 10172,15322 10164,15366 10137,15441 10085,15545 L 10085,15536 10085,15536 C 10082,15598 10079,15663 10072,15727 10068,15783 10063,15845 10058,15910 10061,15915 10064,15920 10067,15923 10095,15969 10127,15992 10162,15993 L 10302,15258 10302,15258 C 10301,15257 10301,15255 10300,15254 10302,15252 10304,15251 10305,15251 L 11196,10872 Z"/></g></g></g></g></svg>