<?xml version="1.0" encoding="UTF-8"?>
<!DOCTYPE svg PUBLIC "-//W3C//DTD SVG 1.1//EN" "http://www.w3.org/Graphics/SVG/1.1/DTD/svg11.dtd"><svg version="1.1" viewBox="0 0 21000 29700" preserveAspectRatio="xMidYMid" fill-rule="evenodd" xmlns="http://www.w3.org/2000/svg" xmlns:xlink="http://www.w3.org/1999/xlink"><g visibility="visible" id="Default"><desc>Master slide</desc><g style="stroke:none;fill:none"><rect x="0" y="0" width="21000" height="29700"/></g></g><g visibility="visible" id="page1"><desc>Slide</desc><g><desc>Graphic</desc><g><g style="stroke:none;fill:rgb(51,51,51)"><path d="M 9730,10723 L 9730,10723 C 9747,10696 9767,10671 9785,10644 9843,10570 9910,10512 9987,10469 L 9987,10469 10561,13993 10565,14015 10565,14015 C 10592,14243 10623,14506 10662,14812 L 10662,14812 10754,14857 10602,13793 10602,13793 C 10451,12619 10262,11456 10043,10300 9550,10638 9235,11215 9097,12028 8986,12688 9114,13422 9485,14226 L 9672,14319 9672,14319 C 9468,13902 9335,13523 9270,13184 9175,12685 9138,12417 9158,12376 9179,12334 9208,12263 9249,12163 9255,12147 9259,12131 9266,12112 9303,12006 9340,11841 9383,11619 9385,11601 9390,11584 9393,11566 9416,11453 9447,11342 9482,11232 9490,11204 9499,11178 9510,11153 9565,10999 9638,10856 9730,10723 Z"/><path d="M 11052,16819 L 11052,16819 C 11043,16810 11037,16804 11038,16799 11019,16606 10994,16450 10967,16332 10951,16269 10932,16218 10915,16177 10914,16151 10912,16127 10911,16102 10908,16073 10906,16046 10905,16018 L 10904,15983 10904,15983 C 10897,15914 10889,15845 10882,15775 10881,15762 10879,15750 10878,15737 L 10878,15737 10754,14857 10662,14812 10662,14812 C 10683,14979 10705,15158 10730,15348 10722,15376 10724,15471 10731,15633 10741,15807 10754,15919 10769,15964 10777,15990 10785,16016 10787,16040 10791,16095 10779,16145 10749,16191 10743,16200 10737,16207 10732,16215 10719,16232 10706,16246 10689,16261 10670,16251 10651,16242 10632,16233 10594,16217 10555,16200 10517,16185 10516,16183 10515,16182 10517,16181 L 10517,16181 10457,16034 10422,15979 10422,15979 C 10405,15948 10388,15906 10376,15855 10364,15805 10361,15776 10368,15771 10325,15623 10271,15477 10207,15331 10147,15193 10076,15057 9998,14923 9874,14712 9765,14511 9672,14319 L 9485,14226 9485,14226 C 9569,14408 9666,14597 9776,14789 L 9776,14789 10262,15917 10277,15936 10277,15936 C 10311,16013 10344,16104 10377,16207 10389,16242 10400,16279 10410,16317 10451,16439 10488,16578 10527,16732 10528,16742 10531,16752 10532,16761 10538,16793 10541,16825 10546,16856 L 10676,16920 10676,16920 C 10661,16804 10644,16688 10628,16570 10628,16561 10624,16551 10623,16542 10609,16476 10598,16413 10586,16348 10584,16342 10586,16336 10589,16331 10637,16330 10682,16330 10729,16331 10734,16331 10741,16330 10746,16332 L 10747,16330 10747,16330 C 10747,16330 10747,16330 10748,16330 10769,16329 10792,16329 10813,16331 10818,16328 10827,16330 10837,16338 10853,16573 10875,16804 10901,17032 L 10989,17076 10989,17076 C 10972,17010 11011,16957 11104,16915 11109,16912 11117,16906 11125,16895 11177,16882 11227,16869 11278,16859 11489,16816 11693,16804 11888,16825 12225,16861 12539,16989 12831,17211 12840,17214 12851,17219 12863,17227 12898,17344 12903,17510 12874,17721 12852,17826 12834,17916 12818,17986 L 12986,18069 12986,18069 C 12993,18040 12996,18013 12999,17985 13076,17590 13045,17312 12909,17152 12893,17144 12882,17138 12874,17134 12561,16933 12243,16808 11920,16762 11723,16732 11525,16733 11327,16761 11235,16773 11145,16793 11052,16819 Z M 10810,15864 L 10810,15864 C 10808,15859 10806,15855 10805,15849 10805,15848 10805,15848 10807,15849 10806,15854 10809,15858 10810,15864 Z"/><path d="M 11662,17276 L 11662,17276 C 11698,17275 11733,17275 11767,17277 12051,17207 12300,17245 12507,17395 12501,17545 12484,17682 12456,17805 L 12519,17837 12519,17837 C 12553,17706 12573,17564 12585,17411 12585,17410 12580,17407 12571,17401 12436,17243 12283,17144 12114,17109 11998,17084 11872,17089 11738,17124 11670,17142 11598,17168 11525,17202 11512,17201 11499,17201 11486,17200 11431,17225 11377,17239 11320,17240 L 11417,17289 11417,17289 C 11503,17280 11584,17276 11662,17276 Z"/><path d="M 10676,16920 L 10546,16856 10546,16856 C 10587,17128 10628,17393 10665,17654 10684,17787 10704,17917 10723,18047 10769,18360 10813,18664 10855,18958 10871,19000 10886,19041 10905,19079 L 11053,19209 11053,19209 C 11084,19222 11152,19245 11254,19281 11261,19279 11270,19281 11282,19291 11411,19300 11527,19279 11628,19232 12005,19069 12365,18834 12708,18527 12860,18373 12954,18220 12986,18069 L 12818,17986 12818,17986 C 12803,18052 12788,18101 12777,18132 12675,18337 12536,18508 12361,18646 12033,18880 11671,19061 11274,19191 11264,19195 11258,19198 11257,19206 11163,19181 11103,19149 11076,19112 11072,19109 11066,19106 11055,19102 11031,19046 11008,18992 10985,18940 10983,18932 10977,18929 10966,18930 10926,18659 10885,18386 10846,18107 10826,17977 10808,17846 10789,17715 10758,17509 10728,17300 10700,17090 10691,17033 10684,16977 10676,16920 Z"/><path d="M 12519,17837 L 12456,17805 12456,17805 C 12395,18064 12287,18258 12129,18382 11952,18510 11724,18628 11449,18739 11347,18609 11303,18480 11319,18350 11346,18210 11350,18072 11331,17933 11304,17731 11230,17531 11111,17333 11217,17313 11320,17298 11417,17289 L 11320,17240 11320,17240 C 11251,17241 11181,17229 11106,17198 11078,17187 11051,17173 11024,17157 L 11022,17157 11022,17157 C 11018,17149 11019,17145 11021,17142 11022,17141 11022,17141 11024,17142 11016,17132 11010,17124 11004,17116 11003,17113 11003,17113 11002,17112 L 11003,17113 11003,17113 C 10996,17099 10991,17087 10989,17076 L 10901,17032 10901,17032 C 10903,17055 10906,17080 10909,17105 L 10911,17106 10911,17106 C 10943,17202 10976,17301 11006,17398 11083,17657 11150,17920 11202,18189 11238,18368 11267,18550 11292,18735 11290,18736 11296,18744 11309,18756 11391,18793 11466,18802 11528,18785 11533,18778 11540,18781 11552,18792 11868,18720 12111,18572 12283,18345 12309,18309 12334,18272 12357,18235 12425,18118 12482,17986 12519,17837 Z"/></g><g style="stroke:none;fill:rgb(255,0,0)"><path d="M 12863,17227 L 12863,17227 C 12851,17219 12840,17214 12831,17211 12539,16989 12225,16861 11888,16825 11693,16804 11489,16816 11278,16859 11227,16869 11177,16882 11125,16895 11117,16906 11109,16912 11104,16915 10994,16965 10960,17031 11003,17113 11003,17113 11003,17113 11004,17116 11010,17124 11016,17132 11024,17142 11022,17141 11022,17141 11021,17142 11023,17145 11025,17148 11027,17151 11024,17153 11023,17156 11024,17157 11051,17173 11078,17187 11106,17198 11243,17255 11369,17255 11486,17200 11499,17201 11512,17201 11525,17202 11598,17168 11670,17142 11738,17124 11872,17089 11998,17084 12114,17109 12283,17144 12436,17243 12571,17401 12580,17407 12585,17410 12585,17411 12563,17744 12487,18018 12357,18235 12334,18272 12309,18309 12283,18345 12111,18572 11868,18720 11552,18792 11540,18781 11533,18778 11528,18785 L 11528,18785 C 11466,18802 11391,18793 11309,18756 11296,18744 11290,18736 11292,18735 11267,18550 11238,18368 11202,18189 11150,17920 11083,17657 11006,17398 10976,17301 10943,17202 10911,17106 L 10909,17105 10909,17105 C 10879,16855 10854,16598 10837,16338 10827,16330 10818,16328 10813,16331 10792,16329 10769,16329 10748,16330 10747,16330 10747,16330 10747,16330 L 10746,16332 10746,16332 C 10741,16330 10734,16331 10729,16331 10682,16330 10637,16330 10589,16331 10586,16336 10584,16342 10586,16348 10598,16413 10609,16476 10623,16542 10624,16551 10628,16561 10628,16570 10652,16744 10676,16917 10700,17090 10728,17300 10758,17509 10789,17715 10808,17846 10826,17977 10846,18107 10885,18386 10926,18659 10966,18930 10977,18929 10983,18932 10985,18940 11008,18992 11031,19046 11055,19102 11066,19106 11072,19109 11076,19112 11103,19149 11163,19181 11257,19206 11258,19198 11264,19195 11274,19191 11671,19061 12033,18880 12361,18646 12536,18508 12675,18337 12777,18132 12799,18067 12832,17930 12874,17721 12903,17510 12898,17344 12863,17227 Z"/></g><g style="stroke:none;fill:rgb(255,255,255)"><path d="M 10807,15849 L 10807,15849 C 10805,15848 10805,15848 10805,15849 10806,15855 10808,15859 10810,15864 10809,15858 10806,15854 10807,15849 Z"/></g><g style="stroke:none;fill:rgb(202,202,202)"><path d="M 10787,16040 L 10787,16040 C 10785,16016 10777,15990 10769,15964 10754,15919 10741,15807 10731,15633 10724,15471 10722,15376 10730,15348 10662,14812 10605,14367 10565,14015 L 10565,14015 10560,14013 10560,13992 10561,13993 9987,10469 9987,10469 C 9910,10512 9843,10570 9785,10644 9767,10671 9747,10696 9730,10723 L 10749,16191 10749,16191 C 10779,16145 10791,16095 10787,16040 Z"/></g><g style="stroke:none;fill:rgb(130,130,130)"><path d="M 10565,14015 L 10565,14015 10561,13993 10560,13992 10565,14015 Z"/></g><g style="stroke:none;fill:rgb(156,156,156)"><path d="M 10376,15855 L 10376,15855 C 10388,15906 10405,15948 10422,15979 L 10422,15979 10457,16034 10517,16181 9393,11566 9393,11566 C 9390,11584 9385,11601 9383,11619 9340,11841 9303,12006 9266,12112 L 10207,15331 10207,15331 C 10271,15477 10325,15623 10368,15771 10361,15776 10364,15805 10376,15855 Z"/></g><g style="stroke:none;fill:rgb(124,124,124)"><path d="M 9266,12112 L 9266,12112 C 9259,12131 9255,12147 9249,12163 9208,12263 9179,12334 9158,12376 9138,12417 9175,12685 9270,13184 9365,13681 9608,14260 9998,14923 10076,15057 10147,15193 10207,15331 L 9266,12112 Z"/></g><g style="stroke:none;fill:rgb(184,184,184)"><path d="M 10569,15302 L 10569,15302 C 10582,15335 10581,15366 10566,15396 10551,15425 10527,15446 10493,15454 10481,15457 10470,15460 10460,15460 L 10632,16233 10632,16233 C 10651,16242 10670,16251 10689,16261 10706,16246 10719,16232 10732,16215 10737,16207 10743,16200 10749,16191 L 9730,10723 9730,10723 C 9638,10856 9565,10999 9510,11153 L 10406,15217 10406,15217 C 10437,15209 10470,15213 10502,15228 10535,15245 10555,15269 10569,15302 Z"/></g><g style="stroke:none;fill:rgb(255,255,255)"><path d="M 10566,15396 L 10566,15396 C 10581,15366 10582,15335 10569,15302 10555,15269 10535,15245 10502,15228 10470,15213 10437,15209 10406,15217 10404,15217 10404,15217 10401,15219 10366,15228 10343,15248 10328,15278 10313,15307 10311,15339 10325,15371 10338,15404 10359,15429 10393,15445 10415,15456 10437,15461 10460,15460 10470,15460 10481,15457 10493,15454 10527,15446 10551,15425 10566,15396 Z"/></g><g style="stroke:none;fill:rgb(166,166,166)"><path d="M 10517,16181 L 10517,16181 C 10515,16182 10516,16183 10517,16185 10555,16200 10594,16217 10632,16233 L 10460,15460 10460,15460 C 10437,15461 10415,15456 10393,15445 10359,15429 10338,15404 10325,15371 10311,15339 10313,15307 10328,15278 10343,15248 10366,15228 10401,15219 10404,15217 10404,15217 10406,15217 L 9510,11153 9510,11153 C 9499,11178 9490,11204 9482,11232 9447,11342 9416,11453 9393,11566 L 10517,16181 Z"/></g><g style="stroke:rgb(0,0,0);stroke-width:33;stroke-linejoin:round;fill:rgb(255,255,255)"><path style="fill:none" d="M 10569,15302 L 10569,15302 C 10555,15269 10535,15245 10502,15228 10470,15213 10437,15209 10406,15217 10404,15217 10404,15217 10401,15219 10366,15228 10343,15248 10328,15278 10313,15307 10311,15339 10325,15371 10338,15404 10359,15429 10393,15445 10415,15456 10437,15461 10460,15460 10470,15460 10481,15457 10493,15454 10527,15446 10551,15425 10566,15396 10581,15366 10582,15335 10569,15302"/></g><g style="stroke:none;fill:rgb(102,102,102)"><path d="M 10681,10318 L 10681,10318 C 10666,10429 10653,10540 10639,10652 10620,10803 10600,10956 10583,11110 10582,11116 10580,11123 10580,11130 10478,12039 10368,12945 10253,13853 10240,13959 10226,14067 10213,14173 L 10042,15505 10042,15505 C 10028,15585 10014,15669 10000,15757 9976,15929 9948,16116 9922,16318 9916,16316 9907,16317 9897,16317 9391,16187 8725,16466 7897,17155 7904,17162 7906,17173 7902,17188 7916,17492 7979,17775 8088,18036 8171,18206 8256,18391 8344,18591 8345,18595 8349,18603 8354,18614 8512,18887 8708,19085 8942,19208 8953,19203 8958,19208 8960,19225 9029,19220 9097,19220 9165,19225 9169,19223 9176,19226 9182,19236 9324,19200 9475,19147 9635,19076 9652,19061 9664,19055 9674,19057 9821,18876 9922,18709 9980,18553 9979,18543 9986,18536 9998,18534 10070,17712 10220,17043 10446,16523 10487,16399 10531,16275 10577,16153 L 10577,16153 10745,15754 10788,15578 10788,15578 C 10786,15579 10786,15579 10785,15577 10903,15283 10964,15133 10965,15130 11090,14726 11169,14495 11198,14438 11195,14431 11193,14424 11196,14417 11370,13939 11500,13535 11589,13206 11667,12917 11712,12686 11723,12512 11728,12460 11728,12407 11725,12353 11696,11813 11349,11135 10681,10318 Z M 10084,16044 L 10084,16044 C 10106,16052 10129,16062 10151,16070 10177,16081 10203,16092 10227,16103 10266,16119 10306,16136 10343,16152 10337,16151 10366,16164 10426,16193 10391,16198 10298,16499 10145,17096 10000,17657 9869,18216 9751,18773 9749,18782 9749,18790 9752,18800 9674,18918 9549,19033 9375,19149 9367,19151 9355,19159 9341,19171 8784,19044 8383,18635 8139,17945 8141,17933 8136,17926 8130,17921 8053,17718 8047,17470 8111,17179 L 8111,17179 8083,17191 8073,17179 8073,17179 C 8869,16499 9467,16247 9864,16427 9873,16425 9880,16424 9887,16426 9914,16575 9908,16711 9867,16838 9865,16840 9861,16845 9853,16849 9530,16722 9021,16826 8324,17162 L 8260,17488 8260,17488 C 8389,17980 8608,18404 8918,18762 8923,18766 8929,18772 8931,18783 9099,18798 9281,18778 9482,18720 9493,18715 9505,18709 9518,18703 9848,17646 10028,16784 10059,16114 10060,16091 10061,16070 10061,16050 10060,16038 10059,16033 10056,16031 10067,16035 10076,16039 10084,16044 Z M 10770,10588 L 10770,10588 C 10818,10657 10879,10748 10954,10859 11027,10970 11103,11099 11185,11246 11195,11268 11206,11290 11218,11311 11258,11389 11296,11466 11331,11541 11340,11559 11347,11576 11354,11595 11416,11739 11467,11878 11504,12015 11598,12368 11606,12688 11524,12975 11519,12996 11513,13016 11506,13035 11392,13432 11293,13767 11204,14037 11203,14041 11199,14045 11191,14048 11099,14417 10992,14772 10866,15114 10849,15162 10830,15211 10811,15261 10770,15362 10731,15461 10691,15560 10678,15587 10667,15614 10655,15642 10614,15735 10573,15828 10530,15920 L 10528,15921 10528,15921 C 10522,15933 10516,15945 10511,15958 10500,15984 10500,16025 10511,16080 10479,16048 10443,16024 10404,16009 10373,15999 10340,15993 10303,15992 L 10195,16005 10195,16005 C 10161,16007 10129,15986 10097,15942 10094,15939 10092,15933 10088,15930 10089,15865 10091,15804 10093,15746 10095,15683 10096,15618 10094,15557 L 10095,15566 10095,15566 C 10141,15460 10165,15384 10170,15339 10173,15324 10174,15310 10176,15295 10218,14949 10257,14631 10295,14341 10309,14229 10322,14123 10335,14020 10397,13534 10449,13143 10489,12848 10566,12274 10630,11769 10679,11334 10710,11061 10734,10816 10753,10597 10754,10586 10753,10577 10754,10568 10760,10575 10765,10582 10770,10588 Z M 9802,16915 L 9802,16915 C 9806,16917 9813,16917 9825,16913 9825,17393 9708,17966 9472,18633 9474,18637 9469,18644 9450,18653 9318,18694 9203,18705 9109,18686 9100,18681 9090,18683 9076,18695 8810,18567 8618,18313 8505,17936 8501,17926 8497,17919 8495,17915 8445,17720 8423,17498 8427,17248 8430,17233 8428,17221 8422,17217 9076,16900 9536,16798 9802,16915 Z"/></g><g style="stroke:none;fill:rgb(255,0,0)"><path d="M 10151,16070 L 10151,16070 C 10129,16062 10106,16052 10084,16044 10076,16039 10067,16035 10056,16031 10059,16033 10060,16038 10061,16050 10061,16070 10060,16091 10059,16114 10028,16784 9848,17646 9518,18703 9505,18709 9493,18715 9482,18720 9281,18778 9099,18798 8931,18783 8929,18772 8923,18766 8918,18762 8608,18404 8389,17980 8260,17488 L 8324,17162 8324,17162 C 9021,16826 9530,16722 9853,16849 9861,16845 9865,16840 9867,16838 9908,16711 9914,16575 9887,16426 9880,16424 9873,16425 9864,16427 9467,16247 8869,16499 8073,17179 L 8073,17179 8083,17191 8111,17179 8111,17179 C 8047,17470 8053,17718 8130,17921 8136,17926 8141,17933 8139,17945 8383,18635 8784,19044 9341,19171 9355,19159 9367,19151 9375,19149 9549,19033 9674,18918 9752,18800 9749,18790 9749,18782 9751,18773 9869,18216 10000,17657 10145,17096 10298,16499 10391,16198 10426,16193 10366,16164 10337,16151 10343,16152 10306,16136 10266,16119 10227,16103 10203,16092 10177,16081 10151,16070 Z"/></g><g style="stroke:none;fill:rgb(51,51,51)"><path d="M 10583,15178 L 10583,15178 C 10552,15120 10513,15098 10467,15112 10426,15122 10380,15160 10328,15223 10318,15234 10308,15247 10300,15260 10298,15261 10296,15262 10295,15263 10296,15265 10297,15266 10297,15267 10300,15273 10303,15278 10306,15285 10336,15346 10373,15384 10411,15404 10449,15421 10490,15421 10535,15402 10554,15395 10574,15382 10596,15367 10607,15357 10621,15348 10634,15337 10630,15330 10628,15322 10627,15315 10616,15257 10600,15211 10583,15178 Z M 10461,15355 L 10456,15344 10456,15344 C 10551,15307 10553,15311 10461,15355 Z M 10448,15212 L 10448,15212 C 10441,15214 10433,15214 10426,15216 10424,15215 10421,15212 10417,15205 10430,15203 10440,15202 10451,15203 10508,15197 10508,15201 10448,15212 Z"/></g><g style="stroke:none;fill:rgb(255,255,255)"><path d="M 10456,15344 L 10461,15355 10461,15355 C 10553,15311 10551,15307 10456,15344 Z"/></g><g style="stroke:none;fill:rgb(99,99,99)"><path d="M 10448,15212 L 10448,15212 C 10467,15208 10479,15206 10488,15203 10497,15201 10496,15199 10488,15200 10482,15200 10469,15201 10451,15203 L 10448,15212 Z"/></g><g style="stroke:none;fill:rgb(255,255,255)"><path d="M 10448,15212 L 10451,15203 10451,15203 C 10440,15202 10430,15203 10417,15205 10421,15212 10424,15215 10426,15216 10433,15214 10441,15214 10448,15212 Z"/></g><g style="stroke:none;fill:rgb(148,148,148)"><path d="M 11331,11541 L 11331,11541 C 11296,11466 11258,11389 11218,11311 11206,11290 11195,11268 11185,11246 L 10467,15112 10467,15112 C 10513,15098 10552,15120 10583,15178 L 11354,11595 11354,11595 C 11347,11576 11340,11559 11331,11541 Z"/></g><g style="stroke:none;fill:rgb(168,168,168)"><path d="M 11185,11246 L 11185,11246 C 11103,11099 11027,10970 10954,10859 L 10300,15260 10300,15260 C 10308,15247 10318,15234 10328,15223 10380,15160 10426,15122 10467,15112 L 11185,11246 Z"/></g><g style="stroke:none;fill:rgb(117,117,117)"><path d="M 11506,13035 L 11506,13035 C 11513,13016 11519,12996 11524,12975 11606,12688 11598,12368 11504,12015 L 10530,15920 10530,15920 C 10573,15828 10614,15735 10655,15642 10667,15614 10678,15587 10691,15560 10731,15461 10770,15362 10811,15261 10830,15211 10849,15162 10866,15114 10992,14772 11099,14417 11191,14048 11199,14045 11203,14041 11204,14037 11293,13767 11392,13432 11506,13035 Z"/></g><g style="stroke:none;fill:rgb(131,131,131)"><path d="M 11504,12015 L 11504,12015 C 11467,11878 11416,11739 11354,11595 L 10583,15178 10583,15178 C 10600,15211 10616,15257 10627,15315 10628,15322 10630,15330 10634,15337 10621,15348 10607,15357 10596,15367 10574,15382 10554,15395 10535,15402 L 10404,16009 10404,16009 C 10443,16024 10479,16048 10511,16080 10500,16025 10500,15984 10511,15958 10516,15945 10522,15933 10528,15921 L 10528,15921 10530,15920 11504,12015 Z"/></g><g style="stroke:none;fill:rgb(168,168,168)"><path d="M 10306,15285 L 10306,15285 C 10303,15278 10300,15273 10297,15267 L 10297,15267 10195,16005 10303,15992 10411,15404 10411,15404 C 10373,15384 10336,15346 10306,15285 Z"/></g><g style="stroke:none;fill:rgb(148,148,148)"><path d="M 10303,15992 L 10303,15992 C 10340,15993 10373,15999 10404,16009 L 10535,15402 10535,15402 C 10490,15421 10449,15421 10411,15404 L 10303,15992 Z"/></g><g style="stroke:none;fill:rgb(180,180,180)"><path d="M 10954,10859 L 10954,10859 C 10879,10748 10818,10657 10770,10588 10765,10582 10760,10575 10754,10568 10753,10577 10754,10586 10753,10597 10734,10816 10710,11061 10679,11334 10630,11769 10566,12274 10489,12848 10449,13143 10397,13534 10335,14020 10322,14123 10309,14229 10295,14341 10257,14631 10218,14949 10176,15295 10174,15310 10173,15324 10170,15339 10165,15384 10141,15460 10095,15566 L 10094,15557 10094,15557 C 10096,15618 10095,15683 10093,15746 10091,15804 10089,15865 10088,15930 10092,15933 10094,15939 10097,15942 10129,15986 10161,16007 10195,16005 L 10297,15267 10297,15267 C 10297,15266 10296,15265 10295,15263 10296,15262 10298,15261 10300,15260 L 10954,10859 Z"/></g></g></g></g></svg>