<?xml version="1.0" encoding="UTF-8"?>
<!DOCTYPE svg PUBLIC "-//W3C//DTD SVG 1.1//EN" "http://www.w3.org/Graphics/SVG/1.1/DTD/svg11.dtd"><svg version="1.1" viewBox="0 0 21000 29700" preserveAspectRatio="xMidYMid" fill-rule="evenodd" xmlns="http://www.w3.org/2000/svg" xmlns:xlink="http://www.w3.org/1999/xlink"><g visibility="visible" id="Default"><desc>Master slide</desc><g style="stroke:none;fill:none"><rect x="0" y="0" width="21000" height="29700"/></g></g><g visibility="visible" id="page1"><desc>Slide</desc><g><desc>Graphic</desc><g><g style="stroke:none;fill:rgb(51,51,51)"><path d="M 8225,10859 L 8225,10859 C 8232,10825 8241,10790 8251,10757 8280,10658 8324,10572 8383,10498 L 8383,10498 10103,13909 10114,13930 10114,13930 C 10216,14156 10334,14415 10473,14715 L 10473,14715 10574,14726 10075,13688 10075,13688 C 9540,12537 8974,11409 8378,10302 8028,10842 7921,11558 8063,12450 8178,13173 8546,13879 9164,14566 L 9372,14589 9372,14589 C 9040,14239 8788,13899 8613,13575 8356,13097 8231,12834 8237,12784 8243,12733 8247,12649 8252,12530 8252,12512 8251,12492 8251,12471 8249,12348 8230,12163 8196,11918 8192,11898 8192,11878 8189,11859 8173,11734 8164,11606 8161,11480 8159,11447 8159,11418 8161,11388 8162,11208 8182,11033 8225,10859 Z"/><path d="M 11513,16634 L 11513,16634 C 11501,16629 11494,16625 11493,16620 11410,16427 11335,16276 11268,16166 11233,16106 11198,16061 11169,16025 11160,15999 11151,15974 11140,15950 11128,15922 11117,15893 11106,15866 L 11093,15830 11093,15830 C 11064,15762 11033,15692 11003,15623 10998,15611 10992,15599 10988,15587 L 10988,15587 10574,14726 10473,14715 10473,14715 C 10549,14880 10630,15056 10717,15242 10718,15274 10752,15372 10814,15535 10881,15713 10930,15822 10960,15862 10976,15886 10992,15910 11001,15934 11023,15988 11029,16045 11017,16104 11014,16115 11012,16125 11008,16136 11002,16157 10994,16178 10983,16199 10962,16197 10940,16195 10919,16193 10879,16191 10836,16189 10796,16188 10794,16186 10792,16186 10794,16184 L 10794,16184 10688,16054 10638,16012 10638,16012 C 10609,15987 10580,15950 10552,15901 10523,15854 10511,15826 10517,15818 10425,15682 10327,15551 10217,15426 10113,15307 10002,15194 9882,15086 9694,14917 9525,14752 9372,14589 L 9164,14566 9164,14566 C 9305,14722 9461,14879 9628,15034 L 9628,15034 10465,16009 10486,16023 10486,16023 C 10543,16090 10604,16171 10671,16264 10693,16295 10717,16330 10739,16364 10818,16475 10899,16604 10988,16749 10992,16758 10998,16766 11002,16775 11019,16806 11032,16837 11047,16868 L 11191,16885 11191,16885 C 11138,16771 11083,16657 11029,16542 11025,16532 11019,16524 11015,16515 10981,16452 10949,16392 10914,16328 10911,16324 10911,16317 10913,16310 10957,16292 11000,16273 11044,16256 11050,16254 11055,16251 11061,16250 L 11061,16248 11061,16248 C 11061,16248 11061,16248 11062,16248 11082,16239 11102,16229 11123,16223 11128,16219 11137,16218 11149,16221 11242,16459 11340,16688 11442,16913 L 11538,16924 11538,16924 C 11501,16862 11520,16792 11594,16714 11598,16709 11602,16700 11607,16685 11651,16651 11695,16619 11739,16589 11924,16463 12114,16372 12306,16318 12635,16225 12975,16236 13326,16352 13335,16351 13347,16352 13361,16356 13435,16463 13493,16632 13536,16861 13551,16978 13563,17077 13571,17156 L 13759,17177 13759,17177 C 13756,17144 13749,17115 13742,17086 13684,16648 13561,16374 13379,16261 13361,16259 13349,16257 13340,16256 12977,16169 12635,16164 12315,16240 12119,16286 11931,16362 11752,16469 11671,16518 11591,16573 11513,16634 Z M 10964,15743 L 10964,15743 C 10962,15740 10958,15736 10956,15731 10956,15729 10956,15729 10958,15729 10958,15735 10962,15738 10964,15743 Z"/><path d="M 12241,16870 L 12241,16870 C 12276,16855 12309,16842 12343,16830 12586,16649 12834,16593 13080,16666 13125,16824 13155,16972 13169,17110 L 13239,17118 13239,17118 C 13228,16970 13201,16816 13161,16653 13159,16652 13154,16651 13144,16648 12962,16537 12785,16495 12614,16524 12496,16543 12378,16596 12263,16684 12205,16730 12147,16783 12087,16847 12074,16851 12063,16856 12050,16860 12007,16907 11961,16942 11906,16966 L 12015,16979 12015,16979 C 12093,16937 12169,16900 12241,16870 Z"/><path d="M 11191,16885 L 11047,16868 11047,16868 C 11177,17133 11304,17391 11426,17645 11488,17775 11550,17901 11613,18027 11761,18333 11903,18629 12041,18918 12070,18954 12099,18989 12130,19021 L 12313,19098 12313,19098 C 12347,19099 12418,19097 12527,19096 12533,19091 12542,19090 12556,19095 12682,19054 12785,18988 12864,18900 13166,18587 13429,18205 13649,17757 13741,17539 13778,17346 13759,17177 L 13571,17156 13571,17156 C 13579,17231 13582,17286 13580,17323 13554,17573 13480,17803 13360,18013 13130,18381 12847,18708 12516,18995 12508,19002 12504,19009 12505,19017 12406,19027 12341,19019 12302,18991 12298,18988 12291,18988 12280,18988 12236,18940 12198,18893 12159,18848 12154,18841 12147,18840 12138,18844 12009,18581 11879,18315 11747,18042 11686,17917 11627,17788 11563,17661 11466,17460 11367,17255 11270,17050 11242,16994 11217,16939 11191,16885 Z"/><path d="M 13239,17118 L 13169,17110 13169,17110 C 13200,17400 13161,17641 13053,17830 12929,18031 12752,18241 12529,18461 12390,18368 12306,18251 12277,18111 12256,17956 12213,17812 12149,17675 12055,17479 11919,17300 11739,17142 11834,17080 11926,17025 12015,16979 L 11906,16966 11906,16966 C 11842,16993 11772,17007 11691,17005 11661,17003 11632,17000 11599,16995 L 11597,16995 11597,16995 C 11591,16989 11590,16984 11591,16980 11592,16979 11592,16979 11594,16979 11582,16971 11574,16965 11566,16959 11565,16957 11565,16957 11563,16956 L 11565,16957 11565,16957 C 11553,16945 11544,16935 11538,16924 L 11442,16913 11442,16913 C 11452,16936 11463,16960 11474,16986 L 11476,16986 11476,16986 C 11538,17071 11601,17161 11663,17250 11823,17487 11973,17733 12113,17989 12207,18160 12296,18337 12380,18518 12378,18519 12386,18525 12403,18532 12494,18539 12567,18521 12620,18478 12623,18469 12631,18469 12646,18476 12920,18280 13100,18033 13186,17733 13198,17686 13209,17638 13220,17591 13245,17444 13253,17286 13239,17118 Z"/></g><g style="stroke:none;fill:rgb(255,0,0)"><path d="M 13361,16356 L 13361,16356 C 13347,16352 13335,16351 13326,16352 12975,16236 12635,16225 12306,16318 12114,16372 11924,16463 11739,16589 11695,16619 11651,16651 11607,16685 11602,16700 11598,16709 11594,16714 11507,16808 11496,16889 11565,16957 11565,16957 11565,16957 11566,16959 11574,16965 11582,16971 11594,16979 11592,16979 11592,16979 11591,16980 11593,16982 11597,16985 11600,16986 11598,16990 11597,16993 11599,16995 11632,17000 11661,17003 11691,17005 11838,17010 11958,16962 12050,16860 12063,16856 12074,16851 12087,16847 12147,16783 12205,16730 12263,16684 12378,16596 12496,16543 12614,16524 12785,16495 12962,16537 13144,16648 13154,16651 13159,16652 13161,16653 13250,17005 13270,17318 13220,17591 13209,17638 13198,17686 13186,17733 13100,18033 12920,18280 12646,18476 12631,18469 12623,18469 12620,18478 L 12620,18478 C 12567,18521 12494,18539 12403,18532 12386,18525 12378,18519 12380,18518 12296,18337 12207,18160 12113,17989 11973,17733 11823,17487 11663,17250 11601,17161 11538,17071 11476,16986 L 11474,16986 11474,16986 C 11362,16739 11251,16483 11149,16221 11137,16218 11128,16219 11123,16223 11102,16229 11082,16239 11062,16248 11061,16248 11061,16248 11061,16248 L 11061,16250 11061,16250 C 11055,16251 11050,16254 11044,16256 11000,16273 10957,16292 10913,16310 10911,16317 10911,16324 10914,16328 10949,16392 10981,16452 11015,16515 11019,16524 11025,16532 11029,16542 11109,16712 11190,16880 11270,17050 11367,17255 11466,17460 11563,17661 11627,17788 11686,17917 11747,18042 11879,18315 12009,18581 12138,18844 12147,18840 12154,18841 12159,18848 12198,18893 12236,18940 12280,18988 12291,18988 12298,18988 12302,18991 12341,19019 12406,19027 12505,19017 12504,19009 12508,19002 12516,18995 12847,18708 13130,18381 13360,18013 13480,17803 13554,17573 13580,17323 13581,17247 13566,17092 13536,16861 13493,16632 13435,16463 13361,16356 Z"/></g><g style="stroke:none;fill:rgb(255,255,255)"><path d="M 10958,15729 L 10958,15729 C 10956,15729 10956,15729 10956,15731 10958,15736 10962,15740 10964,15743 10962,15738 10958,15735 10958,15729 Z"/></g><g style="stroke:none;fill:rgb(202,202,202)"><path d="M 11001,15934 L 11001,15934 C 10992,15910 10976,15886 10960,15862 10930,15822 10881,15713 10814,15535 10752,15372 10718,15274 10717,15242 10473,14715 10271,14280 10114,13930 L 10114,13930 10109,13932 10102,13909 10103,13909 8383,10498 8383,10498 C 8324,10572 8280,10658 8251,10757 8241,10790 8232,10825 8225,10859 L 11017,16104 11017,16104 C 11029,16045 11023,15988 11001,15934 Z"/></g><g style="stroke:none;fill:rgb(130,130,130)"><path d="M 10114,13930 L 10114,13930 10103,13909 10102,13909 10114,13930 Z"/></g><g style="stroke:none;fill:rgb(156,156,156)"><path d="M 10552,15901 L 10552,15901 C 10580,15950 10609,15987 10638,16012 L 10638,16012 10688,16054 10794,16184 8189,11859 8189,11859 C 8192,11878 8192,11898 8196,11918 8230,12163 8249,12348 8251,12471 L 10217,15426 10217,15426 C 10327,15551 10425,15682 10517,15818 10511,15826 10523,15854 10552,15901 Z"/></g><g style="stroke:none;fill:rgb(124,124,124)"><path d="M 8251,12471 L 8251,12471 C 8251,12492 8252,12512 8252,12530 8247,12649 8243,12733 8237,12784 8231,12834 8356,13097 8613,13575 8869,14051 9292,14554 9882,15086 10002,15194 10113,15307 10217,15426 L 8251,12471 Z"/></g><g style="stroke:none;fill:rgb(184,184,184)"><path d="M 10549,15256 L 10549,15256 C 10573,15285 10581,15319 10577,15355 10573,15392 10557,15421 10528,15443 10519,15450 10509,15458 10499,15462 L 10919,16193 10919,16193 C 10940,16195 10962,16197 10983,16199 10994,16178 11002,16157 11008,16136 11012,16125 11014,16115 11017,16104 L 8225,10859 8225,10859 C 8182,11033 8162,11208 8161,11388 L 10366,15233 10366,15233 C 10394,15211 10424,15204 10460,15208 10497,15212 10526,15228 10549,15256 Z"/></g><g style="stroke:none;fill:rgb(255,255,255)"><path d="M 10577,15355 L 10577,15355 C 10581,15319 10573,15285 10549,15256 10526,15228 10497,15212 10460,15208 10424,15204 10394,15211 10366,15233 10364,15233 10364,15233 10363,15235 10333,15258 10317,15289 10313,15325 10309,15362 10317,15394 10342,15422 10365,15452 10393,15469 10429,15473 10455,15476 10479,15471 10499,15462 10509,15458 10519,15450 10528,15443 10557,15421 10573,15392 10577,15355 Z"/></g><g style="stroke:none;fill:rgb(166,166,166)"><path d="M 10794,16184 L 10794,16184 C 10792,16186 10794,16186 10796,16188 10836,16189 10879,16191 10919,16193 L 10499,15462 10499,15462 C 10479,15471 10455,15476 10429,15473 10393,15469 10365,15452 10342,15422 10317,15394 10309,15362 10313,15325 10317,15289 10333,15258 10363,15235 10364,15233 10364,15233 10366,15233 L 8161,11388 8161,11388 C 8159,11418 8159,11447 8161,11480 8164,11606 8173,11734 8189,11859 L 10794,16184 Z"/></g><g style="stroke:rgb(0,0,0);stroke-width:34;stroke-linejoin:round;fill:rgb(255,255,255)"><path style="fill:none" d="M 10549,15256 L 10549,15256 C 10526,15228 10497,15212 10460,15208 10424,15204 10394,15211 10366,15233 10364,15233 10364,15233 10363,15235 10333,15258 10317,15289 10313,15325 10309,15362 10317,15394 10342,15422 10365,15452 10393,15469 10429,15473 10455,15476 10479,15471 10499,15462 10509,15458 10519,15450 10528,15443 10557,15421 10573,15392 10577,15355 10581,15319 10573,15285 10549,15256"/></g><g style="stroke:none;fill:rgb(102,102,102)"><path d="M 12310,10300 L 12310,10300 C 12259,10407 12211,10516 12161,10625 12093,10772 12025,10921 11958,11072 11956,11078 11952,11084 11950,11091 11556,11980 11157,12863 10751,13746 10705,13849 10655,13955 10608,14058 L 10013,15354 10013,15354 C 9974,15430 9932,15511 9890,15595 9811,15761 9725,15942 9635,16138 9628,16134 9619,16132 9609,16128 9175,15809 8453,15848 7445,16245 7450,16254 7448,16266 7439,16281 7353,16596 7321,16907 7339,17214 7361,17418 7382,17637 7399,17874 7398,17879 7399,17888 7400,17902 7461,18239 7582,18512 7763,18724 7775,18722 7778,18730 7775,18748 7842,18769 7906,18793 7967,18823 7973,18822 7978,18829 7981,18842 8126,18857 8286,18858 8460,18844 8482,18835 8496,18834 8505,18839 8702,18709 8853,18576 8957,18438 8960,18428 8969,18424 8982,18425 9318,17615 9679,16988 10062,16542 10141,16430 10223,16319 10307,16212 L 10307,16212 10595,15867 10693,15703 10693,15703 C 10691,15703 10691,15703 10691,15701 10899,15445 11006,15315 11006,15312 11257,14946 11407,14740 11453,14692 11452,14684 11453,14676 11458,14671 11780,14247 12033,13883 12225,13579 12393,13315 12511,13095 12579,12922 12601,12870 12618,12817 12633,12760 12782,12199 12674,11378 12310,10300 Z M 9876,15919 L 9876,15919 C 9894,15935 9912,15953 9929,15969 9952,15990 9972,16011 9992,16031 10023,16062 10055,16094 10086,16124 10079,16122 10102,16146 10150,16197 10115,16189 9929,16461 9589,17014 9269,17533 8962,18054 8670,18580 8666,18587 8663,18595 8662,18607 8550,18697 8394,18770 8192,18824 8184,18823 8170,18826 8153,18833 7667,18497 7422,17933 7417,17140 7421,17128 7420,17120 7415,17112 7410,16876 7485,16621 7640,16349 L 7640,16349 7610,16350 7603,16334 7603,16334 C 8579,15934 9225,15899 9543,16228 9552,16229 9559,16232 9565,16236 9542,16397 9491,16535 9412,16649 9408,16650 9403,16653 9394,16655 9131,16405 8615,16324 7846,16409 L 7680,16718 7680,16718 C 7641,17268 7711,17781 7886,18260 7891,18267 7893,18274 7893,18287 8045,18363 8224,18410 8432,18426 8445,18424 8459,18423 8474,18421 9128,17466 9580,16653 9830,15980 9838,15958 9847,15937 9853,15916 9855,15905 9856,15898 9854,15897 9862,15904 9870,15911 9876,15919 Z M 12307,10609 L 12307,10609 C 12329,10697 12358,10812 12390,10953 12424,11092 12455,11253 12484,11431 12486,11458 12489,11484 12494,11510 12506,11605 12516,11697 12525,11787 12527,11809 12529,11828 12530,11850 12541,12020 12543,12181 12533,12334 12508,12729 12409,13058 12239,13320 12227,13339 12215,13358 12203,13375 11966,13738 11761,14042 11589,14286 11588,14290 11582,14291 11574,14292 11367,14634 11148,14956 10918,15258 10887,15302 10852,15345 10818,15389 10747,15477 10678,15563 10606,15649 10586,15673 10568,15695 10547,15719 10478,15800 10408,15879 10337,15957 L 10335,15957 10335,15957 C 10326,15967 10316,15978 10308,15989 10289,16010 10274,16052 10267,16113 10248,16068 10222,16030 10190,16002 10164,15979 10135,15960 10100,15946 L 9994,15921 9994,15921 C 9961,15909 9937,15875 9922,15820 9919,15816 9918,15809 9917,15805 9939,15739 9961,15676 9981,15619 10005,15554 10026,15489 10045,15425 L 10043,15436 10043,15436 C 10119,15343 10167,15275 10188,15232 10194,15217 10200,15203 10207,15189 10360,14850 10502,14541 10631,14259 10681,14150 10727,14047 10773,13947 10991,13475 11168,13095 11301,12809 11563,12252 11788,11761 11977,11335 12094,11068 12197,10827 12288,10611 12292,10601 12295,10590 12299,10582 12302,10591 12304,10600 12307,10609 Z M 9326,16703 L 9326,16703 C 9328,16705 9335,16709 9348,16710 9190,17199 8892,17740 8452,18334 8452,18339 8444,18343 8425,18347 8285,18339 8175,18307 8092,18253 8085,18245 8074,18243 8057,18250 7848,18021 7751,17692 7765,17265 7764,17254 7763,17245 7763,17240 7779,17024 7832,16788 7917,16535 7924,16521 7927,16509 7922,16501 8644,16419 9110,16486 9326,16703 Z"/></g><g style="stroke:none;fill:rgb(255,0,0)"><path d="M 9929,15969 L 9929,15969 C 9912,15953 9894,15935 9876,15919 9870,15911 9862,15904 9854,15897 9856,15898 9855,15905 9853,15916 9847,15937 9838,15958 9830,15980 9580,16653 9128,17466 8474,18421 8459,18423 8445,18424 8432,18426 8224,18410 8045,18363 7893,18287 7893,18274 7891,18267 7886,18260 7711,17781 7641,17268 7680,16718 L 7846,16409 7846,16409 C 8615,16324 9131,16405 9394,16655 9403,16653 9408,16650 9412,16649 9491,16535 9542,16397 9565,16236 9559,16232 9552,16229 9543,16228 9225,15899 8579,15934 7603,16334 L 7603,16334 7610,16350 7640,16349 7640,16349 C 7485,16621 7410,16876 7415,17112 7420,17120 7421,17128 7417,17140 7422,17933 7667,18497 8153,18833 8170,18826 8184,18823 8192,18824 8394,18770 8550,18697 8662,18607 8663,18595 8666,18587 8670,18580 8962,18054 9269,17533 9589,17014 9929,16461 10115,16189 10150,16197 10102,16146 10079,16122 10086,16124 10055,16094 10023,16062 9992,16031 9972,16011 9952,15990 9929,15969 Z"/></g><g style="stroke:none;fill:rgb(51,51,51)"><path d="M 10631,15220 L 10631,15220 C 10621,15149 10590,15113 10542,15109 10501,15105 10443,15127 10374,15171 10361,15179 10348,15189 10335,15198 10333,15199 10332,15199 10330,15201 10330,15202 10330,15204 10331,15206 10331,15212 10332,15219 10333,15227 10343,15300 10364,15352 10394,15387 10425,15418 10464,15433 10511,15431 10533,15431 10555,15424 10581,15416 10594,15412 10610,15407 10626,15400 10625,15392 10626,15383 10627,15375 10636,15312 10637,15260 10631,15220 Z M 10457,15355 L 10456,15342 10456,15342 C 10558,15339 10558,15344 10457,15355 Z M 10492,15204 L 10492,15204 C 10485,15204 10478,15201 10471,15201 10469,15199 10466,15194 10465,15186 10478,15190 10487,15192 10497,15196 10553,15211 10551,15215 10492,15204 Z"/></g><g style="stroke:none;fill:rgb(255,255,255)"><path d="M 10456,15342 L 10457,15355 10457,15355 C 10558,15344 10558,15339 10456,15342 Z"/></g><g style="stroke:none;fill:rgb(99,99,99)"><path d="M 10492,15204 L 10492,15204 C 10510,15208 10522,15209 10532,15210 10541,15211 10541,15209 10533,15207 10528,15205 10514,15201 10497,15196 L 10492,15204 Z"/></g><g style="stroke:none;fill:rgb(255,255,255)"><path d="M 10492,15204 L 10497,15196 10497,15196 C 10487,15192 10478,15190 10465,15186 10466,15194 10469,15199 10471,15201 10478,15201 10485,15204 10492,15204 Z"/></g><g style="stroke:none;fill:rgb(148,148,148)"><path d="M 12525,11787 L 12525,11787 C 12516,11697 12506,11605 12494,11510 12489,11484 12486,11458 12484,11431 L 10542,15109 10542,15109 C 10590,15113 10621,15149 10631,15220 L 12530,11850 12530,11850 C 12529,11828 12527,11809 12525,11787 Z"/></g><g style="stroke:none;fill:rgb(168,168,168)"><path d="M 12484,11431 L 12484,11431 C 12455,11253 12424,11092 12390,10953 L 10335,15198 10335,15198 C 10348,15189 10361,15179 10374,15171 10443,15127 10501,15105 10542,15109 L 12484,11431 Z"/></g><g style="stroke:none;fill:rgb(117,117,117)"><path d="M 12203,13375 L 12203,13375 C 12215,13358 12227,13339 12239,13320 12409,13058 12508,12729 12533,12334 L 10337,15957 10337,15957 C 10408,15879 10478,15800 10547,15719 10568,15695 10586,15673 10606,15649 10678,15563 10747,15477 10818,15389 10852,15345 10887,15302 10918,15258 11148,14956 11367,14634 11574,14292 11582,14291 11588,14290 11589,14286 11761,14042 11966,13738 12203,13375 Z"/></g><g style="stroke:none;fill:rgb(131,131,131)"><path d="M 12533,12334 L 12533,12334 C 12543,12181 12541,12020 12530,11850 L 10631,15220 10631,15220 C 10637,15260 10636,15312 10627,15375 10626,15383 10625,15392 10626,15400 10610,15407 10594,15412 10581,15416 10555,15424 10533,15431 10511,15431 L 10190,16002 10190,16002 C 10222,16030 10248,16068 10267,16113 10274,16052 10289,16010 10308,15989 10316,15978 10326,15967 10335,15957 L 10335,15957 10337,15957 12533,12334 Z"/></g><g style="stroke:none;fill:rgb(168,168,168)"><path d="M 10333,15227 L 10333,15227 C 10332,15219 10331,15212 10331,15206 L 10331,15206 9994,15921 10100,15946 10394,15387 10394,15387 C 10364,15352 10343,15300 10333,15227 Z"/></g><g style="stroke:none;fill:rgb(148,148,148)"><path d="M 10100,15946 L 10100,15946 C 10135,15960 10164,15979 10190,16002 L 10511,15431 10511,15431 C 10464,15433 10425,15418 10394,15387 L 10100,15946 Z"/></g><g style="stroke:none;fill:rgb(180,180,180)"><path d="M 12390,10953 L 12390,10953 C 12358,10812 12329,10697 12307,10609 12304,10600 12302,10591 12299,10582 12295,10590 12292,10601 12288,10611 12197,10827 12094,11068 11977,11335 11788,11761 11563,12252 11301,12809 11168,13095 10991,13475 10773,13947 10727,14047 10681,14150 10631,14259 10502,14541 10360,14850 10207,15189 10200,15203 10194,15217 10188,15232 10167,15275 10119,15343 10043,15436 L 10045,15425 10045,15425 C 10026,15489 10005,15554 9981,15619 9961,15676 9939,15739 9917,15805 9918,15809 9919,15816 9922,15820 9937,15875 9961,15909 9994,15921 L 10331,15206 10331,15206 C 10330,15204 10330,15202 10330,15201 10332,15199 10333,15199 10335,15198 L 12390,10953 Z"/></g></g></g></g></svg>