<?xml version="1.0" encoding="UTF-8"?>
<!DOCTYPE svg PUBLIC "-//W3C//DTD SVG 1.1//EN" "http://www.w3.org/Graphics/SVG/1.1/DTD/svg11.dtd"><svg version="1.1" viewBox="0 0 21000 29700" preserveAspectRatio="xMidYMid" fill-rule="evenodd" xmlns="http://www.w3.org/2000/svg" xmlns:xlink="http://www.w3.org/1999/xlink"><g visibility="visible" id="Default"><desc>Master slide</desc><g style="stroke:none;fill:none"><rect x="0" y="0" width="21000" height="29700"/></g></g><g visibility="visible" id="page1"><desc>Slide</desc><g><desc>Graphic</desc><g><g style="stroke:none;fill:rgb(51,51,51)"><path d="M 9989,10714 L 9989,10714 C 10008,10689 10028,10664 10049,10640 10109,10569 10180,10515 10259,10478 L 10259,10478 10636,14009 10639,14032 10639,14032 C 10653,14260 10669,14524 10691,14829 L 10691,14829 10779,14880 10688,13815 10688,13815 C 10600,12641 10480,11475 10324,10314 9815,10619 9468,11172 9284,11968 9137,12615 9224,13353 9549,14173 L 9730,14277 9730,14277 C 9550,13850 9439,13466 9393,13126 9326,12625 9304,12356 9326,12317 9349,12277 9383,12209 9429,12112 9435,12096 9440,12081 9448,12063 9491,11960 9538,11799 9592,11581 9596,11564 9601,11546 9605,11530 9636,11419 9672,11309 9713,11203 9722,11176 9733,11151 9745,11127 9809,10978 9889,10840 9989,10714 Z"/><path d="M 10970,16844 L 10970,16844 C 10960,16835 10956,16829 10956,16825 10947,16631 10931,16475 10909,16357 10898,16293 10882,16240 10868,16200 10869,16173 10868,16149 10868,16125 10866,16096 10866,16068 10867,16042 L 10867,16007 10867,16007 C 10864,15938 10860,15867 10857,15799 10856,15786 10855,15774 10856,15762 L 10856,15762 10779,14880 10691,14829 10691,14829 C 10702,14996 10715,15175 10729,15365 10719,15392 10716,15487 10715,15648 10714,15822 10721,15933 10734,15979 10740,16005 10746,16031 10746,16055 10748,16109 10734,16159 10702,16203 10695,16211 10689,16218 10682,16226 10669,16242 10655,16256 10638,16268 10620,16257 10600,16246 10581,16238 10545,16219 10507,16200 10470,16182 10470,16180 10468,16179 10471,16179 L 10471,16179 10418,16028 10387,15972 10387,15972 C 10371,15940 10356,15897 10348,15845 10338,15796 10337,15767 10345,15762 10310,15612 10264,15464 10209,15316 10157,15175 10093,15035 10022,14897 9910,14681 9814,14474 9730,14277 L 9549,14173 9549,14173 C 9623,14360 9710,14553 9809,14750 L 9809,14750 10230,15899 10245,15920 10245,15920 C 10273,15999 10302,16091 10330,16195 10340,16230 10349,16268 10357,16306 10390,16430 10419,16570 10449,16726 10451,16735 10453,16745 10453,16754 10458,16787 10460,16818 10462,16849 L 10587,16922 10587,16922 C 10579,16806 10569,16689 10559,16571 10559,16562 10556,16552 10555,16543 10546,16477 10538,16413 10529,16348 10528,16342 10530,16336 10534,16332 10580,16334 10627,16336 10673,16340 10680,16341 10685,16340 10691,16342 L 10692,16341 10692,16341 C 10692,16341 10692,16341 10693,16342 10714,16342 10736,16341 10756,16345 10761,16343 10770,16346 10781,16353 10784,16588 10794,16819 10806,17047 L 10890,17095 10890,17095 C 10878,17029 10919,16979 11015,16944 11021,16942 11029,16936 11037,16925 11089,16915 11140,16906 11191,16899 11405,16869 11609,16870 11803,16904 12137,16960 12442,17108 12722,17346 12730,17350 12740,17356 12753,17364 12782,17483 12777,17648 12736,17855 12708,17959 12685,18045 12665,18114 L 12828,18207 12828,18207 C 12837,18179 12841,18152 12845,18125 12946,17737 12931,17461 12803,17293 12787,17284 12777,17278 12769,17273 12468,17054 12158,16910 11838,16843 11643,16802 11446,16789 11245,16806 11153,16812 11062,16824 10970,16844 Z M 10779,15882 L 10779,15882 C 10778,15878 10776,15874 10775,15868 10776,15866 10776,15866 10777,15867 10777,15872 10778,15877 10779,15882 Z"/><path d="M 11551,17336 L 11551,17336 C 11588,17338 11623,17341 11658,17345 11944,17293 12189,17347 12388,17508 12374,17657 12348,17792 12313,17912 L 12375,17947 12375,17947 C 12416,17820 12446,17681 12465,17530 12465,17528 12460,17525 12452,17519 12325,17352 12178,17246 12011,17200 11897,17168 11772,17165 11636,17191 11566,17205 11495,17226 11419,17255 11405,17252 11393,17252 11380,17250 11325,17271 11270,17282 11211,17280 L 11307,17334 11307,17334 C 11393,17331 11475,17332 11551,17336 Z"/><path d="M 10587,16922 L 10462,16849 10462,16849 C 10488,17122 10514,17388 10537,17648 10547,17781 10560,17911 10573,18042 10601,18356 10627,18660 10653,18955 10667,18998 10680,19038 10696,19077 L 10837,19215 10837,19215 C 10867,19230 10933,19258 11034,19300 11041,19299 11049,19302 11060,19311 11190,19328 11306,19316 11408,19274 11795,19138 12166,18926 12525,18644 12687,18502 12788,18356 12828,18207 L 12665,18114 12665,18114 C 12646,18179 12630,18226 12616,18257 12503,18454 12354,18614 12173,18740 11833,18952 11461,19109 11058,19212 11049,19215 11043,19218 11040,19225 10948,19195 10890,19160 10864,19122 10861,19117 10855,19114 10845,19110 10823,19053 10804,18999 10784,18945 10782,18937 10775,18933 10765,18933 10740,18662 10715,18388 10691,18110 10679,17979 10668,17849 10657,17717 10637,17511 10620,17301 10602,17091 10596,17033 10592,16977 10587,16922 Z"/><path d="M 12375,17947 L 12313,17912 12313,17912 C 12239,18166 12121,18350 11957,18463 11773,18580 11538,18682 11257,18774 11163,18640 11127,18508 11150,18381 11184,18244 11196,18107 11185,17967 11169,17766 11107,17562 10998,17358 11106,17346 11209,17337 11307,17334 L 11211,17280 11211,17280 C 11144,17277 11074,17259 11002,17225 10975,17212 10949,17197 10922,17179 L 10920,17178 10920,17178 C 10916,17170 10916,17166 10920,17164 10921,17163 10921,17163 10922,17164 10915,17152 10909,17145 10903,17136 10903,17133 10903,17133 10901,17132 L 10903,17133 10903,17133 C 10896,17120 10892,17107 10890,17095 L 10806,17047 10806,17047 C 10808,17070 10809,17095 10811,17120 L 10813,17121 10813,17121 C 10839,17218 10866,17318 10890,17417 10953,17678 11004,17943 11042,18213 11068,18394 11087,18576 11101,18760 11099,18761 11104,18769 11118,18782 11198,18825 11271,18839 11335,18825 11339,18820 11347,18821 11358,18833 11677,18783 11927,18651 12112,18436 12140,18403 12165,18367 12192,18332 12268,18221 12330,18093 12375,17947 Z"/></g><g style="stroke:none;fill:rgb(255,0,0)"><path d="M 12753,17364 L 12753,17364 C 12740,17356 12730,17350 12722,17346 12442,17108 12137,16960 11803,16904 11609,16870 11405,16869 11191,16899 11140,16906 11089,16915 11037,16925 11029,16936 11021,16942 11015,16944 10903,16986 10864,17049 10903,17133 10903,17133 10903,17133 10903,17136 10909,17145 10915,17152 10922,17164 10921,17163 10921,17163 10920,17164 10920,17166 10923,17170 10926,17173 10922,17174 10921,17177 10922,17179 10949,17197 10975,17212 11002,17225 11135,17289 11261,17297 11380,17250 11393,17252 11405,17252 11419,17255 11495,17226 11566,17205 11636,17191 11772,17165 11897,17168 12011,17200 12178,17246 12325,17352 12452,17519 12460,17525 12465,17528 12465,17530 12424,17858 12333,18126 12192,18332 12165,18367 12140,18403 12112,18436 11927,18651 11677,18783 11358,18833 11347,18821 11339,18820 11335,18825 L 11335,18825 C 11271,18839 11198,18825 11118,18782 11104,18769 11099,18761 11101,18760 11087,18576 11068,18394 11042,18213 11004,17943 10953,17678 10890,17417 10866,17318 10839,17218 10813,17121 L 10811,17120 10811,17120 C 10794,16870 10783,16613 10781,16353 10770,16346 10761,16343 10756,16345 10736,16341 10714,16342 10693,16342 10692,16341 10692,16341 10692,16341 L 10691,16342 10691,16342 C 10685,16340 10680,16341 10673,16340 10627,16336 10580,16334 10534,16332 10530,16336 10528,16342 10529,16348 10538,16413 10546,16477 10555,16543 10556,16552 10559,16562 10559,16571 10573,16745 10588,16918 10602,17091 10620,17301 10637,17511 10657,17717 10668,17849 10679,17979 10691,18110 10715,18388 10740,18662 10765,18933 10775,18933 10782,18937 10784,18945 10804,18999 10823,19053 10845,19110 10855,19114 10861,19117 10864,19122 10890,19160 10948,19195 11040,19225 11043,19218 11049,19215 11058,19212 11461,19109 11833,18952 12173,18740 12354,18614 12503,18454 12616,18257 12642,18194 12683,18060 12736,17855 12777,17648 12782,17483 12753,17364 Z"/></g><g style="stroke:none;fill:rgb(255,255,255)"><path d="M 10777,15867 L 10777,15867 C 10776,15866 10776,15866 10775,15868 10776,15874 10778,15878 10779,15882 10778,15877 10777,15872 10777,15867 Z"/></g><g style="stroke:none;fill:rgb(202,202,202)"><path d="M 10746,16055 L 10746,16055 C 10746,16031 10740,16005 10734,15979 10721,15933 10714,15822 10715,15648 10716,15487 10719,15392 10729,15365 10691,14829 10660,14385 10639,14032 L 10639,14032 10634,14031 10635,14008 10636,14009 10259,10478 10259,10478 C 10180,10515 10109,10569 10049,10640 10028,10664 10008,10689 9989,10714 L 10702,16203 10702,16203 C 10734,16159 10748,16109 10746,16055 Z"/></g><g style="stroke:none;fill:rgb(130,130,130)"><path d="M 10639,14032 L 10639,14032 10636,14009 10635,14008 10639,14032 Z"/></g><g style="stroke:none;fill:rgb(156,156,156)"><path d="M 10348,15845 L 10348,15845 C 10356,15897 10371,15940 10387,15972 L 10387,15972 10418,16028 10471,16179 9605,11530 9605,11530 C 9601,11546 9596,11564 9592,11581 9538,11799 9491,11960 9448,12063 L 10209,15316 10209,15316 C 10264,15464 10310,15612 10345,15762 10337,15767 10338,15796 10348,15845 Z"/></g><g style="stroke:none;fill:rgb(124,124,124)"><path d="M 9448,12063 L 9448,12063 C 9440,12081 9435,12096 9429,12112 9383,12209 9349,12277 9326,12317 9304,12356 9326,12625 9393,13126 9459,13625 9670,14215 10022,14897 10093,15035 10157,15175 10209,15316 L 9448,12063 Z"/></g><g style="stroke:none;fill:rgb(184,184,184)"><path d="M 10571,15309 L 10571,15309 C 10582,15343 10578,15374 10562,15403 10545,15431 10521,15450 10487,15455 10475,15458 10464,15460 10454,15459 L 10581,16238 10581,16238 C 10600,16246 10620,16257 10638,16268 10655,16256 10669,16242 10682,16226 10689,16218 10695,16211 10702,16203 L 9989,10714 9989,10714 C 9889,10840 9809,10978 9745,11127 L 10413,15215 10413,15215 C 10444,15209 10477,15215 10508,15233 10540,15251 10560,15276 10571,15309 Z"/></g><g style="stroke:none;fill:rgb(255,255,255)"><path d="M 10562,15403 L 10562,15403 C 10578,15374 10582,15343 10571,15309 10560,15276 10540,15251 10508,15233 10477,15215 10444,15209 10413,15215 10410,15215 10410,15215 10408,15216 10373,15223 10348,15242 10332,15271 10315,15299 10312,15330 10324,15362 10335,15396 10355,15422 10387,15441 10408,15453 10431,15459 10454,15459 10464,15460 10475,15458 10487,15455 10521,15450 10545,15431 10562,15403 Z"/></g><g style="stroke:none;fill:rgb(166,166,166)"><path d="M 10471,16179 L 10471,16179 C 10468,16179 10470,16180 10470,16182 10507,16200 10545,16219 10581,16238 L 10454,15459 10454,15459 C 10431,15459 10408,15453 10387,15441 10355,15422 10335,15396 10324,15362 10312,15330 10315,15299 10332,15271 10348,15242 10373,15223 10408,15216 10410,15215 10410,15215 10413,15215 L 9745,11127 9745,11127 C 9733,11151 9722,11176 9713,11203 9672,11309 9636,11419 9605,11530 L 10471,16179 Z"/></g><g style="stroke:rgb(0,0,0);stroke-width:33;stroke-linejoin:round;fill:rgb(255,255,255)"><path style="fill:none" d="M 10571,15309 L 10571,15309 C 10560,15276 10540,15251 10508,15233 10477,15215 10444,15209 10413,15215 10410,15215 10410,15215 10408,15216 10373,15223 10348,15242 10332,15271 10315,15299 10312,15330 10324,15362 10335,15396 10355,15422 10387,15441 10408,15453 10431,15459 10454,15459 10464,15460 10475,15458 10487,15455 10521,15450 10545,15431 10562,15403 10578,15374 10582,15343 10571,15309"/></g><g style="stroke:none;fill:rgb(102,102,102)"><path d="M 10415,10331 L 10415,10331 C 10406,10442 10399,10553 10391,10665 10380,10816 10369,10970 10359,11124 10358,11130 10358,11138 10358,11144 10304,12054 10241,12962 10174,13872 10167,13978 10159,14086 10151,14193 L 10051,15528 10051,15528 C 10041,15608 10031,15693 10023,15782 10007,15953 9989,16141 9975,16344 9969,16342 9959,16344 9948,16344 9436,16244 8785,16561 7994,17295 8001,17302 8004,17313 8000,17329 8030,17630 8108,17907 8231,18161 8323,18325 8418,18504 8516,18698 8516,18703 8521,18711 8527,18721 8699,18983 8906,19168 9147,19276 9158,19270 9164,19276 9166,19292 9234,19284 9303,19279 9371,19280 9375,19277 9381,19280 9388,19291 9528,19246 9676,19184 9832,19104 9848,19087 9860,19081 9871,19082 10007,18894 10099,18722 10150,18563 10148,18553 10155,18546 10166,18543 10196,17722 10310,17047 10509,16517 10543,16390 10580,16265 10621,16140 L 10621,16140 10766,15734 10800,15556 10800,15556 C 10799,15557 10799,15557 10798,15555 10900,15256 10954,15104 10953,15100 11057,14691 11124,14456 11151,14398 11147,14392 11144,14384 11147,14378 11296,13892 11403,13482 11476,13149 11538,12857 11571,12625 11573,12451 11575,12399 11572,12346 11566,12293 11510,11757 11127,11103 10415,10331 Z M 10122,16062 L 10122,16062 C 10144,16068 10166,16076 10188,16083 10216,16092 10242,16102 10267,16111 10308,16125 10348,16140 10386,16153 10380,16153 10409,16165 10472,16189 10436,16197 10358,16501 10237,17104 10123,17670 10020,18235 9932,18796 9930,18805 9931,18812 9935,18822 9862,18944 9744,19067 9577,19192 9568,19194 9557,19203 9543,19216 8980,19122 8557,18739 8277,18067 8277,18055 8274,18048 8267,18044 8179,17846 8160,17600 8209,17307 L 8209,17307 8182,17321 8170,17309 8170,17309 C 8931,16586 9514,16301 9921,16456 9930,16453 9937,16452 9945,16453 9979,16599 9980,16736 9946,16864 9944,16867 9939,16870 9933,16877 9602,16768 9099,16902 8420,17278 L 8374,17605 8374,17605 C 8528,18087 8770,18496 9099,18834 9105,18837 9110,18844 9114,18853 9281,18858 9464,18827 9661,18759 9672,18753 9684,18746 9696,18739 9970,17670 10104,16801 10099,16132 10100,16109 10100,16089 10099,16069 10097,16057 10095,16051 10093,16051 10103,16054 10113,16057 10122,16062 Z M 10520,10594 L 10520,10594 C 10570,10660 10637,10746 10717,10853 10796,10958 10879,11082 10969,11223 10980,11244 10992,11265 11005,11286 11050,11362 11091,11436 11129,11509 11139,11526 11148,11542 11156,11560 11225,11700 11284,11836 11327,11970 11441,12315 11465,12633 11398,12923 11394,12945 11389,12964 11384,12984 11292,13386 11209,13724 11135,13999 11134,14003 11131,14006 11123,14011 11050,14383 10961,14742 10853,15089 10839,15139 10823,15189 10806,15240 10772,15343 10736,15443 10702,15544 10691,15573 10681,15599 10671,15627 10635,15723 10598,15817 10559,15912 L 10557,15913 10557,15913 C 10552,15925 10548,15938 10543,15950 10533,15976 10535,16017 10549,16072 10516,16042 10481,16020 10438,16007 10407,15999 10374,15994 10337,15997 L 10230,16017 10230,16017 C 10196,16020 10163,16000 10130,15959 10126,15956 10123,15951 10119,15948 10117,15883 10116,15822 10114,15765 10113,15701 10110,15638 10106,15576 L 10107,15585 10107,15585 C 10147,15477 10167,15400 10170,15355 10172,15340 10172,15325 10174,15311 10198,14964 10220,14645 10241,14355 10249,14242 10257,14136 10264,14033 10302,13547 10333,13154 10356,12859 10404,12282 10440,11777 10468,11340 10484,11068 10495,10823 10503,10603 10503,10593 10501,10583 10503,10573 10508,10580 10515,10588 10520,10594 Z M 9886,16944 L 9886,16944 C 9888,16946 9896,16945 9908,16941 9933,17419 9847,17995 9647,18673 9649,18677 9643,18684 9626,18694 9495,18743 9381,18760 9285,18747 9277,18742 9267,18746 9253,18757 8981,18646 8776,18405 8642,18036 8637,18027 8633,18020 8630,18016 8572,17826 8538,17605 8529,17356 8531,17342 8529,17330 8522,17326 9159,16971 9613,16844 9886,16944 Z"/></g><g style="stroke:none;fill:rgb(255,0,0)"><path d="M 10188,16083 L 10188,16083 C 10166,16076 10144,16068 10122,16062 10113,16057 10103,16054 10093,16051 10095,16051 10097,16057 10099,16069 10100,16089 10100,16109 10099,16132 10104,16801 9970,17670 9696,18739 9684,18746 9672,18753 9661,18759 9464,18827 9281,18858 9114,18853 9110,18844 9105,18837 9099,18834 8770,18496 8528,18087 8374,17605 L 8420,17278 8420,17278 C 9099,16902 9602,16768 9933,16877 9939,16870 9944,16867 9946,16864 9980,16736 9979,16599 9945,16453 9937,16452 9930,16453 9921,16456 9514,16301 8931,16586 8170,17309 L 8170,17309 8182,17321 8209,17307 8209,17307 C 8160,17600 8179,17846 8267,18044 8274,18048 8277,18055 8277,18067 8557,18739 8980,19122 9543,19216 9557,19203 9568,19194 9577,19192 9744,19067 9862,18944 9935,18822 9931,18812 9930,18805 9932,18796 10020,18235 10123,17670 10237,17104 10358,16501 10436,16197 10472,16189 10409,16165 10380,16153 10386,16153 10348,16140 10308,16125 10267,16111 10242,16102 10216,16092 10188,16083 Z"/></g><g style="stroke:none;fill:rgb(51,51,51)"><path d="M 10574,15170 L 10574,15170 C 10541,15114 10500,15095 10454,15111 10415,15125 10370,15165 10322,15230 10313,15242 10303,15256 10295,15268 10293,15269 10292,15270 10291,15273 10291,15274 10292,15275 10293,15277 10296,15282 10299,15287 10302,15294 10337,15351 10375,15387 10415,15406 10454,15420 10494,15417 10538,15397 10558,15388 10576,15373 10597,15357 10608,15348 10621,15337 10633,15325 10629,15318 10626,15311 10625,15304 10611,15247 10594,15203 10574,15170 Z M 10462,15354 L 10456,15343 10456,15343 C 10549,15300 10551,15304 10462,15354 Z M 10441,15212 L 10441,15212 C 10434,15215 10426,15215 10419,15217 10417,15216 10413,15213 10410,15207 10423,15205 10432,15203 10441,15203 10500,15193 10501,15197 10441,15212 Z"/></g><g style="stroke:none;fill:rgb(255,255,255)"><path d="M 10456,15343 L 10462,15354 10462,15354 C 10551,15304 10549,15300 10456,15343 Z"/></g><g style="stroke:none;fill:rgb(99,99,99)"><path d="M 10441,15212 L 10441,15212 C 10459,15208 10472,15204 10481,15201 10488,15198 10488,15197 10480,15198 10475,15198 10461,15200 10441,15203 L 10441,15212 Z"/></g><g style="stroke:none;fill:rgb(255,255,255)"><path d="M 10441,15212 L 10441,15203 10441,15203 C 10432,15203 10423,15205 10410,15207 10413,15213 10417,15216 10419,15217 10426,15215 10434,15215 10441,15212 Z"/></g><g style="stroke:none;fill:rgb(148,148,148)"><path d="M 11129,11509 L 11129,11509 C 11091,11436 11050,11362 11005,11286 10992,11265 10980,11244 10969,11223 L 10454,15111 10454,15111 C 10500,15095 10541,15114 10574,15170 L 11156,11560 11156,11560 C 11148,11542 11139,11526 11129,11509 Z"/></g><g style="stroke:none;fill:rgb(168,168,168)"><path d="M 10969,11223 L 10969,11223 C 10879,11082 10796,10958 10717,10853 L 10295,15268 10295,15268 C 10303,15256 10313,15242 10322,15230 10370,15165 10415,15125 10454,15111 L 10969,11223 Z"/></g><g style="stroke:none;fill:rgb(117,117,117)"><path d="M 11384,12984 L 11384,12984 C 11389,12964 11394,12945 11398,12923 11465,12633 11441,12315 11327,11970 L 10559,15912 10559,15912 C 10598,15817 10635,15723 10671,15627 10681,15599 10691,15573 10702,15544 10736,15443 10772,15343 10806,15240 10823,15189 10839,15139 10853,15089 10961,14742 11050,14383 11123,14011 11131,14006 11134,14003 11135,13999 11209,13724 11292,13386 11384,12984 Z"/></g><g style="stroke:none;fill:rgb(131,131,131)"><path d="M 11327,11970 L 11327,11970 C 11284,11836 11225,11700 11156,11560 L 10574,15170 10574,15170 C 10594,15203 10611,15247 10625,15304 10626,15311 10629,15318 10633,15325 10621,15337 10608,15348 10597,15357 10576,15373 10558,15388 10538,15397 L 10438,16007 10438,16007 C 10481,16020 10516,16042 10549,16072 10535,16017 10533,15976 10543,15950 10548,15938 10552,15925 10557,15913 L 10557,15913 10559,15912 11327,11970 Z"/></g><g style="stroke:none;fill:rgb(168,168,168)"><path d="M 10302,15294 L 10302,15294 C 10299,15287 10296,15282 10293,15277 L 10293,15277 10230,16017 10337,15997 10415,15406 10415,15406 C 10375,15387 10337,15351 10302,15294 Z"/></g><g style="stroke:none;fill:rgb(148,148,148)"><path d="M 10337,15997 L 10337,15997 C 10374,15994 10407,15999 10438,16007 L 10538,15397 10538,15397 C 10494,15417 10454,15420 10415,15406 L 10337,15997 Z"/></g><g style="stroke:none;fill:rgb(180,180,180)"><path d="M 10717,10853 L 10717,10853 C 10637,10746 10570,10660 10520,10594 10515,10588 10508,10580 10503,10573 10501,10583 10503,10593 10503,10603 10495,10823 10484,11068 10468,11340 10440,11777 10404,12282 10356,12859 10333,13154 10302,13547 10264,14033 10257,14136 10249,14242 10241,14355 10220,14645 10198,14964 10174,15311 10172,15325 10172,15340 10170,15355 10167,15400 10147,15477 10107,15585 L 10106,15576 10106,15576 C 10110,15638 10113,15701 10114,15765 10116,15822 10117,15883 10119,15948 10123,15951 10126,15956 10130,15959 10163,16000 10196,16020 10230,16017 L 10293,15277 10293,15277 C 10292,15275 10291,15274 10291,15273 10292,15270 10293,15269 10295,15268 L 10717,10853 Z"/></g></g></g></g></svg>