<?xml version="1.0" encoding="UTF-8"?>
<!DOCTYPE svg PUBLIC "-//W3C//DTD SVG 1.1//EN" "http://www.w3.org/Graphics/SVG/1.1/DTD/svg11.dtd"><svg version="1.1" viewBox="0 0 21000 29700" preserveAspectRatio="xMidYMid" fill-rule="evenodd" xmlns="http://www.w3.org/2000/svg" xmlns:xlink="http://www.w3.org/1999/xlink"><g visibility="visible" id="Default"><desc>Master slide</desc><g style="stroke:none;fill:none"><rect x="0" y="0" width="21000" height="29700"/></g></g><g visibility="visible" id="page1"><desc>Slide</desc><g><desc>Graphic</desc><g><g style="stroke:none;fill:rgb(51,51,51)"><path d="M 8966,10811 L 8966,10811 C 8980,10781 8994,10751 9008,10721 9052,10635 9108,10564 9178,10507 L 9178,10507 10334,13960 10342,13982 10342,13982 C 10405,14206 10481,14468 10570,14768 L 10570,14768 10669,14798 10341,13751 10341,13751 C 9995,12594 9614,11453 9204,10325 8774,10759 8558,11401 8558,12247 8559,12935 8810,13652 9309,14396 L 9509,14455 9509,14455 C 9238,14072 9044,13714 8923,13383 8745,12898 8664,12633 8677,12588 8691,12542 8708,12464 8732,12356 8735,12338 8737,12321 8740,12301 8758,12187 8767,12014 8772,11781 8772,11763 8773,11744 8773,11726 8778,11607 8789,11488 8806,11371 8810,11342 8815,11314 8821,11286 8849,11122 8896,10963 8966,10811 Z"/><path d="M 11292,16724 L 11292,16724 C 11282,16717 11276,16712 11274,16707 11223,16514 11173,16362 11126,16248 11099,16187 11073,16139 11049,16102 11044,16075 11038,16050 11033,16026 11024,15997 11018,15970 11014,15943 L 11005,15908 11005,15908 C 10988,15839 10968,15769 10949,15701 10944,15689 10942,15676 10940,15664 L 10940,15664 10669,14798 10570,14768 10570,14768 C 10619,14934 10671,15111 10728,15298 10724,15328 10741,15424 10776,15585 10815,15760 10847,15871 10869,15913 10882,15938 10892,15962 10898,15986 10912,16041 10909,16094 10888,16146 10883,16156 10879,16164 10874,16174 10865,16193 10855,16210 10840,16228 10820,16222 10800,16216 10777,16211 10739,16201 10697,16192 10657,16184 10657,16181 10655,16181 10657,16180 L 10657,16180 10572,16041 10530,15993 10530,15993 C 10507,15965 10483,15926 10463,15876 10442,15828 10434,15799 10441,15794 10373,15652 10296,15513 10209,15379 10126,15250 10034,15125 9933,15005 9775,14814 9634,14632 9509,14455 L 9309,14396 9309,14396 C 9423,14565 9551,14737 9692,14910 L 9692,14910 10360,15959 10379,15977 10379,15977 C 10424,16048 10473,16134 10523,16231 10541,16265 10557,16300 10575,16336 10635,16452 10694,16585 10758,16735 10761,16743 10765,16753 10768,16762 10781,16793 10789,16825 10798,16855 L 10937,16897 10937,16897 C 10902,16782 10867,16668 10832,16552 10829,16542 10824,16533 10821,16524 10798,16460 10775,16398 10751,16335 10750,16330 10749,16323 10753,16318 10799,16308 10845,16299 10890,16292 10896,16290 10902,16289 10908,16288 L 10908,16287 10908,16287 C 10908,16287 10908,16287 10910,16288 10930,16282 10952,16277 10974,16275 10978,16272 10987,16272 10999,16278 11053,16513 11114,16742 11178,16968 L 11271,16995 11271,16995 C 11244,16932 11273,16871 11359,16811 11365,16808 11370,16800 11376,16787 11425,16764 11473,16742 11521,16723 11723,16640 11922,16590 12120,16574 12459,16548 12790,16620 13116,16789 13124,16790 13136,16794 13150,16799 13205,16911 13236,17078 13243,17297 13239,17408 13234,17500 13231,17574 L 13411,17627 13411,17627 C 13412,17597 13412,17569 13410,17541 13422,17126 13344,16852 13182,16715 13165,16710 13154,16706 13145,16704 12803,16558 12468,16492 12141,16504 11941,16512 11744,16549 11553,16615 11465,16644 11378,16681 11292,16724 Z M 10893,15805 L 10893,15805 C 10889,15801 10887,15797 10886,15791 10886,15790 10886,15790 10887,15790 10888,15795 10890,15799 10893,15805 Z"/><path d="M 11971,17072 L 11971,17072 C 12006,17064 12041,17058 12076,17054 12344,16930 12594,16923 12825,17035 12845,17189 12850,17330 12843,17459 L 12911,17479 12911,17479 C 12923,17341 12920,17195 12906,17037 12905,17036 12900,17034 12890,17029 12729,16895 12562,16824 12389,16820 12272,16816 12148,16845 12021,16904 11956,16936 11890,16975 11823,17023 11809,17025 11798,17028 11784,17028 11735,17064 11683,17088 11627,17100 L 11731,17131 11731,17131 C 11814,17107 11894,17087 11971,17072 Z"/><path d="M 10937,16897 L 10798,16855 10798,16855 C 10884,17123 10970,17384 11049,17639 11090,17770 11131,17897 11173,18025 11270,18334 11363,18633 11455,18922 11478,18962 11500,19000 11525,19034 L 11693,19137 11693,19137 C 11726,19146 11796,19157 11903,19174 11910,19171 11919,19172 11931,19179 12062,19164 12172,19122 12264,19055 12611,18820 12926,18516 13213,18142 13339,17958 13404,17786 13411,17627 L 13231,17574 13231,17574 C 13227,17645 13221,17696 13214,17730 13149,17956 13039,18154 12890,18327 12606,18624 12278,18875 11907,19079 11899,19085 11893,19090 11893,19098 11796,19091 11732,19069 11699,19037 11695,19034 11688,19032 11677,19030 11644,18978 11612,18928 11579,18880 11576,18872 11569,18870 11560,18873 11475,18607 11389,18338 11304,18064 11261,17936 11222,17808 11182,17678 11117,17476 11052,17270 10989,17063 10971,17008 10954,16952 10937,16897 Z"/><path d="M 12911,17479 L 12843,17459 12843,17459 C 12828,17732 12752,17947 12618,18102 12464,18266 12258,18427 12005,18590 11882,18478 11818,18356 11812,18222 11815,18075 11796,17935 11754,17797 11693,17599 11586,17411 11435,17232 11538,17192 11637,17159 11731,17131 L 11627,17100 11627,17100 C 11559,17114 11487,17114 11409,17098 11380,17090 11351,17082 11321,17072 L 11319,17071 11319,17071 C 11313,17064 11314,17060 11316,17057 11316,17055 11316,17055 11318,17056 11308,17046 11301,17040 11294,17032 11293,17031 11293,17031 11291,17030 L 11293,17031 11293,17031 C 11284,17018 11276,17006 11271,16995 L 11178,16968 11178,16968 C 11184,16990 11192,17015 11199,17040 L 11201,17041 11201,17041 C 11249,17131 11297,17226 11344,17319 11464,17566 11572,17819 11670,18079 11736,18255 11795,18433 11849,18615 11847,18616 11855,18623 11870,18632 11958,18655 12032,18651 12091,18622 12094,18615 12103,18615 12116,18625 12415,18493 12631,18299 12763,18036 12783,17995 12801,17954 12818,17912 12867,17782 12899,17637 12911,17479 Z"/></g><g style="stroke:none;fill:rgb(255,0,0)"><path d="M 13150,16799 L 13150,16799 C 13136,16794 13124,16790 13116,16789 12790,16620 12459,16548 12120,16574 11922,16590 11723,16640 11521,16723 11473,16742 11425,16764 11376,16787 11370,16800 11365,16808 11359,16811 11259,16883 11235,16955 11293,17031 11293,17031 11293,17031 11294,17032 11301,17040 11308,17046 11318,17056 11316,17055 11316,17055 11316,17057 11317,17059 11320,17062 11323,17064 11320,17066 11320,17069 11321,17072 11351,17082 11380,17090 11409,17098 11553,17128 11678,17106 11784,17028 11798,17028 11809,17025 11823,17023 11890,16975 11956,16936 12021,16904 12148,16845 12272,16816 12389,16820 12562,16824 12729,16895 12890,17029 12900,17034 12905,17036 12906,17037 12940,17377 12909,17669 12818,17912 12801,17954 12783,17995 12763,18036 12631,18299 12415,18493 12116,18625 12103,18615 12094,18615 12091,18622 L 12091,18622 C 12032,18651 11958,18655 11870,18632 11855,18623 11847,18616 11849,18615 11795,18433 11736,18255 11670,18079 11572,17819 11464,17566 11344,17319 11297,17226 11249,17131 11201,17041 L 11199,17040 11199,17040 C 11127,16794 11059,16538 10999,16278 10987,16272 10978,16272 10974,16275 10952,16277 10930,16282 10910,16288 10908,16287 10908,16287 10908,16287 L 10908,16288 10908,16288 C 10902,16289 10896,16290 10890,16292 10845,16299 10799,16308 10753,16318 10749,16323 10750,16330 10751,16335 10775,16398 10798,16460 10821,16524 10824,16533 10829,16542 10832,16552 10884,16723 10936,16893 10989,17063 11052,17270 11117,17476 11182,17678 11222,17808 11261,17936 11304,18064 11389,18338 11475,18607 11560,18873 11569,18870 11576,18872 11579,18880 11612,18928 11644,18978 11677,19030 11688,19032 11695,19034 11699,19037 11732,19069 11796,19091 11893,19098 11893,19090 11899,19085 11907,19079 12278,18875 12606,18624 12890,18327 13039,18154 13149,17956 13214,17730 13226,17661 13236,17516 13243,17297 13236,17078 13205,16911 13150,16799 Z"/></g><g style="stroke:none;fill:rgb(255,255,255)"><path d="M 10887,15790 L 10887,15790 C 10886,15790 10886,15790 10886,15791 10887,15797 10889,15801 10893,15805 10890,15799 10888,15795 10887,15790 Z"/></g><g style="stroke:none;fill:rgb(202,202,202)"><path d="M 10898,15986 L 10898,15986 C 10892,15962 10882,15938 10869,15913 10847,15871 10815,15760 10776,15585 10741,15424 10724,15328 10728,15298 10570,14768 10440,14331 10342,13982 L 10342,13982 10336,13981 10332,13959 10334,13960 9178,10507 9178,10507 C 9108,10564 9052,10635 9008,10721 8994,10751 8980,10781 8966,10811 L 10888,16146 10888,16146 C 10909,16094 10912,16041 10898,15986 Z"/></g><g style="stroke:none;fill:rgb(130,130,130)"><path d="M 10342,13982 L 10342,13982 10334,13960 10332,13959 10342,13982 Z"/></g><g style="stroke:none;fill:rgb(156,156,156)"><path d="M 10463,15876 L 10463,15876 C 10483,15926 10507,15965 10530,15993 L 10530,15993 10572,16041 10657,16180 8773,11726 8773,11726 C 8773,11744 8772,11763 8772,11781 8767,12014 8758,12187 8740,12301 L 10209,15379 10209,15379 C 10296,15513 10373,15652 10441,15794 10434,15799 10442,15828 10463,15876 Z"/></g><g style="stroke:none;fill:rgb(124,124,124)"><path d="M 8740,12301 L 8740,12301 C 8737,12321 8735,12338 8732,12356 8708,12464 8691,12542 8677,12588 8664,12633 8745,12898 8923,13383 9100,13868 9436,14408 9933,15005 10034,15125 10126,15250 10209,15379 L 8740,12301 Z"/></g><g style="stroke:none;fill:rgb(184,184,184)"><path d="M 10561,15281 L 10561,15281 C 10580,15312 10582,15345 10572,15378 10563,15410 10543,15435 10511,15450 10500,15455 10489,15460 10480,15462 L 10777,16211 10777,16211 C 10800,16216 10820,16222 10840,16228 10855,16210 10865,16193 10874,16174 10879,16164 10883,16156 10888,16146 L 8966,10811 8966,10811 C 8896,10963 8849,11122 8821,11286 L 10386,15225 10386,15225 C 10415,15212 10447,15210 10482,15220 10517,15231 10542,15251 10561,15281 Z"/></g><g style="stroke:none;fill:rgb(255,255,255)"><path d="M 10572,15378 L 10572,15378 C 10582,15345 10580,15312 10561,15281 10542,15251 10517,15231 10482,15220 10447,15210 10415,15212 10386,15225 10383,15227 10383,15227 10381,15227 10349,15244 10328,15269 10318,15302 10309,15334 10312,15367 10331,15396 10350,15428 10374,15448 10410,15459 10433,15466 10458,15467 10480,15462 10489,15460 10500,15455 10511,15450 10543,15435 10563,15410 10572,15378 Z"/></g><g style="stroke:none;fill:rgb(166,166,166)"><path d="M 10657,16180 L 10657,16180 C 10655,16181 10657,16181 10657,16184 10697,16192 10739,16201 10777,16211 L 10480,15462 10480,15462 C 10458,15467 10433,15466 10410,15459 10374,15448 10350,15428 10331,15396 10312,15367 10309,15334 10318,15302 10328,15269 10349,15244 10381,15227 10383,15227 10383,15227 10386,15225 L 8821,11286 8821,11286 C 8815,11314 8810,11342 8806,11371 8789,11488 8778,11607 8773,11726 L 10657,16180 Z"/></g><g style="stroke:rgb(0,0,0);stroke-width:33;stroke-linejoin:round;fill:rgb(255,255,255)"><path style="fill:none" d="M 10561,15281 L 10561,15281 C 10542,15251 10517,15231 10482,15220 10447,15210 10415,15212 10386,15225 10383,15227 10383,15227 10381,15227 10349,15244 10328,15269 10318,15302 10309,15334 10312,15367 10331,15396 10350,15428 10374,15448 10410,15459 10433,15466 10458,15467 10480,15462 10489,15460 10500,15455 10511,15450 10543,15435 10563,15410 10572,15378 10582,15345 10580,15312 10561,15281"/></g><g style="stroke:none;fill:rgb(102,102,102)"><path d="M 11499,10344 L 11499,10344 C 11466,10452 11434,10562 11402,10670 11359,10819 11315,10969 11272,11121 11270,11127 11269,11134 11266,11141 11017,12033 10761,12923 10500,13812 10470,13916 10438,14022 10407,14127 L 10023,15432 10023,15432 C 9996,15509 9969,15591 9939,15677 9888,15845 9831,16028 9772,16226 9766,16223 9756,16222 9747,16221 9270,15999 8570,16160 7642,16704 7649,16712 7648,16723 7641,16738 7605,17045 7621,17340 7686,17622 7740,17807 7794,18007 7847,18223 7847,18228 7849,18237 7853,18249 7963,18551 8124,18785 8336,18950 8348,18946 8351,18953 8350,18969 8419,18977 8487,18989 8551,19006 8556,19004 8562,19009 8566,19021 8711,19010 8869,18983 9037,18940 9057,18928 9070,18924 9079,18928 9254,18773 9380,18623 9463,18476 9464,18466 9471,18461 9484,18461 9690,17651 9946,17006 10254,16526 10315,16408 10377,16292 10443,16177 L 10443,16177 10673,15807 10744,15637 10744,15637 C 10742,15638 10742,15638 10741,15637 10906,15363 10991,15224 10992,15220 11182,14837 11297,14620 11335,14568 11333,14561 11331,14553 11335,14547 11584,14098 11779,13716 11920,13402 12044,13126 12127,12903 12166,12731 12178,12679 12187,12625 12193,12571 12252,12024 12022,11282 11499,10344 Z M 9976,15980 L 9976,15980 C 9996,15991 10016,16005 10037,16018 10061,16033 10084,16050 10107,16064 10144,16088 10179,16111 10213,16134 10207,16133 10232,16151 10289,16191 10253,16189 10111,16474 9862,17046 9630,17582 9409,18119 9202,18658 9199,18665 9197,18674 9199,18685 9102,18788 8960,18883 8771,18967 8762,18968 8749,18973 8733,18983 8207,18756 7878,18275 7752,17539 7754,17527 7752,17519 7746,17513 7704,17295 7738,17046 7850,16766 L 7850,16766 7821,16774 7811,16760 7811,16760 C 8707,16219 9335,16074 9697,16325 9705,16324 9713,16325 9719,16328 9721,16482 9693,16618 9633,16737 9630,16740 9624,16742 9617,16747 9320,16561 8802,16574 8061,16787 L 7944,17102 7944,17102 C 7992,17619 8138,18084 8385,18497 8389,18502 8394,18510 8395,18520 8556,18565 8739,18578 8945,18557 8957,18553 8971,18550 8985,18546 9481,17544 9800,16712 9940,16045 9944,16022 9949,16002 9952,15981 9953,15970 9952,15964 9951,15962 9960,15968 9969,15973 9976,15980 Z M 11543,10630 L 11543,10630 C 11578,10708 11625,10811 11679,10936 11732,11059 11787,11203 11843,11363 11850,11387 11857,11411 11865,11435 11892,11521 11916,11605 11938,11686 11944,11706 11949,11724 11953,11743 11991,11899 12017,12049 12031,12193 12066,12563 12020,12885 11894,13158 11885,13178 11876,13197 11866,13216 11690,13594 11537,13911 11405,14167 11404,14171 11399,14174 11391,14176 11240,14529 11075,14866 10896,15186 10872,15232 10845,15278 10818,15325 10762,15419 10707,15510 10651,15602 10635,15628 10620,15652 10603,15677 10548,15765 10492,15850 10433,15935 L 10432,15935 10432,15935 C 10424,15946 10417,15958 10408,15970 10394,15994 10387,16035 10389,16091 10364,16054 10333,16024 10296,16002 10267,15986 10236,15974 10200,15966 L 10091,15961 10091,15961 C 10057,15957 10029,15929 10006,15880 10003,15877 10001,15871 9999,15866 10011,15801 10022,15739 10033,15683 10046,15620 10057,15555 10066,15492 L 10065,15502 10065,15502 C 10127,15404 10163,15332 10176,15288 10180,15273 10184,15259 10189,15245 10287,14905 10378,14593 10461,14309 10493,14199 10524,14095 10552,13995 10694,13518 10809,13136 10895,12847 11067,12285 11211,11790 11331,11362 11406,11095 11470,10853 11524,10636 11527,10625 11528,10615 11531,10607 11535,10615 11539,10624 11543,10630 Z M 9556,16802 L 9556,16802 C 9559,16805 9567,16806 9578,16805 9500,17287 9291,17840 8951,18468 8952,18472 8944,18477 8926,18484 8788,18501 8674,18491 8585,18455 8577,18449 8567,18449 8551,18458 8310,18283 8164,17994 8113,17595 8110,17585 8108,17577 8106,17573 8089,17369 8104,17141 8150,16892 8154,16877 8155,16865 8149,16859 8844,16658 9313,16639 9556,16802 Z"/></g><g style="stroke:none;fill:rgb(255,0,0)"><path d="M 10037,16018 L 10037,16018 C 10016,16005 9996,15991 9976,15980 9969,15973 9960,15968 9951,15962 9952,15964 9953,15970 9952,15981 9949,16002 9944,16022 9940,16045 9800,16712 9481,17544 8985,18546 8971,18550 8957,18553 8945,18557 8739,18578 8556,18565 8395,18520 8394,18510 8389,18502 8385,18497 8138,18084 7992,17619 7944,17102 L 8061,16787 8061,16787 C 8802,16574 9320,16561 9617,16747 9624,16742 9630,16740 9633,16737 9693,16618 9721,16482 9719,16328 9713,16325 9705,16324 9697,16325 9335,16074 8707,16219 7811,16760 L 7811,16760 7821,16774 7850,16766 7850,16766 C 7738,17046 7704,17295 7746,17513 7752,17519 7754,17527 7752,17539 7878,18275 8207,18756 8733,18983 8749,18973 8762,18968 8771,18967 8960,18883 9102,18788 9199,18685 9197,18674 9199,18665 9202,18658 9409,18119 9630,17582 9862,17046 10111,16474 10253,16189 10289,16191 10232,16151 10207,16133 10213,16134 10179,16111 10144,16088 10107,16064 10084,16050 10061,16033 10037,16018 Z"/></g><g style="stroke:none;fill:rgb(51,51,51)"><path d="M 10607,15200 L 10607,15200 C 10588,15136 10552,15108 10504,15113 10463,15117 10411,15146 10350,15199 10338,15209 10326,15221 10316,15231 10314,15232 10312,15232 10311,15235 10311,15236 10312,15238 10312,15239 10314,15245 10316,15251 10318,15259 10338,15324 10368,15369 10403,15396 10437,15421 10478,15426 10524,15416 10545,15413 10566,15403 10590,15391 10602,15384 10618,15377 10632,15369 10630,15361 10628,15353 10628,15345 10627,15285 10621,15237 10607,15200 Z M 10459,15356 L 10456,15344 10456,15344 C 10556,15323 10557,15328 10459,15356 Z M 10471,15210 L 10471,15210 C 10463,15211 10455,15210 10448,15210 10445,15209 10442,15205 10440,15198 10454,15198 10463,15199 10473,15202 10531,15206 10530,15209 10471,15210 Z"/></g><g style="stroke:none;fill:rgb(255,255,255)"><path d="M 10456,15344 L 10459,15356 10459,15356 C 10557,15328 10556,15323 10456,15344 Z"/></g><g style="stroke:none;fill:rgb(99,99,99)"><path d="M 10471,15210 L 10471,15210 C 10489,15210 10501,15210 10510,15208 10519,15208 10518,15206 10510,15205 10504,15203 10492,15203 10473,15202 L 10471,15210 Z"/></g><g style="stroke:none;fill:rgb(255,255,255)"><path d="M 10471,15210 L 10473,15202 10473,15202 C 10463,15199 10454,15198 10440,15198 10442,15205 10445,15209 10448,15210 10455,15210 10463,15211 10471,15210 Z"/></g><g style="stroke:none;fill:rgb(148,148,148)"><path d="M 11938,11686 L 11938,11686 C 11916,11605 11892,11521 11865,11435 11857,11411 11850,11387 11843,11363 L 10504,15113 10504,15113 C 10552,15108 10588,15136 10607,15200 L 11953,11743 11953,11743 C 11949,11724 11944,11706 11938,11686 Z"/></g><g style="stroke:none;fill:rgb(168,168,168)"><path d="M 11843,11363 L 11843,11363 C 11787,11203 11732,11059 11679,10936 L 10316,15231 10316,15231 C 10326,15221 10338,15209 10350,15199 10411,15146 10463,15117 10504,15113 L 11843,11363 Z"/></g><g style="stroke:none;fill:rgb(117,117,117)"><path d="M 11866,13216 L 11866,13216 C 11876,13197 11885,13178 11894,13158 12020,12885 12066,12563 12031,12193 L 10433,15935 10433,15935 C 10492,15850 10548,15765 10603,15677 10620,15652 10635,15628 10651,15602 10707,15510 10762,15419 10818,15325 10845,15278 10872,15232 10896,15186 11075,14866 11240,14529 11391,14176 11399,14174 11404,14171 11405,14167 11537,13911 11690,13594 11866,13216 Z"/></g><g style="stroke:none;fill:rgb(131,131,131)"><path d="M 12031,12193 L 12031,12193 C 12017,12049 11991,11899 11953,11743 L 10607,15200 10607,15200 C 10621,15237 10627,15285 10628,15345 10628,15353 10630,15361 10632,15369 10618,15377 10602,15384 10590,15391 10566,15403 10545,15413 10524,15416 L 10296,16002 10296,16002 C 10333,16024 10364,16054 10389,16091 10387,16035 10394,15994 10408,15970 10417,15958 10424,15946 10432,15935 L 10432,15935 10433,15935 12031,12193 Z"/></g><g style="stroke:none;fill:rgb(168,168,168)"><path d="M 10318,15259 L 10318,15259 C 10316,15251 10314,15245 10312,15239 L 10312,15239 10091,15961 10200,15966 10403,15396 10403,15396 C 10368,15369 10338,15324 10318,15259 Z"/></g><g style="stroke:none;fill:rgb(148,148,148)"><path d="M 10200,15966 L 10200,15966 C 10236,15974 10267,15986 10296,16002 L 10524,15416 10524,15416 C 10478,15426 10437,15421 10403,15396 L 10200,15966 Z"/></g><g style="stroke:none;fill:rgb(180,180,180)"><path d="M 11679,10936 L 11679,10936 C 11625,10811 11578,10708 11543,10630 11539,10624 11535,10615 11531,10607 11528,10615 11527,10625 11524,10636 11470,10853 11406,11095 11331,11362 11211,11790 11067,12285 10895,12847 10809,13136 10694,13518 10552,13995 10524,14095 10493,14199 10461,14309 10378,14593 10287,14905 10189,15245 10184,15259 10180,15273 10176,15288 10163,15332 10127,15404 10065,15502 L 10066,15492 10066,15492 C 10057,15555 10046,15620 10033,15683 10022,15739 10011,15801 9999,15866 10001,15871 10003,15877 10006,15880 10029,15929 10057,15957 10091,15961 L 10312,15239 10312,15239 C 10312,15238 10311,15236 10311,15235 10312,15232 10314,15232 10316,15231 L 11679,10936 Z"/></g></g></g></g></svg>