<?xml version="1.0" encoding="UTF-8"?>
<!DOCTYPE svg PUBLIC "-//W3C//DTD SVG 1.1//EN" "http://www.w3.org/Graphics/SVG/1.1/DTD/svg11.dtd"><svg version="1.1" viewBox="0 0 21000 29700" preserveAspectRatio="xMidYMid" fill-rule="evenodd" xmlns="http://www.w3.org/2000/svg" xmlns:xlink="http://www.w3.org/1999/xlink"><g visibility="visible" id="Default"><desc>Master slide</desc><g style="stroke:none;fill:none"><rect x="0" y="0" width="21000" height="29700"/></g></g><g visibility="visible" id="page1"><desc>Slide</desc><g><desc>Graphic</desc><g><g style="stroke:none;fill:rgb(51,51,51)"><path d="M 8716,10861 L 8716,10861 C 8727,10830 8739,10799 8753,10769 8792,10679 8845,10604 8910,10542 L 8910,10542 10257,13955 10267,13976 10267,13976 C 10343,14199 10433,14458 10538,14756 L 10538,14756 10638,14780 10253,13743 10253,13743 C 9842,12597 9400,11470 8927,10358 8522,10821 8342,11481 8388,12334 8426,13027 8717,13735 9257,14456 L 9461,14504 9461,14504 C 9169,14132 8954,13783 8815,13457 8610,12978 8514,12716 8525,12670 8536,12622 8550,12543 8567,12432 8569,12416 8570,12398 8573,12378 8583,12262 8584,12086 8576,11850 8575,11833 8575,11813 8574,11795 8572,11675 8577,11555 8587,11436 8589,11406 8591,11378 8596,11350 8617,11181 8656,11019 8716,10861 Z"/><path d="M 11367,16684 L 11367,16684 C 11356,16678 11351,16674 11350,16668 11288,16478 11229,16327 11175,16215 11146,16155 11117,16108 11091,16070 11084,16045 11077,16021 11070,15997 11060,15968 11053,15941 11047,15913 L 11037,15878 11037,15878 C 11015,15811 10991,15742 10969,15673 10965,15661 10960,15649 10958,15637 L 10958,15637 10638,14780 10538,14756 10538,14756 C 10596,14920 10658,15095 10725,15281 10723,15311 10746,15406 10790,15567 10838,15742 10876,15851 10901,15892 10914,15916 10927,15940 10934,15965 10951,16019 10951,16072 10932,16126 10928,16136 10923,16145 10920,16155 10911,16174 10901,16193 10889,16211 10868,16206 10847,16201 10826,16198 10786,16190 10743,16183 10704,16177 10702,16176 10700,16175 10702,16174 L 10702,16174 10611,16039 10565,15993 10565,15993 C 10540,15966 10515,15928 10492,15878 10470,15832 10459,15803 10466,15796 10390,15657 10306,15523 10211,15392 10121,15268 10022,15147 9914,15031 9746,14850 9594,14674 9461,14504 L 9257,14456 9257,14456 C 9381,14619 9518,14785 9668,14951 L 9668,14951 10394,15969 10414,15985 10414,15985 C 10463,16054 10516,16138 10571,16234 10591,16266 10610,16301 10630,16336 10695,16451 10762,16580 10836,16727 10839,16736 10844,16745 10847,16754 10860,16785 10871,16817 10881,16847 L 11022,16880 11022,16880 C 10982,16767 10940,16654 10898,16538 10895,16529 10890,16520 10887,16511 10859,16448 10834,16387 10807,16325 10805,16319 10805,16313 10808,16307 10852,16294 10897,16283 10943,16272 10950,16270 10955,16269 10961,16268 L 10961,16267 10961,16267 C 10961,16267 10961,16267 10963,16267 10983,16260 11004,16254 11025,16251 11029,16247 11038,16248 11050,16252 11118,16486 11191,16714 11267,16937 L 11362,16960 11362,16960 C 11332,16898 11357,16834 11441,16769 11445,16765 11451,16757 11455,16743 11504,16717 11550,16693 11596,16669 11794,16574 11991,16512 12187,16485 12524,16438 12859,16490 13194,16642 13203,16642 13215,16645 13228,16650 13290,16759 13331,16926 13350,17146 13352,17257 13353,17351 13353,17427 L 13536,17469 13536,17469 C 13536,17439 13534,17410 13530,17381 13518,16964 13426,16691 13257,16562 13239,16558 13227,16556 13218,16554 12868,16428 12530,16380 12204,16413 12005,16432 11811,16481 11623,16559 11536,16594 11452,16635 11367,16684 Z M 10917,15781 L 10917,15781 C 10915,15777 10912,15773 10910,15768 10910,15766 10910,15766 10911,15767 10912,15772 10915,15776 10917,15781 Z"/><path d="M 12065,16995 L 12065,16995 C 12101,16985 12136,16977 12170,16971 12431,16830 12681,16808 12918,16906 12946,17061 12960,17203 12959,17334 L 13027,17350 13027,17350 C 13032,17210 13021,17063 12999,16905 12998,16903 12993,16902 12982,16897 12815,16771 12643,16710 12471,16716 12351,16719 12229,16756 12107,16824 12044,16859 11981,16902 11914,16954 11901,16956 11890,16960 11877,16962 11830,17001 11780,17028 11722,17044 L 11829,17069 11829,17069 C 11911,17040 11990,17014 12065,16995 Z"/><path d="M 11022,16880 L 10881,16847 10881,16847 C 10983,17111 11081,17369 11176,17622 11223,17752 11271,17878 11321,18003 11435,18309 11545,18605 11652,18892 11678,18929 11702,18967 11728,19000 L 11902,19094 11902,19094 C 11936,19101 12006,19107 12115,19119 12121,19115 12131,19116 12143,19122 12273,19099 12381,19050 12470,18977 12801,18720 13101,18393 13367,18000 13482,17807 13539,17629 13536,17469 L 13353,17427 13353,17427 C 13353,17497 13350,17550 13346,17584 13292,17816 13194,18022 13054,18205 12787,18522 12472,18795 12115,19022 12106,19029 12099,19034 12101,19042 12003,19040 11938,19023 11902,18993 11898,18990 11891,18988 11880,18988 11844,18937 11810,18889 11775,18841 11772,18834 11764,18833 11754,18835 11655,18573 11554,18306 11454,18034 11404,17909 11358,17781 11310,17654 11234,17453 11159,17250 11084,17044 11062,16990 11042,16934 11022,16880 Z"/><path d="M 13027,17350 L 12959,17334 12959,17334 C 12960,17611 12895,17831 12769,17996 12624,18169 12428,18344 12183,18523 12056,18418 11984,18298 11970,18164 11966,18016 11939,17876 11889,17740 11818,17543 11701,17359 11539,17188 11640,17142 11736,17102 11829,17069 L 11722,17044 11722,17044 C 11657,17062 11584,17067 11506,17054 11476,17049 11447,17042 11416,17033 L 11414,17033 11414,17033 C 11408,17026 11408,17022 11410,17019 11410,17017 11410,17017 11412,17018 11401,17009 11393,17002 11387,16996 11385,16993 11385,16993 11383,16993 L 11385,16993 11385,16993 C 11375,16982 11367,16970 11362,16960 L 11267,16937 11267,16937 C 11276,16960 11284,16984 11293,17009 L 11295,17009 11295,17009 C 11348,17098 11400,17190 11452,17281 11585,17523 11708,17771 11820,18029 11896,18202 11965,18378 12029,18558 12028,18560 12035,18566 12051,18575 12140,18592 12214,18584 12273,18550 12275,18543 12283,18543 12298,18551 12588,18401 12794,18192 12911,17920 12928,17878 12945,17835 12960,17791 13000,17657 13025,17509 13027,17350 Z"/></g><g style="stroke:none;fill:rgb(255,0,0)"><path d="M 13228,16650 L 13228,16650 C 13215,16645 13203,16642 13194,16642 12859,16490 12524,16438 12187,16485 11991,16512 11794,16574 11596,16669 11550,16693 11504,16717 11455,16743 11451,16757 11445,16765 11441,16769 11344,16847 11324,16921 11385,16993 11385,16993 11385,16993 11387,16996 11393,17002 11401,17009 11412,17018 11410,17017 11410,17017 11410,17019 11411,17021 11414,17024 11417,17025 11415,17028 11414,17031 11416,17033 11447,17042 11476,17049 11506,17054 11651,17077 11776,17046 11877,16962 11890,16960 11901,16956 11914,16954 11981,16902 12044,16859 12107,16824 12229,16756 12351,16719 12471,16716 12643,16710 12815,16771 12982,16897 12993,16902 12998,16903 12999,16905 13051,17245 13037,17541 12960,17791 12945,17835 12928,17878 12911,17920 12794,18192 12588,18401 12298,18551 12283,18543 12275,18543 12273,18550 L 12273,18550 C 12214,18584 12140,18592 12051,18575 12035,18566 12028,18560 12029,18558 11965,18378 11896,18202 11820,18029 11708,17771 11585,17523 11452,17281 11400,17190 11348,17098 11295,17009 L 11293,17009 11293,17009 C 11207,16765 11125,16510 11050,16252 11038,16248 11029,16247 11025,16251 11004,16254 10983,16260 10963,16267 10961,16267 10961,16267 10961,16267 L 10961,16268 10961,16268 C 10955,16269 10950,16270 10943,16272 10897,16283 10852,16294 10808,16307 10805,16313 10805,16319 10807,16325 10834,16387 10859,16448 10887,16511 10890,16520 10895,16529 10898,16538 10960,16708 11022,16877 11084,17044 11159,17250 11234,17453 11310,17654 11358,17781 11404,17909 11454,18034 11554,18306 11655,18573 11754,18835 11764,18833 11772,18834 11775,18841 11810,18889 11844,18937 11880,18988 11891,18988 11898,18990 11902,18993 11938,19023 12003,19040 12101,19042 12099,19034 12106,19029 12115,19022 12472,18795 12787,18522 13054,18205 13194,18022 13292,17816 13346,17584 13353,17513 13355,17367 13350,17146 13331,16926 13290,16759 13228,16650 Z"/></g><g style="stroke:none;fill:rgb(255,255,255)"><path d="M 10911,15767 L 10911,15767 C 10910,15766 10910,15766 10910,15768 10912,15773 10915,15777 10917,15781 10915,15776 10912,15772 10911,15767 Z"/></g><g style="stroke:none;fill:rgb(202,202,202)"><path d="M 10934,15965 L 10934,15965 C 10927,15940 10914,15916 10901,15892 10876,15851 10838,15742 10790,15567 10746,15406 10723,15311 10725,15281 10538,14756 10384,14322 10267,13976 L 10267,13976 10261,13976 10255,13954 10257,13955 8910,10542 8910,10542 C 8845,10604 8792,10679 8753,10769 8739,10799 8727,10830 8716,10861 L 10932,16126 10932,16126 C 10951,16072 10951,16019 10934,15965 Z"/></g><g style="stroke:none;fill:rgb(130,130,130)"><path d="M 10267,13976 L 10267,13976 10257,13955 10255,13954 10267,13976 Z"/></g><g style="stroke:none;fill:rgb(156,156,156)"><path d="M 10492,15878 L 10492,15878 C 10515,15928 10540,15966 10565,15993 L 10565,15993 10611,16039 10702,16174 8574,11795 8574,11795 C 8575,11813 8575,11833 8576,11850 8584,12086 8583,12262 8573,12378 L 10211,15392 10211,15392 C 10306,15523 10390,15657 10466,15796 10459,15803 10470,15832 10492,15878 Z"/></g><g style="stroke:none;fill:rgb(124,124,124)"><path d="M 8573,12378 L 8573,12378 C 8570,12398 8569,12416 8567,12432 8550,12543 8536,12622 8525,12670 8514,12716 8610,12978 8815,13457 9019,13936 9385,14460 9914,15031 10022,15147 10121,15268 10211,15392 L 8573,12378 Z"/></g><g style="stroke:none;fill:rgb(184,184,184)"><path d="M 10558,15273 L 10558,15273 C 10577,15304 10582,15336 10574,15369 10566,15403 10548,15429 10517,15446 10506,15452 10496,15458 10486,15460 L 10826,16198 10826,16198 C 10847,16201 10868,16206 10889,16211 10901,16193 10911,16174 10920,16155 10923,16145 10928,16136 10932,16126 L 8716,10861 8716,10861 C 8656,11019 8617,11181 8596,11350 L 10379,15228 10379,15228 C 10408,15213 10439,15208 10475,15217 10511,15225 10537,15244 10558,15273 Z"/></g><g style="stroke:none;fill:rgb(255,255,255)"><path d="M 10574,15369 L 10574,15369 C 10582,15336 10577,15304 10558,15273 10537,15244 10511,15225 10475,15217 10439,15208 10408,15213 10379,15228 10377,15230 10377,15230 10375,15230 10343,15249 10324,15275 10316,15308 10308,15342 10314,15374 10334,15403 10354,15434 10380,15453 10416,15462 10440,15467 10465,15466 10486,15460 10496,15458 10506,15452 10517,15446 10548,15429 10566,15403 10574,15369 Z"/></g><g style="stroke:none;fill:rgb(166,166,166)"><path d="M 10702,16174 L 10702,16174 C 10700,16175 10702,16176 10704,16177 10743,16183 10786,16190 10826,16198 L 10486,15460 10486,15460 C 10465,15466 10440,15467 10416,15462 10380,15453 10354,15434 10334,15403 10314,15374 10308,15342 10316,15308 10324,15275 10343,15249 10375,15230 10377,15230 10377,15230 10379,15228 L 8596,11350 8596,11350 C 8591,11378 8589,11406 8587,11436 8577,11555 8572,11675 8574,11795 L 10702,16174 Z"/></g><g style="stroke:rgb(0,0,0);stroke-width:33;stroke-linejoin:round;fill:rgb(255,255,255)"><path style="fill:none" d="M 10558,15273 L 10558,15273 C 10537,15244 10511,15225 10475,15217 10439,15208 10408,15213 10379,15228 10377,15230 10377,15230 10375,15230 10343,15249 10324,15275 10316,15308 10308,15342 10314,15374 10334,15403 10354,15434 10380,15453 10416,15462 10440,15467 10465,15466 10486,15460 10496,15458 10506,15452 10517,15446 10548,15429 10566,15403 10574,15369 10582,15336 10577,15304 10558,15273"/></g><g style="stroke:none;fill:rgb(102,102,102)"><path d="M 11773,10377 L 11773,10377 C 11734,10484 11697,10592 11659,10700 11608,10846 11554,10995 11504,11145 11502,11150 11499,11158 11498,11164 11200,12047 10894,12926 10585,13805 10548,13908 10511,14013 10475,14116 L 10019,15406 10019,15406 C 9988,15482 9956,15564 9922,15648 9861,15813 9794,15994 9725,16190 9719,16186 9709,16185 9700,16182 9237,15933 8529,16054 7573,16545 7578,16554 7578,16565 7571,16580 7518,16886 7517,17184 7566,17470 7609,17660 7652,17865 7694,18085 7693,18090 7695,18099 7698,18111 7791,18422 7939,18666 8141,18843 8153,18840 8157,18848 8154,18864 8222,18876 8288,18892 8354,18913 8359,18912 8363,18917 8368,18929 8513,18926 8672,18909 8842,18875 8862,18865 8875,18862 8885,18866 9067,18720 9201,18577 9291,18434 9293,18425 9301,18420 9314,18420 9564,17617 9856,16984 10190,16519 10255,16405 10326,16291 10398,16179 L 10398,16179 10647,15821 10726,15655 10726,15655 C 10725,15655 10725,15655 10725,15653 10904,15388 10996,15254 10997,15250 11208,14876 11334,14665 11376,14614 11374,14607 11373,14599 11377,14593 11651,14157 11865,13784 12025,13475 12163,13207 12257,12986 12307,12816 12323,12764 12334,12711 12342,12656 12433,12110 12243,11350 11773,10377 Z M 9942,15954 L 9942,15954 C 9962,15967 9981,15982 10001,15995 10024,16013 10046,16030 10068,16047 10102,16072 10137,16098 10170,16123 10165,16121 10188,16141 10241,16184 10207,16181 10050,16459 9770,17019 9508,17545 9257,18072 9022,18602 9018,18609 9016,18617 9017,18629 8915,18727 8768,18813 8575,18887 8565,18887 8552,18892 8536,18901 8023,18642 7722,18138 7636,17392 7638,17380 7637,17372 7632,17366 7602,17145 7650,16895 7776,16621 L 7776,16621 7747,16626 7737,16611 7737,16611 C 8661,16120 9297,16011 9645,16285 9653,16285 9661,16286 9667,16289 9661,16444 9624,16578 9557,16696 9554,16697 9550,16701 9541,16703 9254,16500 8736,16483 7987,16654 L 7853,16964 7853,16964 C 7870,17486 7992,17962 8215,18392 8219,18398 8223,18405 8223,18417 8383,18470 8564,18494 8770,18484 8782,18482 8796,18479 8811,18476 9362,17499 9725,16680 9903,16018 9908,15995 9914,15975 9919,15955 9919,15943 9920,15937 9918,15935 9926,15942 9935,15948 9942,15954 Z M 11802,10668 L 11802,10668 C 11832,10747 11872,10853 11919,10982 11967,11110 12013,11258 12060,11422 12065,11447 12071,11471 12077,11495 12099,11583 12120,11669 12137,11752 12141,11772 12145,11790 12149,11811 12177,11969 12195,12122 12202,12266 12216,12642 12153,12963 12012,13229 12002,13249 11992,13267 11982,13286 11785,13656 11613,13966 11468,14216 11468,14219 11463,14221 11454,14223 11284,14570 11101,14898 10905,15209 10877,15254 10848,15300 10819,15345 10758,15436 10697,15525 10637,15614 10619,15640 10602,15662 10584,15687 10525,15771 10465,15854 10401,15936 L 10399,15936 10399,15936 C 10391,15946 10383,15958 10375,15969 10358,15993 10350,16032 10348,16091 10325,16052 10296,16019 10259,15995 10232,15977 10202,15963 10166,15954 L 10058,15942 10058,15942 C 10025,15935 9998,15907 9977,15857 9975,15852 9974,15846 9971,15841 9987,15777 10001,15716 10016,15660 10032,15596 10046,15532 10059,15469 L 10057,15479 10057,15479 C 10125,15384 10165,15314 10179,15270 10185,15256 10189,15242 10195,15228 10312,14891 10420,14584 10518,14303 10556,14194 10592,14092 10628,13992 10795,13521 10929,13144 11032,12858 11233,12303 11405,11814 11549,11390 11638,11126 11716,10886 11783,10672 11785,10662 11787,10652 11791,10643 11794,10652 11798,10661 11802,10668 Z M 9478,16757 L 9478,16757 C 9480,16759 9488,16761 9500,16761 9395,17240 9156,17785 8781,18395 8782,18400 8774,18405 8756,18410 8617,18419 8504,18403 8417,18361 8410,18355 8398,18354 8382,18363 8152,18172 8022,17873 7994,17470 7991,17459 7990,17451 7989,17447 7983,17240 8010,17012 8068,16764 8075,16750 8075,16738 8070,16731 8774,16569 9243,16578 9478,16757 Z"/></g><g style="stroke:none;fill:rgb(255,0,0)"><path d="M 10001,15995 L 10001,15995 C 9981,15982 9962,15967 9942,15954 9935,15948 9926,15942 9918,15935 9920,15937 9919,15943 9919,15955 9914,15975 9908,15995 9903,16018 9725,16680 9362,17499 8811,18476 8796,18479 8782,18482 8770,18484 8564,18494 8383,18470 8223,18417 8223,18405 8219,18398 8215,18392 7992,17962 7870,17486 7853,16964 L 7987,16654 7987,16654 C 8736,16483 9254,16500 9541,16703 9550,16701 9554,16697 9557,16696 9624,16578 9661,16444 9667,16289 9661,16286 9653,16285 9645,16285 9297,16011 8661,16120 7737,16611 L 7737,16611 7747,16626 7776,16621 7776,16621 C 7650,16895 7602,17145 7632,17366 7637,17372 7638,17380 7636,17392 7722,18138 8023,18642 8536,18901 8552,18892 8565,18887 8575,18887 8768,18813 8915,18727 9017,18629 9016,18617 9018,18609 9022,18602 9257,18072 9508,17545 9770,17019 10050,16459 10207,16181 10241,16184 10188,16141 10165,16121 10170,16123 10137,16098 10102,16072 10068,16047 10046,16030 10024,16013 10001,15995 Z"/></g><g style="stroke:none;fill:rgb(51,51,51)"><path d="M 10617,15207 L 10617,15207 C 10599,15141 10564,15111 10517,15114 10476,15115 10422,15141 10358,15192 10346,15201 10334,15212 10321,15222 10320,15222 10318,15223 10317,15225 10317,15226 10317,15228 10318,15229 10319,15235 10321,15242 10322,15249 10340,15317 10366,15363 10400,15392 10432,15419 10473,15427 10520,15420 10541,15417 10562,15409 10587,15398 10600,15392 10616,15386 10630,15377 10628,15370 10628,15362 10628,15354 10631,15294 10626,15245 10617,15207 Z M 10459,15355 L 10456,15343 10456,15343 C 10557,15329 10558,15333 10459,15355 Z M 10477,15210 L 10477,15210 C 10471,15209 10463,15208 10456,15207 10454,15207 10451,15202 10449,15195 10463,15196 10471,15198 10482,15201 10538,15209 10538,15212 10477,15210 Z"/></g><g style="stroke:none;fill:rgb(255,255,255)"><path d="M 10456,15343 L 10459,15355 10459,15355 C 10558,15333 10557,15329 10456,15343 Z"/></g><g style="stroke:none;fill:rgb(99,99,99)"><path d="M 10477,15210 L 10477,15210 C 10496,15210 10508,15210 10517,15210 10526,15209 10525,15208 10519,15207 10513,15205 10500,15203 10482,15201 L 10477,15210 Z"/></g><g style="stroke:none;fill:rgb(255,255,255)"><path d="M 10477,15210 L 10482,15201 10482,15201 C 10471,15198 10463,15196 10449,15195 10451,15202 10454,15207 10456,15207 10463,15208 10471,15209 10477,15210 Z"/></g><g style="stroke:none;fill:rgb(148,148,148)"><path d="M 12137,11752 L 12137,11752 C 12120,11669 12099,11583 12077,11495 12071,11471 12065,11447 12060,11422 L 10517,15114 10517,15114 C 10564,15111 10599,15141 10617,15207 L 12149,11811 12149,11811 C 12145,11790 12141,11772 12137,11752 Z"/></g><g style="stroke:none;fill:rgb(168,168,168)"><path d="M 12060,11422 L 12060,11422 C 12013,11258 11967,11110 11919,10982 L 10321,15222 10321,15222 C 10334,15212 10346,15201 10358,15192 10422,15141 10476,15115 10517,15114 L 12060,11422 Z"/></g><g style="stroke:none;fill:rgb(117,117,117)"><path d="M 11982,13286 L 11982,13286 C 11992,13267 12002,13249 12012,13229 12153,12963 12216,12642 12202,12266 L 10401,15936 10401,15936 C 10465,15854 10525,15771 10584,15687 10602,15662 10619,15640 10637,15614 10697,15525 10758,15436 10819,15345 10848,15300 10877,15254 10905,15209 11101,14898 11284,14570 11454,14223 11463,14221 11468,14219 11468,14216 11613,13966 11785,13656 11982,13286 Z"/></g><g style="stroke:none;fill:rgb(131,131,131)"><path d="M 12202,12266 L 12202,12266 C 12195,12122 12177,11969 12149,11811 L 10617,15207 10617,15207 C 10626,15245 10631,15294 10628,15354 10628,15362 10628,15370 10630,15377 10616,15386 10600,15392 10587,15398 10562,15409 10541,15417 10520,15420 L 10259,15995 10259,15995 C 10296,16019 10325,16052 10348,16091 10350,16032 10358,15993 10375,15969 10383,15958 10391,15946 10399,15936 L 10399,15936 10401,15936 12202,12266 Z"/></g><g style="stroke:none;fill:rgb(168,168,168)"><path d="M 10322,15249 L 10322,15249 C 10321,15242 10319,15235 10318,15229 L 10318,15229 10058,15942 10166,15954 10400,15392 10400,15392 C 10366,15363 10340,15317 10322,15249 Z"/></g><g style="stroke:none;fill:rgb(148,148,148)"><path d="M 10166,15954 L 10166,15954 C 10202,15963 10232,15977 10259,15995 L 10520,15420 10520,15420 C 10473,15427 10432,15419 10400,15392 L 10166,15954 Z"/></g><g style="stroke:none;fill:rgb(180,180,180)"><path d="M 11919,10982 L 11919,10982 C 11872,10853 11832,10747 11802,10668 11798,10661 11794,10652 11791,10643 11787,10652 11785,10662 11783,10672 11716,10886 11638,11126 11549,11390 11405,11814 11233,12303 11032,12858 10929,13144 10795,13521 10628,13992 10592,14092 10556,14194 10518,14303 10420,14584 10312,14891 10195,15228 10189,15242 10185,15256 10179,15270 10165,15314 10125,15384 10057,15479 L 10059,15469 10059,15469 C 10046,15532 10032,15596 10016,15660 10001,15716 9987,15777 9971,15841 9974,15846 9975,15852 9977,15857 9998,15907 10025,15935 10058,15942 L 10318,15229 10318,15229 C 10317,15228 10317,15226 10317,15225 10318,15223 10320,15222 10321,15222 L 11919,10982 Z"/></g></g></g></g></svg>