<?xml version="1.0" encoding="UTF-8"?>
<!DOCTYPE svg PUBLIC "-//W3C//DTD SVG 1.1//EN" "http://www.w3.org/Graphics/SVG/1.1/DTD/svg11.dtd"><svg version="1.1" viewBox="0 0 21000 29700" preserveAspectRatio="xMidYMid" fill-rule="evenodd" xmlns="http://www.w3.org/2000/svg" xmlns:xlink="http://www.w3.org/1999/xlink"><g visibility="visible" id="Default"><desc>Master slide</desc><g style="stroke:none;fill:none"><rect x="0" y="0" width="21000" height="29700"/></g></g><g visibility="visible" id="page1"><desc>Slide</desc><g><desc>Graphic</desc><g><g style="stroke:none;fill:rgb(51,51,51)"><path d="M 7723,10900 L 7723,10900 C 7726,10863 7732,10826 7737,10789 7754,10681 7788,10586 7838,10501 L 7838,10501 9940,13879 9956,13900 9956,13900 C 10081,14124 10228,14383 10400,14682 L 10400,14682 10504,14682 9888,13650 9888,13650 C 9222,12505 8530,11388 7812,10297 7524,10905 7501,11671 7744,12590 7941,13336 8388,14034 9082,14682 L 9291,14682 9291,14682 C 8920,14352 8631,14025 8420,13706 8109,13235 7955,12974 7955,12921 7955,12867 7949,12777 7941,12651 7939,12632 7935,12613 7934,12590 7918,12461 7877,12269 7815,12015 7809,11995 7806,11974 7800,11955 7770,11824 7747,11692 7730,11560 7724,11526 7721,11494 7719,11463 7700,11274 7700,11087 7723,10900 Z"/><path d="M 11655,16572 L 11655,16572 C 11643,16569 11636,16565 11634,16560 11529,16368 11436,16218 11359,16110 11316,16052 11278,16008 11243,15974 11231,15948 11218,15923 11206,15899 11190,15870 11176,15842 11164,15814 L 11146,15779 11146,15779 C 11108,15710 11069,15641 11032,15572 11025,15560 11018,15548 11013,15535 L 11013,15535 10504,14682 10400,14682 10400,14682 C 10495,14846 10595,15020 10704,15205 10709,15239 10753,15338 10834,15502 10920,15680 10983,15789 11016,15828 11036,15851 11053,15874 11066,15899 11094,15953 11106,16011 11101,16075 11099,16087 11098,16098 11096,16110 11092,16133 11087,16156 11078,16179 11057,16179 11036,16179 11015,16181 10974,16183 10931,16186 10890,16190 10888,16188 10887,16188 10888,16186 L 10888,16186 10767,16063 10713,16024 10713,16024 C 10683,16001 10649,15966 10616,15918 10581,15872 10565,15844 10571,15835 10465,15703 10351,15578 10228,15459 10111,15347 9987,15241 9856,15142 9650,14987 9462,14833 9291,14682 L 9082,14682 9082,14682 C 9240,14828 9412,14974 9596,15117 L 9596,15117 10541,16041 10564,16054 10564,16054 C 10628,16117 10699,16195 10774,16285 10802,16315 10828,16348 10855,16382 10946,16489 11041,16615 11146,16756 11151,16765 11158,16773 11164,16782 11183,16812 11201,16844 11218,16874 L 11364,16874 11364,16874 C 11299,16761 11231,16648 11164,16534 11158,16525 11151,16516 11146,16507 11105,16445 11066,16385 11025,16324 11022,16318 11020,16311 11022,16304 11062,16280 11103,16255 11146,16232 11151,16228 11157,16225 11162,16223 L 11162,16221 11162,16221 C 11162,16221 11162,16221 11164,16221 11181,16209 11201,16197 11220,16188 11224,16183 11233,16181 11245,16183 11366,16421 11490,16650 11617,16874 L 11714,16874 11714,16874 C 11669,16814 11680,16738 11745,16646 11749,16641 11752,16631 11754,16615 11796,16574 11835,16535 11875,16498 12045,16343 12223,16225 12407,16146 12725,16008 13064,15980 13427,16059 13435,16057 13448,16057 13462,16059 13547,16163 13625,16334 13694,16569 13722,16691 13745,16793 13764,16874 L 13952,16874 13952,16874 C 13945,16840 13936,16811 13925,16781 13817,16327 13664,16054 13469,15957 13451,15957 13439,15957 13430,15957 13059,15909 12718,15944 12407,16063 12217,16135 12040,16237 11875,16371 11799,16431 11726,16498 11655,16572 Z M 11008,15703 L 11008,15703 C 11004,15699 11000,15696 10997,15690 10997,15689 10997,15689 10999,15689 11000,15694 11004,15698 11008,15703 Z"/><path d="M 12407,16733 L 12407,16733 C 12440,16714 12472,16696 12503,16680 12725,16460 12965,16371 13218,16419 13281,16579 13327,16731 13357,16874 L 13428,16874 13428,16874 C 13399,16721 13355,16562 13297,16396 13295,16394 13290,16394 13279,16392 13085,16297 12904,16274 12737,16325 12623,16359 12512,16430 12407,16535 12354,16590 12303,16654 12251,16728 12239,16733 12228,16740 12216,16745 12179,16800 12136,16842 12084,16874 L 12195,16874 12195,16874 C 12268,16821 12338,16773 12407,16733 Z"/><path d="M 11364,16874 L 11218,16874 11218,16874 C 11378,17137 11534,17393 11685,17645 11761,17774 11838,17899 11914,18024 12097,18327 12273,18622 12444,18908 12477,18943 12509,18977 12542,19006 L 12734,19065 12734,19065 C 12768,19063 12839,19052 12947,19036 12953,19031 12962,19029 12976,19033 13097,18975 13190,18894 13260,18791 13524,18426 13740,17994 13908,17497 13976,17257 13991,17049 13952,16874 L 13764,16874 13764,16874 C 13780,16952 13788,17010 13792,17049 13794,17315 13745,17565 13652,17800 13464,18215 13220,18592 12924,18932 12916,18941 12913,18948 12915,18957 12819,18980 12751,18978 12711,18954 12706,18952 12698,18952 12688,18954 12640,18908 12596,18864 12551,18821 12546,18814 12539,18814 12530,18820 12372,18558 12212,18294 12051,18024 11975,17899 11900,17772 11824,17645 11703,17445 11582,17243 11462,17038 11428,16983 11396,16929 11364,16874 Z"/><path d="M 13428,16874 L 13357,16874 13357,16874 C 13421,17176 13410,17433 13325,17645 13224,17871 13073,18112 12876,18370 12727,18289 12630,18176 12585,18033 12546,17872 12488,17726 12407,17590 12293,17394 12136,17223 11940,17079 12026,17003 12112,16934 12195,16874 L 12084,16874 12084,16874 C 12024,16911 11955,16934 11875,16941 11845,16943 11815,16943 11783,16941 L 11782,16941 11782,16941 C 11775,16936 11773,16930 11775,16927 11775,16925 11775,16925 11776,16925 11763,16918 11754,16913 11745,16908 11744,16906 11744,16906 11742,16906 L 11744,16906 11744,16906 C 11731,16895 11721,16885 11714,16874 L 11617,16874 11617,16874 C 11629,16897 11643,16922 11657,16946 L 11659,16946 11659,16946 C 11731,17029 11805,17116 11875,17202 12061,17431 12239,17671 12407,17923 12521,18093 12630,18267 12734,18447 12732,18449 12741,18454 12758,18460 12849,18456 12920,18428 12969,18377 12970,18368 12977,18366 12993,18372 13243,18133 13394,17853 13446,17527 13453,17475 13458,17424 13464,17373 13473,17216 13462,17049 13428,16874 Z"/></g><g style="stroke:none;fill:rgb(255,0,0)"><path d="M 13462,16059 L 13462,16059 C 13448,16057 13435,16057 13427,16059 13064,15980 12725,16008 12407,16146 12223,16225 12045,16343 11875,16498 11835,16535 11796,16574 11754,16615 11752,16631 11749,16641 11745,16646 11669,16756 11668,16842 11744,16906 11744,16906 11744,16906 11745,16908 11754,16913 11763,16918 11776,16925 11775,16925 11775,16925 11775,16927 11776,16929 11780,16930 11783,16932 11782,16936 11782,16939 11783,16941 11815,16943 11845,16943 11875,16941 12022,16929 12136,16863 12216,16745 12228,16740 12239,16733 12251,16728 12303,16654 12354,16590 12407,16535 12512,16430 12623,16359 12737,16325 12904,16274 13085,16297 13279,16392 13290,16394 13295,16394 13297,16396 13427,16754 13481,17080 13464,17373 13458,17424 13453,17475 13446,17527 13394,17853 13243,18133 12993,18372 12977,18366 12970,18368 12969,18377 L 12969,18377 C 12920,18428 12849,18456 12758,18460 12741,18454 12732,18449 12734,18447 12630,18267 12521,18093 12407,17923 12239,17671 12061,17431 11875,17202 11805,17116 11731,17029 11659,16946 L 11657,16946 11657,16946 C 11517,16701 11378,16445 11245,16183 11233,16181 11224,16183 11220,16188 11201,16197 11181,16209 11164,16221 11162,16221 11162,16221 11162,16221 L 11162,16223 11162,16223 C 11157,16225 11151,16228 11146,16232 11103,16255 11062,16280 11022,16304 11020,16311 11022,16318 11025,16324 11066,16385 11105,16445 11146,16507 11151,16516 11158,16525 11164,16534 11263,16703 11362,16870 11462,17038 11582,17243 11703,17445 11824,17645 11900,17772 11975,17899 12051,18024 12212,18294 12372,18558 12530,18820 12539,18814 12546,18814 12551,18821 12596,18864 12640,18908 12688,18954 12698,18952 12706,18952 12711,18954 12751,18978 12819,18980 12915,18957 12913,18948 12916,18941 12924,18932 13220,18592 13464,18215 13652,17800 13745,17565 13794,17315 13792,17049 13783,16969 13751,16809 13694,16569 13625,16334 13547,16163 13462,16059 Z"/></g><g style="stroke:none;fill:rgb(255,255,255)"><path d="M 10999,15689 L 10999,15689 C 10997,15689 10997,15689 10997,15690 11000,15696 11004,15699 11008,15703 11004,15698 11000,15694 10999,15689 Z"/></g><g style="stroke:none;fill:rgb(202,202,202)"><path d="M 11066,15899 L 11066,15899 C 11053,15874 11036,15851 11016,15828 10983,15789 10920,15680 10834,15502 10753,15338 10709,15239 10704,15205 10400,14682 10151,14248 9956,13900 L 9956,13900 9949,13902 9939,13879 9940,13879 7838,10501 7838,10501 C 7788,10586 7754,10681 7737,10789 7732,10826 7726,10863 7723,10900 L 11101,16075 11101,16075 C 11106,16011 11094,15953 11066,15899 Z"/></g><g style="stroke:none;fill:rgb(130,130,130)"><path d="M 9956,13900 L 9956,13900 9940,13879 9939,13879 9956,13900 Z"/></g><g style="stroke:none;fill:rgb(156,156,156)"><path d="M 10616,15918 L 10616,15918 C 10649,15966 10683,16001 10713,16024 L 10713,16024 10767,16063 10888,16186 7800,11955 7800,11955 C 7806,11974 7809,11995 7815,12015 7877,12269 7918,12461 7934,12590 L 10228,15459 10228,15459 C 10351,15578 10465,15703 10571,15835 10565,15844 10581,15872 10616,15918 Z"/></g><g style="stroke:none;fill:rgb(124,124,124)"><path d="M 7934,12590 L 7934,12590 C 7935,12613 7939,12632 7941,12651 7949,12777 7955,12867 7955,12921 7955,12974 8109,13235 8420,13706 8729,14175 9208,14653 9856,15142 9987,15241 10111,15347 10228,15459 L 7934,12590 Z"/></g><g style="stroke:none;fill:rgb(184,184,184)"><path d="M 10539,15241 L 10539,15241 C 10565,15269 10578,15302 10578,15341 10578,15380 10565,15414 10539,15440 10530,15449 10521,15458 10512,15463 L 11015,16181 11015,16181 C 11036,16179 11057,16179 11078,16179 11087,16156 11092,16133 11096,16110 11098,16098 11099,16087 11101,16075 L 7723,10900 7723,10900 C 7700,11087 7700,11274 7719,11463 L 10354,15237 10354,15237 C 10379,15212 10409,15200 10444,15200 10482,15200 10512,15214 10539,15241 Z"/></g><g style="stroke:none;fill:rgb(255,255,255)"><path d="M 10578,15341 L 10578,15341 C 10578,15302 10565,15269 10539,15241 10512,15214 10482,15200 10444,15200 10409,15200 10379,15212 10354,15237 10353,15239 10353,15239 10351,15241 10324,15269 10312,15302 10312,15341 10312,15380 10324,15414 10351,15440 10377,15468 10407,15482 10444,15482 10470,15482 10493,15475 10512,15463 10521,15458 10530,15449 10539,15440 10565,15414 10578,15380 10578,15341 Z"/></g><g style="stroke:none;fill:rgb(166,166,166)"><path d="M 10888,16186 L 10888,16186 C 10887,16188 10888,16188 10890,16190 10931,16186 10974,16183 11015,16181 L 10512,15463 10512,15463 C 10493,15475 10470,15482 10444,15482 10407,15482 10377,15468 10351,15440 10324,15414 10312,15380 10312,15341 10312,15302 10324,15269 10351,15241 10353,15239 10353,15239 10354,15237 L 7719,11463 7719,11463 C 7721,11494 7724,11526 7730,11560 7747,11692 7770,11824 7800,11955 L 10888,16186 Z"/></g><g style="stroke:rgb(0,0,0);stroke-width:35;stroke-linejoin:round;fill:rgb(255,255,255)"><path style="fill:none" d="M 10539,15241 L 10539,15241 C 10512,15214 10482,15200 10444,15200 10409,15200 10379,15212 10354,15237 10353,15239 10353,15239 10351,15241 10324,15269 10312,15302 10312,15341 10312,15380 10324,15414 10351,15440 10377,15468 10407,15482 10444,15482 10470,15482 10493,15475 10512,15463 10521,15458 10530,15449 10539,15440 10565,15414 10578,15380 10578,15341 10578,15302 10565,15269 10539,15241"/></g><g style="stroke:none;fill:rgb(102,102,102)"><path d="M 12865,10274 L 12865,10274 C 12804,10380 12743,10489 12681,10597 12598,10744 12512,10892 12428,11042 12425,11047 12421,11054 12418,11061 11926,11947 11429,12827 10927,13705 10869,13808 10809,13913 10750,14016 L 10012,15305 10012,15305 C 9964,15380 9914,15460 9863,15544 9765,15708 9659,15888 9547,16083 9542,16078 9533,16075 9524,16069 9124,15685 8400,15643 7350,15944 7354,15954 7350,15966 7340,15980 7219,16300 7152,16623 7135,16946 7135,17163 7131,17395 7123,17644 7121,17650 7121,17660 7121,17674 7144,18034 7235,18334 7393,18577 7405,18577 7407,18586 7401,18603 7465,18633 7528,18666 7586,18704 7591,18704 7595,18711 7596,18725 7740,18759 7900,18778 8076,18783 8097,18776 8111,18776 8120,18783 8332,18669 8497,18547 8617,18415 8620,18404 8629,18401 8642,18404 9068,17594 9498,16977 9930,16555 10021,16447 10114,16340 10211,16237 L 10211,16237 10537,15909 10653,15748 10653,15748 C 10651,15748 10651,15748 10651,15746 10887,15502 11008,15378 11009,15374 11301,15020 11473,14821 11524,14777 11524,14769 11526,14760 11531,14755 11898,14348 12193,13995 12418,13700 12616,13441 12757,13225 12844,13052 12871,13000 12894,12945 12915,12888 13127,12317 13111,11446 12865,10274 Z M 9813,15881 L 9813,15881 C 9829,15900 9845,15921 9861,15940 9881,15965 9898,15989 9916,16012 9944,16048 9973,16085 10000,16120 9994,16117 10014,16144 10056,16204 10023,16192 9806,16455 9405,16995 9029,17501 8665,18013 8314,18530 8309,18537 8304,18546 8302,18558 8181,18640 8017,18697 7809,18731 7800,18729 7786,18731 7769,18736 7322,18329 7138,17709 7222,16878 7228,16866 7228,16857 7224,16848 7243,16600 7347,16342 7533,16075 L 7533,16075 7503,16073 7498,16055 7498,16055 C 8516,15748 9166,15785 9445,16167 9454,16169 9462,16172 9468,16178 9426,16344 9361,16482 9268,16592 9264,16593 9259,16595 9250,16597 9015,16305 8509,16160 7732,16162 L 7531,16466 7531,16466 C 7431,17037 7444,17583 7566,18105 7570,18112 7572,18121 7570,18133 7714,18231 7888,18301 8093,18341 8106,18341 8120,18341 8134,18341 8896,17416 9437,16616 9760,15940 9770,15917 9781,15897 9791,15876 9794,15863 9796,15856 9794,15855 9801,15863 9808,15872 9813,15881 Z M 12828,10597 L 12828,10597 C 12841,10691 12856,10815 12874,10967 12892,11117 12904,11288 12913,11479 12913,11507 12913,11535 12915,11563 12916,11664 12916,11762 12915,11856 12915,11879 12915,11900 12913,11922 12906,12102 12890,12271 12864,12430 12795,12841 12660,13174 12461,13429 12447,13448 12433,13466 12418,13483 12142,13836 11903,14131 11705,14367 11703,14370 11698,14372 11689,14372 11444,14706 11190,15018 10927,15308 10890,15350 10851,15392 10813,15434 10732,15518 10653,15600 10572,15682 10549,15704 10528,15725 10505,15748 10427,15825 10349,15900 10269,15973 L 10267,15973 10267,15973 C 10256,15982 10246,15993 10235,16003 10214,16024 10196,16066 10182,16129 10168,16080 10147,16038 10116,16003 10093,15977 10067,15954 10033,15935 L 9930,15897 9930,15897 C 9898,15881 9879,15842 9870,15783 9868,15778 9868,15771 9866,15766 9896,15699 9925,15636 9951,15579 9982,15514 10010,15448 10037,15383 L 10033,15394 10033,15394 C 10121,15306 10175,15240 10200,15196 10209,15182 10216,15168 10225,15154 10414,14817 10590,14510 10750,14229 10813,14121 10871,14018 10927,13918 11197,13448 11415,13071 11580,12787 11903,12233 12182,11744 12418,11320 12565,11054 12695,10813 12809,10597 12814,10586 12818,10576 12823,10567 12825,10578 12826,10588 12828,10597 Z M 9176,16639 L 9176,16639 C 9178,16642 9185,16646 9197,16649 8987,17143 8629,17676 8123,18247 8123,18252 8114,18256 8095,18257 7957,18233 7849,18188 7772,18121 7767,18112 7756,18109 7739,18114 7554,17851 7494,17494 7556,17049 7556,17037 7556,17028 7556,17023 7596,16798 7675,16557 7788,16302 7797,16288 7800,16275 7797,16267 8527,16263 8987,16387 9176,16639 Z"/></g><g style="stroke:none;fill:rgb(255,0,0)"><path d="M 9861,15940 L 9861,15940 C 9845,15921 9829,15900 9813,15881 9808,15872 9801,15863 9794,15855 9796,15856 9794,15863 9791,15876 9781,15897 9770,15917 9760,15940 9437,16616 8896,17416 8134,18341 8120,18341 8106,18341 8093,18341 7888,18301 7714,18231 7570,18133 7572,18121 7570,18112 7566,18105 7444,17583 7431,17037 7531,16466 L 7732,16162 7732,16162 C 8509,16160 9015,16305 9250,16597 9259,16595 9264,16593 9268,16592 9361,16482 9426,16344 9468,16178 9462,16172 9454,16169 9445,16167 9166,15785 8516,15748 7498,16055 L 7498,16055 7503,16073 7533,16075 7533,16075 C 7347,16342 7243,16600 7224,16848 7228,16857 7228,16866 7222,16878 7138,17709 7322,18329 7769,18736 7786,18731 7800,18729 7809,18731 8017,18697 8181,18640 8302,18558 8304,18546 8309,18537 8314,18530 8665,18013 9029,17501 9405,16995 9806,16455 10023,16192 10056,16204 10014,16144 9994,16117 10000,16120 9973,16085 9944,16048 9916,16012 9898,15989 9881,15965 9861,15940 Z"/></g><g style="stroke:none;fill:rgb(51,51,51)"><path d="M 10644,15235 L 10644,15235 C 10642,15160 10616,15118 10567,15109 10527,15100 10468,15116 10393,15154 10379,15161 10365,15170 10351,15179 10349,15179 10347,15179 10346,15181 10346,15182 10346,15184 10346,15186 10346,15193 10346,15200 10346,15209 10347,15285 10363,15343 10390,15383 10416,15420 10454,15439 10502,15443 10523,15444 10546,15441 10572,15436 10587,15432 10602,15429 10619,15423 10619,15415 10621,15406 10623,15397 10639,15333 10646,15278 10644,15235 Z M 10456,15357 L 10456,15343 10456,15343 C 10558,15352 10558,15357 10456,15357 Z M 10507,15203 L 10507,15203 C 10500,15202 10493,15198 10486,15196 10484,15195 10482,15189 10482,15181 10495,15186 10504,15189 10512,15195 10567,15217 10565,15221 10507,15203 Z"/></g><g style="stroke:none;fill:rgb(255,255,255)"><path d="M 10456,15343 L 10456,15357 10456,15357 C 10558,15357 10558,15352 10456,15343 Z"/></g><g style="stroke:none;fill:rgb(99,99,99)"><path d="M 10507,15203 L 10507,15203 C 10525,15209 10537,15212 10546,15214 10555,15216 10555,15214 10548,15210 10542,15207 10530,15202 10512,15195 L 10507,15203 Z"/></g><g style="stroke:none;fill:rgb(255,255,255)"><path d="M 10507,15203 L 10512,15195 10512,15195 C 10504,15189 10495,15186 10482,15181 10482,15189 10484,15195 10486,15196 10493,15198 10500,15202 10507,15203 Z"/></g><g style="stroke:none;fill:rgb(148,148,148)"><path d="M 12915,11856 L 12915,11856 C 12916,11762 12916,11664 12915,11563 12913,11535 12913,11507 12913,11479 L 10567,15109 10567,15109 C 10616,15118 10642,15160 10644,15235 L 12913,11922 12913,11922 C 12915,11900 12915,11879 12915,11856 Z"/></g><g style="stroke:none;fill:rgb(168,168,168)"><path d="M 12913,11479 L 12913,11479 C 12904,11288 12892,11117 12874,10967 L 10351,15179 10351,15179 C 10365,15170 10379,15161 10393,15154 10468,15116 10527,15100 10567,15109 L 12913,11479 Z"/></g><g style="stroke:none;fill:rgb(117,117,117)"><path d="M 12418,13483 L 12418,13483 C 12433,13466 12447,13448 12461,13429 12660,13174 12795,12841 12864,12430 L 10269,15973 10269,15973 C 10349,15900 10427,15825 10505,15748 10528,15725 10549,15704 10572,15682 10653,15600 10732,15518 10813,15434 10851,15392 10890,15350 10927,15308 11190,15018 11444,14706 11689,14372 11698,14372 11703,14370 11705,14367 11903,14131 12142,13836 12418,13483 Z"/></g><g style="stroke:none;fill:rgb(131,131,131)"><path d="M 12864,12430 L 12864,12430 C 12890,12271 12906,12102 12913,11922 L 10644,15235 10644,15235 C 10646,15278 10639,15333 10623,15397 10621,15406 10619,15415 10619,15423 10602,15429 10587,15432 10572,15436 10546,15441 10523,15444 10502,15443 L 10116,16003 10116,16003 C 10147,16038 10168,16080 10182,16129 10196,16066 10214,16024 10235,16003 10246,15993 10256,15982 10267,15973 L 10267,15973 10269,15973 12864,12430 Z"/></g><g style="stroke:none;fill:rgb(168,168,168)"><path d="M 10346,15209 L 10346,15209 C 10346,15200 10346,15193 10346,15186 L 10346,15186 9930,15897 10033,15935 10390,15383 10390,15383 C 10363,15343 10347,15285 10346,15209 Z"/></g><g style="stroke:none;fill:rgb(148,148,148)"><path d="M 10033,15935 L 10033,15935 C 10067,15954 10093,15977 10116,16003 L 10502,15443 10502,15443 C 10454,15439 10416,15420 10390,15383 L 10033,15935 Z"/></g><g style="stroke:none;fill:rgb(180,180,180)"><path d="M 12874,10967 L 12874,10967 C 12856,10815 12841,10691 12828,10597 12826,10588 12825,10578 12823,10567 12818,10576 12814,10586 12809,10597 12695,10813 12565,11054 12418,11320 12182,11744 11903,12233 11580,12787 11415,13071 11197,13448 10927,13918 10871,14018 10813,14121 10750,14229 10590,14510 10414,14817 10225,15154 10216,15168 10209,15182 10200,15196 10175,15240 10121,15306 10033,15394 L 10037,15383 10037,15383 C 10010,15448 9982,15514 9951,15579 9925,15636 9896,15699 9866,15766 9868,15771 9868,15778 9870,15783 9879,15842 9898,15881 9930,15897 L 10346,15186 10346,15186 C 10346,15184 10346,15182 10346,15181 10347,15179 10349,15179 10351,15179 L 12874,10967 Z"/></g></g></g></g></svg>