<?xml version="1.0" encoding="UTF-8"?>
<!DOCTYPE svg PUBLIC "-//W3C//DTD SVG 1.1//EN" "http://www.w3.org/Graphics/SVG/1.1/DTD/svg11.dtd"><svg version="1.1" viewBox="0 0 21000 29700" preserveAspectRatio="xMidYMid" fill-rule="evenodd" xmlns="http://www.w3.org/2000/svg" xmlns:xlink="http://www.w3.org/1999/xlink"><g visibility="visible" id="Default"><desc>Master slide</desc><g style="stroke:none;fill:none"><rect x="0" y="0" width="21000" height="29700"/></g></g><g visibility="visible" id="page1"><desc>Slide</desc><g><desc>Graphic</desc><g><g style="stroke:none;fill:rgb(51,51,51)"><path d="M 7978,10872 L 7978,10872 C 7983,10836 7991,10801 7999,10765 8022,10662 8061,10571 8114,10492 L 8114,10492 10025,13892 10038,13914 10038,13914 C 10152,14138 10283,14398 10438,14698 L 10438,14698 10542,14704 9985,13666 9985,13666 C 9384,12516 8756,11393 8100,10291 7779,10866 7714,11609 7905,12515 8059,13251 8467,13955 9123,14623 L 9333,14635 9333,14635 C 8981,14293 8710,13960 8517,13638 8233,13163 8093,12900 8096,12849 8099,12796 8099,12708 8097,12587 8097,12568 8094,12548 8094,12526 8085,12400 8055,12211 8008,11961 8004,11941 8002,11921 7997,11902 7973,11773 7957,11644 7948,11514 7945,11481 7942,11450 7942,11419 7934,11235 7944,11053 7978,10872 Z"/><path d="M 11585,16605 L 11585,16605 C 11572,16601 11565,16597 11565,16592 11471,16399 11386,16249 11315,16139 11277,16081 11239,16036 11207,16001 11196,15975 11186,15950 11174,15925 11161,15897 11148,15869 11137,15840 L 11122,15805 11122,15805 C 11088,15736 11052,15668 11019,15599 11013,15586 11007,15574 11002,15562 L 11002,15562 10542,14704 10438,14698 10438,14698 C 10524,14862 10614,15037 10712,15223 10716,15256 10754,15355 10825,15518 10901,15696 10958,15806 10989,15846 11007,15869 11024,15893 11034,15918 11060,15972 11069,16029 11060,16091 11058,16102 11055,16112 11052,16124 11048,16147 11042,16169 11032,16190 11011,16189 10989,16188 10968,16189 10926,16188 10884,16189 10843,16190 10841,16189 10840,16188 10841,16187 L 10841,16187 10728,16060 10675,16019 10675,16019 C 10647,15995 10614,15959 10583,15911 10553,15864 10538,15836 10544,15828 10445,15694 10339,15565 10224,15443 10113,15327 9995,15217 9869,15114 9673,14951 9493,14792 9333,14635 L 9123,14623 9123,14623 C 9272,14774 9435,14926 9612,15075 L 9612,15075 10502,16026 10525,16039 10525,16039 C 10585,16105 10652,16184 10723,16276 10747,16307 10772,16341 10797,16375 10881,16485 10970,16611 11067,16754 11071,16763 11078,16772 11082,16781 11101,16811 11117,16843 11133,16873 L 11278,16881 11278,16881 C 11218,16768 11158,16655 11096,16539 11091,16531 11085,16521 11080,16513 11043,16451 11007,16391 10971,16328 10967,16322 10966,16316 10968,16309 11010,16287 11051,16266 11096,16245 11101,16242 11106,16240 11112,16238 L 11112,16236 11112,16236 C 11112,16236 11112,16236 11114,16236 11133,16225 11153,16214 11172,16207 11176,16203 11186,16201 11197,16204 11305,16442 11416,16672 11529,16896 L 11627,16901 11627,16901 C 11585,16841 11600,16767 11671,16682 11675,16677 11679,16667 11681,16652 11725,16615 11765,16579 11809,16545 11988,16404 12171,16300 12359,16234 12684,16117 13024,16109 13380,16207 13389,16206 13401,16206 13415,16209 13496,16315 13563,16485 13620,16717 13641,16837 13659,16937 13671,17017 L 13859,17028 13859,17028 C 13854,16996 13847,16965 13838,16935 13755,16489 13619,16215 13429,16110 13411,16109 13398,16108 13390,16107 13023,16040 12681,16055 12364,16153 12171,16212 11988,16302 11816,16422 11736,16476 11660,16537 11585,16605 Z M 10987,15724 L 10987,15724 C 10984,15720 10980,15717 10978,15712 10978,15710 10978,15710 10980,15710 10981,15715 10984,15718 10987,15724 Z"/><path d="M 12327,16804 L 12327,16804 C 12360,16786 12392,16771 12425,16758 12659,16555 12902,16484 13153,16544 13206,16704 13243,16854 13266,16994 L 13337,16998 13337,16998 C 13318,16848 13282,16691 13233,16527 13231,16525 13225,16524 13215,16522 13027,16419 12848,16387 12679,16426 12562,16453 12449,16514 12338,16612 12282,16661 12226,16721 12171,16790 12159,16794 12148,16800 12135,16805 12094,16856 12050,16894 11997,16922 L 12107,16928 12107,16928 C 12182,16882 12255,16839 12327,16804 Z"/><path d="M 11278,16881 L 11133,16873 11133,16873 C 11278,17137 11418,17395 11555,17649 11624,17778 11693,17903 11762,18030 11928,18335 12086,18631 12240,18918 12272,18954 12303,18988 12335,19019 L 12523,19087 12523,19087 C 12556,19087 12627,19081 12736,19072 12741,19066 12751,19066 12765,19070 12889,19020 12987,18947 13062,18851 13346,18512 13586,18104 13783,17631 13863,17401 13888,17200 13859,17028 L 13671,17017 13671,17017 C 13683,17093 13689,17151 13690,17189 13677,17447 13616,17688 13509,17911 13298,18302 13034,18656 12719,18969 12711,18977 12707,18984 12709,18992 12612,19010 12544,19004 12506,18978 12500,18975 12493,18975 12483,18976 12437,18929 12395,18884 12353,18841 12349,18833 12342,18833 12332,18837 12190,18575 12044,18308 11898,18037 11829,17911 11762,17784 11693,17656 11583,17456 11476,17252 11366,17046 11335,16991 11307,16936 11278,16881 Z"/><path d="M 13337,16998 L 13266,16994 13266,16994 C 13313,17291 13288,17540 13191,17741 13077,17955 12913,18181 12702,18420 12559,18333 12468,18217 12432,18077 12401,17918 12351,17773 12279,17637 12174,17439 12029,17264 11840,17113 11930,17044 12020,16982 12107,16928 L 11997,16922 11997,16922 C 11934,16955 11864,16973 11784,16975 11753,16976 11723,16974 11691,16970 L 11690,16970 11690,16970 C 11684,16965 11682,16960 11684,16956 11684,16955 11684,16955 11685,16955 11674,16947 11665,16942 11656,16936 11655,16934 11655,16934 11653,16934 L 11655,16934 11655,16934 C 11643,16923 11634,16912 11627,16901 L 11529,16896 11529,16896 C 11540,16918 11552,16943 11565,16968 L 11567,16968 11567,16968 C 11635,17053 11703,17141 11769,17229 11943,17462 12107,17705 12260,17960 12364,18131 12463,18307 12557,18487 12555,18489 12563,18494 12580,18500 12671,18503 12743,18479 12795,18432 12797,18423 12804,18422 12820,18429 13082,18211 13248,17947 13318,17633 13328,17584 13337,17535 13344,17485 13362,17333 13360,17170 13337,16998 Z"/></g><g style="stroke:none;fill:rgb(255,0,0)"><path d="M 13415,16209 L 13415,16209 C 13401,16206 13389,16206 13380,16207 13024,16109 12684,16117 12359,16234 12171,16300 11988,16404 11809,16545 11765,16579 11725,16615 11681,16652 11679,16667 11675,16677 11671,16682 11589,16784 11582,16868 11655,16934 11655,16934 11655,16934 11656,16936 11665,16942 11674,16947 11685,16955 11684,16955 11684,16955 11684,16956 11685,16958 11689,16960 11692,16962 11691,16965 11690,16968 11691,16970 11723,16974 11753,16976 11784,16975 11931,16972 12049,16915 12135,16805 12148,16800 12159,16794 12171,16790 12226,16721 12282,16661 12338,16612 12449,16514 12562,16453 12679,16426 12848,16387 13027,16419 13215,16522 13225,16524 13231,16525 13233,16527 13342,16882 13379,17202 13344,17485 13337,17535 13328,17584 13318,17633 13248,17947 13082,18211 12820,18429 12804,18422 12797,18423 12795,18432 L 12795,18432 C 12743,18479 12671,18503 12580,18500 12563,18494 12555,18489 12557,18487 12463,18307 12364,18131 12260,17960 12107,17705 11943,17462 11769,17229 11703,17141 11635,17053 11567,16968 L 11565,16968 11565,16968 C 11439,16722 11316,16466 11197,16204 11186,16201 11176,16203 11172,16207 11153,16214 11133,16225 11114,16236 11112,16236 11112,16236 11112,16236 L 11112,16238 11112,16238 C 11106,16240 11101,16242 11096,16245 11051,16266 11010,16287 10968,16309 10966,16316 10967,16322 10971,16328 11007,16391 11043,16451 11080,16513 11085,16521 11091,16531 11096,16539 11187,16710 11276,16878 11366,17046 11476,17252 11583,17456 11693,17656 11762,17784 11829,17911 11898,18037 12044,18308 12190,18575 12332,18837 12342,18833 12349,18833 12353,18841 12395,18884 12437,18929 12483,18976 12493,18975 12500,18975 12506,18978 12544,19004 12612,19010 12709,18992 12707,18984 12711,18977 12719,18969 13034,18656 13298,18302 13509,17911 13616,17688 13677,17447 13690,17189 13686,17111 13663,16954 13620,16717 13563,16485 13496,16315 13415,16209 Z"/></g><g style="stroke:none;fill:rgb(255,255,255)"><path d="M 10980,15710 L 10980,15710 C 10978,15710 10978,15710 10978,15712 10980,15717 10984,15720 10987,15724 10984,15718 10981,15715 10980,15710 Z"/></g><g style="stroke:none;fill:rgb(202,202,202)"><path d="M 11034,15918 L 11034,15918 C 11024,15893 11007,15869 10989,15846 10958,15806 10901,15696 10825,15518 10754,15355 10716,15256 10712,15223 10438,14698 10213,14262 10038,13914 L 10038,13914 10032,13914 10023,13892 10025,13892 8114,10492 8114,10492 C 8061,10571 8022,10662 7999,10765 7991,10801 7983,10836 7978,10872 L 11060,16091 11060,16091 C 11069,16029 11060,15972 11034,15918 Z"/></g><g style="stroke:none;fill:rgb(130,130,130)"><path d="M 10038,13914 L 10038,13914 10025,13892 10023,13892 10038,13914 Z"/></g><g style="stroke:none;fill:rgb(156,156,156)"><path d="M 10583,15911 L 10583,15911 C 10614,15959 10647,15995 10675,16019 L 10675,16019 10728,16060 10841,16187 7997,11902 7997,11902 C 8002,11921 8004,11941 8008,11961 8055,12211 8085,12400 8094,12526 L 10224,15443 10224,15443 C 10339,15565 10445,15694 10544,15828 10538,15836 10553,15864 10583,15911 Z"/></g><g style="stroke:none;fill:rgb(124,124,124)"><path d="M 8094,12526 L 8094,12526 C 8094,12548 8097,12568 8097,12587 8099,12708 8099,12796 8096,12849 8093,12900 8233,13163 8517,13638 8799,14111 9250,14602 9869,15114 9995,15217 10113,15327 10224,15443 L 8094,12526 Z"/></g><g style="stroke:none;fill:rgb(184,184,184)"><path d="M 10546,15249 L 10546,15249 C 10570,15277 10580,15311 10578,15348 10576,15386 10562,15418 10535,15442 10525,15450 10516,15458 10506,15463 L 10968,16189 10968,16189 C 10989,16188 11011,16189 11032,16190 11042,16169 11048,16147 11052,16124 11055,16112 11058,16102 11060,16091 L 7978,10872 7978,10872 C 7944,11053 7934,11235 7942,11419 L 10362,15234 10362,15234 C 10387,15212 10418,15201 10454,15203 10491,15206 10520,15221 10546,15249 Z"/></g><g style="stroke:none;fill:rgb(255,255,255)"><path d="M 10578,15348 L 10578,15348 C 10580,15311 10570,15277 10546,15249 10520,15221 10491,15206 10454,15203 10418,15201 10387,15212 10362,15234 10360,15236 10360,15236 10358,15238 10330,15264 10315,15296 10313,15333 10311,15371 10322,15405 10347,15431 10372,15461 10400,15475 10437,15477 10463,15479 10487,15473 10506,15463 10516,15458 10525,15450 10535,15442 10562,15418 10576,15386 10578,15348 Z"/></g><g style="stroke:none;fill:rgb(166,166,166)"><path d="M 10841,16187 L 10841,16187 C 10840,16188 10841,16189 10843,16190 10884,16189 10926,16188 10968,16189 L 10506,15463 10506,15463 C 10487,15473 10463,15479 10437,15477 10400,15475 10372,15461 10347,15431 10322,15405 10311,15371 10313,15333 10315,15296 10330,15264 10358,15238 10360,15236 10360,15236 10362,15234 L 7942,11419 7942,11419 C 7942,11450 7945,11481 7948,11514 7957,11644 7973,11773 7997,11902 L 10841,16187 Z"/></g><g style="stroke:rgb(0,0,0);stroke-width:35;stroke-linejoin:round;fill:rgb(255,255,255)"><path style="fill:none" d="M 10546,15249 L 10546,15249 C 10520,15221 10491,15206 10454,15203 10418,15201 10387,15212 10362,15234 10360,15236 10360,15236 10358,15238 10330,15264 10315,15296 10313,15333 10311,15371 10322,15405 10347,15431 10372,15461 10400,15475 10437,15477 10463,15479 10487,15473 10506,15463 10516,15458 10525,15450 10535,15442 10562,15418 10576,15386 10578,15348 10580,15311 10570,15277 10546,15249"/></g><g style="stroke:none;fill:rgb(102,102,102)"><path d="M 12592,10282 L 12592,10282 C 12537,10389 12482,10497 12425,10607 12351,10753 12274,10903 12198,11053 12194,11058 12192,11065 12188,11072 11745,11959 11297,12843 10841,13723 10788,13826 10734,13931 10681,14035 L 10013,15328 10013,15328 C 9969,15404 9923,15485 9876,15568 9787,15733 9691,15914 9589,16110 9584,16105 9575,16103 9566,16098 9149,15745 8425,15742 7394,16090 7398,16101 7395,16113 7385,16126 7282,16444 7231,16761 7232,17077 7243,17287 7252,17513 7256,17757 7255,17763 7255,17773 7256,17786 7297,18135 7404,18423 7574,18651 7586,18650 7588,18658 7584,18675 7650,18701 7713,18729 7773,18764 7778,18764 7782,18771 7784,18784 7930,18808 8090,18819 8265,18814 8286,18806 8300,18806 8310,18812 8514,18691 8672,18563 8785,18428 8788,18418 8796,18413 8810,18417 9192,17605 9587,16983 9997,16549 10080,16439 10170,16330 10259,16225 L 10259,16225 10567,15889 10674,15726 10674,15726 C 10672,15726 10672,15726 10672,15724 10894,15474 11008,15347 11010,15344 11281,14983 11443,14780 11492,14735 11491,14727 11493,14718 11497,14712 11842,14297 12117,13938 12326,13639 12508,13378 12639,13160 12716,12987 12741,12935 12761,12880 12779,12823 12960,12256 12898,11410 12592,10282 Z M 9845,15899 L 9845,15899 C 9862,15917 9879,15936 9895,15954 9916,15977 9934,16000 9954,16021 9985,16055 10014,16089 10042,16122 10037,16119 10058,16145 10104,16201 10069,16191 9868,16458 9497,17004 9148,17517 8812,18034 8489,18556 8485,18563 8481,18571 8481,18584 8362,18670 8203,18735 7998,18778 7989,18777 7974,18779 7957,18785 7491,18413 7276,17819 7316,17007 7321,16994 7320,16985 7316,16977 7323,16734 7411,16478 7583,16208 L 7583,16208 7553,16208 7547,16191 7547,16191 C 8545,15838 9195,15840 9494,16197 9503,16199 9510,16201 9515,16206 9484,16370 9425,16508 9339,16620 9336,16622 9331,16623 9322,16626 9071,16354 8559,16240 7785,16283 L 7601,16589 7601,16589 C 7533,17149 7573,17681 7722,18182 7727,18189 7729,18197 7728,18209 7876,18297 8052,18355 8259,18384 8272,18383 8286,18382 8300,18381 9010,17441 9508,16635 9795,15960 9805,15937 9814,15917 9822,15895 9825,15883 9826,15877 9825,15875 9832,15883 9839,15891 9845,15899 Z M 12572,10599 L 12572,10599 C 12590,10690 12612,10809 12638,10956 12664,11102 12685,11268 12704,11452 12705,11479 12707,11506 12709,11533 12716,11632 12721,11727 12724,11819 12725,11841 12727,11861 12727,11883 12729,12059 12722,12225 12703,12381 12656,12784 12539,13116 12355,13374 12342,13393 12328,13411 12315,13428 12057,13787 11836,14087 11650,14326 11649,14330 11644,14331 11635,14332 11408,14670 11171,14987 10924,15283 10890,15326 10854,15369 10817,15411 10741,15497 10666,15582 10591,15666 10569,15689 10549,15710 10527,15733 10454,15812 10380,15890 10304,15965 L 10303,15965 10303,15965 C 10292,15974 10282,15985 10271,15996 10251,16018 10235,16059 10225,16121 10208,16074 10185,16034 10153,16002 10130,15978 10101,15957 10067,15940 L 9963,15909 9963,15909 C 9929,15894 9908,15858 9896,15801 9894,15796 9893,15789 9892,15784 9917,15718 9943,15655 9967,15598 9994,15534 10018,15467 10041,15403 L 10039,15413 10039,15413 C 10121,15324 10172,15257 10194,15212 10203,15199 10209,15185 10217,15170 10389,14833 10548,14525 10692,14242 10748,14134 10801,14030 10852,13931 11096,13459 11295,13080 11444,12795 11737,12240 11989,11749 12201,11323 12335,11058 12452,10816 12553,10600 12557,10590 12561,10578 12565,10570 12568,10580 12571,10590 12572,10599 Z M 9249,16670 L 9249,16670 C 9251,16673 9259,16677 9271,16679 9086,17171 8759,17708 8285,18291 8285,18296 8276,18299 8257,18302 8118,18286 8008,18247 7928,18186 7923,18179 7911,18175 7895,18182 7697,17935 7618,17591 7657,17155 7657,17143 7656,17135 7656,17130 7684,16908 7750,16670 7850,16416 7858,16401 7860,16389 7857,16381 8583,16339 9047,16435 9249,16670 Z"/></g><g style="stroke:none;fill:rgb(255,0,0)"><path d="M 9895,15954 L 9895,15954 C 9879,15936 9862,15917 9845,15899 9839,15891 9832,15883 9825,15875 9826,15877 9825,15883 9822,15895 9814,15917 9805,15937 9795,15960 9508,16635 9010,17441 8300,18381 8286,18382 8272,18383 8259,18384 8052,18355 7876,18297 7728,18209 7729,18197 7727,18189 7722,18182 7573,17681 7533,17149 7601,16589 L 7785,16283 7785,16283 C 8559,16240 9071,16354 9322,16626 9331,16623 9336,16622 9339,16620 9425,16508 9484,16370 9515,16206 9510,16201 9503,16199 9494,16197 9195,15840 8545,15838 7547,16191 L 7547,16191 7553,16208 7583,16208 7583,16208 C 7411,16478 7323,16734 7316,16977 7320,16985 7321,16994 7316,17007 7276,17819 7491,18413 7957,18785 7974,18779 7989,18777 7998,18778 8203,18735 8362,18670 8481,18584 8481,18571 8485,18563 8489,18556 8812,18034 9148,17517 9497,17004 9868,16458 10069,16191 10104,16201 10058,16145 10037,16119 10042,16122 10014,16089 9985,16055 9954,16021 9934,16000 9916,15977 9895,15954 Z"/></g><g style="stroke:none;fill:rgb(51,51,51)"><path d="M 10638,15227 L 10638,15227 C 10633,15154 10603,15115 10556,15108 10514,15102 10457,15120 10384,15161 10371,15169 10357,15179 10343,15188 10342,15188 10340,15188 10339,15190 10339,15192 10339,15193 10339,15195 10339,15202 10340,15209 10340,15217 10346,15292 10365,15347 10393,15384 10421,15419 10460,15435 10508,15437 10529,15437 10552,15432 10578,15426 10592,15422 10607,15417 10624,15411 10624,15403 10624,15394 10626,15386 10638,15322 10643,15269 10638,15227 Z M 10458,15356 L 10457,15342 10457,15342 C 10559,15345 10560,15351 10458,15356 Z M 10501,15203 L 10501,15203 C 10494,15202 10486,15199 10479,15197 10477,15197 10475,15191 10475,15183 10488,15187 10496,15189 10505,15195 10561,15214 10560,15217 10501,15203 Z"/></g><g style="stroke:none;fill:rgb(255,255,255)"><path d="M 10457,15342 L 10458,15356 10458,15356 C 10560,15351 10559,15345 10457,15342 Z"/></g><g style="stroke:none;fill:rgb(99,99,99)"><path d="M 10501,15203 L 10501,15203 C 10519,15207 10531,15211 10540,15211 10548,15213 10548,15211 10541,15208 10536,15204 10524,15200 10505,15195 L 10501,15203 Z"/></g><g style="stroke:none;fill:rgb(255,255,255)"><path d="M 10501,15203 L 10505,15195 10505,15195 C 10496,15189 10488,15187 10475,15183 10475,15191 10477,15197 10479,15197 10486,15199 10494,15202 10501,15203 Z"/></g><g style="stroke:none;fill:rgb(148,148,148)"><path d="M 12724,11819 L 12724,11819 C 12721,11727 12716,11632 12709,11533 12707,11506 12705,11479 12704,11452 L 10556,15108 10556,15108 C 10603,15115 10633,15154 10638,15227 L 12727,11883 12727,11883 C 12727,11861 12725,11841 12724,11819 Z"/></g><g style="stroke:none;fill:rgb(168,168,168)"><path d="M 12704,11452 L 12704,11452 C 12685,11268 12664,11102 12638,10956 L 10343,15188 10343,15188 C 10357,15179 10371,15169 10384,15161 10457,15120 10514,15102 10556,15108 L 12704,11452 Z"/></g><g style="stroke:none;fill:rgb(117,117,117)"><path d="M 12315,13428 L 12315,13428 C 12328,13411 12342,13393 12355,13374 12539,13116 12656,12784 12703,12381 L 10304,15965 10304,15965 C 10380,15890 10454,15812 10527,15733 10549,15710 10569,15689 10591,15666 10666,15582 10741,15497 10817,15411 10854,15369 10890,15326 10924,15283 11171,14987 11408,14670 11635,14332 11644,14331 11649,14330 11650,14326 11836,14087 12057,13787 12315,13428 Z"/></g><g style="stroke:none;fill:rgb(131,131,131)"><path d="M 12703,12381 L 12703,12381 C 12722,12225 12729,12059 12727,11883 L 10638,15227 10638,15227 C 10643,15269 10638,15322 10626,15386 10624,15394 10624,15403 10624,15411 10607,15417 10592,15422 10578,15426 10552,15432 10529,15437 10508,15437 L 10153,16002 10153,16002 C 10185,16034 10208,16074 10225,16121 10235,16059 10251,16018 10271,15996 10282,15985 10292,15974 10303,15965 L 10303,15965 10304,15965 12703,12381 Z"/></g><g style="stroke:none;fill:rgb(168,168,168)"><path d="M 10340,15217 L 10340,15217 C 10340,15209 10339,15202 10339,15195 L 10339,15195 9963,15909 10067,15940 10393,15384 10393,15384 C 10365,15347 10346,15292 10340,15217 Z"/></g><g style="stroke:none;fill:rgb(148,148,148)"><path d="M 10067,15940 L 10067,15940 C 10101,15957 10130,15978 10153,16002 L 10508,15437 10508,15437 C 10460,15435 10421,15419 10393,15384 L 10067,15940 Z"/></g><g style="stroke:none;fill:rgb(180,180,180)"><path d="M 12638,10956 L 12638,10956 C 12612,10809 12590,10690 12572,10599 12571,10590 12568,10580 12565,10570 12561,10578 12557,10590 12553,10600 12452,10816 12335,11058 12201,11323 11989,11749 11737,12240 11444,12795 11295,13080 11096,13459 10852,13931 10801,14030 10748,14134 10692,14242 10548,14525 10389,14833 10217,15170 10209,15185 10203,15199 10194,15212 10172,15257 10121,15324 10039,15413 L 10041,15403 10041,15403 C 10018,15467 9994,15534 9967,15598 9943,15655 9917,15718 9892,15784 9893,15789 9894,15796 9896,15801 9908,15858 9929,15894 9963,15909 L 10339,15195 10339,15195 C 10339,15193 10339,15192 10339,15190 10340,15188 10342,15188 10343,15188 L 12638,10956 Z"/></g></g></g></g></svg>