<?xml version="1.0" encoding="UTF-8"?>
<!DOCTYPE svg PUBLIC "-//W3C//DTD SVG 1.1//EN" "http://www.w3.org/Graphics/SVG/1.1/DTD/svg11.dtd"><svg version="1.1" viewBox="0 0 21000 29700" preserveAspectRatio="xMidYMid" fill-rule="evenodd" xmlns="http://www.w3.org/2000/svg" xmlns:xlink="http://www.w3.org/1999/xlink"><g visibility="visible" id="Default"><desc>Master slide</desc><g style="stroke:none;fill:none"><rect x="0" y="0" width="21000" height="29700"/></g></g><g visibility="visible" id="page1"><desc>Slide</desc><g><desc>Graphic</desc><g><g style="stroke:none;fill:rgb(238,17,17)"><path d="M 12718,10877 L 12718,10877 C 12758,11133 12946,11260 13274,11260 13095,11115 12909,10988 12718,10877 Z"/></g><g style="stroke:none;fill:rgb(187,0,0)"><path d="M 13274,11260 L 13274,11260 C 12946,11260 12758,11133 12718,10877 12646,10835 12572,10794 12500,10757 12475,10757 12451,10757 12425,10757 12425,10850 12425,10946 12425,11039 12425,11087 12425,11133 12425,11180 12425,11228 12425,11274 12425,11321 12473,11321 12519,11321 12567,11321 13102,11355 13455,11582 13625,12006 13631,12020 13655,12027 13703,12027 13845,12120 13975,12226 14094,12344 14117,12367 14129,12403 14129,12450 14177,12450 14223,12450 14271,12450 14294,12450 14319,12450 14344,12450 14157,12154 13932,11873 13668,11611 13602,11547 13536,11485 13471,11425 13405,11367 13339,11313 13274,11260 Z"/></g><g style="stroke:none;fill:rgb(238,17,17)"><path d="M 12298,11209 L 12298,11209 C 12335,11189 12377,11180 12425,11180 12425,11133 12425,11087 12425,11039 12425,10946 12425,10850 12425,10757 12451,10757 12475,10757 12500,10757 12435,10723 12368,10693 12303,10664 11738,10413 11123,10288 10456,10290 9731,10288 9068,10434 8466,10729 8446,10738 8429,10748 8409,10757 8423,10757 8438,10757 8450,10757 8450,10805 8452,10850 8457,10898 8506,11231 8408,11420 8167,11463 8167,11510 8168,11556 8174,11604 8221,11985 7934,12267 7314,12450 7266,12450 7221,12450 7173,12450 7173,12498 7161,12535 7137,12563 6952,12798 6727,12995 6462,13156 6462,13108 6462,13062 6462,13015 6462,12921 6462,12826 6462,12732 6441,12732 6420,12734 6401,12740 6394,12752 6387,12764 6381,12777 L 6134,13369 6134,13369 C 6132,13373 6132,13376 6131,13382 6129,13385 6127,13389 6127,13392 6125,13397 6123,13401 6122,13406 6120,13412 6118,13417 6116,13422 6115,13426 6115,13429 6113,13433 6109,13443 6106,13454 6104,13464 5974,13884 5911,14331 5913,14805 5913,15643 6113,16398 6513,17070 10309,19629 13132,19008 14983,15204 14984,15167 14988,15131 14990,15094 14995,14999 14998,14902 14998,14805 14998,14687 14995,14572 14986,14458 14963,14110 14902,13780 14807,13464 14698,13106 14544,12770 14344,12450 14319,12450 14294,12450 14271,12450 14223,12450 14177,12450 14129,12450 14129,12403 14117,12367 14094,12344 13975,12226 13845,12120 13703,12027 13703,12075 13696,12119 13682,12161 13568,12463 13385,12464 13135,12168 13087,12168 13041,12170 12993,12175 12331,12212 11952,11976 11857,11463 L 11857,11463 C 12000,11369 12147,11284 12298,11209 Z"/></g><g style="stroke:none;fill:rgb(244,71,36)"><path d="M 12425,11180 L 12425,11180 C 12377,11180 12335,11189 12298,11209 12147,11284 12000,11369 11857,11463 11952,11976 12331,12212 12993,12175 13041,12170 13087,12168 13135,12168 13135,12120 13123,12085 13100,12062 12981,11944 12851,11838 12709,11745 12661,11745 12623,11757 12588,11780 12314,11958 12165,11852 12142,11463 12235,11463 12321,11443 12397,11406 12416,11397 12425,11369 12425,11321 12425,11274 12425,11228 12425,11180 Z"/></g><g style="stroke:none;fill:rgb(236,106,47)"><path d="M 12688,11611 L 12688,11611 C 12702,11653 12709,11697 12709,11745 12851,11838 12981,11944 13100,12062 13123,12085 13135,12120 13135,12168 13385,12464 13568,12463 13682,12161 13696,12119 13703,12075 13703,12027 13655,12027 13631,12020 13625,12006 13455,11582 13102,11355 12567,11321 12616,11415 12654,11512 12688,11611 Z"/></g><g style="stroke:none;fill:rgb(245,121,55)"><path d="M 12709,11745 L 12709,11745 C 12709,11697 12702,11653 12688,11611 12654,11512 12616,11415 12567,11321 12519,11321 12473,11321 12425,11321 12425,11369 12416,11397 12397,11406 12321,11443 12235,11463 12142,11463 12165,11852 12314,11958 12588,11780 12623,11757 12661,11745 12709,11745 Z"/></g><g style="stroke:none;fill:rgb(159,16,9)"><path d="M 8025,10977 L 8025,10977 C 8009,11034 7964,11064 7895,11066 7844,11101 7791,11138 7740,11177 7740,11179 7740,11179 7740,11180 7732,11336 7826,11406 8025,11392 L 8025,11463 8025,11463 C 8072,11463 8118,11463 8167,11463 8408,11420 8506,11231 8457,10898 8452,10850 8450,10805 8450,10757 8438,10757 8423,10757 8409,10757 8278,10824 8151,10898 8025,10977 Z"/></g><g style="stroke:none;fill:rgb(238,17,17)"><path d="M 7895,11066 L 7895,11066 C 7964,11064 8009,11034 8025,10977 L 7927,11043 7927,11043 C 7914,11050 7904,11057 7893,11066 L 7895,11066 Z"/><path d="M 7735,11180 L 7735,11180 C 7737,11180 7739,11180 7740,11180 7740,11179 7740,11179 7740,11177 7739,11179 7737,11179 7735,11180 Z"/></g><g style="stroke:none;fill:rgb(187,0,0)"><path d="M 7740,11180 L 7740,11180 C 7739,11180 7737,11180 7735,11180 7565,11309 7400,11454 7242,11611 7169,11683 7098,11759 7031,11835 6819,12071 6638,12320 6487,12583 6711,12487 6883,12343 7003,12147 7022,12113 7031,12075 7031,12027 7124,11979 7222,11941 7322,11907 7364,11893 7408,11886 7456,11886 7456,11838 7456,11792 7456,11745 7456,11697 7456,11651 7456,11604 7641,11598 7790,11563 7904,11498 7937,11475 7977,11463 8025,11463 L 8025,11392 8025,11392 C 7826,11406 7732,11336 7740,11180 Z"/></g><g style="stroke:none;fill:rgb(213,103,48)"><path d="M 7421,11992 L 7421,11992 C 7444,11969 7456,11933 7456,11886 7408,11886 7364,11893 7322,11907 7222,11941 7124,11979 7031,12027 7031,12075 7022,12113 7003,12147 6883,12343 6711,12487 6487,12583 6478,12595 6471,12609 6462,12625 6462,12660 6462,12695 6462,12732 6462,12826 6462,12921 6462,13015 6462,13062 6462,13108 6462,13156 6727,12995 6952,12798 7137,12563 7161,12535 7173,12498 7173,12450 7173,12403 7173,12357 7173,12309 7173,12262 7173,12216 7173,12168 7266,12120 7350,12062 7421,11992 Z"/></g><g style="stroke:none;fill:rgb(243,105,49)"><path d="M 7456,11886 L 7456,11886 C 7456,11933 7444,11969 7421,11992 7350,12062 7266,12120 7173,12168 7173,12216 7173,12262 7173,12309 7173,12357 7173,12403 7173,12450 7221,12450 7266,12450 7314,12450 7314,12403 7314,12357 7314,12309 7598,12120 7826,11881 7996,11590 8016,11552 8025,11510 8025,11463 7977,11463 7937,11475 7904,11498 7790,11563 7641,11598 7456,11604 7456,11651 7456,11697 7456,11745 7456,11792 7456,11838 7456,11886 Z"/></g><g style="stroke:none;fill:rgb(79,57,24)"><path d="M 6462,12732 L 6462,12732 C 6462,12695 6462,12660 6462,12625 6441,12662 6420,12701 6401,12740 6420,12734 6441,12732 6462,12732 Z"/></g><g style="stroke:none;fill:rgb(246,60,33)"><path d="M 7314,12309 L 7314,12309 C 7314,12357 7314,12403 7314,12450 7934,12267 8221,11985 8174,11604 8168,11556 8167,11510 8167,11463 8118,11463 8072,11463 8025,11463 8025,11510 8016,11552 7996,11590 7826,11881 7598,12120 7314,12309 Z"/></g><g style="stroke:none;fill:rgb(187,0,0)"><path d="M 6513,17070 L 6513,17070 C 6706,17393 6943,17698 7229,17983 7233,17989 7236,17992 7242,17998 7494,18248 7761,18463 8044,18643 8191,18737 8344,18819 8498,18895 8536,18913 8573,18931 8610,18946 9173,19195 9788,19320 10456,19320 11348,19320 12147,19098 12853,18652 13022,18544 13187,18424 13345,18292 13455,18199 13562,18102 13668,17998 13841,17823 13999,17643 14140,17456 14261,17294 14368,17126 14465,16953 14695,16535 14851,16089 14933,15611 14942,15556 14949,15500 14958,15444 14961,15408 14965,15373 14970,15338 14975,15294 14979,15248 14983,15204 13132,19008 10309,19629 6513,17070 Z"/></g><g style="stroke:none;fill:rgb(0,0,0)"><path d="M 12486,12568 L 12486,12568 C 12486,12661 12486,12757 12486,12850 12486,12898 12486,12944 12486,12991 12747,12873 12990,12744 13217,12603 13250,12580 13290,12568 13338,12568 13338,12520 13326,12483 13303,12455 13169,12309 12946,12252 12628,12286 12580,12286 12534,12286 12486,12286 12486,12333 12486,12379 12486,12427 12486,12474 12486,12520 12486,12568 Z"/></g><g style="stroke:none;fill:rgb(255,255,255)"><path d="M 12486,12991 L 12486,12991 C 12467,13055 12460,13108 12462,13150 12497,13196 12532,13238 12567,13277 12585,13280 12605,13282 12628,13280 12676,13275 12722,13273 12770,13273 12770,13226 12770,13180 12770,13132 12770,13085 12770,13039 12770,12991 13077,12813 13222,12859 13203,13132 13198,13180 13196,13226 13196,13273 13438,13231 13535,13042 13487,12709 13482,12661 13480,12616 13480,12568 13432,12568 13386,12568 13338,12568 13290,12568 13250,12580 13217,12603 12990,12744 12747,12873 12486,12991 Z"/></g><g style="stroke:none;fill:rgb(227,98,98)"><path d="M 12462,13150 L 12462,13150 C 12460,13108 12467,13055 12486,12991 12439,12991 12392,12991 12344,12991 12383,13049 12422,13102 12462,13150 Z"/></g><g style="stroke:none;fill:rgb(210,224,225)"><path d="M 12770,12991 L 12770,12991 C 12770,13039 12770,13085 12770,13132 12770,13180 12770,13226 12770,13273 12799,13434 12932,13462 13168,13358 13187,13349 13196,13321 13196,13273 13196,13226 13198,13180 13203,13132 13222,12859 13077,12813 12770,12991 Z"/></g><g style="stroke:none;fill:rgb(227,98,98)"><path d="M 12770,13273 L 12770,13273 C 12722,13273 12676,13275 12628,13280 12605,13282 12585,13280 12567,13277 13073,13850 13464,13658 13742,12702 13757,12660 13764,12616 13764,12568 13716,12568 13670,12568 13622,12568 13573,12568 13528,12568 13480,12568 13480,12616 13482,12661 13487,12709 13535,13042 13438,13231 13196,13273 13196,13321 13187,13349 13168,13358 12932,13462 12799,13434 12770,13273 Z"/></g><g style="stroke:none;fill:rgb(195,24,7)"><path d="M 13622,15249 L 13622,15249 C 13573,15249 13536,15261 13508,15284 13191,15529 12804,15706 12344,15813 12344,15861 12344,15907 12344,15954 12543,15898 12658,15940 12692,16081 12697,16090 12722,16096 12770,16096 12818,16048 12869,16011 12927,15983 12964,15963 13006,15954 13054,15954 13054,15907 13054,15861 13054,15813 13319,15748 13499,15602 13594,15376 13613,15339 13622,15297 13622,15249 Z"/></g><g style="stroke:none;fill:rgb(198,14,4)"><path d="M 14261,15249 L 14190,15249 14190,15249 C 14190,15297 14188,15342 14182,15390 14135,15715 13949,15903 13622,15954 13622,16002 13624,16048 13629,16096 13643,16350 13545,16491 13338,16519 13338,16567 13338,16612 13338,16660 13891,16485 14198,16016 14261,15249 Z"/></g><g style="stroke:none;fill:rgb(165,47,4)"><path d="M 14182,15390 L 14182,15390 C 14188,15342 14190,15297 14190,15249 14190,15201 14184,15177 14175,15171 13996,15129 13812,15108 13622,15108 13622,15155 13622,15201 13622,15249 13622,15297 13613,15339 13594,15376 13499,15602 13319,15748 13054,15813 13054,15861 13054,15907 13054,15954 13196,16180 13352,16193 13522,15990 13542,15967 13573,15954 13622,15954 13949,15903 14135,15715 14182,15390 Z"/></g><g style="stroke:none;fill:rgb(149,50,50)"><path d="M 12770,16096 L 12770,16096 C 12722,16096 12697,16090 12692,16081 12658,15940 12543,15898 12344,15954 12344,16002 12332,16037 12309,16060 12286,16083 12250,16096 12202,16096 12202,16143 12202,16189 12202,16237 12250,16284 12302,16321 12358,16350 12395,16369 12439,16378 12486,16378 12741,16358 12882,16454 12905,16660 12910,16708 12912,16753 12912,16801 12960,16801 13006,16801 13054,16801 13054,16753 13052,16708 13047,16660 13010,16420 12917,16231 12770,16096 Z"/></g><g style="stroke:none;fill:rgb(155,31,6)"><path d="M 12927,15983 L 12927,15983 C 12869,16011 12818,16048 12770,16096 12917,16231 13010,16420 13047,16660 13052,16708 13054,16753 13054,16801 13102,16753 13153,16716 13210,16688 13247,16669 13290,16660 13338,16660 13338,16612 13338,16567 13338,16519 13545,16491 13643,16350 13629,16096 13624,16048 13622,16002 13622,15954 13573,15954 13542,15967 13522,15990 13352,16193 13196,16180 13054,15954 13006,15954 12964,15963 12927,15983 Z"/></g><g style="stroke:none;fill:rgb(144,77,77)"><path d="M 12202,16237 L 12202,16237 C 12154,16237 12109,16237 12060,16237 11824,16237 11586,16237 11350,16237 11663,16397 12041,16468 12486,16448 L 12486,16378 12486,16378 C 12439,16378 12395,16369 12358,16350 12302,16321 12250,16284 12202,16237 Z"/></g><g style="stroke:none;fill:rgb(192,52,52)"><path d="M 12060,16237 L 12060,16237 C 12109,16237 12154,16237 12202,16237 12202,16189 12202,16143 12202,16096 12154,16096 12109,16094 12060,16089 11777,16046 11303,16048 10641,16096 10641,16143 10641,16189 10641,16237 10831,16237 11019,16237 11208,16237 11256,16237 11303,16237 11350,16237 11586,16237 11824,16237 12060,16237 Z"/></g><g style="stroke:none;fill:rgb(178,12,12)"><path d="M 12209,17224 L 12209,17224 C 12204,17177 12202,17131 12202,17083 12154,17083 12130,17090 12124,17104 12053,17344 11890,17478 11635,17507 11586,17507 11540,17501 11493,17493 11303,17455 11115,17413 10924,17366 10876,17366 10831,17367 10783,17373 10408,17410 10125,17360 9930,17224 9930,17272 9918,17309 9895,17337 9796,17473 9618,17530 9363,17507 9363,17554 9363,17600 9363,17648 9883,17648 10401,17671 10917,17718 10922,17718 10924,17741 10924,17789 11066,17789 11208,17789 11350,17789 11398,17789 11445,17789 11493,17789 11989,17845 12229,17657 12209,17224 Z"/></g><g style="stroke:none;fill:rgb(152,47,47)"><path d="M 12202,17083 L 12202,17083 C 12202,17036 12202,16990 12202,16942 12439,16942 12671,16919 12897,16872 12906,16872 12912,16849 12912,16801 12864,16801 12818,16799 12770,16794 12339,16746 12009,16796 11777,16942 11777,16990 11767,17032 11748,17069 11719,17126 11682,17177 11635,17224 11635,17272 11635,17318 11635,17366 11635,17413 11635,17459 11635,17507 11890,17478 12053,17344 12124,17104 12130,17090 12154,17083 12202,17083 Z"/></g><g style="stroke:none;fill:rgb(112,83,83)"><path d="M 11748,17069 L 11748,17069 C 11767,17032 11777,16990 11777,16942 11728,16942 11691,16955 11663,16977 11478,17113 11185,17149 10783,17083 10831,17131 10868,17182 10896,17239 10915,17276 10924,17318 10924,17366 11115,17413 11303,17455 11493,17493 11540,17501 11586,17507 11635,17507 11635,17459 11635,17413 11635,17366 11635,17318 11635,17272 11635,17224 11682,17177 11719,17126 11748,17069 Z"/></g><g style="stroke:none;fill:rgb(96,120,120)"><path d="M 11777,16942 L 11777,16942 C 11777,16895 11763,16865 11740,16850 11292,16535 10688,16378 9930,16378 9930,16425 9918,16462 9895,16491 9796,16626 9618,16683 9363,16660 9363,16753 9363,16849 9363,16942 9363,16990 9363,17036 9363,17083 9788,17083 10215,17083 10641,17083 10688,17083 10734,17083 10783,17083 11185,17149 11478,17113 11663,16977 11691,16955 11728,16942 11777,16942 Z"/></g><g style="stroke:none;fill:rgb(127,92,92)"><path d="M 11740,16850 L 11740,16850 C 11763,16865 11777,16895 11777,16942 12009,16796 12339,16746 12770,16794 12818,16799 12864,16801 12912,16801 12912,16753 12910,16708 12905,16660 12882,16454 12741,16358 12486,16378 L 12486,16448 12486,16448 C 12041,16468 11663,16397 11350,16237 11303,16237 11256,16237 11208,16237 11019,16237 10831,16237 10641,16237 10592,16237 10546,16237 10499,16237 10451,16237 10404,16237 10357,16237 10215,16237 10072,16237 9930,16237 9930,16284 9930,16330 9930,16378 10688,16378 11292,16535 11740,16850 Z"/></g><g style="stroke:none;fill:rgb(163,41,2)"><path d="M 7567,15503 L 7567,15503 C 7540,15457 7510,15418 7479,15385 7306,15192 7082,15194 6807,15390 6807,15484 6807,15579 6807,15672 6807,15720 6807,15766 6807,15813 7063,15794 7226,15882 7297,16074 7302,16089 7328,16096 7375,16096 7375,16048 7375,16002 7375,15954 7375,15907 7375,15861 7375,15813 7411,15813 7446,15815 7479,15819 7755,15838 7969,15917 8120,16060 8144,16083 8179,16096 8227,16096 8227,16048 8218,16020 8199,16011 8057,15946 7971,15833 7943,15672 7895,15672 7853,15663 7816,15644 7758,15616 7707,15579 7660,15531 7611,15531 7581,15522 7567,15503 Z"/></g><g style="stroke:none;fill:rgb(199,36,10)"><path d="M 7479,15385 L 7479,15385 C 7510,15418 7540,15457 7567,15503 7581,15522 7611,15531 7660,15531 7660,15484 7647,15445 7623,15411 7576,15342 7528,15282 7479,15231 7173,14907 6856,14960 6524,15390 6614,15489 6682,15623 6729,15792 6735,15806 6759,15813 6807,15813 6807,15766 6807,15720 6807,15672 6807,15579 6807,15484 6807,15390 7082,15194 7306,15192 7479,15385 Z"/></g><g style="stroke:none;fill:rgb(197,10,2)"><path d="M 7297,16074 L 7297,16074 C 7226,15882 7063,15794 6807,15813 6958,16193 7184,16496 7479,16723 7500,16738 7519,16752 7539,16766 7572,16789 7611,16801 7660,16801 7660,16753 7660,16708 7660,16660 7660,16612 7660,16567 7660,16519 7660,16471 7658,16425 7653,16378 7634,16256 7577,16173 7479,16127 7449,16113 7414,16103 7375,16096 7328,16096 7302,16089 7297,16074 Z"/></g><g style="stroke:none;fill:rgb(206,12,11)"><path d="M 8511,16096 L 8511,16096 C 8559,16096 8605,16096 8653,16096 8701,16096 8747,16096 8794,16096 8794,16048 8782,16011 8759,15983 8499,15663 8227,15559 7943,15672 7971,15833 8057,15946 8199,16011 8218,16020 8227,16048 8227,16096 8275,16096 8322,16096 8369,16096 8417,16096 8463,16096 8511,16096 Z"/></g><g style="stroke:none;fill:rgb(137,77,77)"><path d="M 8653,16096 L 8653,16096 C 8605,16096 8559,16096 8511,16096 8511,16143 8502,16171 8483,16180 8313,16265 8133,16330 7943,16378 7943,16425 7943,16471 7943,16519 7943,16567 7955,16602 7979,16625 8002,16648 8037,16660 8085,16660 8085,16612 8085,16567 8085,16519 8596,16420 9164,16372 9788,16378 9837,16378 9883,16378 9930,16378 9930,16330 9930,16284 9930,16237 9883,16237 9837,16238 9788,16244 9291,16309 8914,16260 8653,16096 Z"/></g><g style="stroke:none;fill:rgb(142,46,14)"><path d="M 8369,16096 L 8369,16096 C 8322,16096 8275,16096 8227,16096 8179,16096 8144,16083 8120,16060 7969,15917 7755,15838 7479,15819 7446,15815 7411,15813 7375,15813 7375,15861 7375,15907 7375,15954 7375,16002 7375,16048 7375,16096 7414,16103 7449,16113 7479,16127 7577,16173 7634,16256 7653,16378 7658,16425 7660,16471 7660,16519 7707,16519 7753,16519 7801,16519 7849,16519 7895,16519 7943,16519 7943,16471 7943,16425 7943,16378 8133,16330 8313,16265 8483,16180 8502,16171 8511,16143 8511,16096 8463,16096 8417,16096 8369,16096 Z"/></g><g style="stroke:none;fill:rgb(174,40,42)"><path d="M 7979,16625 L 7979,16625 C 7955,16602 7943,16567 7943,16519 7895,16519 7849,16519 7801,16519 7753,16519 7707,16519 7660,16519 7660,16567 7660,16612 7660,16660 7660,16708 7660,16753 7660,16801 7816,16928 8051,16977 8369,16949 8417,16944 8463,16942 8511,16942 8559,16942 8605,16942 8653,16942 8701,16942 8747,16942 8794,16942 L 8794,16872 8794,16872 C 8478,16858 8241,16787 8085,16660 8037,16660 8002,16648 7979,16625 Z"/></g><g style="stroke:none;fill:rgb(180,15,15)"><path d="M 8653,16942 L 8653,16942 C 8605,16942 8559,16942 8511,16942 8539,17196 8675,17358 8915,17429 8930,17434 8937,17459 8937,17507 9136,17450 9251,17493 9284,17634 9290,17642 9315,17648 9363,17648 9363,17600 9363,17554 9363,17507 9363,17459 9354,17431 9335,17422 9088,17318 8908,17159 8794,16942 8747,16942 8701,16942 8653,16942 Z"/></g><g style="stroke:none;fill:rgb(105,98,98)"><path d="M 8085,16519 L 8085,16519 C 8085,16567 8085,16612 8085,16660 8241,16787 8478,16858 8794,16872 L 8794,16942 8794,16942 C 8980,16947 9128,16983 9242,17048 9275,17071 9315,17083 9363,17083 9363,17036 9363,16990 9363,16942 9363,16849 9363,16753 9363,16660 9618,16683 9796,16626 9895,16491 9918,16462 9930,16425 9930,16378 9883,16378 9837,16378 9788,16378 9164,16372 8596,16420 8085,16519 Z"/></g><g style="stroke:none;fill:rgb(206,40,41)"><path d="M 9788,16244 L 9788,16244 C 9837,16238 9883,16237 9930,16237 10072,16237 10215,16237 10357,16237 10404,16237 10451,16237 10499,16237 10499,16189 10490,16161 10471,16152 9950,15921 9391,15903 8794,16096 8747,16096 8701,16096 8653,16096 8914,16260 9291,16309 9788,16244 Z"/></g><g style="stroke:none;fill:rgb(136,52,52)"><path d="M 9363,17083 L 9363,17083 C 9315,17083 9275,17071 9242,17048 9128,16983 8980,16947 8794,16942 8908,17159 9088,17318 9335,17422 9354,17431 9363,17459 9363,17507 9618,17530 9796,17473 9895,17337 9918,17309 9930,17272 9930,17224 9883,17224 9837,17230 9788,17239 9533,17295 9391,17244 9363,17083 Z"/></g><g style="stroke:none;fill:rgb(120,72,72)"><path d="M 9788,17239 L 9788,17239 C 9837,17230 9883,17224 9930,17224 10125,17360 10408,17410 10783,17373 10831,17367 10876,17366 10924,17366 10924,17318 10915,17276 10896,17239 10868,17182 10831,17131 10783,17083 10734,17083 10688,17083 10641,17083 10215,17083 9788,17083 9363,17083 9391,17244 9533,17295 9788,17239 Z"/></g><g style="stroke:none;fill:rgb(219,2,2)"><path d="M 11464,17874 L 11464,17874 C 11484,17865 11493,17836 11493,17789 11445,17789 11398,17789 11350,17789 11208,17789 11066,17789 10924,17789 10876,17789 10831,17789 10783,17789 10598,17794 10456,17840 10357,17930 L 10357,17859 10357,17859 C 10195,17967 10101,17944 10072,17789 10025,17789 9986,17801 9951,17824 9781,17928 9539,17963 9221,17930 10172,18184 10919,18165 11464,17874 Z"/></g><g style="stroke:none;fill:rgb(203,3,3)"><path d="M 10924,17789 L 10924,17789 C 10924,17741 10922,17718 10917,17718 10401,17671 9883,17648 9363,17648 9315,17648 9290,17642 9284,17634 9251,17493 9136,17450 8937,17507 9028,17605 9095,17739 9143,17909 9148,17923 9173,17930 9221,17930 9539,17963 9781,17928 9951,17824 9986,17801 10025,17789 10072,17789 10101,17944 10195,17967 10357,17859 L 10357,17930 10357,17930 C 10456,17840 10598,17794 10783,17789 10831,17789 10876,17789 10924,17789 Z"/></g><g style="stroke:none;fill:rgb(220,146,97)"><path d="M 7479,12012 L 7479,12012 C 7446,12007 7412,12005 7375,12003 7375,12051 7367,12093 7347,12130 7319,12187 7281,12238 7233,12286 7233,12333 7233,12379 7233,12427 7233,12616 7233,12802 7233,12991 7233,13039 7233,13085 7233,13132 7281,13132 7317,13145 7340,13168 7363,13191 7375,13226 7375,13273 7411,13273 7446,13273 7479,13273 7540,13273 7600,13273 7660,13273 7707,13273 7753,13273 7801,13273 7801,13226 7795,13201 7787,13196 7651,13161 7549,13095 7479,13000 7404,12894 7368,12750 7375,12568 7411,12568 7446,12568 7479,12568 7493,12568 7505,12568 7518,12568 7565,12568 7611,12568 7660,12568 7660,12520 7660,12474 7660,12427 7707,12427 7743,12414 7765,12391 7788,12369 7801,12333 7801,12286 7801,12238 7788,12199 7765,12166 7705,12083 7609,12032 7479,12012 Z"/></g><g style="stroke:none;fill:rgb(231,89,90)"><path d="M 8525,12737 L 8525,12737 C 8468,12765 8417,12802 8369,12850 8369,12898 8378,12937 8397,12970 8539,13196 8341,13296 7801,13273 7753,13273 7707,13273 7660,13273 7600,13273 7540,13273 7479,13273 7446,13273 7411,13273 7375,13273 7391,13365 7427,13441 7479,13503 7521,13547 7570,13584 7630,13612 7651,13621 7660,13649 7660,13697 8255,13677 8584,13395 8646,12850 8652,12802 8653,12757 8653,12709 8605,12709 8562,12718 8525,12737 Z"/></g><g style="stroke:none;fill:rgb(0,0,0)"><path d="M 8369,12850 L 8369,12850 C 8417,12802 8468,12765 8525,12737 8562,12718 8605,12709 8653,12709 8653,12661 8662,12619 8682,12582 8847,12294 8648,12150 8085,12145 8085,12192 8085,12238 8085,12286 7995,12610 8090,12774 8369,12780 L 8369,12850 Z"/></g><g style="stroke:none;fill:rgb(110,112,103)"><path d="M 8227,12843 L 8227,12843 C 8275,12848 8322,12850 8369,12850 L 8369,12780 8369,12780 C 8090,12774 7995,12610 8085,12286 8037,12286 7991,12286 7943,12286 7895,12286 7849,12286 7801,12286 7801,12333 7788,12369 7765,12391 7743,12414 7707,12427 7660,12427 7660,12474 7660,12520 7660,12568 7795,12714 7986,12806 8227,12843 Z"/></g><g style="stroke:none;fill:rgb(255,255,255)"><path d="M 8369,12850 L 8369,12850 C 8322,12850 8275,12848 8227,12843 7986,12806 7795,12714 7660,12568 7611,12568 7565,12568 7518,12568 7505,12568 7493,12568 7479,12568 7446,12568 7411,12568 7375,12568 7368,12750 7404,12894 7479,13000 7549,13095 7651,13161 7787,13196 7795,13201 7801,13226 7801,13273 8341,13296 8539,13196 8397,12970 8378,12937 8369,12898 8369,12850 Z"/></g></g></g></g></svg>