<?xml version="1.0" encoding="UTF-8"?>
<!DOCTYPE svg PUBLIC "-//W3C//DTD SVG 1.1//EN" "http://www.w3.org/Graphics/SVG/1.1/DTD/svg11.dtd"><svg version="1.1" viewBox="0 0 21000 29700" preserveAspectRatio="xMidYMid" fill-rule="evenodd" xmlns="http://www.w3.org/2000/svg" xmlns:xlink="http://www.w3.org/1999/xlink"><g visibility="visible" id="Default"><desc>Master slide</desc><g style="stroke:none;fill:none"><rect x="0" y="0" width="21000" height="29700"/></g></g><g visibility="visible" id="page1"><desc>Slide</desc><g><desc>Graphic</desc><g><g style="stroke:none;fill:rgb(238,17,17)"><path d="M 14986,14431 L 14986,14431 C 14911,13333 14470,12384 13666,11585 12780,10704 11709,10263 10455,10263 9200,10263 8129,10704 7242,11585 6356,12467 5912,13532 5912,14778 5912,16019 6351,17079 7229,17958 7973,18006 8488,18027 8773,18023 9075,18020 9368,18000 9654,17966 9549,17761 9506,17559 9521,17358 9553,17174 9605,16998 9680,16830 9747,16698 9781,16631 9781,16627 9929,16398 10119,16250 10351,16184 10358,16182 10365,16180 10373,16180 10377,16231 10314,16372 10184,16604 10036,16866 9953,17031 9934,17098 9862,17348 9821,17548 9813,17698 9813,17704 9809,17786 9803,17947 10084,17907 10358,17852 10622,17781 10677,17766 10734,17751 10790,17734 10797,17732 10804,17729 10811,17728 10805,17721 10802,17715 10800,17712 L 10797,17709 10797,17709 C 10753,17648 10723,17564 10707,17454 10695,17380 10749,17272 10870,17132 10944,17045 11083,16908 11285,16721 11565,16464 11869,16276 12198,16159 12725,16022 13084,15936 13275,15899 13643,15832 13901,15790 14050,15772 14077,15746 14103,15720 14130,15696 14424,15416 14712,15110 14998,14780 L 14998,14778 14998,14778 C 14998,14661 14994,14545 14986,14431 Z"/></g><g style="stroke:none;fill:rgb(187,0,0)"><path d="M 14932,15584 L 14932,15584 C 14960,15416 14979,15243 14989,15068 14995,14972 14998,14877 14998,14780 14712,15110 14424,15416 14130,15696 14103,15720 14077,15746 14050,15772 14051,15771 14052,15771 14053,15771 14238,15751 14519,15731 14898,15712 14890,15775 14870,15870 14838,15998 14830,16032 14821,16064 14814,16092 14863,15926 14901,15757 14932,15584 Z"/></g><g style="stroke:none;fill:rgb(102,102,102)"><path d="M 14053,15771 L 14053,15771 C 14052,15771 14051,15771 14050,15772 13901,15790 13643,15832 13275,15899 13084,15936 12725,16022 12198,16159 11869,16276 11565,16464 11285,16721 11083,16908 10944,17045 10870,17132 10749,17272 10695,17380 10707,17454 10723,17564 10753,17648 10797,17709 L 10797,17709 10800,17712 10800,17711 10800,17711 C 11516,17432 12097,17162 12542,16904 12971,16653 13400,16343 13830,15972 L 13964,15853 13964,15853 C 13993,15826 14024,15798 14053,15771 Z"/></g><g style="stroke:none;fill:rgb(136,79,0)"><path d="M 13964,15853 L 13830,15972 13830,15972 C 13400,16343 12971,16653 12542,16904 12097,17162 11516,17432 10800,17711 L 10800,17712 10800,17712 C 10802,17715 10805,17721 10811,17728 10832,17752 10875,17796 10937,17861 11038,17965 11192,18014 11396,18008 L 11442,18007 11442,18007 C 11502,18003 11565,17995 11633,17982 12020,17913 12287,17791 12429,17613 L 12751,17233 12751,17233 C 12928,17067 13128,16910 13352,16760 13921,16380 14391,16205 14767,16234 14768,16231 14771,16227 14774,16222 14788,16178 14801,16136 14814,16092 14821,16064 14830,16032 14838,15998 14870,15870 14890,15775 14898,15712 14519,15731 14238,15751 14053,15771 14024,15798 13993,15826 13964,15853 Z"/></g><g style="stroke:none;fill:rgb(187,0,0)"><path d="M 14774,16222 L 14774,16222 C 14771,16227 14768,16231 14767,16234 14391,16205 13921,16380 13352,16760 13128,16910 12928,17067 12751,17233 L 12429,17613 12429,17613 C 12287,17791 12020,17913 11633,17982 11565,17995 11502,18003 11442,18007 L 11396,18008 11396,18008 C 11192,18014 11038,17965 10937,17861 10875,17796 10832,17752 10811,17728 10804,17729 10797,17732 10790,17734 10734,17751 10677,17766 10622,17781 10358,17852 10084,17907 9803,17947 9809,17786 9813,17704 9813,17698 9821,17548 9862,17348 9934,17098 9953,17031 10036,16866 10184,16604 10314,16372 10377,16231 10373,16180 10365,16180 10358,16182 10351,16184 10119,16250 9929,16398 9781,16627 9781,16631 9747,16698 9680,16830 9605,16998 9553,17174 9521,17358 9506,17559 9549,17761 9654,17966 9368,18000 9075,18020 8773,18023 8488,18027 7973,18006 7229,17958 7232,17961 7237,17966 7242,17971 7494,18221 7761,18436 8044,18616 8191,18709 8343,18794 8499,18868 8535,18886 8572,18903 8608,18920 9172,19169 9787,19294 10455,19294 11709,19294 12780,18853 13666,17971 L 13666,17971 C 13840,17798 13998,17616 14139,17429 14261,17267 14368,17100 14464,16927 14590,16700 14692,16465 14774,16222 Z"/></g><g style="stroke:none;fill:rgb(255,153,68)"><path d="M 9256,11865 L 9256,11865 C 8961,11617 8597,11536 8162,11622 7727,11708 7349,11935 7026,12303 6703,12671 6531,13073 6511,13508 6491,13945 6626,14286 6921,14534 7215,14782 7579,14863 8014,14777 8449,14692 8828,14466 9151,14098 9473,13728 9645,13326 9665,12891 9685,12454 9548,12113 9256,11865 Z"/></g><g style="stroke:none;fill:rgb(238,238,0)"><path d="M 8627,12588 L 8627,12588 C 8619,12364 8531,12207 8361,12116 8192,12026 7992,12028 7761,12123 7531,12219 7337,12380 7179,12604 7022,12830 6948,13055 6956,13278 6964,13501 7055,13658 7224,13749 7393,13839 7593,13837 7824,13742 8055,13647 8247,13485 8405,13261 8562,13035 8636,12810 8627,12588 Z"/></g><g style="stroke:none;fill:rgb(187,0,0)"><path d="M 13202,12499 L 13202,12499 C 13182,12391 13166,12299 13156,12224 13149,12175 13125,12158 13084,12175 13044,12191 13021,12222 13015,12266 13003,12350 13008,12482 13028,12664 13034,12716 13037,12799 13038,12914 13038,12927 13038,12942 13039,12956 13136,12962 13227,12978 13317,13003 L 13317,13003 13459,13144 13501,13376 13501,13376 C 13574,13363 13656,13340 13747,13307 13867,13247 13929,13217 13932,13214 13979,13186 13972,13163 13911,13144 13851,13126 13782,13125 13700,13143 13587,13151 13506,13139 13459,13107 13370,13050 13299,12924 13246,12731 13232,12678 13217,12602 13202,12499 Z"/></g><g style="stroke:none;fill:rgb(136,34,0)"><path d="M 13317,13003 L 13317,13003 C 13227,12978 13136,12962 13039,12956 13043,13031 13052,13109 13068,13187 13128,13351 13272,13413 13501,13376 L 13501,13376 13459,13144 13317,13003 Z"/><path d="M 11537,13857 L 11537,13857 C 11540,13851 11543,13845 11543,13838 11471,13775 11380,13710 11272,13638 11219,13603 11162,13566 11100,13530 11073,13513 11046,13497 11017,13480 11004,13472 10991,13465 10979,13458 10970,13453 10963,13448 10955,13445 10925,13488 10898,13537 10873,13591 10828,13690 10812,13799 10825,13918 10878,14020 10938,14109 11006,14184 11015,14181 11024,14179 11035,14175 11071,14165 11108,14153 11144,14140 11223,14108 11295,14071 11359,14025 11426,13977 11486,13921 11537,13857 Z"/></g><g style="stroke:none;fill:rgb(187,0,0)"><path d="M 9388,13554 L 9388,13554 C 9309,13546 9244,13554 9199,13579 9190,13648 9200,13700 9227,13735 L 9229,13738 9229,13738 C 9233,13741 9239,13744 9244,13744 L 9246,13744 9246,13744 C 9732,13730 10196,13811 10639,13988 10643,13990 10644,13994 10644,14002 10389,14313 10138,14613 9891,14901 9887,14907 9885,14913 9885,14920 10075,14902 10248,14792 10401,14586 10589,14511 10685,14473 10691,14473 10760,14388 10840,14309 10929,14238 10942,14227 10956,14218 10969,14207 10973,14204 10975,14198 10975,14191 10986,14188 10995,14186 11006,14184 10938,14109 10878,14020 10825,13918 10812,13799 10828,13690 10873,13591 10898,13537 10925,13488 10955,13445 10796,13354 10613,13258 10406,13156 10302,13020 10122,12894 9865,12776 9893,12930 9974,13101 10106,13291 10108,13294 10113,13297 10122,13297 10317,13371 10489,13467 10638,13586 10641,13590 10644,13595 10644,13603 10358,13634 9939,13619 9388,13554 Z"/></g></g></g></g></svg>