<?xml version="1.0" encoding="UTF-8"?>
<!DOCTYPE svg PUBLIC "-//W3C//DTD SVG 1.1//EN" "http://www.w3.org/Graphics/SVG/1.1/DTD/svg11.dtd"><svg version="1.1" viewBox="0 0 21000 29700" preserveAspectRatio="xMidYMid" fill-rule="evenodd" xmlns="http://www.w3.org/2000/svg" xmlns:xlink="http://www.w3.org/1999/xlink"><g visibility="visible" id="Default"><desc>Master slide</desc><g style="stroke:none;fill:none"><rect x="0" y="0" width="21000" height="29700"/></g></g><g visibility="visible" id="page1"><desc>Slide</desc><g><desc>Graphic</desc><g><g style="stroke:none;fill:rgb(238,17,17)"><path d="M 12718,10850 L 12718,10850 C 12758,11106 12946,11233 13274,11233 13095,11088 12909,10961 12718,10850 Z"/></g><g style="stroke:none;fill:rgb(187,0,0)"><path d="M 13274,11233 L 13274,11233 C 12946,11233 12758,11106 12718,10850 12646,10808 12572,10767 12500,10730 12475,10730 12451,10730 12425,10730 12425,10823 12425,10919 12425,11012 12425,11060 12425,11106 12425,11153 12425,11201 12425,11247 12425,11294 12473,11294 12519,11294 12567,11294 13102,11328 13455,11555 13625,11979 13631,11993 13655,12000 13703,12000 13845,12093 13975,12199 14094,12317 14117,12340 14129,12376 14129,12423 14177,12423 14223,12423 14271,12423 14294,12423 14319,12423 14344,12423 14157,12127 13932,11846 13668,11584 13602,11520 13536,11458 13471,11398 13405,11340 13339,11286 13274,11233 Z"/></g><g style="stroke:none;fill:rgb(238,17,17)"><path d="M 12298,11182 L 12298,11182 C 12335,11162 12377,11153 12425,11153 12425,11106 12425,11060 12425,11012 12425,10919 12425,10823 12425,10730 12451,10730 12475,10730 12500,10730 12435,10696 12368,10666 12303,10637 11738,10386 11123,10261 10456,10263 9731,10261 9068,10407 8466,10702 8446,10711 8429,10721 8409,10730 8423,10730 8438,10730 8450,10730 8450,10778 8452,10823 8457,10871 8506,11204 8408,11393 8167,11436 8167,11483 8168,11529 8174,11577 8221,11958 7934,12240 7314,12423 7266,12423 7221,12423 7173,12423 7173,12471 7161,12508 7137,12536 6952,12771 6727,12968 6462,13129 6462,13081 6462,13035 6462,12988 6462,12894 6462,12799 6462,12705 6441,12705 6420,12707 6401,12713 6394,12725 6387,12737 6381,12750 L 6134,13342 6134,13342 C 6132,13346 6132,13349 6131,13355 6129,13358 6127,13362 6127,13365 6125,13370 6123,13374 6122,13379 6120,13385 6118,13390 6116,13395 6115,13399 6115,13402 6113,13406 6109,13416 6106,13427 6104,13437 5974,13857 5911,14304 5913,14778 5913,15616 6113,16371 6513,17043 10309,19602 13132,18981 14983,15177 14984,15140 14988,15104 14990,15067 14995,14972 14998,14875 14998,14778 14998,14660 14995,14545 14986,14431 14963,14083 14902,13753 14807,13437 14698,13079 14544,12743 14344,12423 14319,12423 14294,12423 14271,12423 14223,12423 14177,12423 14129,12423 14129,12376 14117,12340 14094,12317 13975,12199 13845,12093 13703,12000 13703,12048 13696,12092 13682,12134 13568,12436 13385,12437 13135,12141 13087,12141 13041,12143 12993,12148 12331,12185 11952,11949 11857,11436 L 11857,11436 C 12000,11342 12147,11257 12298,11182 Z"/></g><g style="stroke:none;fill:rgb(244,71,36)"><path d="M 12425,11153 L 12425,11153 C 12377,11153 12335,11162 12298,11182 12147,11257 12000,11342 11857,11436 11952,11949 12331,12185 12993,12148 13041,12143 13087,12141 13135,12141 13135,12093 13123,12058 13100,12035 12981,11917 12851,11811 12709,11718 12661,11718 12623,11730 12588,11753 12314,11931 12165,11825 12142,11436 12235,11436 12321,11416 12397,11379 12416,11370 12425,11342 12425,11294 12425,11247 12425,11201 12425,11153 Z"/></g><g style="stroke:none;fill:rgb(236,106,47)"><path d="M 12688,11584 L 12688,11584 C 12702,11626 12709,11670 12709,11718 12851,11811 12981,11917 13100,12035 13123,12058 13135,12093 13135,12141 13385,12437 13568,12436 13682,12134 13696,12092 13703,12048 13703,12000 13655,12000 13631,11993 13625,11979 13455,11555 13102,11328 12567,11294 12616,11388 12654,11485 12688,11584 Z"/></g><g style="stroke:none;fill:rgb(245,121,55)"><path d="M 12709,11718 L 12709,11718 C 12709,11670 12702,11626 12688,11584 12654,11485 12616,11388 12567,11294 12519,11294 12473,11294 12425,11294 12425,11342 12416,11370 12397,11379 12321,11416 12235,11436 12142,11436 12165,11825 12314,11931 12588,11753 12623,11730 12661,11718 12709,11718 Z"/></g><g style="stroke:none;fill:rgb(159,16,9)"><path d="M 8025,10950 L 8025,10950 C 8009,11007 7964,11037 7895,11039 7844,11074 7791,11111 7740,11150 7740,11152 7740,11152 7740,11153 7732,11309 7826,11379 8025,11365 L 8025,11436 8025,11436 C 8072,11436 8118,11436 8167,11436 8408,11393 8506,11204 8457,10871 8452,10823 8450,10778 8450,10730 8438,10730 8423,10730 8409,10730 8278,10797 8151,10871 8025,10950 Z"/></g><g style="stroke:none;fill:rgb(238,17,17)"><path d="M 7895,11039 L 7895,11039 C 7964,11037 8009,11007 8025,10950 L 7927,11016 7927,11016 C 7914,11023 7904,11030 7893,11039 L 7895,11039 Z"/><path d="M 7735,11153 L 7735,11153 C 7737,11153 7739,11153 7740,11153 7740,11152 7740,11152 7740,11150 7739,11152 7737,11152 7735,11153 Z"/></g><g style="stroke:none;fill:rgb(187,0,0)"><path d="M 7740,11153 L 7740,11153 C 7739,11153 7737,11153 7735,11153 7565,11282 7400,11427 7242,11584 7169,11656 7098,11732 7031,11808 6819,12044 6638,12293 6487,12556 6711,12460 6883,12316 7003,12120 7022,12086 7031,12048 7031,12000 7124,11952 7222,11914 7322,11880 7364,11866 7408,11859 7456,11859 7456,11811 7456,11765 7456,11718 7456,11670 7456,11624 7456,11577 7641,11571 7790,11536 7904,11471 7937,11448 7977,11436 8025,11436 L 8025,11365 8025,11365 C 7826,11379 7732,11309 7740,11153 Z"/></g><g style="stroke:none;fill:rgb(213,103,48)"><path d="M 7421,11965 L 7421,11965 C 7444,11942 7456,11906 7456,11859 7408,11859 7364,11866 7322,11880 7222,11914 7124,11952 7031,12000 7031,12048 7022,12086 7003,12120 6883,12316 6711,12460 6487,12556 6478,12568 6471,12582 6462,12598 6462,12633 6462,12668 6462,12705 6462,12799 6462,12894 6462,12988 6462,13035 6462,13081 6462,13129 6727,12968 6952,12771 7137,12536 7161,12508 7173,12471 7173,12423 7173,12376 7173,12330 7173,12282 7173,12235 7173,12189 7173,12141 7266,12093 7350,12035 7421,11965 Z"/></g><g style="stroke:none;fill:rgb(243,105,49)"><path d="M 7456,11859 L 7456,11859 C 7456,11906 7444,11942 7421,11965 7350,12035 7266,12093 7173,12141 7173,12189 7173,12235 7173,12282 7173,12330 7173,12376 7173,12423 7221,12423 7266,12423 7314,12423 7314,12376 7314,12330 7314,12282 7598,12093 7826,11854 7996,11563 8016,11525 8025,11483 8025,11436 7977,11436 7937,11448 7904,11471 7790,11536 7641,11571 7456,11577 7456,11624 7456,11670 7456,11718 7456,11765 7456,11811 7456,11859 Z"/></g><g style="stroke:none;fill:rgb(79,57,24)"><path d="M 6462,12705 L 6462,12705 C 6462,12668 6462,12633 6462,12598 6441,12635 6420,12674 6401,12713 6420,12707 6441,12705 6462,12705 Z"/></g><g style="stroke:none;fill:rgb(246,60,33)"><path d="M 7314,12282 L 7314,12282 C 7314,12330 7314,12376 7314,12423 7934,12240 8221,11958 8174,11577 8168,11529 8167,11483 8167,11436 8118,11436 8072,11436 8025,11436 8025,11483 8016,11525 7996,11563 7826,11854 7598,12093 7314,12282 Z"/></g><g style="stroke:none;fill:rgb(187,0,0)"><path d="M 6513,17043 L 6513,17043 C 6706,17366 6943,17671 7229,17956 7233,17962 7236,17965 7242,17971 7494,18221 7761,18436 8044,18616 8191,18710 8344,18792 8498,18868 8536,18886 8573,18904 8610,18919 9173,19168 9788,19293 10456,19293 11348,19293 12147,19071 12853,18625 13022,18517 13187,18397 13345,18265 13455,18172 13562,18075 13668,17971 13841,17796 13999,17616 14140,17429 14261,17267 14368,17099 14465,16926 14695,16508 14851,16062 14933,15584 14942,15529 14949,15473 14958,15417 14961,15381 14965,15346 14970,15311 14975,15267 14979,15221 14983,15177 13132,18981 10309,19602 6513,17043 Z"/></g><g style="stroke:none;fill:rgb(230,57,57)"><path d="M 12924,13316 L 12924,13316 C 12924,13269 12924,13223 12924,13175 13018,13175 13104,13156 13180,13119 13199,13110 13208,13082 13208,13034 13161,13034 13115,13039 13066,13048 12876,13085 12688,13127 12499,13175 12499,13457 12522,13734 12569,14008 12569,14016 12592,14022 12641,14022 12688,14022 12724,14009 12747,13986 12770,13964 12783,13928 12783,13881 12783,13833 12783,13787 12783,13740 12783,13692 12774,13650 12754,13613 12725,13556 12688,13505 12641,13457 12734,13457 12820,13438 12896,13401 12915,13392 12924,13364 12924,13316 Z"/></g><g style="stroke:none;fill:rgb(230,109,109)"><path d="M 12924,13175 L 12924,13175 C 12924,13223 12924,13269 12924,13316 13018,13316 13115,13316 13208,13316 13257,13316 13303,13316 13350,13316 13501,13307 13572,13401 13563,13598 L 13634,13598 13634,13598 C 13634,13551 13634,13505 13634,13457 13682,13457 13717,13445 13740,13422 13764,13399 13777,13364 13777,13316 13728,13316 13703,13309 13698,13295 13627,13103 13464,13015 13208,13034 13208,13082 13199,13110 13180,13119 13104,13156 13018,13175 12924,13175 Z"/></g><g style="stroke:none;fill:rgb(255,255,255)"><path d="M 12924,13316 L 12924,13316 C 12924,13364 12915,13392 12896,13401 12820,13438 12734,13457 12641,13457 12688,13505 12725,13556 12754,13613 12774,13650 12783,13692 12783,13740 12783,13787 12783,13833 12783,13881 12973,13928 13161,13971 13350,14008 13398,14016 13445,14022 13492,14022 13643,14036 13696,13939 13649,13732 13640,13690 13634,13646 13634,13598 L 13563,13598 13563,13598 C 13572,13401 13501,13307 13350,13316 13303,13316 13257,13316 13208,13316 13115,13316 13018,13316 12924,13316 Z"/></g><g style="stroke:none;fill:rgb(207,74,74)"><path d="M 13634,13598 L 13634,13598 C 13634,13646 13640,13690 13649,13732 13696,13939 13643,14036 13492,14022 13492,14069 13480,14105 13457,14128 13434,14151 13398,14163 13350,14163 13350,14210 13350,14256 13350,14304 13398,14304 13434,14316 13457,14339 13480,14362 13492,14397 13492,14445 13933,14143 14054,13777 13861,13344 13852,13325 13824,13316 13777,13316 13777,13364 13764,13399 13740,13422 13717,13445 13682,13457 13634,13457 13634,13505 13634,13551 13634,13598 Z"/></g><g style="stroke:none;fill:rgb(0,0,0)"><path d="M 13492,14022 L 13492,14022 C 13445,14022 13398,14016 13350,14008 13161,13971 12973,13928 12783,13881 12783,13928 12770,13964 12747,13986 12724,14009 12688,14022 12641,14022 12641,14069 12628,14105 12605,14128 12582,14151 12546,14163 12499,14163 12499,14210 12499,14256 12499,14304 12612,14614 12937,14687 13471,14523 13485,14517 13492,14493 13492,14445 13492,14397 13480,14362 13457,14339 13434,14316 13398,14304 13350,14304 13350,14256 13350,14210 13350,14163 13398,14163 13434,14151 13457,14128 13480,14105 13492,14069 13492,14022 Z"/></g><g style="stroke:none;fill:rgb(205,8,7)"><path d="M 11930,16844 L 11930,16844 C 11883,16844 11837,16842 11789,16837 11533,16823 11343,16872 11221,16985 11221,17033 11221,17078 11221,17126 11268,17174 11320,17211 11377,17239 11414,17258 11457,17267 11505,17267 11666,17239 11780,17154 11846,17013 11854,16994 11883,16985 11930,16985 11930,16937 11930,16892 11930,16844 Z"/></g><g style="stroke:none;fill:rgb(189,31,7)"><path d="M 11930,16703 L 11930,16703 C 11930,16750 11930,16796 11930,16844 11930,16892 11930,16937 11930,16985 12262,16892 12583,16779 12896,16646 12915,16638 12924,16609 12924,16562 12876,16562 12830,16562 12783,16562 12734,16562 12688,16562 12641,16562 12592,16562 12546,16567 12499,16576 12309,16613 12121,16655 11930,16703 Z"/></g><g style="stroke:none;fill:rgb(151,44,1)"><path d="M 11930,16985 L 11930,16985 C 11883,16985 11854,16994 11846,17013 11780,17154 11666,17239 11505,17267 11505,17315 11505,17361 11505,17408 11642,17549 11654,17698 11540,17853 11517,17886 11505,17925 11505,17973 11879,17685 12348,17477 12910,17345 12919,17340 12924,17315 12924,17267 13213,16985 13485,16694 13740,16392 13764,16364 13777,16327 13777,16279 13728,16279 13684,16272 13642,16258 13452,16188 13213,16288 12924,16562 12924,16609 12915,16638 12896,16646 12583,16779 12262,16892 11930,16985 Z"/></g><g style="stroke:none;fill:rgb(198,20,8)"><path d="M 12641,16562 L 12641,16562 C 12688,16562 12734,16562 12783,16562 12830,16562 12876,16562 12924,16562 13213,16288 13452,16188 13642,16258 13684,16272 13728,16279 13777,16279 13807,16279 13833,16274 13852,16265 13854,16258 13854,16251 13856,16244 L 13909,16202 13909,16202 C 13914,16182 13919,16161 13919,16138 13870,16138 13826,16131 13784,16117 13352,15943 12973,16045 12641,16421 12641,16468 12641,16514 12641,16562 Z"/></g><g style="stroke:none;fill:rgb(204,18,8)"><path d="M 6961,15997 L 6961,15997 C 6961,16045 6961,16091 6961,16138 7146,16144 7295,16179 7409,16244 7442,16267 7482,16279 7530,16279 7771,16322 7969,16405 8126,16526 8155,16549 8192,16562 8239,16562 8239,16514 8231,16475 8211,16442 7999,16094 7581,15946 6961,15997 Z"/></g><g style="stroke:none;fill:rgb(162,38,1)"><path d="M 6961,16138 L 6961,16138 C 6961,16186 6949,16221 6926,16244 6903,16267 6868,16279 6819,16279 7010,16562 7212,16832 7430,17091 7449,17114 7482,17126 7530,17126 7530,17078 7525,17033 7516,16985 7478,16796 7435,16609 7388,16421 7435,16421 7482,16421 7530,16421 7530,16373 7530,16327 7530,16279 7482,16279 7442,16267 7409,16244 7295,16179 7146,16144 6961,16138 Z"/></g><g style="stroke:none;fill:rgb(149,47,3)"><path d="M 7530,16421 L 7530,16421 C 7482,16421 7435,16421 7388,16421 7435,16609 7478,16796 7516,16985 7525,17033 7530,17078 7530,17126 8155,17211 8599,17484 8864,17945 8873,17964 8901,17973 8949,17973 9200,18147 9446,18324 9688,18502 9716,18525 9753,18537 9802,18537 9802,18490 9802,18444 9802,18396 9986,18391 10135,18355 10248,18290 10282,18267 10321,18255 10369,18255 10369,18207 10357,18172 10334,18149 10311,18126 10275,18114 10227,18114 10179,18114 10133,18114 10085,18114 9637,18091 9352,17902 9233,17549 9281,17549 9317,17537 9340,17514 9363,17491 9375,17456 9375,17408 9375,17361 9375,17315 9375,17267 9375,17220 9375,17174 9375,17126 9328,17126 9281,17126 9233,17126 9186,17126 9140,17128 9091,17133 8836,17147 8694,17050 8666,16844 8617,16844 8573,16839 8531,16830 L 8531,16830 C 8156,16736 7823,16599 7530,16421 Z"/></g><g style="stroke:none;fill:rgb(192,22,5)"><path d="M 8666,16844 L 8666,16844 C 8713,16844 8749,16832 8772,16809 8794,16786 8808,16750 8808,16703 8759,16703 8731,16694 8722,16675 8657,16533 8495,16496 8239,16562 8192,16562 8155,16549 8126,16526 7969,16405 7771,16322 7530,16279 7530,16327 7530,16373 7530,16421 7823,16599 8156,16736 8531,16830 8573,16839 8617,16844 8666,16844 Z"/></g><g style="stroke:none;fill:rgb(206,3,4)"><path d="M 8772,16809 L 8772,16809 C 8749,16832 8713,16844 8666,16844 8694,17050 8836,17147 9091,17133 9140,17128 9186,17126 9233,17126 9233,17078 9245,17040 9268,17006 9377,16856 9224,16754 8808,16703 8808,16750 8794,16786 8772,16809 Z"/></g><g style="stroke:none;fill:rgb(185,49,51)"><path d="M 11377,17239 L 11377,17239 C 11320,17211 11268,17174 11221,17126 11173,17126 11127,17126 11079,17126 10511,17126 9943,17126 9375,17126 9375,17174 9375,17220 9375,17267 9849,17267 10320,17290 10788,17338 10794,17338 10795,17361 10795,17408 10889,17361 10985,17338 11079,17338 L 11079,17408 11079,17408 C 11173,17408 11268,17408 11363,17408 11410,17408 11457,17408 11505,17408 11505,17361 11505,17315 11505,17267 11457,17267 11414,17258 11377,17239 Z"/></g><g style="stroke:none;fill:rgb(125,77,23)"><path d="M 11505,17408 L 11505,17408 C 11457,17408 11410,17408 11363,17408 11268,17408 11173,17408 11079,17408 11306,17549 11365,17661 11256,17740 11233,17754 11221,17784 11221,17832 11221,17879 11219,17902 11214,17902 10887,17950 10559,17973 10227,17973 10227,18020 10227,18066 10227,18114 10275,18114 10311,18126 10334,18149 10357,18172 10369,18207 10369,18255 10562,18119 10846,18070 11221,18107 11268,18112 11315,18114 11363,18114 11410,18114 11447,18102 11470,18079 11493,18056 11505,18020 11505,17973 11505,17925 11517,17886 11540,17853 11654,17698 11642,17549 11505,17408 Z"/></g><g style="stroke:none;fill:rgb(108,98,90)"><path d="M 11079,17408 L 11079,17338 11079,17338 C 10985,17338 10889,17361 10795,17408 10747,17408 10701,17408 10653,17408 10275,17408 9895,17408 9517,17408 9725,17860 10246,18006 11079,17846 11127,17837 11173,17832 11221,17832 11221,17784 11233,17754 11256,17740 11365,17661 11306,17549 11079,17408 Z"/></g><g style="stroke:none;fill:rgb(108,94,46)"><path d="M 11214,17902 L 11214,17902 C 11219,17902 11221,17879 11221,17832 11173,17832 11127,17837 11079,17846 10246,18006 9725,17860 9517,17408 9470,17408 9423,17408 9375,17408 9375,17456 9363,17491 9340,17514 9317,17537 9281,17549 9233,17549 9352,17902 9637,18091 10085,18114 10133,18114 10179,18114 10227,18114 10227,18066 10227,18020 10227,17973 10559,17973 10887,17950 11214,17902 Z"/></g><g style="stroke:none;fill:rgb(163,32,0)"><path d="M 11363,18114 L 11363,18114 C 11315,18114 11268,18112 11221,18107 10846,18070 10562,18119 10369,18255 10321,18255 10282,18267 10248,18290 10135,18355 9986,18391 9802,18396 9802,18444 9802,18490 9802,18537 10644,18715 11155,18617 11335,18241 11354,18204 11363,18161 11363,18114 Z"/></g><g style="stroke:none;fill:rgb(147,75,79)"><path d="M 10653,17408 L 10653,17408 C 10701,17408 10747,17408 10795,17408 10795,17361 10794,17338 10788,17338 10320,17290 9849,17267 9375,17267 9375,17315 9375,17361 9375,17408 9423,17408 9470,17408 9517,17408 9895,17408 10275,17408 10653,17408 Z"/></g><g style="stroke:none;fill:rgb(223,99,99)"><path d="M 8843,13436 L 8843,13436 C 8820,13403 8808,13364 8808,13316 8759,13316 8713,13316 8666,13316 8617,13316 8571,13316 8524,13316 8524,13364 8536,13396 8559,13415 8715,13537 8657,13646 8382,13740 8429,13833 8488,13916 8559,13986 8582,14009 8617,14022 8666,14022 8666,13974 8666,13928 8666,13881 8940,13801 8999,13653 8843,13436 Z"/></g><g style="stroke:none;fill:rgb(237,41,41)"><path d="M 7530,13175 L 7530,13175 C 7530,13223 7530,13269 7530,13316 7530,13364 7530,13410 7530,13457 7720,13226 8046,13156 8509,13246 8518,13246 8524,13269 8524,13316 8571,13316 8617,13316 8666,13316 8713,13316 8759,13316 8808,13316 8808,13269 8798,13239 8779,13224 8373,12979 7955,12963 7530,13175 Z"/></g><g style="stroke:none;fill:rgb(190,57,57)"><path d="M 7530,13740 L 7458,13740 7458,13740 C 7467,13942 7397,14036 7246,14022 7374,14459 7705,14671 8239,14657 L 8239,14657 8239,14586 8239,14516 8239,14516 C 8036,14530 7941,14459 7955,14304 7955,14256 7955,14210 7955,14163 7908,14163 7862,14165 7814,14170 7539,14207 7444,14064 7530,13740 Z"/></g><g style="stroke:none;fill:rgb(229,118,118)"><path d="M 7686,13627 L 7686,13627 C 7723,13607 7765,13598 7814,13598 7814,13551 7814,13505 7814,13457 7936,13344 8126,13295 8382,13309 8429,13314 8476,13316 8524,13316 8524,13269 8518,13246 8509,13246 8046,13156 7720,13226 7530,13457 7530,13505 7530,13551 7530,13598 7530,13646 7530,13692 7530,13740 7577,13692 7629,13655 7686,13627 Z"/></g><g style="stroke:none;fill:rgb(167,144,144)"><path d="M 7814,13598 L 7814,13598 C 7765,13598 7723,13607 7686,13627 7629,13655 7577,13692 7530,13740 7444,14064 7539,14207 7814,14170 7862,14165 7908,14163 7955,14163 8004,14115 8041,14064 8069,14008 8088,13971 8097,13928 8097,13881 8050,13881 8014,13868 7991,13845 7920,13775 7862,13692 7814,13598 Z"/></g><g style="stroke:none;fill:rgb(255,255,255)"><path d="M 7814,13457 L 7814,13457 C 7814,13505 7814,13551 7814,13598 7862,13692 7920,13775 7991,13845 8014,13868 8050,13881 8097,13881 8146,13833 8197,13796 8254,13768 8291,13748 8334,13740 8382,13740 8657,13646 8715,13537 8559,13415 8536,13396 8524,13364 8524,13316 8476,13316 8429,13314 8382,13309 8126,13295 7936,13344 7814,13457 Z"/></g><g style="stroke:none;fill:rgb(0,0,0)"><path d="M 8097,13881 L 8097,13881 C 8097,13928 8088,13971 8069,14008 8041,14064 8004,14115 7955,14163 7955,14210 7955,14256 7955,14304 7941,14459 8036,14530 8239,14516 L 8239,14586 8239,14586 C 8585,14600 8750,14461 8736,14170 8736,14165 8713,14163 8666,14163 8666,14115 8666,14069 8666,14022 8617,14022 8582,14009 8559,13986 8488,13916 8429,13833 8382,13740 8334,13740 8291,13748 8254,13768 8197,13796 8146,13833 8097,13881 Z"/></g></g></g></g></svg>