<?xml version="1.0" encoding="UTF-8"?>
<!DOCTYPE svg PUBLIC "-//W3C//DTD SVG 1.1//EN" "http://www.w3.org/Graphics/SVG/1.1/DTD/svg11.dtd"><svg version="1.1" viewBox="0 0 21000 29700" preserveAspectRatio="xMidYMid" fill-rule="evenodd" xmlns="http://www.w3.org/2000/svg" xmlns:xlink="http://www.w3.org/1999/xlink"><g visibility="visible" id="Default"><desc>Master slide</desc><g style="stroke:none;fill:none"><rect x="0" y="0" width="21000" height="29700"/></g></g><g visibility="visible" id="page1"><desc>Slide</desc><g><desc>Graphic</desc><g><g style="stroke:none;fill:rgb(187,0,0)"><path d="M 14131,15696 L 14131,15696 C 14105,15720 14077,15745 14051,15771 14051,15771 14053,15771 14054,15771 14025,15798 13995,15826 13965,15853 L 13831,15971 13831,15971 C 13796,16001 13761,16031 13724,16061 13329,16392 12936,16673 12543,16904 12097,17163 11517,17431 10801,17710 L 10801,17712 10801,17712 C 10802,17715 10808,17721 10813,17728 10804,17729 10797,17733 10790,17735 10734,17750 10678,17765 10623,17780 10358,17851 10085,17906 9803,17946 9419,17994 9077,18019 8773,18024 8488,18027 7973,18004 7230,17957 7233,17962 7237,17966 7242,17971 7495,18221 7762,18437 8044,18617 8192,18710 8344,18793 8499,18869 8536,18886 8573,18904 8610,18920 9173,19169 9788,19294 10456,19294 11710,19294 12781,18853 13668,17971 13842,17796 14000,17616 14140,17429 14261,17267 14369,17100 14465,16927 14502,16862 14535,16794 14567,16727 14648,16563 14716,16394 14776,16221 14790,16177 14804,16135 14816,16091 14864,15927 14903,15757 14934,15585 14962,15415 14981,15242 14990,15068 14995,14972 14999,14875 14999,14778 14713,15110 14424,15415 14131,15696 Z"/></g><g style="stroke:none;fill:rgb(238,17,17)"><path d="M 14051,15771 L 14051,15771 C 14077,15745 14105,15720 14131,15696 14424,15415 14713,15110 14999,14778 14999,14687 14997,14597 14992,14507 14990,14480 14988,14456 14987,14431 14911,13332 14472,12383 13668,11584 12781,10702 11710,10261 10456,10263 9201,10261 8129,10702 7242,11584 6355,12466 5911,13531 5913,14778 5913,16018 6352,17078 7230,17957 7973,18004 8488,18027 8773,18024 9077,18019 9419,17994 9803,17946 10085,17906 10358,17851 10623,17780 10678,17765 10734,17750 10790,17735 10797,17733 10804,17729 10813,17728 10808,17721 10802,17715 10801,17712 L 10801,17710 10801,17710 C 11517,17431 12097,17163 12543,16904 12936,16673 13329,16392 13724,16061 13761,16031 13796,16001 13831,15971 L 13965,15853 13965,15853 C 13995,15826 14025,15798 14054,15771 14053,15771 14051,15771 14051,15771 Z"/></g><g style="stroke:none;fill:rgb(255,153,68)"><path d="M 9256,11865 L 9256,11865 C 8961,11617 8597,11536 8162,11622 7727,11708 7349,11935 7026,12303 6703,12671 6531,13073 6511,13508 6491,13945 6626,14286 6921,14534 7215,14782 7579,14863 8014,14777 8449,14692 8828,14466 9151,14098 9473,13728 9645,13326 9665,12891 9685,12454 9548,12113 9256,11865 Z"/></g><g style="stroke:none;fill:rgb(238,238,0)"><path d="M 8627,12588 L 8627,12588 C 8619,12364 8531,12207 8361,12116 8192,12026 7992,12028 7761,12123 7531,12219 7337,12380 7179,12604 7022,12830 6948,13055 6956,13278 6964,13501 7055,13658 7224,13749 7393,13839 7593,13837 7824,13742 8055,13647 8247,13485 8405,13261 8562,13035 8636,12810 8627,12588 Z"/></g><g style="stroke:none;fill:rgb(187,0,0)"><path d="M 12425,12348 L 12425,12348 C 12413,12431 12418,12565 12440,12746 12446,12798 12449,12881 12451,12997 12451,13009 12451,13023 12451,13038 12546,13043 12639,13059 12727,13085 L 12727,13085 12869,13226 12912,13457 12912,13457 C 12985,13445 13068,13422 13159,13389 13278,13329 13340,13299 13343,13297 13391,13269 13384,13246 13324,13226 13264,13207 13192,13207 13111,13224 12997,13233 12917,13221 12869,13189 12781,13131 12710,13006 12658,12814 12644,12761 12630,12683 12614,12581 12592,12473 12576,12381 12567,12306 12560,12256 12537,12240 12497,12256 12456,12272 12432,12304 12425,12348 Z"/></g><g style="stroke:none;fill:rgb(136,34,0)"><path d="M 12869,13226 L 12727,13085 12727,13085 C 12639,13059 12546,13043 12451,13038 12453,13113 12463,13189 12479,13269 12537,13433 12683,13494 12912,13457 L 12869,13226 Z"/></g><g style="stroke:none;fill:rgb(187,0,0)"><path d="M 9290,13140 L 9290,13140 C 9291,13143 9296,13147 9305,13149 9484,13254 9637,13380 9762,13523 9764,13526 9765,13531 9764,13540 9479,13521 9068,13433 8536,13276 8459,13253 8396,13251 8346,13267 8327,13334 8327,13387 8346,13427 L 8350,13429 8350,13429 C 8352,13433 8357,13436 8364,13438 8845,13507 9288,13667 9693,13919 9695,13919 9697,13925 9695,13934 9391,14195 9091,14447 8796,14688 8791,14694 8789,14699 8787,14706 8978,14722 9168,14643 9354,14466 9551,14426 9654,14404 9659,14406 9742,14334 9835,14270 9936,14214 9950,14205 9965,14198 9981,14191 9984,14188 9988,14182 9990,14177 9998,14175 10009,14175 10020,14175 9967,14089 9922,13992 9888,13881 9897,13761 9930,13657 9993,13568 10027,13519 10062,13475 10099,13438 9960,13321 9796,13195 9609,13059 9530,12907 9375,12752 9143,12591 9145,12748 9193,12930 9290,13140 Z"/></g><g style="stroke:none;fill:rgb(136,34,0)"><path d="M 10099,13438 L 10099,13438 C 10062,13475 10027,13519 9993,13568 9930,13657 9897,13761 9888,13881 9922,13992 9967,14089 10020,14175 10030,14173 10041,14173 10050,14172 10088,14168 10126,14163 10163,14156 10246,14138 10325,14113 10395,14080 10432,14061 10471,14041 10504,14018 10538,13995 10569,13971 10599,13944 10605,13939 10608,13934 10610,13926 10580,13889 10545,13849 10504,13808 10467,13768 10424,13727 10378,13683 10332,13639 10282,13595 10227,13547 10204,13526 10179,13505 10155,13484 10142,13475 10132,13464 10118,13454 10111,13448 10104,13443 10099,13438 Z"/></g><g style="stroke:none;fill:rgb(199,9,5)"><path d="M 10850,16253 L 10850,16253 C 10898,16253 10944,16253 10993,16253 11228,16253 11461,16230 11688,16183 11697,16183 11702,16160 11702,16112 11702,16065 11702,16019 11702,15971 12332,16065 12577,15966 12441,15675 12420,15638 12412,15595 12412,15548 12364,15548 12339,15557 12334,15576 12220,15844 12009,15881 11702,15689 11654,15689 11616,15701 11581,15724 11354,15865 11112,15994 10850,16112 10850,16160 10850,16206 10850,16253 Z"/></g><g style="stroke:none;fill:rgb(171,50,5)"><path d="M 10993,16253 L 10993,16253 C 10944,16253 10898,16253 10850,16253 10850,16301 10850,16347 10850,16395 10850,16442 10852,16488 10858,16536 10872,16790 10774,16931 10566,16959 10566,17007 10554,17044 10531,17072 10398,17218 10174,17275 9857,17241 9933,17402 10122,17453 10424,17396 10473,17388 10519,17382 10566,17382 10566,17335 10566,17289 10566,17241 10916,16860 11391,16760 11993,16938 12036,16952 12080,16959 12128,16959 12176,16959 12222,16959 12271,16959 12271,16911 12269,16888 12262,16888 11639,16855 11214,16643 10993,16253 Z"/></g><g style="stroke:none;fill:rgb(190,10,3)"><path d="M 10850,16395 L 10850,16395 C 10850,16347 10850,16301 10850,16253 10803,16253 10756,16248 10708,16239 10117,16121 9595,16361 9147,16959 9081,17213 9127,17352 9288,17375 9337,17380 9383,17382 9430,17382 9430,17335 9430,17289 9430,17241 9430,17194 9430,17148 9430,17100 9587,17114 9658,17021 9644,16818 L 9715,16818 9715,16818 C 9715,16770 9715,16724 9715,16677 10127,16663 10462,16578 10722,16423 10759,16403 10803,16395 10850,16395 Z"/></g><g style="stroke:none;fill:rgb(156,36,1)"><path d="M 10850,16395 L 10850,16395 C 10803,16395 10759,16403 10722,16423 10462,16578 10127,16663 9715,16677 9715,16724 9715,16770 9715,16818 9715,16865 9715,16911 9715,16959 9947,16860 10227,16837 10559,16888 10564,16888 10566,16911 10566,16959 10774,16931 10872,16790 10858,16536 10852,16488 10850,16442 10850,16395 Z"/></g><g style="stroke:none;fill:rgb(186,41,8)"><path d="M 10566,17382 L 10566,17382 C 10519,17382 10473,17388 10424,17396 10122,17453 9933,17402 9857,17241 9809,17241 9780,17232 9771,17213 9734,17137 9715,17052 9715,16959 9715,16911 9715,16865 9715,16818 L 9644,16818 9644,16818 C 9658,17021 9587,17114 9430,17100 9430,17148 9430,17194 9430,17241 9430,17289 9430,17335 9430,17382 9663,17529 9994,17578 10424,17530 10473,17525 10519,17523 10566,17523 L 10638,17523 10638,17523 C 10638,17476 10614,17430 10566,17382 Z"/></g><g style="stroke:none;fill:rgb(136,61,0)"><path d="M 10531,17072 L 10531,17072 C 10554,17044 10566,17007 10566,16959 10566,16911 10564,16888 10559,16888 10227,16837 9947,16860 9715,16959 9715,17052 9734,17137 9771,17213 9780,17232 9809,17241 9857,17241 10174,17275 10398,17218 10531,17072 Z"/></g><g style="stroke:none;fill:rgb(179,9,1)"><path d="M 14541,15830 L 14541,15830 C 14703,15754 14755,15567 14697,15266 14689,15218 14683,15172 14683,15125 14636,15125 14600,15112 14578,15089 14554,15066 14541,15031 14541,14983 14494,14983 14451,14992 14414,15012 13969,15204 13301,15336 12412,15407 12412,15454 12412,15500 12412,15548 12412,15595 12420,15638 12441,15675 12577,15966 12332,16065 11702,15971 11702,16019 11702,16065 11702,16112 11986,16160 12271,16204 12554,16246 12602,16252 12648,16253 12696,16253 12767,15920 13099,15708 13690,15618 L 13690,15689 13690,15689 C 13974,15689 14253,15712 14527,15760 14536,15760 14541,15782 14541,15830 Z"/></g><g style="stroke:none;fill:rgb(133,58,0)"><path d="M 14541,15830 L 14541,15830 C 14541,15782 14536,15760 14527,15760 14253,15712 13974,15689 13690,15689 13642,15689 13598,15696 13555,15710 13456,15744 13358,15782 13264,15830 13426,16141 13586,16460 13746,16790 13756,16809 13784,16818 13832,16818 13832,16770 13832,16724 13832,16677 13832,16442 13832,16206 13832,15971 14508,16047 14662,16290 14293,16705 14270,16733 14258,16770 14258,16818 14462,16880 14579,16837 14613,16691 14613,16682 14636,16677 14683,16677 14683,16629 14685,16583 14690,16536 14719,16220 14669,15985 14541,15830 Z"/></g><g style="stroke:none;fill:rgb(145,55,0)"><path d="M 11702,16112 L 11702,16112 C 11702,16160 11697,16183 11688,16183 11461,16230 11228,16253 10993,16253 11214,16643 11639,16855 12262,16888 12269,16888 12271,16911 12271,16959 12318,16959 12364,16959 12412,16959 12460,16959 12506,16959 12554,16959 12554,16911 12554,16865 12554,16818 12861,16705 12921,16551 12731,16359 12708,16336 12696,16301 12696,16253 12648,16253 12602,16252 12554,16246 12271,16204 11986,16160 11702,16112 Z"/></g><g style="stroke:none;fill:rgb(163,29,0)"><path d="M 12696,16253 L 12696,16253 C 12696,16301 12708,16336 12731,16359 12921,16551 12861,16705 12554,16818 12554,16865 12554,16911 12554,16959 13202,16451 13443,16548 13278,17248 13270,17291 13264,17335 13264,17382 13312,17382 13358,17382 13405,17382 13454,17382 13500,17382 13547,17382 13596,17335 13633,17283 13661,17227 13681,17190 13690,17148 13690,17100 13690,17052 13690,17007 13690,16959 13737,16959 13773,16947 13796,16924 13819,16901 13832,16865 13832,16818 13784,16818 13756,16809 13746,16790 13586,16460 13426,16141 13264,15830 13358,15782 13456,15744 13555,15710 13598,15696 13642,15689 13690,15689 L 13690,15618 13690,15618 C 13099,15708 12767,15920 12696,16253 Z"/></g><g style="stroke:none;fill:rgb(138,75,0)"><path d="M 13974,16959 L 13974,16959 C 14021,16911 14073,16874 14130,16846 14167,16827 14209,16818 14258,16818 14258,16770 14270,16733 14293,16705 14662,16290 14508,16047 13832,15971 13832,16206 13832,16442 13832,16677 13832,16724 13832,16770 13832,16818 13832,16865 13819,16901 13796,16924 13773,16947 13737,16959 13690,16959 13690,17007 13690,17052 13690,17100 13737,17100 13784,17100 13832,17100 13879,17100 13926,17100 13974,17100 13974,17052 13974,17007 13974,16959 Z"/></g><g style="stroke:none;fill:rgb(127,2,0)"><path d="M 13405,17382 L 13405,17382 C 13358,17382 13312,17382 13264,17382 13264,17430 13254,17472 13235,17509 13207,17566 13170,17617 13122,17664 13122,17758 13122,17853 13122,17947 13122,17994 13122,18040 13122,18088 13264,17994 13393,17888 13512,17770 13535,17747 13547,17712 13547,17664 13547,17617 13547,17571 13547,17523 13547,17476 13547,17430 13547,17382 13500,17382 13454,17382 13405,17382 Z"/></g><g style="stroke:none;fill:rgb(187,1,0)"><path d="M 12271,16959 L 12271,16959 C 12222,16959 12176,16959 12128,16959 12417,17867 12559,17913 12554,17100 12554,17052 12554,17007 12554,16959 12506,16959 12460,16959 12412,16959 12364,16959 12318,16959 12271,16959 Z"/></g></g></g></g></svg>