<?xml version="1.0" encoding="UTF-8"?>
<!DOCTYPE svg PUBLIC "-//W3C//DTD SVG 1.1//EN" "http://www.w3.org/Graphics/SVG/1.1/DTD/svg11.dtd"><svg version="1.1" viewBox="0 0 21000 29700" preserveAspectRatio="xMidYMid" fill-rule="evenodd" xmlns="http://www.w3.org/2000/svg" xmlns:xlink="http://www.w3.org/1999/xlink"><g visibility="visible" id="Default"><desc>Master slide</desc><g style="stroke:none;fill:none"><rect x="0" y="0" width="21000" height="29700"/></g></g><g visibility="visible" id="page1"><desc>Slide</desc><g><desc>Graphic</desc><g><g style="stroke:none;fill:rgb(45,45,45)"><path d="M 6629,10263 L 6629,10263 5913,10263 5913,12550 7630,11978 6629,10263 Z"/></g><g style="stroke:none;fill:rgb(209,209,209)"><path d="M 15074,19410 L 15074,19410 15074,17945 13929,17695 14501,19410 15074,19410 Z"/></g><g style="stroke:none;fill:rgb(130,130,130)"><path d="M 14501,19410 L 14501,19410 13929,17695 12784,17123 12212,18266 12784,19410 14501,19410 Z"/></g><g style="stroke:none;fill:rgb(74,74,74)"><path d="M 15074,11978 L 15074,11978 15074,10263 12212,10263 12784,11406 15074,11978 Z"/></g><g style="stroke:none;fill:rgb(101,101,101)"><path d="M 12784,11406 L 12784,11406 12212,10263 10493,10263 9921,11406 11638,12550 12784,11406 Z"/></g><g style="stroke:none;fill:rgb(74,74,74)"><path d="M 9921,11406 L 9921,11406 10493,10263 6629,10263 7630,11978 9921,11406 Z"/></g><g style="stroke:none;fill:rgb(188,188,188)"><path d="M 7630,11978 L 7630,11978 5913,12550 5913,14407 7058,14836 8204,13121 7630,11978 Z"/></g><g style="stroke:none;fill:rgb(143,143,143)"><path d="M 7058,14836 L 7058,14836 5913,14407 5913,17123 7630,16552 7058,14836 Z"/></g><g style="stroke:none;fill:rgb(92,92,92)"><path d="M 7630,16552 L 7630,16552 5913,17123 5913,19410 8204,19410 8776,17695 7630,16552 Z"/></g><g style="stroke:none;fill:rgb(143,143,143)"><path d="M 15074,12943 L 15074,12943 15074,11978 12784,11406 11638,12550 13357,13693 15074,12943 Z"/></g><g style="stroke:none;fill:rgb(202,202,202)"><path d="M 13929,15408 L 13929,15408 15074,15551 15074,12943 13357,13693 13929,15408 Z"/></g><g style="stroke:none;fill:rgb(154,154,154)"><path d="M 12212,16552 L 12212,16552 12784,17123 13929,17695 15074,17945 15074,15551 13929,15408 12212,16552 Z"/></g><g style="stroke:none;fill:rgb(66,66,66)"><path d="M 12784,17123 L 12784,17123 12212,16552 11066,14836 10493,17695 12212,18266 12784,17123 Z"/></g><g style="stroke:none;fill:rgb(92,92,92)"><path d="M 12212,16552 L 12212,16552 13929,15408 13357,13693 11638,12550 10493,13693 11066,14836 12212,16552 Z"/></g><g style="stroke:none;fill:rgb(215,215,215)"><path d="M 10493,13693 L 10493,13693 11638,12550 9921,11406 7630,11978 8204,13121 10493,13693 Z"/></g><g style="stroke:none;fill:rgb(101,101,101)"><path d="M 7058,14836 L 7058,14836 7630,16552 9349,15408 8204,13121 7058,14836 Z"/></g><g style="stroke:none;fill:rgb(138,138,138)"><path d="M 9349,15408 L 9349,15408 11066,14836 10493,13693 8204,13121 9349,15408 Z"/></g><g style="stroke:none;fill:rgb(188,188,188)"><path d="M 11066,14836 L 11066,14836 9349,15408 7630,16552 8776,17695 10493,17695 11066,14836 Z"/></g><g style="stroke:none;fill:rgb(223,223,223)"><path d="M 10493,17695 L 10493,17695 10493,19410 12784,19410 12212,18266 10493,17695 Z"/></g><g style="stroke:none;fill:rgb(138,138,138)"><path d="M 10493,19410 L 10493,19410 10493,17695 8776,17695 8204,19410 10493,19410 Z"/></g></g></g></g></svg>