<?xml version="1.0" encoding="UTF-8"?>
<!DOCTYPE svg PUBLIC "-//W3C//DTD SVG 1.1//EN" "http://www.w3.org/Graphics/SVG/1.1/DTD/svg11.dtd"><svg version="1.1" viewBox="0 0 21000 29700" preserveAspectRatio="xMidYMid" fill-rule="evenodd" xmlns="http://www.w3.org/2000/svg" xmlns:xlink="http://www.w3.org/1999/xlink"><g visibility="visible" id="Default"><desc>Master slide</desc><g style="stroke:none;fill:none"><rect x="0" y="0" width="21000" height="29700"/></g></g><g visibility="visible" id="page1"><desc>Slide</desc><g><desc>Graphic</desc><g><g style="stroke:none;fill:rgb(144,2,0)"><path d="M 14072,14265 L 14072,14265 13929,14265 13929,15408 14072,15408 14072,14265 Z"/></g><g style="stroke:none;fill:rgb(126,2,0)"><path d="M 14215,14265 L 14215,14265 14072,14265 14072,15408 14215,15408 14215,14265 Z"/></g><g style="stroke:none;fill:rgb(91,1,0)"><path d="M 14501,14265 L 14501,14265 14358,14265 14358,15408 14501,15408 14501,14265 Z"/></g><g style="stroke:none;fill:rgb(109,1,0)"><path d="M 14358,14265 L 14358,14265 14215,14265 14215,15408 14358,15408 14358,14265 Z"/></g><g style="stroke:none;fill:rgb(232,4,0)"><path d="M 13357,14265 L 13357,14265 13213,14265 13213,15408 13357,15408 13357,14265 Z"/></g><g style="stroke:none;fill:rgb(214,4,0)"><path d="M 13500,14265 L 13500,14265 13357,14265 13357,15408 13500,15408 13500,14265 Z"/></g><g style="stroke:none;fill:rgb(179,3,0)"><path d="M 13786,14265 L 13786,14265 13643,14265 13643,15408 13786,15408 13786,14265 Z"/></g><g style="stroke:none;fill:rgb(197,3,0)"><path d="M 13643,14265 L 13643,14265 13500,14265 13500,15408 13643,15408 13643,14265 Z"/></g><g style="stroke:none;fill:rgb(83,1,0)"><path d="M 14501,14265 L 14501,14265 14501,15408 14645,15408 14645,14265 14501,14265 Z"/></g><g style="stroke:none;fill:rgb(170,3,0)"><path d="M 13929,15408 L 13929,15408 13929,14265 13786,14265 13786,15408 13929,15408 Z"/></g><g style="stroke:none;fill:rgb(254,8,0)"><path d="M 13213,15408 L 13213,15408 13213,14265 13070,14265 13070,15408 13213,15408 Z"/></g><g style="stroke:none;fill:rgb(254,55,0)"><path d="M 12641,14265 L 12641,14265 12498,14265 12498,15408 12641,15408 12641,14265 Z"/></g><g style="stroke:none;fill:rgb(254,41,0)"><path d="M 12784,14265 L 12784,14265 12641,14265 12641,15408 12784,15408 12784,14265 Z"/></g><g style="stroke:none;fill:rgb(254,15,0)"><path d="M 13070,14265 L 13070,14265 12927,14265 12927,15408 13070,15408 13070,14265 Z"/></g><g style="stroke:none;fill:rgb(254,28,0)"><path d="M 12927,14265 L 12927,14265 12784,14265 12784,15408 12927,15408 12927,14265 Z"/></g><g style="stroke:none;fill:rgb(254,121,0)"><path d="M 11925,14265 L 11925,14265 11781,14265 11781,15408 11925,15408 11925,14265 Z"/></g><g style="stroke:none;fill:rgb(254,108,0)"><path d="M 12069,14265 L 12069,14265 11925,14265 11925,15408 12069,15408 12069,14265 Z"/></g><g style="stroke:none;fill:rgb(254,81,0)"><path d="M 12355,14265 L 12355,14265 12212,14265 12212,15408 12355,15408 12355,14265 Z"/></g><g style="stroke:none;fill:rgb(254,95,0)"><path d="M 12212,14265 L 12212,14265 12069,14265 12069,15408 12212,15408 12212,14265 Z"/></g><g style="stroke:none;fill:rgb(254,75,0)"><path d="M 12498,15408 L 12498,15408 12498,14265 12355,14265 12355,15408 12498,15408 Z"/></g><g style="stroke:none;fill:rgb(254,141,0)"><path d="M 11781,15408 L 11781,15408 11781,14265 11638,14265 11638,15408 11781,15408 Z"/></g><g style="stroke:none;fill:rgb(26,0,0)"><path d="M 15074,14265 L 15074,14265 14931,14265 14931,15408 15074,15408 15074,14265 Z"/></g><g style="stroke:none;fill:rgb(39,0,0)"><path d="M 14931,14265 L 14931,14265 14788,14265 14788,15408 14931,15408 14931,14265 Z"/></g><g style="stroke:none;fill:rgb(56,0,0)"><path d="M 14788,14265 L 14788,14265 14645,14265 14645,15408 14788,15408 14788,14265 Z"/></g><g style="stroke:none;fill:rgb(255,51,0)"><path d="M 8347,14265 L 8347,14265 8204,14265 8204,15408 8347,15408 8347,14265 Z"/></g><g style="stroke:none;fill:rgb(255,78,0)"><path d="M 8633,14265 L 8633,14265 8490,14265 8490,15408 8633,15408 8633,14265 Z"/></g><g style="stroke:none;fill:rgb(255,91,0)"><path d="M 8776,14265 L 8776,14265 8633,14265 8633,15408 8776,15408 8776,14265 Z"/></g><g style="stroke:none;fill:rgb(255,64,0)"><path d="M 8490,14265 L 8490,14265 8347,14265 8347,15408 8490,15408 8490,14265 Z"/></g><g style="stroke:none;fill:rgb(233,0,0)"><path d="M 7630,14265 L 7630,14265 7487,14265 7487,15408 7630,15408 7630,14265 Z"/></g><g style="stroke:none;fill:rgb(255,10,0)"><path d="M 7918,14265 L 7918,14265 7773,14265 7773,15408 7918,15408 7918,14265 Z"/></g><g style="stroke:none;fill:rgb(255,23,0)"><path d="M 8061,14265 L 8061,14265 7918,14265 7918,15408 8061,15408 8061,14265 Z"/></g><g style="stroke:none;fill:rgb(250,0,0)"><path d="M 7773,14265 L 7773,14265 7630,14265 7630,15408 7773,15408 7773,14265 Z"/></g><g style="stroke:none;fill:rgb(255,98,0)"><path d="M 8776,14265 L 8776,14265 8776,15408 8919,15408 8919,14265 8776,14265 Z"/></g><g style="stroke:none;fill:rgb(255,30,0)"><path d="M 8204,15408 L 8204,15408 8204,14265 8061,14265 8061,15408 8204,15408 Z"/></g><g style="stroke:none;fill:rgb(208,0,0)"><path d="M 7487,15408 L 7487,15408 7487,14265 7344,14265 7344,15408 7487,15408 Z"/></g><g style="stroke:none;fill:rgb(149,0,0)"><path d="M 6915,14265 L 6915,14265 6772,14265 6772,15408 6915,15408 6915,14265 Z"/></g><g style="stroke:none;fill:rgb(183,0,0)"><path d="M 7201,14265 L 7201,14265 7058,14265 7058,15408 7201,15408 7201,14265 Z"/></g><g style="stroke:none;fill:rgb(200,0,0)"><path d="M 7344,14265 L 7344,14265 7201,14265 7201,15408 7344,15408 7344,14265 Z"/></g><g style="stroke:none;fill:rgb(166,0,0)"><path d="M 7058,14265 L 7058,14265 6915,14265 6915,15408 7058,15408 7058,14265 Z"/></g><g style="stroke:none;fill:rgb(65,0,0)"><path d="M 6199,14265 L 6199,14265 6056,14265 6056,15408 6199,15408 6199,14265 Z"/></g><g style="stroke:none;fill:rgb(48,0,0)"><path d="M 6056,14265 L 6056,14265 5913,14265 5913,15408 6056,15408 6056,14265 Z"/></g><g style="stroke:none;fill:rgb(99,0,0)"><path d="M 6485,14265 L 6485,14265 6342,14265 6342,15408 6485,15408 6485,14265 Z"/></g><g style="stroke:none;fill:rgb(116,0,0)"><path d="M 6629,14265 L 6629,14265 6485,14265 6485,15408 6629,15408 6629,14265 Z"/></g><g style="stroke:none;fill:rgb(82,0,0)"><path d="M 6342,14265 L 6342,14265 6199,14265 6199,15408 6342,15408 6342,14265 Z"/></g><g style="stroke:none;fill:rgb(124,0,0)"><path d="M 6772,15408 L 6772,15408 6772,14265 6629,14265 6629,15408 6772,15408 Z"/></g><g style="stroke:none;fill:rgb(254,188,0)"><path d="M 11209,14265 L 11209,14265 11066,14265 11066,15408 11209,15408 11209,14265 Z"/></g><g style="stroke:none;fill:rgb(254,161,0)"><path d="M 11495,14265 L 11495,14265 11352,14265 11352,15408 11495,15408 11495,14265 Z"/></g><g style="stroke:none;fill:rgb(254,148,0)"><path d="M 11638,14265 L 11638,14265 11495,14265 11495,15408 11638,15408 11638,14265 Z"/></g><g style="stroke:none;fill:rgb(254,175,0)"><path d="M 11352,14265 L 11352,14265 11209,14265 11209,15408 11352,15408 11352,14265 Z"/></g><g style="stroke:none;fill:rgb(255,255,0)"><path d="M 10493,14265 L 10493,14265 10350,14265 10350,15408 10493,15408 10493,14265 Z"/></g><g style="stroke:none;fill:rgb(254,228,0)"><path d="M 10780,14265 L 10780,14265 10637,14265 10637,15408 10780,15408 10780,14265 Z"/></g><g style="stroke:none;fill:rgb(254,215,0)"><path d="M 10923,14265 L 10923,14265 10780,14265 10780,15408 10923,15408 10923,14265 Z"/></g><g style="stroke:none;fill:rgb(254,241,0)"><path d="M 10637,14265 L 10637,14265 10493,14265 10493,15408 10637,15408 10637,14265 Z"/></g><g style="stroke:none;fill:rgb(254,208,0)"><path d="M 11066,15408 L 11066,15408 11066,14265 10923,14265 10923,15408 11066,15408 Z"/></g><g style="stroke:none;fill:rgb(255,234,0)"><path d="M 10350,15408 L 10350,15408 10350,14265 10207,14265 10207,15408 10350,15408 Z"/></g><g style="stroke:none;fill:rgb(255,187,0)"><path d="M 9778,14265 L 9778,14265 9635,14265 9635,15408 9778,15408 9778,14265 Z"/></g><g style="stroke:none;fill:rgb(255,214,0)"><path d="M 10064,14265 L 10064,14265 9921,14265 9921,15408 10064,15408 10064,14265 Z"/></g><g style="stroke:none;fill:rgb(255,227,0)"><path d="M 10207,14265 L 10207,14265 10064,14265 10064,15408 10207,15408 10207,14265 Z"/></g><g style="stroke:none;fill:rgb(255,200,0)"><path d="M 9921,14265 L 9921,14265 9778,14265 9778,15408 9921,15408 9921,14265 Z"/></g><g style="stroke:none;fill:rgb(255,119,0)"><path d="M 9062,14265 L 9062,14265 8919,14265 8919,15408 9062,15408 9062,14265 Z"/></g><g style="stroke:none;fill:rgb(255,146,0)"><path d="M 9349,14265 L 9349,14265 9205,14265 9205,15408 9349,15408 9349,14265 Z"/></g><g style="stroke:none;fill:rgb(255,159,0)"><path d="M 9492,14265 L 9492,14265 9349,14265 9349,15408 9492,15408 9492,14265 Z"/></g><g style="stroke:none;fill:rgb(255,132,0)"><path d="M 9205,14265 L 9205,14265 9062,14265 9062,15408 9205,15408 9205,14265 Z"/></g><g style="stroke:none;fill:rgb(255,166,0)"><path d="M 9635,15408 L 9635,15408 9635,14265 9492,14265 9492,15408 9635,15408 Z"/></g></g></g></g></svg>