<?xml version="1.0" encoding="UTF-8"?>
<!DOCTYPE svg PUBLIC "-//W3C//DTD SVG 1.1//EN" "http://www.w3.org/Graphics/SVG/1.1/DTD/svg11.dtd"><svg version="1.1" viewBox="0 0 21000 29700" preserveAspectRatio="xMidYMid" fill-rule="evenodd" xmlns="http://www.w3.org/2000/svg" xmlns:xlink="http://www.w3.org/1999/xlink"><g visibility="visible" id="Default"><desc>Master slide</desc><g style="stroke:none;fill:none"><rect x="0" y="0" width="21000" height="29700"/></g></g><g visibility="visible" id="page1"><desc>Slide</desc><g><desc>Graphic</desc><g><g style="stroke:none;fill:rgb(47,47,47)"><path d="M 14877,13468 L 14877,13468 C 14819,13273 14745,13082 14657,12898 14659,12971 14660,13046 14660,13121 14660,14744 14086,16128 12938,17277 11788,18423 10401,18997 8776,18997 8701,18997 8626,18996 8553,18994 8736,19081 8928,19155 9123,19213 10662,19136 11985,18545 13097,17436 14208,16326 14800,15004 14877,13468 Z"/></g><g style="stroke:none;fill:rgb(55,55,55)"><path d="M 14660,13121 L 14660,13121 C 14660,13046 14659,12971 14657,12898 14580,12735 14494,12576 14396,12422 14421,12649 14433,12884 14433,13121 14433,14681 13880,16014 12777,17116 11673,18218 10338,18770 8776,18770 8538,18770 8303,18758 8076,18732 8230,18830 8389,18917 8553,18994 8626,18996 8701,18997 8776,18997 10401,18997 11788,18423 12938,17277 14086,16128 14660,14744 14660,13121 Z"/></g><g style="stroke:none;fill:rgb(71,71,71)"><path d="M 14104,12017 L 14104,12017 C 14006,11894 13899,11772 13784,11657 13915,12117 13981,12605 13981,13121 13981,14556 13472,15782 12456,16796 11441,17811 10213,18318 8776,18318 8258,18318 7770,18252 7309,18121 7424,18236 7546,18343 7670,18442 8024,18511 8393,18545 8776,18545 10277,18545 11556,18016 12617,16957 13678,15897 14208,14620 14208,13121 14208,12739 14174,12371 14104,12017 Z"/></g><g style="stroke:none;fill:rgb(79,79,79)"><path d="M 13784,11657 L 13784,11657 C 13768,11638 13750,11621 13732,11603 13637,11508 13538,11417 13439,11332 13650,11884 13756,12480 13756,13121 13756,14496 13269,15667 12297,16637 11326,17607 10152,18093 8776,18093 8134,18093 7536,17988 6983,17777 7068,17876 7160,17975 7255,18070 7273,18088 7291,18105 7309,18121 7770,18252 8258,18318 8776,18318 10213,18318 11441,17811 12456,16796 13472,15782 13981,14556 13981,13121 13981,12605 13915,12117 13784,11657 Z"/></g><g style="stroke:none;fill:rgb(95,95,95)"><path d="M 13063,11042 L 13063,11042 C 12936,10955 12805,10874 12673,10801 13093,11486 13303,12260 13303,13121 13303,14370 12861,15434 11977,16318 11093,17200 10026,17641 8776,17641 7913,17641 7138,17432 6452,17012 6525,17144 6606,17275 6693,17401 7323,17710 8017,17866 8776,17866 10087,17866 11207,17403 12136,16477 13065,15549 13528,14431 13528,13121 13528,12364 13372,11671 13063,11042 Z"/></g><g style="stroke:none;fill:rgb(103,103,103)"><path d="M 12673,10801 L 12673,10801 C 12538,10728 12402,10661 12265,10604 12805,11332 13076,12169 13076,13121 13076,14307 12655,15319 11816,16157 10977,16994 9964,17415 8776,17415 7822,17415 6983,17144 6255,16605 6312,16742 6379,16878 6452,17012 7138,17432 7913,17641 8776,17641 10026,17641 11093,17200 11977,16318 12861,15434 13303,14370 13303,13121 13303,12260 13093,11486 12673,10801 Z"/></g><g style="stroke:none;fill:rgb(111,111,111)"><path d="M 12265,10604 L 12265,10604 C 12130,10549 11994,10499 11857,10457 12519,11208 12850,12096 12850,13121 12850,14245 12453,15203 11657,15998 10860,16793 9902,17189 8776,17189 7749,17189 6859,16858 6108,16197 6149,16335 6199,16471 6255,16605 6983,17144 7822,17415 8776,17415 9964,17415 10977,16994 11816,16157 12655,15319 13076,14307 13076,13121 13076,12169 12805,11332 12265,10604 Z"/></g><g style="stroke:none;fill:rgb(63,63,63)"><path d="M 14433,13121 L 14433,13121 C 14433,12884 14421,12649 14396,12422 14306,12284 14210,12148 14104,12017 14174,12371 14208,12739 14208,13121 14208,14620 13678,15897 12617,16957 11556,18016 10277,18545 8776,18545 8393,18545 8024,18511 7670,18442 7801,18547 7937,18643 8076,18732 8303,18758 8538,18770 8776,18770 10338,18770 11673,18218 12777,17116 13880,16014 14433,14681 14433,13121 Z"/></g><g style="stroke:none;fill:rgb(87,87,87)"><path d="M 13756,13121 L 13756,13121 C 13756,12480 13650,11884 13439,11332 13315,11227 13190,11131 13063,11042 13372,11671 13528,12364 13528,13121 13528,14431 13065,15549 12136,16477 11207,17403 10087,17866 8776,17866 8017,17866 7323,17710 6693,17401 6782,17529 6879,17654 6983,17777 7536,17988 8134,18093 8776,18093 10152,18093 11326,17607 12297,16637 13269,15667 13756,14496 13756,13121 Z"/></g><g style="stroke:none;fill:rgb(119,119,119)"><path d="M 12850,13121 L 12850,13121 C 12850,12096 12519,11208 11857,10457 11723,10417 11585,10383 11448,10356 11463,10372 11481,10388 11497,10404 12247,11154 12622,12060 12622,13121 12622,14183 12247,15088 11497,15839 10746,16587 9839,16962 8776,16962 7713,16962 6806,16587 6054,15839 6038,15822 6023,15804 6006,15789 6033,15926 6067,16063 6108,16197 6859,16858 7749,17189 8776,17189 9902,17189 10860,16793 11657,15998 12453,15203 12850,14245 12850,13121 Z"/></g><g style="stroke:none;fill:rgb(24,24,24)"><path d="M 15070,15041 L 15070,15041 C 15072,14974 15074,14906 15074,14836 15074,14613 15060,14397 15033,14185 14827,15481 14235,16617 13256,17595 12277,18572 11139,19163 9841,19368 10054,19396 10270,19410 10493,19410 10563,19410 10631,19408 10699,19406 11710,19106 12615,18556 13418,17756 14219,16955 14770,16051 15070,15041 Z"/></g><g style="stroke:none;fill:rgb(23,23,23)"><path d="M 14922,16053 L 14922,16053 C 15006,15729 15056,15394 15070,15041 14770,16051 14219,16955 13418,17756 12615,18556 11710,19106 10699,19406 11052,19392 11388,19342 11712,19258 12385,18933 13006,18484 13577,17915 14147,17345 14596,16725 14922,16053 Z"/></g><g style="stroke:none;fill:rgb(39,39,39)"><path d="M 15033,14185 L 15033,14185 C 14999,13938 14947,13698 14877,13468 14800,15004 14208,16326 13097,17436 11985,18545 10662,19136 9123,19213 9354,19283 9593,19335 9841,19368 11139,19163 12277,18572 13256,17595 14235,16617 14827,15481 15033,14185 Z"/></g><g style="stroke:none;fill:rgb(127,127,127)"><path d="M 11497,10404 L 11497,10404 C 11481,10388 11463,10372 11448,10356 11313,10329 11175,10308 11034,10291 11137,10375 11238,10467 11336,10565 12043,11271 12397,12123 12397,13121 12397,14120 12043,14972 11336,15678 10629,16383 9776,16737 8776,16737 7775,16737 6922,16383 6215,15678 6117,15579 6026,15479 5941,15376 5958,15517 5979,15654 6006,15789 6023,15804 6038,15822 6054,15839 6806,16587 7713,16962 8776,16962 9839,16962 10746,16587 11497,15839 12247,15088 12622,14183 12622,13121 12622,12060 12247,11154 11497,10404 Z"/></g><g style="stroke:none;fill:rgb(135,135,135)"><path d="M 11336,10565 L 11336,10565 C 11238,10467 11137,10375 11034,10291 10896,10277 10757,10268 10615,10265 10812,10396 11000,10547 11177,10724 11839,11386 12170,12185 12170,13121 12170,14057 11839,14856 11177,15519 10513,16180 9713,16510 8776,16510 7838,16510 7038,16180 6375,15519 6197,15342 6046,15154 5915,14957 5918,15099 5927,15238 5941,15376 6026,15479 6117,15579 6215,15678 6922,16383 7775,16737 8776,16737 9776,16737 10629,16383 11336,15678 12043,14972 12397,14120 12397,13121 12397,12123 12043,11271 11336,10565 Z"/></g><g style="stroke:none;fill:rgb(143,143,143)"><path d="M 11177,10724 L 11177,10724 C 11000,10547 10812,10396 10615,10265 10574,10263 10535,10263 10493,10263 10387,10263 10281,10267 10177,10274 10479,10424 10758,10628 11016,10885 11635,11501 11945,12248 11945,13121 11945,13995 11635,14742 11016,15357 10399,15976 9651,16285 8776,16285 7901,16285 7153,15976 6536,15357 6278,15100 6074,14822 5924,14520 5917,14624 5913,14730 5913,14836 5913,14877 5913,14917 5915,14957 6046,15154 6197,15342 6375,15519 7038,16180 7838,16510 8776,16510 9713,16510 10513,16180 11177,15519 11839,14856 12170,14057 12170,13121 12170,12185 11839,11386 11177,10724 Z"/></g><g style="stroke:none;fill:rgb(151,151,151)"><path d="M 10177,10274 L 10177,10274 C 10015,10282 9858,10300 9703,10326 10130,10464 10515,10703 10856,11044 11431,11617 11718,12310 11718,13121 11718,13932 11431,14625 10856,15198 10282,15773 9588,16058 8776,16058 7963,16058 7269,15773 6695,15198 6353,14858 6114,14473 5976,14047 5951,14202 5932,14359 5924,14520 6074,14822 6278,15100 6536,15357 7153,15976 7901,16285 8776,16285 9651,16285 10399,15976 11016,15357 11635,14742 11945,13995 11945,13121 11945,12248 11635,11501 11016,10885 10758,10628 10479,10424 10177,10274 Z"/></g><g style="stroke:none;fill:rgb(159,159,159)"><path d="M 9703,10326 L 9703,10326 C 9529,10352 9361,10390 9195,10438 9767,10520 10268,10775 10696,11205 11228,11734 11492,12373 11492,13121 11492,13870 11228,14510 10696,15038 10166,15569 9525,15834 8776,15834 8026,15834 7386,15569 6856,15038 6426,14611 6171,14111 6088,13539 6040,13706 6002,13874 5976,14047 6114,14473 6353,14858 6695,15198 7269,15773 7963,16058 8776,16058 9588,16058 10282,15773 10856,15198 11431,14625 11718,13932 11718,13121 11718,12310 11431,11617 10856,11044 10515,10703 10130,10464 9703,10326 Z"/></g><g style="stroke:none;fill:rgb(167,167,167)"><path d="M 11492,13121 L 11492,13121 C 11492,12373 11228,11734 10696,11205 10268,10775 9767,10520 9195,10438 9003,10494 8818,10560 8638,10640 8682,10638 8729,10637 8776,10637 9462,10637 10050,10880 10537,11364 11022,11849 11265,12436 11265,13121 11265,13807 11022,14393 10537,14879 10050,15364 9462,15607 8776,15607 8089,15607 7502,15364 7016,14879 6531,14393 6287,13807 6287,13121 6287,13075 6288,13028 6290,12983 6210,13164 6144,13348 6088,13539 6171,14111 6426,14611 6856,15038 7386,15569 8026,15834 8776,15834 9525,15834 10166,15569 10696,15038 11228,14510 11492,13870 11492,13121 Z"/></g><g style="stroke:none;fill:rgb(175,175,175)"><path d="M 11265,13121 L 11265,13121 C 11265,12436 11022,11849 10537,11364 10050,10880 9462,10637 8776,10637 8729,10637 8682,10638 8638,10640 8418,10738 8205,10854 8000,10992 8241,10904 8499,10862 8776,10862 9401,10862 9933,11081 10375,11523 10818,11964 11039,12498 11039,13121 11039,13745 10818,14277 10375,14718 9933,15160 9401,15381 8776,15381 8152,15381 7616,15160 7175,14718 6733,14277 6513,13745 6513,13121 6513,12845 6555,12587 6643,12346 6505,12551 6389,12764 6290,12983 6288,13028 6287,13075 6287,13121 6287,13807 6531,14393 7016,14879 7502,15364 8089,15607 8776,15607 9462,15607 10050,15364 10537,14879 11022,14393 11265,13807 11265,13121 Z"/></g><g style="stroke:none;fill:rgb(183,183,183)"><path d="M 11039,13121 L 11039,13121 C 11039,12498 10818,11964 10375,11523 9933,11081 9401,10862 8776,10862 8499,10862 8241,10904 8000,10992 7738,11165 7489,11369 7255,11603 7021,11837 6817,12085 6643,12346 6555,12587 6513,12845 6513,13121 6513,13745 6733,14277 7175,14718 7616,15160 8152,15381 8776,15381 9401,15381 9933,15160 10375,14718 10818,14277 11039,13745 11039,13121 Z M 10216,11683 L 10216,11683 C 10614,12080 10812,12559 10812,13121 10812,13684 10614,14162 10216,14559 9819,14956 9340,15154 8776,15154 8213,15154 7733,14956 7335,14559 6939,14162 6740,13684 6740,13121 6740,12559 6939,12080 7335,11683 7733,11287 8213,11088 8776,11088 9340,11088 9819,11287 10216,11683 Z"/></g><g style="stroke:none;fill:rgb(191,191,191)"><path d="M 10812,13121 L 10812,13121 C 10812,12559 10614,12080 10216,11683 9819,11287 9340,11088 8776,11088 8213,11088 7733,11287 7335,11683 6939,12080 6740,12559 6740,13121 6740,13684 6939,14162 7335,14559 7733,14956 8213,15154 8776,15154 9340,15154 9819,14956 10216,14559 10614,14162 10812,13684 10812,13121 Z M 10055,11844 L 10055,11844 C 10410,12195 10586,12623 10586,13121 10586,13619 10410,14047 10055,14398 9703,14753 9275,14929 8776,14929 8277,14929 7849,14753 7497,14398 7142,14047 6965,13619 6965,13121 6965,12623 7142,12195 7497,11844 7849,11491 8277,11313 8776,11313 9275,11313 9703,11491 10055,11844 Z"/></g><g style="stroke:none;fill:rgb(199,199,199)"><path d="M 10586,13121 L 10586,13121 C 10586,12623 10410,12195 10055,11844 9703,11491 9275,11313 8776,11313 8277,11313 7849,11491 7497,11844 7142,12195 6965,12623 6965,13121 6965,13619 7142,14047 7497,14398 7849,14753 8277,14929 8776,14929 9275,14929 9703,14753 10055,14398 10410,14047 10586,13619 10586,13121 Z M 9896,12003 L 9896,12003 C 10205,12312 10359,12684 10359,13121 10359,13559 10205,13930 9896,14239 9586,14548 9214,14702 8776,14702 8337,14702 7965,14548 7656,14239 7346,13930 7192,13559 7192,13121 7192,12684 7346,12312 7656,12003 7965,11694 8337,11540 8776,11540 9214,11540 9586,11694 9896,12003 Z"/></g><g style="stroke:none;fill:rgb(207,207,207)"><path d="M 10359,13121 L 10359,13121 C 10359,12684 10205,12312 9896,12003 9586,11694 9214,11540 8776,11540 8337,11540 7965,11694 7656,12003 7346,12312 7192,12684 7192,13121 7192,13559 7346,13930 7656,14239 7965,14548 8337,14702 8776,14702 9214,14702 9586,14548 9896,14239 10205,13930 10359,13559 10359,13121 Z M 9736,12162 L 9736,12162 C 10001,12426 10134,12746 10134,13121 10134,13497 10001,13816 9736,14080 9472,14345 9152,14477 8776,14477 8400,14477 8080,14345 7815,14080 7550,13816 7417,13497 7417,13121 7417,12746 7550,12426 7815,12162 8080,11898 8400,11765 8776,11765 9152,11765 9472,11898 9736,12162 Z"/></g><g style="stroke:none;fill:rgb(215,215,215)"><path d="M 10134,13121 L 10134,13121 C 10134,12746 10001,12426 9736,12162 9472,11898 9152,11765 8776,11765 8400,11765 8080,11898 7815,12162 7550,12426 7417,12746 7417,13121 7417,13497 7550,13816 7815,14080 8080,14345 8400,14477 8776,14477 9152,14477 9472,14345 9736,14080 10001,13816 10134,13497 10134,13121 Z M 9576,12323 L 9576,12323 C 9796,12543 9907,12808 9907,13121 9907,13434 9796,13701 9576,13920 9356,14140 9089,14250 8776,14250 8462,14250 8196,14140 7976,13920 7756,13701 7645,13434 7645,13121 7645,12808 7756,12543 7976,12323 8196,12103 8462,11992 8776,11992 9089,11992 9356,12103 9576,12323 Z"/></g><g style="stroke:none;fill:rgb(223,223,223)"><path d="M 9907,13121 L 9907,13121 C 9907,12808 9796,12543 9576,12323 9356,12103 9089,11992 8776,11992 8462,11992 8196,12103 7976,12323 7756,12543 7645,12808 7645,13121 7645,13434 7756,13701 7976,13920 8196,14140 8462,14250 8776,14250 9089,14250 9356,14140 9576,13920 9796,13701 9907,13434 9907,13121 Z M 9682,13121 L 9682,13121 C 9682,13371 9593,13584 9417,13761 9239,13938 9026,14026 8776,14026 8525,14026 8312,13938 8136,13761 7958,13584 7871,13371 7871,13121 7871,12871 7958,12658 8136,12482 8312,12305 8525,12218 8776,12218 9026,12218 9239,12305 9417,12482 9593,12658 9682,12871 9682,13121 Z"/></g><g style="stroke:none;fill:rgb(231,231,231)"><path d="M 9417,13761 L 9417,13761 C 9593,13584 9682,13371 9682,13121 9682,12871 9593,12658 9417,12482 9239,12305 9026,12218 8776,12218 8525,12218 8312,12305 8136,12482 7958,12658 7871,12871 7871,13121 7871,13371 7958,13584 8136,13761 8312,13938 8525,14026 8776,14026 9026,14026 9239,13938 9417,13761 Z M 9454,13121 L 9454,13121 C 9454,13309 9387,13468 9256,13600 9123,13732 8963,13799 8776,13799 8588,13799 8429,13732 8296,13600 8164,13468 8098,13309 8098,13121 8098,12934 8164,12775 8296,12642 8429,12510 8588,12445 8776,12445 8963,12445 9123,12510 9256,12642 9387,12775 9454,12934 9454,13121 Z"/></g><g style="stroke:none;fill:rgb(239,239,239)"><path d="M 9256,13600 L 9256,13600 C 9387,13468 9454,13309 9454,13121 9454,12934 9387,12775 9256,12642 9123,12510 8963,12445 8776,12445 8588,12445 8429,12510 8296,12642 8164,12775 8098,12934 8098,13121 8098,13309 8164,13468 8296,13600 8429,13732 8588,13799 8776,13799 8963,13799 9123,13732 9256,13600 Z M 9228,13121 L 9228,13121 C 9228,13247 9184,13353 9096,13441 9008,13528 8901,13573 8776,13573 8651,13573 8543,13528 8455,13441 8368,13353 8323,13247 8323,13121 8323,12997 8368,12889 8455,12801 8543,12714 8651,12669 8776,12669 8901,12669 9008,12714 9096,12801 9184,12889 9228,12997 9228,13121 Z"/></g><g style="stroke:none;fill:rgb(247,247,247)"><path d="M 9096,13441 L 9096,13441 C 9184,13353 9228,13247 9228,13121 9228,12997 9184,12889 9096,12801 9008,12714 8901,12669 8776,12669 8651,12669 8543,12714 8455,12801 8368,12889 8323,12997 8323,13121 8323,13247 8368,13353 8455,13441 8543,13528 8651,13573 8776,13573 8901,13573 9008,13528 9096,13441 Z M 9001,13121 L 9001,13121 C 9001,13184 8980,13236 8935,13280 8890,13325 8839,13346 8776,13346 8713,13346 8661,13325 8616,13280 8572,13236 8551,13184 8551,13121 8551,13058 8572,13007 8616,12962 8661,12918 8713,12896 8776,12896 8839,12896 8890,12918 8935,12962 8980,13007 9001,13058 9001,13121 Z"/></g><g style="stroke:none;fill:rgb(255,255,255)"><path d="M 8935,13280 L 8935,13280 C 8980,13236 9001,13184 9001,13121 9001,13058 8980,13007 8935,12962 8890,12918 8839,12896 8776,12896 8713,12896 8661,12918 8616,12962 8572,13007 8551,13058 8551,13121 8551,13184 8572,13236 8616,13280 8661,13325 8713,13346 8776,13346 8839,13346 8890,13325 8935,13280 Z"/></g><g style="stroke:none;fill:rgb(15,15,15)"><path d="M 13577,17915 L 13577,17915 C 13006,18484 12385,18933 11712,19258 12465,19057 13140,18661 13732,18070 14325,17478 14721,16805 14922,16053 14596,16725 14147,17345 13577,17915 Z"/></g></g></g></g></svg>